<?xml version="1.0" encoding="UTF-8" standalone="no"?>
<svg xmlns:dc="http://purl.org/dc/elements/1.1/" xmlns:cc="http://creativecommons.org/ns#" xmlns:rdf="http://www.w3.org/1999/02/22-rdf-syntax-ns#" xmlns:svg="http://www.w3.org/2000/svg" xmlns="http://www.w3.org/2000/svg" xmlns:xlink="http://www.w3.org/1999/xlink" xmlns:sodipodi="http://sodipodi.sourceforge.net/DTD/sodipodi-0.dtd" xmlns:inkscape="http://www.inkscape.org/namespaces/inkscape" id="svg3741" version="1.1" viewBox="0 0 500 500">

<defs id="defs3743"><linearGradient id="linearGradient4573-9-549"><stop id="stop33336" offset="0" style="stop-color:#ffffff;stop-opacity:1;"/><stop id="stop33338" offset="1" style="stop-color:#ffffff;stop-opacity:0;"/></linearGradient><linearGradient xlink:href="#linearGradient835-346" id="linearGradient23128" gradientUnits="userSpaceOnUse" gradientTransform="matrix(0.78478911,0,0,1.2742277,1002.0731,1049.9158)" x1="59.09943" y1="33.609943" x2="95.688896" y2="62.299416"/><linearGradient id="linearGradient835-346"><stop id="stop11272" offset="0.0000000" style="stop-color:#ffffff;stop-opacity:0.50000000;"/><stop id="stop11274" offset="1.0000000" style="stop-color:#ffffff;stop-opacity:0.10000000;"/></linearGradient><linearGradient xlink:href="#linearGradient835-223" id="linearGradient23130" gradientUnits="userSpaceOnUse" gradientTransform="matrix(1.9777335,0,0,0.50562929,1002.0731,1049.9158)" x1="17.402493" y1="208.04343" x2="28.178926" y2="241.09116"/><linearGradient id="linearGradient835-223"><stop id="stop11278" offset="0.0000000" style="stop-color:#ffffff;stop-opacity:0.50000000;"/><stop id="stop11280" offset="1.0000000" style="stop-color:#ffffff;stop-opacity:0.10000000;"/></linearGradient><linearGradient xlink:href="#linearGradient835-553" id="linearGradient23132" gradientUnits="userSpaceOnUse" gradientTransform="matrix(1.5468625,0,0,0.64646986,1002.0731,1049.9158)" x1="70.06295" y1="55.987648" x2="87.074257" y2="80.90905"/><linearGradient id="linearGradient835-553"><stop id="stop11284" offset="0.0000000" style="stop-color:#ffffff;stop-opacity:0.50000000;"/><stop id="stop11286" offset="1.0000000" style="stop-color:#ffffff;stop-opacity:0.10000000;"/></linearGradient></defs><metadata id="metadata3746"><rdf:RDF><cc:Work rdf:about=""><dc:format>image/svg+xml</dc:format><dc:type rdf:resource="http://purl.org/dc/dcmitype/StillImage"/><dc:title/></cc:Work></rdf:RDF></metadata><g id="layer1" transform="translate(-66.32135,-120.1752)"><g transform="translate(2120.2276,-3784.9498)" id="g23244"><path id="path22526" style="fill:#ffffff;fill-opacity:1;fill-rule:evenodd;stroke:#000000;stroke-width:2.12320876;stroke-linecap:butt;stroke-linejoin:miter;stroke-miterlimit:4;stroke-opacity:1;stroke-dasharray:none" d="m -2025.5137,3906.1982 445.4518,0 c 11.4712,0.8402 24.4698,12.5854 25.1004,26.4218 l 0,445.0331 c 0.053,10.9647 -12.5081,25.7071 -26.689,26.4218 l -444.8164,0 c -13.8114,0 -26.3713,-12.2808 -26.3713,-26.7402 l 0.6355,-444.3963 c 0,-14.3585 9.3364,-26.7402 26.689,-26.7402 z"/><path id="path22528" style="fill:#003399;fill-opacity:1;fill-rule:evenodd;stroke:#003399;stroke-width:1.06160438px;stroke-linecap:butt;stroke-linejoin:miter;stroke-opacity:1" d="m -1640.9504,3918.1181 0,0.033 -327.6884,0 0,0.033 -52.5654,0 c -12.4731,-0.5471 -19.5924,7.9901 -19.1237,21.651 l 0,431.8562 c 0.049,9.2099 3.9541,20.2646 16.638,20.4887 l 54.4214,0 328.3181,-0.066 0,0.033 56.8077,0 c 12.6839,-0.224 16.6217,-11.2787 16.6711,-20.4886 l 0,-431.8896 c 0.4687,-13.6608 -6.6505,-22.1981 -19.1237,-21.6509 l -54.3551,0 z m 0,70.6644 0,332.5011 -325.8987,0.2325 0,-332.6672 325.8987,-0.066 z"/><g id="g22530" transform="matrix(0.19264865,0,0,0.19205454,-3016.8503,3767.6672)"><g transform="matrix(2.3951076,0,0,2.3951076,1782.6438,-2874.1847)" id="g22532"><g transform="matrix(4.4785266,0,0,4.4785266,1512.4645,1744.8329)" id="g22534"><path d="m 38.15331,33.449477 c 2.351916,1.226319 22.368279,5.487805 33.972126,5.226481 16.527417,0.261324 30.313584,-6.049645 32.926824,-7.055749 0,1.433686 -2.3069,10.272919 -2.61324,15.679443 0,5.44754 1.82928,28.414766 2.0906,33.710801 0.86784,6.178195 2.70401,13.861191 4.4425,19.076657 1.82927,3.55389 -23.562905,9.85404 -34.756092,10.45296 -12.602514,0.78397 -38.937282,-4.37107 -37.369338,-8.36237 0,-3.968347 3.658537,-13.382717 3.658537,-19.599303 C 41.027875,76.553461 40.243903,59.305658 40.243903,51.74216 39.982579,44.962602 39.190233,39.18186 38.15331,33.449477 z" id="path22536" style="fill:#ffffff;fill-opacity:1;fill-rule:evenodd;stroke:#000000;stroke-width:1pt;stroke-linecap:butt;stroke-linejoin:round;stroke-opacity:1"/><path d="m 36.324042,103.22299 c -5.58557,-1.33105 -7.879042,10.113 -1.829268,12.02091 6.367425,3.75419 29.703254,7.05575 39.198605,6.27178 11.100987,-0.26132 31.192671,-4.4425 35.801381,-8.36237 6.13417,-3.91986 5.46535,-13.0662 0,-12.0209 -3.27856,3.65854 -26.698734,8.88501 -36.585352,9.40766 -9.222794,0.78397 -30.74913,-2.52613 -36.585366,-7.31708 z" id="path22538" style="fill:#ffffff;fill-opacity:1;fill-rule:evenodd;stroke:#000000;stroke-width:1pt;stroke-linecap:butt;stroke-linejoin:miter;stroke-opacity:1"/><path d="m 103.07297,42.609197 c 1.24474,-3.211218 9.63865,-6.971475 12.36325,-7.515482 4.68683,-1.050639 12.38452,-1.387828 16.76394,4.28009 7.93909,10.323151 6.76227,28.625475 2.86109,34.637709 -2.77614,5.103905 -9.37139,10.281667 -14.63611,11.877622 -5.15036,1.533674 -12.70649,2.660982 -14.33206,3.711621 -0.35081,-1.296349 -1.32702,-7.387829 -1.38094,-9.071225 1.95059,0.128266 7.48902,-0.892705 11.69592,-1.868001 3.90118,-0.898822 6.44965,-3.274137 9.3351,-6.222439 4.9944,-4.699846 4.34393,-21.159082 0.53709,-25.056474 -2.23258,-2.262483 -6.84818,-3.904422 -9.91483,-3.323041 -4.99222,1.031654 -13.67653,7.365529 -13.67653,6.979919 -0.50871,-2.079489 -0.25075,-6.159061 0.38408,-8.430299 z" id="path22540" style="fill:#ffffff;fill-opacity:1;fill-rule:evenodd;stroke:#000000;stroke-width:1.25;stroke-linejoin:bevel;stroke-dasharray:none"/><path d="m 57.712428,46.93126 c 1.655228,1.206553 -1.355207,16.955214 -0.9414,28.131071 0.413807,14.295381 1.443373,23.527896 -0.521629,24.63556 -3.107716,1.674209 -9.900986,-0.135751 -12.045719,-2.420763 -1.273195,-1.50665 1.805838,-10.239735 2.012742,-16.428525 -0.413807,-8.711112 -1.702656,-33.303457 -0.461234,-34.777855 2.252376,-2.053669 9.681301,-1.152463 11.95724,0.860512 z" id="path22542" style="fill:#ffffff;fill-opacity:1;fill-rule:evenodd;stroke:#000000;stroke-width:1.25;stroke-linejoin:round;stroke-dasharray:none"/><path d="m 66.302567,47.600372 c -1.478272,1.424434 -0.06341,19.624942 -0.06341,22.559034 0.30535,3.808377 -1.101012,27.452542 -0.177092,28.95444 1.84784,2.121884 10.215463,2.441964 13.000543,-0.356436 1.505214,-1.874783 -0.477816,-22.544149 -0.477816,-27.679524 0,-5.510667 1.407174,-22.051957 -0.440666,-23.580318 -2.032624,-2.149336 -8.439279,-3.179579 -11.841561,0.102804 z" id="path22544" style="fill:#ffffff;fill-opacity:1;fill-rule:evenodd;stroke:#000000;stroke-width:1pt;stroke-linecap:butt;stroke-linejoin:miter;stroke-opacity:1"/><path d="m 85.991191,46.156048 c -1.657782,1.256374 1.179432,15.800228 1.194009,26.982187 0.137654,14.29966 -1.244187,24.662031 0.824061,25.709062 3.267942,1.578373 10.880991,-1.541715 13.000559,-3.890858 1.25233,-1.544634 -1.411353,-10.178634 -2.081995,-16.357493 -0.983825,-8.164301 0.1476,-33.128626 -1.189611,-34.564268 -2.401654,-1.983715 -9.481536,0.0401 -11.747023,2.12137 z" id="path22546" style="fill:#ffffff;fill-opacity:1;fill-rule:evenodd;stroke:#000000;stroke-width:1.25;stroke-linejoin:round;stroke-dasharray:none"/><path d="m 79.272337,39.68395 c -4.989168,1.108704 -36.587232,-3.141328 -39.72856,-4.804384 0.92392,4.6196 3.141328,45.272081 1.663056,49.891681 0.184784,2.032624 -3.880464,15.152293 -3.69568,17.924053 17.184912,-68.370085 39.72856,-48.967766 41.761184,-63.01135 z" id="path22548" style="fill:url(#linearGradient23128);fill-opacity:1;fill-rule:evenodd;stroke:none"/><path d="m 35.717339,103.87258 c -3.05123,-0.89742 -5.205039,6.8204 -2.871745,9.15369 5.743491,2.69226 13.281824,-2.3333 38.230117,-1.61535 -12.743373,-0.35897 -31.589205,-2.87175 -35.358372,-7.53834 z" id="path22550" style="fill:url(#linearGradient23130);fill-opacity:1;fill-rule:evenodd;stroke:none"/><path d="m 104.28027,42.130045 c 4.48711,-4.487103 8.79472,-5.564008 13.99976,-6.461428 8.79472,-2.333293 14.89719,3.769166 16.87151,11.845952 -4.48711,-7.179365 -10.23059,-8.25627 -14.17924,-8.435754 -4.12814,0.717936 -15.79461,7.897301 -16.87151,9.15369 -1.07691,1.256389 -0.71794,-4.128134 0.17948,-6.10246 z" id="path22552" style="fill:url(#linearGradient23132);fill-opacity:1;fill-rule:evenodd;stroke:none"/><path d="m 37.098468,85.903276 c 2.383188,1.158976 4.281084,-1.569298 3.464943,-3.030336 0.91503,0.08658 1.794841,-0.325397 1.794841,-1.794841 0.720441,-0.720442 -0.36461,-1.854351 -0.36461,-2.735722 -0.993537,-0.993537 0.0056,-2.165022 0.0056,-3.725707 0,-1.55349 0.89742,-2.502433 0.89742,-4.128134 0,-2.361126 2.059374,-1.180728 0.897421,-4.666587 1.088188,-0.424548 2.27414,-1.484535 0.89742,-2.692262 2.160112,-0.239518 3.218588,-2.354187 0.538453,-4.666587 4.073437,0 -4.230206,-8.730498 2.692261,-6.999881 2.222046,-0.555511 1.794842,-2.215062 1.794842,-4.307619 2.871746,3.948651 6.895421,2.621276 7.538333,0 1.348589,4.399819 10.589563,2.586908 10.589563,-2.871745 0.179484,6.750206 7.117681,3.404632 8.435753,3.94865 -1.615357,1.866166 1.584051,9.079601 4.307619,9.15369 -6.309674,4.732255 -5.172896,13.001079 2.512778,14.538214 3.8938,0 5.384523,-3.278525 5.384523,-7.897302 1.256389,2.644739 6.971985,4.279723 6.999881,-0.179484 2.871746,5.544562 6.495931,-1.470369 4.307619,-2.153809 5.025562,1.905681 3.090692,-7.078795 1.256392,-9.15369 2.87175,-0.914477 1.95672,-7.520728 0.17948,-9.692142 2.62121,2.665153 6.73847,-0.831115 6.28195,-5.922976 1.22795,3.467057 9.14748,-0.368278 3.76916,-8.435754 0,-1.545134 -4.4871,-1.74882 -5.564,-0.538452 -0.0154,-5.446147 -4.09973,-9.692143 -6.999887,-8.615238 C 100.51523,16.6433 89.668224,14.436666 87.408765,18.79711 88.759296,13.096289 73.598242,9.4639359 73.22952,12.69465 71.481293,10.181872 61.45866,10.136084 58.511823,18.976594 c 0,-4.860589 -16.308564,-6.99988 -15.974087,0.358968 -3.489913,-2.433063 -9.227368,0.358968 -8.794722,3.230714 -5.384524,-2.703387 -7.842024,9.56111 -3.410198,10.230595 -2.512778,2.262401 -2.692262,11.310984 0.538452,11.128016 -1.974325,2.129718 -0.89742,8.436584 1.256389,8.615237 -1.679432,2.320552 0.245705,13.673904 7.179365,11.845952 0,2.523441 0.70877,4.694085 -0.179484,7.358849 0,1.545456 -0.897421,2.852833 -0.897421,4.487103 0.372059,0.744117 -1.259706,2.724438 0.538452,3.94865 -4.216729,1.759277 -3.302383,4.464214 -1.670101,5.722598 z" id="path22554" style="fill:#ffffff;fill-opacity:1;fill-rule:evenodd;stroke:#000000;stroke-width:1pt;stroke-linecap:butt;stroke-linejoin:round;stroke-opacity:1"/><path d="M 37.00725,41.137192 C 35.497834,39.487808 38.228597,34.097633 41.25,34.375 c 0.688613,-2.474077 2.58594,-2.892705 4.6875,-2.1875 -1.047665,-2.044932 1.503104,-3.991708 3.75,-1.681788 1.517087,-2.621829 4.677545,-4.645141 6.356327,-3.231327 -0.131924,-3.373019 6.063269,-6.793626 8.331173,-3.836885 0,0.606002 -0.362665,1.875 0,1.875" id="path22556" style="fill:none;stroke:#000000;stroke-width:1pt;stroke-linecap:butt;stroke-linejoin:round;stroke-opacity:1"/><path d="m 74.0625,30.9375 c -0.10381,-4.72093 14.009382,-8.590646 11.25,-0.3125 1.269222,-0.634611 6.875,-1.299023 5.844134,2.313269 4.123463,-0.465579 10.390316,1.104743 6.662347,6.688269 2.395929,1.805687 1.330404,6.69592 -0.318981,5.060962" id="path22558" style="fill:none;stroke:#000000;stroke-width:1pt;stroke-linecap:butt;stroke-linejoin:round;stroke-opacity:1"/></g><path id="path22560" d="m 1802.3977,2235.5203 c -46.7249,-4.3489 -100.6619,-16.4974 -115.7623,-26.0738 -2.3739,-1.5055 -4.5685,-3.3949 -4.877,-4.1988 -1.4599,-3.8045 17.3283,-66.8923 30.021,-100.806 l 3.6256,-9.6873 0.2879,8.7569 c 0.3377,10.2684 -0.5379,16.9611 -5.5885,42.7165 -2.2564,11.5065 -3.7925,22.0933 -3.8718,26.6857 -0.1257,7.268 -0.01,7.7449 2.6596,10.5438 3.3502,3.5185 15.3646,9.4678 23.7253,11.7482 4.1714,1.1378 9.367,1.6459 16.7472,1.6379 16.0062,-0.017 19.5602,-2.1349 21.8682,-13.0294 1.7795,-8.3994 1.7555,-24.6482 -0.105,-71.2596 -1.6574,-41.5247 -1.3912,-57.8563 1.5367,-94.2571 l 1.9458,-24.1905 6.2178,-5.8613 c 6.807,-6.4167 20.2387,-16.9335 21.6268,-16.9335 0.5104,0 0.8732,6.7091 0.8732,16.1486 0,8.8817 0.6619,29.9205 1.471,46.7528 1.4697,30.5749 1.3687,43.2868 -0.9747,122.7141 -0.2416,8.1875 -0.097,19.04 0.3209,24.1166 0.6899,8.3769 0.9895,9.4275 3.241,11.3642 6.2568,5.3818 27.0408,8.3949 40.9549,5.9372 7.289,-1.2875 16.6473,-5.1858 19.8397,-8.2646 1.1278,-1.0876 2.3838,-3.5493 2.7912,-5.4702 1.8236,-8.5999 0.5929,-54.9858 -2.9955,-112.9002 l -0.4953,-7.9934 5.5393,2.7455 c 7.4749,3.7049 15.6287,4.3762 21.6133,1.7794 l 4.3131,-1.8716 0.6191,3.872 c 0.3406,2.1297 0.1187,24.6597 -0.4929,50.0669 -1.6891,70.1611 -1.1816,72.1119 18.6945,71.8627 14.2735,-0.1789 32.1283,-6.4285 44.3814,-15.5345 9.2813,-6.8974 9.4473,-9.9059 2.522,-45.72 -1.7846,-9.2293 -3.8459,-20.5505 -4.5805,-25.1582 -1.6142,-10.124 -3.2246,-35.7549 -3.2369,-51.5186 l -0.01,-11.5072 2.9076,-3.3116 c 3.2632,-3.7167 5.466,-8.3764 5.466,-11.563 0,-1.6178 0.7809,-2.3726 3.2564,-3.1475 2.3667,-0.7407 3.2571,-0.7394 3.2589,0.01 0.014,5.7602 5.8147,84.5023 6.5868,89.4125 3.3762,21.4707 10.7349,53.3723 16.6263,72.0786 l 2.775,8.8112 -2.0631,2.2071 c -9.4224,10.0802 -69.2359,27.0366 -127.2023,36.0602 -12.1974,1.8988 -19.6528,2.4584 -36.2857,2.7234 -11.5138,0.1834 -24.9116,-0.037 -29.773,-0.4891 l 0,0 z" style="fill:#000000"/><path id="path22562" d="m 1817.7494,2286.0836 c -62.6809,-2.5919 -136.2471,-17.5873 -155.6711,-31.7313 -3.9762,-2.8954 -3.3661,-3.4003 1.7768,-1.4703 6.7813,2.5448 21.2674,2.0098 49.2239,-1.818 36.2881,-4.9686 52.0239,-6.1857 92.4889,-7.1533 20.061,-0.4798 40.6382,-1.3252 45.7273,-1.8789 54.4334,-5.9219 129.8586,-25.2291 148.984,-38.1367 5.6691,-3.8261 9.7495,-3.739 13.7825,0.294 6.3577,6.3577 6.672,17.1164 0.8451,28.9248 -7.7595,15.7249 -27.457,26.3361 -67.7159,36.479 -37.2414,9.3828 -71.5422,14.7008 -101.5294,15.7411 -8.1875,0.284 -16.5612,0.6208 -18.6081,0.7484 -2.0468,0.1276 -6.2337,0.1282 -9.304,0 l 0,0 z" style="fill:#000000"/><path id="path22564" d="m 1987.7391,2127.9324 c -1.1102,-7.0802 -2.1308,-14.3385 -2.2678,-16.1295 -0.2482,-3.2429 -0.2318,-3.2575 3.9376,-3.5158 6.3462,-0.3931 26.0285,-3.7674 39.134,-6.7089 19.6701,-4.415 26.839,-8.4636 43.4071,-24.5138 8.5796,-8.3114 11.1437,-11.4403 13.7775,-16.8118 5.9358,-12.1063 8.8186,-27.5996 8.8144,-47.3724 0,-21.4042 -2.8624,-37.425 -8.8563,-49.6485 -4.0286,-8.2155 -9.2941,-13.0774 -19.5097,-18.0142 -14.2885,-6.9051 -27.7356,-8.2957 -40.0961,-4.1464 -9.0655,3.0432 -22.6189,9.894 -37.6001,19.0057 l -12.0965,7.3571 0,-3.3333 c 0,-1.8332 0.2394,-3.0939 0.5319,-2.8013 0.2925,0.2925 3.7467,-1.7771 7.6758,-4.5991 17.5684,-12.618 50.2675,-30.4328 63.7963,-34.757 5.9553,-1.9035 6.9793,-1.9699 14.4212,-0.9348 18.1122,2.5192 32.7042,10.159 44.1066,23.0924 2.6631,3.0207 6.1962,7.1341 7.8513,9.141 2.7283,3.3082 2.9238,3.4044 2.0934,1.0297 -0.5038,-1.4405 -0.8848,-3.3246 -0.8467,-4.1868 0.092,-2.0876 4.1887,9.6837 6.4158,18.436 3.2825,12.9 4.8224,26.7812 4.8511,43.729 0.056,33.2941 -5.7051,54.0797 -20.289,73.1982 -13.5626,17.7794 -38.0553,35.2915 -57.571,41.1625 -5.7699,1.7359 -51.1177,12.6281 -57.2779,13.7578 l -2.3842,0.4372 -2.0187,-12.873 0,0 z" style="fill:#000000"/></g><path id="path22566" d="m 5777.6174,2520.3641 c -29.8293,-5.2836 -39.9489,-36.9332 -23.137,-72.3617 14.0402,-29.5876 24.4245,-31.757 61.7336,-12.8971 17.7745,8.985 48.8961,21.0904 69.1593,26.9007 42.5014,12.1871 143.0497,31.1139 170.6573,32.124 18.9548,0.6934 2.1837,2.7132 -146.9731,17.7001 -44.8684,4.5083 -88.6842,9.0014 -97.3684,9.9846 -8.6842,0.9832 -24.0165,0.3304 -34.0717,-1.4506 z" style="fill:#000000"/><path id="path22568" d="m 5867.4662,2150.2645 c -5.4183,-23.0679 -5.2253,-33.4404 1.1189,-60.1414 4.2166,-17.7461 10.2389,-36.6935 13.3831,-42.1052 8.8486,-15.2304 7.9398,92.3204 -0.9589,113.4844 l -6.9957,16.6377 -6.5474,-27.8755 z" style="fill:#000000"/><path id="path22570" d="m 5835.7769,2288.1784 c -0.8745,-17.4788 16.3721,-86.4363 22.939,-91.7179 3.864,-3.1078 8.2951,-9.2031 9.847,-13.5452 2.4589,-6.8802 2.8749,-6.8543 3.237,0.2016 0.2285,4.4529 -7.6943,31.6898 -17.6063,60.5263 -9.912,28.8365 -18.1995,48.8773 -18.4167,44.5352 z" style="fill:#000000"/><path id="path22572" d="m 6035.4539,1876.3969 c 0.1158,-24.6579 4.5153,-28.5503 35.5614,-31.4618 15.261,-1.4312 27.1031,-2.0725 26.3158,-1.4252 -0.7873,0.6473 -15.0499,12.174 -31.6946,25.6149 l -30.2632,24.4379 0.081,-17.1658 z" style="fill:#000000"/><path id="path22574" d="m 6514.4346,1800.0205 c 0.088,-11.1169 4.0546,-16.3046 17.1052,-22.3684 11.0302,-5.125 20.5745,-15.6029 27.2044,-29.8655 8.0509,-17.3194 13.7477,-22.6338 26.909,-25.1029 9.1828,-1.7227 20.8602,-7.7336 25.9497,-13.3574 13.6729,-15.1084 42.5108,-22.8222 86.9283,-23.2523 47.5256,-0.4602 73.6541,7.876 100.3878,32.0283 19.9443,18.0185 46.9806,58.4318 46.9806,70.2257 0,3.3934 -12.7127,-5.4489 -28.2504,-19.6495 -31.5485,-28.8335 -68.3405,-43.658 -108.3523,-43.658 -19.31,0 -35.9363,5.6431 -74.3956,25.2504 -27.2404,13.8878 -62.5227,34.0194 -78.4051,44.7369 -34.5917,23.3426 -42.213,24.2509 -42.0616,5.0127 z" style="fill:#000000"/><path id="path22576" d="m 6048.7981,2498.1166 c 15.8478,-3.1671 17.6474,-3.2987 32.8947,-2.4043 l 13.1579,0.7718 -10.5263,2.1773 c -5.7895,1.1975 -18.8158,2.0973 -28.9474,1.9995 -18.1097,-0.1747 -18.2209,-0.2177 -6.5789,-2.5443 z" style="fill:#000000"/><path id="path22578" d="m 6084.3244,2611.5578 c -133.25,-12.1447 -257.4434,-38.2186 -311.1331,-65.3211 -28.1694,-14.2198 -41.8233,-37.0478 -41.2234,-68.9211 0.713,-37.8773 25.0186,-70.9105 52.1757,-70.9105 10.209,0 10.3481,-0.2634 13.2002,-25 0.8345,-7.2368 7.9434,-39.8026 15.7976,-72.3684 7.8543,-32.5658 15.0814,-63.6737 16.0603,-69.1287 1.7743,-9.888 1.7582,-9.91 -5.284,-7.2326 -3.8851,1.4772 -10.2382,1.9363 -14.118,1.0203 -12.9018,-3.0461 -26.7911,-19.99 -26.7911,-32.6832 0,-10.029 8.4551,-23.8509 18.7625,-30.672 8.6439,-5.7203 9.6559,-7.375 7.2546,-11.8619 -3.2034,-5.9855 -1.2627,-28.8625 4.6407,-54.705 8.7847,-38.4559 11.1738,-58.1422 9.6582,-79.5845 l -1.536,-21.7313 -12.3745,-0.3817 c -32.4888,-1.0022 -57.3096,-29.5556 -67.5444,-77.7019 -2.5926,-12.196 -3.5855,-25.7472 -2.7013,-36.8656 1.1129,-13.9939 0.5538,-18.2814 -2.7404,-21.0153 -12.805,-10.6272 -20.5159,-54.3553 -13.2467,-75.1212 3.6383,-10.3935 3.5565,-11.3789 -1.3102,-15.7832 -18.4281,-16.6773 -21.8166,-65.6728 -7.0826,-102.4128 l 5.4108,-13.4921 -6.6332,-7.1574 c -9.9419,-10.7274 -13.0193,-23.1609 -11.439,-46.2166 2.7366,-39.9263 23.6937,-68.3259 50.4201,-68.3259 7.4459,0 10.0186,-1.4263 13.0536,-7.2369 4.7511,-9.0958 16.2435,-19.8593 26.9874,-25.2756 13.383,-6.7468 37.1837,-9.4522 51.1906,-5.8189 l 12.2023,3.1653 3.0262,-8.369 c 8.7244,-24.1269 37.6195,-38.0439 78.9888,-38.0439 35.3084,0 66.4222,9.6531 85.7164,26.5937 7.1391,6.2682 10.5251,7.8773 11.3525,5.395 3.1044,-9.313 27.1267,-36.6355 40.0489,-45.5506 29.5426,-20.3819 72.7818,-27.7854 100.4263,-17.1953 11.5419,4.4216 13.0555,4.4424 25.5605,0.3522 11.2436,-3.6776 16.5303,-3.9119 34.302,-1.5201 56.3493,7.5834 101.9765,34.1846 112.0969,65.3538 0.095,0.2936 6.5787,-2.6361 14.4074,-6.5105 12.5402,-6.206 17.3829,-7.0525 40.6942,-7.1128 33.3603,-0.086 57.0769,7.6121 65.0426,21.1129 3.7756,6.3991 7.3857,8.8164 14.9811,10.0309 21.8991,3.5018 45.8454,30.0767 55.7126,61.828 2.8586,9.1985 5.1974,18.8728 5.1974,21.4984 0,4.2385 1.0964,4.4712 9.7769,2.0744 10.7609,-2.9713 27.8367,-1.4416 38.5871,3.4566 13.4934,6.148 30.9359,45.1398 31.0762,69.4693 l 0.092,15.959 18.7865,-4.8582 c 10.3326,-2.6719 31.2207,-5.5361 46.4181,-6.3648 64.6154,-3.5234 114.8166,18.2446 145.1758,62.9504 36.609,53.9092 54.1451,114.8232 56.6326,196.7219 2.8822,94.8917 -11.9635,149.9419 -55.2273,204.7915 -22.3292,28.3088 -68.22,65.0759 -103.1601,82.6506 -20.0116,10.0658 -42.1366,16.6911 -102.9827,30.8382 -79.7849,18.5504 -77.2804,17.7508 -77.2804,24.673 0,5.2535 13.4318,56.951 25.0774,96.5204 4.1828,14.2122 4.4449,14.4808 14.5045,14.8634 24.5167,0.9326 39.969,21.69 39.6731,53.2937 -0.3664,39.1347 -22.6495,71.6932 -66.0971,96.5764 -45.6441,26.1411 -167.0474,57.046 -284.1435,72.3328 -46.9763,6.1327 -153.5285,8.8103 -196.1197,4.9285 l 0,0 z m 184.2105,-14.2596 c 139.7992,-17.6487 264.3472,-50.8009 305.9727,-81.4439 32.932,-24.2432 46.5125,-49.1628 44.8741,-82.342 -1.089,-22.0518 -6.5662,-31.6378 -21.2759,-37.2364 -8.0801,-3.0753 -10.3454,-2.9963 -16.8226,0.5867 -41.5277,22.9717 -83.5811,38.4313 -153.9526,56.5956 -69.1227,17.842 -187.3288,39.7654 -214.4974,39.7822 -6.0307,0 -11.3597,1.0251 -11.8421,2.2696 -0.4825,1.2445 -40.5483,2.8486 -89.0351,3.5645 -48.4869,0.7159 -81.6448,0.8596 -73.6842,0.3192 7.9605,-0.5404 16.8421,-2.0579 19.7368,-3.3721 2.8948,-1.3142 7.0395,-2.9747 9.2105,-3.69 2.1711,-0.7152 -0.5725,-1.3939 -6.0967,-1.5082 -5.5243,-0.1142 -25.6559,-2.5861 -44.7369,-5.493 -92.4866,-14.0897 -169.8582,-36.0558 -210.1355,-59.658 -8.204,-4.8075 -18.3908,-8.741 -22.6371,-8.741 -10.9063,0 -24.5046,10.0539 -32.026,23.6783 -8.5729,15.5294 -10.8222,49.8876 -4.3717,66.7781 5.816,15.229 12.0821,20.579 38.4712,32.8469 54.3632,25.2727 177.7661,50.078 302.5854,60.823 37.8615,3.2593 141.8438,1.0907 180.2631,-3.7595 l 0,0 z m -172.3684,-101.4194 c -5.1723,-3.3426 -13.1579,-3.3426 -13.1579,0 0,1.4474 3.8487,2.6135 8.5526,2.5913 6.4901,-0.03 7.6007,-0.6555 4.6053,-2.5913 z m 159.2105,-18.2664 c 139.9913,-21.0537 284.9846,-62.2723 308.7512,-87.7717 l 6.1195,-6.5658 -7.9839,-25.9349 c -27.7896,-90.2715 -40.4791,-163.7815 -47.6328,-275.9349 -2.9543,-46.3158 -6.0425,-90.8239 -6.8627,-98.907 l -1.4913,-14.6965 -8.6059,4.1702 c -6.5748,3.186 -9.3088,6.7748 -11.5844,15.2062 -1.6382,6.0698 -6.7382,15.318 -11.3334,20.5515 l -8.3548,9.5156 1.6713,58.3958 c 1.7415,60.8481 4.7076,86.2697 18.0205,154.4484 4.3805,22.4343 8.5977,52.3273 9.3714,66.4289 l 1.4067,25.6395 -10.2194,9.4085 c -14.05,12.9353 -53.0563,31.678 -79.8175,38.3527 -24.2558,6.0498 -49.8366,5.7959 -60.0722,-0.5964 -14.5194,-9.0675 -16.2531,-32.565 -13.1503,-178.233 1.3972,-65.5946 1.9364,-119.8669 1.1983,-120.605 -0.7381,-0.7381 -4.1909,0.5246 -7.6728,2.8061 -11.361,7.444 -28.7736,9.109 -44.4704,4.2523 -7.7819,-2.4077 -17.401,-6.5086 -21.3758,-9.113 l -7.2271,-4.7353 0,13.1204 c 0,7.2162 1.9328,44.359 4.2951,82.5395 2.3623,38.1805 4.4346,97.8401 4.6052,132.5769 0.3634,73.9707 0.1211,74.9182 -21.9889,85.9599 -35.7361,17.8467 -101.1721,16.3133 -126.3452,-2.9608 -9.4436,-7.2306 -10.3501,-25.3597 -7.3082,-146.1569 2.4035,-95.4419 1.9612,-156.27 -2.3205,-319.1754 -1.5949,-60.6825 -1.4283,-64.1025 3.2966,-67.6794 2.7371,-2.072 5.5686,-3.7984 6.2923,-3.8364 3.0665,-0.1611 4.9001,268.8919 2.9998,440.1744 -0.8325,75.0379 -0.4777,84.1919 3.4307,88.5106 7.4276,8.2074 26.8827,12.0153 60.6747,11.8757 26.235,-0.1084 34.079,-1.1197 46.3526,-5.9762 8.1255,-3.2152 16.7922,-8.0763 19.2594,-10.8025 6.9291,-7.6565 8.0133,-60.3273 3.0375,-147.5645 -2.3527,-41.25 -5.0318,-93.9474 -5.9535,-117.1053 -1.5202,-38.197 -2.2278,-42.8381 -7.624,-50 -22.4954,-29.8565 -20.418,-72.6928 5.1615,-106.4323 9.4372,-12.4477 8.7689,-21.3128 -2.7369,-36.3081 -14.1427,-18.432 -22.4393,-38.8212 -23.9464,-58.8495 l -1.3077,-17.3794 -24.2698,1.2695 c -29.1243,1.5233 -40.6185,-1.6389 -50.7841,-13.9716 l -7.3494,-8.916 -7.1644,8.9789 c -8.7072,10.9124 -35.063,23.7818 -53.3597,26.0553 -15.8342,1.9675 -35.7386,-3.2477 -44.7671,-11.7295 l -6.1376,-5.766 -8.1396,6.849 c -12.3374,10.3813 -26.5032,13.8188 -40.1392,9.7402 -6.1513,-1.8399 -14.3275,-5.5799 -18.1694,-8.3113 -9.0868,-6.4602 -10.1201,-6.2822 -10.1201,1.7436 0,17.2895 -15.2252,29.6736 -32.4976,26.4332 -10.6725,-2.0021 -17.5024,0.1821 -17.5024,5.5975 0,2.1817 3.7039,15.6506 8.2308,29.9308 7.7912,24.5777 8.0015,26.3137 3.9382,32.5152 -4.0227,6.1394 -3.9617,7.0937 0.9699,15.1824 7.9611,13.0573 6.9115,24.529 -3.1556,34.4916 -5.6495,5.5909 -8.184,10.399 -7.6698,14.5504 0.4881,3.9407 -1.9037,8.9888 -6.5632,13.8522 -6.0304,6.2944 -7.2084,9.6465 -6.6397,18.8942 0.5043,8.2012 -0.8103,13.1512 -4.8601,18.2996 -3.0532,3.8816 -6.6023,13.3128 -7.8867,20.9582 -1.2844,7.6455 -3.5033,17.4535 -4.9308,21.7956 -4.748,14.4423 -9.0647,51.1241 -6.426,54.6058 4.9332,6.5092 8.8761,25.8688 7.1464,35.0887 -1.0193,5.4335 -5.3426,12.8904 -10.2824,17.7352 -7.574,7.4285 -9.1751,11.7313 -14.3725,38.6229 -3.2169,16.6448 -11.7096,54.8052 -18.8727,84.8009 -16.7137,69.9895 -18.9251,87.0047 -12.2399,94.1804 25.1658,27.0123 164.8559,60.0572 304.6668,72.0715 28.9172,2.485 105.6167,-0.8716 140.7894,-6.1613 l 0,0 z m 167.9775,-123.541 c 24.2679,-8.2542 40.633,-16.7567 54.1601,-28.139 7.5303,-6.3363 8.1256,-8.0785 8.1256,-23.7791 0,-9.318 -3.5352,-34.9693 -7.8561,-57.0029 -15.2655,-77.8446 -18.6329,-105.7845 -20.2897,-168.3505 -1.4352,-54.1984 -2.0131,-59.8684 -6.1017,-59.8684 -2.484,0 -7.7168,-2.5175 -11.6284,-5.5944 l -7.1121,-5.5943 -3.9289,5.6094 c -10.5311,15.0352 -29.9186,17.1047 -52.5807,5.6126 -8.5263,-4.3238 -15.7145,-7.8764 -15.9737,-7.8947 -0.2592,-0.018 -1.8747,6.7758 -3.5898,15.0982 -1.7152,8.3224 -4.6657,18.1475 -6.5566,21.8337 -2.6317,5.1301 -3.8743,40.0066 -5.2975,148.6842 -1.9894,151.9154 -1.3694,162.1418 10.1322,167.1306 10.205,4.4265 43.9192,0.6142 68.4973,-7.7454 l 0,0 z m 180.7067,-110.5797 c 102.5146,-24.1252 118.1439,-29.6626 156.809,-55.557 25.3695,-16.9901 67.7113,-58.7376 81.3558,-80.2138 26.724,-42.0632 38.151,-91.1536 38.151,-163.8965 0,-109.5286 -38.1005,-207.2477 -94.7729,-243.0706 -15.0238,-9.4967 -45.717,-18.2406 -69.4736,-19.7917 -41.6254,-2.7178 -91.4642,6.6647 -102.3438,19.2669 -10.3447,11.9826 -20.4313,17.4148 -35.3777,19.0529 -14.29,1.5661 -14.6316,1.8001 -17.7014,12.1232 -7.2935,24.5269 -21.49,41.5463 -38.4687,46.1182 l -10.4932,2.8255 0.763,31.1789 c 0.4197,17.1484 1.3552,30.8839 2.0789,30.5234 0.7236,-0.3605 16.7105,-9.9274 35.5263,-21.2597 36.7134,-22.1117 70.003,-38.639 90.1273,-44.7455 33.821,-10.2627 79.4391,-0.099 112.8801,25.1489 10.752,8.1179 15.8083,14.5929 23.0486,29.5153 27.5575,56.797 27.5589,168.4476 0,227.5281 -12.5697,26.9494 -64.2948,73.5738 -97.335,87.7365 -13.0701,5.6025 -89.8274,22.0879 -115.5659,24.8204 -30.269,3.2135 -28.58,1.8188 -26.5598,21.9321 0.9737,9.6939 3.6691,28.0927 5.9898,40.8863 3.876,21.3681 4.6705,23.1574 9.7631,21.9884 3.0491,-0.6998 26.2675,-6.1495 51.5964,-12.1102 l 1e-4,0 z m -781.3637,-21.2971 c 6.2184,0 12.9427,-10.9807 12.9427,-21.1352 0,-7.8072 1.2162,-10.9847 4.6053,-12.032 9.542,-2.9486 12.3411,-5.6689 14.5317,-14.1224 2.1743,-8.3909 0.6235,-15.5881 -6.673,-30.9692 -2.9381,-6.1937 1.4269,-45.2741 6.5435,-58.5833 1.3911,-3.6184 3.5352,-13.5341 4.7647,-22.0348 1.4457,-9.9954 4.2826,-17.6349 8.0296,-21.6235 4.936,-5.2541 5.5632,-8.1165 4.2353,-19.3286 -1.4717,-12.4259 -1.1129,-13.4787 6.4213,-18.8435 5.6705,-4.0378 7.5358,-7.1085 6.445,-10.6102 -0.8442,-2.7103 -2.2321,-7.1697 -3.0842,-9.9099 -1.2231,-3.9335 0.3894,-5.6218 7.662,-8.022 14.8513,-4.9013 16.659,-17.631 4.5205,-31.8322 -9.2245,-10.7919 -9.8568,-14.5911 -2.7385,-16.4525 7.0761,-1.8505 6.7761,-9.7203 -1.3158,-34.5092 -8.4053,-25.749 -8.3216,-31.3966 0.5693,-38.3902 5.9339,-4.6676 9.2498,-5.3338 19.5197,-3.9213 17.7228,2.4375 23.332,-3.6042 23.332,-25.131 0,-20.325 4.0089,-22.2243 17.8,-8.4332 20.7992,20.7992 52.1531,19.7034 61.2005,-2.1388 4.0586,-9.7983 8.9305,-9.8743 14.6285,-0.2284 7.093,12.0075 18.2164,17.0783 36.8437,16.7959 31.126,-0.4721 56.7556,-17.5493 62.9497,-41.9442 4.0501,-15.9509 9.7032,-16.6137 12.2933,-1.4412 2.5453,14.9098 9.4342,26.0427 18.4173,29.7636 4.6395,1.9218 18.6534,2.689 38.0861,2.0852 l 30.7457,-0.9553 0.2373,21.0526 c 0.2011,17.8433 1.4849,23.6603 8.4206,38.1579 7.9218,16.5589 25.0902,36.8421 31.1843,36.8421 1.6404,0 4.3802,1.3977 6.0885,3.106 2.3869,2.3869 -0.2579,6.6325 -11.4238,18.3389 -35.82,37.5535 -38.5427,84.859 -6.5433,113.6854 22.5457,20.3101 50.7942,26.1441 68.814,14.2119 12.8258,-8.493 22.9196,-30.29 25.0912,-54.1834 1.0968,-12.0666 3.0422,-19.8087 5.1841,-20.6307 1.8857,-0.7236 7.9229,3.4043 13.4159,9.1732 11.8019,12.3942 28.6139,18.1245 42.8822,14.6161 8.0787,-1.9864 9.6718,-3.8008 12.9639,-14.7647 2.0644,-6.875 4.9114,-12.5 6.3266,-12.5 1.4152,0 6.6276,4.7368 11.5832,10.5263 10.6277,12.4162 18.1364,13.4301 27.811,3.7554 9.0872,-9.0871 11.5993,-21.0193 5.7791,-27.4505 -6.4539,-7.1315 -2.5829,-11.1933 8.8326,-9.2679 13.8877,2.3423 19.2034,-2.5766 20.8058,-19.2527 1.7408,-18.1167 -3.3625,-43.0944 -12.5079,-61.2191 l -7.4429,-14.7505 7.4446,-6.5325 c 4.2303,-3.7121 8.8031,-11.546 10.591,-18.1442 4.2851,-15.8143 -0.2966,-47.8069 -9.4267,-65.8242 -8.4165,-16.6094 -5.8659,-20.7423 7.8184,-12.6684 8.6176,5.0845 10.9685,5.4084 19.8796,2.7385 18.8951,-5.6611 28.9689,-22.3576 33.1815,-54.9956 2.1607,-16.741 5.4718,-19.5029 12.2408,-10.2106 9.8307,13.4954 32.4315,5.985 42.8981,-14.2552 8.5753,-16.5828 3.1398,-47.6896 -12.6981,-72.6709 -6.0407,-9.5279 -8.5883,-11.2526 -18.908,-12.8001 -8.2093,-1.2311 -16.0587,-0.437 -25.1837,2.5476 -7.2914,2.3849 -14.3928,3.6343 -15.7809,2.7764 -1.3881,-0.8579 -2.5366,-5.9307 -2.5523,-11.2729 -0.065,-22.3211 -13.4188,-50.914 -31.3385,-67.1033 -10.8194,-9.7747 -15.5423,-11.6989 -31.7909,-12.9521 -7.9317,-0.6117 -9.3282,-1.7365 -10.0581,-8.1012 -1.1106,-9.6851 -11.9845,-16.2069 -33.9243,-20.3467 -31.0101,-5.8511 -63.5345,1.2802 -75.4858,16.5512 -7.2034,9.2042 -12.1107,7.7563 -12.1107,-3.5733 0,-10.7939 -5.6171,-20.728 -18.0935,-31.9998 -12.5548,-11.3425 -19.0437,-14.8232 -44.9607,-24.1178 -35.9003,-12.8748 -71.801,-14.0765 -80.1327,-2.6822 -2.8469,3.8935 -3.9562,3.7781 -12.577,-1.3083 -13.2202,-7.8001 -35.3797,-10.9253 -55.3948,-7.8123 -36.2923,5.6447 -68.376,30.3096 -83.8671,64.4745 -4.3033,9.4906 -8.9394,16.8773 -10.3026,16.4148 -1.3631,-0.4624 -5.1627,-6.1698 -8.4434,-12.6829 -4.4273,-8.7892 -9.3572,-13.6868 -19.123,-18.9975 -30.825,-16.7631 -86.7704,-20.3316 -113.2253,-7.2223 -14.66,7.2645 -24.9326,20.4303 -24.9326,31.9547 0,9.5251 -5.1293,11.6198 -15.4212,6.2976 -4.8147,-2.4898 -14.6043,-4.1275 -24.5797,-4.1121 -27.9765,0.043 -52.4529,15.2362 -55.1291,34.2193 -0.8588,6.0923 -1.8318,6.4948 -14.0805,5.8247 -18.2052,-0.9958 -28.7034,5.8875 -37.1635,24.3667 -8.003,17.4809 -11.0035,46.1832 -6.3134,60.3943 2.1516,6.5196 6.3127,11.6963 12.1878,15.1627 10.3651,6.1155 10.6184,7.1386 3.8861,15.6973 -8.0373,10.2178 -13.7184,34.266 -13.7144,58.0532 0,28.1862 4.5512,41.6 15.8183,46.67 5.6585,2.5463 8.0836,5.1992 7.2167,7.8948 -0.7181,2.2328 -3.2816,9.3887 -5.6965,15.9018 -8.1898,22.0877 1.1165,65.4674 14.9893,69.8705 4.6578,1.4783 5.0517,2.9083 3.1136,11.3057 -5.4618,23.6653 -0.8132,58.0577 11.0811,81.9817 12.2185,24.5762 27.8424,35.0627 51.7352,34.7239 17.5541,-0.2489 16.5936,-1.9047 19.0575,32.8527 1.5501,21.866 -1.8332,48.5113 -10.3494,81.5074 -2.2981,8.9041 -3.9368,17.1936 -3.6417,18.4211 0.2952,1.2275 -0.393,7.8589 -1.5293,14.7366 -1.6008,9.6897 -1.1098,13.9639 2.181,18.9863 5.8733,8.9639 5.4095,10.8098 -3.66,14.5665 -9.9281,4.1124 -23.6721,19.5174 -23.6721,26.5331 0,13.2249 13.7101,27.7441 23.2416,24.6131 1.9276,-0.6331 4.592,-1.1512 5.921,-1.1512 z m 737.4978,-61.7749 c 27.1574,-2.3767 102.144,-18.8682 118.0156,-25.9547 18.6798,-8.3404 41.4276,-25.8968 64.7043,-49.938 30.9396,-31.9556 39.8072,-58.4039 42.0103,-125.2977 2.5276,-76.748 -9.5096,-126.0755 -36.258,-148.5828 -19.816,-16.6741 -52.3008,-27.9256 -80.6254,-27.9256 -26.1124,0 -63.8372,16.428 -125.823,54.7921 -28.5004,17.6395 -28.9595,18.0799 -29.737,28.5298 -0.4343,5.8376 3.4144,72.6831 8.5527,148.5457 5.1382,75.8625 9.3422,140.6048 9.3422,143.8718 0,4.7621 1.1741,5.7012 5.9211,4.7362 3.2566,-0.662 14.0103,-1.9115 23.8972,-2.7768 z m -59.6544,-291.5146 c -0.73,-1.8092 -1.3273,-0.3289 -1.3273,3.2895 0,3.6184 0.5973,5.0987 1.3273,3.2895 0.7301,-1.8092 0.7301,-4.7698 0,-6.579 z" style="fill:#000000"/><path id="path22580" d="m 6106.6928,2598.2705 c -109.4011,-7.6633 -227.8485,-28.8478 -296.0526,-52.9494 -18.1328,-6.4077 -46.0526,-19.8243 -46.0526,-22.1301 0,-0.8577 1.7384,-0.8924 3.8631,-0.077 2.1247,0.8153 4.563,0.3499 5.4184,-1.0342 0.8555,-1.3842 0.3013,-2.5167 -1.2315,-2.5167 -3.3798,0 -12.9577,-9.1106 -19.2169,-18.2794 -7.3604,-10.7819 -6.0991,-32.5381 3.0016,-51.7751 8.118,-17.1598 16.046,-24.6823 26.0129,-24.6823 3.3826,0 21.1783,6.4408 39.546,14.313 42.0863,18.0376 65.0192,25.6124 103.1327,34.0647 39.4531,8.7495 104.1656,20.0433 114.8458,20.0433 4.6199,0 8.8537,1.3619 9.4086,3.0264 1.6486,4.9459 142.7459,3.7985 184.9561,-1.5042 62.919,-7.9041 152.1048,-25.7569 213.1579,-42.6689 58.7859,-16.2839 87.9468,-26.7233 121.0916,-43.3501 17.6936,-8.8758 22.1955,-10.1607 27.9439,-7.9751 29.8557,11.3511 25.4864,63.2507 -8.1571,96.8943 -15.1815,15.1815 -49.2935,33.7618 -82.9837,45.1999 -52.9715,17.9844 -149.5598,39.0137 -219.2062,47.7258 -34.2512,4.2845 -137.2846,11.4216 -146.5832,10.1538 -1.4474,-0.1973 -16.25,-1.3127 -32.8948,-2.4786 l 0,0 z m -292.1052,-73.4443 c 0,-1.4869 -7.5079,-2.6316 -17.2606,-2.6316 -10.8369,0 -16.6553,0.9794 -15.6342,2.6316 0.8946,1.4474 8.6618,2.6316 17.2606,2.6316 8.6684,0 15.6342,-1.1725 15.6342,-2.6316 z m 51.3158,-7.828 c 7.5594,-1.624 4.5925,-1.8522 -10.5264,-0.8096 -11.5789,0.7985 -21.546,1.8844 -22.1491,2.4131 -2.0956,1.8373 22.2124,0.6444 32.6755,-1.6035 z m 51.3157,-5.2059 c 0,-1.4688 -5.7232,-1.8612 -13.8157,-0.9471 -18.6865,2.1107 -19.1131,3.4547 -1.0965,3.4547 8.2017,0 14.9122,-1.1284 14.9122,-2.5076 z m 25,-2.7556 c 2.0708,-3.3505 -4.026,-3.3505 -9.2105,0 -3.2091,2.0739 -2.8691,2.5585 1.8184,2.5913 3.1712,0.022 6.4976,-1.1439 7.3921,-2.5913 z m 56.3422,-2.5692 c 16.5146,-1.366 31.258,-3.7151 32.7632,-5.2204 1.8946,-1.8946 0.7528,-2.7286 -3.7106,-2.7104 -11.4718,0.047 -74.0971,7.5357 -75.6021,9.0407 -2.081,2.081 12.0437,1.7442 46.5495,-1.1099 l 0,0 z m 71.9002,-4.6011 c -4.7299,-0.5857 -11.8351,-0.5736 -15.7895,0.027 -3.9543,0.6005 -0.084,1.0797 8.5998,1.0649 8.6842,-0.015 11.9196,-0.5061 7.1897,-1.0917 l 0,0 z m -24.295,-3.356 c 0,-1.4474 -2.3684,-2.6316 -5.2631,-2.6316 -2.8948,0 -5.2632,1.1842 -5.2632,2.6316 0,1.4474 2.3684,2.6316 5.2632,2.6316 2.8947,0 5.2631,-1.1842 5.2631,-2.6316 z" style="fill:#000000"/><path id="path22582" d="m 6084.3244,2611.6239 c -129.4011,-11.4036 -257.5387,-38.3328 -311.1331,-65.3872 -28.1694,-14.2198 -41.8233,-37.0478 -41.2234,-68.9211 0.713,-37.8773 25.0186,-70.9105 52.1757,-70.9105 10.2077,0 10.3399,-0.2502 13.2078,-25 0.8386,-7.2368 7.9315,-39.8026 15.7622,-72.3684 7.8306,-32.5658 15.0543,-63.6737 16.0526,-69.1287 l 1.8153,-9.9182 -7.3384,2.79 c -13.6514,5.1903 -28.7781,-2.9511 -37.6814,-20.2806 -6.4384,-12.5319 0.1342,-31.8414 13.9129,-40.8742 7.9261,-5.1962 8.143,-5.8793 8.4864,-26.7235 0.1939,-11.7651 2.8355,-32.049 5.8702,-45.0753 8.5325,-36.6249 10.5684,-53.9065 9.0153,-76.5267 l -1.431,-20.8417 -12.3879,-0.3817 c -32.5022,-1.0015 -57.3214,-29.5473 -67.5579,-77.7019 -2.5926,-12.196 -3.5855,-25.7472 -2.7013,-36.8656 1.1129,-13.9939 0.5538,-18.2814 -2.7404,-21.0153 -12.805,-10.6272 -20.5159,-54.3553 -13.2467,-75.1212 3.6383,-10.3935 3.5565,-11.3789 -1.3102,-15.7832 -18.3921,-16.6447 -21.8543,-68.8356 -6.8805,-103.7208 l 5.2231,-12.1685 -6.6404,-7.1652 c -9.9491,-10.7352 -13.0268,-23.1641 -11.4462,-46.2244 2.7366,-39.9263 23.6937,-68.3259 50.4201,-68.3259 7.4459,0 10.0186,-1.4263 13.0536,-7.2369 4.7511,-9.0958 16.2435,-19.8593 26.9874,-25.2756 13.383,-6.7468 37.1837,-9.4522 51.1906,-5.8189 l 12.2023,3.1653 3.2046,-8.8622 c 8.61,-23.8107 37.4471,-37.5507 78.8104,-37.5507 35.3084,0 66.4222,9.6531 85.7164,26.5937 5.9977,5.266 10.5922,7.676 11.1937,5.8716 3.1661,-9.4983 24.5328,-34.4977 37.8871,-44.3286 29.3762,-21.6256 74.1323,-29.8557 102.7469,-18.8939 11.5419,4.4216 13.0555,4.4424 25.5605,0.3522 11.2436,-3.6776 16.5303,-3.9119 34.302,-1.5201 56.3493,7.5834 101.9765,34.1846 112.0969,65.3538 0.095,0.2936 6.6382,-2.6655 14.5397,-6.576 12.927,-6.3974 17.1363,-7.0977 42.01,-6.9885 34.3076,0.1506 55.3436,7.0699 63.4948,20.8851 3.8778,6.5725 7.433,8.977 15.0808,10.1999 23.2087,3.7113 48.6261,33.6828 57.3788,67.6597 l 4.7294,18.359 15.2259,-1.7226 c 22.457,-2.5407 36.4772,3.4724 45.5304,19.5275 12.3299,21.8661 17.389,37.7386 17.4878,54.8665 l 0.094,16.3223 6.9422,-2.7033 c 11.5773,-4.5081 50.5199,-10.0797 70.5266,-10.0903 42.6183,-0.023 84.558,14.3153 110.5288,37.7866 36.7155,33.1821 68.0481,106.5528 77.1051,180.5554 6.7058,54.7911 1.5307,128.2519 -12.1288,172.1682 -17.3835,55.8894 -64.2668,110.1715 -128.2062,148.4384 -26.6502,15.9499 -46.3976,22.6146 -114.875,38.7701 -86.3577,20.374 -81.5404,18.8571 -81.4999,25.6621 0.036,6.0201 13.4057,57.466 23.4875,90.3777 5.7393,18.7357 5.7684,18.7715 16.65,20.5116 26.0241,4.1614 39.3759,22.5895 39.0824,53.9411 -0.3676,39.2634 -22.4586,71.52 -66.0966,96.5122 -45.644,26.1411 -167.0474,57.046 -284.1435,72.3328 -46.6424,6.0891 -152.9727,8.7971 -196.1196,4.9946 l -1e-4,0 z m 193.4881,-15.6151 c 98.6666,-12.6535 200.6601,-36.3716 257.8277,-59.9567 58.1995,-24.0107 85.9419,-57.9807 83.7415,-102.5398 -1.1072,-22.4209 -6.7162,-31.9587 -21.755,-36.9935 -8.2612,-2.7658 -11.0215,-2.6694 -16.8539,0.5884 -64.4281,35.9878 -175.1702,67.486 -315.1117,89.6266 -51.3772,8.1285 -158.2194,14.1616 -168.4273,9.5106 -7.7969,-3.5525 -15.1205,-3.9432 -13.1159,-0.6997 0.781,1.2636 -5.7868,3.1128 -14.595,4.1093 -8.8082,0.9966 -15.5944,2.2132 -15.0804,2.7036 1.7114,1.6329 137.3293,-3.7222 166.724,-6.5834 109.7709,-10.6846 265.4157,-48.894 338.4647,-83.09 33.6762,-15.7646 38.4832,-15.9852 49.2785,-2.2613 15.8764,20.1837 6.4372,60.2604 -20.549,87.2467 -31.8531,31.853 -108.9009,58.997 -232.9837,82.0802 -83.9239,15.6124 -180.4765,22.9327 -244.8759,18.5656 -136.0131,-9.2232 -270.0834,-36.0021 -330.782,-66.0695 -14.9279,-7.3946 -20.1175,-11.9885 -9.8684,-8.7355 8.1201,2.5772 6.225,-3.0837 -2.8133,-8.4038 -19.8398,-11.6783 -23.9901,-37.3262 -10.6151,-65.5981 8.1205,-17.1652 16.046,-24.6823 26.0232,-24.6823 3.3883,0 18.8156,5.428 34.2829,12.0624 44.4686,19.0736 66.7319,26.5891 103.9391,35.0871 41.9344,9.5775 107.6355,21.2715 119.5115,21.2715 4.7405,0 8.6191,0.9791 8.6191,2.1759 0,2.801 15.3933,0.5941 17.2928,-2.4793 0.7913,-1.2805 -2.4797,-2.3403 -7.2691,-2.3551 -11.6169,-0.036 -84.0084,-11.5976 -115.2869,-18.4126 -59.4673,-12.9566 -108.2167,-29.4699 -137.2849,-46.5037 -8.204,-4.8075 -18.3908,-8.741 -22.6371,-8.741 -11.4111,0 -24.4019,10.112 -32.0272,24.9298 -5.849,11.3659 -6.735,16.411 -6.735,38.3501 0,23.1731 0.6005,26.1697 7.26,36.233 11.9081,17.9944 47.761,33.5357 116.4242,50.4672 55.5324,13.6936 151.2385,28.4859 221.0527,34.166 44.2803,3.6026 140.8977,1.0008 188.2249,-5.0687 l 0,0 z m -486.9091,-71.1826 c 0,-1.4474 -2.4384,-2.6316 -5.4185,-2.6316 -2.9802,0 -4.6866,1.1842 -3.7921,2.6316 0.8946,1.4474 3.3329,2.6316 5.4185,2.6316 2.0856,0 3.7921,-1.1842 3.7921,-2.6316 z m 22.9966,-1.0668 c 0.8606,-0.8606 -2.1154,-1.5648 -6.6133,-1.5648 -4.4979,0 -8.7657,0.9509 -9.4839,2.1131 -1.476,2.3882 13.6768,1.8721 16.0972,-0.5483 z m 54.6153,-6.7962 c 1.0244,-1.6575 -2.973,-2.0001 -11.0289,-0.9451 -16.6459,2.18 -17.6868,3.5449 -2.7033,3.5449 6.669,0 12.8485,-1.1699 13.7322,-2.5998 z m 72.8815,-9.7241 c -1.8997,-0.7602 -4.1694,-0.6668 -5.0439,0.2076 -0.8744,0.8744 0.6798,1.4964 3.454,1.3821 3.0656,-0.1263 3.6892,-0.7498 1.5899,-1.5899 l 0,2e-4 z m 29.7697,-0.834 c 1.8813,-3.044 -4.9687,-3.044 -14.4737,0 -5.9094,1.8926 -5.5905,2.1337 3.1342,2.3693 5.3422,0.1442 10.445,-0.9219 11.3395,-2.3693 z m 55.9211,-7.0772 c -2.5329,-0.6618 -6.6777,-0.6618 -9.2106,0 -2.5329,0.662 -0.4605,1.2035 4.6053,1.2035 5.0658,0 7.1382,-0.5415 4.6053,-1.2035 z m 19.0789,-0.8175 c 0,-1.4474 -2.3684,-2.6316 -5.2631,-2.6316 -2.8948,0 -5.2632,1.1842 -5.2632,2.6316 0,1.4474 2.3684,2.6316 5.2632,2.6316 2.8947,0 5.2631,-1.1842 5.2631,-2.6316 z m 209.2105,-21.1185 c 135.1185,-20.1306 275.4579,-59.2052 305.3045,-85.0055 l 9.7713,-8.4467 -8.0865,-26.2673 c -27.8978,-90.6206 -40.5729,-163.9773 -47.7353,-276.2673 -2.9543,-46.3158 -6.0534,-90.9181 -6.887,-99.1163 l -1.5155,-14.9058 -8.567,5.0546 c -5.9022,3.4823 -9.5504,8.3371 -11.7286,15.6073 -1.7389,5.804 -6.8474,14.7506 -11.3522,19.8812 l -8.1904,9.3284 1.706,58.3911 c 1.7837,61.0438 4.7828,86.7858 17.994,154.4437 4.3805,22.4343 8.5977,52.3273 9.3714,66.4289 l 1.4067,25.6395 -10.2194,9.4085 c -13.7152,12.6271 -52.7974,31.5805 -78.4034,38.0229 -37.1845,9.3554 -63.3399,5.4632 -69.9122,-10.4036 -6.1741,-14.9055 -7.2079,-51.4719 -4.7534,-168.1256 1.3805,-65.611 1.9194,-119.8832 1.1976,-120.605 -0.7218,-0.7218 -4.1612,0.5542 -7.6431,2.8357 -11.361,7.444 -28.7736,9.109 -44.4704,4.2523 -7.7819,-2.4077 -17.401,-6.5086 -21.3758,-9.113 l -7.2271,-4.7353 0,13.1204 c 0,7.2162 1.9328,44.359 4.2951,82.5395 2.3623,38.1805 4.4346,97.8401 4.6052,132.5769 0.3634,73.9707 0.1211,74.9182 -21.9889,85.9599 -35.7361,17.8467 -101.1721,16.3133 -126.3452,-2.9608 -9.5143,-7.2847 -10.1622,-23.1976 -7.021,-172.4348 2.024,-96.1598 1.9072,-149.9787 -0.46,-211.8421 -4.5283,-118.3459 -4.2603,-144.6183 1.5201,-149.0062 2.5329,-1.9228 5.1974,-3.5343 5.9211,-3.5811 1.7473,-0.1132 2.2306,46.9288 3.1624,307.8125 l 0.7849,219.7369 13.1579,6.5789 c 12.0698,6.0349 15.987,6.5674 47.3684,6.4394 28.9216,-0.1179 36.4946,-1.0419 48.9842,-5.9762 8.1255,-3.2102 16.7621,-8.0338 19.1923,-10.7193 6.327,-6.9911 8.1139,-54.7429 4.491,-120.0071 -1.607,-28.9473 -4.1882,-81.6447 -5.7362,-117.1052 -2.1967,-50.3223 -3.7484,-66.2065 -7.0692,-72.3684 -16.298,-30.2417 -17.5038,-33.9812 -17.396,-53.9474 0.1145,-21.1701 5.8002,-38.1075 18.2891,-54.4813 11.5688,-15.1675 11.1526,-22.1033 -2.5309,-42.1737 -14.5015,-21.2702 -22.6979,-43.2284 -22.6979,-60.8073 l 0,-12.8569 -24.596,1.2865 c -29.4726,1.5416 -40.9113,-1.5815 -51.1102,-13.9545 l -7.3494,-8.916 -7.1644,8.9789 c -8.7072,10.9124 -35.063,23.7818 -53.3597,26.0553 -15.8342,1.9675 -35.7386,-3.2477 -44.7671,-11.7295 l -6.1376,-5.766 -8.1396,6.849 c -12.3374,10.3813 -26.5032,13.8188 -40.1392,9.7402 -6.1513,-1.8399 -14.3275,-5.5799 -18.1694,-8.3113 -9.0868,-6.4602 -10.1201,-6.2822 -10.1201,1.7436 0,17.2895 -15.2252,29.6736 -32.4976,26.4332 -10.19,-1.9116 -17.5024,0.137 -17.5024,4.9035 0,1.8 3.6763,15.311 8.1695,30.0243 7.6842,25.1628 7.9181,27.1351 3.9382,33.2092 -3.9444,6.0199 -3.8744,7.0428 1.0312,15.0889 7.6611,12.5653 6.8104,23.8128 -2.6126,34.545 -4.3421,4.9454 -7.8947,11.8854 -7.8947,15.4223 0,3.5369 -2.9605,9.212 -6.5789,12.6113 -5.0267,4.7224 -6.579,8.8336 -6.579,17.4248 0,6.9398 -2.5184,15.9807 -6.5789,23.6174 -3.6185,6.8053 -6.579,15.0804 -6.579,18.389 0,3.3086 -1.1619,9.0717 -2.5819,12.8067 -5.574,14.6607 -11.2597,57.0792 -8.4304,62.8959 10.8592,22.3259 9.6928,38.8959 -3.7408,53.1396 -4.9121,5.2084 -8.9449,10.2736 -8.9618,11.2561 -0.095,5.5355 -14.3979,71.9823 -25.0114,116.1962 -12.9203,53.824 -16.1792,74.3215 -13.5082,84.9637 6.4553,25.7198 163.9865,65.2161 305.6556,76.6341 29.68,2.3921 106.5138,-1.034 142.1052,-6.3367 z m 161.732,-121.1249 c 21.7095,-7.1669 49.4786,-21.1402 60.5864,-30.4867 l 8.6545,-7.2824 -1.5541,-23.8095 c -0.8547,-13.0953 -5.0869,-41.5727 -9.4048,-63.2833 -13.2163,-66.4514 -16.2463,-92.4307 -17.9038,-153.5068 l -1.5949,-58.7699 -6.8317,-2.5974 c -3.7575,-1.4286 -8.9406,-4.5059 -11.5181,-6.8385 -4.3394,-3.9271 -4.9846,-3.815 -8.7172,1.514 -10.6351,15.1838 -29.9358,17.2934 -52.6827,5.7583 -8.5263,-4.3238 -15.7145,-7.8764 -15.9737,-7.8947 -0.2592,-0.018 -1.8467,6.5917 -3.5277,14.689 -1.681,8.0974 -4.6714,18.5879 -6.6454,23.3122 -2.8487,6.8178 -3.7495,38.3883 -4.3671,153.0408 -0.4279,79.448 0.1456,147.7588 1.2744,151.8017 1.1289,4.0429 4.6815,8.4894 7.8948,9.8811 8.8485,3.8324 43.1848,0.7862 62.3111,-5.5279 z m 204.0575,-116.9334 c 89.4851,-21.3313 105.0961,-27.229 143.1428,-54.0778 40.8614,-28.835 78.1996,-71.1823 93.7344,-106.3091 14.246,-32.2128 22.3333,-80.3375 22.3333,-132.8975 0,-93.2644 -26.1944,-177.4293 -69.5727,-223.5431 -16.9424,-18.0109 -28.014,-24.971 -53.1375,-33.4046 -24.8366,-8.3374 -57.2511,-10.7868 -88.1767,-6.6629 -31.4066,4.1879 -46.2032,9.7636 -61.0156,22.9918 -11.9663,10.6864 -17.7652,12.9966 -37.0342,14.7535 -6.3991,0.5835 -8.1214,2.3827 -10.742,11.2212 -7.3038,24.6346 -21.4798,41.5461 -38.7162,46.1874 l -10.75,2.8946 1.8582,29.3677 c 1.0221,16.1522 2.2338,29.7431 2.6928,30.202 0.4589,0.4589 17.6325,-9.2012 38.1635,-21.4669 53.193,-31.7788 82.9526,-44.3677 108.4132,-45.8609 32.1405,-1.885 63.6558,8.0008 90.7714,28.4733 10.7413,8.1098 15.8004,14.5895 23.0387,29.5078 27.5575,56.797 27.5589,168.4476 0,227.5281 -12.5697,26.9494 -64.2948,73.5738 -97.335,87.7365 -14.2029,6.088 -93.4069,22.8373 -119.4305,25.256 -9.9159,0.9215 -19.4903,2.5788 -21.2766,3.6828 -3.3567,2.0745 -1.2758,25.8054 5.7249,65.2891 2.6635,15.0215 3.5198,16.5667 8.5564,15.4392 3.0784,-0.689 34.018,-8.0278 68.7548,-16.3082 z m -798.5715,-17.139 c 5.8026,0 13.0452,-12.0096 13.0452,-21.6314 0,-7.3347 1.2651,-10.5036 4.6053,-11.5358 9.542,-2.9486 12.3411,-5.6689 14.5317,-14.1224 2.1743,-8.3909 0.6235,-15.5881 -6.673,-30.9692 -2.8488,-6.0055 1.3438,-44.8888 6.2496,-57.9604 1.2295,-3.2758 3.3686,-12.9931 4.7538,-21.5939 1.3851,-8.6008 5.1272,-19.1665 8.3158,-23.4793 4.6914,-6.3454 5.4934,-10.0078 4.2036,-19.1956 -1.4606,-10.4048 -0.9027,-11.9301 6.6729,-18.2433 7.9934,-6.6615 8.1472,-7.1779 4.652,-15.6162 -2.0911,-5.0482 -2.5637,-9.0946 -1.1212,-9.5992 21.3514,-7.4688 24.8471,-19.9692 10.3892,-37.1514 -7.9556,-9.4547 -8.2422,-12.5901 -1.3165,-14.4012 6.9967,-1.8297 6.7157,-8.9524 -1.3494,-34.2062 -8.362,-26.1831 -8.2759,-31.7092 0.6029,-38.6932 5.9339,-4.6676 9.2498,-5.3338 19.5197,-3.9213 17.7228,2.4375 23.332,-3.6042 23.332,-25.131 0,-20.325 4.0089,-22.2243 17.8,-8.4332 20.4952,20.4952 48.8599,20.0201 60.1843,-1.0079 5.8561,-10.8741 9.8207,-11.2185 15.6447,-1.3593 7.0171,11.879 17.7233,16.7477 36.5887,16.6389 31.2136,-0.18 59.0119,-19.0964 63.8244,-43.4315 2.097,-10.6041 7.6049,-15.8592 9.6989,-9.2538 0.6116,1.9296 1.8899,8.1609 2.8405,13.8475 1.131,6.7656 4.8586,13.4694 10.785,19.3958 l 9.0567,9.0566 33.2757,-0.9747 33.2757,-0.9748 0.3691,21.0527 c 0.2907,16.5809 1.8267,24.2265 7.2317,35.9952 7.0087,15.2607 26.5666,39.0048 32.1282,39.0048 1.6972,0 4.4836,1.3977 6.1919,3.1059 2.3869,2.387 -0.2579,6.6326 -11.4238,18.3389 -19.4768,20.4194 -28.2565,39.8807 -28.2104,62.5318 0.042,20.5159 4.6001,32.5964 17.8215,47.2309 18.3484,20.3096 47.5768,28.9965 68.3536,20.3154 16.1503,-6.748 30.1948,-37.0599 30.312,-65.4213 0.058,-14.1476 5.5214,-14.8318 18.0878,-2.2654 9.9991,9.999 23.7127,16.1162 36.2037,16.1491 8.7437,0.024 18.6495,-9.4535 20.5673,-19.676 0.9551,-5.0912 3.0496,-9.2567 4.6544,-9.2567 1.6047,0 6.9723,4.7368 11.9279,10.5263 10.6277,12.4162 18.1364,13.4301 27.811,3.7555 9.0872,-9.0872 11.5993,-21.0194 5.7791,-27.4506 -6.4539,-7.1315 -2.5829,-11.1932 8.8326,-9.2679 13.8877,2.3423 19.2034,-2.5766 20.8058,-19.2526 1.7408,-18.1168 -3.3625,-43.0944 -12.5079,-61.2191 l -7.4429,-14.7506 7.4446,-6.5325 c 15.605,-13.6931 16.2843,-50.394 1.5294,-82.623 -8.2111,-17.9355 -6.1263,-22.026 7.2144,-14.1547 23.5647,13.9035 48.0669,-9.5062 53.1457,-50.7761 1.0266,-8.3415 2.973,-15.8502 4.3254,-16.6861 1.3524,-0.8358 5.4344,1.6909 9.0711,5.615 5.5697,6.0098 8.0974,6.8937 16.0319,5.6061 18.0659,-2.9317 29.7177,-19.5433 29.7177,-42.3676 0,-15.985 -5.7692,-33.638 -16.551,-50.6442 -6.0407,-9.5279 -8.5883,-11.2525 -18.908,-12.8001 -8.2093,-1.231 -16.0587,-0.437 -25.1837,2.5477 -7.2914,2.3849 -14.3928,3.6342 -15.7809,2.7763 -1.3881,-0.8579 -2.5378,-5.3386 -2.555,-9.9571 -0.086,-23.1698 -13.3811,-52.1981 -31.3358,-68.4191 -10.8194,-9.7747 -15.5423,-11.6988 -31.7909,-12.9521 -7.8997,-0.6092 -9.3298,-1.7484 -10.0487,-8.0047 -1.0591,-9.2157 -7.9754,-13.7329 -29.4495,-19.2343 -30.6018,-7.8398 -67.3439,-0.7908 -79.97,15.3424 -7.2034,9.2041 -12.1107,7.7562 -12.1107,-3.5734 0,-16.6358 -15.2178,-34.0368 -40.7895,-46.641 -40.7741,-20.0976 -92.0841,-26.263 -102.2997,-12.2924 -2.9806,4.0762 -3.9231,3.9889 -12.6747,-1.1747 -13.3198,-7.8589 -35.4122,-10.9391 -55.3948,-7.7234 -36.2603,5.8351 -68.5319,30.5644 -83.7842,64.2027 -4.2576,9.39 -8.8581,17.0727 -10.2233,17.0727 -1.3653,0 -4.8028,-5.246 -7.6391,-11.6578 -10.1662,-22.9825 -50.2611,-37.5338 -96.7246,-35.1034 -19.2409,1.0064 -27.3733,2.699 -37.1564,7.7334 -14.2483,7.3323 -24.3664,20.456 -24.3664,31.6048 0,9.5251 -5.1293,11.6198 -15.4212,6.2976 -4.8147,-2.4898 -14.6043,-4.1275 -24.5797,-4.1121 -27.9765,0.043 -52.4529,15.2362 -55.1291,34.2193 -0.8588,6.0923 -1.8318,6.4948 -14.0805,5.8247 -9.3967,-0.514 -15.5162,0.7388 -21.408,4.3827 -11.7895,7.2913 -21.8934,29.415 -23.7954,52.1029 -2.0087,23.959 2.0061,36.4121 14.0251,43.5035 4.9674,2.9308 8.6857,6.0852 8.2629,7.0097 -0.4229,0.9245 -4.2252,8.5999 -8.4498,17.0565 -6.6083,13.2284 -7.851,19.1998 -8.8989,42.76 -1.4883,33.4647 2.8701,48.5076 15.5794,53.7719 8.5343,3.535 8.5149,3.0319 0.9058,23.5536 -8.1726,22.0413 1.1121,65.466 14.9354,69.8534 4.6648,1.4805 5.0267,2.9476 3.1136,12.6215 -6.7791,34.2781 4.402,79.9532 24.4896,100.0408 11.437,11.437 21.0714,15.2829 38.0818,15.2016 17.8826,-0.086 16.8896,-1.7795 19.3563,33.0172 1.5501,21.866 -1.8332,48.5113 -10.3494,81.5074 -2.2981,8.9041 -3.9368,17.1936 -3.6417,18.4211 0.2952,1.2275 -0.379,7.7656 -1.4982,14.5292 -1.621,9.7967 -1.0437,14.0204 2.8389,20.7697 3.7829,6.576 4.1045,8.7428 1.4369,9.6814 -8.4493,2.9731 -25.326,18.4672 -27.6073,25.3456 -4.5702,13.78 9.5522,32.9986 21.3909,29.1097 1.9276,-0.6331 4.5459,-1.1512 5.8185,-1.1512 z m 796.6254,-72.276 c 24.9822,-5.1665 51.627,-12.1644 59.2105,-15.5509 30.341,-13.549 78.8311,-58.7261 89.7763,-83.6425 11.9982,-27.3133 15.2005,-45.7909 16.5742,-95.6359 1.1182,-40.5717 0.5385,-51.2409 -4.0401,-74.357 -9.7575,-49.2621 -23.6219,-70.0195 -56.6673,-84.8407 -36.2506,-16.2586 -65.338,-17.0897 -99.4579,-2.8416 -19.8806,8.302 -67.7335,34.7056 -97.5285,53.813 -14.5007,9.2993 -15.1313,10.1668 -15.1239,20.8072 0.01,6.1069 4.1427,72.6823 9.1965,147.9455 5.0538,75.2631 9.195,139.0903 9.2028,141.8382 0.013,4.6295 1.6074,4.881 21.7246,3.4272 11.9407,-0.8628 42.1505,-5.796 67.1328,-10.9625 l 0,0 z" style="fill:#000000"/><path id="path22584" d="m 6083.0086,2611.5198 c -128.7853,-11.3546 -256.151,-38.1924 -309.8173,-65.2831 -28.1694,-14.2198 -41.8233,-37.0478 -41.2234,-68.9211 0.713,-37.8773 25.0186,-70.9105 52.1757,-70.9105 10.2077,0 10.3399,-0.2502 13.2078,-25 0.8386,-7.2368 7.9315,-39.8026 15.7622,-72.3684 7.8306,-32.5658 15.0543,-63.6737 16.0526,-69.1287 l 1.8153,-9.9182 -7.3384,2.79 c -10.6155,4.036 -20.8841,0.8341 -29.7657,-9.2814 -15.0299,-17.1181 -14.1266,-32.4363 2.8866,-48.947 10.5493,-10.2377 10.8452,-11.0035 11.3842,-29.4602 0.3043,-10.4221 3.5827,-33.7519 7.2852,-51.844 6.9911,-34.1612 8.4159,-48.3082 7.5534,-75 l -0.5102,-15.7894 -12.7185,-0.3817 c -32.8309,-0.9854 -57.6089,-29.3451 -67.8884,-77.7019 -2.5926,-12.196 -3.5855,-25.7472 -2.7013,-36.8656 1.1215,-14.1025 0.5659,-18.2675 -2.8085,-21.0526 -12.4591,-10.283 -19.7721,-48.6379 -13.9227,-73.0209 3.0149,-12.5675 2.8561,-14.146 -1.9552,-19.4332 -8.2753,-9.0937 -11.4666,-16.955 -13.9151,-34.2769 -2.7767,-19.6447 1.0862,-50.7623 8.4237,-67.8569 l 5.2231,-12.1685 -6.6404,-7.1652 c -9.9491,-10.7352 -13.0268,-23.1641 -11.4462,-46.2244 2.7048,-39.4624 23.4672,-67.9985 49.8298,-68.4867 7.0736,-0.131 10.1593,-2.1933 16.645,-11.1245 16.7818,-23.1095 44.5774,-33.0531 76.2488,-27.2773 10.4505,1.9058 10.5721,1.8327 16.8823,-10.1525 3.4958,-6.6397 9.8215,-14.5399 14.0572,-17.556 34.8074,-24.785 113.6949,-18.7662 147.9223,11.2858 5.9977,5.266 10.5922,7.676 11.1937,5.8716 0.5611,-1.6835 5.8342,-9.7835 11.718,-18 13.6691,-19.0887 36.7953,-36.0923 59.4072,-43.6792 21.6591,-7.2673 53.8716,-7.8928 71.3755,-1.3862 10.5075,3.906 12.5563,3.9188 23.662,0.1483 28.5946,-9.7081 93.6764,8.2954 126.1347,34.8926 9.0129,7.3853 16.9735,18.7551 20.296,28.9879 0.095,0.2936 6.6382,-2.6655 14.5397,-6.576 12.927,-6.3974 17.1363,-7.0977 42.01,-6.9885 33.4179,0.1467 53.3737,6.5908 64.146,20.7139 4.4025,5.7721 9.806,9.3779 15.714,10.4862 22.4871,4.2186 47.5579,34.407 56.0944,67.5446 l 4.7294,18.359 15.2259,-1.7226 c 22.457,-2.5407 36.4772,3.4724 45.5304,19.5275 12.3299,21.8661 17.389,37.7386 17.4878,54.8665 l 0.094,16.3223 6.9422,-2.7033 c 11.5773,-4.5081 50.5199,-10.0797 70.5266,-10.0903 42.6183,-0.023 84.558,14.3153 110.5288,37.7866 36.7155,33.1821 68.0481,106.5528 77.1051,180.5554 6.7058,54.7911 1.5307,128.2519 -12.1288,172.1682 -15.9652,51.3297 -57.709,102.4177 -113.9706,139.4827 -34.9712,23.0389 -53.6972,30.2214 -117.224,44.9625 -53.6395,12.4467 -91.4213,22.1576 -93.2246,23.9609 -1.4918,1.4917 14.5661,66.6665 23.6919,96.1594 5.3402,17.2583 5.5229,17.4736 16.2926,19.1958 25.9891,4.1558 39.3669,22.5974 39.0742,53.8645 -0.4341,46.369 -32.8105,84.8459 -91.1016,108.2674 -61.1081,24.5534 -158.0491,47.332 -257.8904,60.5975 -45.9204,6.1013 -154.8296,8.8123 -198.6842,4.9458 l -10e-5,0 z m 193.828,-15.6018 c 54.6283,-6.7776 104.6925,-15.9548 157.4878,-28.8693 131.0451,-32.0552 180.726,-65.2476 184.8961,-123.531 2.0069,-28.0484 -4.7452,-42.388 -22.3346,-47.4326 -6.7295,-1.93 -12.0262,-0.2163 -35.7357,11.5615 -15.3093,7.605 -42.4107,18.6652 -60.2252,24.5782 -89.8793,29.8328 -233.882,58.7189 -317.9164,63.7723 l -35.5263,2.1363 39.4737,-0.9269 c 100.9404,-2.3704 287.2104,-44.6677 372.9318,-84.6836 28.4851,-13.2973 31.3654,-14.1261 37.9212,-10.9119 13.1482,6.4463 18.1189,16.4389 17.8716,35.9272 -0.8451,66.5738 -71.502,105.9218 -253.4258,141.13 -81.8507,15.8407 -186.9617,24.0405 -251.8057,19.6436 -133.9947,-9.0859 -272.9137,-36.7797 -330.73,-65.9318 -14.9783,-7.5523 -20.0335,-12.0959 -9.8684,-8.8696 8.1201,2.5772 6.225,-3.0837 -2.8133,-8.4038 -19.8398,-11.6783 -23.9901,-37.3262 -10.6151,-65.5981 8.0845,-17.0891 16.0455,-24.6823 25.8776,-24.6823 3.3083,0 20.4936,6.09 38.1895,13.5334 17.696,7.4433 42.2587,16.9517 54.5837,21.1297 23.8292,8.0776 126.6778,29.7169 155.3039,32.6757 9.4079,0.9724 18.4415,2.8234 20.0747,4.1133 1.7812,1.4068 5.9932,1.0665 10.5263,-0.8506 l 7.5569,-3.1959 -7.8947,-0.876 c -104.3171,-11.5755 -207.5341,-38.226 -254.3902,-65.6834 -17.7972,-10.429 -26.6817,-10.9376 -39.4544,-2.2583 -15.6598,10.6411 -21.9449,26.9281 -21.9449,56.8674 0,23.0615 0.6106,26.1148 7.2186,36.1002 12.6321,19.0884 61.2251,38.5336 138.8341,55.5566 57.7296,12.6626 144.8665,24.9941 213.1578,30.1659 32.5966,2.4685 131.5832,-1.0757 172.7754,-6.1862 z m -485.9332,-71.0918 c 0,-1.4474 -2.6645,-2.6135 -5.9211,-2.5913 -4.788,0.033 -5.1657,0.5285 -1.9737,2.5913 5.102,3.2971 7.8948,3.2971 7.8948,0 z m 21.0526,0 c 2.9302,-1.8937 1.3645,-2.5614 -6.0764,-2.5913 -6.021,-0.024 -9.3742,1.0106 -8.3973,2.5913 2.0555,3.3259 9.3272,3.3259 14.4737,0 z m 56.7046,-8.0981 c 1.2171,-1.9692 -2.151,-2.2681 -11.0289,-0.9786 -16.795,2.4393 -17.8215,3.8135 -2.8486,3.8135 6.669,0 12.9139,-1.2757 13.8775,-2.8349 z m 103.8217,-10.323 c 0,-3.0329 -6.3191,-3.0329 -15.7895,0 -5.5889,1.7899 -4.8958,2.1465 4.6053,2.3693 6.1513,0.1443 11.1842,-0.9219 11.1842,-2.3693 z m 138.1579,-5.6959 34.2105,-0.4906 -23.6842,-1.859 c -13.0263,-1.0225 -27.2368,-2.7529 -31.5789,-3.8454 -4.567,-1.1491 -6.9709,-1.0034 -5.7031,0.3457 1.2437,1.3234 -4.4475,3.7053 -13.1579,5.5069 -8.564,1.7712 -10.6962,2.6571 -4.8232,2.0039 5.7894,-0.6439 25.921,-1.3916 44.7368,-1.6615 z m -83.6027,-1.3909 c -2.5605,-0.6672 -6.1131,-0.6233 -7.8948,0.098 -1.7816,0.7209 0.3133,1.2668 4.6554,1.2132 4.3421,-0.054 5.7998,-0.6434 3.2394,-1.3107 l 0,-1e-4 z m 19.129,-0.8079 c 0,-1.4474 -1.7064,-2.6316 -3.792,-2.6316 -2.0857,0 -4.524,1.1842 -5.4185,2.6316 -0.8945,1.4474 0.8119,2.6316 3.792,2.6316 2.9802,0 5.4185,-1.1842 5.4185,-2.6316 z m 209.2105,-21.1877 c 135.2882,-19.8631 285.0891,-62.3468 308.7872,-87.5721 l 6.0888,-6.4813 -6.9601,-21.9847 c -11.97,-37.81 -29.5204,-112.5574 -36.7012,-156.3112 -4.5774,-27.8909 -8.9985,-74.0899 -13.1675,-137.5951 -3.4519,-52.5831 -6.8607,-96.1902 -7.575,-96.9046 -0.7144,-0.7143 -4.7505,0.4862 -8.9692,2.6677 -5.2807,2.7308 -8.6732,7.314 -10.8896,14.7114 -1.7706,5.9097 -6.9039,14.9415 -11.4075,20.0708 l -8.1883,9.326 1.6315,55.762 c 1.7566,60.0365 5.5655,93.1714 18.0564,157.0777 4.3848,22.4343 8.6055,52.3273 9.3792,66.4289 l 1.4067,25.6395 -10.2194,9.4085 c -13.3916,12.3291 -52.4919,31.486 -77.3246,37.8846 -10.8553,2.7971 -16.9473,5.1508 -13.5377,5.2305 27.9676,0.6537 91.1486,-30.4677 101.2139,-49.8555 6.3266,-12.1864 5.0559,-27.6038 -8.3502,-101.3154 -10.8819,-59.8323 -14.7827,-95.8498 -17.6,-162.5049 l -1.6408,-38.8207 9.4376,-12.8565 c 5.1906,-7.0711 10.1832,-16.5846 11.0945,-21.1412 1.4141,-7.0708 10.0242,-15.7019 12.8474,-12.8787 0.4997,0.4997 2.7892,28.1286 5.0878,61.3974 11.562,167.3468 18.1209,209.6144 49.3643,318.1211 l 8.2595,28.685 -6.3525,5.144 c -24.9916,20.237 -118.9527,49.5923 -228.7712,71.4728 -74.2512,14.7939 -97.5574,17.5668 -160.5263,19.099 -51.1268,1.244 -65.3182,0.6574 -103.9473,-4.2968 -56.4154,-7.2352 -129.3903,-21.1405 -173.6843,-33.0953 -37.6458,-10.1605 -78.4188,-28.6235 -79.8079,-36.1391 -1.0048,-5.4358 15.7514,-68.3055 32.7758,-122.9756 13.4274,-43.1193 43.0466,-129.5801 45.0755,-131.5789 3.5949,-3.5418 -2.6734,58.9435 -9.7677,97.3684 -10.3964,56.3096 -13.8755,84.9158 -11.7231,96.3891 2.2431,11.9566 20.7648,24.6771 51.5161,35.3806 19.0165,6.619 25.7787,7.6377 50.8787,7.6647 37.0128,0.04 45.0982,-3.4141 52.2718,-22.3291 4.3879,-11.5701 4.9551,-20.1445 4.7,-71.0527 -0.1595,-31.8421 -1.4075,-94.0131 -2.7731,-138.1579 -2.6168,-84.593 -2.5351,-88.3369 4.1087,-188.1579 2.9755,-44.7054 5.2592,-64.3717 7.8165,-67.3124 1.9871,-2.2851 3.613,-5.8969 3.613,-8.0263 0,-2.1295 1.4802,-5.5575 3.2894,-7.6178 1.8092,-2.0602 0.467,-1.4089 -2.9827,1.4474 l -6.2722,5.1934 1.9332,-15.7895 c 1.0632,-8.6842 2.9853,-17.7611 4.2713,-20.1709 2.2234,-4.1664 22.5038,-10.0923 34.5396,-10.0923 3.0647,0 4.8397,-0.7325 3.9445,-1.6277 -0.8953,-0.8953 -6.4775,-1.5609 -12.4049,-1.4791 -14.4137,0.199 -33.4332,-5.7695 -40.9808,-12.8601 l -6.1376,-5.766 -8.1396,6.849 c -12.3374,10.3813 -26.5032,13.8188 -40.1392,9.7402 -6.1513,-1.8399 -14.3275,-5.5799 -18.1694,-8.3113 -9.0868,-6.4602 -10.1201,-6.2822 -10.1201,1.7436 0,17.2895 -15.2252,29.6736 -32.4976,26.4332 -10.19,-1.9116 -17.5024,0.137 -17.5024,4.9035 0,1.8 3.6763,15.311 8.1695,30.0243 7.6842,25.1628 7.9181,27.1351 3.9382,33.2092 -3.9444,6.0199 -3.8744,7.0428 1.0312,15.0889 7.6611,12.5653 6.8104,23.8128 -2.6126,34.545 -4.3421,4.9454 -7.8947,11.8854 -7.8947,15.4223 0,3.5369 -2.9605,9.212 -6.5789,12.6113 -5.0267,4.7224 -6.579,8.8336 -6.579,17.4248 0,6.9398 -2.5184,15.9807 -6.5789,23.6174 -3.6185,6.8053 -6.579,15.0804 -6.579,18.389 0,3.3086 -1.1418,9.0189 -2.5373,12.6894 -1.3956,3.6705 -4.3897,17.3499 -6.6537,30.3986 -3.9646,22.8505 -3.916,24.3323 1.3192,40.2081 6.8867,20.8843 5.2041,32.7319 -6.3952,45.0308 -6.4223,6.8096 -9.4356,13.3263 -11.9335,25.8075 -5.9383,29.6731 -17.9952,84.1341 -27.5829,124.5923 -11.1957,47.2434 -11.8817,61.2008 -3.3998,69.1692 26.5197,24.9139 159.7138,56.7046 288.7622,68.9216 36.8924,3.4926 111.4295,0.9114 153.9473,-5.3311 z m -21.0849,-91.9139 c 24.3505,-9.5283 29.3696,-16.0221 31.7142,-41.0326 2.2733,-24.2488 -0.088,-114.282 -5.41,-206.2632 -2.0475,-35.3896 -3.2814,-64.7861 -2.7419,-65.3256 0.5395,-0.5395 4.5844,0.8826 8.9887,3.1601 18.5176,9.5759 40.1746,10.5607 59.3226,2.6977 4.8795,-2.0037 4.9648,0.7444 3.5604,114.8272 -1.4598,118.5824 0.1536,157.1433 7.14,170.6536 4.8978,9.4714 16.1363,13.4393 36.6668,12.9458 l 16.0547,-0.3859 -18.4211,-1.7526 c -20.6676,-1.9663 -28.7662,-5.9293 -32.9989,-16.1481 -5.9848,-14.4486 -7.0215,-51.8815 -4.6469,-167.7874 1.3449,-65.645 1.8826,-119.9173 1.1949,-120.605 -0.6877,-0.6877 -4.0992,0.6163 -7.5811,2.8978 -11.361,7.444 -28.7736,9.109 -44.4704,4.2523 -7.7819,-2.4077 -17.401,-6.5086 -21.3758,-9.113 l -7.2271,-4.7353 0,10.1467 c 0,5.5807 2.4786,55.1577 5.5079,110.1711 5.9391,107.856 5.802,165.9975 -0.422,178.8811 -4.866,10.0728 -26.83,21.164 -50.1719,25.3354 -33.2944,5.9501 -77.3112,-0.2542 -94.3478,-13.2984 -9.5109,-7.2821 -10.2052,-23.7009 -7.0706,-167.2096 2.0015,-91.6304 1.8798,-148.236 -0.4694,-218.421 -1.7441,-52.1053 -3.2799,-105.1892 -3.4129,-117.9643 -0.2187,-20.9971 -0.7668,-23.4215 -5.7092,-25.2499 -4.1401,-1.5315 -7.6234,-0.061 -14.3484,6.0591 -10.4263,9.4877 -6.9571,12.5288 4.768,4.1798 4.4466,-3.1663 8.8571,-4.9843 9.8012,-4.0402 0.9442,0.9442 2.0386,12.6194 2.4321,25.945 0.3934,13.3256 2.0023,63.2109 3.5752,110.8563 2.1346,64.6607 2.05,119.3809 -0.3337,215.7895 -1.7564,71.0388 -2.3301,137.2047 -1.2747,147.0352 2.555,23.799 7.9966,30.0073 31.9097,36.4052 26.8007,7.1705 77.8434,5.6838 99.7974,-2.9068 l 0,0 z m -5.7281,-13.2542 c 8.3262,-3.1152 16.8755,-8.315 18.9985,-11.5552 6.0368,-9.2134 7.5057,-54.1422 3.9657,-121.2995 -1.7547,-33.2895 -4.6645,-88.3553 -6.4662,-122.3684 l -3.2757,-61.8422 -8.3962,-13.2794 c -18.1656,-28.7309 -16.8887,-59.257 3.9427,-94.261 13.9714,-23.4768 13.8994,-24.9856 -2.3508,-49.259 -13.1925,-19.706 -20.3944,-40.0499 -20.3944,-57.6097 l 0,-12.489 -24.596,1.2865 c -29.5289,1.5445 -40.9103,-1.5802 -51.1931,-14.0551 l -7.4323,-9.0166 -5.7023,7.7128 c -3.1363,4.242 -9.2799,9.8261 -13.6525,12.409 -5.1552,3.0453 -7.9502,6.8098 -7.9502,10.7079 0,6.1716 3.6839,8.0643 6.579,3.38 0.8945,-1.4474 2.4447,-2.6324 3.4448,-2.6334 2.3169,0 2.6368,26.5258 3.6311,301.1687 l 0.8188,226.1668 8.498,4.9645 c 12.2732,7.17 29.9607,9.6884 60,8.5428 18.5657,-0.708 30.8822,-2.6862 41.5311,-6.6705 l 0,0 z m 187.466,-15.9749 c 22.1761,-6.8435 49.9232,-20.519 61.6461,-30.3832 l 8.6352,-7.2661 -1.424,-22.51 c -0.7832,-12.3805 -4.9935,-40.8653 -9.3561,-63.2995 -13.5448,-69.653 -16.3967,-94.1227 -18.044,-154.8226 l -1.5949,-58.7699 -6.8317,-2.5974 c -3.7575,-1.4286 -8.9406,-4.5059 -11.5181,-6.8385 -4.3394,-3.9271 -4.9846,-3.815 -8.7172,1.514 -10.6351,15.1838 -29.9358,17.2934 -52.6827,5.7583 -8.5263,-4.3238 -15.7044,-7.8764 -15.9512,-7.8947 -0.2468,-0.018 -1.2129,3.8153 -2.1469,8.5192 -0.9339,4.704 -3.9883,16.25 -6.7875,25.6579 -4.7203,15.8641 -5.1374,27.5119 -5.7479,160.5264 -0.3621,78.8815 0.3339,146.1622 1.5467,149.5125 1.2128,3.3503 4.7655,7.2025 7.8948,8.5604 8.4989,3.6881 40.3368,0.7342 61.0794,-5.6668 z m 199.8733,-115.6121 c 30.3948,-7.1566 66.5604,-16.5506 80.3681,-20.8757 70.6378,-22.1263 145.8727,-91.9514 166.8075,-154.8129 10.7529,-32.288 14.6652,-56.6282 16.4185,-102.1474 2.5311,-65.7121 -6.6531,-122.8184 -27.9496,-173.7868 -24.2071,-57.9343 -54.198,-88.2444 -101.5463,-102.627 -21.481,-6.5251 -73.7289,-6.5796 -101.678,-0.1061 -19.5098,4.5189 -25.3464,7.5743 -45.3984,23.7656 -6.3419,5.1209 -13.6424,8.059 -22.8866,9.2106 -14.5378,1.811 -14.2698,1.5428 -24.0636,24.0754 -7.9337,18.2532 -20.1653,30.6058 -33.9928,34.3292 l -10.75,2.8946 1.8582,29.3677 c 1.0221,16.1522 2.203,29.7122 2.6242,30.1334 0.4213,0.4213 15.5587,-8.0432 33.6387,-18.81 63.7006,-37.9341 90.7797,-49.0031 119.7566,-48.9524 29.7076,0.052 59.1646,10.2094 84.0115,28.969 10.752,8.1179 15.8083,14.5929 23.0486,29.5153 27.5575,56.797 27.5589,168.4476 0,227.5281 -12.5485,26.904 -64.292,73.5726 -97.2251,87.6894 -13.6547,5.8531 -76.6898,19.4856 -115.3074,24.9374 -14.2711,2.0147 -26.6083,4.3239 -27.4159,5.1316 -1.8437,1.8436 6.961,65.9882 10.2423,74.6187 1.9075,5.0171 3.6796,6.0146 8.2995,4.6717 3.2308,-0.9392 30.7426,-7.5629 61.1373,-14.7194 l 1e-4,0 z m -785.9187,-24.5611 c 2.957,-3.1626 5.6576,-10.2465 6.1289,-16.0764 0.6948,-8.5952 1.9835,-10.6891 7.3509,-11.9441 4.4251,-1.0346 7.6902,-4.6269 10.2006,-11.2227 3.3835,-8.89 3.1917,-10.9343 -2.2952,-24.453 -5.7172,-14.0862 -5.8354,-15.7816 -2.6193,-37.5654 1.8524,-12.5474 4.3739,-25.4937 5.6033,-28.7695 1.2295,-3.2758 3.3686,-12.9931 4.7538,-21.5939 1.3851,-8.6008 5.1272,-19.1665 8.3158,-23.4793 4.6914,-6.3454 5.4934,-10.0078 4.2036,-19.1956 -1.4606,-10.4048 -0.9027,-11.9301 6.6729,-18.2433 7.9934,-6.6615 8.1472,-7.1779 4.652,-15.6162 -2.0911,-5.0482 -2.5637,-9.0946 -1.1212,-9.5992 21.3514,-7.4688 24.8471,-19.9692 10.3892,-37.1514 -7.9556,-9.4547 -8.2422,-12.5901 -1.3165,-14.4012 6.9967,-1.8297 6.7157,-8.9524 -1.3494,-34.2062 -8.362,-26.1831 -8.2759,-31.7092 0.6029,-38.6932 5.9339,-4.6676 9.2498,-5.3338 19.5197,-3.9213 17.7228,2.4375 23.332,-3.6042 23.332,-25.131 0,-19.657 4.7078,-23.0006 15.5976,-11.0779 20.6329,22.5901 50.2208,22.7899 62.9439,0.425 2.3943,-4.2087 5.3766,-7.6598 6.6273,-7.6689 1.2507,-0.01 6.7126,4.985 12.1375,11.0981 9.6993,10.9297 10.1907,11.1313 29.5166,12.1072 33.607,1.6971 56.0992,-11.8852 65.457,-39.5274 2.5989,-7.6767 6.1977,-13.9577 7.9974,-13.9577 1.8148,0 4.7167,6.4138 6.5155,14.4004 2.3632,10.4931 5.5549,16.4659 11.7625,22.0124 l 8.5193,7.612 32.9131,-0.9597 32.9131,-0.9599 0.4371,21.0527 c 0.3562,17.1597 1.8257,23.9517 7.9467,36.7309 7.7059,16.0881 25.9165,38.2691 31.419,38.2691 1.6972,0 4.4593,1.3734 6.1379,3.052 2.3151,2.3151 -0.3582,6.7356 -11.0701,18.3057 -19.8377,21.4272 -28.2358,40.2203 -28.2358,63.1859 0,22.5287 6.6861,37.5358 23.1992,52.0712 27.522,24.2259 62.9168,24.439 78.7002,0.4739 7.1984,-10.9298 14.3545,-36.296 14.3545,-50.8821 0,-13.5813 5.7399,-15.3857 15.547,-4.8873 8.6384,9.2475 27.1713,18.5361 37.1569,18.6229 9.9163,0.086 17.8117,-6.7496 21.3197,-18.4585 1.7189,-5.7371 4.1695,-10.4311 5.4457,-10.4311 1.2762,0 6.8265,4.7368 12.3339,10.5263 11.3725,11.955 17.9988,13.1294 25.9838,4.6053 9.3182,-9.9474 11.9711,-20.0813 7.1735,-27.4032 -5.6556,-8.6316 -2.6656,-12.0914 8.8622,-10.2546 5.2791,0.8412 10.9013,0.6287 12.4939,-0.4722 13.6917,-9.4649 11.0126,-49.6252 -5.4821,-82.1759 -6.293,-12.4185 -6.3703,-13.1289 -1.7853,-16.4032 7.7012,-5.4998 13.0469,-15.711 14.8794,-28.4225 2.0789,-14.4198 -3.8955,-44.9863 -11.8341,-60.5474 -7.1314,-13.9786 -4.2133,-17.3545 9.1236,-10.555 24.2375,12.357 47.9775,-10.4417 52.6545,-50.5666 0.9674,-8.2996 2.9209,-15.8083 4.3412,-16.6861 1.4203,-0.8778 5.5578,1.6146 9.1945,5.5387 5.577,6.0176 8.0923,6.8945 16.0654,5.6006 29.696,-4.819 38.5489,-44.6455 18.4819,-83.1444 -11.3173,-21.7125 -20.9759,-26.6315 -42.3649,-21.5761 -24.2577,5.7336 -23.7803,5.9038 -25.6647,-9.15 -2.5732,-20.5563 -9.2538,-37.8554 -20.1202,-52.1006 -13.6965,-17.9552 -22.2113,-23.5576 -38.2568,-25.1714 -12.6263,-1.2699 -13.773,-1.9536 -14.5451,-8.6729 -1.0591,-9.2157 -7.9754,-13.7329 -29.4495,-19.2343 -12.1839,-3.1214 -22.1842,-3.8937 -34.9978,-2.7028 -21.952,2.0403 -34.108,6.8801 -44.0729,17.5476 -8.3486,8.9373 -13.01,8.3232 -13.01,-1.7139 0,-10.0307 -6.3667,-22.5924 -16.1336,-31.8323 -19.4731,-18.4223 -66.5733,-35.1833 -99.7462,-35.4954 -15.8134,-0.1488 -19.5767,0.7153 -24.9019,5.7181 l -6.2733,5.8935 -9.3929,-5.8051 c -19.8193,-12.249 -57.2656,-11.4411 -85.4307,1.8431 -20.1356,9.4971 -42.0602,32.0276 -52.5447,53.9969 -4.6624,9.7698 -9.4952,17.7632 -10.7396,17.7632 -1.2443,0 -4.7037,-5.0431 -7.6875,-11.207 -11.2268,-23.1914 -40.3081,-34.6164 -88.4654,-34.7549 -28.8362,-0.083 -32.7218,0.4963 -44.7369,6.6679 -14.7235,7.5629 -25,20.566 -25,31.6331 0,10.1514 -3.4871,11.406 -17.1736,6.1791 -16.7321,-6.3901 -41.8226,-4.0888 -57.8541,5.3063 -11.0974,6.5035 -16.0599,13.3094 -20.7873,28.509 -1.2309,3.9578 -3.4478,4.4571 -14.0079,3.155 -9.8077,-1.2094 -14.3459,-0.4177 -20.7956,3.628 -11.7979,7.4004 -21.8984,29.5475 -23.7954,52.1756 -2.0087,23.959 2.0061,36.4121 14.0251,43.5035 4.9674,2.9308 8.6857,6.0852 8.2629,7.0097 -0.4229,0.9245 -4.2521,8.6548 -8.5094,17.1784 -6.8815,13.7775 -7.8492,18.7393 -8.718,44.7043 -1.1077,33.1063 2.5463,44.7637 16.0401,51.1726 7.9766,3.7884 7.9717,3.4361 0.3359,24.0867 -3.2623,8.823 -3.95,16.1232 -2.6974,28.6339 2.0789,20.7619 6.6027,31.974 15.8292,39.2315 6.9735,5.4854 7.0505,5.8683 4.0705,20.2231 -5.7245,27.5745 5.4806,71.8356 23.132,91.3736 12.7463,14.1086 21.194,17.9064 39.8306,17.9064 18.2956,0 17.2949,-1.6552 19.8973,32.9128 1.5227,20.2256 -2.7612,56.1046 -9.1098,76.2977 -1.3651,4.3421 -3.1321,13.8158 -3.9267,21.0526 -0.7946,7.2369 -2.1467,16.9233 -3.0047,21.5254 -1.0523,5.6444 -0.022,10.9706 3.1651,16.3664 2.5988,4.3994 4.1952,8.3807 3.5476,8.8472 -0.6476,0.4666 -6.25,4.0988 -12.4498,8.0715 -6.2332,3.994 -13.2389,11.3467 -15.6712,16.4472 -4.1462,8.6949 -4.1262,9.73 0.3487,18.0394 7.9394,14.7427 22.0948,17.2604 32.7814,5.8306 l 0,0 z m 783.2872,-64.7804 c 48.7638,-9.929 61.5664,-14.0034 81.4295,-25.9146 23.1181,-13.8633 64.9742,-56.3225 73.1159,-74.1695 12.9922,-28.4798 16.3258,-49.583 16.4203,-103.9474 0.1597,-91.9435 -14.905,-130.6969 -58.579,-150.6915 -54.8472,-25.1099 -90.7571,-16.853 -185.578,42.6709 -26.5643,16.6758 -28.1245,18.1405 -28.1245,26.4035 0,10.0312 8.7421,147.4686 14.5202,228.2767 2.1454,30.0048 3.9008,57.7136 3.9008,61.5751 l 0,7.0207 21.7106,-1.5932 c 11.9407,-0.8763 39.4736,-5.2101 61.1842,-9.6307 z m -551.661,-274.1936 c 1.8378,-2.9427 2.8481,-5.8438 2.2451,-6.4468 -1.5087,-1.5087 -15.0578,9.3609 -15.0578,12.0799 0,3.9652 9.3992,-0.1671 12.8127,-5.6331 z" style="fill:#000000"/><path d="m 6067.5765,1871.4092 c 1.2007,7.3392 1.9427,14.9042 4.6627,21.8697 2.8098,5.4243 7.7996,2.2019 11.6694,-0.2398 -66.4009,35.4252 -28.3233,21.4217 -22.6822,9.2542 1.3355,-6.2036 0.8553,-12.686 0.7314,-18.9948 -0.2832,-6.5172 -0.6098,-13.037 2.5165,-18.9306 2.9489,-3.5935 7.2538,-5.5331 9.9739,-9.3561 1.16,-1.9951 0.4535,1.5369 -1.0578,2.4569 -0.5992,0.3648 -2.5357,1.1938 -1.9278,0.8439 10.4965,-6.0413 21.0691,-11.9492 31.6037,-17.9239 -4.8787,2.6328 -9.3793,5.8435 -13.766,9.2131 -0.6905,0.6121 -1.381,1.2242 -2.0715,1.8363 0,0 -35.9731,14.7999 -35.9731,14.7999 l 0,0 c 0.6624,-0.6775 1.3247,-1.355 1.987,-2.0325 4.0356,-3.8026 8.6614,-6.9677 13.4069,-9.8258 11.8324,-6.7289 23.606,-13.5622 35.4972,-20.1866 1.9989,-1.1136 4.4488,-1.3826 6.2305,0.3097 1.7233,1.6368 1.427,2.1992 1.6236,4.2912 -1.5074,4.8751 -5.1875,8.0653 -9.7508,10.187 -5.0988,4.5299 -3.7955,10.4239 -3.839,16.6843 0.1089,6.6413 0.5327,13.3089 0.081,19.9388 -0.3281,1.7476 -0.4837,3.4091 -1.4182,4.9864 -1.0333,1.744 -2.382,2.4969 -3.8061,3.8631 -14.2137,13.6349 35.9534,-19.8894 -37.7954,22.8626 -6.6636,2.3842 -11.5808,1.6114 -15.0988,-5.1953 -2.7035,-7.2142 -3.5349,-14.9261 -5.3211,-22.3967 0,0 34.5236,-18.315 34.5236,-18.315 z" id="path22586" style="fill:#000000"/><path d="m 6077.9393,1861.1679 c 0.322,4.424 -1.5293,11.2706 1.7742,15.0448 0.3383,0.3865 0.9607,0.3637 1.4411,0.5455 0.6445,0.01 1.2978,0.1347 1.9334,0.028 0.1372,-0.023 4.0161,-1.4347 4.0256,-1.4397 0.6471,-0.345 2.4119,-1.6617 1.7722,-1.3033 -29.9054,16.7548 -41.4518,24.9552 -29.4069,16.4992 4.3279,-2.8337 7.1735,-7.0948 9.8861,-11.3823 0.4455,-0.6662 0.8909,-1.3324 1.3363,-1.9986 0,0 35.6667,-15.7013 35.6667,-15.7013 l 0,0 c -0.432,0.7165 -0.8641,1.433 -1.2961,2.1496 -3.1594,4.1762 -5.2474,9.1695 -9.3431,12.6341 -12.8429,9.1463 -6,4.3632 -37.362,22.1032 -3.1228,1.7664 -7.2461,0.7807 -10.1574,-0.7411 -0.7863,-0.7638 -1.7303,-1.3934 -2.3588,-2.2915 -3.2643,-4.6648 -2.362,-11.0926 -2.7374,-16.4016 0,0 34.8261,-17.7448 34.8261,-17.7448 z" id="path22588" style="fill:#000000"/><path d="m 5814.6818,2508.1702 c -1.1271,0.6085 9.2789,-4.9355 7.0078,-3.6129 -70.1997,40.8834 3.3282,-3.8771 14.9953,-7.9269 4.2282,-0.6954 6.7297,1.2573 7.522,5.4107 0.53,2.778 -0.2934,1.0466 0.243,2.0988 0.5678,-0.2165 1.2371,0.1916 1.7851,-0.041 0.5248,-0.2225 0.8361,-0.7877 1.324,-1.0824 2.1828,-1.3184 4.7974,-1.7388 7.0973,-2.8779 7.0485,-2.976 14.1705,-5.7867 21.3022,-8.5569 6.6689,-2.6215 13.822,-2.8684 20.8861,-3.176 6.9724,-0.2071 13.9498,-0.1301 20.9243,-0.1107 5.9504,-0.3982 12.1248,0.7933 17.9697,-0.5331 6.7356,-1.3978 13.6096,-2.1932 20.4327,-3.0951 7.6217,-1.079 15.307,-1.3876 22.9919,-1.5655 5.9863,-0.1016 11.9741,-0.1154 17.9611,-0.074 7.9434,0.844 9.8701,5.2913 11.3326,12.4642 1.6432,24.0088 -19.4803,25.012 -41.0025,37.2579 -7.8289,1.7828 -15.8683,2.1263 -23.8662,2.1926 -6.898,0.018 -13.7956,-0.063 -20.6936,-0.082 -4.2136,-0.3037 -11.068,2.6598 -13.2903,-2.7704 -0.4269,-1.043 -0.3856,-2.2208 -0.5784,-3.3312 0.2305,-0.949 0.3027,-1.9511 0.6916,-2.8469 1.7268,-3.9771 6.0795,-7.674 9.7584,-9.7917 12.0157,-6.9164 24.1355,-13.6503 36.2033,-20.4754 6.6736,-2.3112 11.4684,-2.3203 17.8154,0.7442 6.3964,3.3727 10.4987,9.3136 15.1439,14.6214 14.5546,18.408 -11.368,20.0777 -31.1691,31.5773 -7.2636,0.3771 -14.5138,-0.037 -21.7688,0.5402 -14.5885,0.6525 -29.1745,1.3539 -43.7713,1.7958 -9.8671,0.1897 -19.7347,0.3436 -29.6032,0.4224 -7.2839,0.6277 -10.4224,-2.5173 -15.0411,-7.4628 -0.4503,-0.7403 -1.042,-1.4114 -1.351,-2.221 -0.2378,-0.6229 -1.0131,-4.1773 0.058,-4.8628 15.8437,-10.1379 24.6642,-21.9324 40.7855,-20.7478 3.0104,0.1076 6.0365,1.0339 9.0507,1.0218 0.4315,0 1.6117,-0.5709 1.2505,-0.3347 -33.1803,21.6929 -20.475,24.1786 -34.7841,20.9675 -6.4281,-1.8279 -13.1518,-1.5846 -19.7157,-2.5073 -6.9146,-1.1328 -13.8853,-1.7781 -20.8804,-2.0962 -7.1922,-0.2416 -14.3904,-0.2344 -21.5857,-0.217 -4.9875,0.5445 -10.2896,-0.7642 -15.2333,0.2199 39.0982,-27.0725 24.0588,-24.4618 54.0735,-17.6066 4.7726,2.0173 12.238,0.8581 16.8407,2.6904 -34.1355,24.9484 -22.5998,22.8404 -46.442,22.6637 -24.8331,-1.4824 8.8197,-26.3442 27.5143,-25.2715 6.8413,-2.4326 13.8612,-3.6794 21.0878,-4.369 9.7643,-0.8774 19.5768,-0.9323 29.3724,-1.0555 14.4736,-0.474 28.7511,2.813 42.8603,5.6653 14.0392,2.3049 27.3549,7.3048 40.9295,11.3363 6.7418,1.9703 13.7074,2.6468 20.4863,4.4171 0,0 -31.6157,21.8528 -31.6157,21.8528 l 0,0 c -6.8301,-1.4867 -13.7604,-2.5728 -20.4219,-4.7555 -13.334,-4.2457 -26.5564,-8.8021 -40.3868,-11.2717 -14.185,-2.9873 -28.4663,-5.3753 -43.0278,-4.5474 -9.6954,0.065 -19.4111,0.2238 -29.052,1.3536 -7.3312,1.0893 -14.3242,3.2026 -21.544,4.7409 -14.1558,4.9225 4.6338,-1.4536 30.2905,-20.0542 0.5649,-0.4095 -1.1787,-0.946 -1.3121,-1.6309 -0.069,-0.3543 0.6936,0.204 1.0477,0.2738 2.4,0.4731 2.4254,0.3716 5.1416,0.5388 22.2209,-0.028 22.0468,-4.8892 -17.413,22.3426 -5.3621,-0.029 -10.7472,-2.3557 -16.0242,-3.0144 -4.6833,-1.1417 -9.3547,-2.4268 -14.0948,-3.318 -17.847,-3.3554 -17.1317,3.7553 23.5489,-24.1628 3.5677,1.2302 10.8213,-0.5532 14.7299,0.1863 7.2481,0.034 14.4989,0.034 21.7415,0.3596 7.0152,0.444 13.9703,1.3964 20.9272,2.3851 6.9192,0.7204 14.0249,0.6361 20.6254,3.1347 13.6467,7.2187 3.9176,1.2133 -29.3524,23.8729 -0.2199,0.1498 -9.0713,-1.4691 -10.0563,-0.7834 -13.1452,2.3581 -30.4701,18.4798 26.6964,-17.5243 0.1371,-0.086 -2.2943,-0.079 -2.2961,0.6123 0,0.5527 0.5007,0.9855 0.751,1.4782 4.218,4.3697 6.9975,5.3049 13.1576,4.9256 9.6946,0.047 19.3911,0.087 29.0836,-0.1633 14.6514,-0.3404 29.3072,-0.8268 43.914,-2.0753 7.0926,-0.3428 14.7548,0.472 21.4832,-2.0453 -10.6441,6.3212 -21.422,12.4223 -31.9323,18.9636 -0.6461,0.4021 1.9652,0.2188 2.2286,-0.4952 0.7161,-1.9404 -2.3011,-4.4346 -3.0163,-5.7098 -4.248,-4.9256 -8.0095,-10.442 -14.2393,-13.0372 -5.4836,-1.7503 -10.7126,-0.6583 -15.8632,1.8084 10.1037,-5.8977 20.2323,-11.7531 30.3113,-17.6932 0.9771,-0.5759 -2.0355,1.0081 -3.0036,1.5992 -3.249,1.9838 -6.2109,4.6316 -8.7181,7.4703 -0.257,0.2382 -0.6745,0.3776 -0.7712,0.7144 -0.2892,1.0067 10.3819,-0.1067 11.1662,0.16 6.856,0.062 13.7129,0.1395 20.5689,0.051 7.7357,-0.2386 15.6235,-0.5215 22.9279,-3.3553 -9.8712,5.9466 -19.7338,11.9075 -29.6135,17.8398 -0.8178,0.4911 1.7218,-0.8738 2.4274,-1.5158 3.098,-2.8186 3.7445,-7.4169 3.6361,-11.3323 -1.1136,-6.0987 -1.9995,-7.8157 -8.565,-7.8932 -5.9436,0.025 -11.888,-0.027 -17.8307,0.111 -7.5409,0.2211 -15.074,0.7032 -22.5486,1.7679 -6.9536,0.991 -13.8715,2.1969 -20.8024,3.318 -6.0287,0.2075 -12.0637,-0.027 -18.0948,0.01 -6.929,-0.017 -13.863,-0.055 -20.7858,0.2864 -6.8898,0.4619 -13.7149,1.3265 -20.1023,4.1411 -7.1534,2.8702 -14.3702,5.5863 -21.4118,8.728 -4.8601,1.6592 -9.814,4.0239 -13.7424,-0.6893 -0.3215,-0.6508 -0.7797,-1.2504 -0.9644,-1.9523 -0.6817,-2.5893 -0.015,-0.7976 0.5858,-1.8167 0.2698,-0.4573 -4.493,1.3056 -3.7838,0.8579 -13.1105,6.1855 -4.1456,2.0568 26.457,-15.6844 1.3179,-0.764 -2.6197,1.5558 -3.9393,2.3168 -14.4156,8.3135 -29.0946,18.4397 -44.8921,24.8841 0,0 30.8495,-23.9669 30.8495,-23.9669 z" id="path22590" style="fill:#000000"/><path d="m 5875.3077,2203.2732 c -1.4756,8.2204 -3.2657,16.365 -4.3667,24.6519 -0.8356,6.5431 -0.9569,13.141 -1.014,19.7273 0.01,5.8977 -0.024,11.7953 -0.01,17.693 0.023,5.7026 0.042,11.4053 0.052,17.108 -0.2016,5.0218 -1.4399,9.9214 -3.228,14.5963 -1.7407,3.5858 -4.0543,6.8405 -6.184,10.2032 -19.9943,15.6233 -36.485,31.9797 -38.2708,9.6034 -0.2548,-4.7887 1.8434,-9.0749 3.4765,-13.4434 2.1788,-4.1436 3.2592,-8.5742 3.8346,-13.1828 0.471,-5.0354 0.2641,-10.0824 0.9762,-15.0953 2.7569,-15.9149 -32.1733,6.496 36.0314,-17.7394 0.2348,-0.083 0.6864,6.8872 0.6943,7.1111 0.1114,5.8815 0.081,11.7645 0.07,17.6467 -0.3669,6.6543 -1.9317,13.1513 -3.2719,19.6559 -0.9513,5.8736 -2.6665,11.5914 -4.3795,17.2798 -1.3412,5.4664 -2.9506,10.8713 -4.1696,16.3674 -4.3971,19.2076 -9.7787,17.1272 -37.1478,30.2693 -1.1246,0.54 -1.4373,-2.0395 -2.1559,-3.0592 -1.9643,-5.2298 -1.9607,-10.8961 -1.3509,-16.3745 0.5236,-6.0803 1.3444,-10.3392 5.3461,-15.0419 0.7199,-0.7771 1.4616,-1.5344 2.1597,-2.3311 1.399,-1.5966 2.5085,-2.9729 3.6056,-4.7884 0.4771,-0.7894 0.9067,-1.6088 1.2947,-2.4457 0.1747,-0.3769 0.1,-0.8855 0.3882,-1.1845 0.1567,-0.1624 0.073,0.4454 0.11,0.6681 0,0 33.7809,-20.05 33.7809,-20.05 l 0,0 c 0.4089,0.7184 1.0296,1.3524 1.2268,2.1552 0.9886,4.0255 -4.4037,10.1708 -6.6993,13.0025 -4.7236,4.4481 -5.8446,6.0159 -6.3318,12.8165 -0.6995,4.5271 -1.0085,9.0064 0.1914,13.504 -7.3972,-12.0753 -0.061,-1.0486 -33.2016,18.4561 -0.5038,0.2965 0.8346,-0.831 1.1536,-1.3209 1.4546,-2.2337 1.7252,-4.8478 2.6113,-7.3085 1.0514,-5.6533 2.8821,-11.0829 4.066,-16.7044 1.6696,-5.6343 3.4991,-11.2484 4.6208,-17.0086 1.2604,-6.2939 2.7365,-12.5294 3.4929,-18.914 0.035,-5.8265 0.1098,-11.6547 -0.028,-17.4803 -0.01,-0.19 -0.558,-6.1081 -0.4453,-6.1716 11.458,-6.4574 23.5833,-11.672 35.0927,-18.0373 0.37,-0.2046 -0.5183,-0.8632 -0.9409,-0.8505 -0.3683,0.011 -0.4294,0.5988 -0.6441,0.8982 -1.4638,4.8132 -0.9028,9.7679 -1.2516,14.7387 -0.3919,4.9088 -0.9944,9.8481 -3.273,14.2961 -1.9523,3.6472 -3.249,7.7343 -4.2918,11.7027 1.0738,17.0435 5.1676,0.056 -32.5776,23.3177 2.7091,-1.5408 4.8423,-6.4454 6.8521,-9.0738 2.5386,-3.9278 3.1356,-8.5104 4.0926,-13.0133 0.01,-5.7128 0.019,-11.4256 0.021,-17.1384 -0.01,-5.91 -0.089,-11.8198 -0.022,-17.7298 0.081,-6.7441 0.1667,-13.5089 0.9375,-20.2159 1.0676,-8.068 2.6318,-16.0474 4.2519,-24.0208 0,0 34.8261,-17.7448 34.8261,-17.7448 z" id="path22592" style="fill:#000000"/><path id="path22594" d="m 5828.9473,2370.7832 c -5.9037,9.2896 -5.2632,9.9217 -5.2632,18.4211 0,0.8772 0.6203,2.0113 0,2.6316 -0.6202,0.6202 -1.7543,0 -2.6315,0 -1.7544,0 -3.5088,0 -5.2632,0 -0.8772,0 -2.2393,0.7845 -2.6316,0 -0.7846,-1.5692 0,-3.5088 0,-5.2632 0,-6.1404 0,-12.2807 0,-18.4211 0,-0.6382 -0.085,-7.8101 0,-7.8947 0.6203,-0.6203 2.0113,0.6203 2.6316,0 0.6203,-0.6203 -0.3923,-1.847 0,-2.6316 1.1096,-2.2191 4.1536,-3.044 5.2632,-5.2631 0.3923,-0.7846 -0.6203,-2.0113 0,-2.6316 0.085,-0.085 7.2565,0 7.8947,0 0.8772,0 2.0113,-0.6203 2.6316,0 0.3084,0.3085 0.2603,6.3331 0,7.8947 -1.4707,8.824 -3.7925,17.4919 -5.2632,26.3158 -0.1442,0.8653 0.3923,1.847 0,2.6316 -5.476,10.952 0.1817,-2.8133 -5.2631,2.6316 -1.568,1.5679 2.6265,7.8947 -2.6316,7.8947 -0.8772,0 0,-1.7544 0,-2.6316 0,-6.9095 -1.9537,-23.6842 10.5263,-23.6842 5.1149,0 -5.6073,8.583 -7.8947,13.1579 -0.3923,0.7846 0.2774,1.7994 0,2.6316 -0.6203,1.8608 -2.0113,3.4023 -2.6316,5.2632 -0.6864,2.059 1.1015,5.2631 0,5.2631 -0.8772,0 0,-1.7544 0,-2.6316 0,-0.8772 0,-1.7544 0,-2.6315 0,-1.7544 0,-3.5088 0,-5.2632 0,-0.8772 -0.4866,-1.9017 0,-2.6316 3.1156,-4.6734 10.5263,-18.7747 10.5263,-13.1579 0,6.3255 -7.388,10.2974 -10.5263,15.7895 -0.8704,1.5232 0.7846,3.694 0,5.2632 -0.3573,0.7145 -4.9059,4.5486 -5.2632,5.2631 -1.7097,3.4194 4.2154,4.4713 -2.6316,7.8947 -1.1095,0.5548 -3.5087,-1.7543 -2.6315,-2.6315 0.8772,-0.8772 2.6315,3.8721 2.6315,2.6315 0,-2.7739 -2.0875,-5.1746 -2.6315,-7.8947 -0.5856,-2.9277 0,-9.7296 0,-13.1579 0,-1.7544 0,-3.5088 0,-5.2631 0,-0.8772 -0.6203,-2.0114 0,-2.6316 0.6202,-0.6203 2.0113,0.6202 2.6315,0 0.6203,-0.6203 -0.3922,-1.847 0,-2.6316 0.5548,-1.1096 2.0768,-1.522 2.6316,-2.6316 0.3923,-0.7846 -0.3923,-1.847 0,-2.6316 0.5548,-1.1095 2.0768,-1.522 2.6316,-2.6315 0.3923,-0.7846 0,-1.7544 0,-2.6316 0,-0.8772 0,-1.7544 0,-2.6316 0,-0.8772 -0.6203,-2.0113 0,-2.6316 0.6203,-0.6202 2.6316,-0.8772 2.6316,0 0,1.7544 -3.694,-0.7846 -5.2632,0 -3.6592,1.8296 -5.2631,6.811 -5.2631,10.5263 0,0.8772 0,1.7544 0,2.6316 0,0.8772 0.3923,1.847 0,2.6316 -0.5548,1.1096 -2.0768,1.522 -2.6316,2.6316 -0.3923,0.7846 0,1.7544 0,2.6316 0,1.7543 0,3.5087 0,5.2631 0,7.0176 0,14.0351 0,21.0526" style="fill:none;stroke:#000000;stroke-width:1px;stroke-linecap:butt;stroke-linejoin:miter;stroke-opacity:1"/><path d="m 5893.7288,2148.01 c -0.2745,7.3339 -0.1953,14.6749 -0.1529,22.012 0.1189,6.4309 0.1927,12.8299 -0.5958,19.2204 -1.0854,5.5833 -0.7974,11.4 -2.6705,16.7932 -11.5552,18.6274 -28.0428,20.9049 -45.254,23.8794 -2.1386,-2.6083 -1.3372,-1.1588 -2.4093,-4.3457 0,0 35.1417,-17.5971 35.1417,-17.5971 l 0,0 c -1.1725,-0.9054 -0.7556,-0.3597 -1.3263,-1.5765 1.7985,-0.2064 3.5915,-0.4777 5.3016,-1.1107 0.737,-0.2729 2.8082,-1.4059 2.1345,-1.0012 -29.5108,17.7269 -42.251,23.7298 -29.2564,17.5344 0.497,-0.4511 1.1515,-0.7743 1.4911,-1.3532 1.9019,-3.2423 0.5745,-10.3771 2.0202,-14.0736 0.954,-6.2449 1.0051,-12.463 0.9029,-18.7804 0.042,-7.2852 0.1247,-14.5744 -0.1529,-21.8562 0,0 34.8261,-17.7448 34.8261,-17.7448 z" id="path22596" style="fill:#000000"/><path d="m 5866.3257,2176.4282 c -7.9385,-1.0993 -12.5404,-3.148 -16.9591,-9.9315 -2.8862,-5.4747 -3.3734,-11.6049 -3.626,-17.6696 -0.062,-6.07 -0.1678,-12.1565 0.3135,-18.2101 1.5254,-7.8241 3.7659,-15.5758 6.6775,-22.999 2.6002,-5.8914 4.8124,-11.9552 8.0031,-17.5612 3.3829,-5.5104 6.4426,-11.3098 8.4965,-17.4553 1.3864,-4.52 -1.3092,-8.296 -2.6642,-12.5013 -2.0466,-5.8397 -1.4938,-11.3826 0.4612,-17.1173 2.4655,-4.6068 3.8051,-9.5484 4.482,-14.6995 1.4348,-14.9388 -25.6551,5.7387 35.356,-17.7918 0.693,-0.2672 0.022,1.4854 0.02,2.2281 0,0.9926 -0.076,5.7122 -0.087,6.4528 -0.057,6.8717 -0.023,13.7437 0,20.6156 -0.019,6.1293 -0.023,12.2585 -0.01,18.3879 0.041,5.8919 -0.014,11.7835 -0.012,17.6754 0.057,6.3327 0,12.6637 -0.073,18.9957 -0.029,7.0964 0.038,14.1927 0.076,21.2889 0.3696,6.2571 -0.6333,12.4246 -1.4633,18.5985 -0.4656,5.6622 -1.1445,11.2526 -2.1774,16.8387 -0.9172,4.2461 -0.4306,2.1453 -1.4569,6.3027 0,0 -35.0143,16.7697 -35.0143,16.7697 l 0,0 c 1.0311,-4.0437 0.5095,-2.0419 1.564,-6.0056 0.8282,-5.5796 2.0633,-11.052 2.2292,-16.7219 0.7929,-6.0375 2.1057,-12.023 1.707,-18.1466 0.038,-7.1221 0.105,-14.2442 0.076,-21.3664 -0.076,-6.3073 -0.1293,-12.6136 -0.073,-18.9215 0,-5.888 -0.054,-11.7757 -0.012,-17.6636 0.018,-6.134 0.016,-12.2678 0.018,-18.4017 0.045,-6.8829 0.1275,-13.766 0.092,-20.6492 -0.034,-2.0986 -0.4406,-8.1246 -0.2,-8.2665 11.4374,-6.7518 23.4529,-12.4726 35.1793,-18.7089 -0.8221,0.06 -0.3579,-0.098 -0.7038,1.2912 -0.8933,5.3266 -1.375,10.8996 -4.1155,15.6778 -2.648,4.6598 -3.4255,9.4349 -1.7327,14.6028 1.517,4.8431 4.7803,9.2359 3.6827,14.5249 -1.5489,6.5171 -4.9228,12.5629 -8.1278,18.3976 -3.364,5.4723 -5.9141,11.2627 -8.3915,17.1937 -3.2893,6.9802 -4.9812,14.4699 -7.0756,21.8737 -0.7216,5.8709 -0.3415,11.7953 -0.4312,17.7014 0.1047,5.3641 0.1889,10.883 2.552,15.8211 3.7382,5.6462 9.0042,6.4043 15.413,7.1044 0,0 -31.9921,22.4459 -31.9921,22.4459 z" id="path22598" style="fill:#000000"/><path d="m 6654.7268,1733.5593 c 7.3699,-0.088 14.6612,-1.58 21.9854,-2.3891 5.7816,-0.9181 11.1334,-3.1344 16.7776,-4.5182 6.1016,-0.8249 12.0554,-2.3692 18.1518,-3.2739 0.9832,-0.1106 1.9949,-0.072 2.9496,-0.3318 1.8659,-0.508 3.5143,-1.62 5.3128,-2.3309 2.8267,-1.1173 5.5572,-1.8185 8.5426,-2.3514 5.9819,-0.9409 12.044,-1.0784 18.0862,-1.1562 5.7692,-0.1889 11.3481,1.7113 16.5453,4.0546 6.1894,2.519 11.8134,6.1884 17.7009,9.3225 5.9026,3.9305 12.4725,6.7193 18.2586,10.8052 5.5468,3.9513 10.4152,8.3405 14.401,13.8731 4.1719,5.2337 8.271,10.5141 12.3752,15.8017 4.7454,4.9769 8.3187,10.9285 12.6288,16.2732 3.8308,4.0229 6.7879,9.0235 11.3955,12.2269 4.9721,3.1963 9.6005,6.5656 13.1781,11.3132 8.4891,16.1992 -9.3229,13.6666 -32.9037,25.0785 -0.6992,0.3384 -1.1229,-1.0757 -1.7231,-1.5688 -0.5126,-0.4212 -1.0734,-0.7799 -1.6101,-1.1698 -3.1216,-2.6867 -5.14,-6.1404 -6.9068,-9.7912 0,0 33.8323,-19.1766 33.8323,-19.1766 l 0,0 c 1.4456,3.0982 3.0975,5.9857 6.0094,7.9516 0.5461,0.3564 1.0528,0.7818 1.6382,1.0691 0.2848,0.1397 1.2012,0.024 0.932,0.1921 -10.8476,6.7579 -22.028,12.9712 -32.8849,19.7142 -0.2219,0.1378 0.532,0.402 0.7431,0.2482 0.737,-0.5368 -0.5731,-2.6775 -0.5577,-2.6779 -3.4359,-4.4704 -8.203,-7.184 -12.7534,-10.3984 -4.4737,-3.8304 -7.7799,-8.7543 -11.6513,-13.1603 -4.2071,-5.4405 -8.0782,-11.1638 -12.7031,-16.2652 -4.1246,-5.3121 -8.2462,-10.6195 -12.3524,-15.9438 -3.7992,-5.1042 -8.6942,-8.9848 -13.8492,-12.6741 -5.7559,-3.8247 -11.9661,-6.9474 -17.8752,-10.526 -5.83,-3.0745 -11.4553,-6.5848 -17.6526,-8.9057 -5.0503,-1.8702 -10.1946,-3.1915 -15.6381,-2.7407 -5.8859,0.1583 -11.8092,0.4076 -17.5622,1.7741 -5.661,1.6315 -11.0169,4.3285 -16.9638,4.8146 -6.0055,1.0769 -12.0045,2.2673 -17.9487,3.6273 -5.5897,1.683 -11.1935,3.3275 -17.0271,3.9629 -7.5865,0.8902 -15.2126,2.3848 -22.8732,1.6929 0,0 31.9922,-22.4459 31.9922,-22.4459 z" id="path22600" style="fill:#000000"/><path d="m 6632.6865,1754.4488 c -7.7862,1.6736 -15.647,2.9604 -23.2561,5.3484 -14.3995,5.8782 -44.409,24.3533 14.4799,-9.5244 -11.9756,6.8984 -23.9511,13.7967 -35.9267,20.6951 -1.0372,0.3565 -2.0985,0.6498 -3.1118,1.0696 -1.8333,0.7595 -3.6586,1.55 -5.4161,2.4715 -0.7646,0.4009 -2.9149,1.8492 -2.1646,1.422 10.3144,-5.8733 20.5744,-11.8418 30.8616,-17.7627 -3.719,2.4787 -7.5675,5.1269 -10.1213,8.8725 3.5271,0.019 7.0696,-0.5314 10.4885,-1.6115 6.0488,-1.8384 12.2943,-2.6488 18.4403,-4.0968 12.8771,-8.3891 -1.9815,1.3629 -28.6428,16.0262 -0.7462,0.4105 1.3614,-1.0292 1.9819,-1.6126 2.2928,-2.1556 3.2303,-4.4831 4.2833,-7.3836 0.7452,-3.5498 3.4403,-7.8878 4.0461,-10.7855 -0.1735,0.3952 -0.1564,0.9537 -0.5204,1.1855 -0.5882,0.3747 -1.3792,0.2363 -2.0437,0.4477 -2.3476,0.7467 -4.6853,1.5375 -6.9662,2.4684 -1.4172,0.5784 -2.7606,1.3235 -4.1409,1.9852 -1.64,0.623 -3.28,1.2461 -4.9199,1.8691 -5.9466,2.8919 -11.7054,6.3363 -18.0069,8.4437 -12.7185,4.2535 3.8808,-1.85 -7.4253,2.3859 -14.3477,8.4627 12.5793,-7.4382 28.4917,-16.1596 0.873,-0.4785 -1.5772,1.2216 -2.2943,1.9122 -2.1738,2.0938 -3.6496,4.6086 -5.1887,7.1686 -2.4676,5.327 -6.902,8.6025 -11.5017,11.9387 -4.7711,3.514 -9.6721,6.5197 -13.9168,10.7017 -4.2822,4.5308 -8.3915,9.219 -12.3908,13.9996 -1.6295,2.0777 -3.2759,4.1441 -4.8848,6.2376 -0.49,0.6374 -1.2379,2.423 -1.6671,1.7431 -0.6265,-0.9923 -0.9075,-2.1646 -1.3612,-3.2469 4.2466,-3.1027 9.2178,-5.2364 13.8802,-7.7236 -104.1233,59.5707 85.2259,-48.5785 -18.3775,10.9684 3.8746,-2.1109 7.0348,-5.2233 10.4159,-8.0088 0,0 36.1899,-14.3604 36.1899,-14.3604 l 0,0 c -3.7345,2.4538 -6.7347,5.6856 -10.2516,8.3929 -11.8563,6.8283 -23.7048,13.6701 -35.5688,20.485 -2.3594,1.3552 -4.8383,2.4643 -7.2263,3.7659 15.7357,-9.1893 72.2338,-41.6706 -5.4806,3.0595 -4.9181,2.4606 -9.8373,6.1343 -15.3937,6.6184 -0.7845,-1.0766 -1.7963,-2.0198 -2.3534,-3.2298 -0.9054,-1.9662 5.4226,-7.4356 6.2878,-9.5148 4.0783,-4.8176 8.0461,-9.7048 12.4734,-14.2069 3.9967,-4.8497 8.0104,-8.2274 13.5242,-11.1867 4.0454,-3.5716 9.6664,-5.6029 12.0241,-10.7472 4.7581,-7.2807 -1.8041,2.9437 3.053,-5.2931 8.6417,-14.6544 26.7789,-20.7684 42.065,-27.1248 8.6841,-2.8464 16.8399,-6.7747 25.0651,-10.7371 4.3755,-1.8076 15.0692,-7.2527 19.8921,-5.6396 0.9112,0.3047 1.6034,1.0592 2.4051,1.5888 3.1635,5.5338 -1.1579,8.6453 -2.8332,14.0052 -0.7707,3.026 -1.4845,6.6904 -3.311,9.3108 -0.5059,0.7258 -1.1766,1.3589 -1.9313,1.8204 -34.1041,20.8564 -22.4968,16.9556 -38.3631,21.9523 -6.1623,1.3754 -12.4106,2.3345 -18.4791,4.124 -5.3631,0.8123 -11.4227,1.4564 -14.4417,-4.0292 -0.1315,-0.7246 -0.441,-1.4389 -0.3946,-2.174 0.3057,-4.8392 6.2478,-7.4949 9.1142,-10.588 11.9068,-6.904 23.7762,-13.873 35.7205,-20.7119 2.4328,-1.3929 5.2104,-2.2898 7.746,-3.4721 0.9658,-0.4503 3.7799,-1.9664 2.8612,-1.4263 -10.1287,5.9545 -20.3316,11.7821 -30.4974,17.6732 16.7337,-9.6971 33.602,-21.7587 52.3392,-28.0184 7.8119,-2.0029 15.8071,-3.2776 23.4907,-5.7476 0,0 -30.8495,23.9668 -30.8495,23.9668 z" id="path22602" style="fill:#000000"/><path d="m 6597.8534,1770.1988 c -8.6159,5.0321 -16.5011,10.9092 -23.1549,18.3563 0,0 -35.4221,15.0257 -35.4221,15.0257 l 0,0 c 6.1968,-7.7681 13.5853,-14.2357 22.2506,-19.1685 0,0 36.3264,-14.2135 36.3264,-14.2135 z" id="path22604" style="fill:#000000"/><path d="m 5868.2076,2196.3745 c 5.4754,5.9427 9.1773,12.9632 12.5711,20.2036 5.6692,14.2343 3.3017,4.2983 -33.8918,19.4615 -0.7984,0.3255 -0.1584,-1.7173 -0.2237,-2.5771 -0.1706,-2.2451 -0.2477,-3.8771 -0.3715,-6.1372 -0.4967,-5.8138 -0.036,-11.6917 -0.6862,-17.487 -0.1634,-0.2272 -0.3269,-0.4543 -0.4903,-0.6815 0,0 33.9427,-19.5156 33.9427,-19.5156 l 0,0 c 0.3413,0.6845 0.6826,1.3689 1.0239,2.0534 0.8812,5.8818 0.2127,11.8809 0.7108,17.8064 0.1215,2.0998 0.7489,8.1438 0.6873,8.1838 -54.574,35.4561 -31.8918,32.121 -34.5943,17.9352 -2.7601,-7.0349 -6.265,-13.6968 -11.9455,-18.8592 0,0 33.2675,-20.3863 33.2675,-20.3863 z" id="path22606" style="fill:#000000"/></g></g></g></svg>