<?xml version="1.0" encoding="UTF-8" standalone="no"?>
<svg xmlns:dc="http://purl.org/dc/elements/1.1/" xmlns:cc="http://creativecommons.org/ns#" xmlns:rdf="http://www.w3.org/1999/02/22-rdf-syntax-ns#" xmlns:svg="http://www.w3.org/2000/svg" xmlns="http://www.w3.org/2000/svg" xmlns:sodipodi="http://sodipodi.sourceforge.net/DTD/sodipodi-0.dtd" xmlns:inkscape="http://www.inkscape.org/namespaces/inkscape" id="svg3741" version="1.1" viewBox="0 0 500 440"><defs id="defs3743"><linearGradient id="linearGradient4573-9-549"><stop id="stop33336" offset="0" style="stop-color:#ffffff;stop-opacity:1;"/><stop id="stop33338" offset="1" style="stop-color:#ffffff;stop-opacity:0;"/></linearGradient></defs><metadata id="metadata3746"><rdf:RDF><cc:Work rdf:about=""><dc:format>image/svg+xml</dc:format><dc:type rdf:resource="http://purl.org/dc/dcmitype/StillImage"/><dc:title/></cc:Work></rdf:RDF></metadata><g id="layer1" transform="translate(-43.717835,-258.03861)"><g id="g65042" transform="translate(-3057.8858,-2002.8814)"><g transform="translate(-2500.4129,90.837809)" id="g57119"><g id="g57121" transform="translate(1516.1557,641.5286)"><g id="g57123" transform="matrix(0.99999834,0,0,1.0009179,6088.251,1699.3665)"><path style="fill:#ffffff;fill-opacity:1;fill-rule:nonzero;stroke:#000000;stroke-width:1.79633701;stroke-linecap:round;stroke-linejoin:round;stroke-miterlimit:2;stroke-opacity:1;stroke-dasharray:none;stroke-dashoffset:0" d="m -1729.657,-157.23924 c -4.4566,-7.70081 -13.1754,-12.51819 -22.7409,-12.51819 -9.7394,0 -18.4615,5.08085 -23.0023,12.928 l -222.2004,384.02127 c -4.7688,8.24191 -5.4749,18.62338 -0.3734,27.4394 4.8697,8.41541 13.6405,13.41233 22.7223,13.41233 l 445.7076,0 c 9.0817,0 17.8525,-4.99698 22.7222,-13.41233 5.1016,-8.81596 4.3958,-19.19774 -0.3734,-27.4394 l -222.4617,-384.43108 z" id="path57125"/><path id="path57127" d="m -1752.3918,-161.75994 c 6.5396,0 12.22,3.32868 14.949,8.05523 l 222.4555,385.3022 c 3.3263,5.76134 3.7682,12.63048 0.3746,18.50829 -3.3028,5.72052 -9.1544,8.93566 -14.9303,8.93572 l -445.7164,0 c -5.7759,0 -11.6274,-3.21508 -14.9302,-8.93572 -3.3936,-5.87781 -2.9517,-12.74635 0.3747,-18.50829 l 222.1931,-384.89007 c 2.8883,-5.0026 8.6251,-8.46736 15.23,-8.46736 z" style="fill:#d40000;fill-opacity:1;fill-rule:nonzero;stroke:none"/><path id="path57129" d="m -1752.4105,-83.717877 170.2088,294.802657 -340.3989,0 170.1901,-294.802657 z" style="fill:#ffffff;fill-opacity:1;fill-rule:nonzero;stroke:none"/></g></g></g><g style="stroke:#000000;stroke-width:12.6739769;stroke-miterlimit:4;stroke-opacity:1;stroke-dasharray:none" transform="matrix(0.27650391,0,0,0.27650391,3252.366,2450.266)" id="g3814"><path d="m 448.99815,51.229421 c -1.88931,-8.276874 -10.1362,-8.924642 -18.60713,-9.303565 -13.58382,0.193967 -15.00015,-8.035716 -20.62964,-13.348594 -4.8798,-13.001646 -15.33706,-9.270881 -24.67468,-8.899062 -4.48857,0.800145 -7.08843,-1.232772 -8.89906,-4.449532 -17.41865,-11.5172343 -26.38658,-4.020345 -36.00075,2.022515 -4.90937,8.399793 -12.81723,10.202901 -21.03415,11.326079 -14.72638,-0.67503 -25.64884,4.567159 -28.3152,22.652159 1.50766,8.371153 -5.28449,12.869056 -13.7531,16.584616 -12.74739,1.819023 -19.11023,10.405097 -18.20262,26.697188 1.90713,8.524935 -0.97806,14.311405 -3.64053,20.225145 -2.65852,9.6504 -3.24905,18.61147 6.06754,24.27017 3.60603,3.0296 8.64004,3.44123 8.49456,13.34859 -4.86554,10.7663 6.03347,17.4201 16.18012,24.27017 l 0.4045,22.24766 c -1.13633,8.4755 -4.13488,14.15766 -9.30357,16.58461 l -14.9666,7.28105 -23.86567,-41.25928 c -2.54971,-7.82443 -10.07109,-13.99165 -18.60713,-19.82064 l -23.05666,-14.56211 c -5.37169,-4.94682 -11.08952,-6.25923 -17.79813,2.83152 -7.25149,10.63436 -15.56633,21.0915 -19.01163,32.36023 -10.35612,30.52549 -30.59671,49.51911 -48.54034,71.1925 -6.09642,8.12507 -6.64709,14.23351 2.02251,16.98912 6.17383,1.44036 8.42857,2.16922 15.94019,5.61627 5.27009,-0.89422 11.29634,2.13721 14.80203,-0.76224 3.18689,-2.38731 9.17641,-1.27133 14.96661,-0.4045 3.74098,0.89495 7.17748,-1.48181 12.24075,-3.89258 5.20756,-4.35498 10.07088,-0.10328 14.05193,1.06106 1.2241,10.78674 10.35758,21.57349 15.77561,32.36023 9.8969,13.39858 26.73968,15.8822 40.85479,22.65216 4.76772,22.24766 12.58862,44.49531 5.25853,66.74297 -3.9393,12.90238 -4.12427,25.38761 -2.02251,37.61876 -40.71987,31.16199 -45.24184,52.90431 -25.84141,93.38732 l 75.03831,77.82305 c 4.04503,3.69537 7.838,8.79315 11.88303,9.1979 6.33721,6.97957 12.67442,6.31674 19.01163,6.87654 6.60709,2.96677 12.21879,3.94278 14.1576,-2.42701 l 31.55122,-35.59625 c 6.68164,-5.34417 11.3695,-10.97316 13.3486,-16.98912 12.84812,-16.67157 19.33886,-37.69293 19.41613,-63.10245 7.06181,-8.54888 12.94094,-17.22918 8.09006,-27.10169 -1.65986,-12.0328 2.99667,-24.96793 5.66304,-37.61876 8.14172,-29.67312 12.1708,-60.03168 8.2425,-91.71647 10.62668,6.33966 27.70307,11.83407 43.53386,9.45602 l 29.67509,8.69377 c 34.09533,20.65574 64.01308,17.29039 95.72079,24.21733 18.90548,-9.56534 18.90948,-35.3147 17.78487,-46.4351 -2.56121,0.15947 -7.07504,2.12951 -7.79013,8.20683 -15.96805,-1.88346 -28.24455,-12.62664 -42.75947,-17.99762 -14.1576,-10.11923 -28.3152,-14.54424 -42.4728,-20.22514 -31.11699,-2.44075 -46.18097,-22.00471 -68.36098,-33.97824 5.95619,-3.7284 9.23608,-12.05324 13.24899,-19.6682 3.19431,-15.56874 2.12798,-30.28535 -4.75443,-43.83875 -19.10591,8.44205 -37.66207,17.26893 -50.15835,30.33772 l -10.92157,-7.28105 c 17.9169,-20.18145 34.75206,-34.71614 28.11597,-68.92399 4.80801,-5.7752 10.57713,-8.98743 13.54782,-19.66214 4.74076,-13.22552 7.85693,-25.56489 5.25854,-34.78724 l -0.80901,-19.416137 c 9.12266,-0.02134 10.36447,-15.025927 5.53362,-20.183879 -5.80469,-6.197718 -2.42825,-13.325635 -1.08409,-21.479913 z" id="path3812" style="fill:#ffffff;stroke:#000000;stroke-width:12.6739769;stroke-miterlimit:4;stroke-opacity:1;stroke-dasharray:none"/><g transform="matrix(0.873057,0,0,0.865984,-3.438672,-8.163894)" id="g3358" style="fill:none;stroke:#000000;stroke-width:14.57594299;stroke-miterlimit:4;stroke-opacity:1;stroke-dasharray:none"><g id="g3271" style="fill:none;stroke:#000000;stroke-width:14.57594299;stroke-miterlimit:4;stroke-opacity:1;stroke-dasharray:none"><g id="g3212" style="fill:none;stroke:#000000;stroke-width:14.57594299;stroke-miterlimit:4;stroke-opacity:1;stroke-dasharray:none"><path d="m 365.00961,177.96458 c 0.80562,-3.34855 -3.00893,-25.25866 19.32946,-20.73414 5.26692,1.31673 18.95386,9.34869 22.36228,-4.28496 2.93711,-4.11595 6.2818,-9.20913 8.86751,-11.79484 3.82954,-3.82953 9.31038,-6.0578 -4.28496,-17.18837 -0.72208,-2.88834 7.367,-12.62647 8.44349,-13.70296 5.46132,-5.46132 7.73208,-0.20692 11.03235,1.44322 11.51667,7.24243 20.19102,-6.91792 29.78658,0 3.68528,1.84264 10.02689,9.93101 22.91275,11.45637 7.02089,2.07324 10.25563,-6.23777 29.48899,-5.38972 8.01737,0 12.73528,-11.27542 8.31705,-20.959943 -2.62836,-5.256724 -8.21792,-10.256109 -2.29128,-26.349665 1.07827,-2.15654 -5.60544,-13.428647 -17.90617,-12.263555 -4.00366,-1.000915 -16.44161,0.894568 -24.48242,-11.794834 -6.26375,-12.103483 -9.61326,-17.987925 -35.47007,-14.595707 -3.29234,0 -4.52281,-4.827913 -6.91852,-6.02577 -6.74859,-4.858392 -24.99416,-15.071597 -47.26873,10.396308 -1.89042,3.780843 -15.10034,5.047452 -19.55759,5.047452 -20.54745,2.968192 -25.62782,8.018411 -29.83127,24.608862 0.23032,17.311889 -6.45448,16.447508 -24.77999,24.103083 -4.19043,1.750572 -14.0441,14.853159 -12.60202,20.621479 1.24894,4.99573 3.0224,22.05608 -3.43691,30.93221 -2.49327,12.09323 -9.31097,20.96081 12.60201,33.22349 3.87816,0.96954 1.44322,13.86263 1.44322,17.52303 0,5.95162 7.93017,14.52324 13.32363,15.8716 6.53603,1.63401 12.64638,10.12914 9.0794,1.0498 -2.24477,-2.24477 -9.33598,-21.15967 -8.95296,-31.00751 0.39657,-13.27071 25.23958,-35.29591 40.79417,-0.18493 z" id="path1351-9" style="fill:none;stroke:#000000;stroke-width:14.57594299;stroke-linecap:round;stroke-linejoin:round;stroke-miterlimit:4;stroke-opacity:1;stroke-dasharray:none"/><path d="m 427.32283,56.711921 c -4.39913,6.489467 -0.1867,8.791715 2.29127,13.747651 2.28619,4.57238 9.3647,5.481522 12.83429,4.614123 3.51346,-0.878364 8.70103,-6.673602 11.2241,-9.196673 2.92081,-2.920814 -5.02654,-6.616168 -6.87383,-10.310739 -1.86996,-3.73993 -4.12855,-3.037004 -5.72818,-3.436912" id="path2226" style="fill:none;stroke:#000000;stroke-width:14.57594299;stroke-linecap:round;stroke-linejoin:miter;stroke-miterlimit:4;stroke-opacity:1;stroke-dasharray:none"/><path d="m 436.48793,93.372324 c 1.69451,6.641006 10.2464,7.369966 16.03892,4.582551 6.95599,-3.34729 3.74207,-7.409154 2.29128,-10.310739 -0.34104,-0.682069 -2.6867,-5.507683 -2.74006,-5.543262" id="path2228" style="fill:none;stroke:#000000;stroke-width:14.57594299;stroke-linecap:round;stroke-linejoin:miter;stroke-miterlimit:4;stroke-opacity:1;stroke-dasharray:none"/><path d="m 457.1094,78.479035 c -1.94721,-3.894419 1.31095,8.948603 5.66504,8.948603 0.66753,0 11.2101,-10.095134 12.63359,-10.806881 5.0628,-2.531399 10.29143,0.653698 11.87111,5.295191 3.47336,10.205657 -5.86576,9.377115 -9.37712,9.377115" id="path2230" style="fill:none;stroke:#000000;stroke-width:14.57594299;stroke-linecap:round;stroke-linejoin:miter;stroke-miterlimit:4;stroke-opacity:1;stroke-dasharray:none"/><path d="m 408.69504,86.584068 c -7.71387,0 -7.62512,-0.479913 -13.32362,5.218592 -3.88485,3.884842 -0.92172,10.28985 -0.12645,11.8804" id="path2232" style="fill:none;stroke:#000000;stroke-width:14.57594299;stroke-linecap:round;stroke-linejoin:miter;stroke-miterlimit:4;stroke-opacity:1;stroke-dasharray:none"/><path d="m 390.74799,84.545682 c -0.19248,6.340876 -0.49804,8.322407 1.06007,14.55483 1.29132,5.165258 2.06503,4.384778 -0.80718,7.256978" id="path2234" style="fill:none;stroke:#000000;stroke-width:14.57594299;stroke-linecap:round;stroke-linejoin:miter;stroke-miterlimit:4;stroke-opacity:1;stroke-dasharray:none"/><path d="m 382.3045,98.71736 c 1.87805,7.51222 3.27874,12.00352 1.78168,17.99175 -1.13132,4.5253 -3.20686,5.04033 -6.02577,6.44979" id="path2236" style="fill:none;stroke:#000000;stroke-width:14.57594299;stroke-linecap:round;stroke-linejoin:miter;stroke-miterlimit:4;stroke-opacity:1;stroke-dasharray:none"/><path d="m 376.74364,99.948567 c 10.6105,12.257503 -0.14133,26.297523 -8.99397,23.210333 -4.32109,-1.5069 -9.85356,-5.11137 -12.60201,-5.72819 -6.15483,-1.3813 -32.36438,2.30959 -18.71336,24.09927" id="path2238" style="fill:none;stroke:#000000;stroke-width:14.57594299;stroke-linecap:round;stroke-linejoin:miter;stroke-miterlimit:4;stroke-opacity:1;stroke-dasharray:none"/><path d="m 325.36108,138.05219 c -0.9774,4.887 -9.1651,2.45726 -9.1651,12.60201 0,7.89014 0.2084,9.71272 5.81243,10.7825 3.81518,0.72829 8.21568,-7.81734 -0.25271,-7.31192 -9.59394,0.57258 2.06209,4.54889 2.45974,4.54889" id="path2240" style="fill:none;stroke:#000000;stroke-width:14.57594299;stroke-linecap:round;stroke-linejoin:miter;stroke-miterlimit:4;stroke-opacity:1;stroke-dasharray:none"/><path d="m 361.29987,219.47803 c 1.00079,10.8127 0.36396,12.69527 -3.86094,14.80772 -4.07076,2.03538 -8.28667,-2.45149 -11.45637,-4.58255 -5.84439,-3.9293 -21.71149,-32.36049 -21.39935,-52.26959 -0.25537,-5.52846 6.03827,-16.5822 18.48756,-17.84581 11.92829,-1.21073 18.42701,10.35172 20.18192,13.97916 1.87325,3.87203 1.72687,6.49789 1.06007,9.1651" id="path2242" style="fill:none;stroke:#000000;stroke-width:14.57594299;stroke-linecap:round;stroke-linejoin:miter;stroke-miterlimit:4;stroke-opacity:1;stroke-dasharray:none"/><path d="m 336.22229,179.20958 c 2.64461,-4.47453 7.20743,-12.02501 10.9059,-7.9339 3.14963,3.484 6.18755,4.87545 11.45638,6.87383 3.61884,1.37256 4.36643,6.57467 3.43691,10.29274 -3.02935,-1.15342 -12.20439,1.01307 -12.60201,8.03746 -0.0781,1.38068 -0.88777,3.28083 -4.26642,-1.43497 -1.06952,-1.96184 1.60094,-7.06376 4.26642,-7.73013 5.72634,-1.43158 10.31123,1.90326 10.31123,-5.7277" id="path2244" style="fill:none;stroke:#000000;stroke-width:14.57594299;stroke-linecap:round;stroke-linejoin:miter;stroke-miterlimit:4;stroke-opacity:1;stroke-dasharray:none"/><path d="m 359.46765,198.84278 c -0.55499,2.71514 -3.77474,5.65397 -3.92615,5.91895" id="path2246" style="fill:none;stroke:#000000;stroke-width:14.57594299;stroke-linecap:round;stroke-linejoin:miter;stroke-miterlimit:4;stroke-opacity:1;stroke-dasharray:none"/><path d="m 319.91051,153.86133 c 0.5957,0.73676 1.32158,1.35504 2.02412,1.98883 0.78188,0.65827 1.61735,1.24086 2.45177,1.82838 0.59533,0.35829 1.21548,0.67502 1.85138,0.96005 l -1.95765,1.27848 c -0.63753,-0.30014 -1.28001,-0.6074 -1.86044,-1.00707 -0.8371,-0.58829 -1.67713,-1.16852 -2.45247,-1.83959 -0.64088,-0.57954 -1.40134,-1.31558 -1.96813,-1.82036 l 1.91142,-1.38872 z" id="path2274" style="fill:none;stroke:#000000;stroke-width:14.57594299;stroke-linecap:butt;stroke-linejoin:miter;stroke-miterlimit:4;stroke-opacity:1;stroke-dasharray:none"/><path d="m 322.767,153.35031 c 0.54225,1.16212 1.51857,2.05049 2.43063,2.93302 0.57911,0.50787 1.20549,0.95095 1.83786,1.38296 l -1.95122,1.26743 c -0.63252,-0.4569 -1.25792,-0.92249 -1.83772,-1.44799 -0.95314,-0.93888 -4.10242,-0.79386 -4.75134,-1.97948 l 4.27179,-2.15594 z" id="path2276" style="fill:none;stroke:#000000;stroke-width:14.57594299;stroke-linecap:butt;stroke-linejoin:miter;stroke-miterlimit:4;stroke-opacity:1;stroke-dasharray:none"/><path d="m 359.59829,189.66466 c -1.94896,0.76776 -10.75202,3.42889 -10.90091,4.43733 l -1.94244,2.49417 c -0.53914,-0.91926 -1.47839,-1.93121 -0.45397,-3.88616 1.14872,-3.8103 7.65089,-3.9593 10.29612,-4.01746 2.57251,-1.53144 4.1741,-3.50187 3.58833,-4.30002 0,0 1.02313,4.36426 -0.58713,5.27214 z" id="path2278" style="fill:none;stroke:#000000;stroke-width:14.57594299;stroke-linecap:butt;stroke-linejoin:miter;stroke-miterlimit:4;stroke-opacity:1;stroke-dasharray:none"/><path d="m 514.04623,118.55155 c -0.19676,6.39612 10e-6,20.34753 1.16143,24.15761 0.99195,18.40015 -9.0848,39.5398 -10.6851,44.3664 -0.31353,0.94561 -3.89337,8.9538 -15.2958,13.00795 -1.68827,0.60026 -15.06264,9.3684 -5.14526,26.71275 3.59651,5.89615 3.11687,10.99327 1.85827,13.47251 -0.29418,1.17672 -3.94015,6.45242 -13.47251,1.85828 -4.88361,-0.52686 -9.99653,-0.0166 -10.45282,-4.18113" id="path2284" style="fill:none;stroke:#000000;stroke-width:14.57594299;stroke-linecap:round;stroke-linejoin:miter;stroke-miterlimit:4;stroke-opacity:1;stroke-dasharray:none"/><path d="m 493.60518,199.85122 c 0.18554,1.01202 -0.67044,2.98476 -0.69686,4.41341 -0.14378,7.77595 1.88311,18.92584 -0.23228,29.73246 -3.7971,19.39779 -20.07568,32.08333 -20.90564,33.21672 -9.602,13.11239 -21.01733,24.11111 -27.17731,28.10646 -8.2417,5.34555 -24.48291,5.62977 -32.98444,2.55513 -14.46479,-5.23128 -26.51333,-22.70401 -29.91661,-24.90805 -0.84501,-0.54725 -3.2673,-3.57023 -5.68826,-4.57287" id="path2286" style="fill:none;stroke:#000000;stroke-width:14.57594299;stroke-linecap:round;stroke-linejoin:miter;stroke-miterlimit:4;stroke-opacity:1;stroke-dasharray:none"/><path d="m 464.80186,269.07209 c -0.80197,0.20049 -1.44994,0.23228 -2.32284,0.23228 -2.3099,0 -1.21875,2.33718 -1.16143,2.32285 1.06604,-0.26651 2.72028,-0.56258 3.25199,-1.62599 0.64668,-1.29336 2.91368,-1.18167 3.25199,-1.85828 0.39175,-0.78351 0.68098,-2.08263 -1.16143,-1.16143 -1.29443,0.64722 -1.56428,0.92914 -3.25199,0.92914 -1.43624,0 -2.73004,0.4531 -3.94884,0.69686 -1.01694,0.20339 -2.39449,0.6252 -1.16142,1.85828 0.92409,0.92409 1.32353,1.7881 2.32285,2.78741 1.14645,1.14646 1.53371,1.24257 2.78741,0.92914 1.3066,-0.32664 1.82065,-1.12379 2.78742,-2.09056 0.85871,-0.85871 0.99556,-1.52655 1.626,-2.78742 0.57039,-1.14078 0.82331,-1.64663 1.3937,-2.78741 0.62503,-1.25005 1.17536,-2.09754 2.55514,-2.78742 1.15932,-0.57966 1.78013,-0.77393 3.0197,-1.39371 0.30971,-0.15486 0.61943,-0.30971 0.92914,-0.46457 -7.72119,4.13714 -15.11574,1.65092 -19.27964,5.57483 -4.06262,3.82847 4.10488,7.62118 3.94884,8.82683 -0.87156,6.73425 4.48973,9.98295 5.80712,10.45281 6.53361,2.33026 12.02325,11.12691 12.77567,12.07881 14.89496,18.8438 23.25685,27.12463 35.075,27.87418 7.76452,0.49245 23.42723,11.11613 24.85448,12.54337 3.32489,3.32489 8.07905,5.44536 11.84652,8.36225 23.58209,18.25804 44.16196,19.74421 47.85066,20.44107 1.86599,0.35251 8.37511,2.89453 9.52368,3.25199 25.35904,7.90768 68.36916,36.23642 81.76424,39.02384 l 14.45633,2.03788" id="path2288" style="fill:none;stroke:#000000;stroke-width:14.57594299;stroke-linecap:butt;stroke-linejoin:miter;stroke-miterlimit:4;stroke-opacity:1;stroke-dasharray:none"/><path d="M 461.78216,371.50968 679.24827,264.93669" id="path2290" style="fill:none;stroke:#000000;stroke-width:14.57594299;stroke-linecap:butt;stroke-linejoin:miter;stroke-miterlimit:4;stroke-opacity:1;stroke-dasharray:none"/><path d="M 442.27024,409.60439 551.21036,629.57607" id="path2292" style="fill:none;stroke:#000000;stroke-width:14.57594299;stroke-linecap:butt;stroke-linejoin:miter;stroke-miterlimit:4;stroke-opacity:1;stroke-dasharray:none"/><path d="m 704.28125,213.5625 c -13.55556,3.23561 -30.88472,24.48258 -26.9375,45.96875 11.74142,23.7536 23.25787,55.96791 24.15625,67.375 4.54929,16.24375 5.54273,55.61851 3.3125,87.71875 l -14.34375,50.75 -0.125,-0.0312 c -0.0458,0.30214 -0.0731,0.62872 -0.125,0.9375 -0.003,0.0198 0.003,0.0427 0,0.0625 l -0.0312,0.0625 c -6.69126,39.2865 -62.62307,131.47297 -139,162.5625 -15.37892,13.24076 -37.70019,23.34698 -28.09375,53.5625 0.0143,-0.004 0.0482,0.007 0.0625,0 0.0357,-0.0226 0.0888,-0.0827 0.125,-0.125 1.79733,-2.28146 4.57316,-28.15648 33.5625,-44.0625 45.50872,-24.38218 130.98254,-88.78997 146.96875,-170.65625 l -0.21875,-0.0312 12.03125,-52.46875 c 2.65707,-31.30136 -0.56715,-61.83098 -4,-84.46875 -1.08897,-9.57365 -6.35515,-35.89415 -23.5,-72.84375 -1.25233,-4.41822 -0.28476,-27.28377 16.15625,-44.3125 z" id="path2294" style="fill:#ffffff;fill-opacity:1;fill-rule:evenodd;stroke:#000000;stroke-width:14.57594299;stroke-linecap:butt;stroke-linejoin:miter;stroke-miterlimit:4;stroke-opacity:1;stroke-dasharray:none"/><path d="m 705.34948,402.2875 c -3.51559,-0.33628 -8.92124,2.28684 -9.10931,9.4781" id="path2309" style="fill:none;stroke:#000000;stroke-width:14.57594299;stroke-linecap:butt;stroke-linejoin:miter;stroke-miterlimit:4;stroke-opacity:1;stroke-dasharray:none"/><path d="m 465.87871,393.38846 412.84715,107.65627 c 1.21592,-2.04016 -2.18025,-11.89741 -2.05067,-13.22725 1.07915,-11.07499 12.19066,-8.04343 13.33346,-6.07849 2.9101,5.00367 26.83527,28.80994 35.09837,35.68662 -12.1086,-0.0738 -47.34046,10.58834 -49.02008,10.58834 -7.88726,0 -12.03176,-8.87794 -8.03929,-14.11778 0.98155,-1.28821 10.39226,-7.67782 9.80402,-10.58834" id="path2311" style="fill:#ffffff;fill-opacity:1;fill-rule:evenodd;stroke:#000000;stroke-width:14.57594299;stroke-linecap:butt;stroke-linejoin:miter;stroke-miterlimit:4;stroke-opacity:1;stroke-dasharray:none"/><path d="m 489.02436,405.65982 c 3.00656,2.09152 29.19069,16.51345 52.54953,13.33347 7.23298,2.59256 30.48737,8.18479 32.15718,9.01969 19.2583,10.2174 33.56395,18.16389 60.00058,20.0002 13.98266,4.52204 52.81097,5.49024 47.45144,5.49024" id="path3186" style="fill:none;stroke:#000000;stroke-width:14.57594299;stroke-linecap:butt;stroke-linejoin:miter;stroke-miterlimit:4;stroke-opacity:1;stroke-dasharray:none"/><path d="m 572.55458,380.9537 c -5.80246,5.61186 -6.66672,16.67911 -6.66672,17.25507" id="path3188" style="fill:none;stroke:#000000;stroke-width:14.57594299;stroke-linecap:round;stroke-linejoin:miter;stroke-miterlimit:4;stroke-opacity:1;stroke-dasharray:none"/><path d="m 472.65819,289.94272 c 10.41314,-11.87347 40.94074,-30.25538 57.22099,-34.88566 0.88662,-0.25217 2.9309,5.55456 4.25435,8.29597 3.41989,7.08401 3.6162,23.25711 3.6162,24.67523 0,9.22789 -0.96476,13.09079 -2.12718,17.01739 -3.42345,11.56425 -10.24813,19.79215 -13.18848,23.82436" id="path3190" style="fill:none;stroke:#000000;stroke-width:14.57594299;stroke-linecap:butt;stroke-linejoin:miter;stroke-miterlimit:4;stroke-opacity:1;stroke-dasharray:none"/><path d="m 479.03971,297.38782 c 14.32564,-15.88823 37.87113,-31.73259 43.39436,-31.69489 7.18451,0.049 7.1395,7.12683 7.44511,8.72141 2.12717,11.09911 1.64546,31.70732 -5.95609,52.54121" id="path3192" style="fill:none;stroke:#000000;stroke-width:14.57594299;stroke-linecap:butt;stroke-linejoin:miter;stroke-miterlimit:4;stroke-opacity:1;stroke-dasharray:none"/><path d="m 456.9171,241.02157 c 0.43551,4.9258 -3.01607,23.85219 -16.37538,32.36528 -9.53615,6.07682 -21.40417,8.30092 -31.09671,0.24108" id="path3194" style="fill:none;stroke:#000000;stroke-width:14.57594299;stroke-linecap:round;stroke-linejoin:miter;stroke-miterlimit:4;stroke-opacity:1;stroke-dasharray:none"/><path d="m 458.09345,201.0764 a 5.495125,5.495125 0 1 1 -10.99025,0 5.495125,5.495125 0 1 1 10.99025,0 z" id="path3196" style="fill:none;stroke:#000000;stroke-width:14.57594299;stroke-linecap:round;stroke-linejoin:round;stroke-miterlimit:4;stroke-opacity:1;stroke-dasharray:none;stroke-dashoffset:0"/><path d="m 432.86584,195.58128 c 3.7516,3.9463 23.8122,1.74845 24.97784,1.74845" id="path3198" style="fill:none;stroke:#000000;stroke-width:14.57594299;stroke-linecap:round;stroke-linejoin:miter;stroke-miterlimit:4;stroke-opacity:1;stroke-dasharray:none"/><path d="m 488.7666,190.05021 c -0.12185,-1.05836 1.34444,-0.72964 3.91612,-2.78979 3.6481,-3.32366 8.40014,-3.11138 11.21251,-2.51195 -0.49956,1.33215 -1.34123,3.00642 -1.84079,4.33857 -2.43493,-0.29348 -5.75713,-0.43944 -8.3759,0.13553 -0.36513,1.79098 -4.9653,1.52318 -4.91194,0.82764 z" id="path3204" style="fill:#312f2f;fill-opacity:1;fill-rule:evenodd;stroke:#000000;stroke-width:14.57594299;stroke-linecap:butt;stroke-linejoin:miter;stroke-miterlimit:4;stroke-opacity:1;stroke-dasharray:none"/><path d="m 483.32106,205.57241 c 1.56596,-0.36966 2.58573,0.66842 4.24623,1.49867 0.91198,0.45599 1.83258,1.83258 2.49779,2.49778 1.08489,1.08489 1.50529,2.50883 2.248,3.74668 0.38423,0.64038 0.41253,0.68754 0.74934,1.24889 l -0.49956,-15.23648 -9.2418,6.24446 z" id="path3206" style="fill:#312f2f;fill-opacity:1;fill-rule:evenodd;stroke:#000000;stroke-width:14.57594299;stroke-linecap:butt;stroke-linejoin:miter;stroke-miterlimit:4;stroke-opacity:1;stroke-dasharray:none"/><path d="m 442.43648,184.66344 c 5.67036,-0.11117 11.58753,-0.0222 17.25789,1e-5 -0.60246,-2.85687 5.64592,-1.67107 5.22514,-0.78382 3.22433,-0.15566 5.56471,2.60722 6.65431,4.71971 0.97227,0.99009 1.18075,3.15257 1.00065,4.07263 -0.42975,1.71002 -2.6039,1.79897 -2.80183,0.66379 -1.42315,-3.0909 -2.64617,-4.44734 -5.2701,-5.06997 -3.24656,-0.0222 -6.82666,-0.17789 -10.07322,-0.20013 -1.53434,0.0445 -1.26419,1.18297 -3.63564,1.23248 -3.62458,-0.11118 -4.81101,0.30295 -8.43559,0.19177 -2.47379,-0.54535 -2.02575,-4.44955 0.0784,-4.82647 z" id="path3208" style="fill:#312f2f;fill-opacity:1;fill-rule:evenodd;stroke:#000000;stroke-width:14.57594299;stroke-linecap:butt;stroke-linejoin:round;stroke-miterlimit:4;stroke-opacity:1;stroke-dasharray:none"/><path d="m 458.23179,204.27622 c -0.0667,1.26749 0.13342,5.98167 0.13342,7.40482 -0.68934,1.64552 -2.04577,3.02419 -3.20208,4.20274 -0.42456,0.23158 -0.66881,0.17855 -2.5,0.25555 -0.4846,-2.15316 -3.92557,-1.85724 -6.77271,-6.05933 -0.75605,-0.82276 -0.1779,-1.17854 1.73446,-1.06736 1.11184,0.9117 2.22367,1.82341 3.33551,2.73511 1.89012,0.53368 2.64617,0.40026 4.86984,0.13342 1.0896,-1.26749 0.97841,-3.33551 1.06736,-5.13668 0.44473,-0.82276 0.88947,-1.64551 1.3342,-2.46827 z" id="path3210" style="fill:#312f2f;fill-opacity:1;fill-rule:evenodd;stroke:#000000;stroke-width:14.57594299;stroke-linecap:butt;stroke-linejoin:miter;stroke-miterlimit:4;stroke-opacity:1;stroke-dasharray:none"/><path d="m 703.31044,414.3185 c -3.2989,0.49525 -5.64088,-1.17289 -8.5795,0.83775 -5.11508,2.22047 -4.21352,8.62845 -0.76232,10.97017 7.88789,1.39198 14.54947,2.45247 22.43736,3.84445 -7.65589,-0.54132 -14.94585,-1.90351 -22.60174,-2.44483 -9.76188,-0.56168 -9.5576,10.50527 -4.27218,11.78416 8.27455,1.70131 15.74908,3.34302 24.02363,5.04433 -7.81056,-1.31465 -15.55478,-1.46917 -23.36534,-2.78382 -8.21694,-1.66829 -9.96485,7.99838 -3.67864,11.43417 8.50655,1.31465 14.65981,2.79497 23.16636,4.10962 -7.96522,-0.38666 -14.6378,-2.2648 -22.60302,-2.65146 -5.0596,-1.09365 -6.17543,9.87682 -0.62967,11.33483 8.66121,2.93862 14.33949,4.38578 24.16068,4.77244 9.35721,1.54664 14.53846,-19.1784 16.00778,-34.56752 1.23732,-9.04787 -1.23732,-14.61579 -4.17594,-16.70376 -4.02128,-3.40262 -13.9462,-4.36187 -19.12746,-4.98053 z" id="path2305" style="fill:#ffffff;fill-opacity:1;fill-rule:evenodd;stroke:#000000;stroke-width:14.57594299;stroke-linecap:butt;stroke-linejoin:miter;stroke-miterlimit:4;stroke-opacity:1;stroke-dasharray:none"/></g><g id="g3264" style="fill:none;stroke:#000000;stroke-width:14.57594299;stroke-miterlimit:4;stroke-opacity:1;stroke-dasharray:none"><path d="m 218.2726,321.95753 c -7.04556,0.068 -13.19598,-2.99709 -19.79397,0.94983 -1.83715,2.99319 -9.19438,4.34528 -18.04351,3.6087 -5.22325,-0.20778 -9.25296,-1.45989 -17.01245,2.06211 -11.3229,-1.51065 -17.57329,-3.91645 -26.80751,-7.2174 -6.03559,-3.46888 -6.70031,-5.44586 -1.54658,-14.43481 13.57169,-15.83768 35.34889,-37.64298 47.13028,-58.85153 12.66717,-19.13316 25.33434,-37.81873 42.77562,-54.56483 3.6087,-5.66926 7.51578,-3.43139 12.16882,0 25.10828,16.4014 36.71335,37.02255 50.00631,61.86347 4.73331,6.67135 10.31058,12.07677 15.46587,14.95034 0.51553,-1.54659 1.03105,-3.09317 1.54658,-4.63976 -8.93583,-15.80956 -17.87167,-31.61911 -26.8075,-47.42867 -8.04609,-11.93743 -11.45045,-15.85731 -23.29433,-23.57498 -10.26527,-6.4488 -15.86322,-9.79458 -25.68092,-18.18286 -5.39509,-3.29548 -11.9837,-2.26442 -17.52798,3.09318 -6.88309,5.36072 -16.00405,22.9551 -23.33471,37.56565 -18.77619,44.66121 -32.92746,53.06902 -57.82048,86.6901 -5.04984,6.41677 -3.23689,13.72868 1.85825,18.80274 6.38474,1.08574 10.53163,1.27632 17.06557,3.85397 4.20156,2.13397 9.29826,1.73171 15.14092,2.07539" id="path3250" style="fill:none;stroke:#000000;stroke-width:14.57594299;stroke-linecap:butt;stroke-linejoin:miter;stroke-miterlimit:4;stroke-opacity:1;stroke-dasharray:none"/><path d="m 201.40778,322.18249 c 2.1384,-2.98382 8.90172,-2.23786 10.29417,-4.62492 4.37627,-0.74595 6.51467,-0.89514 9.10065,0 -1.19353,1.54164 -2.98382,3.97842 -4.17735,5.52006 -4.12761,-1.54163 -9.00118,-0.54703 -15.21747,-0.89514 z" id="path3254" style="fill:none;stroke:#000000;stroke-width:14.57594299;stroke-linecap:butt;stroke-linejoin:miter;stroke-miterlimit:4;stroke-opacity:1;stroke-dasharray:none"/><path d="m 259.51506,214.51496 c -10.88055,30.69292 -46.75069,63.37776 -56.54474,70.89192 -8.1582,5.24811 -16.67856,8.50431 -24.47459,7.59556 -5.14789,0.0842 -9.39034,-4.35875 -4.5786,-11.33686 l 2.82092,2.65646 -4.16493,0.90542" id="path3256" style="fill:none;stroke:#000000;stroke-width:14.57594299;stroke-linecap:round;stroke-linejoin:round;stroke-miterlimit:4;stroke-opacity:1;stroke-dasharray:none"/><path d="m 174.77525,299.33208 c -1.31675,3.22261 -4.68074,5.72871 -6.5093,8.54188 -4.12026,6.01144 -1.79171,9.15676 0.94631,10.66428 3.78453,2.77631 7.05727,4.63136 16.67645,-0.0648 11.98461,-5.74195 14.5519,-7.90122 18.34754,-13.43844" id="path3258" style="fill:none;stroke:#000000;stroke-width:14.57594299;stroke-linecap:round;stroke-linejoin:miter;stroke-miterlimit:4;stroke-opacity:1;stroke-dasharray:none"/><path d="m 279.41271,244.48354 c -14.78853,20.03997 -41.34752,44.42596 -57.40364,51.97113 -6.70011,3.62168 -12.31372,5.43252 -17.92733,3.25951 -1.81084,-2.53518 -2.17301,-5.61361 -0.54325,-7.60553 -0.61669,-1.72959 -2.15465,-3.76629 -3.38552,-2.22029 -4.27975,3.86721 -3.30794,8.32054 -0.41724,10.18799 2.35409,1.50903 4.70818,3.01807 7.06227,4.5271 4.2253,0.24145 9.17493,-1.14687 13.76239,-3.07843 24.50441,-12.62937 37.79437,-35.47606 42.14311,-32.63773 7.22406,-6.85591 13.00844,-13.16312 18.33897,-19.33339 -0.54325,-1.69012 -1.08651,-3.38024 -1.62976,-5.07036 z" id="path3262" style="fill:#000000;fill-opacity:1;fill-rule:evenodd;stroke:#000000;stroke-width:14.57594299;stroke-linecap:butt;stroke-linejoin:miter;stroke-miterlimit:4;stroke-opacity:1;stroke-dasharray:none"/></g></g><path d="m 331.84089,210.82849 c -1.39234,17.94571 2.78468,39.60433 -8.35404,46.41132 -10.5199,4.02231 -26.60915,14.07809 -35.27259,20.42097 -31.09558,10.05578 -61.26294,22.89626 -60.79882,36.66494" id="path3316" style="fill:none;stroke:#000000;stroke-width:14.57594299;stroke-linecap:butt;stroke-linejoin:miter;stroke-miterlimit:4;stroke-opacity:1;stroke-dasharray:none"/><path d="m 462.23111,359.12542 c -5.60164,-5.12808 -10.54274,-7.01011 -15.80269,-10.2589 -6.65229,-4.17702 -13.20774,-3.81249 -35.22418,-3.66449 -14.38751,-0.92822 -20.25014,-2.66225 -32.31707,-8.76973 -10.98402,-5.72406 -24.45944,-11.74139 -35.44345,-17.46545 -13.30458,-6.34288 -21.96802,-9.90107 -35.73671,-15.31573 -14.38751,-4.02231 -35.2726,-5.72407 -56.6218,0.46411 -12.53106,3.4035 -19.95687,5.41465 -26.91856,12.06694 -4.95055,2.01116 -7.11641,4.48643 -9.28227,8.81815 6.34287,13.92339 15.00632,32.48792 24.598,41.77018 11.91223,10.82931 24.28858,11.91224 37.12905,18.10042 23.51506,7.88992 49.35069,6.9617 76.11456,3.24879 29.08442,-8.66344 42.8531,-6.18817 56.6218,1.85645 7.88992,7.1164 15.77984,14.2328 23.66977,21.3492 6.12087,3.00121 9.16654,0.53538 10.6746,-2.78467 7.58722,4.76477 17.90794,-0.0378 16.95292,-10.30734 5.6796,-2.70671 6.06301,-12.58891 4.39628,-19.3959 2.02456,-11.80991 1.31561,-16.27351 -2.81025,-19.71203 z" id="path3318" style="fill:none;stroke:#000000;stroke-width:14.57594299;stroke-linecap:butt;stroke-linejoin:miter;stroke-miterlimit:4;stroke-opacity:1;stroke-dasharray:none"/><path d="m 454.27631,353.71412 0.68338,3.58775 -2.73352,3.58774 -1.19591,4.27112 1.5376,2.90436 2.22099,2.73351 0,2.56268 -4.10028,5.80872 1.5376,3.24605 6.32126,-9.56731 2.22098,-1.36676 -0.17084,5.12535 2.90436,3.75858 1.87929,-10.93406 -1.87929,-7.85886 -9.22562,-7.85887 z" id="path3322" style="fill:#000000;fill-opacity:1;fill-rule:evenodd;stroke:#000000;stroke-width:14.57594299;stroke-linecap:butt;stroke-linejoin:miter;stroke-miterlimit:4;stroke-opacity:1;stroke-dasharray:none"/><path d="m 394.30979,383.78281 c 0.85422,1.25286 0.68338,2.33488 1.5376,3.58774 -0.057,1.4237 0.2278,2.67656 0.17085,4.10027 -1.13897,0.79728 -0.91117,2.27793 -2.05014,3.07521 -0.96812,1.6515 -1.25286,3.81554 -0.17085,6.83379 5.41009,3.303 14.29402,4.9545 19.13462,5.12535 0.56948,1.30981 1.13897,2.61962 1.70845,3.92943 4.27112,2.39183 11.27575,0.34169 16.91363,0.51253 -7.28938,-6.71989 -14.57875,-13.43979 -21.86813,-20.15968 -5.12534,-2.33488 -10.25069,-4.66976 -15.37603,-7.00464 z" id="path3324" style="fill:#000000;fill-opacity:1;fill-rule:evenodd;stroke:#000000;stroke-width:14.57594299;stroke-linecap:butt;stroke-linejoin:miter;stroke-miterlimit:4;stroke-opacity:1;stroke-dasharray:none"/><path d="m 332.71774,312.30247 7.56368,-8.63552 -2.80703,11.01586" id="path3328" style="fill:none;stroke:#000000;stroke-width:14.57594299;stroke-linecap:square;stroke-linejoin:round;stroke-miterlimit:4;stroke-opacity:1;stroke-dasharray:none"/><path d="m 408.39154,354.27843 1.88447,6.73025" id="path3330" style="fill:none;stroke:#000000;stroke-width:14.57594299;stroke-linecap:round;stroke-linejoin:miter;stroke-miterlimit:4;stroke-opacity:1;stroke-dasharray:none"/><path d="m 281.66572,387.33827 c 6.67301,26.27376 11.94698,51.14848 6.0286,72.75876 -5.95512,23.47002 -4.91503,33.41595 -2.47588,47.09267 59.80277,44.1674 121.00458,76.67609 189.20162,38.76624 3.5926,-14.91403 3.86597,-22.70759 11.28796,-42.65574 7.91787,-45.47562 12.62891,-79.10319 -2.99545,-140.11876" id="path3332" style="fill:none;stroke:#000000;stroke-width:14.57594299;stroke-linecap:butt;stroke-linejoin:miter;stroke-miterlimit:4;stroke-opacity:1;stroke-dasharray:none"/><path d="m 282.77034,506.3211 c -57.15403,48.15463 -43.73389,72.15301 -27.47183,111.30825" id="path3334" style="fill:none;stroke:#000000;stroke-width:14.57594299;stroke-linecap:round;stroke-linejoin:miter;stroke-miterlimit:4;stroke-opacity:1;stroke-dasharray:none"/><path d="m 474.59946,544.68693 c 0.15788,3.9471 0.31577,7.8942 0.47365,11.8413 4.26287,3.63133 2.84191,12.47284 -0.47365,19.8934 -25.89299,29.05066 -51.31231,73.25819 -85.73104,82.41547 -10.42035,-1.42097 -16.57783,-4.73653 -19.89339,-7.10479" id="path3336" style="fill:none;stroke:#000000;stroke-width:14.57594299;stroke-linecap:butt;stroke-linejoin:miter;stroke-miterlimit:4;stroke-opacity:1;stroke-dasharray:none"/><path d="m 467.49468,586.84197 c -2.68403,43.576 -14.8411,63.46939 -30.78739,86.67834 -16.57783,15.31475 -24.15626,27.7876 -41.20774,45.94426 -3.63134,5.9996 -8.68362,9.63093 -14.68322,7.10479 -5.96025,-2.47955 -19.49911,-1.03507 -25.49601,-9.60451 -8.22041,-3.30113 -12.01452,-7.87284 -14.76442,-12.18349" id="path3338" style="fill:none;stroke:#000000;stroke-width:14.57594299;stroke-linecap:butt;stroke-linejoin:miter;stroke-miterlimit:4;stroke-opacity:1;stroke-dasharray:none"/><path d="m 256.34629,619.73926 c 2.78719,0.96763 8.23948,-2.18355 5.45417,-8.72668 -1.39209,-9.57524 -8.59184,-18.73968 6.96873,-30.1794 13.75752,-13.51223 28.24189,-27.81338 46.3605,-28.9692 22.64655,-2.70659 36.71683,8.90925 49.46082,32.422 4.72144,19.64056 5.34037,40.95154 3.6881,66.23895 -10.54549,22.72461 -21.09098,41.81498 -33.09017,62.35904 -3.09333,3.87802 -12.48601,10.90573 -26.48206,7.75755 C 255.50149,708.0293 225.55573,691.78284 171.13943,641.13225 153.9261,624.7701 119.99526,596.05153 104.72019,596.1646 93.083486,596.70664 79.750803,594.34128 63.268446,577.19669 36.792026,549.51148 34.786151,560.34922 22.362123,551.56206 c -5.632602,-7.45254 -4.481289,-13.20909 2.727088,-13.63544 4.461757,0.0651 6.016122,1.58391 9.024183,2.37587 -1.755203,-5.35714 6.867463,-7.16585 11.411609,-3.80082 5.033835,-7.74228 6.54961,-5.70742 13.317371,-2.3047 2.42821,1.83596 6.067834,3.91421 8.496044,5.75017 -1.362167,-1.83596 -2.724333,-3.67193 -4.0865,-5.50789 1.394471,-4.66259 10.299703,-2.78356 15.812979,-0.17767 2.250537,1.89519 4.501073,3.79037 6.75161,5.68556 3.575014,4.00036 0.850682,5.82017 -0.177674,7.63998 3.429645,1.34063 7.82842,1.46985 11.015783,-1.06604 11.931074,-5.97092 21.681604,-5.88478 32.158984,-3.37581 6.21321,3.76884 8.79216,8.99138 11.37113,14.21392 5.21177,4.85642 10.42353,9.71284 15.6353,14.56926 6.75932,2.74747 10.27425,2.25053 18.65577,3.3758 25.33766,-0.24708 39.86065,6.53538 53.57254,13.85857 16.5523,10.46252 18.77518,20.38429 28.29795,30.57644 z" id="path3340" style="fill:#ffffff;fill-opacity:1;fill-rule:evenodd;stroke:#000000;stroke-width:14.57594299;stroke-linecap:butt;stroke-linejoin:round;stroke-miterlimit:4;stroke-opacity:1;stroke-dasharray:none"/><path d="m 86.291131,540.01432 5.413702,3.28103 3.609135,4.10129 -7.054218,-2.13267" id="path3344" style="fill:none;stroke:#000000;stroke-width:14.57594299;stroke-linecap:round;stroke-linejoin:round;stroke-miterlimit:4;stroke-opacity:1;stroke-dasharray:none"/><path d="m 154.70064,571.67627 -11.64766,-5.24965 -4.92155,-3.60913 1.96862,-2.95293 4.26534,4.92155" id="path3346" style="fill:none;stroke:#000000;stroke-width:14.57594299;stroke-linecap:round;stroke-linejoin:round;stroke-miterlimit:4;stroke-opacity:1;stroke-dasharray:none"/><path d="m 135.67066,582.17557 -4.10129,-3.11698" id="path3348" style="fill:none;stroke:#000000;stroke-width:14.57594299;stroke-linecap:round;stroke-linejoin:miter;stroke-miterlimit:4;stroke-opacity:1;stroke-dasharray:none"/><path d="m 123.85894,579.05859 7.54638,0" id="path3350" style="fill:none;stroke:#000000;stroke-width:14.57594299;stroke-linecap:round;stroke-linejoin:miter;stroke-miterlimit:4;stroke-opacity:1;stroke-dasharray:none"/><path d="m 34.286781,540.50647 c 2.679509,-2.67951 6.015224,-2.57014 11.319559,-3.44508 6.233959,-3.60913 16.405158,-0.82026 20.670499,1.64052 -1.093677,-7.8198 6.179276,-5.30434 8.858786,-5.90586" id="path3352" style="fill:none;stroke:#000000;stroke-width:14.57594299;stroke-linecap:round;stroke-linejoin:round;stroke-miterlimit:4;stroke-opacity:1;stroke-dasharray:none"/><path d="m 257.11886,610.2629 2.70366,7.2999" id="path3354" style="fill:none;stroke:#000000;stroke-width:14.57594299;stroke-linecap:butt;stroke-linejoin:miter;stroke-miterlimit:4;stroke-opacity:1;stroke-dasharray:none"/></g></g></g></g></svg>