<?xml version="1.0" encoding="UTF-8" standalone="no"?>
<svg xmlns:dc="http://purl.org/dc/elements/1.1/" xmlns:cc="http://creativecommons.org/ns#" xmlns:rdf="http://www.w3.org/1999/02/22-rdf-syntax-ns#" xmlns:svg="http://www.w3.org/2000/svg" xmlns="http://www.w3.org/2000/svg" xmlns:sodipodi="http://sodipodi.sourceforge.net/DTD/sodipodi-0.dtd" xmlns:inkscape="http://www.inkscape.org/namespaces/inkscape" id="svg3741" version="1.1" viewBox="0 0 500 500"><defs id="defs3743"><linearGradient id="linearGradient4573-9-549"><stop id="stop33336" offset="0" style="stop-color:#ffffff;stop-opacity:1;"/><stop id="stop33338" offset="1" style="stop-color:#ffffff;stop-opacity:0;"/></linearGradient></defs><metadata id="metadata3746"><rdf:RDF><cc:Work rdf:about=""><dc:format>image/svg+xml</dc:format><dc:type rdf:resource="http://purl.org/dc/dcmitype/StillImage"/><dc:title/></cc:Work></rdf:RDF></metadata><g id="layer1" transform="translate(75.125083,-316.24702)"><g id="g22438" transform="translate(-6047.0858,-592.01778)"><g transform="matrix(0.71174377,0,0,0.71174377,5963.9536,900.25768)" id="g22440"><circle d="m 712.5,362.5 c 0,193.29966 -156.70034,350 -350,350 -193.29966,0 -350,-156.70034 -350,-350 0,-193.29966 156.70034,-350 350,-350 193.29966,0 350,156.70034 350,350 z" style="fill:#ffffff;stroke:#000000;stroke-width:2.5px" r="350" cx="362.5" cy="362.5" id="circle22442"/><circle d="m 657.5,362.5 c 0,162.924 -132.076,295 -295,295 -162.924,0 -295,-132.076 -295,-295 0,-162.924 132.076,-295 295,-295 162.924,0 295,132.076 295,295 z" cx="362.5" cy="362.5" r="295" style="fill:none;stroke:#cc0000;stroke-width:83.75" id="circle22444"/></g><g id="g22446" transform="matrix(0.1074948,0,0,0.1074948,5451.8564,899.61452)"><g transform="matrix(1.699531,0,0,1.699531,-4391.666,-970.49151)" id="g22448"><g transform="matrix(1.6272224,0,0,1.6272224,6204.3773,964.81253)" id="g22450"><g transform="matrix(0.97210302,0.84691058,-0.84691058,0.97210302,427.97804,-164.85737)" id="g22452"><g id="g22454" transform="matrix(0.82045364,0,0,1,65.520893,-2.1428571)"><path style="fill:#000000;fill-opacity:0.97254902;stroke:none" d="m 366.75,117.1875 0,2.40625 c -49.12702,138.32715 -60.5625,234.39029 -60.5625,369.1875 0,16.4552 0.39833,32.06392 1.15625,46.8125 -59.99992,23.01135 -62.7994,122.94865 -46.875,194.1875 13.85754,-27.99231 25.00083,-58.26429 71.125,-59.21875 4.47349,11.09485 9.41658,20.28238 14.71875,27.5625 l 15.4375,0 c -1.81391,-35.19671 -2.34375,-68.94765 -2.34375,-96.8125 0.4264,-27.05697 -1.18556,-60.23008 7.875,-59.65625 9.9024,0.62714 7.90625,33.1731 7.90625,59.65625 0.68897,28.75959 0.16981,62.14066 -1.8125,96.8125 l 14.65625,0 c 5.2997,-7.27809 10.24814,-16.47246 14.71875,-27.5625 46.36932,0.83247 57.51951,31.16748 71.40625,59.21875 15.95223,-71.3634 13.11785,-171.49947 -47.1875,-194.28125 0.7535,-14.71499 1.15625,-30.30627 1.15625,-46.71875 0,-134.79721 -11.40423,-230.86035 -60.53125,-369.1875 l 0,-2.40625 c -0.14395,0.40317 -0.29418,0.8163 -0.4375,1.21875 -0.14331,-0.40245 -0.26229,-0.81558 -0.40625,-1.21875 z m 0.5625,169.46875 c 12.79355,0 23.24962,10.21026 23.5625,23 l 0,0.5625 c 0,13.01814 -10.54436,23.5625 -23.5625,23.5625 -13.01814,0 -23.5625,-10.54436 -23.5625,-23.5625 0,-13.01814 10.54436,-23.5625 23.5625,-23.5625 z" transform="matrix(1.2188379,0,0,1,-79.859348,2.1428571)" id="path22456"/><g transform="matrix(0.72759666,0,0,0.80335423,122.25014,16.269581)" id="g22458"><path style="fill:#000000;fill-opacity:0.97254902;stroke:none" d="m 337.67809,667.43022 c 12.186,0.64247 9.70754,34.00669 9.70754,61.13774 1.41829,49.28603 -1.28744,111.74956 -9.70754,171.65594 -7.94744,-60.01809 -9.70754,-124.15444 -9.70754,-171.65594 0.52474,-27.71892 -1.44249,-61.72562 9.70754,-61.13774 z" id="path22460"/></g></g><g id="g22462" transform="matrix(1.1960569,0,0,-1.1960569,287.06201,1874.1561)"><path id="path22464" d="m 67.46875,836.1875 0,0.25 c -12.1458,13.23986 -20.5,40.80207 -20.5,72.6875 0,16.76935 2.323478,44.31865 6.28125,57.25 -1.416871,-20.12638 -0.603324,-20.73758 -0.625,-25.34375 -0.644597,-20.72221 5.014168,-51.13091 15.173883,-59.14034 9.515691,7.868 14.678103,37.92845 14.669867,59.14034 -0.18031,6.80448 -0.06978,6.40339 -0.5625,25.34375 3.957944,-12.93156 6.28125,-40.48189 6.28125,-57.25 0,-31.88306 -8.355669,-59.4465 -20.5,-72.6875 l 0,-0.25 c -0.03921,0.042 -0.08587,0.0827 -0.125,0.125 -0.03496,-0.0378 -0.05873,-0.0875 -0.09375,-0.125 z" style="fill:#ffffff;fill-opacity:0.97254902;stroke:none"/><path id="path22466" d="m 67.620438,895.21211 0,0.13666 c -6.639117,7.23715 -11.205678,22.30317 -11.205678,39.73232 0,9.16644 1.270054,24.22539 3.433451,31.29391 -0.774488,-11.00145 -0.329797,-11.33555 -0.341646,-13.85336 -0.352344,-11.32715 2.740834,-27.9491 8.294328,-32.3272 5.201451,4.30079 8.023318,20.73239 8.018819,32.3272 -0.09861,3.71945 -0.03819,3.50021 -0.307472,13.85336 2.163489,-7.06863 3.433451,-22.12815 3.433451,-31.29391 0,-17.42786 -4.567372,-32.49455 -11.205678,-39.73232 l 0,-0.13666 c -0.02145,0.023 -0.04695,0.0453 -0.0684,0.0684 -0.01909,-0.0207 -0.03204,-0.0479 -0.05127,-0.0684 z" style="fill:#ffffff;fill-opacity:0.97254902;stroke:none"/></g><path style="fill:#ffffff;stroke:none" d="M 305.71429,541.6479 C 246.78987,575.07157 256.83366,677.40468 259.28571,688.07647 257.5358,547.60958 317.85021,545.87133 305.71429,541.6479 z" id="path22468"/><path style="fill:#ffffff;stroke:none" d="m 367.14286,137.36218 c -49.68322,151.84001 -56.38806,270.0106 -53.57144,392.14286 5.11966,4.03793 13.07755,3.37846 13.57144,42.14286 l 4.28571,90 c -0.1829,-169.8848 -13.11088,-309.02993 35.71429,-524.28572 z" id="path22470"/><path style="fill:#ffffff;fill-opacity:0.97254902;stroke:none" d="m 381.90107,299.65625 c -0.0377,14.15456 -11.51573,25.60923 -25.67914,25.60923 -0.35002,0 -0.70197,-0.009 -1.0486,-0.0233 3.04236,2.09137 6.72487,3.33223 10.69576,3.33223 10.44268,0 18.92146,-8.47879 18.92146,-18.92147 l -0.0233,-0.46604 c -0.0858,-3.50818 -1.12773,-6.75171 -2.86618,-9.53065 z" id="path22472"/><path style="fill:#ffffff;stroke:none" d="m 367.23387,533.99243 c -13.17376,-0.088 -14.5953,5.75904 -15.10778,27.23118 l 2.47569,58.15471 c -0.80646,-66.70876 -0.24811,-81.70094 12.63209,-85.38589 z" id="path22474"/></g></g><path style="fill:#000000" d="m 6280.857,2572.8409 c 0,-25.4579 25.5538,-83.5253 55.1627,-125.3496 17.856,-25.2225 84.922,-96.7619 90.7113,-96.7619 1.8307,0 -4.7025,9.9318 -14.5182,22.0707 -33.558,41.501 -60.3789,93.9811 -60.5568,118.4911 -0.083,11.399 0.557,12.0114 10.1461,9.7122 25.8157,-6.1901 57.0245,-27.4783 96.762,-66.0035 16.8868,-16.3716 30.7033,-28.1688 30.7033,-26.216 0,5.7256 -47.1623,64.4323 -73.9532,92.0556 -29.5831,30.5023 -61.2778,53.9274 -93.7491,69.2888 -29.5835,13.9952 -40.7081,14.7365 -40.7081,2.7126 z" id="path22476"/><path style="fill:#000000" d="m 6379.2783,2459.5866 c 4.6269,-19.2004 23.4417,-54.8647 37.3975,-70.8886 7.6617,-8.7972 14.6044,-15.3208 15.4283,-14.497 0.8238,0.8239 -2.7083,10.5336 -7.8492,21.5773 -11.0919,23.8276 -11.8879,33.105 -2.8405,33.105 6.8758,0 30.2361,-14.2646 44.5929,-27.23 4.6055,-4.1591 8.3736,-5.638 8.3736,-3.2865 0,7.7394 -42.3906,47.7183 -63.2674,59.6681 -26.3985,15.1104 -35.206,15.5397 -31.8352,1.5517 z" id="path22478"/></g><path id="path22480" d="m 7573.6074,1964.5932 c -12.3048,-3.9575 -37.69,-27.2013 -33.8745,-31.0168 1.2051,-1.2051 7.7895,0.8068 14.6321,4.4708 19.9676,10.6921 56.6056,9.2616 80.5161,-3.1436 10.6606,-5.5309 19.3829,-8.5902 19.3829,-6.7983 0,7.2411 -21.0874,27.6386 -35.2013,34.0497 -16.6163,7.5477 -27.7172,8.1432 -45.4553,2.4382 l 0,0 z" style="fill:#000000"/></g></g></g></svg>