<?xml version="1.0" encoding="UTF-8" standalone="no"?>
<svg xmlns:dc="http://purl.org/dc/elements/1.1/" xmlns:cc="http://creativecommons.org/ns#" xmlns:rdf="http://www.w3.org/1999/02/22-rdf-syntax-ns#" xmlns:svg="http://www.w3.org/2000/svg" xmlns="http://www.w3.org/2000/svg" xmlns:sodipodi="http://sodipodi.sourceforge.net/DTD/sodipodi-0.dtd" xmlns:inkscape="http://www.inkscape.org/namespaces/inkscape" id="svg3741" version="1.1" viewBox="0 0 500 500"><defs id="defs3743"><linearGradient id="linearGradient4573-9-549"><stop id="stop33336" offset="0" style="stop-color:#ffffff;stop-opacity:1;"/><stop id="stop33338" offset="1" style="stop-color:#ffffff;stop-opacity:0;"/></linearGradient></defs><metadata id="metadata3746"><rdf:RDF><cc:Work rdf:about=""><dc:format>image/svg+xml</dc:format><dc:type rdf:resource="http://purl.org/dc/dcmitype/StillImage"/><dc:title/></cc:Work></rdf:RDF></metadata><g id="layer1" transform="translate(-8.6920174,-293.03902)"><g transform="translate(-3473.9609,557.87875)" id="g22392"><circle transform="matrix(0.71174377,0,0,0.71174377,3474.6458,-272.84685)" id="circle22394" style="fill:#ffffff;stroke:#000000;stroke-width:2.5px" r="350" cy="362.5" cx="362.5" d="m 712.5,362.5 c 0,193.29966 -156.70034,350 -350,350 -193.29966,0 -350,-156.70034 -350,-350 0,-193.29966 156.70034,-350 350,-350 193.29966,0 350,156.70034 350,350 z"/><circle transform="matrix(0.71174377,0,0,0.71174377,3474.6458,-272.84685)" id="circle22396" style="fill:none;stroke:#cc0000;stroke-width:93.75" r="290" cy="362.5" cx="362.5" d="m 652.5,362.5 c 0,160.16258 -129.83742,290 -290,290 -160.16258,0 -290,-129.83742 -290,-290 0,-160.16258 129.83742,-290 290,-290 160.16258,0 290,129.83742 290,290 z"/><g id="g22398" transform="matrix(0.37946793,0,0,0.3438223,3540.1855,-200.44042)"><g id="g22400"><g transform="translate(-20.203051,-32.324881)" id="g22402"><g id="g22404"><path d="m 236.44563,587.17607 c 5.79238,14.34263 14.67644,33.12543 32.85394,98.08801 11.61672,41.51573 17.51839,112.30865 30.60532,152.81193 13.08693,40.50328 60.8898,77.49694 94.85157,74.39098 27.56021,-2.52051 46.1597,-13.57374 58.84246,-37.02289 8.51058,-15.73522 13.08675,-41.8552 9.09826,-74.1498 -3.98849,-32.2946 -30.09026,-78.57737 -33.72919,-104.81268 -4.41129,-31.80376 -5.86077,-67.04381 -0.80381,-100.89632 3.15073,-21.09176 11.44924,-35.52678 15.10831,-66.97558 3.95322,-33.97697 5.06627,-67.11267 0.37278,-86.92935 -5.84566,-24.68134 -19.86335,-32.59959 -38.89876,-41.11249 -46.86079,-20.9568 -163.93117,20.85114 -192.18547,77.72371 -28.25429,56.87257 18.09221,94.54185 23.88459,108.88448 z" style="fill:#000000;fill-opacity:1;stroke:none" id="path22406"/><path id="path22408" d="m 442.14286,339.50504 c 0,29.19219 -16.78932,52.85714 -37.5,52.85714 -20.71068,0 -37.5,-23.66495 -37.5,-52.85714 0,-29.19219 16.78932,-52.85714 37.5,-52.85714 20.71068,0 37.5,23.66495 37.5,52.85714 z" style="fill:#000000;fill-opacity:1;stroke:none"/><path id="path22410" d="m 360.35707,346.68684 c 2.36868,20.71659 -7.62587,38.87301 -22.32345,40.55349 -14.69759,1.68048 -28.53253,-13.75134 -30.9012,-34.46793 -2.36868,-20.71659 7.62587,-38.87301 22.32346,-40.55349 14.69758,-1.68048 28.53252,13.75134 30.90119,34.46793 z" style="fill:#000000;fill-opacity:1;stroke:none"/><path id="path22412" d="m 302.5163,365.58011 c 5.42174,19.85576 -1.60272,39.07024 -15.68958,42.91674 -14.08686,3.84651 -29.9017,-9.13156 -35.32343,-28.98732 -5.42174,-19.85576 1.60272,-39.07024 15.68959,-42.91675 14.08684,-3.8465 29.90169,9.13157 35.32342,28.98733 z" style="fill:#000000;fill-opacity:1;stroke:none"/><path id="path22414" d="m 251.68746,393.2368 c 6.88158,17.28527 2.51893,35.25557 -9.74426,40.13777 -12.26321,4.88221 -27.78313,-5.17246 -34.66471,-22.45773 -6.88158,-17.28527 -2.51893,-35.25557 9.74428,-40.13778 12.26319,-4.88219 27.78311,5.17248 34.66469,22.45774 z" style="fill:#000000;fill-opacity:1;stroke:none"/><path id="path22416" d="m 207.06314,428.71686 c 8.42651,13.48193 7.50368,29.25754 -2.06119,35.23581 -9.56489,5.97828 -24.14981,-0.10464 -32.57631,-13.58658 -8.42651,-13.48192 -7.50369,-29.25754 2.0612,-35.23582 9.56488,-5.97825 24.14979,0.10467 32.5763,13.58659 z" style="fill:#000000;fill-opacity:1;stroke:none"/></g></g><g transform="matrix(-1,0,0,1,986.15036,-32.159792)" id="g22418"><g id="g22420"><path d="m 236.44563,587.17607 c 5.79238,14.34263 14.67644,33.12543 32.85394,98.08801 11.61672,41.51573 17.51839,112.30865 30.60532,152.81193 13.08693,40.50328 60.8898,77.49694 94.85157,74.39098 27.56021,-2.52051 46.1597,-13.57374 58.84246,-37.02289 8.51058,-15.73522 13.08675,-41.8552 9.09826,-74.1498 -3.98849,-32.2946 -30.09026,-78.57737 -33.72919,-104.81268 -4.41129,-31.80376 -5.86077,-67.04381 -0.80381,-100.89632 3.15073,-21.09176 11.44924,-35.52678 15.10831,-66.97558 3.95322,-33.97697 5.06627,-67.11267 0.37278,-86.92935 -5.84566,-24.68134 -19.86335,-32.59959 -38.89876,-41.11249 -46.86079,-20.9568 -163.93117,20.85114 -192.18547,77.72371 -28.25429,56.87257 18.09221,94.54185 23.88459,108.88448 z" style="fill:#000000;fill-opacity:1;stroke:none" id="path22422"/><path id="path22424" d="m 442.14286,339.50504 c 0,29.19219 -16.78932,52.85714 -37.5,52.85714 -20.71068,0 -37.5,-23.66495 -37.5,-52.85714 0,-29.19219 16.78932,-52.85714 37.5,-52.85714 20.71068,0 37.5,23.66495 37.5,52.85714 z" style="fill:#000000;fill-opacity:1;stroke:none"/><path id="path22426" d="m 360.35707,346.68684 c 2.36868,20.71659 -7.62587,38.87301 -22.32345,40.55349 -14.69759,1.68048 -28.53253,-13.75134 -30.9012,-34.46793 -2.36868,-20.71659 7.62587,-38.87301 22.32346,-40.55349 14.69758,-1.68048 28.53252,13.75134 30.90119,34.46793 z" style="fill:#000000;fill-opacity:1;stroke:none"/><path id="path22428" d="m 302.5163,365.58011 c 5.42174,19.85576 -1.60272,39.07024 -15.68958,42.91674 -14.08686,3.84651 -29.9017,-9.13156 -35.32343,-28.98732 -5.42174,-19.85576 1.60272,-39.07024 15.68959,-42.91675 14.08684,-3.8465 29.90169,9.13157 35.32342,28.98733 z" style="fill:#000000;fill-opacity:1;stroke:none"/><path id="path22430" d="m 251.68746,393.2368 c 6.88158,17.28527 2.51893,35.25557 -9.74426,40.13777 -12.26321,4.88221 -27.78313,-5.17246 -34.66471,-22.45773 -6.88158,-17.28527 -2.51893,-35.25557 9.74428,-40.13778 12.26319,-4.88219 27.78311,5.17248 34.66469,22.45774 z" style="fill:#000000;fill-opacity:1;stroke:none"/><path id="path22432" d="m 207.06314,428.71686 c 8.42651,13.48193 7.50368,29.25754 -2.06119,35.23581 -9.56489,5.97828 -24.14981,-0.10464 -32.57631,-13.58658 -8.42651,-13.48192 -7.50369,-29.25754 2.0612,-35.23582 9.56488,-5.97825 24.14979,0.10467 32.5763,13.58659 z" style="fill:#000000;fill-opacity:1;stroke:none"/></g></g></g></g><path id="path22434" style="fill:#cc0000;fill-opacity:1;fill-rule:evenodd;stroke:none" d="m 3739.5066,17.272048 132.6693,76.6661 22.7989,-42.6961 -122.9068,-71.2985 -32.5614,37.3285 z"/><path id="path22436" style="fill:#cc0000;fill-opacity:1;fill-rule:evenodd;stroke:none" d="m 3593.2134,-123.91595 184.8717,107.281198 -24.1186,42.1853 -184.1487,-106.0376 23.3956,-43.428898 z"/></g></g></svg>