<?xml version="1.0" encoding="UTF-8" standalone="no"?>
<svg xmlns:dc="http://purl.org/dc/elements/1.1/" xmlns:cc="http://creativecommons.org/ns#" xmlns:rdf="http://www.w3.org/1999/02/22-rdf-syntax-ns#" xmlns:svg="http://www.w3.org/2000/svg" xmlns="http://www.w3.org/2000/svg" xmlns:sodipodi="http://sodipodi.sourceforge.net/DTD/sodipodi-0.dtd" xmlns:inkscape="http://www.inkscape.org/namespaces/inkscape" id="svg3741" version="1.1" viewBox="0 0 500 500"><defs id="defs3743"><linearGradient id="linearGradient4573-9-549"><stop id="stop33336" offset="0" style="stop-color:#ffffff;stop-opacity:1;"/><stop id="stop33338" offset="1" style="stop-color:#ffffff;stop-opacity:0;"/></linearGradient></defs><metadata id="metadata3746"><rdf:RDF><cc:Work rdf:about=""><dc:format>image/svg+xml</dc:format><dc:type rdf:resource="http://purl.org/dc/dcmitype/StillImage"/><dc:title/></cc:Work></rdf:RDF></metadata><g id="layer1" transform="translate(166.55668,-205.64807)"><g id="g22366" transform="translate(-4259.102,-724.94641)"><g id="g22368" transform="matrix(0.71174377,0,0,0.71174377,4084.5382,922.58736)"><circle id="circle22370" cy="362.5" cx="362.5" r="350" style="fill:#ffffff;stroke:#000000;stroke-width:2.5px" d="m 712.5,362.5 c 0,193.29966 -156.70034,350 -350,350 -193.29966,0 -350,-156.70034 -350,-350 0,-193.29966 156.70034,-350 350,-350 193.29966,0 350,156.70034 350,350 z"/><circle id="circle22372" style="fill:none;stroke:#cc0000;stroke-width:83.75" r="295" cy="362.5" cx="362.5" d="m 657.5,362.5 c 0,162.924 -132.076,295 -295,295 -162.924,0 -295,-132.076 -295,-295 0,-162.924 132.076,-295 295,-295 162.924,0 295,132.076 295,295 z"/></g><g transform="matrix(0.40551557,0,0,0.40551557,4140.4227,978.81097)" style="display:inline" id="g22374"><g id="g22376" transform="matrix(0.8987238,-0.26687559,0.19363981,0.65209673,-88.090931,208.02409)"><g id="g22378" transform="matrix(0.99788354,-0.06502645,0.06502645,0.99788354,177.99437,128.02718)"><path id="path22380" d="m 300.5625,327.59375 c -120.84791,-0.3106 -171.21875,95.125 -171.21875,95.125 127.95855,59.9727 217.28497,56.74154 338.625,0 0,0 -46.55834,-94.8144 -167.40625,-95.125 z m -95,67.53125 c 3.65071,0.0512 7.01459,1.32444 9.59375,3.90625 6.87777,6.88481 5.55006,20.50913 -2.96875,30.4375 -8.37189,9.75714 -20.60068,12.33799 -27.5625,5.8125 l -0.3125,-0.3125 c -6.87777,-6.88481 -5.55006,-20.50913 2.96875,-30.4375 5.32426,-6.20523 12.19673,-9.49166 18.28125,-9.40625 z m 184.28125,0.9375 c 6.08452,-0.0798 12.95699,3.01192 18.28125,8.8125 8.51881,9.28093 9.84652,22.00165 2.96875,28.4375 l -0.3125,0.28125 c -6.96182,6.09996 -19.19061,3.71461 -27.5625,-5.40625 -8.51881,-9.28093 -9.84652,-22.0329 -2.96875,-28.46875 2.57916,-2.41344 5.94304,-3.60834 9.59375,-3.65625 z M 299.75,405.59375 c 4.75279,-0.17737 9.60374,1.1786 13.8125,4.21875 10.36003,7.48344 12.93415,22.30212 5.75,33.09375 -7.06025,10.6055 -20.96157,13.40537 -31.3125,6.3125 l -0.4375,-0.3125 c -10.36003,-7.48344 -12.93415,-22.30212 -5.75,-33.09375 4.26559,-6.40753 10.99112,-9.95952 17.9375,-10.21875 z" style="fill:#000000;fill-opacity:1;stroke:#000000;stroke-width:1.25222015px;stroke-linecap:butt;stroke-linejoin:miter;stroke-opacity:1"/><path id="path22382" d="m -51.361694,545.40324 c 0,0 19.973992,-29.48542 37.505791,-50.88849 27.482076,-26.28636 68.696954,-49.52388 137.504423,-69.90661 106.02685,55.91476 219.67483,72.96176 350.97158,0 56.73831,0 95.72003,38.88296 133.90501,66.86124 22.59312,24.30316 41.10521,53.93386 41.10521,53.93386 0,0 -170.90697,116.80264 -348.06802,115.47269 C 124.40126,659.54598 -51.361694,545.40324 -51.361694,545.40324 z" style="fill:#000000;fill-opacity:1;stroke:#000000;stroke-width:1.25222015px;stroke-linecap:butt;stroke-linejoin:miter;stroke-opacity:1"/></g><path style="fill:#000000;fill-opacity:1;stroke:#000000;stroke-width:1.25222015px;stroke-linecap:butt;stroke-linejoin:miter;stroke-opacity:1" d="m 338.3592,750.32881 c -5.60607,10.12242 -80.89154,205.44467 -77.07847,194.68676 3.81308,-10.75793 83.03618,-191.56597 83.03618,-191.56597 l -5.95771,-3.12079 z" id="path22384"/><path id="path22386" d="m 679.98972,737.74657 c 5.39737,10.23522 127.56209,180.21893 120.65086,171.13561 -6.91126,-9.08335 -114.7763,-174.41024 -114.7763,-174.41024 l -5.87456,3.27463 z" style="fill:#000000;fill-opacity:1;stroke:#000000;stroke-width:1.25222015px;stroke-linecap:butt;stroke-linejoin:miter;stroke-opacity:1"/><path id="path22388" d="m 415.38606,770.4655 c -2.13884,7.07964 -23.89182,138.1266 -22.89163,130.96524 1.0002,-7.1614 26.7936,-130.08232 26.7936,-130.08232 l -3.90197,-0.88292 z" style="fill:#000000;fill-opacity:1;stroke:#000000;stroke-width:1.25222015px;stroke-linecap:butt;stroke-linejoin:miter;stroke-opacity:1"/><path style="fill:#000000;fill-opacity:1;stroke:#000000;stroke-width:1.25222015px;stroke-linecap:butt;stroke-linejoin:miter;stroke-opacity:1" d="m 612.04477,759.75176 c 1.96209,7.13065 53.37649,129.61761 50.40726,123.0245 -2.96923,-6.59316 -46.63484,-124.35632 -46.63484,-124.35632 l -3.77242,1.33182 z" id="path22390"/></g></g></g></g></svg>