<?xml version="1.0" encoding="UTF-8" standalone="no"?>
<svg xmlns:dc="http://purl.org/dc/elements/1.1/" xmlns:cc="http://creativecommons.org/ns#" xmlns:rdf="http://www.w3.org/1999/02/22-rdf-syntax-ns#" xmlns:svg="http://www.w3.org/2000/svg" xmlns="http://www.w3.org/2000/svg" xmlns:sodipodi="http://sodipodi.sourceforge.net/DTD/sodipodi-0.dtd" xmlns:inkscape="http://www.inkscape.org/namespaces/inkscape" id="svg3741" version="1.1" viewBox="0 0 500 500"><defs id="defs3743"><linearGradient id="linearGradient4573-9-549"><stop id="stop33336" offset="0" style="stop-color:#ffffff;stop-opacity:1;"/><stop id="stop33338" offset="1" style="stop-color:#ffffff;stop-opacity:0;"/></linearGradient></defs><metadata id="metadata3746"><rdf:RDF><cc:Work rdf:about=""><dc:format>image/svg+xml</dc:format><dc:type rdf:resource="http://purl.org/dc/dcmitype/StillImage"/><dc:title/></cc:Work></rdf:RDF></metadata><g id="layer1" transform="translate(10.96158,-391.4255)"><g transform="translate(801.33627,-4159.585)" id="g23552"><g id="g23134" transform="translate(1241.6084,-6.2707501)"><path id="path23136" style="fill:#ffffff;fill-opacity:1;fill-rule:evenodd;stroke:#000000;stroke-width:2.12320876;stroke-linecap:butt;stroke-linejoin:miter;stroke-miterlimit:4;stroke-opacity:1;stroke-dasharray:none" d="m -2025.5137,4558.3561 445.4518,0 c 11.4712,0.8402 24.4698,12.5854 25.1004,26.4218 l 0,445.0331 c 0.053,10.9647 -12.5081,25.7071 -26.689,26.4218 l -444.8164,0 c -13.8114,0 -26.3713,-12.2808 -26.3713,-26.7402 l 0.6355,-444.3963 c 0,-14.3585 9.3364,-26.7402 26.689,-26.7402 z"/><path id="path23138" style="fill:#003399;fill-opacity:1;fill-rule:evenodd;stroke:#003399;stroke-width:1.06160438px;stroke-linecap:butt;stroke-linejoin:miter;stroke-opacity:1" d="m -1640.9504,4570.276 0,0.033 -327.6884,0 0,0.033 -52.5654,0 c -12.4731,-0.5471 -19.5924,7.9901 -19.1237,21.651 l 0,431.8562 c 0.049,9.2099 3.9541,20.2646 16.638,20.4887 l 54.4214,0 328.3181,-0.066 0,0.033 56.8077,0 c 12.6839,-0.224 16.6217,-11.2787 16.6711,-20.4886 l 0,-431.8896 c 0.4687,-13.6608 -6.6505,-22.1981 -19.1237,-21.6509 l -54.3551,0 z m 0,70.6644 0,332.5011 -325.8987,0.2325 0,-332.6672 325.8987,-0.066 z"/></g><g id="g23479" transform="matrix(0.35406865,0,0,0.35406865,-2811.559,4125.5934)"><g transform="translate(5995.763,1094.1143)" id="g23481"><path id="path23483" d="m 544.85084,772.49064 c -67.09654,5.61716 -144.8763,31.93062 -194.8698,90.11307 -9.4788,26.47674 -8.58899,49.96463 -3.59577,79.53886 4.91929,29.13631 33.17926,50.9753 86.40199,67.21413 67.59932,20.6253 162.60608,13.868 162.60608,13.868 -29.684,-96.65643 -35.65973,-183.85777 -50.5425,-250.73406 z" style="fill:none;stroke:#000000;stroke-width:5.26375008;stroke-linecap:butt;stroke-linejoin:miter;stroke-miterlimit:4;stroke-opacity:1;stroke-dasharray:none"/><path style="fill:none;stroke:#000000;stroke-width:5.26375008;stroke-linecap:butt;stroke-linejoin:miter;stroke-miterlimit:4;stroke-opacity:1;stroke-dasharray:none" d="m 543.90007,776.39368 c -65.28346,5.46537 -140.96146,31.0678 -189.60405,87.67805 -9.22267,25.76128 -8.3569,48.6145 -3.49861,77.38956 4.78636,28.349 32.28269,49.59786 84.06725,65.39791 65.77267,20.0679 158.21217,13.4932 158.21217,13.4932 -28.8819,-94.04456 -34.69615,-178.88956 -49.17676,-243.95872 z" id="path23485"/><path id="path23487" d="m 581.69905,1024.3873 c 62.06949,-7.5218 88.75836,-28.21904 100.46019,-49.5087 11.70184,-21.28967 17.26209,-52.90544 0.21215,-116.97999 -9.21669,36.70887 -11.15574,41.66976 -42.44716,75.0272 -29.16623,13.38963 -57.77645,10.74945 -85.54253,-16.22665 l 27.31735,107.68814 z" style="fill:none;stroke:#000000;stroke-width:5.26375008;stroke-linecap:butt;stroke-linejoin:miter;stroke-miterlimit:4;stroke-opacity:1;stroke-dasharray:none"/><path id="path23489" d="m 479.12881,970.91608 c 31.85362,-13.61416 80.83132,-28.4312 90.4971,-101.29098 4.30062,-32.41769 7.97944,-63.28556 -11.40103,-106.82235 -17.80418,-39.99578 -84.06614,-7.48202 -82.98409,20.19755 1.31579,33.6591 -4.19446,43.72695 -17.24649,64.65203 -17.995,5.15445 -46.53238,27.79574 -59.20415,50.32832 -20.30084,36.09834 -9.26569,58.23394 8.94487,72.5987 18.30163,14.43658 48.9158,9.94377 71.39379,0.33673 z" style="fill:none;stroke:#000000;stroke-width:5.26375008;stroke-miterlimit:4;stroke-opacity:1;stroke-dasharray:none"/><path style="fill:none;stroke:#000000;stroke-width:5.26375008;stroke-miterlimit:4;stroke-opacity:1;stroke-dasharray:none" d="m 478.34563,969.7744 c 41.22686,-19.42237 80.22906,-41.21452 84.97288,-97.86232 2.55064,-30.4582 6.16771,-62.74878 -12.03809,-103.64674 -16.72505,-37.57158 -75.13911,-4.73329 -74.87232,21.28707 0.21214,20.74582 6.77201,25.08372 -19.77522,65.75544 -16.90429,4.84203 -54.74732,2.7628 -66.65104,23.92965 -19.07038,33.91037 -17.71987,57.53109 -0.60207,71.01121 21.76589,17.14046 70.03601,28.44372 88.96586,19.52569 z" id="path23491"/><path style="fill:none;stroke:#000000;stroke-width:5.26375008;stroke-miterlimit:4;stroke-opacity:1;stroke-dasharray:none" d="m 561.42884,934.55319 c -29.40575,-24.12493 -42.67681,-36.37038 -49.33834,-80.61337 -4.57015,-30.35292 3.95405,-72.90182 33.84312,-88.37281 36.52332,-18.90496 80.86221,-41.90714 102.01722,-36.59913 16.59399,4.16359 35.84709,-18.34663 36.13978,7.67345 0.23393,20.74559 -8.98682,74.54115 -46.03484,88.01624 17.00448,4.47749 41.54618,16.64148 42.75052,39.1392 1.96583,36.72281 -14.26933,56.11481 -28.29955,69.1232 -20.31599,18.83638 -74.9003,14.90557 -91.07791,1.63322 z" id="path23493"/><path style="fill:none;stroke:#000000;stroke-width:5.26375008;stroke-linecap:butt;stroke-linejoin:miter;stroke-miterlimit:4;stroke-opacity:1;stroke-dasharray:none" d="m 463.25967,826.11645 c -38.20856,18.28241 -78.32495,50.6536 -95.40728,94.7562 0.0182,17.08048 5.49374,30.13857 14.66186,45.70811 9.03237,15.339 30.22946,21.30195 64.90149,18.48155 44.03771,-3.58225 93.56083,-31.6229 93.56083,-31.6229 -64.69286,-47.58631 -68.11109,-73.57822 -77.7169,-127.32296 z" id="path23495"/><path style="fill:none;stroke:#000000;stroke-width:5.26375008;stroke-miterlimit:4;stroke-opacity:1;stroke-dasharray:none" d="m 595.27616,1016.9497 c 92.36529,-9.2 104.10966,-69.4648 89.90715,-142.89832 -5.27331,40.33541 -22.84826,62.57752 -49.37843,70.39135 -14.54066,4.28261 -40.50671,7.42176 -59.84273,0.40166 l 19.31401,72.10531 z" id="path23497"/><path style="fill:#ffffff;fill-opacity:1;fill-rule:evenodd;stroke:#000000;stroke-width:5.26375008;stroke-miterlimit:4;stroke-opacity:1;stroke-dasharray:none" d="m 473.16141,757.36352 c -10.09725,-13.44919 -28.52407,-36.96727 -16.70427,-46.98494 17.68337,-15.01671 24.68451,7.51468 38.64254,22.72467 -10.5533,-21.8849 -27.20419,-33.22757 -9.41906,-42.60108 16.44174,-8.66548 22.0024,16.98857 32.32069,27.37578 -5.47196,-13.25511 -15.11814,-28.54003 -4.76792,-36.27922 9.77476,-7.30883 25.01479,6.70969 37.91631,30.5668 10.95263,20.25327 18.15486,44.86569 -21.08757,73.97725 -23.73359,17.60649 -49.91481,21.2911 -72.71654,-1.71557 -9.92376,-10.01293 -21.58279,-20.95232 -22.55947,-36.18129 -1.0393,-16.20523 22.224,-5.66333 38.37529,9.1176 z" id="path23499"/><path id="path23501" d="m 463.52453,828.53379 c -37.17609,17.78837 -76.20846,49.28484 -92.8292,92.1957 0.0178,16.61894 5.3453,29.32418 14.26568,44.47299 8.7883,14.92452 29.41259,20.72634 63.14773,17.98215 42.84771,-3.48546 87.06174,-30.80354 87.06174,-30.80354 -67.49084,-44.33118 -68.54171,-82.49117 -71.64595,-123.8473 z" style="fill:#ffffff;fill-opacity:1;fill-rule:evenodd;stroke:#000000;stroke-width:5.26375008;stroke-linecap:butt;stroke-linejoin:miter;stroke-miterlimit:4;stroke-opacity:1;stroke-dasharray:none"/><g id="g23503" style="fill:#ffffff;fill-opacity:1;stroke-width:5.26375008;stroke-miterlimit:4;stroke-dasharray:none"><path style="fill:#ffffff;fill-opacity:1;stroke:#000000;stroke-width:5.26375008;stroke-miterlimit:4;stroke-opacity:1;stroke-dasharray:none" d="m 398.04252,891.25713 c -13.38958,40.51956 -44.00084,71.18263 -77.38454,89.09874 -34.55441,18.68312 -73.03029,24.38253 -109.64592,20.04603 -7.93858,3.7383 -11.38227,16.1875 -21.3913,15.5715 -7.77687,1.5485 -16.06674,-0.9814 -22.98216,-4.6677 -9.93588,-3.5435 -9.18712,-18.21471 -10.95958,-25.67699 -41.65204,-18.50381 -79.309492,-52.70535 -96.777906,-101.15235 -9.21266,-24.09045 -12.099838,-51.77954 -7.119608,-78.52585 -0.26636,-5.83489 5.517851,-16.7091 -1.240442,-18.63302 -5.166404,0.98741 -10.540998,-0.93513 -12.917084,-5.0655 -5.673182,7.45314 -16.36668,7.88767 -16.993713,-3.70857 -1.010885,-13.2145 14.449481,-10.13433 21.285582,-15.99822 8.845101,-1.27923 7.035407,13.94582 17.146087,9.50808 6.438693,-3.72429 8.757747,-17.71645 15.147054,-24.30017 25.514433,-38.79976 64.99802,-62.81129 104.99932,-71.88313 15.09998,-3.53455 30.42913,-5.14176 45.63722,-4.93294 1.78076,-10.24619 7.66591,-24.54992 18.51405,-22.17118 11.24754,1.4693 23.29736,5.32025 30.54768,15.56557 4.36869,5.82124 -0.33867,16.78343 8.74562,16.19031 41.71352,13.89008 80.57692,41.77561 103.76771,84.4112 16.66346,29.64896 24.81175,67.21425 17.13068,103.59781 -1.43417,7.67004 -3.31723,15.25205 -5.50875,22.72638 z" id="path23505"/><path id="path23507" d="m 398.04252,891.25713 c -13.38958,40.51956 -44.00084,71.18263 -77.38454,89.09874 -34.55441,18.68312 -73.03029,24.38253 -109.64592,20.04603 -7.93858,3.7383 -11.38227,16.1875 -21.3913,15.5715 -7.77687,1.5485 -16.06674,-0.9814 -22.98216,-4.6677 -9.93588,-3.5435 -9.18712,-18.21471 -10.95958,-25.67699 -41.65204,-18.50381 -79.309492,-52.70535 -96.777906,-101.15235 -9.21266,-24.09045 -12.099838,-51.77954 -7.119608,-78.52585 -0.26636,-5.83489 5.517851,-16.7091 -1.240442,-18.63302 -5.166404,0.98741 -10.540998,-0.93513 -12.917084,-5.0655 -5.673182,7.45314 -16.36668,7.88767 -16.993713,-3.70857 -1.010885,-13.2145 14.449481,-10.13433 21.285582,-15.99822 8.845101,-1.27923 7.035407,13.94582 17.146087,9.50808 6.438693,-3.72429 8.757747,-17.71645 15.147054,-24.30017 25.514433,-38.79976 64.99802,-62.81129 104.99932,-71.88313 15.09998,-3.53455 30.42913,-5.14176 45.63722,-4.93294 1.78076,-10.24619 7.66591,-24.54992 18.51405,-22.17118 11.24754,1.4693 23.29736,5.32025 30.54768,15.56557 4.36869,5.82124 -0.33867,16.78343 8.74562,16.19031 41.71352,13.89008 80.57692,41.77561 103.76771,84.4112 16.66346,29.64896 24.81175,67.21425 17.13068,103.59781 -1.43417,7.67004 -3.31723,15.25205 -5.50875,22.72638 z" style="fill:#ffffff;fill-opacity:1;stroke:#000000;stroke-width:5.26375008;stroke-miterlimit:4;stroke-opacity:1;stroke-dasharray:none"/><path id="path23509" d="m 356.63587,864.89132 c -3.31104,10.85825 -8.63004,20.65201 -14.82337,29.73569 -5.0611,8.87853 -11.13183,16.67098 -17.68356,24.12574 -6.20626,7.7687 -15.54946,8.7452 -23.12597,13.85266 -11.16147,4.4632 -22.95235,8.28448 -34.55209,6.09674 -7.58974,0.90623 -16.83702,-3.85796 -22.78225,-2.56891 -1.99483,8.54826 0.54244,18.73152 -4.37484,26.1373 -7.49422,2.95964 2.6839,-11.40517 0.78939,-16.23611 1.15698,-10.70509 -1.82024,-22.3843 -9.86219,-27.92383 -3.64319,-2.19821 -5.78809,-9.68817 0.36424,-4.91432 8.0257,4.23217 9.01285,17.43875 17.71197,20.0169 8.41801,1.40848 16.98671,2.39643 25.5557,2.67332 8.3799,0.36778 16.23532,-3.28288 24.21989,-6.15597 11.77266,-4.88577 24.42318,-11.01145 31.7144,-23.72693 6.889,-8.3247 11.97395,-18.10635 17.74663,-27.37061 3.85158,-9.09301 8.70782,-18.66201 7.58608,-28.87174 -1.26885,-14.91918 -4.11415,-29.5127 -9.15872,-43.08421 -2.26355,-10.44884 -7.73014,-18.65118 -14.76823,-25.20807 -6.49268,-6.59945 -13.54358,-12.61246 -21.26437,-17.25775 -9.19464,-4.68534 -19.58505,-6.00286 -29.47912,-7.9652 -7.6039,-0.87007 -14.79389,2.16924 -20.69488,8.04536 -2.77848,3.17983 -15.95001,7.27867 -7.88661,0.95342 7.92001,-4.40904 16.70416,-10.38626 17.53242,-21.53763 2.27054,-9.28411 4.33446,-19.25499 2.02541,-28.49702 4.752,-6.16806 4.75659,9.91934 3.64005,13.58088 0.27557,7.61494 -5.75731,19.57159 -2.38208,24.295 10.97338,-0.66522 21.62545,2.30879 32.02758,5.25136 15.06342,5.52968 26.76181,18.32207 37.83012,30.53181 6.00805,10.57728 8.7645,23.27592 12.12798,35.33042 2.03739,11.65716 4.69275,23.65457 3.28738,35.83494 -0.28852,1.65729 -0.72142,3.29344 -1.32096,4.85676 z" style="fill:#ffffff;fill-opacity:1;stroke:#000000;stroke-width:5.26375008;stroke-miterlimit:4;stroke-opacity:1;stroke-dasharray:none"/><path id="path23511" d="m 262.59461,689.7588 c -6.45942,-1.66891 7.65275,-14.46432 -1.94603,-16.94058 -5.26458,-4.46936 -20.31273,-9.58211 -22.14596,0.91917 0.79338,3.24408 4.48552,15.57585 -1.24283,8.60656 -5.82295,-9.91515 2.45333,-22.58274 12.4361,-17.76968 7.64953,1.24429 19.87093,5.48938 16.42851,17.23013 -0.56618,2.88086 -1.50366,5.91775 -3.52979,7.9544 z" style="fill:#ffffff;fill-opacity:1;stroke:#000000;stroke-width:5.26375008;stroke-miterlimit:4;stroke-opacity:1;stroke-dasharray:none"/><path id="path23513" d="m 195.02927,999.79185 c -8.33025,4.80665 -19.39232,6.07225 -25.79517,-1.84815 -3.50777,-4.27834 4.40342,-17.3773 5.34149,-10.30951 -7.06253,10.25696 7.6235,15.86231 14.34454,11.52054 5.98455,-0.38446 4.65879,-7.98067 4.38827,-10.32962 4.57102,-1.30969 5.04654,8.94586 1.72087,10.96674 z" style="fill:#ffffff;fill-opacity:1;stroke:#000000;stroke-width:5.26375008;stroke-miterlimit:4;stroke-opacity:1;stroke-dasharray:none"/><path id="path23515" d="m 193.77473,818.18675 c -9.57397,9.17112 -16.8123,-14.239 -4.96955,-15.84926 7.64369,-2.12142 12.29957,11.25542 4.96955,15.84926 z" style="fill:#ffffff;fill-opacity:1;stroke:#000000;stroke-width:5.26375008;stroke-miterlimit:4;stroke-opacity:1;stroke-dasharray:none"/><path id="path23517" d="m 181.58905,847.97209 c -9.57397,9.17112 -16.81234,-14.23899 -4.96957,-15.84927 7.64369,-2.12141 12.29955,11.25539 4.96957,15.84927 z" style="fill:#ffffff;fill-opacity:1;stroke:#000000;stroke-width:5.26375008;stroke-miterlimit:4;stroke-opacity:1;stroke-dasharray:none"/><path id="path23519" d="m 178.49886,781.68379 c -5.00438,3.77175 -10.34437,19.41641 -14.48991,16.3369 2.11846,-7.84378 9.5041,-19.69921 15.5613,-20.228 0.4651,1.3048 -0.17275,2.95425 -1.07139,3.8911 z" style="fill:#ffffff;fill-opacity:1;stroke:#000000;stroke-width:5.26375008;stroke-miterlimit:4;stroke-opacity:1;stroke-dasharray:none"/><path id="path23521" d="m 157.59931,865.59197 c -6.02105,-7.19724 -5.53465,-18.63901 -6.95251,-28.0686 7.3231,-2.53409 3.13327,12.86762 6.93193,17.49836 0.8991,3.26493 2.07875,7.329 0.0206,10.57024 z" style="fill:#ffffff;fill-opacity:1;stroke:#000000;stroke-width:5.26375008;stroke-miterlimit:4;stroke-opacity:1;stroke-dasharray:none"/><path id="path23523" d="m 68.937628,797.06573 c -9.777308,-2.44247 0.08637,-23.16955 -12.561612,-21.79077 -4.944083,1.42062 -11.160246,0.54354 -9.847498,-6.74659 -6.541583,-7.8479 -15.052465,7.19507 -22.213753,4.99327 -4.298603,9.39394 7.97778,15.30971 11.655213,5.16278 6.430516,-1.78439 9.846968,10.77718 17.13882,4.71984 7.431357,3.10686 1.539137,25.8318 15.139076,18.50199 1.600069,-0.95953 1.905915,-3.49001 0.689754,-4.84052 z" style="fill:#ffffff;fill-opacity:1;stroke:#000000;stroke-width:5.26375008;stroke-miterlimit:4;stroke-opacity:1;stroke-dasharray:none"/></g><path style="fill:#ffffff;fill-opacity:1;stroke:#ffffff;stroke-width:5.08289289;stroke-linecap:butt;stroke-linejoin:miter;stroke-miterlimit:4;stroke-opacity:1;stroke-dasharray:none" d="m 482.60734,800.97832 -0.34993,-10.32418 34.52605,-1.27459 -3.6159,10.83401 -20.99558,8.53975 -9.56464,-7.77499 z" id="path23525"/><path id="path23527" d="m 579.48709,948.4196 c -52.6105,-30.18569 -61.59184,-49.4162 -69.75916,-92.89419 -4.25043,-22.62672 3.20423,-76.73362 34.01803,-92.2719 39.30964,-19.82243 82.25072,-45.27455 105.01129,-39.71477 17.85338,4.36109 37.45874,-22.59423 37.76601,4.69051 0.24557,21.75388 -0.81425,64.15286 -38.52464,95.55416 18.29497,4.69013 29.55121,16.8745 35.19083,33.71063 13.69796,40.89293 13.3392,77.84106 -9.16133,105.51056 -18.42635,22.65939 -75.22431,-3.50187 -94.54103,-14.585 z" style="fill:#ffffff;fill-opacity:1;fill-rule:evenodd;stroke:#000000;stroke-width:5.26375008;stroke-miterlimit:4;stroke-opacity:1;stroke-dasharray:none"/><path id="path23529" d="m 675.96082,753.29056 c -17.89435,20.05048 -50.98298,18.33767 -88.31029,-14.42673 -22.28315,-19.94447 -77.22629,-48.23612 -60.02844,-72.13371 11.47647,-15.94734 25.78937,1.34317 35.43098,4.99464 -6.15672,-8.79563 -26.54395,-19.05255 -11.28659,-33.58041 12.30975,-11.7212 20.68128,7.75506 31.2925,13.69281 -6.79055,-9.99805 -22.0214,-23.31332 -8.5974,-37.46349 12.98985,-13.69256 21.86617,11.11718 31.6065,19.18437 -5.7092,-12.03834 -14.67469,-26.62443 -1.08095,-29.86724 11.49328,-2.74175 7.20033,-2.3449 37.43069,29.15707 33.60256,35.01604 54.86647,96.54991 33.543,120.44269 z" style="fill:#ffffff;fill-opacity:1;fill-rule:evenodd;stroke:#000000;stroke-width:5.26375008;stroke-miterlimit:4;stroke-opacity:1;stroke-dasharray:none"/><path style="fill:#ffffff;fill-opacity:1;stroke:#ffffff;stroke-width:1px;stroke-linecap:butt;stroke-linejoin:miter;stroke-opacity:1" d="m 594.46429,738.96932 -8.92857,6.42858 c 0,0 44.64285,47.14285 45.53571,47.14285 0.89286,0 39.46429,-22.5 39.46429,-22.5 l 13.03571,-23.39285 -2.14286,-25.89286 -32.85714,8.75 -36.78571,-1.07143 -17.32143,10.53571 z" id="path23531"/></g><path id="path23533" d="m 6481.3618,2107.3698 c -43.6335,-5.4503 -95.7123,-25.6403 -114.4374,-44.3654 -10.4769,-10.4769 -10.8612,-11.379 -6.5817,-15.4498 2.5369,-2.4133 5.0071,-3.1607 5.591,-1.6918 5.2012,13.0832 14.6045,24.5923 24.7182,30.2536 10.6755,5.9758 14.4376,6.5592 40.7099,6.3141 32.429,-0.3027 56.9732,-6.696 92.7924,-24.1706 l 19.1352,-9.3352 -5.3467,-5.6914 c -5.1877,-5.522 -5.2024,-5.8221 -0.4935,-10.0835 5.5617,-5.0333 9.9535,-5.6118 12.4114,-1.6349 0.9372,1.5165 6.1674,19.8718 11.6225,40.7895 l 9.9185,38.0321 -35.8094,-0.3329 c -19.6951,-0.1831 -44.0988,-1.3683 -54.2304,-2.6338 z" style="fill:#000000"/><path id="path23535" d="m 6586.8947,2080.3193 c -3.7889,-14.6089 -6.8799,-27.4803 -6.8688,-28.603 0.011,-1.1227 3.2767,-0.3958 7.2569,1.6153 10.3784,5.244 39.6161,14.1794 52.1508,15.938 5.8868,0.8259 14.69,0.3583 19.5625,-1.0391 4.8726,-1.3975 9.3067,-2.0933 9.8536,-1.5464 0.547,0.547 -2.7325,5.2392 -7.2877,10.4273 -9.8787,11.2512 -35.4808,24.1988 -54.2524,27.4366 l -13.526,2.3331 -6.8889,-26.5618 z" style="fill:#000000"/><path id="path23537" d="m 6403.0474,2069.9038 c -13.7342,-5.1379 -17.6818,-8.9558 -24.5339,-23.7278 l -5.9582,-12.8448 9.0127,-13.574 c 8.6894,-13.0872 19.5306,-39.38 19.5306,-47.3668 0,-4.9695 21.9386,-23.8732 40.1502,-34.596 l 14.1446,-8.3283 3.0843,21.1611 c 1.7517,12.0184 6.3246,28.0673 10.5841,37.1457 7.4539,15.8867 27.4913,38.9413 45.1413,51.9388 l 9.1571,6.7432 -10.4729,5.288 c -36.0546,18.2045 -87.1435,26.6516 -109.8399,18.1609 z" style="fill:#000000"/><path id="path23539" d="m 6406.3618,1935.3977 c 0,-7.9942 -0.2961,-15.3048 -0.6579,-16.2458 -1.916,-4.9829 56.0551,-30.6112 60.0978,-26.5685 0.8849,0.8849 0.8034,6.1296 -0.1812,11.6547 -1.6226,9.1055 -3.2913,10.7847 -17.8287,17.9405 -8.8212,4.3421 -21.7516,12.3631 -28.7343,17.8244 l -12.6957,9.9296 0,-14.5349 z" style="fill:#000000"/><path id="path23541" d="m 6040.6523,1865.9723 c -0.053,-2.3867 -2.055,-3.0791 -6.0229,-2.0832 -3.2686,0.8204 -7.555,0.4952 -9.5254,-0.7225 -2.5746,-1.5912 -0.8346,-3.121 6.1852,-5.4377 11.5153,-3.8004 16.7841,-0.8114 12.2674,6.9593 -1.7863,3.0732 -2.8536,3.5451 -2.9043,1.2841 z" style="fill:#000000"/><path id="path23543" d="m 6058.0167,1892.8318 c -0.3316,-0.8723 -1.2144,-4.1605 -1.9618,-7.3072 -1.5687,-6.6052 -2.7541,-8.9077 -5.3866,-10.4628 -1.7146,-1.0128 -2.0166,-1.0208 -3.3467,-0.089 -2.1607,1.5134 -2.906,1.3138 -7.2298,-1.9365 -3.4127,-2.5654 -4.3664,-2.9605 -7.1457,-2.9605 -2.8913,0 -3.307,0.1926 -4.218,1.9542 -1.411,2.7286 -3.0652,3.4984 -4.8425,2.2535 -2.1548,-1.5092 -1.7749,-3.1563 0.9558,-4.1437 1.3053,-0.472 4.1918,-1.9889 6.4144,-3.3709 5.805,-3.6095 7.3992,-3.6842 8.0199,-0.3761 0.2309,1.231 1.2999,3.0813 2.3755,4.1119 1.8211,1.7447 2.338,1.8776 7.5062,1.9301 3.0528,0.031 5.7237,0.2295 5.9355,0.4413 0.6312,0.6312 1.5531,5.2455 1.57,7.8581 0.03,4.6223 1.3662,9.0119 3.3464,10.9922 1.5579,1.5578 1.7173,1.9754 0.8775,2.2976 -1.7348,0.6657 -2.2442,0.4541 -2.8701,-1.1921 l 0,0 z" style="fill:#000000"/><path id="path23545" d="m 6182.9872,1909.3849 c -1.5606,-2.5595 -1.7321,-7.2128 -0.3179,-8.627 2.0785,-2.0785 3.7525,-2.0301 5.7139,0.165 2.5877,2.8961 2.4662,5.5082 -0.3888,8.3633 -1.2303,1.2303 -2.5669,2.2369 -2.9702,2.2369 -0.4034,0 -1.32,-0.9622 -2.037,-2.1382 z" style="fill:#000000"/><path id="path23547" d="m 6171.3186,1940.306 c -2.3782,-2.9964 -2.4705,-9.1287 -0.1561,-10.3674 3.5697,-1.9104 6.5687,0.2846 6.5687,4.8078 0,3.9904 -4.5365,7.9234 -6.4126,5.5596 z" style="fill:#000000"/></g></g></g></svg>