<?xml version="1.0" encoding="UTF-8" standalone="no"?>
<svg xmlns:dc="http://purl.org/dc/elements/1.1/" xmlns:cc="http://creativecommons.org/ns#" xmlns:rdf="http://www.w3.org/1999/02/22-rdf-syntax-ns#" xmlns:svg="http://www.w3.org/2000/svg" xmlns="http://www.w3.org/2000/svg" xmlns:sodipodi="http://sodipodi.sourceforge.net/DTD/sodipodi-0.dtd" xmlns:inkscape="http://www.inkscape.org/namespaces/inkscape" id="svg3741" version="1.1" viewBox="0 0 500 440"><defs id="defs3743"><linearGradient id="linearGradient4573-9-549"><stop id="stop33336" offset="0" style="stop-color:#ffffff;stop-opacity:1;"/><stop id="stop33338" offset="1" style="stop-color:#ffffff;stop-opacity:0;"/></linearGradient></defs><metadata id="metadata3746"><rdf:RDF><cc:Work rdf:about=""><dc:format>image/svg+xml</dc:format><dc:type rdf:resource="http://purl.org/dc/dcmitype/StillImage"/><dc:title/></cc:Work></rdf:RDF></metadata><g id="layer1" transform="translate(-13.722635,-258.03478)"><g id="g57169" transform="translate(-2539.3096,-2004.3138)"><g id="g36281" transform="translate(-3048.9843,92.26638)"><g transform="translate(1516.1557,641.5286)" id="g36283"><g transform="matrix(0.99999834,0,0,1.0009179,6088.251,1699.3665)" id="g36285"><path id="path36287" d="m -1729.657,-157.23924 c -4.4566,-7.70081 -13.1754,-12.51819 -22.7409,-12.51819 -9.7394,0 -18.4615,5.08085 -23.0023,12.928 l -222.2004,384.02127 c -4.7688,8.24191 -5.4749,18.62338 -0.3734,27.4394 4.8697,8.41541 13.6405,13.41233 22.7223,13.41233 l 445.7076,0 c 9.0817,0 17.8525,-4.99698 22.7222,-13.41233 5.1016,-8.81596 4.3958,-19.19774 -0.3734,-27.4394 l -222.4617,-384.43108 z" style="fill:#ffffff;fill-opacity:1;fill-rule:nonzero;stroke:#000000;stroke-width:1.79633701;stroke-linecap:round;stroke-linejoin:round;stroke-miterlimit:2;stroke-opacity:1;stroke-dasharray:none;stroke-dashoffset:0"/><path style="fill:#d40000;fill-opacity:1;fill-rule:nonzero;stroke:none" d="m -1752.3918,-161.75994 c 6.5396,0 12.22,3.32868 14.949,8.05523 l 222.4555,385.3022 c 3.3263,5.76134 3.7682,12.63048 0.3746,18.50829 -3.3028,5.72052 -9.1544,8.93566 -14.9303,8.93572 l -445.7164,0 c -5.7759,0 -11.6274,-3.21508 -14.9302,-8.93572 -3.3936,-5.87781 -2.9517,-12.74635 0.3747,-18.50829 l 222.1931,-384.89007 c 2.8883,-5.0026 8.6251,-8.46736 15.23,-8.46736 z" id="path36289"/><path style="fill:#ffffff;fill-opacity:1;fill-rule:nonzero;stroke:none" d="m -1752.4105,-83.717877 170.2088,294.802657 -340.3989,0 170.1901,-294.802657 z" id="path36291"/></g></g></g><g style="fill-rule:evenodd;stroke:#000000;stroke-width:0.4485451;stroke-miterlimit:1.79999995;stroke-opacity:1;stroke-dasharray:none" id="g57131" transform="matrix(1.8125268,0,0,1.8125268,2619.9638,2276.5252)"><polyline style="fill:none;stroke:#000000;stroke-width:0.4485451;stroke-miterlimit:1.79999995;stroke-opacity:1;stroke-dasharray:none" points="71.8662,109.506 82.2346,122.579 87.5315,129.454 93.1665,135.99 97.4491,142.527 " class="fil0 str0" id="polyline57133"/><polyline style="fill:none;stroke:#000000;stroke-width:0.4485451;stroke-miterlimit:1.79999995;stroke-opacity:1;stroke-dasharray:none" points="130.132,105.787 125.624,111.534 120.215,119.874 115.03,127.876 111.537,134.187 107.141,141.963 105.084,145.46 " class="fil0 str0" id="polyline57135"/><polyline style="fill:none;stroke:#000000;stroke-width:0.4485451;stroke-miterlimit:1.79999995;stroke-opacity:1;stroke-dasharray:none" points="146.924,127.876 136.331,131.482 130.358,135.089 123.708,138.808 116.94,141.981 " class="fil0 str0" id="polyline57137"/><polyline style="fill:none;stroke:#000000;stroke-width:0.4485451;stroke-miterlimit:1.79999995;stroke-opacity:1;stroke-dasharray:none" points="153.461,159.657 146.474,158.08 136.443,154.699 128.554,153.121 119.974,151.583 " class="fil0 str0" id="polyline57139"/><polyline style="fill:none;stroke:#000000;stroke-width:0.4485451;stroke-miterlimit:1.79999995;stroke-opacity:1;stroke-dasharray:none" points="139.486,179.943 130.696,174.759 124.723,170.251 118.186,165.18 112.213,159.883 106.803,154.473 " class="fil0 str0" id="polyline57141"/><polyline style="fill:none;stroke:#000000;stroke-width:0.4485451;stroke-miterlimit:1.79999995;stroke-opacity:1;stroke-dasharray:none" points="114.241,197.186 112.213,190.762 109.17,181.408 106.352,173.294 103.986,165.518 102.354,158.803 " class="fil0 str0" id="polyline57143"/><polyline style="fill:none;stroke:#000000;stroke-width:0.4485451;stroke-miterlimit:1.79999995;stroke-opacity:1;stroke-dasharray:none" points="84.3759,197.412 86.7426,191.664 89.5601,181.972 93.0538,172.843 95.5332,165.405 97.1743,159.197 " class="fil0 str0" id="polyline57145"/><polyline style="fill:none;stroke:#000000;stroke-width:0.4485451;stroke-miterlimit:1.79999995;stroke-opacity:1;stroke-dasharray:none" points="62.0613,180.169 70.5138,174.308 76.7123,169.462 82.3473,164.503 87.2655,159.76 92.0395,154.924 94.1052,153.844 " class="fil0 str0" id="polyline57147"/><polyline style="fill:none;stroke:#000000;stroke-width:0.4485451;stroke-miterlimit:1.79999995;stroke-opacity:1;stroke-dasharray:none" points="48.5373,151.092 55.2993,151.205 65.4423,151.543 73.6694,151.43 81.6711,151.318 91.3191,150.02 " class="fil0 str0" id="polyline57149"/><polyline style="fill:none;stroke:#000000;stroke-width:0.4485451;stroke-miterlimit:1.79999995;stroke-opacity:1;stroke-dasharray:none" points="57.666,124.72 65.1042,132.609 72.7678,136.779 79.3044,140.16 86.0664,143.316 92.7157,145.457 " class="fil0 str0" id="polyline57151"/><polyline style="fill:none;stroke:#000000;stroke-width:0.4485451;stroke-miterlimit:1.79999995;stroke-opacity:1;stroke-dasharray:none" points="100.492,98.4612 101.055,105.336 101.619,114.915 102.295,123.931 102.746,132.271 102.746,140.386 103.03,144.334 " class="fil0 str0" id="polyline57153"/><path style="fill:none;stroke:#000000;stroke-width:0.4485451;stroke-miterlimit:1.79999995;stroke-opacity:1;stroke-dasharray:none" d="m 71.8662,109.506 c 0,0 5.8846,0.7665 11.7398,-0.0217 5.8552,-0.7882 10.2466,-5.3485 11.5415,-6.2493 1.2949,-0.9008 5.6863,-4.8418 5.6863,-4.8418 0,0 6.1367,5.1796 9.2332,6.5871 3.0965,1.4075 3.0965,1.6327 7.9383,1.8579 4.8418,0.2252 6.9249,-0.0563 8.5576,-0.1689 1.6327,-0.1126 3.5692,-0.8824 3.5692,-0.8824 0,0 2.7364,9.0459 3.9187,11.3542 1.1823,2.3083 3.2091,5.1233 5.63,6.9249 2.4209,1.8016 7.2436,3.8101 7.2436,3.8101 0,0 -3.2683,6.6493 -2.8175,10.9319 0.4508,4.2826 1.2397,8.1144 2.7048,11.27 1.4651,3.1556 5.9816,9.4287 5.9816,9.4287 0,0 -5.7562,5.7858 -8.1229,7.0255 -2.3667,1.2397 -3.2683,4.2826 -4.7334,7.6636 -1.4651,3.381 -0.9333,5.4632 -0.9333,5.4632 0,0 -8.6462,1.6369 -12.3653,4.1163 -3.7191,2.4794 -7.6636,6.9874 -9.016,9.1287 -1.3524,2.1413 -3.381,4.2826 -3.381,4.2826 0,0 -6.3112,-4.508 -11.9462,-3.8318 -5.635,0.6762 -11.27,1.4651 -13.9748,2.4794 -2.7048,1.0143 -3.9445,1.5778 -3.9445,1.5778 0,0 -4.6207,-7.2128 -6.5366,-9.3541 -1.9159,-2.1413 -3.381,-4.7334 -7.6636,-5.635 -4.2826,-0.9016 -7.6749,-2.5587 -7.6749,-2.5587 0,0 -1.1157,-10.6272 -2.13,-14.2336 -1.0143,-3.6064 -3.9445,-7.5509 -5.4096,-8.7906 -1.4651,-1.2397 -6.4239,-5.7477 -6.4239,-5.7477 0,0 5.9731,-5.9731 7.4382,-10.3684 1.4651,-4.3953 2.4794,-8.4525 2.4794,-10.2557 0,-1.8032 -0.7889,-5.7477 -0.7889,-5.7477 0,0 5.2969,-0.6762 8.3398,-1.0143 3.0429,-0.3381 5.1842,-3.0429 5.635,-5.0715 0.4508,-2.0286 0.5641,-8.7016 0.5641,-8.7016" class="fil0 str0" id="path57155"/><path style="fill:none;stroke:#000000;stroke-width:0.4485451;stroke-miterlimit:1.79999995;stroke-opacity:1;stroke-dasharray:none" d="m 76.0361,115.479 -0.0357,-0.7605 c 0,0 2.0643,1.7748 9.3898,0.4224 7.3255,-1.3524 9.8049,-4.7334 11.4954,-6.0858 1.6905,-1.3524 4.1248,-4.2696 4.1248,-4.2696 0,0 1.1721,2.3537 5.4547,5.622 4.2826,3.2683 7.1001,5.4096 10.7065,4.3953 3.6064,-1.0143 8.4525,-3.2683 8.4525,-3.2683 0,0 -1.5778,1.9159 0.6762,5.9731 2.254,4.0572 4.7334,8.0017 6.9874,10.0303 2.254,2.0286 4.2913,3.5195 4.2913,3.5195 0,0 -4.404,4.8203 -2.3754,10.0045 2.0286,5.1842 4.0572,8.7906 4.7334,9.5795 0.6762,0.7889 6.3112,6.5366 6.3112,6.5366 0,0 -7.1001,3.2683 -9.3541,7.1001 -2.254,3.8318 -5.4996,10.8933 -5.4996,10.8933 0,0 -8.2498,0.8275 -11.8562,5.4482 -3.6064,4.6207 -7.4382,11.0446 -7.4382,11.0446 0,0 -8.3398,-5.9731 -11.3827,-6.1985 -3.0429,-0.2254 -5.9731,0.4508 -8.5652,2.254 -2.5921,1.8032 -5.4096,3.9445 -5.4096,3.9445 0,0 0.6762,-4.508 -3.0429,-8.0017 -3.7191,-3.4937 -6.8747,-5.2969 -8.7906,-6.8747 -1.9159,-1.5778 -4.3953,-2.4794 -4.3953,-2.4794 0,0 1.3524,-8.5652 -0.4508,-11.0446 -1.8032,-2.4794 -6.762,-6.3112 -7.7763,-7.3255 -1.0143,-1.0143 -6.3112,-5.0715 -6.3112,-5.0715 0,0 4.2826,-3.6064 6.9874,-8.9033 2.7048,-5.2969 2.1413,-9.3541 2.1413,-9.3541 0,0 3.9445,-0.2254 6.6493,-2.8175 2.7048,-2.5921 4.8461,-6.5366 4.8461,-9.1287 0,-2.5921 -0.5635,-5.1842 -0.5635,-5.1842 l 0,0 z" class="fil0 str0" id="path57157"/><path style="fill:none;stroke:#000000;stroke-width:0.4485451;stroke-miterlimit:1.79999995;stroke-opacity:1;stroke-dasharray:none" d="m 82.2346,122.579 c 0,0 4.9588,1.3524 7.6636,0.4508 2.7048,-0.9016 8.0017,-3.4937 8.5652,-4.3953 0.5635,-0.9016 3.1556,-3.7191 3.1556,-3.7191 0,0 1.8032,3.381 5.5223,4.8461 3.7191,1.4651 6.1985,1.5778 8.2271,1.2397 2.0286,-0.3381 5.4096,-1.3524 5.4096,-1.3524 0,0 -0.4508,6.4239 2.1413,9.016 2.5921,2.5921 2.8175,3.0429 4.2826,4.1699 1.4651,1.127 3.7353,1.904 3.7353,1.904 0,0 -2.6083,4.0691 -2.1575,7.4501 0.4508,3.381 -0.4508,5.0715 2.0286,7.4382 2.4794,2.3667 5.9093,5.9929 5.9093,5.9929 0,0 -5.4585,2.2342 -6.5855,4.0374 -1.127,1.8032 -3.7915,5.3903 -4.7334,7.889 -0.9419,2.4987 -0.2254,3.7191 -0.2254,3.7191 0,0 -6.3112,-1.3524 -8.6779,0.7889 -2.3667,2.1413 -5.9731,5.2969 -6.6493,6.762 -0.6762,1.4651 -0.6762,2.5921 -0.6762,2.5921 0,0 -8.5652,-3.8318 -10.5938,-3.4937 -2.0286,0.3381 -9.016,4.0572 -9.016,4.0572 0,0 -2.1413,-6.762 -5.0715,-8.9033 -2.9302,-2.1413 -7.7763,-3.6064 -7.7763,-3.6064 0,0 0.7889,-3.8318 0,-7.1001 -0.7889,-3.2683 -2.7048,-5.2969 -4.3953,-6.762 -1.6905,-1.4651 -7.3255,-4.7334 -7.3255,-4.7334 0,0 1.3524,-0.5635 3.6064,-2.254 2.254,-1.6905 4.508,-4.6207 4.508,-7.2128 0,-2.5921 0.0207,-4.4351 0.0207,-4.4351 0,0 4.2619,-0.1856 6.1778,-2.5523 1.9159,-2.3667 2.4794,-6.762 2.7048,-8.9033 0.2254,-2.1413 0.2254,-2.9302 0.2254,-2.9302 l 0,0 z" class="fil0 str0" id="path57159"/><path style="fill:none;stroke:#000000;stroke-width:0.4485451;stroke-miterlimit:1.79999995;stroke-opacity:1;stroke-dasharray:none" d="m 102.295,123.931 c 0,0 1.4651,2.4794 4.6207,3.0429 3.1556,0.5635 4.508,0.6762 5.2969,0.6762 0.7889,0 3.0717,-0.167 3.0717,-0.167 0,0 0.7601,3.6607 1.6617,5.5766 0.9016,1.9159 4.1699,3.7191 4.1699,3.7191 l 2.8598,1.8789 c 0,0 -0.9439,3.9815 -0.6058,7.1371 0.3381,3.1556 1.4651,4.0572 2.8175,5.1842 1.3524,1.127 2.3667,2.1413 2.3667,2.1413 0,0 -5.8604,3.0429 -7.1001,5.4096 -1.2397,2.3667 -2.254,4.2826 -2.254,4.2826 l -1.0143,2.3667 c 0,0 -4.2826,-1.5778 -6.6493,1.0143 -2.3667,2.5921 -3.7191,4.3953 -3.9445,5.0715 -0.2254,0.6762 -0.9953,2.7326 -0.9953,2.7326 0,0 -4.4143,-3.4088 -7.0064,-2.958 -2.5921,0.4508 -6.7911,2.4682 -6.7911,2.4682 0,0 1.6069,-3.3698 -3.69,-6.0746 -5.2969,-2.7048 -6.762,-2.9302 -6.762,-2.9302 0,0 1.5778,-2.1413 -1.0143,-6.1985 -2.5921,-4.0572 -7.2128,-6.8811 -7.2128,-6.8811 0,0 1.8032,-0.4444 3.7191,-4.5016 1.9159,-4.0572 1.4651,-6.762 1.4651,-6.762 0,0 2.4794,0.9016 5.7477,-1.9159 3.2683,-2.8175 2.4794,-8.7906 2.4794,-8.7906 0,0 0.9414,1.0362 6.0858,0.1127 5.1444,-0.9235 8.6779,-5.635 8.6779,-5.635 l 0,0 z" class="fil0 str0" id="path57161"/><path style="fill:none;stroke:#000000;stroke-width:0.4485451;stroke-miterlimit:1.79999995;stroke-opacity:1;stroke-dasharray:none" d="m 102.728,131.928 c 0,0 2.0471,2.4844 4.0757,2.7098 2.0286,0.2254 4.9772,-0.8913 4.9772,-0.8913 0,0 -0.5819,2.5818 0.5451,4.2723 1.127,1.6905 4.6146,3.962 4.6146,3.962 0,0 -1.2336,1.5603 -1.1209,3.8143 0.1127,2.254 3.1873,5.4298 3.1873,5.4298 0,0 -3.9607,1.997 -4.8778,4.3751 -0.9171,2.3781 -1.9159,4.2826 -1.9159,4.2826 0,0 -2.4223,-0.2141 -4.3953,0.5635 -1.973,0.7776 -3.8318,5.0715 -3.8318,5.0715 0,0 -2.4794,-2.0286 -4.9588,-1.3524 -2.4794,0.6762 -3.4937,1.2397 -3.4937,1.2397 0,0 -1.0143,-2.7048 -3.1556,-3.7191 -2.1413,-1.0143 -5.1121,-1.9259 -5.1121,-1.9259 0,0 1.6184,-5.0615 0.0406,-6.0758 -1.5778,-1.0143 -4.508,-2.9302 -4.508,-2.9302 0,0 0.4508,0.2254 2.3667,-2.3667 1.9159,-2.5921 1.2409,-4.9622 1.2409,-4.9622 0,0 2.1401,0.5669 3.9433,-1.5744 1.8032,-2.1413 2.4582,-6.2772 2.4582,-6.2772 0,0 2.4912,1.1199 4.5292,0.4168 2.038,-0.7031 5.3911,-4.0622 5.3911,-4.0622 l 0,0 z" class="fil0 str0" id="path57163"/><path style="fill:none;stroke:#000000;stroke-width:0.4485451;stroke-miterlimit:1.79999995;stroke-opacity:1;stroke-dasharray:none" d="m 92.6631,154.598 c 0,0 0.5034,-1.477 0.3907,-2.2659 -0.1127,-0.7889 -2.1413,-2.9302 -2.1413,-2.9302 0,0 1.6058,-2.5234 1.4674,-3.3103 -0.1384,-0.7869 1.4727,0.1567 2.8802,-0.6315 1.4075,-0.7882 1.8579,-3.0965 1.8579,-3.0965 0,0 0,0.0563 1.3512,0.2252 1.3512,0.1689 3.1528,-0.563 4.1099,-1.3512 0.9571,-0.7882 0.1669,-0.8517 0.1669,-0.8517 0,0 -0.2232,0.4576 0.6776,1.1332 0.9008,0.6756 3.6017,0.6417 3.6017,0.6417 0,0 -0.5615,0.2028 0.7897,1.1599 1.3512,0.9571 3.1885,2.6057 3.1885,2.6057 0,0 -0.3172,2.2924 -0.2046,3.0243 0.1126,0.7319 0.0773,2.2546 0.0773,2.2546 0,0 -2.1041,0.8419 -2.3856,1.1797 -0.2815,0.3378 -2.7024,0.9008 -2.7024,0.9008 l -1.3512,1.0697 c 0,0 -7.4316,0.8445 -7.9383,0.8445 -0.5067,0 -3.8356,-0.602 -3.8356,-0.602 l 0,0 z" class="fil0 str0" id="path57165"/><path style="fill:#1f1a17;stroke:#000000;stroke-width:0.4485451;stroke-miterlimit:1.79999995;stroke-opacity:1;stroke-dasharray:none" d="m 85.7454,164.264 c 0,0 0.2252,-2.8713 0.3941,-4.504 0.1689,-1.6327 1.4638,-4.0536 2.5898,-5.5174 1.126,-1.4638 1.5201,-3.378 2.5898,-4.2225 1.0697,-0.8445 1.6327,-1.689 2.1394,-1.689 0.5067,0 2.4209,0.0563 2.815,0.0563 0.3941,0 2.3083,0.0563 2.3083,0.0563 0,0 0.563,-0.7319 0.1689,-0.7319 -0.3941,0 -4.1099,-0.2815 -6.1367,-0.1689 -2.0268,0.1126 -4.2225,-0.0563 -4.8981,0.1689 -0.6756,0.2252 -1.5201,0 -1.5201,0 0,0 0.8445,-1.0697 1.2386,-1.1823 0.3941,-0.1126 3.7721,-0.4504 5.63,-0.4504 1.8579,0 3.0965,-0.0563 3.941,0.0563 0.8445,0.1126 2.1394,0.9008 2.7587,0.6756 0.6193,-0.2252 0.0563,-0.3941 -1.0697,-0.9008 -1.126,-0.5067 -2.9839,-1.0697 -3.4906,-2.0268 -0.5067,-0.9571 -0.7319,-1.689 -2.3646,-2.7587 -1.6327,-1.0697 -2.4772,-2.4209 -3.4343,-3.2091 -0.9571,-0.7882 -2.1394,-1.5201 -2.5335,-1.7453 -0.3941,-0.2252 -0.7882,-0.563 -0.7882,-0.563 0,0 3.0965,0.6756 4.0536,1.4075 0.9571,0.7319 2.1957,2.3646 2.1957,2.3646 0,0 1.7453,0.8445 2.3646,1.4075 0.6193,0.563 1.4638,0.9571 1.7453,1.4638 0.2815,0.5067 0.6193,1.0134 1.0697,1.5201 0.4504,0.5067 1.5764,0.7882 1.9705,0.9008 0.3941,0.1126 1.0697,0.7882 1.0697,0.7882 0,0 -0.9571,-1.9142 -0.9571,-5.0107 0,-3.0965 -0.1126,-4.7855 -0.4504,-6.756 -0.3378,-1.9705 0.2252,-3.2091 -0.2815,-4.7292 -0.5067,-1.5201 -0.563,-2.815 -0.9571,-3.6595 -0.3941,-0.8445 -0.9571,-3.2654 -0.9571,-3.2654 l 0,-1.0697 c 0,0 0.1689,0.7882 0.7882,1.8016 0.6193,1.0134 1.689,3.7158 2.0268,4.4477 0.3378,0.7319 1.0134,5.1233 1.0134,5.7426 0,0.6193 -0.3941,4.6729 -0.0563,5.5737 0.3378,0.9008 0.9571,4.3351 1.0134,4.7292 0.0563,0.3941 0.7882,1.5201 0.7882,1.5201 l 1.0134,-0.9008 c 0,0 1.4075,-1.4075 1.6327,-0.7319 0.2252,0.6756 -0.1689,0.2252 -0.6193,0.9008 -0.4504,0.6756 -0.1689,1.3512 -0.1689,1.3512 l 1.4075,0.1126 c 0,0 -0.2252,-1.0697 -0.2252,-1.3512 0,-0.2815 0.6756,-1.0134 0.6756,-0.563 0,0.4504 0.2252,1.3512 0.2252,1.8016 0,0.4504 0.3378,0.7319 0.3378,0.7319 0,0 1.2386,-1.3512 3.6032,-1.9705 2.3646,-0.6193 4.9544,-3.378 5.7989,-3.9973 0.8445,-0.6193 4.8981,-2.3083 5.5737,-2.4772 0.6756,-0.1689 2.7024,-1.0134 3.4906,-1.126 0.7882,-0.1126 3.2654,-0.563 3.2654,-0.563 0,0 -1.5201,1.1823 -2.0831,1.4075 -0.563,0.2252 -5.9115,1.8016 -6.5871,2.252 -0.6756,0.4504 -4.2788,3.4343 -4.6166,3.7158 -0.3378,0.2815 -3.8847,2.4209 -4.4477,2.6461 -0.563,0.2252 -2.9839,0.8445 -2.9839,1.2386 0,0.3941 0.3941,1.0134 0.7882,1.3512 0.3941,0.3378 1.3512,0.7882 2.3646,0.7882 1.0134,0 3.2654,-0.1689 4.9544,0.6193 1.689,0.7882 5.3485,1.9142 6.1367,2.4772 0.7882,0.563 1.4638,1.126 1.4638,1.126 0,0 -1.2386,-0.5067 -2.1957,-0.8445 -0.9571,-0.3378 -3.6595,-0.8445 -4.2225,-0.8445 -0.563,0 -4.2225,-0.5067 -4.7292,-0.5067 -0.5067,0 -3.4906,-0.563 -3.7721,-0.8445 -0.2815,-0.2815 -1.7453,-1.126 -1.7453,-1.126 0,0 0.2815,0.1126 1.4075,1.8579 1.126,1.7453 1.689,3.1528 1.689,3.1528 0,0 2.1957,2.4772 2.6461,2.9276 0.4504,0.4504 2.1394,1.9142 2.4209,2.8713 0.2815,0.9571 -0.8445,0.3941 -0.8445,0.3941 0,0 -2.4209,-2.6461 -2.5898,-2.9276 -0.1689,-0.2815 -2.1957,-2.5335 -2.4772,-2.9839 -0.2815,-0.4504 -1.5764,-2.1957 -1.5764,-2.1957 l -1.0134,-0.7319 c 0,0 0.3378,1.9705 0.7319,3.1528 0.3941,1.1823 0.4504,4.1099 0.3378,4.8981 -0.1126,0.7882 -0.4504,4.504 -0.4504,4.7855 0,0.2815 -0.6756,2.6461 -0.8445,3.0965 -0.1689,0.4504 -0.8445,2.4209 -0.8445,2.4209 l -0.9008,-1.2949 c 0,0 0.4504,-1.7453 0.6193,-2.0831 0.1689,-0.3378 0.3941,-1.9705 0.3941,-2.3083 0,-0.3378 0,-2.0831 0,-2.0831 l 0.563,-2.3646 c 0,0 -0.2252,-3.2091 -0.2815,-3.5469 -0.0563,-0.3378 -0.9571,-3.6595 -0.9571,-3.6595 0,0 -0.3378,0.6756 -0.4504,1.5201 -0.1126,0.8445 -0.9571,4.2788 -2.0831,4.4477 -1.126,0.1689 -3.7721,1.2386 -5.1796,0.3941 -1.4075,-0.8445 -2.7587,-1.5201 -2.8713,-3.2091 -0.1126,-1.689 -0.4504,-3.4906 -0.1126,-4.2788 0.3378,-0.7882 0.563,-1.8016 0.563,-1.8016 0,0 -1.0697,-0.2252 -1.3512,0.2815 -0.2815,0.5067 -1.7453,2.4772 -2.0831,2.9839 -0.3378,0.5067 -2.1957,2.815 -2.252,3.2654 -0.0563,0.4504 -1.5764,2.815 -1.8016,3.3217 -0.2252,0.5067 -1.126,3.4343 -1.126,3.7721 0,0.3378 -0.3941,0.7319 -0.3941,0.7319 l 0,0 z" class="fil1" id="path57167"/></g></g></g></svg>