<?xml version="1.0" encoding="UTF-8" standalone="no"?>
<svg xmlns:dc="http://purl.org/dc/elements/1.1/" xmlns:cc="http://creativecommons.org/ns#" xmlns:rdf="http://www.w3.org/1999/02/22-rdf-syntax-ns#" xmlns:svg="http://www.w3.org/2000/svg" xmlns="http://www.w3.org/2000/svg" xmlns:sodipodi="http://sodipodi.sourceforge.net/DTD/sodipodi-0.dtd" xmlns:inkscape="http://www.inkscape.org/namespaces/inkscape" id="svg3741" version="1.1" viewBox="0 0 500 500"><defs id="defs3743"><linearGradient id="linearGradient4573-9-549"><stop id="stop33336" offset="0" style="stop-color:#ffffff;stop-opacity:1;"/><stop id="stop33338" offset="1" style="stop-color:#ffffff;stop-opacity:0;"/></linearGradient></defs><metadata id="metadata3746"><rdf:RDF><cc:Work rdf:about=""><dc:format>image/svg+xml</dc:format><dc:type rdf:resource="http://purl.org/dc/dcmitype/StillImage"/><dc:title/></cc:Work></rdf:RDF></metadata><g id="layer1" transform="translate(217.54405,-412.15955)"><g transform="translate(1190.475,-4132.5802)" id="g23361"><g transform="translate(645.8872,-12.541499)" id="g22934"><path d="m -2025.5137,4558.3561 445.4518,0 c 11.4712,0.8402 24.4698,12.5854 25.1004,26.4218 l 0,445.0331 c 0.053,10.9647 -12.5081,25.7071 -26.689,26.4218 l -444.8164,0 c -13.8114,0 -26.3713,-12.2808 -26.3713,-26.7402 l 0.6355,-444.3963 c 0,-14.3585 9.3364,-26.7402 26.689,-26.7402 z" style="fill:#ffffff;fill-opacity:1;fill-rule:evenodd;stroke:#000000;stroke-width:2.12320876;stroke-linecap:butt;stroke-linejoin:miter;stroke-miterlimit:4;stroke-opacity:1;stroke-dasharray:none" id="path22936"/><path d="m -1640.9504,4570.276 0,0.033 -327.6884,0 0,0.033 -52.5654,0 c -12.4731,-0.5471 -19.5924,7.9901 -19.1237,21.651 l 0,431.8562 c 0.049,9.2099 3.9541,20.2646 16.638,20.4887 l 54.4214,0 328.3181,-0.066 0,0.033 56.8077,0 c 12.6839,-0.224 16.6217,-11.2787 16.6711,-20.4886 l 0,-431.8896 c 0.4687,-13.6608 -6.6505,-22.1981 -19.1237,-21.6509 l -54.3551,0 z m 0,70.6644 0,332.5011 -325.8987,0.2325 0,-332.6672 325.8987,-0.066 z" style="fill:#003399;fill-opacity:1;fill-rule:evenodd;stroke:#003399;stroke-width:1.06160438px;stroke-linecap:butt;stroke-linejoin:miter;stroke-opacity:1" id="path22938"/></g><g id="g6690" style="fill:none;stroke:#000000;stroke-width:21" transform="matrix(0.98712446,0,0,0.98712446,-1281.4031,4671.3624)"><circle id="circle6692" r="106" cy="125" cx="125" d="M 231,125 C 231,183.54218 183.54218,231 125,231 66.457817,231 19,183.54218 19,125 19,66.457817 66.457817,19 125,19 c 58.54218,0 106,47.457817 106,106 z"/><path id="path6694" d="m 125,19 v 212 m 0,-106 -75,75 m 75,-75 75,75"/></g></g></g></svg>