<?xml version="1.0" encoding="UTF-8" standalone="no"?>
<svg xmlns:dc="http://purl.org/dc/elements/1.1/" xmlns:cc="http://creativecommons.org/ns#" xmlns:rdf="http://www.w3.org/1999/02/22-rdf-syntax-ns#" xmlns:svg="http://www.w3.org/2000/svg" xmlns="http://www.w3.org/2000/svg" xmlns:sodipodi="http://sodipodi.sourceforge.net/DTD/sodipodi-0.dtd" xmlns:inkscape="http://www.inkscape.org/namespaces/inkscape" id="svg3741" version="1.1"  viewBox="0 0 500 500"><defs id="defs3743"><linearGradient id="linearGradient4573-9-549"><stop id="stop33336" offset="0" style="stop-color:#ffffff;stop-opacity:1;"/><stop id="stop33338" offset="1" style="stop-color:#ffffff;stop-opacity:0;"/></linearGradient><linearGradient id="linearGradient835-346"><stop id="stop11272" offset="0.0000000" style="stop-color:#ffffff;stop-opacity:0.50000000;"/><stop id="stop11274" offset="1.0000000" style="stop-color:#ffffff;stop-opacity:0.10000000;"/></linearGradient><linearGradient id="linearGradient835-223"><stop id="stop11278" offset="0.0000000" style="stop-color:#ffffff;stop-opacity:0.50000000;"/><stop id="stop11280" offset="1.0000000" style="stop-color:#ffffff;stop-opacity:0.10000000;"/></linearGradient><linearGradient id="linearGradient835-553"><stop id="stop11284" offset="0.0000000" style="stop-color:#ffffff;stop-opacity:0.50000000;"/><stop id="stop11286" offset="1.0000000" style="stop-color:#ffffff;stop-opacity:0.10000000;"/></linearGradient></defs><metadata id="metadata3746"><rdf:RDF><cc:Work rdf:about=""><dc:format>image/svg+xml</dc:format><dc:type rdf:resource="http://purl.org/dc/dcmitype/StillImage"/><dc:title/></cc:Work></rdf:RDF></metadata><g id="layer1" transform="translate(159.4277,-297.91719)"><g transform="translate(1300.0723,-651.30101)" id="g18586"><path d="m -1431.1222,950.2829 445.4537,0 c 11.4711,0.8386 24.4698,12.5614 25.1004,26.3713 l 0,444.1828 c 0.053,10.9437 -12.5081,25.6581 -26.6891,26.3713 l -444.8182,0 c -10.1009,-0.6185 -25.9116,-16.3103 -26.3713,-26.689 l 0.6354,-443.5473 c -1.1471,-6.6844 15.1517,-26.8312 26.6891,-26.6891 z" style="fill:#ffffff;fill-opacity:1;fill-rule:evenodd;stroke:#000000;stroke-width:2.12118363;stroke-linecap:butt;stroke-linejoin:miter;stroke-miterlimit:4;stroke-opacity:1;stroke-dasharray:none" id="path22616"/><path d="m -1046.5573,962.1796 0,0.033 -327.6897,0 0,0.033 -52.5656,0 c -12.4732,-0.5462 -19.5925,7.9748 -19.1238,21.6095 l 0,431.0312 c 0.049,9.1923 3.954,20.2259 16.638,20.4495 l 54.4216,0 328.3195,-0.066 0,0.033 56.80787,0 c 12.684,-0.2235 16.6218,-11.2571 16.6712,-20.4495 l 0,-431.0643 c 0.4687,-13.6347 -6.6506,-22.1557 -19.1238,-21.6095 l -54.35527,0 z m 0,70.5293 0,331.8658 -325.9,0.232 0,-332.0315 325.9,-0.066 z" style="fill:#003399;fill-opacity:1;fill-rule:evenodd;stroke:#003399;stroke-width:1.06059182px;stroke-linecap:butt;stroke-linejoin:miter;stroke-opacity:1" id="path22618"/><g style="overflow:visible" id="g22620" transform="matrix(0.85042677,0,0,0.86893029,-1324.5069,1083.7452)"><path id="path22622" d="m 155.04,13.202 c 8.526,0.436 16.127,-1.076 24.374,2.539 4.555,1.996 8.366,5.352 12.063,8.588 4.743,4.153 2.928,5.71 9.774,5.634 8.915,-0.099 17.904,-0.226 24.384,7.11 4.285,4.851 7.283,14.921 1.522,19.298 3.09,2.335 5.192,6.48 6.096,10.156 0.481,1.958 -0.708,6.756 0,8.127 0.627,1.214 5.31,3.281 6.601,4.57 4.371,4.368 5.171,9.982 2.426,15.462 -0.363,0.726 6.332,11.246 6.209,15.01 -0.19,5.849 -5.092,9.664 -6.095,14.221 -1.041,4.729 0.892,9.733 -4.317,13.204 -3.443,2.295 -1.647,9.302 -4.572,13.205 -2.732,3.645 -9.216,5.156 -9.904,8.633 20.211,9.748 24.686,33.032 26.229,53.033 0.738,9.558 0.688,19.055 0.688,28.639 0,7.382 -4.064,9.863 -11.175,10.761 5.035,1.849 8.485,1.936 12.697,5.584 -7.259,4.282 -18.935,2.472 -27.093,3.1 -10.317,0.795 -20.708,0.456 -31.055,0.456 -22.011,0 -44.175,2.737 -66.146,4.024 -19.386,1.136 -34.905,-4.904 -52.06,-13.481 -9.699,-4.849 -19.886,-8.672 -29.554,-13.509 -4.074,-2.038 -8.771,-3.796 -11.966,-6.998 -3.604,-3.61 8.443,-3.953 9.649,-4.063 -9.412,-5.173 -12.349,-12.742 -10.557,-23.488 1.655,-9.927 4.107,-20.175 9.545,-28.82 5.504,-8.751 13.032,-15.408 22.218,-19.997 5.583,-2.789 22.729,-6.271 18.917,-15.554 -11.759,9.342 -44.658,23.974 -52.067,1.75 -3.194,-9.58 -7.071,-18.312 -5.32,-28.665 1.879,-11.116 8.951,-20.14 17.05,-27.618 16.155,-14.917 34.187,-28.68 52.271,-41.198 17.625,-12.2 38.339,-24.168 59.168,-29.713"/><path style="fill:#ffffff" id="path22624" d="m 158.084,131.026 c 1.91,-3.62 1.912,-6.93 6.606,-6.601 6.972,0.488 12.492,9.736 13.334,15.649 0.355,2.498 1.496,10.758 -1.907,10.758 -3.455,0 -6.651,-0.644 -10.158,-0.254 -7.835,0.871 -14.85,2.087 -22.093,5.334 -5.45,2.443 -10.674,7.378 -16.759,3.555 -5.423,-3.408 -3.46,-9.541 -1.017,-14.727 4.994,-10.597 24.755,-31.937 31.994,-13.714"/><path style="fill:#ffffff" id="path22626" d="m 157.074,125.44 c 3.131,-2.9 5.796,-2.982 9.139,-5.078 4.357,-2.732 6.799,-9.091 8.123,-13.712 0.486,5.645 -1.916,12.843 -7.104,15.743 2.494,0.977 5.292,2.779 6.601,4.573 3.559,-3.171 10.778,-12.6 8.634,-17.777 -1.981,-4.785 -13.111,-5.91 -17.27,-6.602 0.123,7.44 -4.269,18.477 -12.696,19.299 1.692,0.694 4.927,3.903 4.573,3.554"/><path style="fill:#ffffff" id="path22628" d="m 107.299,255.961 c 23.53,3.357 48.54,0.179 72.115,-2.03 12.026,-1.127 24.087,-2.511 36.065,-4.065 6.041,-0.784 29.062,-0.991 30.722,-7.616 2.436,-9.717 0.327,-20.935 -0.434,-30.766 -0.79,-10.212 -1.478,-22.55 -6.425,-31.702 -10.237,-18.938 -31.916,-22.057 -50.274,-28.439 -3.109,-1.081 -6.311,-1.965 -9.143,-3.557 -1.554,6.111 11.433,5.368 15.779,6.998 5.78,2.168 12.377,10.293 16.723,10.777 5.168,0.576 5.626,-2.932 9.14,3.047 2.494,4.243 4.92,9.227 0,12.188 1.861,2.638 1.519,6.056 -3.046,6.604 7.19,12.767 -15.319,21.104 -24.056,24.226 -10.476,3.742 -24.778,4.008 -35.727,2.022 -24.217,-4.392 -44.507,-29.007 -26.046,-51.133 -18.044,1.476 -10.146,-19.588 -4.568,-27.933 -8.101,-0.917 -2.88,-13.906 -1.778,-18.285 1.422,-5.651 -2.688,-10.493 -7.875,-7.616 -4.935,2.738 -6.318,13.708 -4.567,18.284 1.187,3.101 5.21,6.325 3.299,10.155 -1.555,3.117 -1.349,7.268 -3.046,10.665 -4.129,8.266 -0.787,14.834 7.872,16.761 -5.689,1.968 -11.304,-1.825 -12.191,-7.619 -0.875,-5.711 3.004,-10.968 4.32,-16.251 1.28,-5.141 -0.447,-7.985 -2.54,-12.189 -3.164,-6.358 1.551,-16.95 5.838,-21.837 -3.679,-0.799 -7.975,-2.242 -10.158,0 -3.71,3.81 -3.327,17.63 -2.028,22.345 -5.513,1.289 -8.671,-0.69 -13.208,2.541 -1.009,0.718 -5.335,4.061 -4.823,5.079 0.916,1.82 1.447,6.594 0.254,8.379 -5.023,7.511 -16.193,9.731 -23.869,13.966 -9.59,5.291 -15.939,12.262 -20.313,22.091 -3.714,8.345 -6.095,18.32 -6.095,27.455 0,10.214 6.154,14.787 14.476,19.777 17.963,10.77 36.726,18.831 55.607,27.678"/><path style="fill:#ffffff" id="path22630" d="m 105.271,176.226 c -3.088,10.264 -7.533,19.498 -8.26,30.416 -0.785,11.781 1.34,22.352 4.704,33.575 -5.225,-9.698 -8.688,-19.854 -7.993,-31.056 0.655,-10.546 2.612,-25.84 11.549,-32.935"/><path id="path22632" d="m 154.022,216.346 c -1.992,0 -6.29,-0.843 -8.123,0 -3.229,1.483 -2.349,3.686 -4.063,7.112 -3.234,6.461 -14.413,14.011 -21.077,7.362 -6.371,-6.357 -1.7,-15.054 6.896,-16.129 9.859,-1.232 17.796,-0.332 26.367,1.655"/><path style="fill:#000000" id="path22634" d="m 126.602,217.871 c -4.662,3.033 -10.567,9.674 -1.525,11.935 2.854,0.713 11.17,1.419 11.17,-3.301 0,-3.395 -2.585,-5.688 -5.583,-6.095 0.927,2.324 0.388,4.734 -1.017,6.094 0.011,-3.289 -1.606,-6.471 -3.045,-8.633"/><path id="path22636" d="m 144.377,228.028 c 2.957,4.345 -0.906,10.259 -6.096,9.143 2.698,-1.57 6.698,-6.32 6.096,-9.143"/><path style="fill:#ffffff" id="path22638" d="m 105.271,151.342 c -3.217,4.287 -4.119,9.3 -1.524,14.219 -8.008,-2.452 -4.168,-11.927 1.524,-14.219"/><path id="path22640" d="m 160.624,143.215 c 0.751,-5.963 7.618,-6.607 7.618,0 0,7.293 -6.963,5.022 -7.618,0"/><path id="path22642" d="m 145.899,131.026 c 3.408,-5.467 10.459,-3.618 7.362,2.54 -3.418,6.798 -7.505,1.694 -7.362,-2.54"/><path style="fill:#ffffff" id="path22644" d="m 167.231,152.863 c 15.112,0 30.174,2.278 40.629,14.223 -5.69,3.684 -13.894,2.023 -19.302,5.078 -2.758,1.558 -3.036,0.695 0,3.554 3.154,2.969 8.606,3.55 12.473,4.836 2.501,0.832 12.412,-0.059 12.412,2.021 0,5.135 -1.148,8.661 -3.441,13.233 -4.806,9.588 -18.342,11.657 -27.68,14.208 -20.217,5.523 -42.527,-0.783 -52.281,-20.303 -11.572,-23.158 20.58,-34.631 37.19,-36.85"/><path style="fill:#ffffff" id="path22646" d="m 192.111,173.687 c 8.16,5.846 20.087,6.724 29.456,3.048 -0.479,-1.98 -1.212,-6.721 -3.046,-8.127 -2.489,-1.909 -5.852,0.601 -9.396,1.778 -5.32,1.768 -11.415,3.292 -17.014,3.301"/><path style="fill:#ffffff" id="path22648" d="m 114.917,103.603 c 1.219,-5.676 2.021,-9.143 7.62,-9.143 4.144,0 11.087,0.84 9.902,5.589 -1.244,4.984 -1.066,13.905 2.795,17.773 2.187,2.19 7.727,1.873 10.665,3.556 -4.368,1.983 -12.19,5.611 -14.475,10.157 -0.892,1.773 -3.891,-1.134 -4.317,-2.03 -0.931,-1.958 0.507,-3.505 0.507,-5.588 0,-5.362 4.049,-10.259 1.015,-14.728 -2.921,-4.304 -9.147,-5.586 -13.712,-5.586"/><path style="fill:#ffffff" id="path22650" d="m 218.016,48.752 c -9.144,-1.542 -25.267,0.425 -22.095,13.207 3.521,14.187 25.776,-5.266 29.204,5.585 2.356,7.459 -6.488,3.522 -11.079,4.834 -4.251,1.214 -19.868,7.871 -8.473,12.433 3.771,1.509 6.386,1.736 10.41,1.016 3.084,-0.552 7.335,-3.574 10.156,-3.557 3.708,0.023 7.042,3.63 8.125,7.619 -5.521,-0.924 -16.517,-2.9 -20.313,2.793 -3.079,4.618 -4.497,8.471 2.032,11.428 4.45,2.016 14.403,0.726 18.536,-2.032 3.542,-2.363 4.293,8.678 1.777,11.172 -4.156,-7.124 -23.925,-8.403 -25.392,1.523 -1.584,10.722 15.937,10.157 22.348,10.157 -1.202,4.732 -2.332,8.952 -7.368,5.587 -4.056,-2.711 -12.521,-6.283 -17.015,-2.539 -11.159,9.3 11.965,15.868 18.792,13.205 1.466,3.28 -1.709,6.609 -5.078,6.601 -3.164,-0.008 -6.609,-4.181 -10.156,-5.078 -12.299,-3.113 -6.333,8.763 2.032,11.174 -0.549,3.969 -10.222,-0.532 -13.166,-1.637 -5.064,-1.899 -10.893,-2.713 -15.781,-4.964 -5.512,-2.538 -4.147,-4.077 -5.079,-9.653 -0.262,-1.566 -3.129,-8.549 -2.54,-9.14 3.059,-3.07 5.488,-6.621 6.348,-10.918 1.336,-6.678 2.459,-9.252 -3.808,-12.952 -3.627,-2.142 -10.785,-6.005 -15.237,-4.571 -5.442,1.753 -1.076,4.922 -4.063,9.396 -3.49,5.226 -5.424,9.905 -12.186,9.905 -3.221,0 -11.519,-3.563 -13.205,-6.096 -4.967,-7.46 5.165,-17.235 -6.351,-21.077 -7.263,-2.422 -14.053,0.692 -17.013,6.858 -0.481,1.003 0.154,3.126 0.511,4.062 -5.26,-0.885 -7.886,-2.978 -9.011,3.781 -1.087,6.532 -3.739,13.404 -1.658,20.09 -1.862,-0.339 -3.724,-0.679 -5.585,-1.018 3.209,-4.525 5.168,-12.253 5.08,-17.775 -0.046,-2.875 -0.618,-7.055 -2.05,-9.556 -2.544,-4.445 -4.678,-4.897 -2.523,-9.236 3.041,-6.122 12.61,-10.604 18.031,-14.219 6.145,-4.099 12.68,-7.918 19.554,-10.666 2.19,11.044 15.24,13.253 24.886,12.189 11.901,-1.313 21.147,-8.623 28.591,-17.549 3.516,-4.217 7.479,-9.449 9.242,-14.7 1.492,-4.445 2.986,-4.316 8.381,-4.316 2.856,0 7.508,-0.112 9.649,2.031 1.837,1.841 4.059,5.732 2.54,6.603"/><path id="path22652" d="m 184.495,125.948 c 5.251,4.208 6.338,13.183 0.512,17.267 2.453,-5.494 0.625,-11.777 -0.512,-17.267"/><path id="path22654" d="m 192.111,131.536 c 3.769,3.733 2.313,9.226 -2.026,11.679 1.478,-3.765 2.36,-8.43 2.026,-11.679"/><path style="fill:#ffffff" id="path22656" d="m 219.027,149.819 c 3.399,1.105 7.563,0.557 10.162,-2.033 2.744,-2.733 0.355,-7.611 3.553,-8.633 0.667,10.985 -8.068,16.443 -18.282,12.188 -2.151,-0.896 -7.707,-3.405 -5.078,-5.588 2.448,-2.031 9.427,3.823 9.645,4.066"/><path style="fill:#ffffff" id="path22658" d="m 217.506,154.389 c 0.983,0.045 2.106,0.701 3.05,1.015 -0.076,0.854 -0.536,2.341 -1.018,3.048 -1.891,-1.18 -2.052,-2.281 -2.032,-4.063"/><path style="fill:#ffffff" id="path22660" d="m 216.489,51.801 c -1.481,3.347 -10.312,8.703 -13.201,5.586 5.143,6.753 18.437,-3.052 18.279,-10.158 -0.225,-10.194 -16.423,-11.77 -23.866,-8.633 -0.545,-1.776 -1.514,-3.462 -2.538,-5.08 7.505,-2.042 21.388,-1.447 27.167,4.318 7.812,7.791 4.102,15.779 -3.299,21.331 -3.757,2.818 -19.627,8.468 -20.317,-0.255 -0.7,-8.856 15.825,-5.978 17.775,-7.109"/><path style="fill:#ffffff" id="path22662" d="m 224.619,59.418 c 10.54,6.523 4.358,20.957 -6.35,23.108 -3.615,0.726 -14.941,1.655 -11.938,-3.807 2.399,-4.363 12.231,-4.897 16.252,-4.064 -2.648,2.729 -6.358,4.259 -10.156,4.064 8.699,6.782 22.226,-10.214 10.156,-17.775 0.716,-0.278 1.041,-1.033 2.036,-1.526"/><path style="fill:#ffffff" id="path22664" d="m 229.187,78.719 c 2.953,4 9.105,6.076 7.11,12.187 -1.904,5.833 -11.843,9.871 -16.759,6.093 4.309,0.245 9.36,-0.553 11.681,-4.57 -4.122,-0.556 -13.133,-0.884 -15.739,3.557 -4.609,7.853 9.211,5.715 13.201,4.57 5.345,-1.534 11.811,-6.542 11.678,-12.697 -0.121,-5.605 -5.415,-8.285 -9.646,-10.666 -0.192,0.351 -1.932,2.416 -1.526,1.526"/><path style="fill:#ffffff" id="path22666" d="m 239.343,98.015 c 13.337,7.602 0.241,26.105 -12.413,24.002 -1.717,-0.286 -17.752,-5.082 -10.945,-8.512 6.378,-3.214 13.077,-2.999 18.791,1.776 -2.725,2.608 -9.785,1.093 -12.697,-1.014 1.359,10.644 30.979,1.448 15.238,-14.222 0.774,-0.359 1.677,-1.808 2.026,-2.03"/><path style="fill:#ffffff" id="path22668" d="m 235.28,123.917 c 3.389,9.607 -15.551,19.189 -20.82,9.649 2.766,1.296 7.108,1.55 10.159,0.509 -3.86,-3.946 -7.876,-4.57 -12.699,-4.57 -4.71,0 -0.026,8.008 2.028,9.14 9.008,4.962 30.728,-3.156 23.872,-15.744 -0.87,0.763 -2.516,1 -2.54,1.016"/><path style="fill:#ffffff" id="path22670" d="m 50.929,83.289 c 18.414,-14.322 36.549,-28.627 56.12,-41.391 17.714,-11.552 37.816,-26.964 60.183,-24.124 9.938,1.262 21.377,6.752 25.392,16.759 3.971,9.897 -4.02,19.706 -10.668,26.41 -7.456,7.519 -17.46,13.687 -28.438,13.202 -4.639,-0.205 -10.167,-2.037 -13.458,-5.332 -4.76,-4.766 0.81,-8.229 5.329,-10.411 4.049,-1.955 9.196,-3.067 13.207,-0.508 -9.623,-10.235 -27.05,3.595 -36.246,8.54 -12.185,6.553 -30.499,15.988 -33.837,30.564 3.904,-6.161 7.711,0.419 8.884,5.08 1.584,6.292 1.434,14.148 -2.811,19.449 -10.079,12.586 -21.253,20.525 -37.093,24.489 -17.056,4.268 -24.544,-8.471 -26.117,-24.131 -0.744,-7.401 0.529,-15.654 4.729,-21.953 4.147,-6.219 11.032,-10.839 14.824,-16.643"/><path style="fill:#ffffff" id="path22672" d="m 173.832,24.376 c 12.656,4.767 19.71,19.813 7.107,28.441 2.877,-11.613 3.44,-20.309 -7.107,-28.441"/><path style="fill:#ffffff" id="path22674" d="m 85.461,100.556 c 11.301,11.284 6.12,19.479 -5.078,28.439 5.596,-6.831 10.989,-20.745 5.078,-28.439"/><path id="path22676" d="m 107.299,50.786 c 8.108,-4.83 16.044,-10.007 24.359,-14.484 7.194,-3.873 17.385,-10.981 25.921,-9.895 -8.336,5.154 -17.612,9.059 -26.389,13.45 -4.984,2.494 -19.736,11.764 -23.891,10.929"/><path id="path22678" d="M 139.805,0 C 118.828,10.479 97.338,19.416 78.899,34.306 58.664,50.648 42.752,68.999 28.074,90.398 43.147,41.469 94.968,15.283 139.805,0"/><path id="path22680" d="M 107.299,4.57 C 92.704,12.536 76.725,17.623 64.293,29.274 51.053,41.683 41.623,54.676 32.137,70.084 39.005,53.605 47.017,39.102 60.612,27.206 67.532,21.15 75.072,16.107 83.434,12.19 90.596,8.833 101.332,8.345 107.299,4.57"/><path id="path22682" d="m 11.822,119.347 c 0.837,15.238 -0.992,26.667 9.14,39.612 -7.066,-4.462 -10.564,-11.005 -12.344,-18.997 -1.885,-8.469 1.235,-14.123 3.204,-20.615"/><path id="path22684" d="m 0.648,143.724 c 3.295,8.238 6.654,15.558 15.236,19.298 -9.61,0.644 -18.374,-9.62 -15.236,-19.298"/><path id="path22686" d="m 27.058,196.54 c -0.174,7.756 -4.083,20.025 3.05,25.902 -13.016,-3.499 -5.773,-19.837 -3.05,-25.902"/><path id="path22688" d="m 245.947,156.928 c 5.435,5.106 9.982,7.146 12.809,14.69 2.737,7.308 1.037,15.404 -0.111,22.891 -1.178,-15.226 -4.141,-25.362 -12.698,-37.581"/><path id="path22690" d="m 265.753,162.516 c 3.854,6.854 1.027,19.693 -1.018,26.915 4.512,-7.906 9.715,-19.959 1.018,-26.915"/><path id="path22692" d="m 220.046,22.345 c 7.554,0 14.722,0.378 19.824,6.751 2.38,2.974 3.028,6.755 3.028,10.553 0,4.422 4.055,5.035 7.113,8.088 6.531,6.521 5.188,12.999 2.776,21.045 -0.057,0.188 6.263,5.235 6.869,7.903 0.616,2.71 -0.239,6.233 -1.523,8.635 -0.737,-2.886 -0.462,-6.505 -1.774,-9.142 -1.41,-2.834 -3.95,-2.679 -5.331,-4.571 -2.301,-3.151 -0.64,-4.268 0.131,-8.915 0.63,-3.796 -0.184,-7.628 -2.165,-10.892 -2.15,-3.542 -4.881,-4.98 -8.506,-6.793 -1.149,-0.575 -1.212,-8.333 -1.521,-10.191 -1.622,-9.777 -12.393,-9.468 -18.921,-12.471"/><path id="path22694" d="m 254.072,36.055 c 1.771,1.704 3.748,4.053 4.062,6.604 0.229,1.857 -1.829,5.888 -0.761,6.602 7.359,4.92 10.026,12.88 5.333,20.823 5.979,-6.371 5.189,-16.88 -2.284,-21.838 -0.576,-0.382 -0.229,-5.854 -1.271,-7.617 -1.303,-2.202 -3.362,-3.113 -5.079,-4.574"/><path id="path22696" d="m 155.545,162.516 c 0.646,-9.337 19.091,-9.494 19.303,0 0.22,9.923 -19.732,9.629 -19.303,0"/><path style="fill:#ffffff" id="path22698" d="m 157.579,162.516 c 1.506,-6.602 15.236,-7.394 15.236,0.507 0,7.522 -14.057,6.135 -15.236,-0.507"/><path id="path22700" d="m 135.742,173.687 c -1.446,-9.737 17.218,-12.967 18.792,-3.554 1.511,9.033 -15.587,12.428 -18.792,3.554"/><path style="fill:#ffffff" id="path22702" d="m 137.266,171.656 c 1.583,-6.979 15.234,-6.914 15.234,0.508 0,8.443 -13.44,4.575 -15.234,-0.508"/><path id="path22704" d="m 134.727,189.939 c -1.099,-9.24 17.432,-13.083 19.296,-3.556 1.86,9.51 -16.545,12.684 -19.296,3.556"/><path style="fill:#ffffff" id="path22706" d="m 136.759,189.431 c -0.252,-6.838 13.716,-9.833 14.725,-2.539 1.009,7.305 -12.453,9.46 -14.725,2.539"/><path id="path22708" d="m 149.961,200.097 c 1.783,-8.876 20.082,-9.338 19.808,0.509 -0.28,10.025 -18.406,8.782 -19.808,-0.509"/><path style="fill:#ffffff" id="path22710" d="m 151.995,200.097 c 2.015,-6.34 16.369,-7.155 15.236,1.013 -0.983,7.086 -14.449,5.605 -15.236,-1.013"/><path id="path22712" d="m 172.815,199.079 c 1.045,-9.273 20.071,-9.023 19.808,0.508 -0.267,9.659 -19.139,9.241 -19.808,-0.508"/><path style="fill:#ffffff" id="path22714" d="m 174.848,199.079 c 2.024,-6.334 16.379,-7.155 15.237,1.018 -0.99,7.091 -14.443,5.593 -15.237,-1.018"/><path id="path22716" d="m 191.605,189.431 c 0.396,-9.158 18.847,-9.276 19.3,0 0.484,9.894 -19.744,9.66 -19.3,0"/><path style="fill:#ffffff" id="path22718" d="m 193.637,189.431 c 1.824,-6.247 15.233,-7.598 15.233,0.508 0,7.703 -14.04,6.179 -15.233,-0.508"/><path id="path22720" d="m 177.894,159.467 c 4.127,-7.534 21.521,-2.244 18.279,6.602 -3.377,9.214 -19.616,2.303 -18.279,-6.602"/><path style="fill:#ffffff" id="path22722" d="m 179.926,160.482 c 3.517,-4.955 15.959,-2.603 13.711,4.572 -2.453,7.828 -14.219,0.342 -13.711,-4.572"/><path id="path22724" d="m 166.213,171.656 c 3.006,0 12.187,-0.525 12.187,4.316 0,4.876 -2.12,9.396 -8.123,9.396 -3.94,0 -10.158,-0.452 -10.158,-5.587 -0.001,-5.756 4.041,-5.831 6.094,-8.125"/><path style="fill:#ffffff" id="path22726" d="m 170.274,173.687 c 5.378,0.553 9.277,6.647 2.541,8.635 -7.058,2.081 -9.084,-7.049 -2.541,-8.635"/><path style="fill:#ffffff" id="path22728" d="m 165.702,174.195 c -1.917,3.53 -3.514,8.501 2.034,9.648 -6.931,0.814 -7.027,-7.159 -2.034,-9.648"/></g></g></g></svg>