<?xml version="1.0" encoding="UTF-8" standalone="no"?>
<svg xmlns:dc="http://purl.org/dc/elements/1.1/" xmlns:cc="http://creativecommons.org/ns#" xmlns:rdf="http://www.w3.org/1999/02/22-rdf-syntax-ns#" xmlns:svg="http://www.w3.org/2000/svg" xmlns="http://www.w3.org/2000/svg" xmlns:sodipodi="http://sodipodi.sourceforge.net/DTD/sodipodi-0.dtd" xmlns:inkscape="http://www.inkscape.org/namespaces/inkscape" id="svg3741" version="1.1" viewBox="0 0 500 500"><defs id="defs3743"><linearGradient id="linearGradient4573-9-549"><stop id="stop33336" offset="0" style="stop-color:#ffffff;stop-opacity:1;"/><stop id="stop33338" offset="1" style="stop-color:#ffffff;stop-opacity:0;"/></linearGradient></defs><metadata id="metadata3746"><rdf:RDF><cc:Work rdf:about=""><dc:format>image/svg+xml</dc:format><dc:type rdf:resource="http://purl.org/dc/dcmitype/StillImage"/><dc:title/></cc:Work></rdf:RDF></metadata><g id="layer1" transform="translate(56.43095,-275.30985)"><g transform="translate(1972.3923,-4269.4299)" id="g23346"><g transform="translate(25.083,-12.541499)" id="g22930"><path id="path22754" style="fill:#ffffff;fill-opacity:1;fill-rule:evenodd;stroke:#000000;stroke-width:2.12320876;stroke-linecap:butt;stroke-linejoin:miter;stroke-miterlimit:4;stroke-opacity:1;stroke-dasharray:none" d="m -2025.5137,4558.3561 445.4518,0 c 11.4712,0.8402 24.4698,12.5854 25.1004,26.4218 l 0,445.0331 c 0.053,10.9647 -12.5081,25.7071 -26.689,26.4218 l -444.8164,0 c -13.8114,0 -26.3713,-12.2808 -26.3713,-26.7402 l 0.6355,-444.3963 c 0,-14.3585 9.3364,-26.7402 26.689,-26.7402 z"/><path id="path22756" style="fill:#003399;fill-opacity:1;fill-rule:evenodd;stroke:#003399;stroke-width:1.06160438px;stroke-linecap:butt;stroke-linejoin:miter;stroke-opacity:1" d="m -1640.9504,4570.276 0,0.033 -327.6884,0 0,0.033 -52.5654,0 c -12.4731,-0.5471 -19.5924,7.9901 -19.1237,21.651 l 0,431.8562 c 0.049,9.2099 3.9541,20.2646 16.638,20.4887 l 54.4214,0 328.3181,-0.066 0,0.033 56.8077,0 c 12.6839,-0.224 16.6217,-11.2787 16.6711,-20.4886 l 0,-431.8896 c 0.4687,-13.6608 -6.6505,-22.1981 -19.1237,-21.6509 l -54.3551,0 z m 0,70.6644 0,332.5011 -325.8987,0.2325 0,-332.6672 325.8987,-0.066 z"/></g><g id="g11637" transform="matrix(0.46,0,0,0.46000009,2039.5508,4041.9948)"><path d="m -8207.2835,1614.2638 107.1091,-65.3769 47.9905,94.5122 c 11.5919,51.6382 -51.9317,70.588 -102.9361,67.5087 l -52.1635,-96.644 z" id="path2742" style="fill:#000000;fill-opacity:1;fill-rule:evenodd;stroke:none"/><path d="m -8231.6265,1681.7725 -56.3366,101.6183 56.3366,103.0396 1.391,-41.2158 51.4681,0 c 18.7788,1.658 43.1218,-10.8962 52.1635,-29.1354 l 66.0738,-123.6474 c -21.7928,22.0291 -49.8152,27.714 -82.0707,27.714 l -86.9391,0 -2.0866,-38.3733 z" id="path2743" style="fill:#000000;fill-opacity:1;fill-rule:evenodd;stroke:none"/><path d="m -8357.4959,1556.4865 -107.9333,-63.9461 57.5817,-88.7441 c 38.5612,-35.4193 85.6103,12.1275 107.7321,59.1836 l -57.3805,93.5066 z" id="path2751" style="fill:#000000;fill-opacity:1;fill-rule:evenodd;stroke:none"/><path d="m -8287.9118,1545.464 114.3015,1.0006 60.8277,-100.3386 -35.9442,18.763 -24.9819,-45.9757 c -7.6962,-17.5797 -30.2548,-33.2313 -50.251,-32.4551 l -137.8785,0.9939 c 29.4286,8.7745 47.8949,31.0472 63.5513,59.8606 l 42.1991,77.6615 -31.824,20.4898 z" id="path2752" style="fill:#000000;fill-opacity:1;fill-rule:evenodd;stroke:none"/><path d="m -8548.0232,1551.1923 33.4425,26.1292 -31.4753,60.2978 c -15.7378,27.804 11.2984,54.8899 28.5244,64.3178 16.9581,9.2811 43.2787,10.3846 67.8688,10.0496 l 44.2622,-72.3575 33.4426,18.0894 -58.0327,-107.5312 -118.0325,1.0049 z" id="path2753" style="fill:#000000;fill-opacity:1;fill-rule:evenodd;stroke:none"/><path d="m -8543.1052,1690.8825 71.8031,132.6554 c 14.4262,18.4244 41.6393,22.7792 69.836,22.1092 l 75.7375,0 0,-125.6206 -143.6063,-1.005 c -22.295,1.3399 -51.4753,-3.3499 -73.7703,-28.139 z" id="path2754" style="fill:#000000;fill-opacity:1;fill-rule:evenodd;stroke:none"/></g></g></g></svg>