<?xml version="1.0" encoding="UTF-8" standalone="no"?>
<svg xmlns:dc="http://purl.org/dc/elements/1.1/" xmlns:cc="http://creativecommons.org/ns#" xmlns:rdf="http://www.w3.org/1999/02/22-rdf-syntax-ns#" xmlns:svg="http://www.w3.org/2000/svg" xmlns="http://www.w3.org/2000/svg" xmlns:sodipodi="http://sodipodi.sourceforge.net/DTD/sodipodi-0.dtd" xmlns:inkscape="http://www.inkscape.org/namespaces/inkscape" id="svg3741" version="1.1" viewBox="0 0 500 440"><defs id="defs3743"><linearGradient id="linearGradient4573-9-549"><stop id="stop33336" offset="0" style="stop-color:#ffffff;stop-opacity:1;"/><stop id="stop33338" offset="1" style="stop-color:#ffffff;stop-opacity:0;"/></linearGradient></defs><metadata id="metadata3746"><rdf:RDF><cc:Work rdf:about=""><dc:format>image/svg+xml</dc:format><dc:type rdf:resource="http://purl.org/dc/dcmitype/StillImage"/><dc:title/></cc:Work></rdf:RDF></metadata><g id="layer1" transform="translate(36.272565,-315.17379)"><g id="g57055" transform="translate(-2041.45,-1947.1744)"><g transform="translate(-540,291.42857)" id="g36961"><g transform="translate(-1540.6834,442.36602)" id="g14289"><g transform="matrix(0.99999834,0,0,1.0009179,6088.251,1699.3665)" id="g14291"><path id="path14293" d="m -1729.657,-157.23924 c -4.4566,-7.70081 -13.1754,-12.51819 -22.7409,-12.51819 -9.7394,0 -18.4615,5.08085 -23.0023,12.928 l -222.2004,384.02127 c -4.7688,8.24191 -5.4749,18.62338 -0.3734,27.4394 4.8697,8.41541 13.6405,13.41233 22.7223,13.41233 l 445.7076,0 c 9.0817,0 17.8525,-4.99698 22.7222,-13.41233 5.1016,-8.81596 4.3958,-19.19774 -0.3734,-27.4394 l -222.4617,-384.43108 z" style="fill:#ffffff;fill-opacity:1;fill-rule:nonzero;stroke:#000000;stroke-width:1.79633701;stroke-linecap:round;stroke-linejoin:round;stroke-miterlimit:2;stroke-opacity:1;stroke-dasharray:none;stroke-dashoffset:0"/><path style="fill:#d40000;fill-opacity:1;fill-rule:nonzero;stroke:none" d="m -1752.3918,-161.75994 c 6.5396,0 12.22,3.32868 14.949,8.05523 l 222.4555,385.3022 c 3.3263,5.76134 3.7682,12.63048 0.3746,18.50829 -3.3028,5.72052 -9.1544,8.93566 -14.9303,8.93572 l -445.7164,0 c -5.7759,0 -11.6274,-3.21508 -14.9302,-8.93572 -3.3936,-5.87781 -2.9517,-12.74635 0.3747,-18.50829 l 222.1931,-384.89007 c 2.8883,-5.0026 8.6251,-8.46736 15.23,-8.46736 z" id="path14295"/><path style="fill:#ffffff;fill-opacity:1;fill-rule:nonzero;stroke:none" d="m -1752.4105,-83.717877 170.2088,294.802657 -340.3989,0 170.1901,-294.802657 z" id="path14297"/></g></g></g><g transform="matrix(1.010014,0,0,1.010014,-507.5622,-14.870529)" id="g36929"><path id="path1379" d="m 2669.1597,2587.5928 c -0.1792,-0.5113 -0.2454,-0.9434 -0.1471,-0.9601 0.098,-0.017 145.1311,-43.6687 145.2646,-43.6915 0.1335,-0.023 -0.3555,2.2453 -1.1696,2.7548 -1.3495,0.8447 -143.2108,42.7563 -143.4368,42.7948 -0.1019,0.017 -0.3319,-0.3867 -0.5111,-0.898 z" style="fill:#000000;fill-opacity:1;stroke:none"/><g style="fill:#000000;fill-opacity:1;stroke:none" id="g1345" transform="matrix(-0.32683833,-0.16911694,-0.12031695,0.6313024,2785.2939,2514.5192)"><path style="fill:#000000;fill-opacity:1;stroke:none" id="path1347" d="m 39.88,31.658 c -4.248,0 -8.482,-0.654 -12.009,1.162 -2.856,1.47 -8.263,1.338 -11.574,1.338 -1.575,0 1.458,3.56 1.412,4.764 -0.131,3.474 6.903,4.228 9.046,5.136 3.307,1.402 1.927,3.643 2.208,6.516 0.752,7.669 -2.076,13.171 -4.781,20.015 -0.817,2.068 -2.41,4.971 -2.21,7.277 0.361,4.163 -6.169,-0.659 -8.078,-1.331 -2.917,-1.027 -8.387,-2.464 -11.47,-1.204 -3.956,1.616 -2.348,5.16 -0.255,7.475 4.001,4.428 0.534,7.907 1.726,12.557 0.426,1.663 7.787,9.32 8.963,8.305 3.848,-3.321 -1.394,-4.976 -2.753,-7.504 C 9.487,95.015 8.616,83.742 8.866,83.759 c 1.152,0.078 3.725,2.108 4.805,2.633 3.218,1.562 6.395,3.238 9.292,5.349 6.193,2.729 12.58,5.224 19.139,6.935 8.983,2.344 17.305,3.327 25.907,7.329 4.911,2.284 4.041,7.277 7.735,10.999 3.678,3.705 8.989,6.049 13.234,9.049 3.424,2.42 6.444,6.255 8.356,9.945 2.217,4.281 1.737,10.006 2.504,14.676 0.531,3.236 4.54,5.647 6.464,8.185 4.169,5.496 3.558,-3.747 1.861,-4.447 -3.193,-1.318 -4.172,-7.787 -4.351,-10.973 -0.287,-5.103 1.756,-9.108 -1.894,-13.093 -6.814,-7.439 -12.43,-16.164 -7.207,-26.604 2.178,-4.354 -3.52,-8.245 2.229,-9.374 2.611,-0.512 5.55,-10e-4 7.386,-2.334 2.313,-2.939 0.737,-6.691 -1.383,-9.236 -0.257,-0.381 -0.584,-0.677 -0.981,-0.889 0.369,0 -0.039,5.071 -0.981,5.719 -2.113,1.454 -5.412,3.958 -8.101,4.044 -2.311,0.073 -6.142,-2.488 -7.668,-4.014 -1.12,-1.12 -5.036,-1.501 -6.614,-1.828 C 74.737,85.031 71.741,84.326 68.012,82.806 63.318,80.893 58.687,78.672 54.555,75.71 44.573,68.555 42.755,56.146 44.022,44.495 c 0.273,-2.508 -0.853,-6.438 0.595,-8.58 0.344,-0.509 1.903,-0.362 2.502,-0.891 0.763,-0.674 2.455,-3.202 2.759,-4.232 1.248,-4.223 -5.518,1.21 -4.542,1.146 -1.475,0.098 1.675,-9.004 1.855,-9.364 0.364,-0.728 5.298,-9.451 2.32,-9.352 -1.868,0.062 -0.948,5.445 -3.157,5.005 C 43.964,17.751 40.522,11.396 41.566,9.011 43.4,4.819 39.743,3.905 39.214,7.564 39.112,8.269 40.893,13.438 38.159,12.665 35.335,11.866 35.748,-0.125 34.38,0 31.991,0.219 34.074,10.836 33.361,12.176 33.144,12.584 29.68,8.66 29.459,7.718 28.48,3.558 28.031,5.106 26.87,7.752 c -1.537,3.502 10.289,9.671 12.422,10.911 1.701,0.988 3.098,1.841 3.681,3.817 0.509,1.725 1.125,4.088 -0.047,5.711 -0.834,1.155 -3.046,1.791 -3.046,3.467"/></g><g style="fill:#000000;fill-opacity:1;stroke:none" transform="matrix(-0.32683833,-0.16911694,-0.12031695,0.6313024,2832.6889,2499.4718)" id="g1349"><path style="fill:#000000;fill-opacity:1;stroke:none" d="m 39.88,31.658 c -4.248,0 -8.482,-0.654 -12.009,1.162 -2.856,1.47 -8.263,1.338 -11.574,1.338 -1.575,0 1.458,3.56 1.412,4.764 -0.131,3.474 6.903,4.228 9.046,5.136 3.307,1.402 1.927,3.643 2.208,6.516 0.752,7.669 -2.076,13.171 -4.781,20.015 -0.817,2.068 -2.41,4.971 -2.21,7.277 0.361,4.163 -6.169,-0.659 -8.078,-1.331 -2.917,-1.027 -8.387,-2.464 -11.47,-1.204 -3.956,1.616 -2.348,5.16 -0.255,7.475 4.001,4.428 0.534,7.907 1.726,12.557 0.426,1.663 7.787,9.32 8.963,8.305 3.848,-3.321 -1.394,-4.976 -2.753,-7.504 C 9.487,95.015 8.616,83.742 8.866,83.759 c 1.152,0.078 3.725,2.108 4.805,2.633 3.218,1.562 6.395,3.238 9.292,5.349 6.193,2.729 12.58,5.224 19.139,6.935 8.983,2.344 17.305,3.327 25.907,7.329 4.911,2.284 4.041,7.277 7.735,10.999 3.678,3.705 8.989,6.049 13.234,9.049 3.424,2.42 6.444,6.255 8.356,9.945 2.217,4.281 1.737,10.006 2.504,14.676 0.531,3.236 4.54,5.647 6.464,8.185 4.169,5.496 3.558,-3.747 1.861,-4.447 -3.193,-1.318 -4.172,-7.787 -4.351,-10.973 -0.287,-5.103 1.756,-9.108 -1.894,-13.093 -6.814,-7.439 -12.43,-16.164 -7.207,-26.604 2.178,-4.354 -3.52,-8.245 2.229,-9.374 2.611,-0.512 5.55,-10e-4 7.386,-2.334 2.313,-2.939 0.737,-6.691 -1.383,-9.236 -0.257,-0.381 -0.584,-0.677 -0.981,-0.889 0.369,0 -0.039,5.071 -0.981,5.719 -2.113,1.454 -5.412,3.958 -8.101,4.044 -2.311,0.073 -6.142,-2.488 -7.668,-4.014 -1.12,-1.12 -5.036,-1.501 -6.614,-1.828 C 74.737,85.031 71.741,84.326 68.012,82.806 63.318,80.893 58.687,78.672 54.555,75.71 44.573,68.555 42.755,56.146 44.022,44.495 c 0.273,-2.508 -0.853,-6.438 0.595,-8.58 0.344,-0.509 1.903,-0.362 2.502,-0.891 0.763,-0.674 2.455,-3.202 2.759,-4.232 1.248,-4.223 -5.518,1.21 -4.542,1.146 -1.475,0.098 1.675,-9.004 1.855,-9.364 0.364,-0.728 5.298,-9.451 2.32,-9.352 -1.868,0.062 -0.948,5.445 -3.157,5.005 C 43.964,17.751 40.522,11.396 41.566,9.011 43.4,4.819 39.743,3.905 39.214,7.564 39.112,8.269 40.893,13.438 38.159,12.665 35.335,11.866 35.748,-0.125 34.38,0 31.991,0.219 34.074,10.836 33.361,12.176 33.144,12.584 29.68,8.66 29.459,7.718 28.48,3.558 28.031,5.106 26.87,7.752 c -1.537,3.502 10.289,9.671 12.422,10.911 1.701,0.988 3.098,1.841 3.681,3.817 0.509,1.725 1.125,4.088 -0.047,5.711 -0.834,1.155 -3.046,1.791 -3.046,3.467" id="path1351"/></g><g style="fill:#000000;fill-opacity:1;stroke:none" transform="matrix(-0.32683833,-0.16911694,-0.12031695,0.6313024,2735.5025,2528.9801)" id="Original"><path style="fill:#000000;fill-opacity:1;stroke:none" d="m 39.88,31.658 c -4.248,0 -8.482,-0.654 -12.009,1.162 -2.856,1.47 -8.263,1.338 -11.574,1.338 -1.575,0 1.458,3.56 1.412,4.764 -0.131,3.474 6.903,4.228 9.046,5.136 3.307,1.402 1.927,3.643 2.208,6.516 0.752,7.669 -2.076,13.171 -4.781,20.015 -0.817,2.068 -2.41,4.971 -2.21,7.277 0.361,4.163 -6.169,-0.659 -8.078,-1.331 -2.917,-1.027 -8.387,-2.464 -11.47,-1.204 -3.956,1.616 -2.348,5.16 -0.255,7.475 4.001,4.428 0.534,7.907 1.726,12.557 0.426,1.663 7.787,9.32 8.963,8.305 3.848,-3.321 -1.394,-4.976 -2.753,-7.504 C 9.487,95.015 8.616,83.742 8.866,83.759 c 1.152,0.078 3.725,2.108 4.805,2.633 3.218,1.562 6.395,3.238 9.292,5.349 6.193,2.729 12.58,5.224 19.139,6.935 8.983,2.344 17.305,3.327 25.907,7.329 4.911,2.284 4.041,7.277 7.735,10.999 3.678,3.705 8.989,6.049 13.234,9.049 3.424,2.42 6.444,6.255 8.356,9.945 2.217,4.281 1.737,10.006 2.504,14.676 0.531,3.236 4.54,5.647 6.464,8.185 4.169,5.496 3.558,-3.747 1.861,-4.447 -3.193,-1.318 -4.172,-7.787 -4.351,-10.973 -0.287,-5.103 1.756,-9.108 -1.894,-13.093 -6.814,-7.439 -12.43,-16.164 -7.207,-26.604 2.178,-4.354 -3.52,-8.245 2.229,-9.374 2.611,-0.512 5.55,-10e-4 7.386,-2.334 2.313,-2.939 0.737,-6.691 -1.383,-9.236 -0.257,-0.381 -0.584,-0.677 -0.981,-0.889 0.369,0 -0.039,5.071 -0.981,5.719 -2.113,1.454 -5.412,3.958 -8.101,4.044 -2.311,0.073 -6.142,-2.488 -7.668,-4.014 -1.12,-1.12 -5.036,-1.501 -6.614,-1.828 C 74.737,85.031 71.741,84.326 68.012,82.806 63.318,80.893 58.687,78.672 54.555,75.71 44.573,68.555 42.755,56.146 44.022,44.495 c 0.273,-2.508 -0.853,-6.438 0.595,-8.58 0.344,-0.509 1.903,-0.362 2.502,-0.891 0.763,-0.674 2.455,-3.202 2.759,-4.232 1.248,-4.223 -5.518,1.21 -4.542,1.146 -1.475,0.098 1.675,-9.004 1.855,-9.364 0.364,-0.728 5.298,-9.451 2.32,-9.352 -1.868,0.062 -0.948,5.445 -3.157,5.005 C 43.964,17.751 40.522,11.396 41.566,9.011 43.4,4.819 39.743,3.905 39.214,7.564 39.112,8.269 40.893,13.438 38.159,12.665 35.335,11.866 35.748,-0.125 34.38,0 31.991,0.219 34.074,10.836 33.361,12.176 33.144,12.584 29.68,8.66 29.459,7.718 28.48,3.558 28.031,5.106 26.87,7.752 c -1.537,3.502 10.289,9.671 12.422,10.911 1.701,0.988 3.098,1.841 3.681,3.817 0.509,1.725 1.125,4.088 -0.047,5.711 -0.834,1.155 -3.046,1.791 -3.046,3.467" id="path1338"/></g><g id="g24823" transform="matrix(-0.11556142,0.0526387,0.07421127,0.12466989,2665.0264,2549.6321)"><path id="path2528" d="M 416.20896,0.01000676 C 400.99591,2.1236966 390.27169,16.313596 383.87918,29.280888 c 4.73604,10.999821 -6.26086,18.645579 -12.31876,25.624103 5.1444,4.12668 13.46636,4.626651 2.18981,5.98511 -12.74731,5.80292 2.66282,21.843846 -11.84142,24.862284 -7.44038,10.265616 -17.60268,25.986695 -10.58916,38.457085 8.31032,10.22222 -4.66889,21.87633 -10.21813,30.24588 -14.66757,4.50146 -13.33477,25.45082 -29.35822,26.05963 -16.80477,-2.95175 -8.78485,-26.84598 -16.96218,-38.32173 -1.63912,-3.85989 -4.48028,-13.47983 -5.36992,-10.2915 -0.58819,-12.55913 4.66125,-34.104587 -12.12347,-37.716523 -12.33305,-4.728105 -25.26352,-11.646186 -37.31469,-14.378163 6.02577,-10.384263 14.80647,-19.949932 17.84501,-32.020467 -2.01939,-15.505238 -23.72975,-0.909714 -33.83843,-1.914729 -15.88497,0.891279 -29.8896,8.888197 -45.24605,11.724619 -9.93418,-3.318823 -22.04025,2.848167 -14.18314,14.169349 1.97259,11.010338 16.69454,13.994299 20.59876,19.756199 -19.38845,8.647965 -36.02481,23.946975 -46.73632,42.314975 -2.05636,14.59513 -21.47404,19.44066 -20.19649,35.68975 -1.26826,15.56329 8.22337,29.19351 10.77176,44.20649 4.19229,13.93013 7.3474,29.1278 2.00966,43.23144 -4.37595,17.34197 -7.7085,35.12225 -7.44449,53.07586 -23.02178,4.6371 -48.640213,2.21763 -68.157879,-11.74603 C 38.422022,287.92423 23.655239,274.38313 7.2096461,263.31875 -5.4641925,259.88254 1.3717528,275.73482 6.59157,279.9141 c 6.660768,12.99837 7.989357,30.72254 21.79796,38.57703 14.970107,5.73363 30.714124,9.38404 45.823614,14.8886 23.462067,6.84048 48.152436,12.44083 72.631756,8.16277 16.42109,-2.14771 32.32846,4.21031 48.71127,2.43999 15.14096,-2.07911 13.86419,18.95961 -0.4754,18.34156 -13.37762,2.9103 -27.4482,2.99816 -40.76992,0.15017 -15.59182,-0.89769 -31.19126,2.63737 -46.71293,-0.35961 -18.0673,-2.21748 -38.454406,-5.98895 -49.442984,-22.1934 -4.509395,-11.31154 -29.324723,-19.10111 -24.179999,-0.0185 4.569135,14.61007 10.650542,28.78866 16.952789,42.71098 9.25893,14.01214 29.066686,8.17082 43.409421,10.34966 30.058263,2.53961 60.397563,1.49149 90.245853,6.43242 17.76702,1.03072 35.45223,3.39933 53.22177,3.97939 13.63613,-0.41892 26.99177,3.86006 40.64695,1.42402 24.93088,-3.05197 49.8619,-6.55294 74.27341,-12.54848 5.23697,-1.81033 14.0828,-4.11927 11.60757,-5.91645 16.91657,-3.16429 34.15203,-8.11122 51.31295,-11.5726 11.37615,-2.00834 21.99762,-6.04858 32.46113,-10.59276 12.72773,-2.77617 23.9411,-9.56896 36.439,-13.10323 17.66593,-7.25636 32.70108,-20.31264 43.26623,-36.10207 10.95657,-12.37065 18.50262,-28.9077 15.77008,-45.68596 0.11515,-21.59658 -30.80154,-33.5927 -45.71575,-18.59414 -10.7064,12.58224 2.50574,24.78897 12.78196,29.72224 -1.96542,12.1558 -11.80239,22.58955 -21.47167,29.91047 -24.288,16.79438 -52.72692,25.9219 -80.20632,35.99689 -14.27628,4.45994 -29.69683,6.752 -44.59266,5.63265 -9.32762,-1.63863 -16.92207,-15.85428 -2.71046,-15.95235 15.43515,-1.33787 29.51886,-8.01128 44.29461,-11.97956 12.51715,0.43123 31.44603,0.9193 32.85572,-15.05335 -4.48478,-3.85791 -13.86534,-10.95291 -1.05187,-9.55696 16.15054,0.34072 24.08616,-16.19561 31.48285,-27.86828 7.66608,-12.0814 8.10429,-28.4636 -3.19726,-37.25177 -1.89011,-11.57903 11.89998,-15.61446 17.44737,-23.62688 8.59882,-9.34744 17.81764,-18.66636 29.82687,-23.46163 10.53183,-8.63618 9.69072,-23.91403 14.91874,-35.5578 4.54458,-22.41902 -11.32968,-46.77512 -34.10715,-50.67836 -15.22339,-3.934513 -32.1426,-3.274734 -46.24817,4.04778 -15.03402,-1.59402 -5.59493,-23.499919 -11.67814,-30.972837 6.39797,-10.247105 1.58397,-29.638023 19.90685,-23.523191 9.80345,-6.256618 25.91023,8.942032 31.00973,-6.314084 C 491.06527,28.164167 469.08125,23.023445 459.91146,30.661531 445.9536,25.52943 439.19915,11.104877 427.53006,3.0182179 424.1144,1.0385269 420.17465,-0.12078414 416.20896,0.01000676 z M 330.9205,341.2446 c 12.68552,7.40642 -4.06251,13.91003 -11.98476,14.15951 -15.58501,3.08324 -31.36273,4.83102 -47.00908,7.49413 -14.32201,-0.0275 -29.89136,2.23443 -43.41229,-2.95918 -6.24942,-6.15067 -6.15656,-20.4797 5.75936,-16.17709 20.8476,0.15368 41.76697,4.56667 62.52082,0.66261 11.26068,-1.23566 23.54115,1.01009 34.12595,-3.17998 z" style="fill:#000000"/><path id="path2526" d="m 395.48032,42.265318 c 11.30636,8.787198 28.51137,14.976162 34.39236,27.384272 -9.56195,-0.196502 -25.4703,-15.630301 -39.79676,-13.827823 -16.56868,0.635922 -1.73221,-12.791109 5.4044,-13.556449 z" style="fill:#ffffff"/><path id="path2407" d="m 564.19525,390.65323 c 1.33491,-0.49749 -1.40835,-1.02031 0,0 z" style="fill:#000000"/><path id="path2405" d="m 565.63971,393.72412 0.15277,-0.65807 -0.15276,0.65808 -10e-6,-10e-6 z" style="fill:#000000"/><path id="path2403" d="m 570.99945,406.06275 c 4.97178,10.65363 -5.42782,-15.09793 -0.26684,-0.72561 l 0.24314,0.66116 0.0237,0.0645 z" style="fill:#000000"/><path id="path2437" d="m 362.77423,130.00984 c -7.53715,8.04349 -9.96099,19.70067 -17.35604,27.72891 9.29264,5.5201 21.84238,7.67975 29.93222,16.60855 7.91202,9.93209 19.41421,11.08119 26.34268,-0.46164 10.29195,-4.98556 0.22601,-18.24678 7.49575,-22.08037 5.95989,4.97637 3.4836,2.33232 7.43001,-3.38005 9.78216,-10.85329 2.69683,10.7891 -1.06781,13.87941 -6.32697,13.13566 -19.09434,21.63445 -27.61692,32.00582 6.98057,5.83726 16.97825,15.879 14.16781,24.75865 9.48263,1.16894 21.12282,7.18843 29.10181,0.60319 10.23625,-9.39202 17.26277,-21.61508 28.05492,-30.43719 5.15129,-9.10025 4.82425,-20.71295 5.13262,-31.22347 0.26861,-14.57403 -11.64756,-25.51106 -21.38002,-34.69671 -12.34132,-7.4156 -21.88699,11.34445 -33.72701,5.18892 -10.29872,-7.71391 -21.07771,0.49988 -32.10054,-0.90903 -5.3214,-1.20641 -9.63803,1.72846 -14.40948,2.41501 z" style="fill:#000000"/><path id="path2419" d="m 10.623887,274.87702 c 8.547029,11.48309 7.404547,34.06015 22.84578,37.6004 30.484212,8.6574 60.467214,22.31784 92.736053,22.06841 13.31288,2.02187 0.58508,-12.68493 -4.21542,-16.6389 -14.47018,3.94001 -30.130027,2.26832 -44.691345,-1.02944 -26.359431,-7.66403 -46.338275,-27.60576 -67.4639045,-44.04761 -0.105356,0.69638 0.6229725,1.37402 0.7888365,2.04714 z" style="fill:#ffffff"/><path id="path2415" d="m 41.130624,340.71314 c 5.84055,14.75782 10.044615,32.82693 21.254112,43.8022 11.812025,2.99746 24.305487,0.28955 36.380629,2.19984 17.810075,1.53702 35.737315,1.61437 53.539285,2.24681 15.33723,1.33849 30.44397,4.2462 45.67145,6.15065 15.63155,0.19494 30.87592,4.14609 46.55315,2.76346 16.05235,2.4734 32.11237,2.10076 48.10315,-1.31525 18.87955,-0.93365 37.09081,-6.95238 55.60468,-10.04019 29.30277,-12.63078 61.34152,-15.78722 91.54587,-25.49655 23.27671,-6.77174 45.35787,-17.4395 64.53244,-32.33619 11.95254,-7.40921 19.67423,-19.98642 23.67934,-33.17839 6.52683,-12.53897 14.2012,-32.71498 -0.11453,-42.74087 -10.57149,-9.63558 -37.713,4.64304 -22.17828,16.45492 8.96504,3.22244 21.14083,7.5019 11.40687,18.00124 -5.04314,10.06459 -12.05874,20.25208 -19.84253,22.88617 -3.65433,2.42245 -11.05959,9.03037 -2.34163,3.90231 -22.95506,16.99568 -50.24107,26.34294 -76.85855,35.8163 -13.00396,4.25189 -26.01746,8.42647 -39.87782,7.61229 -12.35172,1.24355 -29.4509,2.05525 -30.39199,-14.49097 -7.0468,-9.3196 -8.69253,5.31177 -7.28459,11.03807 -12.57142,7.99001 -30.51722,8.17136 -45.5877,10.61165 -18.2643,3.77239 -37.00548,4.8525 -55.57084,3.05975 -11.72954,2.5249 -23.4293,-5.28514 -18.45814,-18.16211 0.0264,-9.78576 -10.50304,-3.8582 -9.34012,-1.74818 0.90008,3.72301 0.70189,20.41899 -11.63317,19.27923 -15.34312,3.41019 -31.07985,5.05047 -46.72173,2.71287 -16.42542,-2.34111 -33.00672,1.86772 -49.34956,-1.68172 -17.578966,-2.87542 -36.789932,-6.2762 -48.766009,-20.88531 -2.807703,-3.13432 -18.427344,-24.06686 -13.953787,-6.46203 z" style="fill:#ffffff"/><path id="path2395" d="m 123.60684,182.64211 c 9.41874,7.89202 9.04279,21.67403 13.2081,32.42141 5.61685,15.79912 4.49099,32.99194 -1.08731,48.6187 -3.65157,15.76197 -7.29641,32.12844 -4.02171,48.32657 0.59558,16.67294 19.65582,21.27931 33.12688,22.81218 34.61819,7.35149 70.18476,-0.33087 105.04124,4.70264 17.53258,0.47279 34.91052,-2.95279 52.43663,-2.76162 21.51375,-1.98833 42.36618,-7.91046 63.44551,-12.33073 11.36182,-6.27402 24.67427,-8.21967 37.44565,-7.62374 13.26896,-7.28854 -11.23329,-14.39843 -5.24594,-25.52268 4.12947,-15.95485 14.48148,-29.52076 23.13263,-43.30935 9.87928,-10.87402 18.11258,-23.04844 27.65191,-34.20264 12.85446,-9.7592 22.15571,-24.58131 37.72301,-30.40937 8.7023,-3.96381 6.53449,-16.47914 -3.94715,-10.00842 -12.39394,3.44605 -32.11043,2.50619 -36.42592,16.51883 -10.81914,9.92539 -20.27044,20.90745 -29.50267,32.31528 -9.81966,13.01514 -23.23428,-0.46975 -35.33583,5.074 -13.52195,-3.65796 -27.96234,-8.09311 -42.08503,-5.22304 -13.42775,-1.47198 -27.13826,-4.73286 -38.97048,-11.27445 -9.11784,-12.35779 -22.98811,-12.51587 -36.64509,-9.98867 -29.42743,-0.7112 -56.99231,-11.78788 -85.04262,-19.31813 -14.46194,-3.80198 -30.38712,-4.46312 -42.33176,-14.57788 -7.82452,-8.3405 -31.62481,-18.87415 -31.29572,-0.13723 -0.45592,5.28997 -1.94811,10.55789 -1.27433,15.89834 z" style="fill:#000000"/><path id="path2389" d="m 137.93935,149.93656 c 9.30455,5.26207 18.9682,9.92649 27.09847,16.97852 11.52508,6.0875 24.98851,6.31068 37.38653,9.797 23.62015,4.29593 45.83488,14.26035 69.78407,16.88523 9.17553,0.63482 27.37621,5.01277 24.85311,-9.33319 0.93481,-11.08579 -2.53809,-26.4085 -7.12219,-37.84463 -7.88505,-13.30629 -1.37086,-30.56775 -9.36349,-43.2095 -11.16552,-7.099752 -24.08806,-11.111316 -35.61432,-17.687915 -9.03584,-2.6974 -10.75113,7.474683 -19.33329,2.150016 -11.95057,1.542792 -23.16295,-2.534833 -31.46658,7.514256 -11.31232,5.310423 -23.89368,8.076513 -32.24182,18.508143 -10.99573,9.39196 -20.35668,22.79902 -24.00962,36.21087 l 0.0291,0.0312 -1e-5,0 z" style="fill:#ffffff"/><path id="path2373" d="m 170.2787,70.017523 c 2.59227,9.779219 20.24296,21.079449 26.85134,16.293602 9.16885,-7.000841 22.50676,2.433553 31.50363,-5.118094 10.45531,-9.096136 19.48129,-21.148205 22.23653,-34.963945 -10.45857,0.201126 -20.01302,5.659387 -30.60994,5.464179 -14.87534,0.411755 -27.3276,11.398578 -42.07303,10.478852 -5.52194,-0.792415 -15.0861,0.321065 -7.90853,7.845406 z" style="fill:#ffffff"/><path id="path2333" d="m 300.91538,192.25842 c 7.59247,3.3906 21.12359,2.40637 16.87815,-8.7887 -7.59896,-2.01774 -15.03144,2.13913 -16.87815,8.7887 z" style="fill:#ffffff;fill-opacity:1"/><path id="path2327" d="m 320.28684,201.78543 c 7.64634,7.98232 25.13112,14.18155 32.80646,10.38563 -3.34135,-12.11812 24.17683,-16.10321 8.35988,-21.20473 -10.56239,-3.68784 -24.88717,-17.56218 -34.24802,-11.76633 -3.863,6.57699 -8.97311,14.66823 -6.91832,22.58543 z" style="fill:#000000"/><path id="path2303" d="m 355.87598,114.22907 c 0.0198,20.20892 19.93858,2.03627 30.7831,6.45704 11.38334,0.45658 21.64207,-2.28967 31.6819,3.74156 6.90984,-6.94703 22.87106,-6.29473 17.36698,-19.65964 -0.0283,-7.657144 -21.17029,11.65837 -13.3474,-1.77033 6.76581,-2.32574 11.93951,-7.082631 8.83171,-12.927181 6.31472,-7.431024 -6.73957,-10.111364 -5.23111,-14.925139 -8.31099,-1.559714 -9.04921,14.547049 -19.74283,15.241256 -9.71738,2.923357 -21.01262,3.689332 -30.92393,1.102991 -5.43801,-4.582893 -16.55606,6.652927 -11.82363,10.850373 -2.90611,3.4961 -8.73745,6.50381 -7.59479,11.88907 z" style="fill:#ffffff"/><path id="path2299" d="m 361.66333,215.75012 c 10.50514,-5.93821 26.63382,6.14729 34.13597,0.0884 -2.43104,-11.64047 -12.21478,-20.64372 -23.62278,-15.0484 -10.29872,-2.26533 -12.34772,9.76452 -12.26542,15.00303 l 1.75222,-0.043 10e-6,-1e-5 z" style="fill:#ffffff"/><path id="path2291" d="m 373.72983,72.924444 c 4.62611,-4.441696 21.65546,-1.243309 9.54016,3.21323 -14.26478,4.132205 -0.35383,18.143498 6.72807,8.907777 -7.30034,-5.09565 -5.1618,-11.305393 3.03024,-6.387673 6.76946,11.36381 31.66008,-2.335146 18.81144,-9.975585 -10.18987,-4.884689 -22.65518,-12.147264 -32.35107,-4.097233 -3.65521,0.768687 -8.04769,4.146443 -5.75884,8.339484 z" style="fill:#ffffff"/><path id="path2289" d="m 393.3003,67.605925 c 12.33489,-11.031784 2.404,15.89221 0,0 z" style="fill:#000000"/><path id="path2519" d="m 417.33023,6.9498586 c -13.83657,1.8254609 -21.95494,15.4028224 -27.53079,26.8564294 10.95587,3.741102 22.22592,11.848629 32.42501,18.857068 6.26927,9.29555 16.6364,2.913743 11.45729,-6.722318 -1.97919,-10.336607 7.84268,-11.247815 11.54147,-2.926489 7.00719,4.179348 25.16575,-0.06082 14.32715,-5.110518 -12.27788,-3.154938 -20.78781,-14.11194 -29.15916,-22.947377 -3.31402,-3.912295 -7.56042,-8.0624565 -13.06097,-8.0067954 z" style="fill:#000000"/><path id="path2279" d="m 467.76792,35.002211 c -10.64993,11.014884 21.97996,15.148871 9.78481,0.243919 -2.30904,-3.792581 -7.36247,-3.924882 -9.78481,-0.243919 z" style="fill:#ffffff"/><path id="path2271" d="m 393.42298,87.76718 c 1.21193,-0.746593 -1.21241,-0.401772 0,0 z" style="fill:#000000"/><path id="path2243" d="m 426.90827,292.7291 c 15.24037,4.53832 26.26957,-9.33105 32.80703,-20.95445 7.09467,-7.5435 13.99956,-35.29633 -2.9934,-31.0384 -10.5608,10.03667 -17.06082,23.6492 -24.73296,35.90752 -2.08965,4.73233 -6.10588,11.41831 -5.08067,16.08533 z" style="fill:#ffffff"/><path id="path2233" d="m 441.93219,117.68649 c 11.13296,2.44313 15.99221,14.4982 23.07724,22.14609 7.97756,10.17537 0.19095,26.04337 5.91256,34.88321 11.44292,-4.12391 22.64966,-8.2799 35.17366,-8.57878 13.99495,-1.58281 16.88234,-17.6354 14.31515,-29.01335 -3.62696,-17.1585 -18.95152,-30.82632 -36.58137,-31.91791 -13.35512,-2.7554 -26.86978,1.22997 -39.01245,6.59007 -2.06071,0.9197 -4.36787,3.56832 -2.88479,5.89067 z" style="fill:#ffffff"/></g></g></g></g></svg>