<?xml version="1.0" encoding="UTF-8" standalone="no"?>
<svg xmlns:dc="http://purl.org/dc/elements/1.1/" xmlns:cc="http://creativecommons.org/ns#" xmlns:rdf="http://www.w3.org/1999/02/22-rdf-syntax-ns#" xmlns:svg="http://www.w3.org/2000/svg" xmlns="http://www.w3.org/2000/svg" xmlns:sodipodi="http://sodipodi.sourceforge.net/DTD/sodipodi-0.dtd" xmlns:inkscape="http://www.inkscape.org/namespaces/inkscape" id="svg3741" version="1.1" viewBox="0 0 500 440"><defs id="defs3743"/><metadata id="metadata3746"><rdf:RDF><cc:Work rdf:about=""><dc:format>image/svg+xml</dc:format><dc:type rdf:resource="http://purl.org/dc/dcmitype/StillImage"/><dc:title/></cc:Work></rdf:RDF></metadata><g id="layer1" transform="translate(36.301365,-266.62536)"><g id="g24748" transform="translate(-2347.318,-2050.2232)"><g transform="translate(4959.111,4971.9867)" id="g22046"><g id="g22048"><g id="g22050" transform="translate(2639.6087,-727.89124)"><g id="g22052" transform="matrix(0.99999834,0,0,1.0009179,-3285.3129,-1756.434)"><path style="fill:#ffffff;fill-opacity:1;fill-rule:nonzero;stroke:#000000;stroke-width:1.79633701;stroke-linecap:round;stroke-linejoin:round;stroke-miterlimit:2;stroke-opacity:1;stroke-dasharray:none;stroke-dashoffset:0" d="m -1729.657,-157.23924 c -4.4566,-7.70081 -13.1754,-12.51819 -22.7409,-12.51819 -9.7394,0 -18.4615,5.08085 -23.0023,12.928 l -222.2004,384.02127 c -4.7688,8.24191 -5.4749,18.62338 -0.3734,27.4394 4.8697,8.41541 13.6405,13.41233 22.7223,13.41233 l 445.7076,0 c 9.0817,0 17.8525,-4.99698 22.7222,-13.41233 5.1016,-8.81596 4.3958,-19.19774 -0.3734,-27.4394 l -222.4617,-384.43108 z" id="path22054"/><path id="path22056" d="m -1752.3918,-161.75994 c 6.5396,0 12.22,3.32868 14.949,8.05523 l 222.4555,385.3022 c 3.3263,5.76134 3.7682,12.63048 0.3746,18.50829 -3.3028,5.72052 -9.1544,8.93566 -14.9303,8.93572 l -445.7164,0 c -5.7759,0 -11.6274,-3.21508 -14.9302,-8.93572 -3.3936,-5.87781 -2.9517,-12.74635 0.3747,-18.50829 l 222.1931,-384.89007 c 2.8883,-5.0026 8.6251,-8.46736 15.23,-8.46736 z" style="fill:#d40000;fill-opacity:1;fill-rule:nonzero;stroke:none"/><path id="path22058" d="m -1752.4105,-83.717877 170.2088,294.802657 -340.3989,0 170.1901,-294.802657 z" style="fill:#ffffff;fill-opacity:1;fill-rule:nonzero;stroke:none"/></g></g></g></g><g transform="translate(-18.182747,9.0913757)" id="g24640"><path style="fill:#000000;fill-opacity:1" d="m 2537.8694,2680.4053 -34.6818,0 20.1215,-61.0634 25.3449,0 -10.7846,61.0634" id="path22060"/><path style="fill:#000000;fill-opacity:1" d="m 2479.9055,2680.4053 -33.6445,0 33.6445,-61.0634 25.6826,0 -25.6826,61.0634" id="path22062"/><path style="fill:#000000;fill-opacity:1" d="m 2676.1343,2679.3004 33.6444,0 -33.6444,-61.0634 -25.6827,0 25.6827,61.0634" id="path22064"/><path style="fill:#000000;fill-opacity:1" d="m 2618.7777,2619.3419 18.3724,0 20.1215,61.0634 -34.6819,0 -5.0424,-28.393 -4.9027,-16.1729 0.6088,-17.6024" id="path22068"/><path style="fill:#000000;fill-opacity:1" d="m 2572.31,2619.3419 20.0733,0 5.1872,61.0634 -34.6819,0 4.198,-48.958 -0.3009,-13.2103" id="path22066"/></g><g style="stroke:#000000;stroke-width:3.53916788;stroke-miterlimit:4;stroke-opacity:1;stroke-dasharray:none" transform="matrix(-0.7089237,0,0,0.7089237,4690.1893,699.89767)" id="g24739"><path d="m 2972.5834,2728.9165 57.8957,-9.8088 25.2718,-45.1663 c -4.361,-1.8501 -11.4972,-8.6339 -14.2724,-16.0344 -2.8332,-7.5552 -20.5276,-32.9939 -50.3939,-40.3503 -29.8258,-7.3465 -68.851,18.3691 -74.005,52.1559 -5.1539,33.963 34.5357,60.2612 55.5038,59.2039 z" style="color:#000000;fill:#ffffff;fill-opacity:1;fill-rule:evenodd;stroke:#000000;stroke-width:3.53916788;stroke-miterlimit:4;stroke-opacity:1;stroke-dasharray:none;marker:none;visibility:visible;display:inline;overflow:visible;enable-background:accumulate" id="path6110"/><path d="m 3065.9294,2631.9374 c -1.5872,-6.0257 -6.0795,-19.0594 -13.229,-40.7091 -6.0924,-1.3646 -5.4661,-7.4668 -1.0638,-8.9606 4.244,-1.4401 8.0581,3.3699 4.7478,7.3395 7.7338,13.9774 14.8231,36.6828 19.9149,39.0853" style="color:#000000;fill:#ffffff;fill-opacity:1;fill-rule:evenodd;stroke:#000000;stroke-width:3.53916788;stroke-linecap:butt;stroke-linejoin:miter;stroke-miterlimit:4;stroke-opacity:1;stroke-dasharray:none;stroke-dashoffset:0;marker:none;visibility:visible;display:inline;overflow:visible;enable-background:accumulate" id="path6259"/><path d="m 3080.561,2623.8369 c 2.4215,0.1356 7.4448,-7.8576 9.2123,-9.6462 -1.9768,-5.922 3.452,-7.1026 5.8761,-5.1849 2.4541,1.9414 0.3934,7.0366 -3.2501,6.5742 -2.3052,3.4548 -6.1382,9.4853 -7.5073,11.4509" style="color:#000000;fill:#ffffff;fill-opacity:1;fill-rule:evenodd;stroke:#000000;stroke-width:3.53916788;stroke-linecap:butt;stroke-linejoin:miter;stroke-miterlimit:4;stroke-opacity:1;stroke-dasharray:none;stroke-dashoffset:0;marker:none;visibility:visible;display:inline;overflow:visible;enable-background:accumulate" id="path6263"/><path d="m 2956.6059,2726.005 c -21.7519,1.8917 -48.7444,7.1483 -52.4962,24.2921 161.9581,28.9252 186.3946,-26.207 185.1465,-122.3512 -8.8657,-8.9133 -34.0987,-3.8808 -33.877,10.6348 0.2217,14.5118 -1.6575,25.4879 -4.0441,33.0185 -2.4374,7.6908 -13.8721,31.2105 -54.5069,46.0604" style="fill:#ffffff;fill-opacity:1;fill-rule:evenodd;stroke:#000000;stroke-width:3.53916788;stroke-linecap:butt;stroke-linejoin:miter;stroke-miterlimit:4;stroke-opacity:1;stroke-dasharray:none" id="path5284"/><path d="m 3056.8081,2636.7627 c -1.8135,-6.5413 -10.6896,-23.4349 -20.7919,-43.8744 -6.2232,-0.5005 -7.3342,-6.6796 -3.5749,-8.901 3.6278,-2.1438 9.6463,1.8651 6.9227,6.258 8.3882,12.933 19.8197,36.9203 25.197,38.5883" style="color:#000000;fill:#ffffff;fill-opacity:1;fill-rule:evenodd;stroke:#000000;stroke-width:3.53916788;stroke-linecap:round;stroke-linejoin:miter;stroke-miterlimit:4;stroke-opacity:1;stroke-dasharray:none;stroke-dashoffset:0;marker:none;visibility:visible;display:inline;overflow:visible;enable-background:accumulate" id="path6257"/><path d="m 3051.3351,2671.5992 c -12.2015,-9.3931 -15.1332,-39.4657 -51.969,-51.7519 -36.7833,-12.2686 -77.1325,16.0785 -82.2865,49.8653 -5.1539,33.963 31.1609,53.9765 39.5263,56.2924 8.3325,2.3068 22.6835,5.726 40.2223,-8.3454 17.6147,-14.1323 25.1797,-47.0116 -4.2103,-62.7709 -29.2413,-15.6796 -48.1209,9.1474 -47.5221,23.1054 0.599,13.9627 14.8025,25.1969 25.1969,25.0207 10.396,-0.1762 15.594,-10.7924 16.0345,-18.1488 0.4405,-7.3565 -10.1317,-15.638 -16.5631,-11.8056 -6.3018,3.7552 -2.9073,13.3473 4.7575,10.5722" style="color:#000000;fill:none;stroke:#000000;stroke-width:3.53916788;stroke-linecap:round;stroke-linejoin:miter;stroke-miterlimit:4;stroke-opacity:1;stroke-dasharray:none;stroke-dashoffset:0;marker:none;visibility:visible;display:inline;overflow:visible;enable-background:accumulate" id="path6255"/><path d="m 3071.1431,2626.3345 c 2.8333,-3.6393 -1.8465,1.2275 10.5609,-17.9006 -2.7497,-5.6052 2.515,-8.177 5.6988,-6.3766 3.1568,1.7852 1.5443,7.5836 -2.1284,7.6117 -4.0028,8.5512 -7.4572,13.7578 -7.3892,17.0521" style="color:#000000;fill:#ffffff;fill-opacity:1;fill-rule:evenodd;stroke:#000000;stroke-width:3.53916788;stroke-linecap:round;stroke-linejoin:miter;stroke-miterlimit:4;stroke-opacity:1;stroke-dasharray:none;stroke-dashoffset:0;marker:none;visibility:visible;display:inline;overflow:visible;enable-background:accumulate" id="path6261"/></g></g></g></svg>