<?xml version="1.0" encoding="UTF-8" standalone="no"?>
<svg xmlns:dc="http://purl.org/dc/elements/1.1/" xmlns:cc="http://creativecommons.org/ns#" xmlns:rdf="http://www.w3.org/1999/02/22-rdf-syntax-ns#" xmlns:svg="http://www.w3.org/2000/svg" xmlns="http://www.w3.org/2000/svg" xmlns:sodipodi="http://sodipodi.sourceforge.net/DTD/sodipodi-0.dtd" xmlns:inkscape="http://www.inkscape.org/namespaces/inkscape" id="svg3741" version="1.1" viewBox="0 0 360 500"><defs id="defs3743"><linearGradient id="linearGradient4573-9-549"><stop id="stop33336" offset="0" style="stop-color:#ffffff;stop-opacity:1;"/><stop id="stop33338" offset="1" style="stop-color:#ffffff;stop-opacity:0;"/></linearGradient><linearGradient id="linearGradient835-346"><stop id="stop11272" offset="0.0000000" style="stop-color:#ffffff;stop-opacity:0.50000000;"/><stop id="stop11274" offset="1.0000000" style="stop-color:#ffffff;stop-opacity:0.10000000;"/></linearGradient><linearGradient id="linearGradient835-223"><stop id="stop11278" offset="0.0000000" style="stop-color:#ffffff;stop-opacity:0.50000000;"/><stop id="stop11280" offset="1.0000000" style="stop-color:#ffffff;stop-opacity:0.10000000;"/></linearGradient><linearGradient id="linearGradient835-553"><stop id="stop11284" offset="0.0000000" style="stop-color:#ffffff;stop-opacity:0.50000000;"/><stop id="stop11286" offset="1.0000000" style="stop-color:#ffffff;stop-opacity:0.10000000;"/></linearGradient></defs><metadata id="metadata3746"><rdf:RDF><cc:Work rdf:about=""><dc:format>image/svg+xml</dc:format><dc:type rdf:resource="http://purl.org/dc/dcmitype/StillImage"/><dc:title/></cc:Work></rdf:RDF></metadata><g id="layer1" transform="translate(46.501283,-65.165306)"><g id="g35095" transform="translate(-9001.305,-219.3519)"><g transform="matrix(0.71399975,0,0,1,3898.9938,-4.4194174)" id="g35065"><path d="m 7109.3619,289.99397 445.4519,0 c 11.4712,0.84019 24.4698,12.58542 25.1004,26.42179 l 0,445.03218 c 0.053,10.96469 -12.5081,25.70716 -26.689,26.4218 l -444.8165,0 c -10.1008,-0.6197 -25.9115,-16.34152 -26.3713,-26.74013 l 0.6355,-444.39551 c -1.1471,-6.6971 15.1516,-26.88242 26.689,-26.74013 z" style="fill:#ffffff;fill-opacity:1;fill-rule:evenodd;stroke:#000000;stroke-width:2.12320662;stroke-linecap:butt;stroke-linejoin:miter;stroke-miterlimit:4;stroke-opacity:1;stroke-dasharray:none" id="path35067"/><path d="m 7113.9555,301.69259 c -12.4731,-0.54716 -19.5924,7.99006 -19.1237,21.65088 l 0,431.85541 c 0.049,9.20994 3.9541,20.26462 16.638,20.48865 l 439.5473,-0.0332 c 12.6839,-0.22405 16.6217,-11.27875 16.6711,-20.48869 l 0,-431.88862 c 0.4687,-13.66082 -6.6505,-22.19805 -19.1237,-21.65088 l -434.609,0.0664 z" style="fill:#003399;fill-opacity:1;fill-rule:evenodd;stroke:none" id="path35069"/><circle d="m 216.5,412 c 0,36.72694 -29.77306,66.5 -66.5,66.5 -36.72694,0 -66.5,-29.77306 -66.5,-66.5 0,-36.72694 29.77306,-66.5 66.5,-66.5 36.72694,0 66.5,29.77306 66.5,66.5 z" cx="150" cy="412" r="66.5" transform="matrix(0.40894777,0,0,0.4097314,7126.4161,375.05115)" style="fill:#003399;fill-opacity:1;stroke:none" id="circle35071"/><circle d="m 916.5,412 c 0,36.72694 -29.77306,66.5 -66.5,66.5 -36.72694,0 -66.5,-29.77306 -66.5,-66.5 0,-36.72694 29.77306,-66.5 66.5,-66.5 36.72694,0 66.5,29.77306 66.5,66.5 z" cx="850" cy="412" r="66.5" transform="matrix(0.40894777,0,0,0.4097314,7126.4161,375.05115)" style="fill:#003399;fill-opacity:1;stroke:none" id="circle35073"/></g><g transform="translate(1294.3819,-17.473805)" id="g35085"><g transform="matrix(1.5638131,0,0,1.5638131,7161.6181,-214.34642)" id="g3655"><path transform="translate(0.25254635,0.50508455)" style="fill:#ffffff;fill-opacity:1;fill-rule:nonzero;stroke:none" d="m 345.21962,548.04352 c 0,-27.40039 12.1265,-42.17387 42.17388,-42.17387 0.0574,0 0.11475,1.2e-4 0.17213,3.5e-4 l -0.17214,42.17352 -42.17387,0 z" id="path3620"/><path style="fill:#ffffff;fill-opacity:1;stroke:none" d="m 345.97725,551.8316 8.91751,23.83084 c 3.361,8.99911 6.75646,18.09048 22.27095,18.09048 5.68211,0 21.84455,0 21.84455,0 13.44579,0 16.70566,-4.05913 20.03161,-12.36168 3.35687,-8.37976 24.13296,-60.24303 24.13296,-60.24303 l -13.16008,0 -12.1904,30.43085 -71.8471,0.25254 z" id="path3624"/><path style="fill:#ffffff;fill-opacity:1;fill-rule:nonzero;stroke:none" id="path3628" d="m 363.40237,598.80371 c 0,7.81049 -6.55778,14.14214 -14.64721,14.14214 -8.08943,0 -14.64721,-6.33165 -14.64721,-14.14214 0,-7.81049 6.55778,-14.14214 14.64721,-14.14214 8.08943,0 14.64721,6.33165 14.64721,14.14214 z" transform="matrix(0.99998552,0,0,1.0356992,11.116523,-11.653902)"/><path transform="matrix(0.99998552,0,0,1.0356992,65.79103,-11.90644)" d="m 363.40237,598.80371 c 0,7.81049 -6.55778,14.14214 -14.64721,14.14214 -8.08943,0 -14.64721,-6.33165 -14.64721,-14.14214 0,-7.81049 6.55778,-14.14214 14.64721,-14.14214 8.08943,0 14.64721,6.33165 14.64721,14.14214 z" id="path3630" style="fill:#ffffff;fill-opacity:1;fill-rule:nonzero;stroke:none"/></g><path id="path3647" d="m 7880.455,692.37945 31.6554,-30.87189 26.5423,27.48157 19.7762,-19.10029 17.9477,90.29182 -90.1139,-20.59213 20.5855,-19.88189 -26.3932,-27.32719 z" style="fill:#ffffff;fill-opacity:1;stroke:none"/><g id="text3649" style="font-size:1405.75769043px;font-style:normal;font-weight:normal;fill:#ffffff;fill-opacity:1;stroke:none;font-family:Bitstream Vera Sans" transform="matrix(0.2015873,0,0,0.2015873,7778.3496,451.46416)"><path id="path2841" style="font-variant:normal;font-weight:bold;font-stretch:normal;fill:#ffffff;font-family:Arial Black;-inkscape-font-specification:'Arial Black, Bold'" d="m -83.079202,-534.12632 516.863062,0 c 112.5697,10e-4 196.76865,26.77078 252.59708,80.3094 56.28429,53.54047 84.42687,129.73136 84.42783,228.5729 -9.6e-4,101.58855 -30.66035,180.982668 -91.97829,238.182578 C 617.96843,70.139387 524.84623,98.739572 399.4636,98.739199 l -170.22847,0 0,373.404391 -312.314332,0 0,-1006.26991 m 312.314332,429.0032 76.19097,0 c 59.94549,5.7e-4 102.04497,-10.29549 126.29854,-30.88823 24.25234,-21.04913 36.37882,-47.8189 36.37947,-80.3094 -6.5e-4,-31.57392 -10.52552,-58.34369 -31.57463,-80.3094 -21.05036,-21.96417 -60.63302,-32.94665 -118.74809,-32.94745 l -88.54626,0 0,224.45448"/></g></g></g></g></svg>