<?xml version="1.0" encoding="UTF-8" standalone="no"?>
<svg xmlns:dc="http://purl.org/dc/elements/1.1/" xmlns:cc="http://creativecommons.org/ns#" xmlns:rdf="http://www.w3.org/1999/02/22-rdf-syntax-ns#" xmlns:svg="http://www.w3.org/2000/svg" xmlns="http://www.w3.org/2000/svg" xmlns:sodipodi="http://sodipodi.sourceforge.net/DTD/sodipodi-0.dtd" xmlns:inkscape="http://www.inkscape.org/namespaces/inkscape" id="svg3741" version="1.1" viewBox="0 0 500 440"><defs id="defs3743"/><metadata id="metadata3746"><rdf:RDF><cc:Work rdf:about=""><dc:format>image/svg+xml</dc:format><dc:type rdf:resource="http://purl.org/dc/dcmitype/StillImage"/><dc:title/></cc:Work></rdf:RDF></metadata><g id="layer1" transform="translate(49.191165,-349.504)"><g transform="translate(3893.8306,-2581.9502)" id="g8021"><g transform="matrix(0.99999834,0,0,1.0009179,-1940.6316,3102.2671)" id="g4587"><path id="path4589" d="m -1729.657,-157.23924 c -4.4566,-7.70081 -13.1754,-12.51819 -22.7409,-12.51819 -9.7394,0 -18.4615,5.08085 -23.0023,12.928 l -222.2004,384.02127 c -4.7688,8.24191 -5.4749,18.62338 -0.3734,27.4394 4.8697,8.41541 13.6405,13.41233 22.7223,13.41233 l 445.7076,0 c 9.0817,0 17.8525,-4.99698 22.7222,-13.41233 5.1016,-8.81596 4.3958,-19.19774 -0.3734,-27.4394 l -222.4617,-384.43108 z" style="fill:#ffffff;fill-opacity:1;fill-rule:nonzero;stroke:#000000;stroke-width:1.79633701;stroke-linecap:round;stroke-linejoin:round;stroke-miterlimit:2;stroke-opacity:1;stroke-dasharray:none;stroke-dashoffset:0"/><path style="fill:#d40000;fill-opacity:1;fill-rule:nonzero;stroke:none" d="m -1752.3918,-161.75994 c 6.5396,0 12.22,3.32868 14.949,8.05523 l 222.4555,385.3022 c 3.3263,5.76134 3.7682,12.63048 0.3746,18.50829 -3.3028,5.72052 -9.1544,8.93566 -14.9303,8.93572 l -445.7164,0 c -5.7759,0 -11.6274,-3.21508 -14.9302,-8.93572 -3.3936,-5.87781 -2.9517,-12.74635 0.3747,-18.50829 l 222.1931,-384.89007 c 2.8883,-5.0026 8.6251,-8.46736 15.23,-8.46736 z" id="path4591"/><path style="fill:#ffffff;fill-opacity:1;fill-rule:nonzero;stroke:none" d="m -1752.4105,-83.717877 170.2088,294.802657 -340.3989,0 170.1901,-294.802657 z" id="path4593"/></g><path id="_51223072" d="m -3694.2557,3109.2494 -1.2576,0.05 -1.2575,0.05 -1.2575,0.1006 -1.2576,0.151 -1.2575,0.1509 -1.2576,0.2515 -1.2072,0.3018 -1.2576,0.3018 -1.2072,0.4024 -1.1569,0.4024 -1.2073,0.4527 -1.1569,0.503 -1.1066,0.6037 -1.1067,0.5533 -1.1066,0.6539 -1.1067,0.7042 -1.0563,0.7546 -1.0061,0.7545 -0.6538,0.5534 -0.6037,0.503 -0.6539,0.6035 -0.6037,0.6037 -0.6036,0.6036 -0.5532,0.6036 -0.5534,0.654 -0.5533,0.6538 -0.5533,0.7043 -0.5031,0.6539 -0.503,0.7043 -0.503,0.7042 -0.4527,0.7545 -0.4024,0.7042 -0.4527,0.7042 -0.3522,0.7546 -0.4024,0.8551 -0.4024,0.8048 -0.3521,0.8552 -0.3521,0.8048 -0.3018,0.8048 -0.2515,0.7545 -0.2515,0.8049 -0.2012,0.8048 -0.2012,0.8048 -0.1509,0.8048 -0.1509,0.8552 -0.1007,0.8551 -0.1509,0.9054 -0.05,0.9055 -0.05,0.9557 -0.05,0.9558 -0.05,1.5593 0,1.3582 0.05,1.2575 0.1006,1.1569 0.2012,1.157 0.2514,1.1569 0.3018,1.3079 0.4527,1.4084 0.7546,2.5151 0.3521,1.006 0.3018,0.8049 0.3019,0.8048 0.3521,0.8048 0.4024,0.8551 0.5029,0.9558 0.7043,1.3079 0.7042,1.3078 0.7546,1.3078 0.7545,1.2575 0.7545,1.2576 0.8048,1.2575 0.8552,1.2073 0.8048,1.2072 0.9054,1.2073 0.8552,1.1569 0.9054,1.1067 0.9054,1.1569 0.9557,1.1066 0.9558,1.0564 1.006,1.0563 1.006,1.006 1.6098,1.6097 1.509,1.4084 1.4588,1.2576 1.358,1.1066 0.654,0.5031 0.6036,0.4527 0.6037,0.4024 0.5533,0.3521 0.5532,0.3521 0.5031,0.2515 0.503,0.2515 0.4527,0.1509 0.4528,0.1509 0.3521,0.1509 0.2012,0.2012 0.05,0.05 0.05,0.05 -0.05,0.1006 -0.1005,0.1509 -0.4025,0.4025 -0.5533,0.6036 -0.7545,0.7042 -0.7546,0.7042 -0.7545,0.654 -0.6539,0.6036 -0.5533,0.4024 -0.3018,0.2012 -0.3019,0.1509 -0.3018,0.1509 -0.3521,0.1006 -0.3521,0.1509 -0.4024,0.1006 -1.006,0.1509 -1.1067,0.2012 -1.1066,0.1006 -1.0563,0.1006 -1.0564,0.05 -1.006,0.05 -1.006,0 -1.0061,-0.05 -0.9558,-0.05 -1.0059,-0.1006 -0.9558,-0.1509 -0.9055,-0.1509 -0.9556,-0.2515 -0.9055,-0.2012 -0.9054,-0.3018 -0.9055,-0.3018 -0.9054,-0.3521 -0.8048,-0.3521 -0.7546,-0.3522 -0.7545,-0.3521 -0.7042,-0.4024 -0.6539,-0.4527 -0.6036,-0.4527 -0.6037,-0.503 -0.6036,-0.6036 -0.6036,-0.6037 -0.6036,-0.6539 -0.6036,-0.7545 -0.5534,-0.8048 -0.6539,-0.9055 -0.6539,-0.9557 -0.6539,-1.0563 -0.7042,-1.2073 -0.5534,-0.9054 -0.503,-0.9055 -0.4527,-0.8551 -0.4527,-0.9054 -0.4527,-1.0061 -0.5031,-1.1066 -1.1569,-2.7163 -0.9054,-2.2133 -0.2515,-0.7042 -0.2012,-0.6036 -0.1006,-0.5533 -0.05,-0.503 0,-0.6037 0,-0.7042 0,-0.6036 0,-0.5533 0.05,-0.5031 0.1006,-0.503 0.1006,-0.503 0.1509,-0.5533 0.4023,-1.3079 0.3522,-1.0563 0.3018,-1.0563 0.2515,-0.9558 0.1509,-0.7042 0.1509,-0.7042 0,-0.2515 0,-0.2012 0,-0.2012 -0.05,-0.1509 -0.1006,-0.2012 -0.1509,-0.1509 -0.2515,-0.3019 -0.4527,-0.4024 -0.503,-0.4024 -0.5533,-0.4024 -0.6539,-0.4527 -0.5031,-0.4024 -0.2012,-0.2012 -0.2012,-0.2012 -0.1006,-0.2012 -0.1509,-0.2012 -0.1006,-0.2012 -0.05,-0.2516 -0.05,-0.2515 -0.05,-0.2515 0,-0.6036 0,-0.7545 0.05,-0.4527 0.1006,-0.5031 0.2011,-1.3078 0.3018,-1.509 0.3522,-1.5594 0.5533,-2.1127 0.4024,-1.8612 0.1509,-0.8048 0.1509,-0.7545 0.05,-0.6539 0.05,-0.654 0.05,-0.5533 0,-0.503 0,-0.4527 -0.1006,-0.4024 -0.05,-0.4024 -0.1006,-0.3522 -0.1509,-0.3018 -0.2012,-0.2515 -0.3018,-0.3521 -0.3019,-0.2515 -0.3521,-0.2012 -0.4024,-0.1509 -0.4024,-0.1006 -0.4024,-0.05 -0.4024,0 -0.4024,0.1006 -0.4024,0.1509 -0.4025,0.1509 -0.4024,0.2515 -0.4024,0.3018 -0.3521,0.3521 -0.3018,0.4024 -0.3018,0.4025 -0.2515,0.503 -0.1006,0.3018 -0.1509,0.3521 -0.05,0.3521 -0.05,0.4024 -0.05,0.5533 -0.05,0.654 0,1.8611 -0.05,4.6781 -0.05,3.0181 -0.05,0.9558 -0.05,0.6036 -0.05,0.352 0,0.1006 -0.05,0.05 -0.05,-0.1006 -0.1006,-0.2515 -0.3521,-0.855 -0.4527,-1.2576 -0.503,-1.509 -0.4024,-1.2073 -0.4024,-1.1067 -0.4025,-1.006 -0.3521,-0.9557 -0.4024,-0.9055 -0.4024,-0.8048 -0.4025,-0.7545 -0.352,-0.7042 -0.4024,-0.6037 -0.4024,-0.5533 -0.4025,-0.4527 -0.4024,-0.4527 -0.4527,-0.4024 -0.4024,-0.3018 -0.4528,-0.2515 -0.4527,-0.2515 -0.6035,-0.2012 -0.6037,-0.1509 -0.2515,-0.05 -0.3018,0 -0.3018,0 -0.2516,0 -0.2515,0.05 -0.2515,0 -0.2012,0.1005 -0.2515,0.1007 -0.2011,0.1006 -0.2013,0.1006 -0.1509,0.1509 -0.1509,0.1509 -0.1509,0.2012 -0.1509,0.1509 -0.05,0.2012 -0.1006,0.2012 0,0.2012 0,0.2515 0,0.6539 0.1006,0.4527 0.1006,0.4528 0.1509,0.5533 0.2013,0.5533 0.2515,0.5533 0.3018,0.6539 0.3521,0.654 0.4023,0.7042 0.4528,0.7042 0.4527,0.8048 0.5533,0.8552 0.6037,0.8551 1.4084,1.9115 1.5594,2.0624 2.4647,3.2193 -0.6036,0.2012 -0.3018,0.05 -0.4024,0.05 -0.4024,0 -0.4527,-0.05 -0.4024,-0.05 -0.4025,0 -0.3018,0.05 -0.1509,0.05 -0.1006,0.1006 -0.1006,0.05 -0.1006,0.1006 -0.2012,0.3018 -0.2012,0.3018 -0.1006,0.4024 -0.1509,0.5031 -0.2012,0.4024 -0.2012,0.4024 -0.2012,0.3018 -0.3018,0.2515 -0.3018,0.2012 -0.3018,0.1509 -0.4025,0.1509 -0.503,0.1509 -0.3521,0.1509 -0.2012,0.1006 -0.151,0.1509 -0.1006,0.1006 -0.1005,0.1509 -0.1006,0.1509 -0.1006,0.1509 -0.05,0.2013 -0.05,0.2012 -0.05,0.503 0,0.6036 0,0.6539 0.05,0.6539 0.05,0.654 0.1006,0.6036 0.1006,0.6036 0.1006,0.5533 0.1509,0.5533 0.2012,0.5031 0.2012,0.503 0.2012,0.4527 0.2515,0.503 0.2515,0.4024 0.3019,0.4024 0.3018,0.4025 0.3521,0.3521 0.3521,0.3521 0.3018,0.2515 0.4024,0.3018 0.4527,0.3018 0.503,0.2515 1.157,0.7043 1.3581,0.6539 1.157,0.6036 1.006,0.5533 0.8551,0.5533 0.7545,0.5031 0.3019,0.2515 0.3018,0.3018 0.3018,0.2515 0.2515,0.3018 0.2012,0.2515 0.2515,0.3018 0.151,0.3018 0.2012,0.3018 0.3521,0.7546 0.5029,1.1066 0.5534,1.4084 0.5533,1.5091 0.6036,1.509 0.654,1.5594 0.5533,1.4084 0.4526,1.0061 0.4025,0.8048 0.4527,0.8048 0.4527,0.8049 0.5031,0.8048 0.503,0.7545 0.5533,0.7546 0.5533,0.7042 0.5533,0.7042 0.6036,0.6539 0.6037,0.6539 0.6036,0.6037 0.6539,0.5533 0.6036,0.503 0.6037,0.4527 0.6539,0.4527 0.6036,0.4025 0.6539,0.3521 0.6539,0.3521 1.4588,0.7042 1.4587,0.6539 1.5594,0.6036 1.5593,0.5534 1.5594,0.4527 1.4085,0.4024 0.7042,0.1509 0.6539,0.1509 0.9558,0.1509 0.7545,0.1509 0.6036,0.1509 0.5533,0.1509 0.4024,0.2012 0.3521,0.2012 0.3522,0.2012 0.3018,0.3019 0.3018,0.2515 0.2515,0.2515 0.2515,0.3018 0.2012,0.3018 0.2012,0.2515 0.1509,0.3018 0.1006,0.3018 0.1006,0.3521 0.1006,0.3019 0.05,0.3521 0,0.3521 0,0.3521 0,0.4024 -0.1006,0.4024 -0.05,0.4024 -0.1006,0.4025 -0.503,2.0623 -0.2515,1.0061 -0.2012,1.006 -0.1509,1.006 -0.2012,1.0061 -0.1509,1.0563 -0.1006,1.006 -0.1006,1.0564 -0.1006,1.1066 -0.1509,2.2133 -0.1006,2.3642 0,2.5654 0,2.4648 0,1.0563 0.05,0.9557 0.05,0.9055 0.1006,0.8551 0.1509,0.8048 0.1509,0.8551 0.2012,0.8049 0.2515,0.8551 0.2515,0.9557 0.3521,1.0061 0.4025,1.0563 0.4527,1.2072 1.1569,2.8169 0.6036,1.6097 0.5533,1.4084 0.4528,1.3079 0.4024,1.1569 0.3018,1.1067 0.3018,1.0563 0.2515,1.006 0.1509,1.0564 0.1006,0.5533 0.1006,1.1066 0.3018,3.6721 0.8049,10.5633 0.7545,10.664 0.2515,3.7223 0.05,1.9115 -0.05,0 -0.2012,0.05 -0.7042,0.05 -1.0564,0.1006 -1.3078,0.1006 -1.3582,0.05 -1.3581,0.1006 -1.3079,0.1006 -1.2575,0.2012 -1.2575,0.1509 -1.2576,0.2515 -1.3581,0.2516 -1.3582,0.3521 -1.7102,0.4527 -1.5594,0.4527 -0.7043,0.2012 -0.7042,0.3018 -0.6538,0.2515 -0.654,0.2515 -0.6036,0.2515 -0.6037,0.3019 -0.5533,0.3018 -0.5533,0.3521 -0.503,0.3018 -0.503,0.3521 -0.503,0.3521 -0.4528,0.3521 -0.6036,0.503 -0.2012,0.2515 -0.2515,0.2012 -0.1509,0.2516 -0.1509,0.2012 -0.1509,0.2515 -0.1006,0.3018 -0.1006,0.2515 -0.1006,0.3521 -0.05,0.3521 -0.05,0.4527 -0.1006,0.9558 -0.05,1.3078 -0.05,1.8612 0,0.6539 0,0.4527 0.05,0.3521 0.1006,0.3019 0.1006,0.3017 0.1509,0.3019 0.2515,0.3018 0.2515,0.3018 0.2515,0.2515 0.3522,0.3018 0.3521,0.2012 0.4024,0.2012 0.4526,0.1509 0.5031,0.1509 0.5533,0.1509 0.6036,0.1006 0.6037,0.05 0.7545,0.05 0.7545,0.05 0.8048,0 0.9055,0 0.9557,0 1.2575,-0.05 1.2576,-0.1006 1.2072,-0.1509 1.2073,-0.1509 1.1569,-0.2515 1.2072,-0.2515 1.157,-0.3018 1.2575,-0.3521 1.3079,-0.4527 1.3079,-0.4527 1.4084,-0.6037 1.5091,-0.6036 1.6096,-0.7042 1.7103,-0.8048 1.8108,-0.9055 2.0121,-0.9557 5.835,-2.9175 4.3762,2.3642 3.4708,1.8108 1.5594,0.8049 1.4587,0.7042 1.3582,0.6539 1.2576,0.6036 1.2072,0.503 1.157,0.5031 1.1066,0.4024 1.0563,0.3521 1.0061,0.3521 1.006,0.3018 1.006,0.2515 1.0061,0.2012 1.006,0.2012 1.006,0.1509 0.9558,0.151 1.3079,0.1005 1.4083,0.05 1.4085,0 1.5593,0 0.7043,-0.05 0.6539,0 0.6037,-0.1005 0.5533,-0.1007 0.5029,-0.05 0.5031,-0.1509 0.4024,-0.1509 0.4024,-0.1509 0.3522,-0.1509 0.3018,-0.2012 0.3018,-0.2515 0.2515,-0.2515 0.2515,-0.2515 0.2515,-0.3018 0.1509,-0.2515 0.1006,-0.2515 0.1006,-0.3018 0.05,-0.3019 0.05,-0.4527 0,-0.6036 0,-1.7103 0,-1.3078 -0.1006,-1.0563 -0.05,-0.4025 -0.05,-0.4024 -0.1006,-0.3521 -0.1006,-0.3521 -0.1006,-0.3018 -0.1006,-0.2515 -0.2012,-0.2515 -0.1509,-0.2515 -0.2515,-0.2515 -0.2515,-0.2515 -0.5533,-0.5031 -0.503,-0.4024 -0.503,-0.3521 -0.5031,-0.3521 -0.5533,-0.3521 -0.503,-0.3521 -0.5533,-0.3018 -0.6036,-0.3019 -0.6037,-0.2515 -0.6036,-0.3018 -0.6539,-0.2515 -0.7042,-0.2515 -0.7042,-0.2012 -1.6097,-0.503 -1.7102,-0.4527 -1.4086,-0.3018 -1.3077,-0.3019 -1.3079,-0.2012 -1.3078,-0.2012 -1.3079,-0.1509 -1.3079,-0.1509 -1.4084,-0.1006 -1.4085,-0.1006 -3.169,-0.1509 0.1006,-1.1066 0.3521,-4.829 0.654,-9.9597 0.3521,-5.4326 0.3521,-4.7284 0.2515,-3.4205 0.1509,-1.7606 0.1509,-0.8551 0.2012,-0.9055 0.2012,-0.9557 0.2515,-0.9557 0.2515,-0.9054 0.2013,-0.7043 0.2012,-0.5533 0.1006,-0.2012 0.05,-0.1006 0.2012,-0.2012 0.3521,-0.2515 0.9054,-0.6539 0.4527,-0.3019 0.4024,-0.3018 0.4527,-0.3521 0.4025,-0.3521 0.8048,-0.7042 0.7545,-0.8551 0.7042,-0.8552 0.7043,-0.9054 0.6539,-1.006 0.6036,-1.0564 0.5533,-1.1066 0.5533,-1.1569 0.4528,-1.2073 0.4527,-1.2575 0.4024,-1.3582 0.3521,-1.3581 0.3018,-1.4588 0.2516,-1.4587 0.1006,-0.7043 0.05,-0.7545 0.1509,-1.7103 0.05,-1.9617 0.05,-2.1127 -0.05,-2.1127 -0.1006,-2.1126 -0.1006,-1.9618 -0.1006,-0.9557 -0.1006,-0.8552 -0.2515,-2.012 -0.3018,-1.7606 -0.3018,-1.6097 -0.1509,-0.7545 -0.2013,-0.7545 -0.2012,-0.7042 -0.2515,-0.7043 -0.2012,-0.7042 -0.3018,-0.7042 -0.5533,-1.4588 -0.7042,-1.509 -0.503,-0.9557 -0.4528,-0.8552 -0.503,-0.7545 -0.503,-0.6036 -0.2516,-0.3018 -0.2515,-0.2516 -0.2515,-0.2515 -0.2515,-0.2012 -0.2514,-0.2012 -0.3018,-0.1509 -0.2515,-0.1509 -0.3019,-0.1509 -0.6036,-0.2012 -0.9055,-0.3018 -2.3138,-0.7545 -2.3642,-0.7043 -0.9557,-0.2515 -0.6037,-0.1509 -0.2515,-0.05 -0.3018,-0.2012 -0.4024,-0.2515 -0.4024,-0.2515 -0.4527,-0.3521 -0.503,-0.4024 -1.0061,-0.8551 -1.006,-0.9558 -0.9054,-0.9557 -0.4024,-0.4527 -0.3522,-0.4024 -0.2515,-0.3522 -0.2012,-0.3521 -0.05,-0.1509 -0.05,-0.1006 0,-0.1509 0.05,-0.05 0.1006,-0.1509 0.1509,-0.1006 0.5031,-0.2515 0.503,-0.3018 0.5533,-0.3018 0.5533,-0.3018 0.5533,-0.4024 0.6037,-0.4025 0.6036,-0.503 1.4085,-1.1066 1.2575,-1.0564 1.2575,-1.1066 1.2072,-1.1569 1.2073,-1.2073 1.157,-1.2575 1.1569,-1.2576 1.1066,-1.3078 1.1067,-1.3582 1.1066,-1.4084 1.0564,-1.4085 1.0563,-1.509 1.0563,-1.5091 0.9558,-1.5593 1.006,-1.66 1.006,-1.6096 0.9054,-1.7103 0.6037,-1.1569 0.5533,-1.0564 0.4528,-1.006 0.4526,-1.0563 0.4527,-1.157 0.4024,-1.3078 0.5031,-1.5091 0.6036,-1.8611 0.8552,-2.7667 0,-4.9295 0,-2.6157 -0.05,-1.006 -0.05,-0.8049 -0.05,-0.7042 -0.1006,-0.6539 -0.1006,-0.6539 -0.1509,-0.7043 -0.2012,-0.8551 -0.2013,-0.8048 -0.2515,-0.8048 -0.2515,-0.8049 -0.3018,-0.8048 -0.2515,-0.7545 -0.3017,-0.7545 -0.3522,-0.7546 -0.3018,-0.7545 -0.4024,-0.7545 -0.3521,-0.7042 -0.4025,-0.7043 -0.4024,-0.7042 -0.4024,-0.654 -0.4527,-0.7041 -0.4527,-0.654 -0.4527,-0.6539 -0.503,-0.654 -0.5031,-0.6036 -0.503,-0.6036 -0.5533,-0.6036 -0.5533,-0.5533 -0.5533,-0.6036 -0.6037,-0.5534 -0.6036,-0.5533 -0.6036,-0.503 -0.6539,-0.503 -0.6036,-0.5533 -0.654,-0.4528 -0.7042,-0.4527 -0.6539,-0.503 -0.7545,-0.4024 -1.0564,-0.6539 -1.1569,-0.6036 -1.1569,-0.5534 -1.157,-0.503 -1.157,-0.4527 -1.2072,-0.4527 -1.2072,-0.3521 -1.2576,-0.3018 -1.2072,-0.3018 -1.2576,-0.2012 -1.2575,-0.1509 -1.2575,-0.1509 -1.2576,-0.1007 -1.2575,-0.05 z m 26.7606,28.0181 0.5533,0.05 0.4526,0 0.4528,0.05 0.3521,0.1006 0.2515,0.05 0.1006,0.05 0.1006,0.05 0.05,0.05 0,0.1006 -0.1509,0.8551 -0.3018,1.6601 -0.2515,1.0059 -0.2516,1.0061 -0.2515,1.0061 -0.3018,0.9556 -0.3018,0.9055 -0.352,0.9557 -0.3521,0.8552 -0.4025,0.8551 -0.4024,0.8551 -0.4024,0.8049 -0.4528,0.8048 -0.503,0.7545 -0.503,0.7545 -0.5533,0.7546 -0.5533,0.7042 -0.5533,0.6539 -0.6037,0.6539 -0.6036,0.6539 -0.6539,0.6037 -0.7042,0.6036 -0.7043,0.5533 -0.7042,0.5533 -0.7545,0.503 -0.8048,0.503 -0.8049,0.5031 -0.8048,0.4527 -0.8551,0.4527 -0.9054,0.4024 -0.9055,0.4024 -0.9054,0.4024 -0.9557,0.3522 -1.0061,0.3521 -2.1126,0.6539 -0.8049,0.2012 -0.5533,0.1509 -0.8049,0.1006 -0.1509,-1.1569 -0.05,-0.7043 -0.05,-0.7545 -0.05,-0.7042 0,-0.7545 0,-0.7043 0.05,-0.7042 0.05,-0.7042 0.1006,-0.7042 0.1007,-0.7043 0.1509,-0.6539 0.1006,-0.7042 0.2012,-0.7042 0.1509,-0.6539 0.2515,-0.654 0.2012,-0.7042 0.2515,-0.6036 0.3019,-0.6539 0.2515,-0.6539 0.3521,-0.6037 0.3018,-0.6036 0.3521,-0.6037 0.4024,-0.6035 0.4024,-0.5533 0.4024,-0.6037 0.4025,-0.5533 0.4527,-0.5031 0.4527,-0.5533 0.503,-0.5029 0.503,-0.5031 0.503,-0.4527 0.5534,-0.503 0.5533,-0.4527 0.7545,-0.5534 0.9054,-0.5533 0.9558,-0.5533 1.0563,-0.5533 1.0563,-0.503 1.0564,-0.4528 0.9557,-0.3521 0.8551,-0.2515 0.6036,-0.1509 0.654,-0.1509 0.6539,-0.1006 0.654,-0.1006 1.4083,-0.1509 1.3079,-0.05 0.6037,-0.05 z m -56.4386,0.1006 0.6036,0 0.9055,0 1.0562,0 1.1067,0 1.1067,0.1006 1.0562,0.1509 1.0564,0.1509 1.0061,0.2515 1.0059,0.3019 0.9558,0.3018 0.9558,0.4024 0.9054,0.4024 0.9054,0.5031 0.9054,0.5532 0.8552,0.5533 0.8551,0.654 0.8551,0.6539 0.8049,0.7546 0.8048,0.7544 0.6539,0.7546 0.6036,0.6539 0.5533,0.7043 0.5031,0.7041 0.4527,0.7043 0.4527,0.7545 0.4024,0.7546 0.4527,0.8551 0.2515,0.6036 0.2515,0.6539 0.2515,0.6539 0.2012,0.654 0.2013,0.7042 0.1509,0.7042 0.2012,0.7042 0.1006,0.7043 0.1006,0.7042 0.1006,0.7042 0.1006,0.7545 0,0.7043 0.05,0.7042 0,0.7042 -0.05,0.6539 -0.05,0.7042 -0.2012,2.0625 -0.05,0.05 -0.05,0.05 -0.05,0 -0.2012,0 -0.3521,0 -0.4023,-0.1007 -0.5534,-0.1508 -1.5091,-0.4528 -1.006,-0.3521 -1.006,-0.3521 -0.9558,-0.3521 -0.9054,-0.3522 -0.8551,-0.3521 -0.8551,-0.4024 -0.8049,-0.4024 -0.8048,-0.4024 -0.7042,-0.4527 -0.7545,-0.4527 -0.7043,-0.4528 -0.6539,-0.503 -0.6539,-0.503 -0.6539,-0.5533 -0.6036,-0.5533 -0.654,-0.6036 -0.503,-0.5534 -0.503,-0.503 -0.503,-0.5533 -0.4527,-0.5533 -0.4527,-0.5533 -0.4025,-0.6036 -0.4024,-0.6037 -0.4024,-0.5533 -0.3521,-0.6539 -0.3522,-0.6036 -0.352,-0.654 -0.3018,-0.7042 -0.3521,-0.7043 -0.3019,-0.7041 -0.2515,-0.7042 -0.3018,-0.7546 -0.3018,-1.0061 -0.3521,-1.1568 -0.3018,-1.2576 -0.3019,-1.2576 -0.2515,-1.1569 -0.2011,-0.9557 -0.1006,-0.7043 0,-0.2012 0.05,-0.1006 0.05,0 0.2012,-0.05 z" style="fill:#000000;fill-rule:evenodd"/></g></g></svg>