<?xml version="1.0" encoding="UTF-8" standalone="no"?>
<svg xmlns:dc="http://purl.org/dc/elements/1.1/" xmlns:cc="http://creativecommons.org/ns#" xmlns:rdf="http://www.w3.org/1999/02/22-rdf-syntax-ns#" xmlns:svg="http://www.w3.org/2000/svg" xmlns="http://www.w3.org/2000/svg" xmlns:sodipodi="http://sodipodi.sourceforge.net/DTD/sodipodi-0.dtd" xmlns:inkscape="http://www.inkscape.org/namespaces/inkscape" id="svg3741" version="1.1" viewBox="0 0 500 440"><defs id="defs3743"><linearGradient id="linearGradient4573-9-549"><stop id="stop33336" offset="0" style="stop-color:#ffffff;stop-opacity:1;"/><stop id="stop33338" offset="1" style="stop-color:#ffffff;stop-opacity:0;"/></linearGradient></defs><metadata id="metadata3746"><rdf:RDF><cc:Work rdf:about=""><dc:format>image/svg+xml</dc:format><dc:type rdf:resource="http://purl.org/dc/dcmitype/StillImage"/><dc:title/></cc:Work></rdf:RDF></metadata><g id="layer1" transform="translate(112.00126,-329.47105)"><g transform="translate(-5538.5464,-1206.9507)" id="g22482"><g id="g22484" transform="translate(1340.6843,7.8681411)"><g id="g22486" transform="matrix(0.99999834,0,0,1.0009179,6088.251,1699.3665)"><path style="fill:#ffffff;fill-opacity:1;fill-rule:nonzero;stroke:#000000;stroke-width:1.79633701;stroke-linecap:round;stroke-linejoin:round;stroke-miterlimit:2;stroke-opacity:1;stroke-dasharray:none;stroke-dashoffset:0" d="m -1729.657,-157.23924 c -4.4566,-7.70081 -13.1754,-12.51819 -22.7409,-12.51819 -9.7394,0 -18.4615,5.08085 -23.0023,12.928 l -222.2004,384.02127 c -4.7688,8.24191 -5.4749,18.62338 -0.3734,27.4394 4.8697,8.41541 13.6405,13.41233 22.7223,13.41233 l 445.7076,0 c 9.0817,0 17.8525,-4.99698 22.7222,-13.41233 5.1016,-8.81596 4.3958,-19.19774 -0.3734,-27.4394 l -222.4617,-384.43108 z" id="path22488"/><path id="path22490" d="m -1752.3918,-161.75994 c 6.5396,0 12.22,3.32868 14.949,8.05523 l 222.4555,385.3022 c 3.3263,5.76134 3.7682,12.63048 0.3746,18.50829 -3.3028,5.72052 -9.1544,8.93566 -14.9303,8.93572 l -445.7164,0 c -5.7759,0 -11.6274,-3.21508 -14.9302,-8.93572 -3.3936,-5.87781 -2.9517,-12.74635 0.3747,-18.50829 l 222.1931,-384.89007 c 2.8883,-5.0026 8.6251,-8.46736 15.23,-8.46736 z" style="fill:#d40000;fill-opacity:1;fill-rule:nonzero;stroke:none"/><path id="path22492" d="m -1752.4105,-83.717877 170.2088,294.802657 -340.3989,0 170.1901,-294.802657 z" style="fill:#ffffff;fill-opacity:1;fill-rule:nonzero;stroke:none"/></g></g><g transform="matrix(0.52700027,0,0,0.52700027,5591.618,1348.2311)" id="g22494"><g transform="translate(12.14286,0)" id="g22496"><g id="g22498"><g id="g22500"><path style="fill:#000000;fill-opacity:1;stroke:none" id="path22502" d="m 59.99937,872.36218 c -33.119636,0 -59.99934,26.88 -59.99934,60 l 0,120.00002 119.99868,0 0,-120.00002 c 0,-33.11999 -26.879714,-60.00001 -59.99934,-60 z"/><path style="fill:#ffffff;fill-opacity:1;stroke:#000000;stroke-width:7.89109993;stroke-miterlimit:4;stroke-opacity:1" id="path22504" d="m 59.99931,876.37943 c -11.895429,0 -22.920978,3.84104 -32.054177,10.37808 l 13.094236,34.23218 18.959941,49.56694 18.959931,-49.56694 13.094206,-34.23218 C 82.920248,880.22047 71.894709,876.37943 59.99931,876.37943 z"/><path style="fill:none;stroke:#000000;stroke-width:8.00000095;stroke-linecap:butt;stroke-linejoin:miter;stroke-miterlimit:4;stroke-opacity:1" id="path22506" d="M 73.999336,892.56218 59.99926,876.55838 45.999194,892.56218"/><path transform="matrix(1.109815,0,0,-0.640759,-26.63558,1073.237)" style="fill:#ffffff;fill-opacity:1;stroke:none" id="path22508" d="m 119.51041,227.66002 -4.5052,7.80324 -4.50521,7.80325 -4.50521,-7.80325 -4.5052,-7.80324 9.01041,0 z"/></g><path transform="matrix(0.933323,0,0,0.918033,-153.3317,664.3575)" style="fill:#000000;fill-opacity:1;stroke:none" id="path22510" d="m 271.42857,187.36218 c 0,24.06384 -19.1878,43.57143 -42.85714,43.57143 -23.66935,0 -42.85715,-19.50759 -42.85715,-43.57143 0,-24.06383 19.1878,-43.57143 42.85715,-43.57143 23.66934,0 42.85714,19.5076 42.85714,43.57143 z"/></g><g id="g22512"><path style="fill:#ffffff;fill-opacity:1;stroke:#000000;stroke-width:8.00000477;stroke-miterlimit:4;stroke-opacity:1" id="path22514" d="m 171.85982,831.3607 -16.58822,30.03158 -21.273,38.58222 c 16.35957,14.32541 39.84229,23.38768 65.99933,23.38768 26.15703,0 49.63974,-9.06227 65.99933,-23.38768 l -21.273,-38.58222 -16.58822,-30.03158 -56.27622,0 z"/><g transform="matrix(0.999989,0,0,1,-189.9979,690)" id="g22516"><path transform="matrix(0.991736,0,0,1.121495,-31.98313,-28.88503)" style="fill:#000000;fill-opacity:1;stroke:none" id="path22518" d="m 486,241.86218 c 0,29.54724 -27.08677,53.5 -60.5,53.5 -33.41323,0 -60.5,-23.95276 -60.5,-53.5 0,-29.54723 27.08677,-53.5 60.5,-53.5 33.41323,0 60.5,23.95277 60.5,53.5 z"/><path style="fill:#ffffff;fill-opacity:1;stroke:#000000;stroke-width:8.00004292;stroke-miterlimit:4;stroke-opacity:1" id="path22520" d="m 355.77021,212.42739 c -12.64424,0.8112 -21.43218,9.24097 -21.43217,27.6093 0,12.18064 3.49796,23.49684 9.44215,32.90925 l -0.77934,1.38665 L 296,358.36218 l 94.00168,0 94.00163,0 -47.00081,-84.02959 -0.77935,-1.38665 c 5.94419,-9.41241 9.44211,-20.72861 9.44211,-32.90925 0,-32.65483 -29.05974,-33.09056 -55.66358,-16.7628 -12.22444,-7.50256 -24.3971,-11.47743 -34.23147,-10.8465 z"/></g><path transform="matrix(0.933323,0,0,0.918033,-13.33324,664.3575)" style="fill:#000000;fill-opacity:1;stroke:none" id="path22522" d="m 271.42857,187.36218 c 0,24.06384 -19.1878,43.57143 -42.85714,43.57143 -23.66935,0 -42.85715,-19.50759 -42.85715,-43.57143 0,-24.06383 19.1878,-43.57143 42.85715,-43.57143 23.66934,0 42.85714,19.5076 42.85714,43.57143 z"/></g></g></g></g></g></svg>