<?xml version="1.0" encoding="UTF-8" standalone="no"?>
<svg xmlns:dc="http://purl.org/dc/elements/1.1/" xmlns:cc="http://creativecommons.org/ns#" xmlns:rdf="http://www.w3.org/1999/02/22-rdf-syntax-ns#" xmlns:svg="http://www.w3.org/2000/svg" xmlns="http://www.w3.org/2000/svg" xmlns:sodipodi="http://sodipodi.sourceforge.net/DTD/sodipodi-0.dtd" xmlns:inkscape="http://www.inkscape.org/namespaces/inkscape" id="svg3741" version="1.1" viewBox="0 0 500 440"><defs id="defs3743"/><metadata id="metadata3746"><rdf:RDF><cc:Work rdf:about=""><dc:format>image/svg+xml</dc:format><dc:type rdf:resource="http://purl.org/dc/dcmitype/StillImage"/><dc:title/></cc:Work></rdf:RDF></metadata><g id="layer1" transform="translate(10.606121,-366.63787)"><g transform="translate(4997.0759,1173.4955)" id="g4836"><g transform="translate(-40.694864,-335.73263)" id="g4689"><path style="fill:#ffffff;fill-opacity:1;fill-rule:nonzero;stroke:#000000;stroke-width:1.79715979;stroke-linecap:round;stroke-linejoin:round;stroke-miterlimit:2;stroke-opacity:1;stroke-dasharray:none;stroke-dashoffset:0" d="m -4694.2599,-457.69053 c -4.4566,-7.70788 -13.1754,-12.52968 -22.7409,-12.52968 -9.7394,0 -18.4615,5.08551 -23.0023,12.93987 l -222.2,384.373759 c -4.7688,8.249476 -5.4749,18.640475 -0.3734,27.464587 4.8697,8.423135 13.6405,13.424641 22.7223,13.424641 l 445.7068,0 c 9.0817,0 17.8525,-5.001567 22.7222,-13.424641 5.1016,-8.824052 4.3958,-19.215362 -0.3734,-27.464587 l -222.4613,-384.783949 z" id="path4184"/><path id="path4186" d="m -4716.9947,-462.21538 c 6.5396,0 12.22,3.33174 14.949,8.06262 l 222.4551,385.655873 c 3.3263,5.766629 3.7682,12.642074 0.3746,18.525279 -3.3028,5.725771 -9.1544,8.943862 -14.9303,8.943922 l -445.7156,0 c -5.7759,0 -11.6274,-3.218031 -14.9302,-8.943922 -3.3936,-5.883205 -2.9517,-12.75805 0.3747,-18.525279 l 222.1927,-385.243363 c 2.8883,-5.00719 8.6251,-8.47513 15.23,-8.47513 z" style="fill:#d40000;fill-opacity:1;fill-rule:nonzero;stroke:none"/><path id="path4188" d="m -4717.0134,-384.10168 170.2085,295.073255 -340.3983,0 170.1898,-295.073255 z" style="fill:#ffffff;fill-opacity:1;fill-rule:nonzero;stroke:none"/><g transform="matrix(0.87071229,0,0,0.87071229,-142.70744,-29.655073)" id="g4819"><path style="display:inline" d="m -5219.2871,-80.395655 c 6.8713,-10.965054 -5.7536,-13.573029 -6.2739,-19.562263 0.097,-5.213462 3.4289,-9.348612 6.9815,-13.410172 3.0986,-2.17214 4.1876,-6.01883 0.2765,-14.0323 -2.4676,-6.38361 0.6741,-9.96252 5.1844,-12.85717 l 3.6636,-21.9125 10.4642,-6.51524 -4.0356,-14.70602 c -3.0322,-10.9585 3.4057,-22.57304 3.4057,-22.57304 -1.1577,-3.28132 5.7799,1.7971 7.0357,-0.16425 l 1.7936,-11.96326 1.8543,-20.40382 1.6645,-17.37004 c -0.4391,-1.99118 -2.1935,-5.81523 -3.0665,-7.37214 -1.3738,-2.44984 -0.6386,-5.68826 0.5833,-8.57171 l 9.9553,-6.76632 121.3828,210.346176 -390.4849,0 7.0507,-12.165931 222.5648,0 z" id="polygon16"/><path style="fill:#000000;fill-opacity:1;stroke:#000000;stroke-width:0.68001878px;stroke-linecap:butt;stroke-linejoin:miter;stroke-opacity:1" d="m -5301.7547,-213.49549 2.1301,-2.28015 2.2867,-2.06697 c 2.8823,-2.60531 4.6143,-1.38981 6.4542,0.52081 1.3512,1.40307 2.7781,3.92058 4.0519,4.63601 l 2.7693,2.3367 c 10.8837,-1.23201 10.9353,0.12393 12.7842,0.97828 0.3108,-0.0888 0.1245,0.9703 -1.3011,0.98525 -3.3742,-0.65389 -4.815,1.07168 -7.272,1.15132 -0.767,0.51838 -0.5644,0.93904 -1.2793,1.00035 1.6019,3.09768 2.2923,6.41015 2.5357,8.92034 0,0 0.534,4.40329 0.4465,4.59377 -0.1675,0.36443 0.5052,2.27066 1.126,3.62467 0.3705,0.80796 0.4351,1.22813 1.0088,1.54965 4.8135,3.0986 5.6894,3.95602 9.9847,5.54276 1.1531,0.54436 -3.153,-0.93117 -11.3427,-3.07598 -2.3027,0.749 -2.9626,1.39877 -5.9087,1.02799 -0.9482,1.36072 -2.4136,3.86689 -4.1217,4.54472 -1.9722,0.78271 -4.5265,0.80198 -7.1476,0.73368 -0.717,-0.51286 -0.3997,-0.65363 3.0097,-0.88438 2.0566,-0.10915 2.0608,-0.0986 2.9821,-0.62544 1.2791,-0.52669 1.2052,-1.36019 1.5286,-2.15066 0.4946,-0.84364 0.4418,-1.66687 0.2585,-2.06964 -1.8509,1.37435 -3.8435,1.71683 -6.0589,2.29991 -1.2333,0.15034 0.2427,-0.69621 3.2784,-2.05749 l 2.6466,-2.05681 -0.5696,-4.4392 c -3.1863,-3.81565 -5.7816,-8.98232 -7.4271,-19.63242 -0.054,-0.34756 -0.3747,-0.95413 -0.472,-1.29176 l -2.0201,-1.10968 c -0.8731,-0.25943 -2.2747,-0.51279 -4.0023,-0.14635 -1.4464,0.45423 -1.3752,0.38928 -0.359,-0.55924 l 10e-5,-4e-5 z" id="path4242"/><path id="path5532" d="m -5247.7634,-285.66502 2.427,-1.96119 1.6503,-1.63302 c 2.7617,-2.73275 5.665,-0.82876 7.2208,1.31953 1.1425,1.5776 2.2048,4.26933 3.3665,5.15522 l 2.4169,2.69968 c 10.9492,0.2961 10.7824,2.64164 12.4943,3.7452 0.3678,0.40635 0.657,0.9612 -0.7568,0.77744 -3.2502,-1.11754 -5.5572,-0.58815 -8.0013,-0.85154 -0.8318,0.40647 -0.6898,0.85125 -1.4063,0.81237 1.1548,3.29063 1.3771,6.66698 1.2684,9.1866 0,0 -0.084,4.43475 -0.1978,4.61117 -0.2166,0.33755 0.184,2.3189 0.6102,3.74619 0.2543,0.8517 0.2597,1.27675 0.7831,1.67508 4.3349,3.7389 6.5489,4.41797 10.5813,6.58757 1.066,0.69967 -3.6211,-0.32313 -11.4321,-3.58784 -2.3846,0.42094 -4.6261,0.33626 -7.4918,-0.44129 -1.1286,1.21536 -1.6089,3.38297 -3.3947,3.81627 -2.062,0.50035 -4.4841,1.59358 -7.0701,1.16084 -0.6385,-0.60774 2.6652,-0.81294 3.8735,-1.2265 1.3654,-0.10604 2.6137,-1.35244 3.3134,-2.78069 0.6073,-0.76651 0.6698,-1.58906 0.5444,-2.01344 -2.0243,1.10312 -4.0452,1.16471 -6.3202,1.43349 -1.2422,-0.023 0.3373,-0.65562 3.533,-1.58077 l 2.9073,-1.66807 0.054,-4.47526 c -2.6238,-4.2223 -4.474,-9.70012 -4.62,-20.47561 0,-0.35164 -0.2381,-0.99702 -0.2874,-1.34492 l -1.8459,-1.38025 c -0.8284,-0.37852 -1.9939,-0.57617 -3.7556,-0.45395 -1.4957,0.24832 -1.6033,-0.0545 -0.4649,-0.85229 l 1e-4,-2e-5 z" style="fill:#000000;fill-opacity:1;stroke:#000000;stroke-width:0.68001878px;stroke-linecap:butt;stroke-linejoin:miter;stroke-opacity:1"/><path style="fill:#000000;fill-opacity:1;stroke:#000000;stroke-width:0.68001872px;stroke-linecap:butt;stroke-linejoin:miter;stroke-opacity:1;display:inline" d="m -5310.7345,-146.0848 2.358,-1.09916 c -0.1282,-0.58994 0.3644,-1.28007 1.2226,-2.0292 2.6956,-2.35274 6.682,-1.47248 7.7877,2.03947 0.9795,3.11111 1.2121,5.06532 1.3823,6.92287 l 0.262,3.2129 c 1.3102,-0.99128 2.2835,-2.04574 6.1626,-2.72612 1.823,-0.12738 2.1334,0.0416 4.1814,0.27416 0.6842,0.44762 3.0748,1.05524 1.0966,2.36741 -0.079,0 -2.175,0.18337 -4.0957,0.94028 -1.9433,0.76578 -3.3346,1.80736 -3.8516,2.2171 -0.3678,0.29155 -2.2425,1.02272 -2.4453,0.76094 l -1.31,-0.029 0.9607,10.06149 0.524,5.66487 c 0.081,0.19708 0.1445,3.85876 -0.087,3.72021 -0.3716,-0.22202 0.292,2.4417 0.292,2.4417 0.7532,1.5388 1.7601,3.24138 2.066,4.49142 1.737,2.81386 3.552,5.32626 5.5213,7.24055 0.1068,0.930763 -6.7486,-4.30626 -7.9349,-6.46934 -0.075,0.0731 -0.8109,-0.78047 -1.2353,-1.09981 -0.4264,-0.32074 -1.7537,-0.2268 -1.9978,-0.21372 -1.2836,0.0687 -1.4881,3.56217 -1.5914,4.15747 -0.048,0.27745 0.1824,2.6473 -0.9756,3.978108 -0.2495,0.286723 -0.915,1.030859 -1.2226,1.054323 -0.9063,0.06903 -2.2663,0.822055 -2.2663,0.822055 -0.069,-0.327459 -0.4925,-0.440957 -1.8728,0.02477 0,0 1.7186,-1.594379 2.3968,-1.800322 l 1.542,-1.480874 c 0.8051,-0.77317 0.1246,-2.8559 0.1173,-4.69129 -0.823,0.50193 -1.8115,1.48476 -2.7947,2.45195 l -1.3841,1.94291 c -0.4769,0.345 -0.1541,1.114562 -0.801,1.197416 -0.4834,0.06192 -2.0042,0.291686 -2.4841,0.311733 -0.5451,-0.359756 -1.19,-0.687349 -3.1907,-0.577359 -0.5101,-0.26134 1.8611,-0.42485 0.9606,-1.69099 1.3853,-0.22058 2.6605,-0.65438 4.192,-0.59185 l 1.4847,-1.52191 c 0.037,-0.39513 -0.1304,-0.24485 0.524,-2.28286 -0.7064,-3.29372 -0.9575,-6.80786 -0.3494,-10.73788 0.077,-0.46059 0.2227,-0.85543 -0.1746,-1.77556 -0.8734,-1.39871 -2.3525,-2.93967 -2.62,-7.69408 l -0.3344,-5.94328 c 0.7966,-0.51409 -1.9808,-0.58011 -2.9481,-0.30918 0.1988,-1.66716 -1.0979,-3.91341 3.4572,-3.89356 -0.2575,-1.69101 1.3144,-3.38201 4.0173,-5.07302 1.0555,-1.12343 1.9661,-2.22054 0.4366,-2.87472 l -2.8608,-0.49279 -1.834,0.25365 c -0.8707,0.13586 -2.3204,0.6678 -1.7678,-0.26816 l 1.4846,-1.1837 0,0 z" id="path3092-1"/></g></g></g></g></svg>