<?xml version="1.0" encoding="UTF-8" standalone="no"?>
<svg xmlns:dc="http://purl.org/dc/elements/1.1/" xmlns:cc="http://creativecommons.org/ns#" xmlns:rdf="http://www.w3.org/1999/02/22-rdf-syntax-ns#" xmlns:svg="http://www.w3.org/2000/svg" xmlns="http://www.w3.org/2000/svg" xmlns:sodipodi="http://sodipodi.sourceforge.net/DTD/sodipodi-0.dtd" xmlns:inkscape="http://www.inkscape.org/namespaces/inkscape" id="svg3741" version="1.1" viewBox="0 0 500 440"><defs id="defs3743"/><metadata id="metadata3746"><rdf:RDF><cc:Work rdf:about=""><dc:format>image/svg+xml</dc:format><dc:type rdf:resource="http://purl.org/dc/dcmitype/StillImage"/><dc:title/></cc:Work></rdf:RDF></metadata><g id="layer1" transform="translate(172.01082,-295.19298)"><g id="g25883" transform="translate(-4829.1395,-1741.361)"><g id="g25626" transform="translate(571.26784,508.00038)"><g id="g25628" transform="matrix(0.99999834,0,0,1.0009179,6088.251,1699.3665)"><path style="fill:#ffffff;fill-opacity:1;fill-rule:nonzero;stroke:#000000;stroke-width:1.79633701;stroke-linecap:round;stroke-linejoin:round;stroke-miterlimit:2;stroke-opacity:1;stroke-dasharray:none;stroke-dashoffset:0" d="m -1729.657,-157.23924 c -4.4566,-7.70081 -13.1754,-12.51819 -22.7409,-12.51819 -9.7394,0 -18.4615,5.08085 -23.0023,12.928 l -222.2004,384.02127 c -4.7688,8.24191 -5.4749,18.62338 -0.3734,27.4394 4.8697,8.41541 13.6405,13.41233 22.7223,13.41233 l 445.7076,0 c 9.0817,0 17.8525,-4.99698 22.7222,-13.41233 5.1016,-8.81596 4.3958,-19.19774 -0.3734,-27.4394 l -222.4617,-384.43108 z" id="path25630"/><path id="path25632" d="m -1752.3918,-161.75994 c 6.5396,0 12.22,3.32868 14.949,8.05523 l 222.4555,385.3022 c 3.3263,5.76134 3.7682,12.63048 0.3746,18.50829 -3.3028,5.72052 -9.1544,8.93566 -14.9303,8.93572 l -445.7164,0 c -5.7759,0 -11.6274,-3.21508 -14.9302,-8.93572 -3.3936,-5.87781 -2.9517,-12.74635 0.3747,-18.50829 l 222.1931,-384.89007 c 2.8883,-5.0026 8.6251,-8.46736 15.23,-8.46736 z" style="fill:#d40000;fill-opacity:1;fill-rule:nonzero;stroke:none"/><path id="path25634" d="m -1752.4105,-83.717877 170.2088,294.802657 -340.3989,0 170.1901,-294.802657 z" style="fill:#ffffff;fill-opacity:1;fill-rule:nonzero;stroke:none"/></g></g><g id="g3717" transform="matrix(0.28986425,0,0,0.28986425,4855.5425,1824.4719)"><path style="fill:#020202;stroke:none" id="path3707" d="m 305.36394,1758.2185 c 19.48955,-7.9013 -36.04426,-53.6249 -38.7868,-55.6666 -21.07994,-12.0825 -39.74084,19.5231 -16.1902,18.9419 7.7051,-2.3445 16.66801,-2.2352 22.1763,0.4375 10.1696,4.9796 18.2097,15.5305 22.7144,29.8078 1.86431,7.2402 3.03638,9.975 10.0863,6.4794 z m -65.6843,194.8947 c -10.0772,-2.4966 -12.68448,-6.6454 -18.2936,-10.1036 -9.99339,-6.1613 -7.39053,-5.8481 -4.6606,-21.1942 0.56083,-3.1527 0.2869,-4.3525 -1.0566,-5.4675 -4.99436,-5.3204 -8.72739,8.7265 -11.19173,17.8019 l -3.45678,-0.9194 c -1.22935,-5.13 0.16848,-9.7606 1.20399,-14.797 0.51573,-2.5084 1.13177,-6.9963 -0.10335,-13.1328 -0.34045,-1.6914 0.0403,-4.5776 2.03039,-8.4949 2.9561,-5.8189 6.65518,-5.4809 8.39668,-5.2416 2.2372,0.3073 2.2148,0.4308 1.5369,-8.4851 l -0.2112,-2.7778 -7.2109,0.6534 c -8.8191,0.7992 -16.3256,-1.2991 -21.3514,-5.9685 -1.8525,-1.7211 -9.8153,-10.8489 -17.6951,-20.284 -25.8211,-33.7955 -19.42993,-32.0423 -32.9367,-28.2874 -23.77541,5.3752 -49.024144,10.9112 -64.943707,17.1981 -0.602482,-0.42 -7.565887,-20.5495 -7.574456,-20.7028 -0.0039,-0.069 0.33981,-0.105 0.409495,-0.1198 38.627608,-11.1428 70.085118,-19.1171 68.367178,-20.8163 0,0 -38.498163,-34.6846 -39.194893,-65.3823 -1.101781,-38.747 31.932523,-47.9099 49.522683,-59.5452 14.4323,-9.4435 24.3479,-18.5801 33.4869,-30.856 5.7995,-7.7903 7.145,-10.2694 6.932,-12.7725 -0.6779,-7.9667 -11.5966,-16.4944 -20.0738,-15.6779 -5.1651,0.4975 -14.26364,24.4869 -27.6314,14.0189 -31.81442,-24.9131 -33.9748,19.9278 -53.299998,20.0362 -34.512343,-22.502 -10.81962,16.9232 -32.0617,16.4984 -64.049847,-1.281 -2.248578,66.5306 -27.999578,69.775 -59.518726,-33.429 -45.588732,87.5596 -113.902918,41.535 -45.457936,-46.85 -17.323956,-37.0598 6.083328,-43.0811 34.041776,-16.9429 11.611906,-130.3128 47.999947,-87.8901 38.5846082,12.7104 42.3143443,-84.2271 50.385944,-88.0815 33.969093,-35.9867 29.190521,13.2967 51.649713,1.0661 30.201019,-17.7342 53.546232,10.7664 63.686742,11.878 19.6567,11.2335 37.64034,-1.6926 50.06834,-1.4081 32.93728,3.2978 32.54513,12.4778 39.3289,18.281 10.2329,8.8533 30.35588,-11.011 37.37428,-11.011 4.4512,0 9.2338,-1.6297 8.4595,-2.8827 -0.3014,-0.4876 -2.5064,-1.1802 -4.9002,-1.5392 -3.1082,-0.4661 -5.2009,-1.5709 -7.3213,-3.8653 -4.4013,-4.7625 -8.6467,-11.817 -7.6883,-12.7755 0.4615,-0.4614 2.6387,-0.4219 4.8382,0.088 2.1995,0.5099 7.1897,0.9378 11.0894,0.9509 5.9213,0.02 8.0895,-0.4755 13.1514,-3.0049 3.3337,-1.6659 6.6107,-3.6909 7.2822,-4.5 1.0551,-1.2713 0.2634,-1.4712 -5.8252,-1.4712 -12.4792,0 -22.2295,-2.901 -27.9487,-8.3155 -6.892,-6.5249 -4.0421,-7.6956 19.2632,-7.9134 16.4834,-0.1541 18.7224,-0.374 20.1776,-1.9819 10.11292,-26.7313 4.90284,-62.2547 -4.75747,-75.0235 -3.84767,-7.0132 -11.54277,-14.2089 -8.50523,-14.4934 37.70402,15.3489 53.72909,37.9879 69.0239,86.9865 1.7028,1.2329 15.4929,-0.1465 23.048,-2.3056 17.782,-5.0816 21.5448,-5.0036 18.0217,0.3733 -3.8793,5.9206 -14.1823,12.1791 -27.5217,16.7179 -10.5555,3.5916 -10.5981,3.6302 -7.4628,6.7654 7.53239,4.538 9.07507,11.7809 0.8455,14.0198 -2.83772,0.772 -0.1596,3.8152 2.9458,7 6.064,6.2189 10.956,22.3565 7.2127,23.7929 -2.52,0.967 -3.44211,3.1997 -7.62568,-6.3973 -3.97761,-10.4897 -6.25502,-0.9031 -8.72422,2.4867 -0.65188,5.5089 -2.2263,2.5039 -3.4967,1.4495 -0.8367,-0.6943 -2.6966,-1.4756 -4.1331,-1.7361 -2.3117,-0.4192 -4.08655,1.0541 -4.5867,4.1334 0.23197,2.8819 1.02422,6.1782 6.21423,8.7001 5.92206,-5.5309 7.42272,-1.847 3.39577,3.5771 -1.40927,5.6605 9.86605,9.9627 0.21332,19.7052 -11.50749,6.5168 -14.91064,-19.1581 -24.12697,-21.914 -11.55716,-9.9068 -19.51409,4.3665 -23.80424,10.6069 -8.13136,16.3384 7.55535,5.3493 5.71609,30.4938 -1.6839,5.0915 -1.6729,5.3857 0.421,11.2835 5.5413,15.6073 13.0865,23.2256 27.5924,27.8597 5.7195,1.8272 30.5849,8.0257 40.6536,10.1342 17.2595,3.6144 15.23629,1.2463 19.3548,10.2207 1.73457,3.7797 2.22397,8.4765 10.8847,5.073 40.89749,-11.5784 32.42665,2.2879 48.0576,1.3231 9.4478,-3.0513 45.0908,-14.6028 52.66109,-16.7553 4.09215,-1.1635 4.46329,2.7813 5.01212,4.0069 2.72192,4.9545 -3.78272,5.6315 -10.0307,8.3321 -45.51076,15.3096 -45.1031,12.0247 -40.18961,22.7712 2.74484,3.4973 1.86634,5.171 -2.75,5.726 -1.77969,0.214 1.45202,3.9168 -3.6706,3.2391 -0.95497,-0.1263 0.39854,4.7872 -3.257,3.8264 -2.2852,2.2853 -2.4014,2.298 -5.311,0.5792 -2.9339,-1.733 -2.6382,6.389 -5.743,0.8937 -3.33843,-5.8821 -2.56172,-9.5575 -12.1777,-5.6853 -0.7637,-0.472 -26.2267,8.7788 -31.0907,11.2953 -13.98556,4.8195 -17.94862,5.594 -18.0715,18.6585 -0.2692,16.8535 -3.7628,29.2658 -10.2003,36.2402 -1.4572,1.5787 -3.2173,2.25 -5.8995,2.25 -21.26309,-3.7575 -25.90988,-37.208 -39.0192,-33.7932 -15.91326,14.8909 2.36953,46.1798 6.1905,54.4779 11.15447,17.5874 -34.66321,-1.0298 -35.8252,11.132 0.022,0.9258 -0.4057,4.6083 -0.951,8.1833 -1.1242,7.3691 -0.9616,7.994 2.0852,8.0153 4.96342,0.2897 4.31612,3.2902 2.9523,5.7334 -1.2733,2.2656 -2.0303,5.081 -1.8303,6.8073 -0.0972,8.3962 1.07208,14.8704 6.6667,19.195 7.31341,8.3628 21.49693,2.1476 23.5229,8.8733 0.36306,8.4961 0.64923,9.0788 -2.45697,9.0994 -4.88226,0.01 -5.37129,0.3827 -11.10496,-0.1524 -6.70877,-0.3085 -20.59517,-0.175 -27.89737,-12.3364 -1.7387,-2.8957 -3.1613,-5.6385 -3.1613,-6.095 0,-0.4565 -0.8769,-1.6236 -1.9487,-2.5935 -1.8825,-1.7037 -2.0166,-1.6519 -3.9482,1.5244 -1.0997,1.8083 -1.7946,3.6194 -1.5441,4.0246 -0.11667,5.4771 -1.3994,7.8053 -3.07006,8.2091 -1.51865,0.367 -2.12273,-0.1504 -3.69803,-2.0438 2.37403,-14.4887 -0.16282,-23.8207 0.0357,-30.2081 -1.53538,-3.2095 2.8257,-10.0665 6.56163,-12.9334 2.09967,-1.6112 3.39831,-0.5136 4.81587,-0.3377 1.4865,0.3031 1.6501,-0.3937 1.2813,-5.4576 -0.4714,-6.4738 -1.7676,-8.0575 -6.3359,-7.7412 -43.91398,8.7491 -36.06749,26.8146 -37.2965,47.2033 -0.3891,6.9291 -0.27248,4.8186 4.72262,4.8461 13.43929,-1.1547 -1.26857,23.1982 2.54458,34.3679 -3.39162,11.5021 14.67126,12.2779 15.05668,20.9949 0,1.1616 -3.04298,7.0728 -4.03268,6.8787 -0.3543,-0.07 -2.4442,-0.5723 -4.64421,-1.1173 z"/><path style="fill:#020202" id="path3720" d="m -63.496408,1899.9722 c -1.7468,-0.8008 -4.5127,-2.7335 -6.1465,-4.2948 -2.8083,-2.6838 -2.9633,-3.2478 -2.8377,-10.3293 0.1301,-7.3405 0.024,-7.681 -5.3174,-16.9906 -3.6331,-6.333 -8.2124,-12.3678 -13.7362,-18.1022 -8.0458,-8.3526 -9.677302,-10.8978 -6.9855,-10.8978 2.0029,0 6.6828,-2.3885 6.6916,-3.4151 0,-0.5033 -2.7082,-3.7435 -6.0277,-7.2004 -4.683402,-4.8774 -7.276302,-8.8858 -11.574102,-17.8932 -5.997,-12.5684 -6.0224,-13.7544 -0.3213,-15.0065 1.612,-0.3541 2.9309,-1.0194 2.9309,-1.4785 0,-0.4591 -2.2185,-2.1999 -4.9301,-3.8683 -3.6934,-2.2726 -5.4493,-4.2073 -7,-7.7129 -3.1638,-7.1523 -2.737,-7.6952 3.779,-4.8065 7.1541,3.1716 9.7217,4.253 15.151102,6.3814 3.025,1.1858 7.075,2.8493 9,3.6966 8.2193,3.618 9.821,4.2772 16,6.5859 3.575,1.3358 13.25,5.0008 21.4999,8.1445 28.30905,10.7873 42.70575,15.5842 55.5000496,18.4922 5.225,1.1876 10.6250004,2.4232 12.0000004,2.7458 1.375,0.3226 6.325,0.8674 11,1.2107 5.509225,0.4046 11.385235,1.0801 13.162311,1.1583 8.990966,0.3957 19.706575,-2.5421 23.775049,-3.475 0.248376,-0.057 14.052466,17.8837 13.729406,17.8832 -8.885112,3.4474 -34.166766,22.0578 -34.166766,22.0578 l -13,9.7616 c -14.877,11.1711 -20.2754004,14.0246 -37.0000004,19.5574 -20.0197996,6.6229 -26.6191496,8.0339 -40.7473496,8.7117 -8.6431,0.4147 -11.9891,0.2023 -14.4287,-0.916 z"/></g></g></g></svg>