<?xml version="1.0" encoding="UTF-8" standalone="no"?>
<svg xmlns:dc="http://purl.org/dc/elements/1.1/" xmlns:cc="http://creativecommons.org/ns#" xmlns:rdf="http://www.w3.org/1999/02/22-rdf-syntax-ns#" xmlns:svg="http://www.w3.org/2000/svg" xmlns="http://www.w3.org/2000/svg" xmlns:sodipodi="http://sodipodi.sourceforge.net/DTD/sodipodi-0.dtd" xmlns:inkscape="http://www.inkscape.org/namespaces/inkscape" id="svg3741" version="1.1" viewBox="0 0 500 440"><defs id="defs3743"/><metadata id="metadata3746"><rdf:RDF><cc:Work rdf:about=""><dc:format>image/svg+xml</dc:format><dc:type rdf:resource="http://purl.org/dc/dcmitype/StillImage"/><dc:title/></cc:Work></rdf:RDF></metadata><g id="layer1" transform="translate(-16.541435,-318.06537)"><g transform="translate(5652.4937,31.565393)" id="g6089"><g id="g6047" transform="matrix(0.99999834,0,0,1.0009179,-3633.5621,457.31287)"><path style="fill:#ffffff;fill-opacity:1;fill-rule:nonzero;stroke:#000000;stroke-width:1.79633701;stroke-linecap:round;stroke-linejoin:round;stroke-miterlimit:2;stroke-opacity:1;stroke-dasharray:none;stroke-dashoffset:0" d="m -1729.657,-157.23924 c -4.4566,-7.70081 -13.1754,-12.51819 -22.7409,-12.51819 -9.7394,0 -18.4615,5.08085 -23.0023,12.928 l -222.2004,384.02127 c -4.7688,8.24191 -5.4749,18.62338 -0.3734,27.4394 4.8697,8.41541 13.6405,13.41233 22.7223,13.41233 l 445.7076,0 c 9.0817,0 17.8525,-4.99698 22.7222,-13.41233 5.1016,-8.81596 4.3958,-19.19774 -0.3734,-27.4394 l -222.4617,-384.43108 z" id="path6049"/><path id="path6051" d="m -1752.3918,-161.75994 c 6.5396,0 12.22,3.32868 14.949,8.05523 l 222.4555,385.3022 c 3.3263,5.76134 3.7682,12.63048 0.3746,18.50829 -3.3028,5.72052 -9.1544,8.93566 -14.9303,8.93572 l -445.7164,0 c -5.7759,0 -11.6274,-3.21508 -14.9302,-8.93572 -3.3936,-5.87781 -2.9517,-12.74635 0.3747,-18.50829 l 222.1931,-384.89007 c 2.8883,-5.0026 8.6251,-8.46736 15.23,-8.46736 z" style="fill:#d40000;fill-opacity:1;fill-rule:nonzero;stroke:none"/><path id="path6053" d="m -1752.4105,-83.717877 170.2088,294.802657 -340.3989,0 170.1901,-294.802657 z" style="fill:#ffffff;fill-opacity:1;fill-rule:nonzero;stroke:none"/></g><g id="g6078" transform="matrix(0.97012154,0,0,0.97012154,-671.62111,19.103379)"><path style="fill:#000000;fill-opacity:0.94117647;stroke:#000000;stroke-width:2.49212885;stroke-linecap:round;stroke-linejoin:round;stroke-miterlimit:4;stroke-opacity:1;stroke-dasharray:none;display:inline" d="m -4881.2301,650.26946 c -16.0395,-8.87645 -22.1093,-19.27597 -21.9661,-29.81544 0.175,-12.88529 18.1226,-23.68986 37.6908,-27.11762 3.4167,-0.60244 27.1322,-0.24166 31.8189,1.77543 11.8488,5.09957 9.2437,5.60577 14.723,8.78601 1.2692,0.73664 7.1113,4.37418 7.2237,3.5804 -2.4466,0.54818 -4.7294,1.92501 -6.9041,3.57914 -1.6702,1.27043 -3.7596,0.92034 -6.0887,0.92104 -2.4889,0.40693 -2.6761,1.38683 -3.7938,1.90068 -1.7335,0.79686 -3.5928,1.19083 -4.7526,1.27054 -1.3092,0.09 -2.2717,0.60032 -3.743,1.08534 -1.7169,0.6312 -2.18,0.52432 -3.7875,1.59226 -5.0036,3.32417 -7.7805,3.06252 -8.9431,2.81713 -1.7038,-0.32924 -2.7197,0.79001 -4.0142,1.41984 l -27.4633,28.20525 z" id="path3657"/><path id="path2869" d="m -4853.3027,621.27057 c -0.1987,0.56963 -0.097,1.15445 -0.14,1.6176 -0.086,0.93476 -1.9712,0.4079 -2.0502,1.18764 -1.1948,3.86428 -29.6964,29.20382 -24.9689,26.78439 1.1577,-0.59249 -1.1264,4.03042 0.1904,12.27425 l 9.4324,-9.14924 c 4.213,6.60727 33.4994,0.42689 27.6711,-10.17966 -12.4652,-10.57437 -6.7729,-11.0893 4.5859,-14.20514 7.4396,-2.04076 8.8392,2.40605 9.5717,3.19646 5.1652,5.45614 16.1182,-4.76496 6.4365,-8.20644 l 10.4014,-2.46253 c -0.2719,-0.16092 0.4964,-0.61595 0.6699,-1.33526 0.1234,-0.51187 -0.3377,-1.17113 -0.3224,-1.58751 1.7023,-2.67577 0.1203,-5.86463 0.078,-8.88735 -0.1671,-0.48733 0.4561,-1.1628 0.013,-1.55814 -0.2342,0.17052 -1.0016,-0.0767 -0.013,-0.82255 0.2391,-0.16803 -0.055,-0.17967 0.1016,-0.45897 -2.1155,0.4531 -4.0895,1.59115 -5.9699,2.95841 -1.4443,1.0501 -3.251,0.76072 -5.2649,0.7613 -2.1522,0.33635 -2.3141,1.14631 -3.2806,1.57104 -1.4989,0.65867 -3.1067,0.98431 -4.1096,1.0502 -1.1321,0.0744 -1.9644,0.4962 -3.2365,0.8971 -1.4847,0.52174 -1.8851,0.43339 -3.2751,1.31612 -4.3266,2.74766 -6.7279,2.53139 -7.7332,2.32856 -1.4732,-0.27214 -2.3517,0.65299 -3.4711,1.17359 -1.0924,0.50802 -2.5898,1.20851 -3.5778,1.66 -0.4737,0.21646 -0.6067,0.0192 -0.9757,-0.19041 -0.1,-0.0567 -0.6316,0.2227 -0.7634,0.2664 l 0,10e-6 0,1.3e-4 z" style="fill:none;stroke:#000000;stroke-width:1.99370289;stroke-linecap:round;stroke-linejoin:round;stroke-miterlimit:4;stroke-opacity:1;stroke-dasharray:none;display:inline"/><path id="path5212" d="m -4903.8268,620.41768 c 0.051,2.96962 -1.558,8.03062 -0.4975,11.22864 l 0.019,5.78003 c 7.6731,16.51116 16.1211,20.32293 23.4991,26.09875" style="fill:none;stroke:#000000;stroke-width:1.49527717;stroke-linecap:round;stroke-linejoin:round;stroke-miterlimit:4;stroke-opacity:1;stroke-dasharray:none;display:inline"/><path id="path5214" d="m -4879.3182,662.08575 30.5453,-29.83159 c 8.7905,-2.54689 17.1528,-5.08294 25.9433,-7.96852 l 10.3113,-2.59387" style="fill:none;stroke:#000000;stroke-width:1.49527717;stroke-linecap:butt;stroke-linejoin:miter;stroke-miterlimit:4;stroke-opacity:1;stroke-dasharray:none;display:inline"/><path d="m -4910.1162,476.54451 c 13.9433,16.78336 14.5269,39.74179 1.9237,56.91154 -9.2382,14.4426 -11.6419,22.24828 -6.3532,37.05287" id="path6183-7-9" style="fill:none;stroke:#000000;stroke-width:8.97166252;stroke-linecap:round;stroke-linejoin:round;stroke-miterlimit:4;stroke-opacity:1;stroke-dasharray:none;display:inline"/><path style="fill:none;stroke:#000000;stroke-width:8.97166252;stroke-linecap:round;stroke-linejoin:round;stroke-miterlimit:4;stroke-opacity:1;stroke-dasharray:none;display:inline" id="path5261" d="m -4885.1949,476.54451 c 13.9433,16.78336 14.5269,39.74179 1.9237,56.91154 -9.2382,14.4426 -11.6419,22.24828 -6.3532,37.05287"/><path d="m -4860.2737,476.54451 c 13.9433,16.78336 14.527,39.74179 1.9238,56.91154 -9.2382,14.4426 -11.6419,22.24828 -6.3532,37.05287" id="path5263" style="fill:none;stroke:#000000;stroke-width:8.97166252;stroke-linecap:round;stroke-linejoin:round;stroke-miterlimit:4;stroke-opacity:1;stroke-dasharray:none;display:inline"/><path style="fill:none;stroke:#000000;stroke-width:8.97166252;stroke-linecap:round;stroke-linejoin:round;stroke-miterlimit:4;stroke-opacity:1;stroke-dasharray:none;display:inline" id="path5265" d="m -4835.3524,476.54451 c 13.9433,16.78336 14.527,39.74179 1.9238,56.91154 -9.2382,14.4426 -11.6419,22.24828 -6.3532,37.05287"/><path d="m -4810.4311,476.54451 c 13.9433,16.78336 14.5269,39.74179 1.9238,56.91154 -9.2383,14.4426 -11.6419,22.24828 -6.3533,37.05287" id="path5267" style="fill:none;stroke:#000000;stroke-width:8.97166252;stroke-linecap:round;stroke-linejoin:round;stroke-miterlimit:4;stroke-opacity:1;stroke-dasharray:none;display:inline"/></g></g></g></svg>