<?xml version="1.0" encoding="UTF-8" standalone="no"?>
<svg xmlns:dc="http://purl.org/dc/elements/1.1/" xmlns:cc="http://creativecommons.org/ns#" xmlns:rdf="http://www.w3.org/1999/02/22-rdf-syntax-ns#" xmlns:svg="http://www.w3.org/2000/svg" xmlns="http://www.w3.org/2000/svg" xmlns:xlink="http://www.w3.org/1999/xlink" xmlns:sodipodi="http://sodipodi.sourceforge.net/DTD/sodipodi-0.dtd" xmlns:inkscape="http://www.inkscape.org/namespaces/inkscape" id="svg3741" version="1.1" viewBox="0 0 500 440"><defs id="defs3743"><linearGradient xlink:href="#linearGradient4573-9-549" id="linearGradient23224" gradientUnits="userSpaceOnUse" gradientTransform="translate(146.29085,16520.271)" x1="450.17905" y1="269.99683" x2="445.02139" y2="546.77863"/><linearGradient id="linearGradient4573-9-549"><stop id="stop33336" offset="0" style="stop-color:#ffffff;stop-opacity:1;"/><stop id="stop33338" offset="1" style="stop-color:#ffffff;stop-opacity:0;"/></linearGradient></defs><metadata id="metadata3746"><rdf:RDF><cc:Work rdf:about=""><dc:format>image/svg+xml</dc:format><dc:type rdf:resource="http://purl.org/dc/dcmitype/StillImage"/><dc:title/></cc:Work></rdf:RDF></metadata><g id="layer1" transform="translate(207.72032,-280.90345)"><g transform="translate(-6126.0741,-638.71625)" id="g23140"><g id="g23142" transform="translate(316.33724,-1250.4625)"><g transform="translate(1516.1557,641.5286)" id="g23144"><g transform="matrix(0.99999834,0,0,1.0009179,6088.251,1699.3665)" id="g23146"><path id="path23148" d="m -1729.657,-157.23924 c -4.4566,-7.70081 -13.1754,-12.51819 -22.7409,-12.51819 -9.7394,0 -18.4615,5.08085 -23.0023,12.928 l -222.2004,384.02127 c -4.7688,8.24191 -5.4749,18.62338 -0.3734,27.4394 4.8697,8.41541 13.6405,13.41233 22.7223,13.41233 l 445.7076,0 c 9.0817,0 17.8525,-4.99698 22.7222,-13.41233 5.1016,-8.81596 4.3958,-19.19774 -0.3734,-27.4394 l -222.4617,-384.43108 z" style="fill:#ffffff;fill-opacity:1;fill-rule:nonzero;stroke:#000000;stroke-width:1.79633701;stroke-linecap:round;stroke-linejoin:round;stroke-miterlimit:2;stroke-opacity:1;stroke-dasharray:none;stroke-dashoffset:0"/><path style="fill:#d40000;fill-opacity:1;fill-rule:nonzero;stroke:none" d="m -1752.3918,-161.75994 c 6.5396,0 12.22,3.32868 14.949,8.05523 l 222.4555,385.3022 c 3.3263,5.76134 3.7682,12.63048 0.3746,18.50829 -3.3028,5.72052 -9.1544,8.93566 -14.9303,8.93572 l -445.7164,0 c -5.7759,0 -11.6274,-3.21508 -14.9302,-8.93572 -3.3936,-5.87781 -2.9517,-12.74635 0.3747,-18.50829 l 222.1931,-384.89007 c 2.8883,-5.0026 8.6251,-8.46736 15.23,-8.46736 z" id="path23150"/><path style="fill:#ffffff;fill-opacity:1;fill-rule:nonzero;stroke:none" d="m -1752.4105,-83.717877 170.2088,294.802657 -340.3989,0 170.1901,-294.802657 z" id="path23152"/></g></g></g><g id="g23154" transform="matrix(0.23743085,0,0,0.23743085,4596.3781,692.88203)"><g id="g23156"><g id="g23158" transform="translate(6218.2592,1791.4081)"><path id="path23160" d="m 325.46946,354.21767 c -40.11074,15.43104 -96.11952,36.00527 -96.28074,115.55926 2.44342,57.50685 36.51273,58.15638 69.42498,66.65014 -61.64231,-12.93237 -161.75996,-24.09093 -172.04411,51.81874 -8.49454,62.70023 108.67293,102.68459 135.66945,105.37924 49.7308,4.96386 75.18809,-5.61489 71.92894,-49.60256 65.14748,25.30994 106.5309,12.87828 149.46172,-1.30808 1.03689,50.96186 35.00217,49.30899 64.73844,48.32936 81.84304,-2.65314 121.91804,-42.69396 129.61519,-86.98189 11.38608,-65.51331 -91.24342,-82.19073 -155.37812,-67.63481 50.59529,-4.82107 73.67435,-20.00041 74.06507,-79.60713 0.41504,-63.31733 -52.48091,-100.42581 -118.46889,-111.85945 -63.64936,-11.02842 -122.05784,-2.54348 -152.73193,9.25718 z" style="fill:#000000;fill-opacity:1;fill-rule:evenodd;stroke:none"/><path id="path23162" d="m 272.44837,531.1579 c 7.11963,27.17901 18.72549,49.23092 8.72506,95.97571 98.19613,57.45268 178.92321,41.14722 253.99633,0.96945 -9.88437,-39.09162 10.72655,-66.74751 19.38903,-98.88406 -105.19675,24.36118 -197.56717,21.4664 -282.11042,1.9389 z" style="fill:#000000;fill-opacity:1;fill-rule:evenodd;stroke:none"/><path style="fill:#ffffff;fill-opacity:1;fill-rule:evenodd;stroke:none" d="m 324.14387,358.90016 c -39.39328,15.15503 -90.76661,33.54442 -90.92495,111.67543 2.39972,56.47822 39.49326,58.02455 70,70 -60.53972,-12.70105 -162.5002,-25.47682 -172.60039,49.07505 -8.3426,61.57871 106.08676,98.2785 132.60039,100.92495 48.84126,4.87507 73.20086,-6.79914 70,-50 63.98219,24.85722 107.83709,13.93261 150,0 5.24676,44.79459 22.23613,56.39946 51.30808,53.4596 95.38877,-9.64604 135.22403,-45.91265 140.36735,-89.75979 8.40755,-71.67491 -107.77951,-77.08696 -171.67543,-63.69981 47.87347,-7.00585 92.05137,-19.59005 90,-80 -2.38634,-70.27444 -54.26739,-100.44631 -119.07505,-111.67543 -62.51086,-10.83116 -119.87458,-1.58958 -150,10 z" id="path23164"/><path style="fill:#ffffff;fill-opacity:1;fill-rule:evenodd;stroke:none" d="m 233.08796,541.09704 c 6.79283,25.93145 17.86596,46.97114 8.32457,91.57027 93.68876,54.8155 170.71034,39.25849 242.33748,0.92495 -9.43066,-37.29725 10.23418,-63.68369 18.49904,-94.34512 -100.36805,23.24296 -188.49851,20.48105 -269.16109,1.8499 z" id="path23166" transform="translate(45.835075,-6.59554)"/><path id="path23168" d="m 296.36272,362.94576 c -46.25869,14.47297 -65.99062,49.57786 -90.49598,80.97009 18.64816,33.82437 60.06161,42.35398 100.97446,51.43982 l -21.90955,51.43982 c 125.46468,37.23099 192.18397,19.08763 247.56267,-3.75507 l -17.1466,-52.47533 C 559.97184,490.94716 592.44705,475.9201 619.2905,445.82103 588.22371,412.73587 580.1753,369.58017 512.60049,352.46727 454.3558,324.89343 366.9576,330.33755 296.36272,362.94576 z" style="fill:#000000;fill-opacity:1;fill-rule:evenodd;stroke:none"/><path style="fill:#ffffff;fill-opacity:1;fill-rule:evenodd;stroke:none" d="m 255.28681,370.90584 c -44.91661,14.05307 -64.07606,48.13947 -87.87046,78.62093 11.66973,25.57808 41.94645,34.5513 85.39016,47.06231 18.02,5.18944 -5.90008,-44.69264 13.96285,-57.28657 l -22.58198,110.1191 c 121.82462,36.15082 183.01575,20.33008 236.78777,-1.8499 L 465.63409,437.67704 c 15.12433,15.88246 1.05336,61.60654 19.4917,57.84506 34.46068,-7.03009 70.68749,-29.53251 83.71982,-44.14542 C 538.68015,419.25141 530.86524,377.34777 465.25096,360.73136 408.6961,333.9575 323.83355,339.24368 255.28681,370.90584 z" id="path23170" transform="translate(45.835075,-6.59554)"/><g id="g23172" transform="translate(2.6161599,1.30808)"><path style="fill:#000000;fill-opacity:1;fill-rule:evenodd;stroke:none" d="m 320.89642,684.67283 c 21.36509,-19.15342 18.48554,-53.47516 -15.23493,-91.27272 -21.71576,-23.34036 -53.11069,-77.77214 -76.39611,-59.70077 -14.04113,10.89706 -6.88878,20.05649 -2.80518,26.22738 -5.02532,-4.50338 -11.36673,-13.76798 -24.01052,-2.87066 -13.25616,11.42508 -6.75805,18.97109 -2.35288,24.21702 -4.34473,-3.42257 -11.66375,-9.87607 -23.05499,0.0561 -11.23945,9.7998 -2.44523,21.57709 1.14625,24.59626 -4.15933,-1.4181 -7.59957,-6.76993 -16.59826,3.92838 -8.85032,10.52192 -15.18752,14.37246 19.05474,45.98655 38.062,35.14065 114.79255,51.65631 140.25188,28.83248 z" id="path23174"/><path id="path23176" d="m 318.60993,683.19175 c 19.85695,-18.10886 17.78854,-51.17717 -15.37524,-88.1501 -20.18287,-22.06746 -49.06353,-76.70328 -72.77486,-59.24952 -15.82305,11.64724 1.62033,25.77344 5.37524,35.37524 -8.86131,-6.06181 -19.3368,-26.3376 -33.69981,-10.92495 -11.58819,12.43505 3.19805,23.32751 9.24953,33.87428 -10.07047,-6.68267 -18.76981,-24.50029 -32.77486,-10.92495 -13.55212,13.1363 3.15923,22.42809 11.33066,32.08114 -12.09902,-5.57946 -16.73866,-14.61117 -25.78095,-4.856 -10.43054,11.25287 -11.82514,14.7348 20,44.62476 35.37524,33.22419 110.78812,49.72919 134.45029,28.1501 z" style="fill:#ffffff;fill-opacity:1;fill-rule:evenodd;stroke:none"/></g><g id="g23178" transform="matrix(-1,0,0,1,814.94938,1.9169883)"><path id="path23180" d="m 320.89642,684.67283 c 21.36509,-19.15342 18.48554,-53.47516 -15.23493,-91.27272 -21.71576,-23.34036 -53.11069,-77.77214 -76.39611,-59.70077 -14.04113,10.89706 -6.88878,20.05649 -2.80518,26.22738 -5.02532,-4.50338 -11.36673,-13.76798 -24.01052,-2.87066 -13.25616,11.42508 -6.75805,18.97109 -2.35288,24.21702 -4.34473,-3.42257 -11.66375,-9.87607 -23.05499,0.0561 -11.23945,9.7998 -2.44523,21.57709 1.14625,24.59626 -4.15933,-1.4181 -7.59957,-6.76993 -16.59826,3.92838 -8.85032,10.52192 -15.18752,14.37246 19.05474,45.98655 38.062,35.14065 114.79255,51.65631 140.25188,28.83248 z" style="fill:#000000;fill-opacity:1;fill-rule:evenodd;stroke:none"/><path style="fill:#ffffff;fill-opacity:1;fill-rule:evenodd;stroke:none" d="m 318.60993,683.19175 c 19.85695,-18.10886 17.78854,-51.17717 -15.37524,-88.1501 -20.18287,-22.06746 -49.06353,-76.70328 -72.77486,-59.24952 -15.82305,11.64724 1.62033,25.77344 5.37524,35.37524 -8.86131,-6.06181 -19.3368,-26.3376 -33.69981,-10.92495 -11.58819,12.43505 3.19805,23.32751 9.24953,33.87428 -10.07047,-6.68267 -18.76981,-24.50029 -32.77486,-10.92495 -13.55212,13.1363 3.15923,22.42809 11.33066,32.08114 -12.09902,-5.57946 -16.73866,-14.61117 -25.78095,-4.856 -10.43054,11.25287 -11.82514,14.7348 20,44.62476 35.37524,33.22419 110.78812,49.72919 134.45029,28.1501 z" id="path23182"/></g><path id="path23184" d="m 348.2968,485.80775 c 15.44149,-0.16995 39.06915,1.47183 38.51373,17.6173 -0.55355,16.09123 -6.14575,15.33484 -14.48574,17.10241 8.65233,1.22173 14.18478,0.6489 13.40817,17.10241 -0.72851,15.43443 -15.61379,12.95557 -21.35316,12.84421 9.99301,4.137 11.95496,8.5345 11.84806,16.44837 -0.15419,11.08822 -18.12392,15.87993 -48.27608,12.95553 -24.59495,-2.38542 -50.35761,-12.47365 -50.56522,-63.41391 -0.12556,-30.80836 12.89868,-53.80683 47.102,-60.00456 17.26432,-3.12834 39.97009,-1.62018 45.64916,5.04445 9.21637,10.81581 -3.35729,21.18076 -21.84092,24.30379 z" style="fill:#000000;fill-opacity:1;fill-rule:evenodd;stroke:none"/><path style="fill:#ffffff;fill-opacity:1;fill-rule:evenodd;stroke:none" d="m 336.88287,487.73736 c 16.81691,-0.16301 46.6804,-1.06842 47.74492,14.38888 1.61633,23.14283 -20.68137,15.42973 -41.20453,17.65908 23.88202,4.46876 42.88594,-2.22148 39.89645,17.65908 -2.76368,18.37888 -26.72299,7.65497 -41.20452,9.8106 13.91958,3.44758 31.94784,4.73577 32.04796,17.65908 0.0945,12.20476 -20.22868,16.17282 -47.09088,12.42676 -22.80442,-3.18018 -46.89754,-11.96455 -47.09088,-60.82572 -0.11693,-29.55094 12.43053,-52.82311 44.47472,-57.55552 13.94624,-2.05964 29.66708,-4.96799 42.5126,3.2702 13.669,8.76631 -8.60852,21.2573 -30.08584,25.50756 z" id="path23186"/><path style="fill:#000000;fill-opacity:1;fill-rule:evenodd;stroke:none" d="m 476.14881,484.49967 c -15.44149,-0.16995 -39.06915,1.47183 -38.51373,17.6173 0.55355,16.09123 6.14575,15.33484 14.48574,17.10241 -8.65233,1.22173 -14.18478,0.6489 -13.40817,17.10241 0.72851,15.43443 15.61379,12.95557 21.35316,12.84421 -9.99301,4.137 -11.95496,8.5345 -11.84806,16.44837 0.15419,11.08822 18.12392,15.87993 48.27608,12.95553 24.59495,-2.38542 50.35761,-12.47365 50.56522,-63.41391 0.12556,-30.80836 -12.89868,-53.80683 -47.102,-60.00456 -17.26432,-3.12834 -39.97009,-1.62018 -45.64916,5.04445 -9.21637,10.81581 3.35729,21.18076 21.84092,24.30379 z" id="path23188"/><path id="path23190" d="m 487.56274,486.42928 c -16.81691,-0.16301 -46.6804,-1.06842 -47.74492,14.38888 -1.61633,23.14283 20.68137,15.42973 41.20453,17.65908 -23.88202,4.46876 -42.88594,-2.22148 -39.89645,17.65908 2.76368,18.37888 26.72299,7.65497 41.20452,9.8106 -13.91958,3.44758 -31.94784,4.73577 -32.04796,17.65908 -0.0945,12.20476 20.22868,16.17282 47.09088,12.42676 22.80442,-3.18018 46.89754,-11.96455 47.09088,-60.82572 0.11693,-29.55094 -12.43053,-52.82311 -44.47472,-57.55552 -13.94624,-2.05964 -29.66708,-4.96799 -42.5126,3.2702 -13.669,8.76631 8.60852,21.2573 30.08584,25.50756 z" style="fill:#ffffff;fill-opacity:1;fill-rule:evenodd;stroke:none"/><g transform="matrix(0.8408993,0,0,0.7270069,184.80757,-114.99421)" id="g23192"><g transform="translate(-178.797,-110.1066)" id="g23194"><path id="path23196" d="m 417.99222,824.31946 c -52.29578,-7.71235 -96.7484,-42.65809 -126.41313,-85.10589 -30.87313,-43.89763 -46.94511,-96.99675 -50.41129,-150.25543 -6.4215,-10.23986 -22.32922,-11.65686 -23.96675,-26.05627 -3.72903,-10.6218 -2.6376,-23.1122 0.18261,-33.97196 1.92779,-15.1133 19.88647,-18.14777 28.50796,-22.752 12.50381,-64.37569 44.98349,-127.45885 99.53645,-165.82422 27.00127,-19.82561 59.8705,-31.66526 93.47114,-32.05842 7.00798,-2.00875 21.56441,3.1752 22.28625,-6.96885 -2.42727,-7.06791 -1.37751,-15.24472 3.0622,-19.77613 -10.38394,-5.98189 -13.45769,-21.06073 0.44666,-25.19174 15.77412,-5.12874 15.72379,17.70787 24.45868,25.78679 3.65719,12.21545 -15.22541,13.89659 -7.43891,27.02858 6.0472,8.11178 23.55696,7.49911 33.05781,14.74183 53.0996,25.42766 91.60444,74.84321 112.1269,129.16847 7.88033,20.47634 13.47948,41.81689 16.8489,63.49272 12.84173,-0.33129 31.5785,4.038 31.27964,20.12262 0.89844,16.39827 -0.89839,34.60231 -11.5879,47.77055 -6.01427,7.83618 -20.42084,4.20749 -17.53819,16.95463 -6.89769,63.17409 -31.43562,126.2069 -77.58259,171.08275 -31.96299,31.96945 -75.5482,54.04666 -121.47174,53.29315 -9.63708,0.10423 -19.2744,-0.4542 -28.8547,-1.48118 z" style="fill:#ffffff;fill-opacity:1"/><path style="fill:url(#linearGradient23224);fill-opacity:1" d="m 417.99222,824.31946 c -52.29578,-7.71235 -96.7484,-42.65809 -126.41313,-85.10589 -30.87313,-43.89763 -46.94511,-96.99675 -50.41129,-150.25543 -6.4215,-10.23986 -22.32922,-11.65686 -23.96675,-26.05627 -3.72903,-10.6218 -2.6376,-23.1122 0.18261,-33.97196 1.92779,-15.1133 19.88647,-18.14777 28.50796,-22.752 12.50381,-64.37569 44.98349,-127.45885 99.53645,-165.82422 27.00127,-19.82561 59.8705,-31.66526 93.47114,-32.05842 7.00798,-2.00875 21.56441,3.1752 22.28625,-6.96885 -2.42727,-7.06791 -1.37751,-15.24472 3.0622,-19.77613 -10.38394,-5.98189 -13.45769,-21.06073 0.44666,-25.19174 15.77412,-5.12874 15.72379,17.70787 24.45868,25.78679 3.65719,12.21545 -15.22541,13.89659 -7.43891,27.02858 6.0472,8.11178 23.55696,7.49911 33.05781,14.74183 53.0996,25.42766 91.60444,74.84321 112.1269,129.16847 7.88033,20.47634 13.47948,41.81689 16.8489,63.49272 12.84173,-0.33129 31.5785,4.038 31.27964,20.12262 0.89844,16.39827 -0.89839,34.60231 -11.5879,47.77055 -6.01427,7.83618 -20.42084,4.20749 -17.53819,16.95463 -6.89769,63.17409 -31.43562,126.2069 -77.58259,171.08275 -31.96299,31.96945 -75.5482,54.04666 -121.47174,53.29315 -9.63708,0.10423 -19.2744,-0.4542 -28.8547,-1.48118 z" id="path23198"/><path style="fill:#000000" d="m 417.99222,824.31946 c -52.29578,-7.71235 -96.7484,-42.65809 -126.41313,-85.10589 -30.87313,-43.89763 -46.94511,-96.99675 -50.41129,-150.25543 -6.4215,-10.23986 -22.32922,-11.65686 -23.96675,-26.05627 -3.72903,-10.6218 -2.6376,-23.1122 0.18261,-33.97196 1.92779,-15.1133 19.88647,-18.14777 28.50796,-22.752 12.50381,-64.37569 44.98349,-127.45885 99.53645,-165.82422 27.00127,-19.82561 59.8705,-31.66526 93.47114,-32.05842 7.00798,-2.00875 21.56441,3.1752 22.28625,-6.96885 -2.42727,-7.06791 -1.37751,-15.24472 3.0622,-19.77613 -10.38394,-5.98189 -13.45769,-21.06073 0.44666,-25.19174 15.77412,-5.12874 15.72379,17.70787 24.45868,25.78679 3.65719,12.21545 -15.22541,13.89659 -7.43891,27.02858 6.0472,8.11178 23.55696,7.49911 33.05781,14.74183 53.0996,25.42766 91.60444,74.84321 112.1269,129.16847 7.88033,20.47634 13.47948,41.81689 16.8489,63.49272 12.84173,-0.33129 31.5785,4.038 31.27964,20.12262 0.89844,16.39827 -0.89839,34.60231 -11.5879,47.77055 -6.01427,7.83618 -20.42084,4.20749 -17.53819,16.95463 -6.89769,63.17409 -31.43562,126.2069 -77.58259,171.08275 -31.96299,31.96945 -75.5482,54.04666 -121.47174,53.29315 -9.63708,0.10423 -19.2744,-0.4542 -28.8547,-1.48118 z m 52.10025,-4.77057 c 52.80385,-8.10754 97.39528,-44.24376 126.21104,-87.90926 27.12432,-41.1279 41.70479,-89.62693 46.20027,-138.44902 2.10743,-9.65929 20.50459,-5.97328 22.59434,-18.82143 4.94981,-10.72016 5.6838,-22.88886 6.32672,-34.47562 0.15489,-14.23306 -14.28719,-19.39739 -26.21298,-18.84659 -11.09315,-2.46712 -5.78378,-16.68618 -9.80867,-24.64556 -13.83357,-61.62694 -47.46696,-121.11962 -101.01679,-156.41139 -16.20106,-10.536 -34.0655,-18.58966 -52.82274,-23.31052 -5.48319,8.93298 -21.19986,4.33724 -23.52888,15.30091 -12.32905,11.93737 -23.03305,-9.73608 -13.59551,-19.52888 -7.99474,-1.25692 -16.99862,1.08069 -25.3115,1.97379 -49.62319,7.38944 -92.55018,39.38439 -121.28179,79.48165 -21.29852,29.50865 -35.81028,63.61364 -44.62251,98.77571 -0.54422,11.5235 -4.4729,23.77521 -17.9772,22.30478 -15.9725,6.78151 -17.95937,27.31531 -15.03001,42.2677 0.56457,17.13254 21.20134,18.46274 26.26757,31.72187 -0.68175,18.34133 3.42906,36.68777 7.33699,54.58515 14.13302,58.46953 46.60563,114.28363 96.79653,148.74897 34.52485,23.93509 77.88828,34.65505 119.47512,27.23774 z m -30.00989,-61.45276 c -13.94799,-1.67293 -27.0842,-6.49745 -39.56811,-12.76317 -11.96559,-4.71364 -22.85543,-11.16582 -33.45059,-18.39607 -10.89335,-6.65148 -14.30229,-19.65953 -22.29681,-29.00223 -8.06765,-14.61851 -15.50726,-30.31105 -15.61891,-47.41066 -2.90611,-10.53523 0.66504,-25.01074 -2.31331,-33.10144 -10.83496,-0.44736 -22.57188,6.00419 -32.71836,1.08354 -5.37194,-9.82578 14.46144,0.62869 19.86488,-3.4139 13.24929,-1.34617 26.6944,-8.84103 31.4923,-21.81985 1.79627,-5.79273 10.36259,-10.93411 6.04252,-0.85519 -3.21736,12.59047 -18.98753,17.68326 -20.03996,30.76887 0.29817,12.35925 1.14188,24.8152 2.8474,37.07292 1.55034,12.01433 7.84577,22.16048 13.22961,32.70744 8.72535,15.36925 19.16247,31.63991 36.30934,38.45158 11.7298,7.46663 24.79558,11.96185 37.39814,17.57918 11.93743,2.93445 24.69102,7.16397 36.79719,2.71712 17.77862,-5.97166 34.78704,-14.0932 50.03303,-25.05534 12.12398,-6.13668 20.76245,-16.19868 27.03242,-28.03479 6.45148,-11.07273 12.05927,-22.7751 15.84994,-35.04758 3.48813,-14.37867 2.60991,-29.51616 2.63139,-44.12828 -0.75676,-11.05162 -6.15278,-20.42269 -14.67975,-27.16899 -4.51552,-3.06108 -12.62039,-20.63859 -3.03403,-10.94403 7.22991,10.02609 16.56616,20.8424 30.27801,18.90429 11.79243,0.63369 24.36795,0.78182 35.01854,-5.08238 8.60709,5.0315 -10.88844,9.53247 -15.59189,8.96831 -9.16305,2.51915 -25.09055,-2.71586 -30.01098,3.40146 3.42,15.41222 2.35301,31.38444 1.26459,46.99259 -3.11349,22.95672 -15.83033,43.15925 -27.99113,62.30337 -11.38773,11.49516 -26.12088,18.96101 -39.92879,27.10977 -13.64225,6.15277 -27.54965,13.27902 -42.64603,14.68427 -2.07722,0.0529 -4.16322,-0.10535 -6.20065,-0.52081 z M 629.92889,575.49359 c 0.48399,-9.64797 19.35245,6.83698 20.06709,-7.49897 4.1625,-8.73196 6.77435,-31.55049 -6.38903,-31.22251 -3.74258,2.03407 -17.80824,10.72746 -10.72649,0.63786 10.62937,-11.04708 27.95283,-2.82182 24.49764,12.71282 0.31411,11.22102 -1.91952,29.77907 -16.96833,28.16594 -3.62623,4e-5 -7.53,-0.4841 -10.48088,-2.79514 z m -391.82881,-9.42456 c -7.80955,-10.49813 -11.97828,-25.8687 -3.90448,-37.18278 4.34947,-6.18138 22.10876,1.40441 13.76662,4.7124 -14.11288,-7.17346 -17.40795,15.26795 -10.54517,23.60857 1.89143,8.3993 10.78163,4.39261 13.56393,3.35184 2.67604,6.13156 -9.6396,9.67264 -12.8809,5.50997 z M 457.892,513.54956 c -13.39513,-11.04669 13.25191,-27.87582 18.0243,-11.49186 4.39168,10.27243 -10.71096,20.62769 -18.0243,11.49186 z m -39,-8.99997 c -13.39514,-11.04669 13.25189,-27.87587 18.0243,-11.49189 4.39167,10.27243 -10.71093,20.62765 -18.0243,11.49189 z m 79.6,-22.91193 c -5.76307,-6.05972 -25.9951,-9.27948 -23.25043,-16.03249 10.01064,0.81992 26.13768,8.00608 28.22133,16.46833 -1.47052,1.02565 -3.62146,0.5798 -4.9709,-0.43584 z m -106.66812,-6.26562 c 7.28828,-10.56934 21.27065,-13.0745 32.36083,-17.72432 4.81544,9.70143 -14.8482,8.04868 -19.55546,14.742 -3.74267,2.19017 -8.387,5.00238 -12.80537,2.98232 z m 61.92948,-145.17246 c 0.63117,-14.58029 28.1002,-6.35025 23.41654,-23.94349 -2.89934,-6.63086 -3.31705,-15.71184 5.83069,-15.88253 7.95285,-11.49103 -12.30527,-19.38614 -11.34265,-30.18066 -12.4086,-3.48579 -16.65386,15.61716 -3.48065,18.00962 3.69425,8.64212 -10.71557,17.00783 -1.63768,25.68053 -1.99515,11.43126 -30.93945,9.4046 -18.81687,26.68841 1.54401,2.00634 4.68359,1.73413 6.03062,-0.37188 z" id="path23200"/><path style="fill:#000000" d="m 440.08258,758.09613 c -13.94799,-1.67293 -27.0842,-6.49745 -39.56811,-12.76317 -11.96559,-4.71364 -22.85543,-11.16582 -33.45059,-18.39607 -10.89335,-6.65148 -14.30229,-19.65953 -22.29681,-29.00223 -8.06765,-14.61851 -15.50726,-30.31105 -15.61891,-47.41066 -2.90611,-10.53523 0.66504,-25.01074 -2.31331,-33.10144 -10.83496,-0.44736 -22.57188,6.00419 -32.71836,1.08354 -5.37194,-9.82578 14.46144,0.62869 19.86488,-3.4139 13.24929,-1.34617 26.6944,-8.84103 31.4923,-21.81985 1.79627,-5.79273 10.36259,-10.93411 6.04252,-0.85519 -3.21736,12.59047 -18.98753,17.68326 -20.03996,30.76887 0.29817,12.35925 1.14188,24.8152 2.8474,37.07292 1.55034,12.01433 7.84577,22.16048 13.22961,32.70744 8.72535,15.36925 19.16247,31.63991 36.30934,38.45158 11.7298,7.46663 24.79558,11.96185 37.39814,17.57918 11.93743,2.93445 24.69102,7.16397 36.79719,2.71712 17.77862,-5.97166 34.78704,-14.0932 50.03303,-25.05534 12.12398,-6.13668 20.76245,-16.19868 27.03242,-28.03479 6.45148,-11.07273 12.05927,-22.7751 15.84994,-35.04758 3.48813,-14.37867 2.60991,-29.51616 2.63139,-44.12828 -0.75676,-11.05162 -6.15278,-20.42269 -14.67975,-27.16899 -4.51552,-3.06108 -12.62039,-20.63859 -3.03403,-10.94403 7.22991,10.02609 16.56616,20.8424 30.27801,18.90429 11.79243,0.63369 24.36795,0.78182 35.01854,-5.08238 8.60709,5.0315 -10.88844,9.53247 -15.59189,8.96831 -9.16305,2.51915 -25.09055,-2.71586 -30.01098,3.40146 3.42,15.41222 2.35301,31.38444 1.26459,46.99259 -3.11349,22.95672 -15.83033,43.15925 -27.99113,62.30337 -11.38773,11.49516 -26.12088,18.96101 -39.92879,27.10977 -13.64225,6.15277 -27.54965,13.27902 -42.64603,14.68427 -2.07722,0.0529 -4.16322,-0.10535 -6.20065,-0.52081 z" id="path23202"/><path style="fill:#000000" d="m 629.92889,575.49359 c 0.48399,-9.64797 19.35245,6.83698 20.06709,-7.49897 4.1625,-8.73196 6.77435,-31.55049 -6.38903,-31.22251 -3.74258,2.03407 -17.80824,10.72746 -10.72649,0.63786 10.62937,-11.04708 27.95283,-2.82182 24.49764,12.71282 0.31411,11.22102 -1.91952,29.77907 -16.96833,28.16594 -3.62623,4e-5 -7.53,-0.4841 -10.48088,-2.79514 z" id="path23204"/><path style="fill:#000000" d="m 238.10008,566.06903 c -7.80955,-10.49813 -11.97828,-25.8687 -3.90448,-37.18278 4.34947,-6.18138 22.10876,1.40441 13.76662,4.7124 -14.11288,-7.17346 -17.40795,15.26795 -10.54517,23.60857 1.89143,8.3993 10.78163,4.39261 13.56393,3.35184 2.67604,6.13156 -9.6396,9.67264 -12.8809,5.50997 z" id="path23206"/><path style="fill:#000000" d="m 457.892,513.54956 c -13.39513,-11.04669 13.25191,-27.87582 18.0243,-11.49186 4.39168,10.27243 -10.71096,20.62769 -18.0243,11.49186 z" id="path23208"/><path style="fill:#000000" d="m 418.892,504.54959 c -13.39514,-11.04669 13.25189,-27.87587 18.0243,-11.49189 4.39167,10.27243 -10.71093,20.62765 -18.0243,11.49189 z" id="path23210"/><path style="fill:#000000" d="m 498.492,481.63766 c -5.76307,-6.05972 -25.9951,-9.27948 -23.25043,-16.03249 10.01064,0.81992 26.13768,8.00608 28.22133,16.46833 -1.47052,1.02565 -3.62146,0.5798 -4.9709,-0.43584 z" id="path23212"/><path style="fill:#000000" d="m 391.82388,475.37204 c 7.28828,-10.56934 21.27065,-13.0745 32.36083,-17.72432 4.81544,9.70143 -14.8482,8.04868 -19.55546,14.742 -3.74267,2.19017 -8.387,5.00238 -12.80537,2.98232 z" id="path23214"/><path style="fill:#ffffff;fill-opacity:1" d="m 453.75336,330.19958 c 0.63117,-14.58029 28.1002,-6.35025 23.41654,-23.94349 -2.89934,-6.63086 -3.31705,-15.71184 5.83069,-15.88253 7.95285,-11.49103 -12.30527,-19.38614 -11.34265,-30.18066 -12.4086,-3.48579 -16.65386,15.61716 -3.48065,18.00962 3.69425,8.64212 -10.71557,17.00783 -1.63768,25.68053 -1.99515,11.43126 -30.93945,9.4046 -18.81687,26.68841 1.54401,2.00634 4.68359,1.73413 6.03062,-0.37188 z" id="path23216"/></g></g></g><path id="path23218" d="m 6593.7813,2348.9299 c 0,-1.7962 2.3862,-5.2463 5.3027,-7.6667 6.2752,-5.208 7.2987,-51.4932 1.3012,-58.8476 -2.0865,-2.5587 -7.7754,-4.6521 -12.642,-4.6521 -8.8484,0 -8.8484,0 -1.4051,-7.4432 9.7459,-9.7459 9.3912,-13.4385 -2.008,-20.9075 -7.4008,-4.8492 -14.5732,-5.7143 -33.0619,-3.9878 l -23.6107,2.2048 2.9408,-13.0393 c 4.3436,-19.259 -4.6954,-14.1936 -9.4857,5.3157 -2.1003,8.5541 -8.064,19.7981 -13.2526,24.9867 l -9.4339,9.4339 -21.4422,-8.2054 c -11.7932,-4.513 -26.4841,-12.9154 -32.6465,-18.6719 l -11.2044,-10.4665 8.5398,-12.1738 c 16.0837,-22.9281 47.9964,-53.884 62.1109,-60.2488 l 14.1116,-6.3634 19.6208,13.2038 c 32.7168,22.0168 73.288,31.0923 111.3815,24.9153 27.3837,-4.4404 58.6355,-17.9031 78.9994,-34.0316 l 14.3847,-11.3929 14.1382,7.4852 c 7.7759,4.1168 17.8433,10.4729 22.372,14.1245 8.3973,6.7712 49.4511,60.0552 49.4511,64.1829 0,4.0442 -40.8531,29.3093 -54.8757,33.9372 -10.8111,3.568 -13.9373,3.5311 -15.1739,-0.1788 -0.8567,-2.57 -5.5427,-8.1376 -10.4134,-12.3726 -4.8706,-4.235 -8.8557,-11.2648 -8.8557,-15.6216 0,-4.3569 -2.616,-11.1725 -5.8132,-15.1457 -5.4802,-6.8105 -5.6918,-6.468 -3.6941,5.9796 l 2.1191,13.2038 -23.7127,-1.5099 c -13.684,-0.8714 -27.0744,0.2892 -31.6613,2.744 -9.229,4.9392 -10.5033,17.0789 -2.2762,21.683 4.4838,2.5093 2.9242,4.4849 -7.4432,9.4288 -9.5102,4.5351 -13.1156,8.658 -13.1156,14.9983 0,4.8092 1.1878,9.9318 2.6396,11.3836 1.4518,1.4518 2.1524,9.3882 1.5568,17.6365 -0.9093,12.5943 0.1709,15.3247 6.7429,17.0433 6.1627,1.6116 6.9213,3.1361 3.5699,7.1743 -4.8329,5.8233 -74.055,7.5637 -74.055,1.8619 z" style="fill:#000000"/><path id="path23220" d="m 6614.2502,2449.9355 c -8.1876,-0.6566 -23.8,-2.9639 -34.6943,-5.1272 -18.8358,-3.7402 -20.1711,-4.785 -27.2125,-21.2912 -4.0726,-9.5468 -15.1977,-27.3051 -24.7225,-39.4628 -11.6042,-14.812 -14.9047,-21.0948 -10.0036,-19.0432 27.0779,11.3349 70.5604,11.3058 74.9181,-0.05 3.0667,-7.9915 65.2251,-7.4656 77.6215,0.6568 6.9738,4.5695 16.082,5.6628 38.6409,4.6383 32.3887,-1.4708 31.4758,-3.0763 11.9511,21.0168 -4.9763,6.1407 -12.836,19.6997 -17.4659,30.1311 -8.2754,18.6446 -8.7862,19.0362 -30.1174,23.0888 -30.2975,5.7561 -41.7813,6.817 -58.9154,5.4428 z" style="fill:#000000"/></g><path id="path23222" d="m 6632.6392,1828.2843 c 3.9732,-3.2374 8.3886,-5.8863 9.812,-5.8863 4.3296,0 6.099,-21.8963 2.0931,-25.9022 -2.0606,-2.0607 -2.5623,-4.9309 -1.1149,-6.3783 4.8719,-4.8719 14.8374,8.9106 11.6955,16.1751 -1.6179,3.7408 -2.6152,9.5188 -2.2161,12.84 0.399,3.3212 -2.2744,6.8994 -5.9409,7.9514 -3.6665,1.0521 -10.0159,3.0769 -14.1097,4.4997 -7.3381,2.5503 -7.3412,2.5037 -0.219,-3.2994 z" style="fill:#000000"/></g></g></g></svg>