<?xml version="1.0" encoding="UTF-8" standalone="no"?>
<svg xmlns:dc="http://purl.org/dc/elements/1.1/" xmlns:cc="http://creativecommons.org/ns#" xmlns:rdf="http://www.w3.org/1999/02/22-rdf-syntax-ns#" xmlns:svg="http://www.w3.org/2000/svg" xmlns="http://www.w3.org/2000/svg" xmlns:sodipodi="http://sodipodi.sourceforge.net/DTD/sodipodi-0.dtd" xmlns:inkscape="http://www.inkscape.org/namespaces/inkscape" id="svg3741" version="1.1" viewBox="0 0 500 440"><defs id="defs3743"/><metadata id="metadata3746"><rdf:RDF><cc:Work rdf:about=""><dc:format>image/svg+xml</dc:format><dc:type rdf:resource="http://purl.org/dc/dcmitype/StillImage"/><dc:title/></cc:Work></rdf:RDF></metadata><g id="layer1" transform="translate(-77.974795,-275.20438)"><g transform="translate(-6493.5001,-2182.0887)" id="g22348"><g transform="translate(969.45836,287.21088)" id="g22350"><g id="g22352" transform="translate(1516.1557,641.5286)"><g id="g22354" transform="matrix(0.99999834,0,0,1.0009179,6088.251,1699.3665)"><path style="fill:#ffffff;fill-opacity:1;fill-rule:nonzero;stroke:#000000;stroke-width:1.79633701;stroke-linecap:round;stroke-linejoin:round;stroke-miterlimit:2;stroke-opacity:1;stroke-dasharray:none;stroke-dashoffset:0" d="m -1729.657,-157.23924 c -4.4566,-7.70081 -13.1754,-12.51819 -22.7409,-12.51819 -9.7394,0 -18.4615,5.08085 -23.0023,12.928 l -222.2004,384.02127 c -4.7688,8.24191 -5.4749,18.62338 -0.3734,27.4394 4.8697,8.41541 13.6405,13.41233 22.7223,13.41233 l 445.7076,0 c 9.0817,0 17.8525,-4.99698 22.7222,-13.41233 5.1016,-8.81596 4.3958,-19.19774 -0.3734,-27.4394 l -222.4617,-384.43108 z" id="path22356"/><path id="path22358" d="m -1752.3918,-161.75994 c 6.5396,0 12.22,3.32868 14.949,8.05523 l 222.4555,385.3022 c 3.3263,5.76134 3.7682,12.63048 0.3746,18.50829 -3.3028,5.72052 -9.1544,8.93566 -14.9303,8.93572 l -445.7164,0 c -5.7759,0 -11.6274,-3.21508 -14.9302,-8.93572 -3.3936,-5.87781 -2.9517,-12.74635 0.3747,-18.50829 l 222.1931,-384.89007 c 2.8883,-5.0026 8.6251,-8.46736 15.23,-8.46736 z" style="fill:#d40000;fill-opacity:1;fill-rule:nonzero;stroke:none"/><path id="path22360" d="m -1752.4105,-83.717877 170.2088,294.802657 -340.3989,0 170.1901,-294.802657 z" style="fill:#ffffff;fill-opacity:1;fill-rule:nonzero;stroke:none"/></g></g></g><g id="g22362" transform="matrix(0.31275782,0,0,0.31275782,6696.9912,2580.6577)"><path style="fill:#000000;fill-opacity:1;stroke:none" d="m 179.64286,748.43362 c 1.80694,-37.93516 23.25628,-80.04003 5.80769,-114.83938 -15.91057,-31.73194 -35.89786,-77.90926 -49.02198,-96.23206 -5.42865,-7.57904 -33.63882,48.54942 -36.23726,35.01842 C 97.897088,440.69305 236.38802,379.84399 349.485,384.83399 c 28.45237,5.28872 51.59745,3.32619 72.90983,-16.5817 44.34393,-31.86711 125.49022,-24.11388 170.41036,1.78512 107.06347,84.80677 98.76834,210.40626 6.10966,302.73643 -19.00763,16.49941 0.86178,41.7677 20.73668,25.84625 29.60891,-16.49809 50.82241,40.14502 16.97772,42.31921 -29.49839,-1.50717 -69.01551,1.58475 -80.49602,-33.4097 -20.29195,-27.19693 27.95755,-85.96373 26.70849,-107.04334 -1.59449,-26.90919 -102.07199,38.93848 -106.00013,66.94019 -3.72593,26.56028 42.11624,51.51076 34.02893,89.60592 -8.08731,38.09516 -44.99608,19.15102 -65.52694,22.6655 -27.3079,4.67458 -50.44034,-10.92437 -36.14242,-40.32567 10.42915,-21.4458 8.55938,-57.29948 -11.04432,-70.24838 -20.07863,-13.26261 -46.76943,15.92419 -76.16113,7.43272 -29.0408,-8.3901 -60.67442,13.36948 -39.1508,27.31233 16.62294,10.76822 37.9858,68.14817 4.91116,72.74648 -33.07464,4.59831 -72.69132,8.45791 -101.17588,-12.93275 -4.56343,-3.42694 -7.20174,-9.69796 -6.93733,-15.24898 z" id="path22364"/></g></g></g></svg>