<?xml version="1.0" encoding="UTF-8" standalone="no"?>
<svg xmlns:dc="http://purl.org/dc/elements/1.1/" xmlns:cc="http://creativecommons.org/ns#" xmlns:rdf="http://www.w3.org/1999/02/22-rdf-syntax-ns#" xmlns:svg="http://www.w3.org/2000/svg" xmlns="http://www.w3.org/2000/svg" xmlns:sodipodi="http://sodipodi.sourceforge.net/DTD/sodipodi-0.dtd" xmlns:inkscape="http://www.inkscape.org/namespaces/inkscape" id="svg2" version="1.1" viewBox="0 0 500 500"><defs id="defs4"/><metadata id="metadata7"><rdf:RDF><cc:Work rdf:about=""><dc:format>image/svg+xml</dc:format><dc:type rdf:resource="http://purl.org/dc/dcmitype/StillImage"/><dc:title/></cc:Work></rdf:RDF></metadata><g id="layer1" transform="translate(5770.8647,3096.5496)"><g id="g9178" transform="matrix(0.71174377,0,0,0.71174377,-5778.8718,-3104.5567)"><circle id="circle4-97" style="fill:#ffffff;stroke:#000000;stroke-width:2.5px" r="350" cy="362.5" cx="362.5" d="m 712.5,362.5 c 0,193.29966 -156.70034,350 -350,350 -193.29966,0 -350,-156.70034 -350,-350 0,-193.29966 156.70034,-350 350,-350 193.29966,0 350,156.70034 350,350 z"/><path id="path1883-266" style="fill:#003399;fill-opacity:1;fill-rule:nonzero;stroke:none" transform="matrix(1.061206,0,0,1.061206,877.7452,-29.79549)" d="m -176.30905,369.66949 a 309.2189,309.2189 0 1 1 -618.43781,0 309.2189,309.2189 0 1 1 618.43781,0 z"/><path id="path2806-3" style="fill:#ffffff;fill-opacity:1;fill-rule:evenodd;stroke:none" d="m 200.04688,353.01562 125.3125,-125.15624 0,398.84374 73.28124,0 0,-399.25 125.375,125.21876 0,-92.34376 -161.875,-162.187495 0.21876,16.093755 -0.4375,-15.750005 -161.875,162.218745 0,92.3125 z"/></g></g></svg>