<?xml version="1.0" encoding="UTF-8" standalone="no"?>
<svg xmlns:dc="http://purl.org/dc/elements/1.1/" xmlns:cc="http://creativecommons.org/ns#" xmlns:rdf="http://www.w3.org/1999/02/22-rdf-syntax-ns#" xmlns:svg="http://www.w3.org/2000/svg" xmlns="http://www.w3.org/2000/svg" xmlns:sodipodi="http://sodipodi.sourceforge.net/DTD/sodipodi-0.dtd" xmlns:inkscape="http://www.inkscape.org/namespaces/inkscape" id="svg2" version="1.1" viewBox="0 0 500 500"><defs id="defs4"/><metadata id="metadata7"><rdf:RDF><cc:Work rdf:about=""><dc:format>image/svg+xml</dc:format><dc:type rdf:resource="http://purl.org/dc/dcmitype/StillImage"/><dc:title/></cc:Work></rdf:RDF></metadata><g id="layer1" transform="translate(4980.4587,3135.4022)"><g id="g9415" transform="matrix(0.71174377,0,0,0.71174377,-4988.4658,-3143.4093)"><circle id="circle4-61" style="fill:#ffffff;stroke:#000000;stroke-width:2.5px" r="350" cy="362.5" cx="362.5" d="m 712.5,362.5 c 0,193.29966 -156.70034,350 -350,350 -193.29966,0 -350,-156.70034 -350,-350 0,-193.29966 156.70034,-350 350,-350 193.29966,0 350,156.70034 350,350 z"/><path id="path1883-05" style="fill:#003399;fill-opacity:1;fill-rule:nonzero;stroke:none" transform="matrix(1.061206,0,0,1.061206,877.7452,-29.79549)" d="m -176.30905,369.66949 c 0,170.77689 -138.44202,309.2189 -309.2189,309.2189 -170.77689,1e-5 -309.21891,-138.44201 -309.21891,-309.2189 0,-170.77689 138.44202,-309.218905 309.21891,-309.218905 170.77688,0 309.2189,138.442015 309.2189,309.218905 z"/><path id="path1966" style="fill:#ffffff;fill-opacity:1;fill-rule:evenodd;stroke:none" d="m 111.72728,273.8474 -0.37039,-17.01776 c 0.36466,-1.14345 0.56013,-2.45609 2.11895,-2.40538 l 484.19308,-0.31067 c 21.96523,4.37158 26.31882,61.52125 37.67917,93.42335 l 0,69.19323 c -5.5339,13.00474 -11.51004,14.06868 -17.44367,16.28076 l -72.10051,-0.58146 c 0,-62.86651 -95.35874,-62.51627 -95.35874,0 l -193.62475,0 c 0,-62.63667 -93.03291,-62.65381 -93.03291,0 l -66.867411,0 c -3.169343,-0.92951 -5.329388,-3.87761 -7.268197,-7.2682 l 0.776674,-62.04048 28.311854,-81.71447 c 0.98608,-5.42796 -4.67305,-5.04137 -7.01315,-7.55892 z"/><path id="path2856-0" style="fill:#ffffff;fill-opacity:1;fill-rule:nonzero;stroke:none" d="m 536.20947,432.64648 c 0.009,20.99545 -17.0086,38.02041 -38.00404,38.02041 -20.99545,0 -38.01309,-17.02496 -38.00405,-38.02041 -0.009,-20.99545 17.0086,-38.02041 38.00405,-38.02041 20.99544,0 38.01308,17.02496 38.00404,38.02041 l 0,0 z"/><path id="path3745" style="fill:#ffffff;fill-opacity:1;fill-rule:nonzero;stroke:none" d="m 248.6529,432.86618 c 0.009,20.99545 -17.0086,38.02041 -38.00404,38.02041 -20.99545,0 -38.01309,-17.02496 -38.00405,-38.02041 -0.009,-20.99545 17.0086,-38.02041 38.00405,-38.02041 20.99544,0 38.01308,17.02496 38.00404,38.02041 l 0,0 z"/><path id="path3747" style="fill:#003399;fill-opacity:1;fill-rule:evenodd;stroke:none" d="m 518.62868,285.3242 16.70833,56.96082 c 0.98361,2.323 1.94899,4.6602 4.67136,5.63083 l 57.92675,-0.14215 c 2.31069,-2.01287 4.69268,-3.89529 5.05579,-8.05049 l -16.41113,-56.94789 c -1.34099,-4.49273 -3.18929,-5.77247 -5.11716,-6.54831 l -59.03484,0.0743 c -2.87798,1.71834 -3.88862,4.93056 -3.7991,9.02289 z"/><path id="path4634" style="fill:#003399;fill-opacity:1;fill-rule:evenodd;stroke:none" d="m 435.41796,285.21697 16.70833,56.96082 c 0.98361,2.323 1.94899,4.66019 4.67136,5.63083 l 57.92675,-0.14215 c 2.31069,-2.01287 4.69268,-3.89529 5.05579,-8.05049 l -16.41113,-56.94789 c -1.34099,-4.49273 -3.18929,-5.77247 -5.11716,-6.54831 l -59.03484,0.0743 c -2.87798,1.71834 -3.88862,4.93056 -3.7991,9.02289 z"/><path id="path4636-4" style="fill:#003399;fill-opacity:1;fill-rule:evenodd;stroke:none" d="m 352.86764,285.21697 16.70833,56.96082 c 0.98361,2.323 1.94899,4.66019 4.67136,5.63083 l 57.92676,-0.14215 c 2.31069,-2.01287 4.69267,-3.89529 5.05578,-8.05049 l -16.41112,-56.9479 c -1.34099,-4.49272 -3.1893,-5.77246 -5.11717,-6.54831 l -59.03483,0.0743 c -2.87799,1.71835 -3.88862,4.93057 -3.79911,9.0229 z"/><path id="path4638-0" style="fill:#003399;fill-opacity:1;fill-rule:evenodd;stroke:none" d="m 270.79957,285.21697 16.70833,56.96082 c 0.98361,2.323 1.94899,4.66019 4.67136,5.63083 l 57.92676,-0.14215 c 2.31068,-2.01287 4.69267,-3.89529 5.05578,-8.05049 l -16.41113,-56.9479 c -1.34098,-4.49272 -3.18929,-5.77246 -5.11716,-6.54831 l -59.03483,0.0743 c -2.87799,1.71834 -3.88862,4.93056 -3.79911,9.02289 z"/><path id="path4640" style="fill:#003399;fill-opacity:1;fill-rule:evenodd;stroke:none" d="m 201.88452,281.23514 -0.01,61.27037 c 0.98361,2.323 2.69202,4.51159 5.41439,5.48223 l 60.15584,-0.21646 c 2.31068,-2.01287 4.69267,-3.89529 5.05578,-8.05049 l -16.4109,-56.94789 c -1.34099,-4.49272 -3.1893,-5.77247 -5.11717,-6.54831 l -44.62011,-0.0743 c -2.87798,1.71834 -3.5171,1.73554 -4.46783,5.08485 z"/><path id="path4642" style="fill:#003399;fill-opacity:1;fill-rule:evenodd;stroke:none" d="m 187.47977,283.11038 -0.10571,59.27257 c -0.98361,2.323 -1.94899,4.66019 -4.67136,5.63083 l -68.1195,-0.35231 c -2.31069,-2.01287 -4.69268,-3.89529 -5.05579,-8.05049 l 20.40416,-56.73773 c 1.34099,-4.49272 3.1893,-5.77246 5.11717,-6.54831 l 48.63192,0.17938 c 2.87798,1.71835 3.88862,2.51373 3.79911,6.60606 z"/></g></g></svg>