<?xml version="1.0" encoding="UTF-8" standalone="no"?>
<svg xmlns:dc="http://purl.org/dc/elements/1.1/" xmlns:cc="http://creativecommons.org/ns#" xmlns:rdf="http://www.w3.org/1999/02/22-rdf-syntax-ns#" xmlns:svg="http://www.w3.org/2000/svg" xmlns="http://www.w3.org/2000/svg" xmlns:sodipodi="http://sodipodi.sourceforge.net/DTD/sodipodi-0.dtd" xmlns:inkscape="http://www.inkscape.org/namespaces/inkscape" id="svg2" version="1.1" viewBox="0 0 500 440"><defs id="defs4"/><metadata id="metadata7"><rdf:RDF><cc:Work rdf:about=""><dc:format>image/svg+xml</dc:format><dc:type rdf:resource="http://purl.org/dc/dcmitype/StillImage"/><dc:title/></cc:Work></rdf:RDF></metadata><g id="layer1" transform="translate(3555.2142,2222.3402)"><g transform="translate(11590.374,-1926.7894)" id="g7566"><g transform="matrix(0.99999834,0,0,1.0009179,-13143.198,-124.7379)" id="g5404"><path id="path5406" d="m -1729.657,-157.23924 c -4.4566,-7.70081 -13.1754,-12.51819 -22.7409,-12.51819 -9.7394,0 -18.4615,5.08085 -23.0023,12.928 l -222.2004,384.02127 c -4.7688,8.24191 -5.4749,18.62338 -0.3734,27.4394 4.8697,8.41541 13.6405,13.41233 22.7223,13.41233 l 445.7076,0 c 9.0817,0 17.8525,-4.99698 22.7222,-13.41233 5.1016,-8.81596 4.3958,-19.19774 -0.3734,-27.4394 l -222.4617,-384.43108 z" style="fill:#ffffff;fill-opacity:1;fill-rule:nonzero;stroke:#000000;stroke-width:1.79633701;stroke-linecap:round;stroke-linejoin:round;stroke-miterlimit:2;stroke-opacity:1;stroke-dasharray:none;stroke-dashoffset:0"/><path style="fill:#d40000;fill-opacity:1;fill-rule:nonzero;stroke:none" d="m -1752.3918,-161.75994 c 6.5396,0 12.22,3.32868 14.949,8.05523 l 222.4555,385.3022 c 3.3263,5.76134 3.7682,12.63048 0.3746,18.50829 -3.3028,5.72052 -9.1544,8.93566 -14.9303,8.93572 l -445.7164,0 c -5.7759,0 -11.6274,-3.21508 -14.9302,-8.93572 -3.3936,-5.87781 -2.9517,-12.74635 0.3747,-18.50829 l 222.1931,-384.89007 c 2.8883,-5.0026 8.6251,-8.46736 15.23,-8.46736 z" id="path5408"/><path style="fill:#ffffff;fill-opacity:1;fill-rule:nonzero;stroke:none" d="m -1752.4105,-83.717877 170.2088,294.802657 -340.3989,0 170.1901,-294.802657 z" id="path5410"/></g><g transform="translate(-17418.784,1462.0643)" id="g5412"><ellipse transform="matrix(0.67109623,0,0,0.67180701,2271.5297,-1762.143)" id="ellipse5414" style="fill:#000000;stroke-width:0" ry="30" rx="40" cy="235" cx="375" d="m 415,235 c 0,16.56854 -17.90861,30 -40,30 -22.09139,0 -40,-13.43146 -40,-30 0,-16.56854 17.90861,-30 40,-30 22.09139,0 40,13.43146 40,30 z"/><ellipse transform="matrix(0.67109623,0,0,0.67180701,2271.5297,-1762.143)" id="ellipse5416" style="fill:#000000;stroke:none" ry="15" rx="20" cy="455" cx="375" d="m 395,455 c 0,8.28427 -8.95431,15 -20,15 -11.04569,0 -20,-6.71573 -20,-15 0,-8.28427 8.95431,-15 20,-15 11.04569,0 20,6.71573 20,15 z"/><circle transform="matrix(0.67109623,0,0,0.67180701,2271.5297,-1762.143)" id="circle5418" style="fill:#000000;stroke:none" r="36" cy="520" cx="375" d="m 411,520 c 0,19.88225 -16.11775,36 -36,36 -19.88225,0 -36,-16.11775 -36,-36 0,-19.88225 16.11775,-36 36,-36 19.88225,0 36,16.11775 36,36 z"/><polygon transform="matrix(0.67109623,0,0,0.67180701,2271.5297,-1762.143)" id="polygon5420" style="fill:#000000;stroke:none" points="335,235 415,235 395,455 355,455 "/></g></g></g></svg>