<?xml version="1.0" encoding="UTF-8" standalone="no"?>
<svg xmlns:dc="http://purl.org/dc/elements/1.1/" xmlns:cc="http://creativecommons.org/ns#" xmlns:rdf="http://www.w3.org/1999/02/22-rdf-syntax-ns#" xmlns:svg="http://www.w3.org/2000/svg" xmlns="http://www.w3.org/2000/svg" xmlns:sodipodi="http://sodipodi.sourceforge.net/DTD/sodipodi-0.dtd" xmlns:inkscape="http://www.inkscape.org/namespaces/inkscape" id="svg2" version="1.1" viewBox="0 0 500 440"><defs id="defs4"/><metadata id="metadata7"><rdf:RDF><cc:Work rdf:about=""><dc:format>image/svg+xml</dc:format><dc:type rdf:resource="http://purl.org/dc/dcmitype/StillImage"/><dc:title/></cc:Work></rdf:RDF></metadata><g id="layer1" transform="translate(2985.3481,1811.9345)"><g transform="translate(8197.4161,-987.08524)" id="g7814"><g id="g4897" transform="matrix(0.99999834,0,0,1.0009179,-9180.374,-654.0364)"><path style="fill:#ffffff;fill-opacity:1;fill-rule:nonzero;stroke:#000000;stroke-width:1.79633701;stroke-linecap:round;stroke-linejoin:round;stroke-miterlimit:2;stroke-opacity:1;stroke-dasharray:none;stroke-dashoffset:0" d="m -1729.657,-157.23924 c -4.4566,-7.70081 -13.1754,-12.51819 -22.7409,-12.51819 -9.7394,0 -18.4615,5.08085 -23.0023,12.928 l -222.2004,384.02127 c -4.7688,8.24191 -5.4749,18.62338 -0.3734,27.4394 4.8697,8.41541 13.6405,13.41233 22.7223,13.41233 l 445.7076,0 c 9.0817,0 17.8525,-4.99698 22.7222,-13.41233 5.1016,-8.81596 4.3958,-19.19774 -0.3734,-27.4394 l -222.4617,-384.43108 z" id="path4899"/><path id="path4901" d="m -1752.3918,-161.75994 c 6.5396,0 12.22,3.32868 14.949,8.05523 l 222.4555,385.3022 c 3.3263,5.76134 3.7682,12.63048 0.3746,18.50829 -3.3028,5.72052 -9.1544,8.93566 -14.9303,8.93572 l -445.7164,0 c -5.7759,0 -11.6274,-3.21508 -14.9302,-8.93572 -3.3936,-5.87781 -2.9517,-12.74635 0.3747,-18.50829 l 222.1931,-384.89007 c 2.8883,-5.0026 8.6251,-8.46736 15.23,-8.46736 z" style="fill:#d40000;fill-opacity:1;fill-rule:nonzero;stroke:none"/><path id="path4903" d="m -1752.4105,-83.717877 170.2088,294.802657 -340.3989,0 170.1901,-294.802657 z" style="fill:#ffffff;fill-opacity:1;fill-rule:nonzero;stroke:none"/></g><path style="fill:#000000;fill-opacity:1;fill-rule:evenodd;stroke:none" d="m -10919.956,-623.09079 -105.86,98.0701 10.937,11.7809 -3.828,3.5888 9.532,10.2986 -13.594,0 0,-13.3413 -36.25,0 0,13.3413 -4.922,0 -19.844,33.0801 75.547,0 0,-32.0659 112.969,-104.6237 -10.547,-11.3128 -3.203,2.9648 -10.937,-11.7809 z m -0.157,9.3623 6.329,6.8657 -29.063,26.9166 -6.328,-6.7877 29.062,-26.9946 z m -33.75,31.2857 6.328,6.7876 -29.062,26.9947 -6.328,-6.7877 29.062,-26.9946 z m -33.75,31.2856 6.328,6.7877 -28.984,26.9166 -6.328,-6.8657 28.984,-26.8386 z m 136.172,38.4635 0,13.3413 -5.859,0 0,33.0801 75.547,0 -19.844,-33.0801 -4.922,0 0,-13.3413 -44.922,0 z m -202.891,3.7449 26.641,0 0,9.5964 -26.641,0 0,-9.5964 z m 207.813,0 35.313,0 0,9.5964 -35.313,0 0,-9.5964 z m -131.641,14.8237 c -11.694,0 -17.314,7.7239 -22.89,7.7239 l 0,7.0997 c 8.989,0 11.196,-7.7239 22.89,-7.7239 11.251,0 11.465,7.1022 22.5,7.6459 l 0,0.078 c 0.197,0 0.357,0.01 0.547,0 0.264,0.01 0.505,0 0.781,0 l 0,-0.078 c 7.876,-0.7371 10.49,-7.6459 21.563,-7.6459 11.224,0 11.462,7.0729 22.422,7.6459 l 0,0.078 c 0.213,0 0.419,0.01 0.625,0 0.264,0.01 0.505,0 0.781,0 l 0,-0.078 c 7.867,-0.7425 10.495,-7.6459 21.563,-7.6459 11.694,0 11.433,7.7239 23.828,7.7239 l 0,-7.0997 c -9.294,0 -12.134,-7.7239 -23.828,-7.7239 -11.328,0 -17.011,7.19 -22.422,7.6458 -8.597,-0.4747 -11.658,-7.6458 -22.969,-7.6458 -11.299,0 -16.944,7.1574 -22.344,7.6458 -8.657,-0.4344 -11.701,-7.6458 -23.047,-7.6458 z m 0,13.5753 c -11.694,0 -17.314,7.7239 -22.89,7.7239 l 0,7.0997 c 8.989,0 11.196,-7.7239 22.89,-7.7239 11.251,0 11.465,7.1022 22.5,7.6459 l 0,0.078 c 0.197,0 0.357,0.01 0.547,0 0.264,0.01 0.505,0 0.781,0 l 0,-0.078 c 7.876,-0.737 10.49,-7.6459 21.563,-7.6459 11.224,0 11.462,7.073 22.422,7.6459 l 0,0.078 c 0.213,0 0.419,0.01 0.625,0 0.264,0.01 0.505,0 0.781,0 l 0,-0.078 c 7.867,-0.7425 10.495,-7.6459 21.563,-7.6459 11.694,0 11.433,7.7239 23.828,7.7239 l 0,-7.0997 c -9.294,0 -12.134,-7.7239 -23.828,-7.7239 -11.328,0 -17.011,7.1901 -22.422,7.6459 -8.597,-0.4747 -11.658,-7.6459 -22.969,-7.6459 -11.299,0 -16.944,7.1575 -22.344,7.6459 -8.657,-0.4344 -11.701,-7.6459 -23.047,-7.6459 z" id="rect1981"/></g></g></svg>