<?xml version="1.0" encoding="UTF-8" standalone="no"?>
<svg xmlns:dc="http://purl.org/dc/elements/1.1/" xmlns:cc="http://creativecommons.org/ns#" xmlns:rdf="http://www.w3.org/1999/02/22-rdf-syntax-ns#" xmlns:svg="http://www.w3.org/2000/svg" xmlns="http://www.w3.org/2000/svg" xmlns:sodipodi="http://sodipodi.sourceforge.net/DTD/sodipodi-0.dtd" xmlns:inkscape="http://www.inkscape.org/namespaces/inkscape" id="svg2" version="1.1" viewBox="0 0 500 440"><defs id="defs4"/><metadata id="metadata7"><rdf:RDF><cc:Work rdf:about=""><dc:format>image/svg+xml</dc:format><dc:type rdf:resource="http://purl.org/dc/dcmitype/StillImage"/><dc:title/></cc:Work></rdf:RDF></metadata><g id="layer1" transform="translate(2463.2051,1798.5103)"><g transform="translate(14946.801,-973.66092)" id="g7655"><g id="g9117" transform="translate(-13317.244,3885.3794)"><g id="g9119" transform="translate(-1444.6677,-2055.0906)"><g id="g9121"><g transform="translate(2639.6087,-727.89124)" id="g9123"><g transform="matrix(0.99999834,0,0,1.0009179,-3285.3129,-1756.434)" id="g9125"><path id="path9127" d="m -1729.657,-157.23924 c -4.4566,-7.70081 -13.1754,-12.51819 -22.7409,-12.51819 -9.7394,0 -18.4615,5.08085 -23.0023,12.928 l -222.2004,384.02127 c -4.7688,8.24191 -5.4749,18.62338 -0.3734,27.4394 4.8697,8.41541 13.6405,13.41233 22.7223,13.41233 l 445.7076,0 c 9.0817,0 17.8525,-4.99698 22.7222,-13.41233 5.1016,-8.81596 4.3958,-19.19774 -0.3734,-27.4394 l -222.4617,-384.43108 z" style="fill:#ffffff;fill-opacity:1;fill-rule:nonzero;stroke:#000000;stroke-width:1.79633701;stroke-linecap:round;stroke-linejoin:round;stroke-miterlimit:2;stroke-opacity:1;stroke-dasharray:none;stroke-dashoffset:0"/><path style="fill:#d40000;fill-opacity:1;fill-rule:nonzero;stroke:none" d="m -1752.3918,-161.75994 c 6.5396,0 12.22,3.32868 14.949,8.05523 l 222.4555,385.3022 c 3.3263,5.76134 3.7682,12.63048 0.3746,18.50829 -3.3028,5.72052 -9.1544,8.93566 -14.9303,8.93572 l -445.7164,0 c -5.7759,0 -11.6274,-3.21508 -14.9302,-8.93572 -3.3936,-5.87781 -2.9517,-12.74635 0.3747,-18.50829 l 222.1931,-384.89007 c 2.8883,-5.0026 8.6251,-8.46736 15.23,-8.46736 z" id="path9129"/><path style="fill:#ffffff;fill-opacity:1;fill-rule:nonzero;stroke:none" d="m -1752.4105,-83.717877 170.2088,294.802657 -340.3989,0 170.1901,-294.802657 z" id="path9131"/></g></g></g></g></g><path d="m -17118.918,-641.24095 c -8.135,0.15176 -16.579,3.48058 -16.492,18.25753 -24.565,10.75664 -41.266,36.09012 -44.524,57.2755 -0.02,0.0919 -0.03,0.12011 -0.06,0.21073 -11.439,-4.33457 -14.539,-15.27519 -10.566,-25.21292 1.265,-3.87784 2.665,-6.73781 4.603,-10.39225 0.259,-0.58571 1.688,-1.31467 2.217,-1.31467 6.35,0.32192 13.993,-6.55989 13.993,-15.32362 0,-8.76382 -7.123,-15.8865 -15.886,-15.8865 -8.764,0 -15.784,6.74332 -15.784,15.50714 0.186,2.45047 0.979,6.1904 0.03,8.03411 -9.49,8.98763 -0.775,-1.56843 -20.258,22.9853 -19.636,24.55362 -28.854,65.99617 -28.349,83.91085 0.252,3.35668 -0.111,8.02065 0.158,11.35505 5.261,0.18541 7.359,0.30599 10.75,0.28979 -0.631,2.48895 -2.088,26.70598 -2.319,35.30315 l 22.13,-0.21071 c 8.239,-3.46012 -8.794,-6.55243 -11.355,-9.08934 1.149,-7.02458 5.498,-16.0195 6.851,-26.02946 l 7.718,0.0787 c 2.235,8.63299 5.946,18.56978 8.879,26.58274 2.007,2.92093 0.972,5.2058 2.793,8.14085 l 19.312,0 0.08,0 c 0.85,0 26.361,0.79767 28.584,-0.0522 2.23,-0.85274 1.51,-1.82532 0.87,-3.13507 -0.769,-1.75972 -10.151,-4.63277 -10.011,-5.61169 4.099,-15.38552 4.163,-28.17487 4.742,-35.8827 3.716,8.93615 6.891,17.48166 10.802,31.93092 0.569,2.73731 1.556,8.92174 2.582,12.69854 l 22.763,0.0787 c 0.891,0 2.504,-0.819 2.423,-2.21301 -0.147,-2.63067 -11.555,-5.21926 -12.673,-5.79607 -0.581,-0.27442 -0.8,-1.87622 -1.027,-3.0561 -0.845,-10.47708 -3.571,-20.95741 -5.295,-31.29866 -2.264,-9.74558 -4.041,-19.48785 -5.612,-29.74426 -0.935,-8.95909 -0.465,-20.41984 1.292,-27.37313 2.4,-8.56049 4.674,-16.25638 11.355,-24.13266 2,-1.92086 3.971,-0.46894 5.716,2.13396 7.658,11.63403 19.892,24.43742 31.352,32.58964 -0.103,0.13736 -0.249,0.22163 -0.343,0.36883 -0.676,1.06007 -1.119,2.34934 -1.423,3.92545 l 4.136,0.79037 c 0.234,-1.21296 0.548,-1.98826 0.843,-2.4501 0.04,-0.0597 0.1,-0.0275 0.132,-0.0787 2.927,2.23501 4.607,3.40417 6.324,3.84648 0,0 0.02,0.0246 0.03,0.0255 l -13.832,81.80316 4.163,0.68507 13.91,-82.3302 c 0.988,-0.315 2.006,-0.90073 3.082,-2.23938 0.688,-1.25637 2.154,-3.89112 -3.003,-6.61279 -7.701,-5.13575 -13.492,-11.77318 -20.312,-19.17968 -7.408,-8.90733 -11.665,-17.51361 -15.65,-27.24136 -1.16,-6.2652 -6.13,-11.4926 -4.557,-17.99411 0.263,-0.25471 0.565,-0.57928 0.843,-0.84308 0.958,0.21906 1.954,0.34248 2.977,0.34248 7.797,1.21362 15.728,-4.14687 15.728,-14.06848 0,-7.3426 -7.49,-14.35845 -14.832,-14.35845 z m -79.906,80.72309 c 1.154,-0.0654 2.482,0.99836 4.137,3.00339 2.97,2.36043 7.599,6.41715 12.038,5.92783 -0.121,2.61853 -0.109,5.79095 0.133,11.82911 0.621,8.32152 4.461,23.48884 4.558,33.98584 0,9.81847 -1.902,28.7077 -4.373,40.15091 -1.257,2.68384 -0.744,4.39305 -3.347,4.37343 -0.05,-0.0313 -0.116,-0.0739 -0.159,-0.10551 -3.763,-1.63563 -8.777,-3.60181 -11.432,-4.63675 -0.854,-6.25222 -3.745,-17.53693 -5.059,-25.73967 0.988,0.25091 2.41,0.0674 3.9,-0.28988 -6.022,-31.63347 -9.103,-38.49775 -3.531,-64.75764 0.998,-2.4806 1.98,-3.67546 3.135,-3.74106 z" id="path1012" style="fill:#000000;fill-opacity:1;fill-rule:evenodd;stroke:none"/></g></g></svg>