<?xml version="1.0" encoding="UTF-8" standalone="no"?>
<svg xmlns:dc="http://purl.org/dc/elements/1.1/" xmlns:cc="http://creativecommons.org/ns#" xmlns:rdf="http://www.w3.org/1999/02/22-rdf-syntax-ns#" xmlns:svg="http://www.w3.org/2000/svg" xmlns="http://www.w3.org/2000/svg" xmlns:sodipodi="http://sodipodi.sourceforge.net/DTD/sodipodi-0.dtd" xmlns:inkscape="http://www.inkscape.org/namespaces/inkscape" id="svg2" version="1.1" viewBox="0 0 500 500"><defs id="defs4"/><metadata id="metadata7"><rdf:RDF><cc:Work rdf:about=""><dc:format>image/svg+xml</dc:format><dc:type rdf:resource="http://purl.org/dc/dcmitype/StillImage"/><dc:title/></cc:Work></rdf:RDF></metadata><g id="layer1" transform="translate(3376.9608,2292.5932)"><g transform="matrix(0.68393134,0,0,0.68532282,-3378.3046,-2294.4711)" id="layer1-8"><path d="M 391.91972,14.243162 722.65773,345.2093 c 15.15005,15.15006 9.69741,34.88788 -0.78328,45.95642 l -328.7798,329.79122 c -16.84198,16.84197 -40.52027,10.3968 -51.30871,-0.39164 L 14.964338,394.29884 C -0.7041983,378.6303 -1.0447956,357.69367 14.18105,342.46782 c 0,0 327.21325,-327.833017 327.21325,-327.833017 17.30914,-15.52546173 37.29919,-13.4160973 50.52542,-0.391641 z" style="fill:#ffffff;fill-opacity:1;fill-rule:nonzero;stroke:#000000;stroke-width:2.03192091;stroke-linecap:round;stroke-linejoin:round;stroke-miterlimit:4;stroke-opacity:1;stroke-dashoffset:0" id="rect1924-8"/><rect width="293.37677" height="293.37677" x="-146.68831" y="373.03519" transform="matrix(0.707107,-0.707107,0.707107,0.707107,0,0)" style="fill:#ffcc33;fill-opacity:1;fill-rule:nonzero;stroke:#000000;stroke-width:5.34560061;stroke-linecap:round;stroke-linejoin:miter;stroke-miterlimit:4;stroke-opacity:1;stroke-dasharray:none;stroke-dashoffset:0" id="rect4591-3"/><path d="M 159.37892,514.62127 517.517,156.79813" style="fill:none;stroke:#000000;stroke-width:27;stroke-linecap:butt;stroke-linejoin:miter;stroke-miterlimit:4;stroke-opacity:1;stroke-dasharray:none" id="path8143"/><path d="M 387.72893,30.498744 705.6622,348.22179 c 14.25215,14.25215 11.45922,25.81051 1.59969,36.22306 L 386.28527,705.52327 c -15.8438,15.84379 -26.6484,10.84268 -36.79744,0.69364 L 31.203018,388.24192 c -14.739903,-14.73991 -16.122382,-26.15155 -1.798932,-40.475 0,0 320.989804,-320.510776 320.989804,-320.510776 16.28327,-14.605304 24.8927,-9.009932 37.33504,3.2426 z" style="fill:none;stroke:#000000;stroke-width:12.17423248;stroke-linecap:round;stroke-linejoin:round;stroke-miterlimit:4;stroke-opacity:1;stroke-dasharray:none;stroke-dashoffset:0" id="path2814-8"/><path d="M 187.59844,546.59512 545.73652,188.77198" style="fill:none;stroke:#000000;stroke-width:27;stroke-linecap:butt;stroke-linejoin:miter;stroke-miterlimit:4;stroke-opacity:1;stroke-dasharray:none" id="path9030"/><path d="M 219.39792,575.79873 577.536,217.97559" style="fill:none;stroke:#000000;stroke-width:27;stroke-linecap:butt;stroke-linejoin:miter;stroke-miterlimit:4;stroke-opacity:1;stroke-dasharray:none" id="path9032"/></g></g></svg>