<?xml version="1.0" encoding="UTF-8" standalone="no"?>
<svg xmlns:dc="http://purl.org/dc/elements/1.1/" xmlns:cc="http://creativecommons.org/ns#" xmlns:rdf="http://www.w3.org/1999/02/22-rdf-syntax-ns#" xmlns:svg="http://www.w3.org/2000/svg" xmlns="http://www.w3.org/2000/svg" xmlns:sodipodi="http://sodipodi.sourceforge.net/DTD/sodipodi-0.dtd" xmlns:inkscape="http://www.inkscape.org/namespaces/inkscape" id="svg2" version="1.1" viewBox="0 0 500 440"><defs id="defs4"/><metadata id="metadata7"><rdf:RDF><cc:Work rdf:about=""><dc:format>image/svg+xml</dc:format><dc:type rdf:resource="http://purl.org/dc/dcmitype/StillImage"/><dc:title/></cc:Work></rdf:RDF></metadata><g id="layer1" transform="translate(3435.5211,2390.0345)"><g transform="translate(-2165.4296,-1565.1852)" id="g7951"><g transform="translate(4017.6116,1102.3976)" id="g5605"><g transform="matrix(0.99999834,0,0,1.0009179,-3285.3129,-1756.434)" id="g5607"><path id="path5609" d="m -1729.657,-157.23924 c -4.4566,-7.70081 -13.1754,-12.51819 -22.7409,-12.51819 -9.7394,0 -18.4615,5.08085 -23.0023,12.928 l -222.2004,384.02127 c -4.7688,8.24191 -5.4749,18.62338 -0.3734,27.4394 4.8697,8.41541 13.6405,13.41233 22.7223,13.41233 l 445.7076,0 c 9.0817,0 17.8525,-4.99698 22.7222,-13.41233 5.1016,-8.81596 4.3958,-19.19774 -0.3734,-27.4394 l -222.4617,-384.43108 z" style="fill:#ffffff;fill-opacity:1;fill-rule:nonzero;stroke:#000000;stroke-width:1.79633701;stroke-linecap:round;stroke-linejoin:round;stroke-miterlimit:2;stroke-opacity:1;stroke-dasharray:none;stroke-dashoffset:0"/><path style="fill:#d40000;fill-opacity:1;fill-rule:nonzero;stroke:none" d="m -1752.3918,-161.75994 c 6.5396,0 12.22,3.32868 14.949,8.05523 l 222.4555,385.3022 c 3.3263,5.76134 3.7682,12.63048 0.3746,18.50829 -3.3028,5.72052 -9.1544,8.93566 -14.9303,8.93572 l -445.7164,0 c -5.7759,0 -11.6274,-3.21508 -14.9302,-8.93572 -3.3936,-5.87781 -2.9517,-12.74635 0.3747,-18.50829 l 222.1931,-384.89007 c 2.8883,-5.0026 8.6251,-8.46736 15.23,-8.46736 z" id="path5611"/><path style="fill:#ffffff;fill-opacity:1;fill-rule:nonzero;stroke:none" d="m -1752.4105,-83.717877 170.2088,294.802657 -340.3989,0 170.1901,-294.802657 z" id="path5613"/></g></g><path d="m -1000.7751,-655.72174 0,43.44968 c 0.054,3.30655 0.7866,6.43144 2.15488,9.17748 l 24.85248,43.30646 c 2.17643,4.36774 3.35808,9.2385 3.30412,14.34001 v 79.72637 h -33.04098 v -75.85741 c 0.054,-2.4366 -0.51,-4.79911 -1.5803,-6.8833 l -10.6306,-18.49874 c -1.0318,-1.24275 -2.5918,-2.07571 -4.3097,-2.00757 -1.7933,-0.0677 -3.3531,0.76482 -4.3096,2.00757 l -10.7745,18.49874 c -1.002,2.0841 -1.5659,4.44652 -1.5802,6.8833 v 75.85741 h -33.0411 v -79.72637 c 0.014,-5.10133 1.1971,-9.97218 3.3041,-14.34001 l 24.9964,-43.30646 c 1.293,-2.74613 2.0256,-5.87102 2.0113,-9.17748 v -43.44968 h 38.6435" id="path12-7" style="fill:#000000;fill-rule:nonzero"/></g></g></svg>