<?xml version="1.0" encoding="UTF-8" standalone="no"?>
<svg xmlns:dc="http://purl.org/dc/elements/1.1/" xmlns:cc="http://creativecommons.org/ns#" xmlns:rdf="http://www.w3.org/1999/02/22-rdf-syntax-ns#" xmlns:svg="http://www.w3.org/2000/svg" xmlns="http://www.w3.org/2000/svg" xmlns:sodipodi="http://sodipodi.sourceforge.net/DTD/sodipodi-0.dtd" xmlns:inkscape="http://www.inkscape.org/namespaces/inkscape" id="svg2" version="1.1" viewBox="0 0 500 440"><defs id="defs4"/><metadata id="metadata7"><rdf:RDF><cc:Work rdf:about=""><dc:format>image/svg+xml</dc:format><dc:type rdf:resource="http://purl.org/dc/dcmitype/StillImage"/><dc:title/></cc:Work></rdf:RDF></metadata><g id="layer1" transform="translate(3234.2981,1669.1441)"><g transform="translate(11448.222,-833.18368)" id="g7702"><g id="g5141" transform="translate(-9419.9957,1087.6896)"><g id="g5143" transform="translate(-187.04149,0)"><g id="g5145" transform="matrix(0.99999834,0,0,1.0009179,-3073.0927,-1752.8371)"><path style="fill:#ffffff;fill-opacity:1;fill-rule:nonzero;stroke:#000000;stroke-width:1.79633701;stroke-linecap:round;stroke-linejoin:round;stroke-miterlimit:2;stroke-opacity:1;stroke-dasharray:none;stroke-dashoffset:0" d="m -1729.657,-157.23924 c -4.4566,-7.70081 -13.1754,-12.51819 -22.7409,-12.51819 -9.7394,0 -18.4615,5.08085 -23.0023,12.928 l -222.2004,384.02127 c -4.7688,8.24191 -5.4749,18.62338 -0.3734,27.4394 4.8697,8.41541 13.6405,13.41233 22.7223,13.41233 l 445.7076,0 c 9.0817,0 17.8525,-4.99698 22.7222,-13.41233 5.1016,-8.81596 4.3958,-19.19774 -0.3734,-27.4394 l -222.4617,-384.43108 z" id="path5147"/><path id="path5149" d="m -1752.3918,-161.75994 c 6.5396,0 12.22,3.32868 14.949,8.05523 l 222.4555,385.3022 c 3.3263,5.76134 3.7682,12.63048 0.3746,18.50829 -3.3028,5.72052 -9.1544,8.93566 -14.9303,8.93572 l -445.7164,0 c -5.7759,0 -11.6274,-3.21508 -14.9302,-8.93572 -3.3936,-5.87781 -2.9517,-12.74635 0.3747,-18.50829 l 222.1931,-384.89007 c 2.8883,-5.0026 8.6251,-8.46736 15.23,-8.46736 z" style="fill:#d40000;fill-opacity:1;fill-rule:nonzero;stroke:none"/><path id="path5151" d="m -1752.4105,-83.717877 170.2088,294.802657 -340.3989,0 170.1901,-294.802657 z" style="fill:#ffffff;fill-opacity:1;fill-rule:nonzero;stroke:none"/></g></g></g><g id="g4074" transform="matrix(0.86034651,0,0,0.86034651,-11618.295,-305.04754)"><path style="fill:#000000;fill-rule:nonzero" id="path12-9" d="m -3203.3086,-190.27925 -1.5563,-6.01966 c 0,0 -2.6505,-9.64443 -6.4196,-15.72908 -2.2533,-3.79307 -4.2796,-5.24289 -4.2796,-5.24289 0,0 -2.0426,-1.92568 -2.3344,-2.5244 -0.4167,-0.63918 -1.8319,-2.14084 -2.3344,-2.33018 -0.5609,-0.34144 -14.9791,-15.34028 -14.9791,-15.34028 0,0 -0.984,-1.26058 -1.5563,-1.55342 -0.4896,-0.41264 -2.2614,-2.44507 -2.5289,-2.91272 -0.2626,-0.41588 -1.4136,-1.21206 -1.9453,-1.74764 -0.3534,-0.34791 -1.5044,-1.93863 -1.9454,-2.71851 -0.2674,-0.63433 -5.0481,-6.81903 -7.5867,-8.73817 0.4636,-2.96934 6.0808,-13.27868 -8.3648,-26.79724 0,0 -5.173,-13.22721 -5.6415,-18.44695 -0.097,-0.99523 -0.5398,-3.11502 -0.7781,-3.49527 -0.2918,-0.50325 -1.1785,-3.50822 -0.9726,-4.27202 0.1491,-0.8269 -0.2935,-2.59397 -0.7782,-3.30114 -0.4004,-0.52915 -6.1553,-14.31454 -6.225,-14.95241 -0.107,-0.59874 -0.1945,-1.48229 -0.5836,-1.94185 -0.3193,-0.42558 -1.2935,-2.98718 -1.3617,-4.46624 -0.1086,-1.34956 -0.6403,-4.44197 -1.3616,-5.2429 -0.6939,-0.9661 -1.7573,-4.58922 -1.1672,-7.37897 0.65,-2.6878 1.4459,-9.75748 1.3616,-10.87423 0.084,-1.00488 -1.1542,-6.65881 -1.3616,-7.18474 -0.1476,-0.35763 -3.7772,-12.19962 -3.8907,-13.20422 -0.2399,-1.11491 -2.0102,-5.53262 -2.7235,-6.408 -0.7036,-0.89324 -2.4737,-3.98562 -2.918,-4.85457 -0.2642,-0.89809 -1.5919,-3.1959 -2.5289,-4.27202 -0.8332,-1.22015 -4.552,-5.72673 -5.8359,-8.73817 -1.613,-4.01145 -3.6086,-10.46614 -3.5016,-14.56362 0.1832,-1.68936 -0.5836,-8.93239 -0.5836,-8.93239 l -136.5736,234.19438 h 233.2477"/><path style="fill:#000000;fill-rule:nonzero" id="path14" d="m -3164.5949,-269.89155 c -1.2126,0.20874 -5.3545,1.33173 -6.225,1.16509 -0.7829,-0.0696 -2.1982,0.4013 -3.6961,0.77673 -1.3357,0.56797 -3.6961,1.86418 -4.0851,2.71851 -0.5544,1.03081 -5.04,6.5682 -6.0305,7.37896 -1.1348,0.83822 -2.1966,1.8981 -2.7235,2.52439 -0.4182,0.78805 -0.89,1.61169 -1.3617,2.33018 -2.4932,3.72183 -3.7625,5.3384 -5.0578,11.84483 -0.2529,1.22171 -0.1362,3.34315 -0.5836,4.46624 -0.496,0.99679 -0.071,5.36588 0.9726,7.96151 0.4199,0.81232 2.8986,6.3498 8.365,10.68029 5.6284,4.38691 15.0709,10.86779 16.5351,11.65089 4.1711,2.24608 5.7062,2.96126 11.672,1.74764 4.3365,-0.94993 5.0449,-1.4742 9.5323,-1.16509 1.9227,0.20227 6.6125,1.48228 8.5594,-1.35931 0.8771,-1.18448 3.7091,-4.48397 6.6141,-6.6022 2.7607,-2.1231 3.7042,-3.53736 4.8633,-5.2429 3.333,-5.01965 4.7449,-5.90155 4.4742,-12.6215 -0.2042,-2.28487 -0.911,-8.52787 -0.9726,-9.3209 0.062,-0.85762 -0.5285,-4.27358 -1.1672,-5.2429 -0.7781,-1.15213 -2.9033,-6.21865 -3.307,-7.18475 -0.3032,-0.91913 -2.1918,-3.7461 -2.3344,-4.27202 -0.6144,-0.98549 -4.5991,-5.67012 -7.0032,-6.40799 -1.5887,-0.48869 -3.2422,-1.31234 -3.5016,-1.94185 -0.2123,-0.55018 -0.6841,-1.02106 -1.5562,-1.16509 -1.0165,-0.0906 -5.8554,-1.85931 -7.0032,-1.55342 -1.2126,0.16666 -2.276,-0.0696 -3.307,-0.38837 -0.8576,-0.15211 -9.0003,-1.44827 -11.672,-0.77673"/><path style="fill:#000000;fill-rule:nonzero" id="path16" d="m -3213.4191,-254.9373 c -1.0245,-0.42557 -3.0314,-1.13274 -4.2796,0.38837 -1.3488,1.54211 -4.1809,4.37074 -4.6688,5.82545 -0.4572,1.37225 -1.6374,5.14262 -0.1946,7.9615 3.1141,5.57792 5.6075,7.98899 9.9211,7.37896 1.6195,-0.30098 3.2731,-0.77187 4.0852,-0.58254 0.8397,0.0453 2.8466,-0.54372 3.6961,-1.16509 0.8024,-0.7913 3.9895,-3.14894 4.6688,-4.46624 0.5009,-1.50976 0.8543,-3.5131 -0.5836,-4.85457 -1.6308,-1.4855 -3.8728,-4.9031 -4.2796,-5.63133 -0.5382,-0.68449 -0.8916,-2.09874 -2.1399,-2.52439 -1.112,-0.28156 -6.225,-2.33018 -6.225,-2.33018"/><path style="fill:#000000;fill-rule:nonzero" id="path18-4" d="m -3233.6491,-296.69339 c -1.3309,-0.0307 -5.2265,0.44177 -6.225,1.16509 -1.125,0.68935 -1.7151,0.92557 -2.1398,2.71851 -0.5204,1.7412 -1.7006,6.10055 -1.9454,7.18475 -0.2269,1.03724 -1.1704,3.15712 -0.1945,5.43711 1.1477,2.19747 5.7516,7.38218 6.614,7.7673 0.7895,0.55665 2.6781,1.85278 4.6689,0.38836 2.0215,-1.36417 4.5001,-2.77678 5.2523,-3.30115 1.2191,-0.60035 5.6576,-4.80282 4.4743,-9.3209 -0.7409,-2.52595 -1.5676,-7.1216 -3.3071,-8.73817 -1.5643,-1.44662 -4.1613,-3.33185 -7.1977,-3.30105"/><path style="fill:#000000;fill-rule:nonzero" id="path20" d="m -3164.7879,-307.37368 c -0.3793,-0.95957 -2.0912,-2.89976 -6.0305,-2.13606 -6.8021,1.12952 -13.6482,3.53093 -17.5076,7.7673 -0.9791,1.13108 -2.396,3.60528 -2.3344,5.63132 0.1751,2.21528 -0.1799,2.68616 0,4.07782 0.2934,1.43531 0.2934,4.26393 0.3891,5.04877 -0.096,0.86412 -0.214,3.80925 2.3344,5.24291 2.6456,1.39487 3.8047,1.88845 4.8633,2.71861 2.0766,1.77676 2.4478,2.08421 5.6414,2.52438 1.4638,0.2751 10.1987,0.86412 11.2833,0.77673 1.0407,-0.14887 3.2827,-0.50163 4.2796,-2.33017 0.8916,-1.70554 2.5435,-3.47266 3.1126,-4.07782 0.6111,-0.57285 3.5632,-4.93223 2.9179,-7.57308 -0.7716,-2.77844 -2.1884,-8.19938 -2.3344,-8.93239 -0.089,-0.91589 -0.4442,-2.56482 -1.5563,-3.30114 -1.0115,-0.67803 -3.9635,-2.79949 -5.0577,-5.43711"/><path style="fill:#000000;fill-rule:nonzero" id="path22-8" d="m -3233.8421,-358.63357 c -0.6906,-0.63919 -1.2547,-1.00002 -2.1399,-0.38836 -0.7668,0.56635 -2.5369,1.39 -2.7234,1.94184 -0.2854,0.39162 -0.8754,1.09873 -1.5563,1.35931 -0.5009,0.445 -2.0345,1.27024 -2.5289,1.94184 -0.4507,0.74275 -1.3941,1.9208 -2.1398,2.5244 -0.9062,0.57444 -2.088,1.63439 -2.7235,2.52438 -0.5447,0.76056 -1.4882,2.05674 -2.3344,2.71861 -0.8057,0.5162 -0.924,1.3399 -1.5563,2.13605 -0.5479,0.61815 -1.493,1.91428 -2.7235,3.30115 -1.1298,1.20553 -3.0185,4.73968 -1.7507,8.34984 1.0926,3.69436 3.2179,9.93856 3.5016,11.45696 0.188,1.54533 1.1331,5.19759 1.7507,6.79642 0.7976,1.46445 1.3878,5.82388 4.8633,7.9615 5.4842,3.22826 17.8211,11.78877 24.5114,1.94185 3.3622,-4.91119 4.3138,-6.29154 7.5868,-8.34984 1.7248,-1.14891 8.334,-5.86267 9.3374,-6.99053 0.8852,-0.99193 1.5936,-1.581 0.7782,-3.30106 -0.8365,-1.57934 -3.4335,-6.52775 -4.0852,-9.51484 -0.7246,-4.15226 -3.0071,-15.84489 -2.918,-15.72907 -0.089,-0.60682 -0.4441,-1.04698 -0.9726,-1.3593 -0.5333,-0.39485 -4.6056,-2.60528 -5.2523,-3.30115 -0.7685,-0.54047 -6.0808,-2.7493 -7.9759,-2.71852 -2.0004,-0.0307 -2.7072,-0.29613 -3.5016,-0.38836 -0.9759,0.0922 -2.216,0.0922 -2.918,-0.58255 -0.7149,-0.73951 -1.8658,-1.68127 -2.5289,-2.33018"/><path style="fill:#000000;fill-rule:nonzero" id="path24-8" d="m -3264.7801,-352.9993 c -0.5333,0.008 -0.6273,0.20065 -1.7507,-0.38838 -1.0019,-0.47089 -2.2404,-0.2945 -2.918,-0.38836 -0.7392,0.0939 -0.6517,0.27186 -1.1672,0.97089 -0.3696,0.71361 -1.874,3.98396 -2.1398,4.66035 -0.2659,0.55991 -0.796,1.9742 0,2.71861 0.6209,0.84631 2.8337,3.05519 3.1125,3.68947 0.2513,0.6036 0.6939,2.10528 1.7508,1.16509 1.245,-1.00488 3.2811,-2.59562 3.6961,-3.10693 0.2934,-0.54857 0.9127,-2.13928 0.9726,-3.10694 -0.06,-0.97575 -0.2367,-4.77525 -0.389,-5.04878 -0.024,-0.43368 -0.2011,-1.40617 -1.1673,-1.16509"/><path style="fill:#000000;fill-rule:nonzero" id="path26-2" d="m -3262.8315,-383.88208 c -0.7943,-0.16666 -1.5109,-0.20389 -1.9453,-0.58254 -0.6274,-0.32849 -1.0214,-0.37056 -2.1399,-0.19419 -1.4979,0.13109 -4.1532,1.98551 -4.8633,2.52439 -0.4409,0.61006 -1.1493,1.2298 -1.3617,2.33018 -0.141,1.19588 -1.1152,5.96792 -1.1672,7.37896 0.052,1.23954 0.7603,3.89013 1.7508,4.85457 0.9564,0.80425 2.8158,2.83672 3.307,3.49527 0.394,0.75408 2.43,2.16841 4.2797,0.58256 1.6908,-1.41914 3.9036,-3.98075 4.4742,-4.66036 0.6695,-0.55828 1.378,-1.1764 1.7508,-1.94185 0.5122,-0.6489 0.9548,-1.26702 1.5562,-1.94184 0.6371,-0.56151 1.3456,-2.15224 1.3617,-2.7186 0.1605,-0.67155 0.1605,-1.90785 -0.1945,-2.5244 -0.1751,-0.79777 -0.2642,-1.85766 -0.9726,-2.13606 -0.8851,-0.42881 -3.6297,-2.55022 -4.0852,-3.30115 -0.6063,-0.66183 -1.4022,-1.1036 -1.7508,-1.16509"/><path style="fill:#000000;fill-rule:nonzero" id="path28-4" d="m -3274.1184,-397.27381 c -0.6144,-0.61976 -0.7619,-1.29781 -1.5563,-1.16509 -0.6225,0.0437 -1.2417,-0.13269 -1.7508,-0.38837 -0.5527,-0.0971 -1.6745,-0.15535 -2.1398,0.38837 -0.7343,0.89162 -0.804,1.45802 -2.9179,1.55342 -1.613,-0.0955 -3.8161,-0.53723 -4.0852,0.97088 -0.2626,1.32043 -0.1751,3.44031 0.7781,4.85458 0.9953,1.59064 1.9681,3.09232 2.3344,3.88368 0.5204,0.62301 0.7846,1.15214 1.7508,1.74764 0.9823,0.64243 3.3719,2.14415 4.8633,1.55342 1.3406,-0.64564 2.8466,-1.70554 3.307,-2.33018 0.4247,-0.61328 0.9565,-0.9661 1.3617,-1.35929 0.3015,-0.31395 1.7184,-3.67166 1.1672,-4.66037 -0.6873,-1.13273 -2.9018,-4.84326 -3.1125,-5.04877"/></g></g></g></svg>