<?xml version="1.0" encoding="UTF-8" standalone="no"?>
<svg xmlns:dc="http://purl.org/dc/elements/1.1/" xmlns:cc="http://creativecommons.org/ns#" xmlns:rdf="http://www.w3.org/1999/02/22-rdf-syntax-ns#" xmlns:svg="http://www.w3.org/2000/svg" xmlns="http://www.w3.org/2000/svg" xmlns:sodipodi="http://sodipodi.sourceforge.net/DTD/sodipodi-0.dtd" xmlns:inkscape="http://www.inkscape.org/namespaces/inkscape" id="svg2" version="1.1" viewBox="0 0 500 500"><defs id="defs4"/><metadata id="metadata7"><rdf:RDF><cc:Work rdf:about=""><dc:format>image/svg+xml</dc:format><dc:type rdf:resource="http://purl.org/dc/dcmitype/StillImage"/><dc:title/></cc:Work></rdf:RDF></metadata><g id="layer1" transform="translate(4148.4031,2577.4726)"><g style="overflow:visible" id="g9477" transform="matrix(0.99936376,0,0,0.99800264,-4148.4031,-2577.4726)"><g id="XMLID_1_"><g id="g9444"><path id="path9446" d="m 499.818,51.1 v 398.8 c 0,27.899 -15.996,50.6 -35.637,50.6 H 36.137 C 16.496,500.5 0.5,477.8 0.5,449.9 V 51.1 C 0.5,23.2 16.496,0.5 36.137,0.5 h 428.045 c 19.64,0 35.636,22.7 35.636,50.6 z" style="fill:#ffffff"/></g><g id="g9448"><path id="path9450" d="m 499.818,449.9 c 0,27.899 -15.996,50.6 -35.637,50.6 H 36.137 C 16.496,500.5 0.5,477.8 0.5,449.9 V 51.1 C 0.5,23.2 16.496,0.5 36.137,0.5 h 428.045 c 19.641,0 35.637,22.7 35.637,50.6 v 398.8 z" style="fill:none;stroke:#000000"/></g></g><g id="XMLID_3_"><g id="g9453"><polygon id="polygon9455" points="410.256,454.308 270.986,454.308 263.784,235.812 338.626,235.812 " style="fill:#ffffff"/><polygon id="polygon9457" points="280.427,48.516 323.055,182.052 262.422,182.148 257.166,48.516 " style="fill:#ffffff"/><polygon id="polygon9459" points="239.454,182.148 177.653,182.82 221.643,48.516 244.417,48.516 " style="fill:#ffffff"/><polygon id="polygon9461" points="229.526,453.54 89.575,454.308 160.622,236.58 236.145,236.58 " style="fill:#ffffff"/><path id="path9463-1" d="m 410.256,454.308 -71.63,-218.496 h -74.842 l 7.202,218.496 h 139.27 z M 10.159,59.076 C 10.159,32.292 25.536,10.5 44.417,10.5 h 411.484 c 18.881,0 34.258,21.792 34.258,48.576 v 382.848 c 0,26.784 -15.377,48.576 -34.258,48.576 H 44.417 c -18.881,0 -34.258,-21.792 -34.258,-48.576 V 59.076 z M 236.145,236.58 h -75.523 l -71.047,217.728 139.951,-0.768 6.619,-216.96 z m 202.627,-39.552 -376.059,-0.096 -0.292,16.608 39.903,0.288 -0.195,22.848 36.788,-0.096 v -23.328 l 222.969,0.288 v 23.424 l 36.594,0.096 v -23.808 h 40.292 v -16.224 z m -199.318,-14.88 4.963,-133.632 h -22.774 l -43.99,134.304 61.801,-0.672 z m 22.968,0 60.633,-0.096 -42.628,-133.536 h -23.261 l 5.256,133.632 z" style="fill:#003399"/><polygon id="polygon9465" points="62.714,196.932 438.772,197.028 438.772,213.252 398.48,213.252 398.48,237.06 361.887,236.964 361.887,213.54 138.918,213.252 138.918,236.58 102.13,236.676 102.325,213.828 62.422,213.54 " style="fill:#ffffff"/></g><g id="g9467"><path id="path9469" d="m 490.159,441.924 c 0,26.784 -15.377,48.576 -34.258,48.576 H 44.417 c -18.881,0 -34.258,-21.792 -34.258,-48.576 V 59.076 C 10.159,32.292 25.536,10.5 44.417,10.5 h 411.484 c 18.881,0 34.258,21.792 34.258,48.576 v 382.848 z" style="fill:none;stroke:#ffffff;stroke-width:2"/></g></g></g></g></svg>