<?xml version="1.0" encoding="UTF-8" standalone="no"?>
<svg xmlns:dc="http://purl.org/dc/elements/1.1/" xmlns:cc="http://creativecommons.org/ns#" xmlns:rdf="http://www.w3.org/1999/02/22-rdf-syntax-ns#" xmlns:svg="http://www.w3.org/2000/svg" xmlns="http://www.w3.org/2000/svg" xmlns:sodipodi="http://sodipodi.sourceforge.net/DTD/sodipodi-0.dtd" xmlns:inkscape="http://www.inkscape.org/namespaces/inkscape" id="svg2" version="1.1" viewBox="0 0 500 500"><defs id="defs4"/><metadata id="metadata7"><rdf:RDF><cc:Work rdf:about=""><dc:format>image/svg+xml</dc:format><dc:type rdf:resource="http://purl.org/dc/dcmitype/StillImage"/><dc:title/></cc:Work></rdf:RDF></metadata><g id="layer1" transform="translate(5163.6358,3399.0074)"><g id="g8825" transform="matrix(0.71174377,0,0,0.71174377,-5171.6429,-3407.0145)"><circle id="circle4-15" style="fill:#ffffff;stroke:#000000;stroke-width:2.5px" r="350" cy="362.5" cx="362.5" d="m 712.5,362.5 c 0,193.29966 -156.70034,350 -350,350 -193.29966,0 -350,-156.70034 -350,-350 0,-193.29966 156.70034,-350 350,-350 193.29966,0 350,156.70034 350,350 z"/><path id="text3785" style="font-size:124.51661682px;font-style:normal;font-variant:normal;font-weight:normal;font-stretch:normal;text-align:center;line-height:100%;writing-mode:lr-tb;text-anchor:middle;fill:#000000;fill-opacity:1;stroke:none;font-family:DIN 1451 Mittelschrift" d="m 388.03576,283.98783 0,-63.10949 12.70702,0 0,6.7487 0.24319,0 c 4.01272,-4.98547 9.48464,-7.47823 16.41577,-7.47829 4.41803,6e-5 7.92411,0.79045 10.51825,2.37116 2.59404,1.58084 5.02601,3.52641 7.29589,5.83672 4.98547,-5.47186 11.63284,-8.20782 19.94212,-8.20788 4.90438,6e-5 9.63657,1.86456 14.1966,5.59352 4.55983,3.72906 6.8398,9.16045 6.8399,16.29416 l 0,41.9514 -12.70702,0 0,-37.57386 c -9e-5,-4.2559 -1.1958,-7.57958 -3.58715,-9.97106 -2.39151,-2.39138 -5.3504,-3.5871 -8.87667,-3.58715 -3.64802,5e-5 -6.65757,1.19577 -9.02867,3.58715 -2.37123,2.39148 -3.55681,5.71516 -3.55675,9.97106 l 0,37.57386 -12.64622,0 0,-37.57386 c -5e-5,-4.2559 -1.19576,-7.57958 -3.58715,-9.97106 -2.39147,-2.39138 -5.35036,-3.5871 -8.87667,-3.58715 -3.64798,5e-5 -6.65753,1.19577 -9.02867,3.58715 -2.37119,2.39148 -3.55677,5.71516 -3.55675,9.97106 l 0,37.57386 -12.70702,0 z"/><circle id="circle6" style="fill:none;stroke:#cc0000;stroke-width:93.75" r="290" cy="362.5" cx="362.5" d="m 652.5,362.5 c 0,160.16258 -129.83742,290 -290,290 -160.16258,0 -290,-129.83742 -290,-290 0,-160.16258 129.83742,-290 290,-290 160.16258,0 290,129.83742 290,290 z"/><path id="path3725" style="fill:#000000;fill-opacity:1;fill-rule:evenodd;stroke:none" d="m 503.5953,358.21088 0,103.6978 78.99084,0.71143 c 0.89693,0.29898 -17.58772,32.30697 -18.2211,32.09584 l -75.0985,0.0958 c -1.55671,-55.08615 -79.7104,-54.89872 -81.40862,-0.31842 -11.73826,-0.0876 -13.36648,-2.75355 -13.47965,-13.56639 l 0,-41.35121 c -0.14739,-18.47947 -2.4552,-6.28095 11.2242,-41.32395 14.0753,-37.3554 10.19499,-33.90258 22.92602,-34.86666 l 75.06681,-5.17427 z m -32.51522,61.14245 0.6479,-44.0575 -41.78984,2.59162 c -7.6185,0.51038 -7.68191,0.55821 -10.36647,9.39461 l -10.69042,28.5078 c -3.59139,8.744 -3.01977,11.32058 6.803,10.04252 l 55.39583,-6.47905 z"/><path id="rect3727" style="fill:#000000;fill-opacity:1;stroke:none" d="m 520.3208,327.02695 81.23452,-0.0561 c 7.99237,70.50657 -5.92107,93.71651 -15.59797,126.07352 l -65.63655,0 0,-126.01741 z"/><circle id="circle3729" style="fill:#000000;fill-opacity:1;stroke:none" transform="matrix(0.417689,0,0,0.417689,380.0495,321.9484)" r="77" cy="412" cx="164" d="m 241,412 c 0,42.52593 -34.47407,77 -77,77 -42.52593,0 -77,-34.47407 -77,-77 0,-42.52593 34.47407,-77 77,-77 42.52593,0 77,34.47407 77,77 z"/><path id="path3756" style="fill:#000000;fill-opacity:1;fill-rule:evenodd;stroke:none" d="m 141.61171,461.96258 50.66006,0.13391 c -9.60674,7.84873 -15.6044,18.66697 -15.52601,32.86587 l -16.69618,0.0148 c -7.70807,-10.74451 -12.66549,-21.94746 -18.43787,-33.01459 z m 167.16133,0.21228 0.0796,23.29752 -26.98584,9.5525 -23.69408,-0.0151 c 0.0964,-13.50912 -5.51769,-24.87107 -15.47187,-32.85234 l 66.07219,0.0175 z"/><path id="rect3758" style="fill:#000000;fill-opacity:1;stroke:none" d="m 123.01404,327.08084 185.97467,0 0,126.01741 -170.51007,0 c -17.40079,-41.7709 -19.69313,-83.82241 -15.4646,-126.01741 z"/><circle id="circle3762" style="fill:#000000;fill-opacity:1;stroke:none" transform="matrix(0.417689,0,0,0.417689,-94.97974,322.0023)" r="77" cy="412" cx="748" d="m 825,412 c 0,42.52593 -34.47407,77 -77,77 -42.52593,0 -77,-34.47407 -77,-77 0,-42.52593 34.47407,-77 77,-77 42.52593,0 77,34.47407 77,77 z"/><path id="text3775" style="font-size:124.51661682px;font-style:normal;font-variant:normal;font-weight:normal;font-stretch:normal;text-align:center;line-height:100%;writing-mode:lr-tb;text-anchor:middle;fill:#000000;fill-opacity:1;stroke:none;font-family:DIN 1451 Mittelschrift" d="m 256.55696,221.24165 0,-25.47484 50.40248,0 0,12.70702 -29.97398,75.87731 -14.22699,0 30.03477,-75.87731 -23.52926,0 0,12.76782 -12.70702,0 z"/><path id="text3779" style="font-size:124.51661682px;font-style:normal;font-variant:normal;font-weight:normal;font-stretch:normal;text-align:center;line-height:100%;writing-mode:lr-tb;text-anchor:middle;fill:#000000;fill-opacity:1;stroke:none;font-family:DIN 1451 Mittelschrift" d="m 358.84094,257.78338 0,-37.63466 c -5e-5,-4.25587 -1.1451,-7.57955 -3.43516,-9.97106 -2.29013,-2.39135 -5.29969,-3.58707 -9.02867,-3.58714 -3.76957,7e-5 -6.78926,1.19579 -9.05907,3.58714 -2.26985,2.39151 -3.40477,5.71519 -3.40475,9.97106 l 0,37.63466 c -2e-5,4.2965 1.1349,7.63031 3.40475,10.00146 2.26981,2.37118 5.2895,3.55676 9.05907,3.55675 3.72898,1e-5 6.73854,-1.18557 9.02867,-3.55675 2.29006,-2.37115 3.43511,-5.70496 3.43516,-10.00146 l 0,0 z m -37.63467,0.72959 0,-39.09384 c 0,-8.14701 2.55356,-14.43971 7.66069,-18.87813 5.10711,-4.43825 10.94382,-6.65741 17.51015,-6.6575 6.52574,9e-5 12.35232,2.21925 17.47975,6.6575 5.12734,4.43842 7.69104,10.73112 7.69109,18.87813 l 0,39.09384 c -5e-5,8.1471 -2.56375,14.42967 -7.69109,18.84773 -5.12743,4.41807 -10.95401,6.62711 -17.47975,6.62711 -6.56633,0 -12.40304,-2.20904 -17.51015,-6.62711 -5.10713,-4.41806 -7.66069,-10.70063 -7.66069,-18.84773 l 0,0 z"/></g></g></svg>