<?xml version="1.0" encoding="UTF-8" standalone="no"?>
<svg xmlns:dc="http://purl.org/dc/elements/1.1/" xmlns:cc="http://creativecommons.org/ns#" xmlns:rdf="http://www.w3.org/1999/02/22-rdf-syntax-ns#" xmlns:svg="http://www.w3.org/2000/svg" xmlns="http://www.w3.org/2000/svg" xmlns:sodipodi="http://sodipodi.sourceforge.net/DTD/sodipodi-0.dtd" xmlns:inkscape="http://www.inkscape.org/namespaces/inkscape" id="svg2" version="1.1" viewBox="0 0 500 500"><defs id="defs4"/><metadata id="metadata7"><rdf:RDF><cc:Work rdf:about=""><dc:format>image/svg+xml</dc:format><dc:type rdf:resource="http://purl.org/dc/dcmitype/StillImage"/><dc:title/></cc:Work></rdf:RDF></metadata><g id="layer1" transform="translate(4915.2911,2739.9402)"><g style="fill:#ffffff" id="g9289" transform="matrix(0.71174377,0,0,0.71174377,-4923.2982,-2747.9473)"><circle id="circle9277" style="stroke:#000000;stroke-width:2.5" r="350" cy="362.5" cx="362.5" d="m 712.5,362.5 c 0,193.29966 -156.70034,350 -350,350 -193.29966,0 -350,-156.70034 -350,-350 0,-193.29966 156.70034,-350 350,-350 193.29966,0 350,156.70034 350,350 z"/><circle id="circle9279" style="fill:#003399" r="335" cy="362.5" cx="362.5" d="m 697.5,362.5 c 0,185.01539 -149.98461,335 -335,335 -185.01539,0 -335,-149.98461 -335,-335 0,-185.01539 149.98461,-335 335,-335 185.01539,0 335,149.98461 335,335 z"/><path id="path9281-1" d="m 149,201 52,-52 282,282 V 254 l 66,66 V 549 H 320 l -66,-66 h 177 z"/></g></g></svg>