<?xml version="1.0" encoding="UTF-8" standalone="no"?>
<svg xmlns:dc="http://purl.org/dc/elements/1.1/" xmlns:cc="http://creativecommons.org/ns#" xmlns:rdf="http://www.w3.org/1999/02/22-rdf-syntax-ns#" xmlns:svg="http://www.w3.org/2000/svg" xmlns="http://www.w3.org/2000/svg" xmlns:sodipodi="http://sodipodi.sourceforge.net/DTD/sodipodi-0.dtd" xmlns:inkscape="http://www.inkscape.org/namespaces/inkscape" id="svg2" version="1.1" viewBox="0 0 500 500"><defs id="defs4"/><metadata id="metadata7"><rdf:RDF><cc:Work rdf:about=""><dc:format>image/svg+xml</dc:format><dc:type rdf:resource="http://purl.org/dc/dcmitype/StillImage"/><dc:title/></cc:Work></rdf:RDF></metadata><g id="layer1" transform="translate(5165.0774,3653.8087)"><g id="g10222" transform="matrix(1.0605878,0,0,1.0626203,-5169.4192,-3658.8888)"><path id="path3669-09" style="fill:#ffffff;fill-opacity:1;fill-rule:evenodd;stroke:#000000;stroke-width:2;stroke-linecap:butt;stroke-linejoin:miter;stroke-miterlimit:4;stroke-opacity:1;stroke-dasharray:none" d="m 30.856274,5.7720243 420.004816,0 c 10.81582,0.7906802 23.07189,11.8437647 23.66646,24.8647647 l 0,418.806511 c 0.0497,10.31854 -11.79351,24.19224 -25.16434,24.86477 l -419.405663,0 C 20.433732,473.72489 5.5262338,458.92955 5.0927831,449.14373 L 5.691934,30.936364 C 4.6103723,24.633922 19.978002,5.6381226 30.856274,5.7720243 z"/><path id="path3661-48" style="fill:#003399;fill-opacity:1;fill-rule:evenodd;stroke:none" d="m 35.1875,16.78125 c -11.760613,-0.514916 -18.473169,7.51921 -18.03125,20.375 l 0,406.40625 c 0.04655,8.6672 3.728171,19.07043 15.6875,19.28125 l 414.4375,-0.0312 c 11.95933,-0.21085 15.6722,-10.6141 15.71875,-19.2813 l 0,-406.4375 c 0.44191,-12.855791 -6.27063,-20.88992 -18.03125,-20.375 L 35.1875,16.78125 z"/><path id="Car-8" style="fill:#ffffff;fill-rule:evenodd;stroke:none" d="M 57.218573,261.80221 C 56.295803,193.78088 52.604723,252.31086 93.602072,151.46529 123.26254,82.916666 93.2066,101.37206 246.65006,98.867403 383.22,101.63571 355.66873,81.862072 387.0429,154.62907 c 39.28364,93.19976 36.25168,44.42478 35.98803,105.19577 -1.45007,66.70308 23.20109,49.56593 -183.49939,51.80694 C 34.412973,308.86348 58.668639,326.26427 57.218573,261.80221 z m 41.524645,-65.64849 28.078572,-64.85754 c 5.2388,-11.5208 3.5674,-9.8201 15.81891,-9.88683 l 196.31076,-0.0212 c 10.62731,0.0391 9.06821,-0.65099 13.44607,9.49135 l 27.92234,64.48322 -281.576652,0.79095 z m -20.08123,122.91881 52.510002,-0.11718 c -0.16112,65.92679 5.30227,62.25036 -23.33289,62.67512 -34.09855,-0.13182 -28.708403,3.31026 -29.177112,-62.55794 z m 270.415522,0.46871 52.59789,0 c -0.35153,66.02931 4.45273,61.51799 -25.31026,61.69376 -30.77365,-0.41012 -26.86286,4.45273 -27.28763,-61.69376 z"/><circle id="LeftLamp-24" style="fill:#003399;fill-opacity:1;stroke:none" transform="matrix(0.385586,0,0,0.385586,46.93628,85.8168)" r="66.5" cy="412" cx="150" d="m 216.5,412 c 0,36.72694 -29.77306,66.5 -66.5,66.5 -36.72694,0 -66.5,-29.77306 -66.5,-66.5 0,-36.72694 29.77306,-66.5 66.5,-66.5 36.72694,0 66.5,29.77306 66.5,66.5 z"/><circle id="RightLamp-5" style="fill:#003399;fill-opacity:1;stroke:none" transform="matrix(0.385586,0,0,0.385586,46.93628,85.8168)" r="66.5" cy="412" cx="850" d="m 916.5,412 c 0,36.72694 -29.77306,66.5 -66.5,66.5 -36.72694,0 -66.5,-29.77306 -66.5,-66.5 0,-36.72694 29.77306,-66.5 66.5,-66.5 36.72694,0 66.5,29.77306 66.5,66.5 z"/></g></g></svg>