<?xml version="1.0" encoding="UTF-8" standalone="no"?>
<svg xmlns:dc="http://purl.org/dc/elements/1.1/" xmlns:cc="http://creativecommons.org/ns#" xmlns:rdf="http://www.w3.org/1999/02/22-rdf-syntax-ns#" xmlns:svg="http://www.w3.org/2000/svg" xmlns="http://www.w3.org/2000/svg" xmlns:sodipodi="http://sodipodi.sourceforge.net/DTD/sodipodi-0.dtd" xmlns:inkscape="http://www.inkscape.org/namespaces/inkscape" id="svg2" version="1.1" viewBox="0 0 500 440"><defs id="defs4"/><metadata id="metadata7"><rdf:RDF><cc:Work rdf:about=""><dc:format>image/svg+xml</dc:format><dc:type rdf:resource="http://purl.org/dc/dcmitype/StillImage"/><dc:title/></cc:Work></rdf:RDF></metadata><g id="layer1" transform="translate(818.53586,-90.758755)"><g transform="translate(9817.1245,915.60805)" id="g7796"><g id="g4826" transform="matrix(0.99999834,0,0,1.0009179,-8633.2702,-654.0364)"><path style="fill:#ffffff;fill-opacity:1;fill-rule:nonzero;stroke:#000000;stroke-width:1.79633701;stroke-linecap:round;stroke-linejoin:round;stroke-miterlimit:2;stroke-opacity:1;stroke-dasharray:none;stroke-dashoffset:0" d="m -1729.657,-157.23924 c -4.4566,-7.70081 -13.1754,-12.51819 -22.7409,-12.51819 -9.7394,0 -18.4615,5.08085 -23.0023,12.928 l -222.2004,384.02127 c -4.7688,8.24191 -5.4749,18.62338 -0.3734,27.4394 4.8697,8.41541 13.6405,13.41233 22.7223,13.41233 l 445.7076,0 c 9.0817,0 17.8525,-4.99698 22.7222,-13.41233 5.1016,-8.81596 4.3958,-19.19774 -0.3734,-27.4394 l -222.4617,-384.43108 z" id="path4828"/><path id="path4830" d="m -1752.3918,-161.75994 c 6.5396,0 12.22,3.32868 14.949,8.05523 l 222.4555,385.3022 c 3.3263,5.76134 3.7682,12.63048 0.3746,18.50829 -3.3028,5.72052 -9.1544,8.93566 -14.9303,8.93572 l -445.7164,0 c -5.7759,0 -11.6274,-3.21508 -14.9302,-8.93572 -3.3936,-5.87781 -2.9517,-12.74635 0.3747,-18.50829 l 222.1931,-384.89007 c 2.8883,-5.0026 8.6251,-8.46736 15.23,-8.46736 z" style="fill:#d40000;fill-opacity:1;fill-rule:nonzero;stroke:none"/><path id="path4832" d="m -1752.4105,-83.717877 170.2088,294.802657 -340.3989,0 170.1901,-294.802657 z" style="fill:#ffffff;fill-opacity:1;fill-rule:nonzero;stroke:none"/></g><g id="g3995" transform="matrix(0.84734348,0,0,0.84734348,-7830.1403,-265.92372)" style="fill:#000000;fill-opacity:1"><path style="fill:#000000;fill-opacity:1;fill-rule:evenodd;stroke:none" id="path24" d="m -3080.9351,-295.05576 70.324,38.47635 -63.5513,-47.81795"/><path style="fill:#000000;fill-opacity:1;fill-rule:evenodd;stroke:none" id="path26" d="m -3114.3967,-262.93076 108.2903,10.46455 -106.787,-21.67082"/><path style="fill:#000000;fill-opacity:1;fill-rule:evenodd;stroke:none" id="path28" d="m -3062.5091,-386.96228 c 1.5033,-1.86208 0,-1.11257 4.5125,-0.73912 0.3706,5.60184 1.1353,2.24074 2.6386,6.71702 -0.3758,0 0,0 -0.3758,0.7495 -3.3955,2.24074 -3.3955,3.73976 -7.5296,3.73976 0,-0.36568 -0.3706,-0.36568 -0.3706,-0.36568 -1.1275,-1.13334 -2.2602,-1.88543 -3.385,-2.24851 0,0 0,-0.37605 -0.3785,-0.74951 0,-1.49902 0.3785,-3.73975 0.3785,-5.97789 l 0,-0.74951 c 1.1248,0 2.2575,0 3.385,-0.37606"/><path style="fill:#000000;fill-opacity:1;fill-rule:evenodd;stroke:none" id="path30" d="m -3092.5831,-382.09956 c 2.6308,-3.73715 1.1249,-2.23815 6.008,-2.6116 0,0 0.3785,0 0.7569,0.37345 2.6282,1.11518 1.5033,0 2.6282,3.35333 -0.3759,1.12556 -0.3759,2.61419 -1.1249,4.48926 0,1.12296 0,2.24851 -0.3784,3.3637 l 0,0.37345 c -0.7543,0 -0.7543,0 -0.7543,0.74951 -1.4981,0 -2.6308,0 -4.5047,0.37604 l 0,-0.37604 c -4.5125,-4.10284 -2.2602,-2.98765 -6.0158,-5.23618 l -0.7491,0 c 0.7491,-1.12555 0.7491,-2.24072 0.7491,-3.36369 l 0.3758,0 c 0.7516,-0.37605 1.8765,-0.37605 2.2549,-1.11518"/><path style="fill:#000000;fill-opacity:1;fill-rule:evenodd;stroke:none" id="path32" d="m -3089.2033,-356.69936 c 1.8792,-4.47888 0.3759,-3.72937 4.8884,-3.72937 l 0,0.37346 c 6.7727,1.86468 3.7557,0.74172 5.6478,5.60443 2.6308,2.98764 2.2524,1.11259 1.5033,5.22579 -3.7713,2.24074 -3.7713,6.72739 -9.0328,4.86271 -2.2524,-0.38382 -7.1408,-3.37148 -7.5192,-5.61221 0.3784,-5.60185 -1.1249,-3.3637 3.7635,-5.60185"/><path style="fill:#000000;fill-opacity:1;fill-rule:evenodd;stroke:none" id="path34" d="m -3091.4582,-321.20287 c -0.7543,-0.37605 -0.7543,-1.12556 -1.1249,-1.49901 l 0,-0.74952 c 1.1249,-3.35332 0,-1.48863 5.6374,-2.61418 2.2524,-1.86469 1.1275,-1.11518 4.8832,-1.11518 7.1511,2.61419 7.9001,1.49123 7.1511,8.95516 1.1275,1.12556 3.0092,3.3637 0.749,5.61481 -1.8739,1.49901 -7.9001,5.9753 -10.5309,4.8627 -2.2524,-1.12555 -9.7715,-3.36369 -8.6441,-6.73777 3.0067,-3.36369 2.2576,-1.48863 2.2576,-5.60183"/><path style="fill:#000000;fill-opacity:1;fill-rule:evenodd;stroke:none" id="path36" d="m -3128.3127,-323.4514 c 2.6464,-3.72936 1.1327,-2.61418 4.8988,-3.72936 l 0,0.37604 c 0.3784,0 5.6374,0 6.0158,1.86469 2.2523,3.36111 5.2616,5.9753 4.5047,10.45417 -2.6282,1.87507 -1.1249,1.13334 -3.7557,2.23815 -6.7648,6.73777 -4.5099,5.23877 -10.1603,0.75988 -3.3773,0 -1.5033,0.37605 -3.7557,-1.86469 -1.8817,-5.61221 -1.8817,-2.62197 0.3784,-8.2264"/><path style="fill:#000000;fill-opacity:1;fill-rule:evenodd;stroke:none" id="path38" d="m -3122.2865,-287.95491 c 4.1341,2.24073 2.2524,0.73913 4.51,5.59406 -0.3759,0.74951 -0.3759,1.12296 -0.3759,1.87247 -0.749,0 -0.749,0.38642 -0.749,0.38642 0,3.72679 0,5.60185 -2.6308,7.83999 -2.2576,1.48864 -4.1341,-1.12296 -5.6478,-1.12296 -4.5126,-0.7521 -9.7715,1.12296 -7.5192,-5.60444 0.7491,-2.24852 1.8818,-5.98566 3.0066,-8.96554 0.3785,-1.49901 3.7583,-2.62197 5.64,-1.49901 1.5138,1.12556 0.3863,0.37605 3.3877,1.12556"/><path style="fill:#000000;fill-opacity:1;fill-rule:evenodd;stroke:none" id="path40" d="m -3162.8993,-265.54495 c 2.6308,-3.35333 2.6308,-4.47888 4.8884,-0.73913 l 0,0.73913 c 1.5059,0 2.6308,-0.73913 3.7583,-0.73913 0,2.98765 2.2523,6.34097 1.1248,8.57911 -1.5033,3.73975 -3.3772,2.25112 -6.3864,1.50161 -3.0066,0 -4.1341,2.6116 -6.7649,1.12296 -3.7556,-2.62457 0,-6.7274 2.255,-8.21603 0,-0.74951 0,-0.74951 0.3758,-1.12296"/><path style="fill:#000000;fill-opacity:1;fill-rule:evenodd;stroke:none" id="path42" d="m -2972.6447,-357.81454 c 9.3434,0 16.9226,7.36539 16.9226,16.44245 0,9.06668 -7.5792,16.43206 -16.9226,16.43206 -9.3331,0 -16.9253,-7.36538 -16.9253,-16.43206 0,-9.07706 7.5922,-16.44245 16.9253,-16.44245 m 70.3083,17.19195 c -10.1421,-0.37605 -36.4604,1.11258 -42.4867,2.23814 l 0,7.46653 48.513,1.12555 5.6374,9.70468 -24.066,-0.37606 -31.2119,0 0,8.97592 60.161,0 4.8884,8.59209 -36.0898,0 -28.9596,0.7495 0,7.83998 c 15.422,1.48864 51.8928,2.98765 71.4463,2.98765 l 10.5283,17.93368 c -27.8242,1.12296 -68.0586,-1.49124 -95.5017,-4.47888 l 0,37.72684 c -9.4114,5.97789 -23.317,5.60184 -33.4695,0 l -2.6308,-43.7151 c -4.5125,-3.36371 -7.1433,-9.339 -7.1433,-16.80554 l 0,-49.31694 c 0,-12.69233 8.6466,-16.43207 13.916,-18.67022 1.5059,-6.35134 8.2682,-38.47634 10.5232,-53.43016 2.2575,-14.93046 9.393,-20.91872 14.2918,-26.14711 l 11.2774,19.43269 c -3.385,2.98765 -9.3956,6.34097 -12.0316,14.93046 -2.2628,8.97591 -3.3903,13.45479 -4.1446,16.06899 -1.1248,3.36369 -2.2523,16.43206 11.2879,16.43206 13.1565,0 17.2985,-1.11517 31.2067,-0.74172"/><path style="fill:#000000;fill-opacity:1;fill-rule:evenodd;stroke:none" id="path44" d="m -3065.5157,-351.09752 61.6695,97.1323 -51.5118,-101.98463 -10.1577,4.85233"/></g></g></g></svg>