<?xml version="1.0" encoding="UTF-8" standalone="no"?>
<svg xmlns:dc="http://purl.org/dc/elements/1.1/" xmlns:cc="http://creativecommons.org/ns#" xmlns:rdf="http://www.w3.org/1999/02/22-rdf-syntax-ns#" xmlns:svg="http://www.w3.org/2000/svg" xmlns="http://www.w3.org/2000/svg" xmlns:sodipodi="http://sodipodi.sourceforge.net/DTD/sodipodi-0.dtd" xmlns:inkscape="http://www.inkscape.org/namespaces/inkscape" id="svg2" version="1.1" viewBox="0 0 500 440"><defs id="defs4"/><metadata id="metadata7"><rdf:RDF><cc:Work rdf:about=""><dc:format>image/svg+xml</dc:format><dc:type rdf:resource="http://purl.org/dc/dcmitype/StillImage"/><dc:title/></cc:Work></rdf:RDF></metadata><g id="layer1" transform="translate(4446.7187,3565.4179)"><g transform="translate(4412.1952,-2226.9858)" id="g4464"><g id="g4448"><g transform="translate(-3596.3895,585.21791)" id="g4450"><g transform="translate(-187.04149,0)" id="g4452"><g transform="matrix(0.99999834,0,0,1.0009179,-3073.0927,-1752.8371)" id="g4454"><path id="path4456" d="m -1729.657,-157.23924 c -4.4566,-7.70081 -13.1754,-12.51819 -22.7409,-12.51819 -9.7394,0 -18.4615,5.08085 -23.0023,12.928 l -222.2004,384.02127 c -4.7688,8.24191 -5.4749,18.62338 -0.3734,27.4394 4.8697,8.41541 13.6405,13.41233 22.7223,13.41233 l 445.7076,0 c 9.0817,0 17.8525,-4.99698 22.7222,-13.41233 5.1016,-8.81596 4.3958,-19.19774 -0.3734,-27.4394 l -222.4617,-384.43108 z" style="fill:#ffffff;fill-opacity:1;fill-rule:nonzero;stroke:#000000;stroke-width:1.79633701;stroke-linecap:round;stroke-linejoin:round;stroke-miterlimit:2;stroke-opacity:1;stroke-dasharray:none;stroke-dashoffset:0"/><path style="fill:#d40000;fill-opacity:1;fill-rule:nonzero;stroke:none" d="m -1752.3918,-161.75994 c 6.5396,0 12.22,3.32868 14.949,8.05523 l 222.4555,385.3022 c 3.3263,5.76134 3.7682,12.63048 0.3746,18.50829 -3.3028,5.72052 -9.1544,8.93566 -14.9303,8.93572 l -445.7164,0 c -5.7759,0 -11.6274,-3.21508 -14.9302,-8.93572 -3.3936,-5.87781 -2.9517,-12.74635 0.3747,-18.50829 l 222.1931,-384.89007 c 2.8883,-5.0026 8.6251,-8.46736 15.23,-8.46736 z" id="path4458"/><path style="fill:#ffffff;fill-opacity:1;fill-rule:nonzero;stroke:none" d="m -1752.4105,-83.717877 170.2088,294.802657 -340.3989,0 170.1901,-294.802657 z" id="path4460"/></g></g></g></g><path id="path4462" d="m -8610.8835,-1164.6 32.0313,29.6473 0,155.64821 -32.0313,-31.20761 -32.0314,31.20761 0,-53.28701 -31.9532,52.58491 -25.4688,-15.3698 57.422,-94.32521 0,-45.2511 32.0314,-29.6473 z" style="fill:#000000;fill-opacity:1;fill-rule:evenodd;stroke:none"/></g></g></svg>