<?xml version="1.0" encoding="UTF-8" standalone="no"?>
<svg xmlns:dc="http://purl.org/dc/elements/1.1/" xmlns:cc="http://creativecommons.org/ns#" xmlns:rdf="http://www.w3.org/1999/02/22-rdf-syntax-ns#" xmlns:svg="http://www.w3.org/2000/svg" xmlns="http://www.w3.org/2000/svg" xmlns:sodipodi="http://sodipodi.sourceforge.net/DTD/sodipodi-0.dtd" xmlns:inkscape="http://www.inkscape.org/namespaces/inkscape" id="svg2" version="1.1" viewBox="0 0 500 500"><defs id="defs4"/><metadata id="metadata7"><rdf:RDF><cc:Work rdf:about=""><dc:format>image/svg+xml</dc:format><dc:type rdf:resource="http://purl.org/dc/dcmitype/StillImage"/><dc:title/></cc:Work></rdf:RDF></metadata><g id="layer1" transform="translate(5151.4178,3637.5041)"><g id="g7460" transform="translate(-38.145176,-4748.7838)"><g transform="translate(-1607.7375,3885.3656)" id="g7390"><g id="g5996" transform="matrix(0.71174377,0,0,0.71174377,-3513.5422,-2782.093)"><circle id="circle5986" cy="362.5" cx="362.5" r="350" style="fill:#ffffff;stroke:#000000;stroke-width:2.5px" d="m 712.5,362.5 c 0,193.29966 -156.70034,350 -350,350 -193.29966,0 -350,-156.70034 -350,-350 0,-193.29966 156.70034,-350 350,-350 193.29966,0 350,156.70034 350,350 z"/><circle id="circle5988" style="fill:none;stroke:#cc0000;stroke-width:83.75" r="295" cy="362.5" cx="362.5" d="m 657.5,362.5 c 0,162.924 -132.076,295 -295,295 -162.924,0 -295,-132.076 -295,-295 0,-162.924 132.076,-295 295,-295 162.924,0 295,132.076 295,295 z"/></g></g><g transform="matrix(0.67252002,0,0,0.67252002,-5081.523,899.3321)" id="g5552"><path id="path5237" d="m 111.22898,770.44765 426.59445,0" style="fill:none;stroke:#000000;stroke-width:7.01195002;stroke-linecap:butt;stroke-linejoin:miter;stroke-miterlimit:4;stroke-opacity:1;stroke-dasharray:none"/><g transform="translate(10.111145,0)" id="g6340"><path style="fill:#000000;fill-opacity:1;fill-rule:evenodd;stroke:none" d="m 451.8378,696.90599 c -19.80257,0 -35.86303,16.06047 -35.86304,35.86306 0,19.80259 16.06046,35.86303 35.86304,35.86304 19.8026,0 35.86305,-16.06045 35.86306,-35.86304 0,-19.80259 -16.06046,-35.86307 -35.86306,-35.86306 z m 0,22.4046 c 7.42599,10e-6 13.45846,6.03249 13.45846,13.45846 -1e-5,7.42597 -6.03247,13.45844 -13.45846,13.45844 -7.42596,-10e-6 -13.45845,-6.03247 -13.45845,-13.45844 2e-5,-7.42597 6.03249,-13.45846 13.45845,-13.45846 z" id="path5205"/><path style="fill:#000000;fill-opacity:1;fill-rule:evenodd;stroke:none" d="m 153.8428,696.90599 c -19.80257,0 -35.86303,16.06047 -35.86304,35.86306 0,19.80259 16.06046,35.86303 35.86304,35.86304 19.8026,0 35.86305,-16.06045 35.86306,-35.86304 0,-19.80259 -16.06046,-35.86307 -35.86306,-35.86306 z m 0,22.4046 c 7.42599,10e-6 13.45846,6.03249 13.45846,13.45846 -1e-5,7.42597 -6.03247,13.45844 -13.45846,13.45844 -7.42596,-10e-6 -13.45845,-6.03247 -13.45845,-13.45844 2e-5,-7.42597 6.03249,-13.45846 13.45845,-13.45846 z" id="path6215"/><path style="fill:#000000;fill-rule:evenodd;stroke:none" d="m 172.75,290.9375 c -5.00567,0 -9.70524,5.29364 -11.125,10.09375 l -21.21875,71.71875 0,36.375 c 0,5.2597 4.83405,12.09374 10.09375,12.09375 l 9.21875,0 c 1.3753,-21.62979 19.36766,-38.75001 41.34375,-38.75 21.97611,-2e-5 39.9372,17.12021 41.3125,38.75 l 215.34375,0 c 1.37531,-21.62979 19.36768,-38.75001 41.34375,-38.75 21.97611,-2e-5 39.93719,17.12021 41.3125,38.75 l 33.40625,0 c 4.53007,0 9.06248,-5.56369 9.0625,-10.09375 l 0,-110.09375 c 0,-4.53007 -4.53245,-10.09375 -9.0625,-10.09375 l -401.03125,0 z m 332.3125,9 52.65625,0 c 2.76131,2.8e-4 4.99972,2.23869 5,5 l 0,45.21875 c -2.8e-4,2.76131 -2.23869,4.99972 -5,5 l -52.65625,0 c -2.76131,-2.8e-4 -4.99973,-2.23869 -5,-5 l 0,-45.21875 c 2.7e-4,-2.76131 2.23869,-4.99972 5,-5 z m -329.625,0.0312 33.71875,0 c 2.76131,0 5.58721,2.30185 5,5 l -13.125,60.34375 c -0.58721,2.69815 -2.23868,5.00001 -5,5 l -41.15625,0 c -2.76131,0 -4.31861,-2.35332 -3.53125,-5 L 169.3125,304.9687 c 0.7349,-2.47033 3.17933,-5 6.125,-5 z m 54.15625,0 38.15625,0 c 2.76131,2.8e-4 4.99973,2.23869 5,5 l 0,45.1875 c -2.8e-4,2.76131 -2.23868,4.99972 -5,5 l -50.15625,0 c -2.76131,0 -4.06032,-2.29614 -3.5,-5 l 9.375,-45.1875 c 0.52299,-2.52371 3.17934,-5 6.125,-5 z m 57.5,0 c 0.16656,-0.008 0.33345,-0.008 0.5,0 l 52.65625,0 c 2.76131,2.8e-4 4.99973,2.23869 5,5 l 0,45.1875 c -2.8e-4,2.76131 -2.23868,4.99972 -5,5 l -52.65625,0 c -2.76131,-2.8e-4 -4.99971,-2.23869 -5,-5 l 0,-45.1875 c -0.0127,-2.5773 1.93562,-4.74207 4.5,-5 z m 72.5,0 c 0.16656,-0.008 0.33345,-0.008 0.5,0 l 52.65625,0 c 2.76131,2.8e-4 4.99973,2.23869 5,5 l 0,45.1875 c -2.8e-4,2.76131 -2.23868,4.99972 -5,5 l -52.65625,0 c -2.76131,-2.8e-4 -4.99971,-2.23869 -5,-5 l 0,-45.1875 c -0.0127,-2.5773 1.93562,-4.74207 4.5,-5 z m 72.5,0 c 0.16656,-0.008 0.33345,-0.008 0.5,0 l 52.65625,0 c 2.76131,2.8e-4 4.99973,2.23869 5,5 l 0,45.1875 c -2.8e-4,2.76131 -2.23868,4.99972 -5,5 l -52.65625,0 c -2.76131,-2.8e-4 -4.99971,-2.23869 -5,-5 l 0,-45.1875 c -0.0127,-2.5773 1.93562,-4.74207 4.5,-5 z" id="path6245" transform="translate(-47.209943,308.88989)"/></g></g></g></g></svg>