<?xml version="1.0" encoding="UTF-8" standalone="no"?>
<svg xmlns:dc="http://purl.org/dc/elements/1.1/" xmlns:cc="http://creativecommons.org/ns#" xmlns:rdf="http://www.w3.org/1999/02/22-rdf-syntax-ns#" xmlns:svg="http://www.w3.org/2000/svg" xmlns="http://www.w3.org/2000/svg" xmlns:sodipodi="http://sodipodi.sourceforge.net/DTD/sodipodi-0.dtd" xmlns:inkscape="http://www.inkscape.org/namespaces/inkscape" id="svg2" version="1.1" viewBox="0 0 500 500"><defs id="defs4"/><metadata id="metadata7"><rdf:RDF><cc:Work rdf:about=""><dc:format>image/svg+xml</dc:format><dc:type rdf:resource="http://purl.org/dc/dcmitype/StillImage"/><dc:title/></cc:Work></rdf:RDF></metadata><g id="layer1" transform="translate(5126.8543,3468.1136)"><g id="g7827" transform="matrix(0.71174377,0,0,0.71174377,-5134.8614,-3476.1207)"><circle id="circle4-4" style="fill:#ffffff;fill-opacity:1;stroke:#000000;stroke-width:2.5px" r="350" cy="362.5" cx="362.5" d="m 712.5,362.5 c 0,193.29966 -156.70034,350 -350,350 -193.29966,0 -350,-156.70034 -350,-350 0,-193.29966 156.70034,-350 350,-350 193.29966,0 350,156.70034 350,350 z"/><circle id="circle6-8" style="fill:none;stroke:#cc0000;stroke-width:83.75" r="295" cy="362.5" cx="362.5" d="m 657.5,362.5 c 0,162.924 -132.076,295 -295,295 -162.924,0 -295,-132.076 -295,-295 0,-162.924 132.076,-295 295,-295 162.924,0 295,132.076 295,295 z"/><g id="layer1-53" transform="matrix(0.615398,0,0,0.615398,153.3219,243.0239)"><path id="path15475" style="fill:none;stroke:#000000;stroke-width:39.38558578;stroke-linecap:round;stroke-linejoin:round;stroke-miterlimit:4;stroke-opacity:1;stroke-dasharray:none;stroke-dashoffset:0" transform="matrix(0.74724,0,0,0.74724,122.5869,48.79482)" d="m 136.75462,282.03583 c 0,75.0306 -60.824319,135.85492 -135.85492,135.85492 -75.030601,0 -135.85492,-60.82432 -135.85492,-135.85492 0,-75.0306 60.824319,-135.85492 135.85492,-135.85492 75.030601,0 135.85492,60.82432 135.85492,135.85492 z"/><path id="path12814" style="fill:#000000;fill-opacity:1;fill-rule:evenodd;stroke:none" d="m 648.90867,96.718727 -213.12196,0 c -8.03892,3.120006 -13.78672,8.225643 -9.22469,22.266473 l 55.03001,35.62636 c 23.50602,-17.62897 47.8773,-20.5485 72.20699,-24.17503 l 95.74584,-0.31809 -0.63619,-33.399713 z"/><path id="path13701" style="fill:#000000;fill-opacity:1;fill-rule:evenodd;stroke:none" d="M 582.93177,285.852 361.08955,285.58848 C 314.75731,284.17925 288.28246,245.79634 259.51124,204.2434 209.17953,131.55162 201.92686,130.76936 191.60083,97.014213 l 73.87464,0.07718 c 4.92242,1.499345 9.84484,2.23425 14.76726,8.330677 l 44.46824,63.29689 c 3.70559,15.6799 0.63128,28.34319 -3.25536,41.77529 -4.48774,15.5095 13.34697,43.13968 41.16983,42.01262 L 583.4588,239.59683 582.93177,285.852 z"/><path id="path14588" style="fill:#000000;fill-opacity:1;fill-rule:evenodd;stroke:none" d="m 108.60035,251.76407 c 1.7994,-5.39821 85.73516,-209.948519 85.73516,-209.948519 10.19898,-18.28919 24.50441,-28.3655 43.18566,-29.690147 l 57.5809,0 -0.31809,33.815985 -55.51798,0 c -6.78582,-0.640172 -11.88817,3.638056 -16.14005,15.667593 L 139.45372,265.8412 c -8.13451,18.99988 -39.054,12.31699 -30.85337,-14.07713 z"/><path id="path17247" style="fill:none;stroke:#000000;stroke-width:39.38558578;stroke-linecap:round;stroke-linejoin:round;stroke-miterlimit:4;stroke-opacity:1;stroke-dasharray:none;stroke-dashoffset:0" transform="matrix(0.74724,0,0,0.74724,555.8824,49.18351)" d="m 136.75462,282.03583 c 0,75.0306 -60.824319,135.85492 -135.85492,135.85492 -75.030601,0 -135.85492,-60.82432 -135.85492,-135.85492 0,-75.0306 60.824319,-135.85492 135.85492,-135.85492 75.030601,0 135.85492,60.82432 135.85492,135.85492 z"/></g></g></g></svg>