<?xml version="1.0" encoding="UTF-8" standalone="no"?>
<svg xmlns:dc="http://purl.org/dc/elements/1.1/" xmlns:cc="http://creativecommons.org/ns#" xmlns:rdf="http://www.w3.org/1999/02/22-rdf-syntax-ns#" xmlns:svg="http://www.w3.org/2000/svg" xmlns="http://www.w3.org/2000/svg" xmlns:sodipodi="http://sodipodi.sourceforge.net/DTD/sodipodi-0.dtd" xmlns:inkscape="http://www.inkscape.org/namespaces/inkscape" id="svg2" version="1.1" viewBox="0 0 500 500"><defs id="defs4"/><metadata id="metadata7"><rdf:RDF><cc:Work rdf:about=""><dc:format>image/svg+xml</dc:format><dc:type rdf:resource="http://purl.org/dc/dcmitype/StillImage"/><dc:title/></cc:Work></rdf:RDF></metadata><g id="layer1" transform="translate(5197.5141,3647.9717)"><g id="g8444" transform="matrix(0.71174377,0,0,0.71174377,302.46836,-1378.3507)"><g id="g7320" transform="translate(-7738.7254,-3200.0675)"><circle d="m 712.5,362.5 c 0,193.29966 -156.70034,350 -350,350 -193.29966,0 -350,-156.70034 -350,-350 0,-193.29966 156.70034,-350 350,-350 193.29966,0 350,156.70034 350,350 z" style="fill:#ffffff;stroke:#000000;stroke-width:2.5px" r="350" cx="362.5" cy="362.5" id="circle8429"/><circle d="m 652.5,362.5 c 0,160.16258 -129.83742,290 -290,290 -160.16258,0 -290,-129.83742 -290,-290 0,-160.16258 129.83742,-290 290,-290 160.16258,0 290,129.83742 290,290 z" cx="362.5" cy="362.5" r="290" style="fill:none;stroke:#cc0000;stroke-width:93.75" id="circle8431"/><g id="PedestrianSymbol" transform="matrix(0.594656,0,0,0.594656,244.0817,120.6377)"><circle d="m 244,105 c 0,30.92795 -25.07205,56 -56,56 -30.92795,0 -56,-25.07205 -56,-56 0,-30.927946 25.07205,-56 56,-56 30.92795,0 56,25.072054 56,56 z" r="56" cx="188" cy="105" style="fill:#000000;stroke:none" id="circle8434"/><path style="fill:#000000;stroke:none" d="M 22,427 C 173.66667,190.33333 159.33333,183.66667 216,182 c 33,1 34,10 90,54 69,50.66667 64,51.33333 63,107 -0.33333,67 4.33333,62 -49,87 l 0,-113 -47,-42 0,159 -112,-1 -1,-126 C 68,449 74,441 22,427 z m 141,23 109,0 c 0,25 8,23 66,132 61,112.33333 62,104.66667 27,169 L 214,480 C 71,756.66667 89,748.33333 10,743 L 89,595 c 67.66667,-122.33333 71.33333,-122.66667 74,-145 z" id="path8436"/></g></g></g></g></svg>