<?xml version="1.0" encoding="UTF-8" standalone="no"?>
<svg xmlns:dc="http://purl.org/dc/elements/1.1/" xmlns:cc="http://creativecommons.org/ns#" xmlns:rdf="http://www.w3.org/1999/02/22-rdf-syntax-ns#" xmlns:svg="http://www.w3.org/2000/svg" xmlns="http://www.w3.org/2000/svg" xmlns:sodipodi="http://sodipodi.sourceforge.net/DTD/sodipodi-0.dtd" xmlns:inkscape="http://www.inkscape.org/namespaces/inkscape" id="svg2" version="1.1" viewBox="0 0 500 500"><defs id="defs4"/><metadata id="metadata7"><rdf:RDF><cc:Work rdf:about=""><dc:format>image/svg+xml</dc:format><dc:type rdf:resource="http://purl.org/dc/dcmitype/StillImage"/><dc:title/></cc:Work></rdf:RDF></metadata><g id="layer1" transform="translate(5043.7727,3373.413)"><g id="g6079" transform="matrix(0.71174377,0,0,0.71174377,-5051.7798,-3381.4201)"><path id="path6071" d="m 712.5,362.5 c 0,193.29966 -156.70034,350 -350,350 -193.29966,0 -350,-156.70034 -350,-350 0,-193.29966 156.70034,-350 350,-350 193.29966,0 350,156.70034 350,350 l 0,0 z" style="fill:#ffffff;fill-opacity:1;fill-rule:evenodd;stroke:#000000;stroke-width:2.5;stroke-linecap:butt;stroke-linejoin:miter;stroke-miterlimit:4;stroke-opacity:1;stroke-dashoffset:0"/><path id="path6073" d="m 361.4483,27.3625 c -184.78586,0 -335.5,150.71414 -335.5,335.5 0,184.78586 150.71414,335.5 335.5,335.5 184.78586,0 335.5,-150.71414 335.5,-335.5 0,-184.78586 -150.71414,-335.5 -335.5,-335.5 z" style="fill:#cc0000;fill-opacity:1;fill-rule:evenodd"/><rect y="307.98154" x="55.47493" height="109.03694" width="614.05017" id="rect1324" style="fill:#ffffff;fill-opacity:1;fill-rule:evenodd;stroke:none"/></g></g></svg>