<?xml version="1.0" encoding="UTF-8" standalone="no"?>
<svg xmlns:dc="http://purl.org/dc/elements/1.1/" xmlns:cc="http://creativecommons.org/ns#" xmlns:rdf="http://www.w3.org/1999/02/22-rdf-syntax-ns#" xmlns:svg="http://www.w3.org/2000/svg" xmlns="http://www.w3.org/2000/svg" xmlns:sodipodi="http://sodipodi.sourceforge.net/DTD/sodipodi-0.dtd" xmlns:inkscape="http://www.inkscape.org/namespaces/inkscape" id="svg2" version="1.1" viewBox="0 0 500 500"><defs id="defs4"/><metadata id="metadata7"><rdf:RDF><cc:Work rdf:about=""><dc:format>image/svg+xml</dc:format><dc:type rdf:resource="http://purl.org/dc/dcmitype/StillImage"/><dc:title/></cc:Work></rdf:RDF></metadata><g id="layer1" transform="translate(5538.7985,3112.7426)"><g id="g7968" transform="translate(-629.27012,-3238.9995)"><path style="fill:#000000;fill-opacity:1;fill-rule:evenodd;stroke:none;stroke-width:65;marker:none;visibility:visible;display:inline;overflow:visible;enable-background:accumulate" d="m -4723.2392,229.8006 -82.6149,82.6149 82.6149,82.6359 0,-61.1993 97.4944,0 c 19.7863,-1e-4 29.4403,4.7527 35.4334,11.2647 5.9931,6.5119 10.0668,17.5954 10.0668,35.6015 l 0,135.744 21.6362,-21.6362 21.6362,21.6362 0,-135.744 c 1e-4,-24.6642 -5.7867,-47.8249 -21.4996,-64.8982 -15.7129,-17.0732 -39.6301,-25.2405 -67.273,-25.2405 l -97.4944,0 0,-60.779 z" id="path7849"/><circle transform="matrix(0.71174377,0,0,0.71174377,-4917.5355,118.2498)" id="circle7851" style="fill:#ffffff;stroke:#000000;stroke-width:2.5px" r="350" cy="362.5" cx="362.5" d="m 712.5,362.5 c 0,193.29966 -156.70034,350 -350,350 -193.29966,0 -350,-156.70034 -350,-350 0,-193.29966 156.70034,-350 350,-350 193.29966,0 350,156.70034 350,350 z"/><g id="g7955"><circle d="m 652.5,362.5 c 0,160.16258 -129.83742,290 -290,290 -160.16258,0 -290,-129.83742 -290,-290 0,-160.16258 129.83742,-290 290,-290 160.16258,0 290,129.83742 290,290 z" cx="362.5" cy="362.5" r="290" style="fill:none;stroke:#cc0000;stroke-width:93.75" id="circle7853" transform="matrix(0.71174377,0,0,0.71174377,-4917.5355,118.2498)"/></g><path id="rect3169-5" d="m -4729.5882,241.73078 -74.3534,75.42595 74.3534,75.44514 0,-55.87392 87.7449,0 c 17.8076,-2e-5 26.4963,4.3392 31.8901,10.28448 5.3937,5.94529 9.0601,16.06432 9.0601,32.50358 l 0,123.93187 19.4726,-19.7534 19.4726,19.7534 0,-123.93187 c 0,-22.51798 -5.2081,-43.66331 -19.3497,-59.25091 -14.1416,-15.5876 -35.6671,-23.04419 -60.5457,-23.04415 l -87.7449,0 0,-55.49017 z" style="fill:#000000;fill-opacity:1;fill-rule:evenodd;stroke:none;stroke-width:65;marker:none;visibility:visible;display:inline;overflow:visible;enable-background:accumulate"/><g id="g7857" transform="matrix(1.0025046,0.2113248,-0.21674918,0.97741589,1294.7587,154.5117)"><path d="m -5770.3093,1335.2841 184.8717,107.2812 -24.1186,42.1853 -184.1487,-106.0376 23.3956,-43.4289 z" style="fill:#cc0000;fill-opacity:1;fill-rule:evenodd;stroke:none" id="path7859"/><path d="m -5624.0161,1476.4721 132.6693,76.6661 22.7989,-42.6961 -122.9068,-71.2985 -32.5614,37.3285 z" style="fill:#cc0000;fill-opacity:1;fill-rule:evenodd;stroke:none" id="path7861"/></g></g></g></svg>