<?xml version="1.0" encoding="UTF-8" standalone="no"?>
<svg xmlns:dc="http://purl.org/dc/elements/1.1/" xmlns:cc="http://creativecommons.org/ns#" xmlns:rdf="http://www.w3.org/1999/02/22-rdf-syntax-ns#" xmlns:svg="http://www.w3.org/2000/svg" xmlns="http://www.w3.org/2000/svg" xmlns:sodipodi="http://sodipodi.sourceforge.net/DTD/sodipodi-0.dtd" xmlns:inkscape="http://www.inkscape.org/namespaces/inkscape" id="svg2" version="1.1" viewBox="0 0 500 500"><defs id="defs4"/><metadata id="metadata7"><rdf:RDF><cc:Work rdf:about=""><dc:format>image/svg+xml</dc:format><dc:type rdf:resource="http://purl.org/dc/dcmitype/StillImage"/><dc:title/></cc:Work></rdf:RDF></metadata><g id="layer1" transform="translate(5281.9509,3458.4789)"><g id="g6601" transform="matrix(0.71174377,0,0,0.71174377,-5289.958,-3466.486)"><circle id="circle6587" cy="362.5" cx="362.5" r="350" style="fill:#ffffff;stroke:#000000;stroke-width:2.5px" d="m 712.5,362.5 c 0,193.29966 -156.70034,350 -350,350 -193.29966,0 -350,-156.70034 -350,-350 0,-193.29966 156.70034,-350 350,-350 193.29966,0 350,156.70034 350,350 z"/><circle id="circle6589" style="fill:none;stroke:#cc0000;stroke-width:93.75" r="290" cy="362.5" cx="362.5" d="m 652.5,362.5 c 0,160.16258 -129.83742,290 -290,290 -160.16258,0 -290,-129.83742 -290,-290 0,-160.16258 129.83742,-290 290,-290 160.16258,0 290,129.83742 290,290 z"/><g id="CarSymbol" transform="matrix(0.387772,0,0,0.387772,168.3417,207.4427)"><path d="M 26.666667,456.41026 C 24.273504,280 14.700854,431.79487 121.02564,170.25641 197.94872,-7.5213676 120,40.34188 517.94872,33.846154 872.13675,41.025642 800.68376,-10.256409 882.05128,178.46154 983.93162,420.17094 976.06838,293.67521 975.38462,451.28205 971.62393,624.2735 1035.5556,579.82906 499.48718,585.64103 -32.478634,578.46155 30.427346,623.58974 26.666667,456.41026 z M 134.35897,286.15385 207.17949,117.94872 c 13.58658,-29.878655 9.25188,-25.467978 41.02564,-25.641028 l 509.12314,-0.05487 c 27.56146,0.101297 23.51799,-1.688297 34.87179,24.615388 l 72.41532,167.23435 -730.25641,2.05129 z m -52.079768,318.78443 136.182338,-0.3039 c -0.41785,170.97816 13.75119,161.4435 -60.51282,162.54511 -88.433049,-0.34188 -74.453943,8.585 -75.669518,-162.24121 z m 701.310538,1.21557 136.41026,0 c -0.91168,171.24406 11.54796,159.54416 -65.64103,160 -79.81007,-1.06363 -69.66762,11.54796 -70.76923,-160 z" id="Car-9" style="fill:#000000;fill-rule:evenodd;stroke:none"/><circle id="LeftLamp" cx="150" cy="412" r="66.5" style="fill:#ffffff;fill-opacity:1;stroke:none" d="m 216.5,412 c 0,36.72694 -29.77306,66.5 -66.5,66.5 -36.72694,0 -66.5,-29.77306 -66.5,-66.5 0,-36.72694 29.77306,-66.5 66.5,-66.5 36.72694,0 66.5,29.77306 66.5,66.5 z"/><circle id="RightLamp" cx="850" cy="412" r="66.5" style="fill:#ffffff;fill-opacity:1;stroke:none" d="m 916.5,412 c 0,36.72694 -29.77306,66.5 -66.5,66.5 -36.72694,0 -66.5,-29.77306 -66.5,-66.5 0,-36.72694 29.77306,-66.5 66.5,-66.5 36.72694,0 66.5,29.77306 66.5,66.5 z"/></g></g></g></svg>