<?xml version="1.0" encoding="UTF-8" standalone="no"?>
<svg xmlns:dc="http://purl.org/dc/elements/1.1/" xmlns:cc="http://creativecommons.org/ns#" xmlns:rdf="http://www.w3.org/1999/02/22-rdf-syntax-ns#" xmlns:svg="http://www.w3.org/2000/svg" xmlns="http://www.w3.org/2000/svg" xmlns:sodipodi="http://sodipodi.sourceforge.net/DTD/sodipodi-0.dtd" xmlns:inkscape="http://www.inkscape.org/namespaces/inkscape" id="svg2" version="1.1" viewBox="0 0 500 500"><defs id="defs4"/><metadata id="metadata7"><rdf:RDF><cc:Work rdf:about=""><dc:format>image/svg+xml</dc:format><dc:type rdf:resource="http://purl.org/dc/dcmitype/StillImage"/><dc:title/></cc:Work></rdf:RDF></metadata><g id="layer1" transform="translate(5249.4281,3555.6562)"><g id="g5543" transform="matrix(0.71174377,0,0,0.71174377,-5257.4352,-3563.6633)"><g id="g1875"><circle id="circle4-3" style="fill:#ffffff;stroke:#000000;stroke-width:2.5px" r="350" cy="362.5" cx="362.5" d="m 712.5,362.5 c 0,193.29966 -156.70034,350 -350,350 -193.29966,0 -350,-156.70034 -350,-350 0,-193.29966 156.70034,-350 350,-350 193.29966,0 350,156.70034 350,350 z"/><circle id="circle6-1" style="fill:none;stroke:#cc0000;stroke-width:93.75" r="290" cy="362.5" cx="362.5" d="m 652.5,362.5 c 0,160.16258 -129.83742,290 -290,290 -160.16258,0 -290,-129.83742 -290,-290 0,-160.16258 129.83742,-290 290,-290 160.16258,0 290,129.83742 290,290 z"/></g><path id="Car" style="fill:#cc0000;fill-opacity:1;fill-rule:evenodd;stroke:none" d="m 151.8801,375.07907 c -0.49098,-36.19255 -2.45492,-5.05013 19.35881,-58.70769 15.78164,-36.47312 -0.21042,-26.65344 81.43324,-27.98611 72.66568,1.47295 58.0063,-9.04814 74.69976,29.66948 20.9019,49.58941 19.28867,23.63739 19.14839,55.9722 -0.77154,35.49116 12.34476,26.37288 -97.63574,27.56527 -109.13879,-1.47295 -96.23291,7.7856 -97.00446,-26.51315 z m 22.09428,-34.93003 14.93997,-34.50918 c 2.78743,-6.12994 1.89812,-5.22504 8.41687,-5.26055 l 104.45236,-0.0112 c 5.65455,0.0208 4.82498,-0.34638 7.15434,5.05012 l 14.85683,34.31001 -149.82037,0.42085 z m -10.68474,65.40223 27.93934,-0.0623 c -0.0857,35.07809 2.82121,33.12196 -12.41489,33.34796 -18.14303,-0.0701 -15.27506,1.76131 -15.52445,-33.28561 z m 143.88177,0.24938 27.9861,0 c -0.18703,35.13266 2.3692,32.73229 -13.46699,32.82581 -16.37393,-0.21821 -14.29311,2.36919 -14.51911,-32.82581 z"/><path id="path1899-2" style="fill:#000000;fill-rule:evenodd;stroke:none" d="m 377.42444,375.07907 c -0.49098,-36.19255 -2.45492,-5.05013 19.35881,-58.70769 15.78164,-36.47312 -0.21042,-26.65344 81.43324,-27.98611 72.66568,1.47295 58.0063,-9.04814 74.69976,29.66948 20.9019,49.58941 19.28867,23.63739 19.14839,55.9722 -0.77154,35.49116 12.34476,26.37288 -97.63574,27.56527 -109.13879,-1.47295 -96.23291,7.7856 -97.00446,-26.51315 z m 22.09428,-34.93003 14.93997,-34.50918 c 2.78743,-6.12994 1.89812,-5.22504 8.41687,-5.26055 l 104.45236,-0.0112 c 5.65455,0.0208 4.82498,-0.34638 7.15434,5.05012 l 14.85683,34.31001 -149.82037,0.42085 z m -10.68474,65.40223 27.93934,-0.0623 c -0.0857,35.07809 2.82121,33.12196 -12.41489,33.34796 -18.14303,-0.0701 -15.27506,1.76131 -15.52445,-33.28561 z m 143.88177,0.24938 27.9861,0 c -0.18703,35.13266 2.3692,32.73229 -13.46699,32.82581 -16.37393,-0.21821 -14.29311,2.36919 -14.51911,-32.82581 z"/></g></g></svg>