<?xml version="1.0" encoding="UTF-8" standalone="no"?>
<svg xmlns:dc="http://purl.org/dc/elements/1.1/" xmlns:cc="http://creativecommons.org/ns#" xmlns:rdf="http://www.w3.org/1999/02/22-rdf-syntax-ns#" xmlns:svg="http://www.w3.org/2000/svg" xmlns="http://www.w3.org/2000/svg" xmlns:sodipodi="http://sodipodi.sourceforge.net/DTD/sodipodi-0.dtd" xmlns:inkscape="http://www.inkscape.org/namespaces/inkscape" id="svg2" version="1.1" viewBox="0 0 500 500"><defs id="defs4"/><metadata id="metadata7"><rdf:RDF><cc:Work rdf:about=""><dc:format>image/svg+xml</dc:format><dc:type rdf:resource="http://purl.org/dc/dcmitype/StillImage"/><dc:title/></cc:Work></rdf:RDF></metadata><g id="layer1" transform="translate(5004.9201,3291.0473)"><g id="g7958" transform="translate(459.12881,-3421.0258)"><g transform="translate(416.82083,-1064.3818)" id="g7879"><path style="fill:#000000;fill-opacity:1;fill-rule:evenodd;stroke:none;stroke-width:65;marker:none;visibility:visible;display:inline;overflow:visible;enable-background:accumulate" d="m -5694.5806,1297.904 -82.6149,82.6149 82.6149,82.6359 0,-61.1993 97.4944,0 c 19.7863,-10e-5 29.4403,4.7527 35.4334,11.2647 5.9931,6.5119 10.0668,17.5954 10.0668,35.6015 l 0,135.744 21.6362,-21.6362 21.6362,21.6362 0,-135.744 c 1e-4,-24.6642 -5.7867,-47.8249 -21.4996,-64.8982 -15.7129,-17.0732 -39.6301,-25.2405 -67.273,-25.2405 l -97.4944,0 0,-60.779 z" id="rect3169"/><circle transform="matrix(0.71174377,0,0,0.71174377,-5888.8769,1186.3532)" id="circle7585" style="fill:#ffffff;stroke:#000000;stroke-width:2.5px" r="350" cy="362.5" cx="362.5" d="m 712.5,362.5 c 0,193.29966 -156.70034,350 -350,350 -193.29966,0 -350,-156.70034 -350,-350 0,-193.29966 156.70034,-350 350,-350 193.29966,0 350,156.70034 350,350 z"/><circle transform="matrix(0.71174377,0,0,0.71174377,-5888.8769,1186.3532)" id="circle7587" style="fill:none;stroke:#cc0000;stroke-width:93.75" r="290" cy="362.5" cx="362.5" d="m 652.5,362.5 c 0,160.16258 -129.83742,290 -290,290 -160.16258,0 -290,-129.83742 -290,-290 0,-160.16258 129.83742,-290 290,-290 160.16258,0 290,129.83742 290,290 z"/><path style="fill:#000000;fill-opacity:1;fill-rule:evenodd;stroke:none;stroke-width:65;marker:none;visibility:visible;display:inline;overflow:visible;enable-background:accumulate" d="m -5560.9998,1314.7784 76.8975,72.9619 -76.8975,72.9804 0,-54.0485 -90.7472,0 c -18.417,0 -27.4029,4.1974 -32.9813,9.9485 -5.5783,5.751 -9.3701,15.5395 -9.3701,31.4417 l 0,119.8832 -20.1388,-19.1081 -20.1389,19.1081 0,-119.8832 c 0,-21.7824 5.3862,-42.2369 20.0117,-57.3152 14.6255,-15.0784 36.8875,-22.2914 62.6174,-22.2914 l 90.7472,0 0,-53.6774 z" id="rect3169-8"/><g id="g7755" transform="matrix(1.0025046,0.2113248,-0.21674918,0.97741589,323.41731,1222.6151)"><path d="m -5770.3093,1335.2841 184.8717,107.2812 -24.1186,42.1853 -184.1487,-106.0376 23.3956,-43.4289 z" style="fill:#cc0000;fill-opacity:1;fill-rule:evenodd;stroke:none" id="path7591"/><path d="m -5624.0161,1476.4721 132.6693,76.6661 22.7989,-42.6961 -122.9068,-71.2985 -32.5614,37.3285 z" style="fill:#cc0000;fill-opacity:1;fill-rule:evenodd;stroke:none" id="path7589"/></g></g></g></g></svg>