<?xml version="1.0" encoding="UTF-8" standalone="no"?>
<svg xmlns:dc="http://purl.org/dc/elements/1.1/" xmlns:cc="http://creativecommons.org/ns#" xmlns:rdf="http://www.w3.org/1999/02/22-rdf-syntax-ns#" xmlns:svg="http://www.w3.org/2000/svg" xmlns="http://www.w3.org/2000/svg" xmlns:sodipodi="http://sodipodi.sourceforge.net/DTD/sodipodi-0.dtd" xmlns:inkscape="http://www.inkscape.org/namespaces/inkscape" id="svg2" version="1.1" viewBox="0 0 500 500"><defs id="defs4"/><metadata id="metadata7"><rdf:RDF><cc:Work rdf:about=""><dc:format>image/svg+xml</dc:format><dc:type rdf:resource="http://purl.org/dc/dcmitype/StillImage"/><dc:title/></cc:Work></rdf:RDF></metadata><g id="layer1" transform="translate(4786.2093,3283.4839)"><g transform="translate(452.54815,-4607.2317)" id="use4955"><circle d="m 712.5,362.5 c 0,193.29966 -156.70034,350 -350,350 -193.29966,0 -350,-156.70034 -350,-350 0,-193.29966 156.70034,-350 350,-350 193.29966,0 350,156.70034 350,350 z" cx="362.5" cy="362.5" r="350" style="fill:#ffffff;stroke:#000000;stroke-width:2.5px" id="circle4959" transform="matrix(0.71174377,0,0,0.71174377,-5246.7646,1315.7407)"/><circle d="m 652.5,362.5 c 0,160.16258 -129.83742,290 -290,290 -160.16258,0 -290,-129.83742 -290,-290 0,-160.16258 129.83742,-290 290,-290 160.16258,0 290,129.83742 290,290 z" cx="362.5" cy="362.5" r="290" style="fill:none;stroke:#cc0000;stroke-width:93.75" id="circle4961" transform="matrix(0.71174377,0,0,0.71174377,-5246.7646,1315.7407)"/><path d="m -4981.9038,1605.8596 132.6693,76.6661 22.7989,-42.6961 -122.9068,-71.2985 -32.5614,37.3285 z" style="fill:#cc0000;fill-opacity:1;fill-rule:evenodd;stroke:none" id="path4963"/><path d="m -4939.5607,1689.8264 0,-161.1745 c -10.2247,-61.2792 -87.7864,-60.7413 -99.0237,-0.7482 l 0,123.9532 -25.0784,38.0139 -25.4408,-38.6862 0,-128.154 c 10.7913,-112.2969 178.4979,-128.4404 199.8235,0 l 0,166.8402 -24.8714,-37.8975 -25.4092,37.8531 z" style="fill:#000000;fill-opacity:1;fill-rule:evenodd;stroke:none" id="path4965"/><path d="m -5128.197,1464.6716 184.8717,107.2812 -24.1186,42.1853 -184.1487,-106.0376 23.3956,-43.4289 z" style="fill:#cc0000;fill-opacity:1;fill-rule:evenodd;stroke:none" id="path4967"/></g></g></svg>