<?xml version="1.0" encoding="UTF-8" standalone="no"?>
<svg xmlns:dc="http://purl.org/dc/elements/1.1/" xmlns:cc="http://creativecommons.org/ns#" xmlns:rdf="http://www.w3.org/1999/02/22-rdf-syntax-ns#" xmlns:svg="http://www.w3.org/2000/svg" xmlns="http://www.w3.org/2000/svg" xmlns:sodipodi="http://sodipodi.sourceforge.net/DTD/sodipodi-0.dtd" xmlns:inkscape="http://www.inkscape.org/namespaces/inkscape" id="svg2" version="1.1" viewBox="0 0 500 500"><defs id="defs4"/><metadata id="metadata7"><rdf:RDF><cc:Work rdf:about=""><dc:format>image/svg+xml</dc:format><dc:type rdf:resource="http://purl.org/dc/dcmitype/StillImage"/><dc:title/></cc:Work></rdf:RDF></metadata><g id="layer1" transform="translate(3067.1788,2359.9508)"><g id="g7073" transform="matrix(0.71174377,0,0,0.71174377,-3075.1859,-2367.9579)"><circle id="circle7054" cy="362.5" cx="362.5" r="350" style="fill:#ffffff;stroke:#000000;stroke-width:2.5px" d="m 712.5,362.5 c 0,193.29966 -156.70034,350 -350,350 -193.29966,0 -350,-156.70034 -350,-350 0,-193.29966 156.70034,-350 350,-350 193.29966,0 350,156.70034 350,350 z"/><circle id="circle7056" style="fill:none;stroke:#cc0000;stroke-width:93.75" r="290" cy="362.5" cx="362.5" d="m 652.5,362.5 c 0,160.16258 -129.83742,290 -290,290 -160.16258,0 -290,-129.83742 -290,-290 0,-160.16258 129.83742,-290 290,-290 160.16258,0 290,129.83742 290,290 z"/><g transform="matrix(0.436865,0,0,0.436865,143.872,253.0305)" id="TruckSymbol"><path id="path7059" d="m 295.78419,86.816926 0,248.265594 391.93206,0.32058 c -22.99976,18.79086 -37.35891,44.69108 -37.17122,78.68503 l -389.0657,-0.23146 C 257.75238,281.97351 70.642616,282.42223 66.576854,413.09434 38.473995,412.88466 34.575813,406.50199 34.30487,380.61469 l -2e-6,-99 C 33.952015,237.37253 28.42681,266.57731 61.177014,182.67997 94.875059,93.246445 85.585107,101.51291 116.0648,99.204795 L 295.78419,86.816926 z m -77.84554,146.382734 1.55116,-105.4792 -100.05012,6.20466 c -18.23966,1.22192 -18.39146,1.33642 -24.81864,22.49189 l -25.594218,68.25124 c -8.59824,20.93425 -7.229702,27.1029 16.28723,24.04306 L 217.93865,233.19966 z m 748.69629,102.39108 0.19058,55.77718 -64.6075,22.86991 -56.72662,-0.0363 C 845.7223,381.859 832.28136,354.65708 808.44981,335.5489 l 158.18513,0.0418 z" style="fill:#000000;fill-rule:evenodd;stroke:none"/><rect id="rect7061" style="fill:#000000;stroke:none" width="631.32404" height="301.70154" y="12.158683" x="335.82718"/><circle id="circle7063" style="fill:#000000;stroke:none" cy="412" cx="164" r="77" d="m 241,412 c 0,42.52593 -34.47407,77 -77,77 -42.52593,0 -77,-34.47407 -77,-77 0,-42.52593 34.47407,-77 77,-77 42.52593,0 77,34.47407 77,77 z"/><circle id="circle7065" style="fill:#000000;stroke:none" cy="412" cx="748" r="77" d="m 825,412 c 0,42.52593 -34.47407,77 -77,77 -42.52593,0 -77,-34.47407 -77,-77 0,-42.52593 34.47407,-77 77,-77 42.52593,0 77,34.47407 77,77 z"/></g></g></g></svg>