<?xml version="1.0" encoding="UTF-8" standalone="no"?>
<svg xmlns:dc="http://purl.org/dc/elements/1.1/" xmlns:cc="http://creativecommons.org/ns#" xmlns:rdf="http://www.w3.org/1999/02/22-rdf-syntax-ns#" xmlns:svg="http://www.w3.org/2000/svg" xmlns="http://www.w3.org/2000/svg" xmlns:sodipodi="http://sodipodi.sourceforge.net/DTD/sodipodi-0.dtd" xmlns:inkscape="http://www.inkscape.org/namespaces/inkscape" id="svg2" version="1.1" viewBox="0 0 500 500"><defs id="defs4"/><metadata id="metadata7"><rdf:RDF><cc:Work rdf:about=""><dc:format>image/svg+xml</dc:format><dc:type rdf:resource="http://purl.org/dc/dcmitype/StillImage"/><dc:title/></cc:Work></rdf:RDF></metadata><g id="layer1" transform="translate(3391.5651,1936.2746)"><g style="stroke:#cc0000;stroke-width:88" id="g6337" transform="matrix(0.71123755,0,0,0.71123755,-3399.0331,-1944.4538)"><circle id="circle6325" r="350" cy="363" cx="362" style="fill:#ffffff;stroke:#000000;stroke-width:3" d="M 712,363 C 712,556.29966 555.29966,713 362,713 168.70034,713 12,556.29966 12,363 12,169.70034 168.70034,13 362,13 555.29966,13 712,169.70034 712,363 z"/><circle id="circle6327" r="292" cy="363" cx="362" style="fill:#003399" d="M 654,363 C 654,524.26715 523.26715,655 362,655 200.73285,655 70,524.26715 70,363 70,201.73285 200.73285,71 362,71 523.26715,71 654,201.73285 654,363 z"/><path id="path6329" d="M 185,186 539,540" style="fill:none"/></g></g></svg>