<?xml version="1.0" encoding="UTF-8" standalone="no"?>
<svg xmlns:dc="http://purl.org/dc/elements/1.1/" xmlns:cc="http://creativecommons.org/ns#" xmlns:rdf="http://www.w3.org/1999/02/22-rdf-syntax-ns#" xmlns:svg="http://www.w3.org/2000/svg" xmlns="http://www.w3.org/2000/svg" xmlns:sodipodi="http://sodipodi.sourceforge.net/DTD/sodipodi-0.dtd" xmlns:inkscape="http://www.inkscape.org/namespaces/inkscape" id="svg2" version="1.1" viewBox="0 0 500 500"><defs id="defs4"/><metadata id="metadata7"><rdf:RDF><cc:Work rdf:about=""><dc:format>image/svg+xml</dc:format><dc:type rdf:resource="http://purl.org/dc/dcmitype/StillImage"/><dc:title/></cc:Work></rdf:RDF></metadata><g id="layer1" transform="translate(4512.7835,2932.3361)"><g id="g9070" transform="matrix(0.71174377,0,0,0.71174377,-4520.7906,-2940.3432)"><circle id="circle4" style="fill:#ffffff;stroke:#000000;stroke-width:2.5px" r="350" cy="362.5" cx="362.5" d="m 712.5,362.5 c 0,193.29966 -156.70034,350 -350,350 -193.29966,0 -350,-156.70034 -350,-350 0,-193.29966 156.70034,-350 350,-350 193.29966,0 350,156.70034 350,350 z"/><path id="path1883" style="fill:#003399;fill-opacity:1;fill-rule:nonzero;stroke:none" transform="matrix(1.061206,0,0,1.061206,877.7452,-29.79549)" d="m -176.30905,369.66949 c 0,170.77689 -138.44202,309.2189 -309.2189,309.2189 -170.77689,1e-5 -309.21891,-138.44201 -309.21891,-309.2189 0,-170.77689 138.44202,-309.218905 309.21891,-309.218905 170.77688,0 309.2189,138.442015 309.2189,309.218905 z"/><g id="g1953" style="fill:#ffffff" transform="matrix(1.486189,0,0,1.486189,540.6877,-765.1232)"><path id="path1914" style="fill:#ffffff;fill-opacity:1;fill-rule:evenodd;stroke:none" d="m -162.2598,695.78989 10.45958,0 0,41.0912 c 0,4.06928 -10.08603,3.49728 -10.08603,0 l -0.37355,-41.0912 z"/><path id="path1916" style="fill:#ffffff;fill-opacity:1;fill-rule:evenodd;stroke:none" d="m -147.81755,695.78989 10.45958,0 0,50.05655 c 0,6.06117 -10.08603,5.86107 -10.08603,0 l -0.37355,-50.05655 z"/><path id="path1918-65" style="fill:#ffffff;fill-opacity:1;fill-rule:evenodd;stroke:none" d="m -185.87304,691.92858 c 2.98013,-14.39432 5.06167,-27.091 25.22578,-46.09318 l 0,-28.79172 -3.56595,-0.92451 c 0,0 0.0318,33.15501 0.0318,33.15501 -1.65453,1.66153 -3.21285,3.41928 -4.78639,5.16181 -3.37719,-1.67808 -3.72391,-6.92509 -5.41495,-11.63825 l -2.0649,-13.02075 1.93282,-10.8843 c 3.57932,-8.02055 5.81544,-16.38168 19.67875,-21.65983 l 8.32054,-0.13208 c 16.01878,2.7754 19.07775,14.16203 25.00879,25.38414 7.16359,13.55421 15.61344,25.60257 7.48096,30.3503 9.01208,5.86805 13.72951,16.03075 27.07479,17.5656 6.36954,0.65607 9.68572,-1.23231 14.52793,-1.84901 l 23.11262,27.99929 c 1.09794,7.18615 -1.55816,8.11558 -4.09423,9.24505 l -15.58451,-18.62217 5.41495,27.471 -7.66018,0 4.88667,29.05587 c 0,2.78767 -9.37712,3.52302 -9.37712,0.52829 l -4.7546,-26.81064 -6.55554,-0.0735 -2.95365,30.71421 c 0,3.1559 -8.45262,2.58331 -8.45262,0 l 3.69802,-65.24363 -26.94271,-24.82956 c -3.10628,-5.49447 -0.84453,-7.19974 0,-9.90541 -3.78431,-11.31506 -10.20552,-21.31167 -15.32037,-31.96146 l -1.84901,0 0.13207,29.8483 c 21.61956,18.68778 22.37733,31.6547 25.22578,46.35732 l -72.37553,-0.39621 z"/><path id="path1922" style="fill:#ffffff;fill-opacity:1;fill-rule:nonzero;stroke:none" d="m -135.36376,575.69151 c 0.003,7.73868 -6.26969,14.01366 -14.00836,14.01366 -7.73868,0 -14.01129,-6.27498 -14.00837,-14.01366 -0.003,-7.73867 6.26969,-14.01366 14.00837,-14.01366 7.73867,0 14.01128,6.27499 14.00836,14.01366 l 0,0 z"/><path id="path1924" style="fill:#ffffff;fill-opacity:1;fill-rule:nonzero;stroke:none" d="m -72.793169,650.58949 c 0.0026,6.91321 -5.600921,12.51887 -12.514131,12.51887 -6.913218,0 -12.516747,-5.60566 -12.514139,-12.51887 -0.0026,-6.91321 5.600921,-12.51886 12.514139,-12.51886 6.91321,0 12.516739,5.60565 12.514131,12.51886 l 0,0 z"/></g><g id="BikeSymbol" transform="matrix(0.376839,0,0,0.376839,172.4891,407.3011)"><circle id="FrontWheel" style="fill:none;stroke:#ffffff;stroke-width:40px" r="161" cy="409" cx="215" d="m 376,409 c 0,88.91784 -72.08216,161 -161,161 -88.91784,0 -161,-72.08216 -161,-161 0,-88.91784 72.08216,-161 161,-161 88.91784,0 161,72.08216 161,161 z"/><circle id="RearWheel" style="fill:none;stroke:#ffffff;stroke-width:40px" r="161" cy="406" cx="790" d="m 951,406 c 0,88.91784 -72.08216,161 -161,161 -88.91784,0 -161,-72.08216 -161,-161 0,-88.91784 72.08216,-161 161,-161 88.91784,0 161,72.08216 161,161 z"/><path id="Frame" style="fill:#ffffff;fill-rule:evenodd;stroke:none" d="M 429.48437,15.467118 C 296.9179,16.75919 319.39993,1.7711686 248.07762,230.98455 189.97511,414.12586 196.30387,394.15363 196,407 c -0.21296,9.98022 7.84333,17.89312 17.96694,18.57043 21.0536,-2.12877 12.19798,2.27698 85.19054,-224.38965 266.71215,281.35562 166.64844,235.73116 310.18316,241.44498 188.64235,-1.8089 203.97493,9.81974 206.21452,-17.83058 -0.25842,-9.38905 -4.65145,-14.98802 -134.11696,-303.11983 l 12.40388,-34.110675 42.63834,-0.775242 -1.55048,-35.661158 -158.92473,0 c -14.0405,19.208788 5.68512,19.12265 76.74902,34.885915 l -12.40388,34.88591 -317.07421,0.77525 c 21.36224,-74.595562 9.30291,-69.944107 105.43299,-69.771832 l 0.77524,-36.4364 z M 314.11415,159.91012 624.37752,159.36001 534.70921,400.30922 314.11415,159.91012 z m 347.67101,14.30292 -88.01798,231.04719 192.53932,0.55011 -104.52134,-231.5973 z"/></g><path id="path2006" style="fill:#ffffff;fill-opacity:1;fill-rule:evenodd;stroke:none" d="m 69.443918,373.94123 0,11.9692 585.135582,0 0,-11.85628 -585.135582,-0.11292 z"/></g></g></svg>