<?xml version="1.0" encoding="UTF-8" standalone="no"?>
<svg xmlns:dc="http://purl.org/dc/elements/1.1/" xmlns:cc="http://creativecommons.org/ns#" xmlns:rdf="http://www.w3.org/1999/02/22-rdf-syntax-ns#" xmlns:svg="http://www.w3.org/2000/svg" xmlns="http://www.w3.org/2000/svg" xmlns:sodipodi="http://sodipodi.sourceforge.net/DTD/sodipodi-0.dtd" xmlns:inkscape="http://www.inkscape.org/namespaces/inkscape" id="svg2" version="1.1" viewBox="0 0 500 440"><defs id="defs4"/><metadata id="metadata7"><rdf:RDF><cc:Work rdf:about=""><dc:format>image/svg+xml</dc:format><dc:type rdf:resource="http://purl.org/dc/dcmitype/StillImage"/><dc:title/></cc:Work></rdf:RDF></metadata><g id="layer1" transform="translate(1906.1231,1331.6027)"><g transform="translate(16091.813,-506.75339)" id="g7666"><g id="g3682" transform="translate(-13905.174,3885.3794)"><g id="g3684" transform="translate(-1444.6677,-2055.0906)"><g id="g3686"><g transform="translate(2639.6087,-727.89124)" id="g3688"><g transform="matrix(0.99999834,0,0,1.0009179,-3285.3129,-1756.434)" id="g3690"><path id="path3693" d="m -1729.657,-157.23924 c -4.4566,-7.70081 -13.1754,-12.51819 -22.7409,-12.51819 -9.7394,0 -18.4615,5.08085 -23.0023,12.928 l -222.2004,384.02127 c -4.7688,8.24191 -5.4749,18.62338 -0.3734,27.4394 4.8697,8.41541 13.6405,13.41233 22.7223,13.41233 l 445.7076,0 c 9.0817,0 17.8525,-4.99698 22.7222,-13.41233 5.1016,-8.81596 4.3958,-19.19774 -0.3734,-27.4394 l -222.4617,-384.43108 z" style="fill:#ffffff;fill-opacity:1;fill-rule:nonzero;stroke:#000000;stroke-width:1.79633701;stroke-linecap:round;stroke-linejoin:round;stroke-miterlimit:2;stroke-opacity:1;stroke-dasharray:none;stroke-dashoffset:0"/><path style="fill:#d40000;fill-opacity:1;fill-rule:nonzero;stroke:none" d="m -1752.3918,-161.75994 c 6.5396,0 12.22,3.32868 14.949,8.05523 l 222.4555,385.3022 c 3.3263,5.76134 3.7682,12.63048 0.3746,18.50829 -3.3028,5.72052 -9.1544,8.93566 -14.9303,8.93572 l -445.7164,0 c -5.7759,0 -11.6274,-3.21508 -14.9302,-8.93572 -3.3936,-5.87781 -2.9517,-12.74635 0.3747,-18.50829 l 222.1931,-384.89007 c 2.8883,-5.0026 8.6251,-8.46736 15.23,-8.46736 z" id="path3695"/><path style="fill:#ffffff;fill-opacity:1;fill-rule:nonzero;stroke:none" d="m -1752.4105,-83.717877 170.2088,294.802657 -340.3989,0 170.1901,-294.802657 z" id="path3697"/></g></g></g></g></g><g id="zwart_symbool" transform="matrix(1.4433914,0,0,1.4433914,-18000.178,-818.9379)" style="fill:#000000;fill-opacity:1"><path style="fill:#000000;fill-opacity:1" d="m 176.02598,131.52073 c 5.25692,0 9.536,-4.22643 9.536,-9.4104 0,-5.19223 -4.27908,-9.41866 -9.536,-9.41866 -5.25693,0 -9.53601,4.22643 -9.53601,9.41866 0,5.18397 4.27908,9.4104 9.53601,9.4104" id="path5213"/><path style="fill:#000000;fill-opacity:1" d="m 176.02598,132.90753 c -2.94187,0 -5.54944,1.32076 -7.27946,3.38444 l -27.16213,27.44702 3.46003,3.5743 21.61271,-16.37741 c 0.42623,9.08847 2.31505,18.63921 2.31505,18.63921 l -17.00768,60.55678 6.33505,0 20.04148,-45.59919 7.18752,19.50595 16.35579,24.08734 5.15662,-4.28421 -12.86231,-25.21824 -6.20133,-30.75716 -0.13372,-16.50948 4.76382,3.41746 3.30124,16.50948 4.76383,0.28892 -1.4375,-20.51304 -15.57018,-15.92339 c -3.46003,-3.16157 -7.63883,-2.22878 -7.63883,-2.22878" id="path5215"/><path style="fill:#000000;fill-opacity:1" d="m 146.12255,251.28052 -24.02805,0 13.94045,-42.30555 17.55927,0 -7.47167,42.30555" id="path5217"/><path style="fill:#000000;fill-opacity:1" d="m 105.96437,251.28052 -23.30929,0 23.30929,-42.30555 17.79329,0 -17.79329,42.30555" id="path5219"/><path style="fill:#000000;fill-opacity:1" d="m 244.97604,251.28052 23.30928,0 -23.30928,-42.30555 -17.7933,0 17.7933,42.30555" id="path5221-3"/><path style="fill:#000000;fill-opacity:1" d="m 169.98345,208.97497 13.90702,0 3.59375,42.30555 -24.02805,0 2.90844,-33.91873 3.61884,-8.38682" id="path5223-5"/><path style="fill:#000000;fill-opacity:1" d="m 202.17686,208.97497 12.72859,0 13.94044,42.30555 -24.02804,0 -3.49347,-19.67105 8.85069,-6.61205 -7.99821,-16.02245" id="path5225-2"/></g></g></g></svg>