<?xml version="1.0" encoding="UTF-8" standalone="no"?>
<svg xmlns:dc="http://purl.org/dc/elements/1.1/" xmlns:cc="http://creativecommons.org/ns#" xmlns:rdf="http://www.w3.org/1999/02/22-rdf-syntax-ns#" xmlns:svg="http://www.w3.org/2000/svg" xmlns="http://www.w3.org/2000/svg" xmlns:sodipodi="http://sodipodi.sourceforge.net/DTD/sodipodi-0.dtd" xmlns:inkscape="http://www.inkscape.org/namespaces/inkscape" id="svg2" version="1.1" viewBox="0 0 500 500"><defs id="defs4"/><metadata id="metadata7"><rdf:RDF><cc:Work rdf:about=""><dc:format>image/svg+xml</dc:format><dc:type rdf:resource="http://purl.org/dc/dcmitype/StillImage"/><dc:title/></cc:Work></rdf:RDF></metadata><g id="layer1" transform="translate(4955.4855,3119.936)"><g id="g9741" transform="matrix(1.0605878,0,0,1.0626203,-4959.8273,-3125.0161)"><path id="path3669-7" style="fill:#ffffff;fill-opacity:1;fill-rule:evenodd;stroke:#000000;stroke-width:2;stroke-linecap:butt;stroke-linejoin:miter;stroke-miterlimit:4;stroke-opacity:1;stroke-dasharray:none" d="m 30.856274,5.7720243 420.004816,0 c 10.81582,0.7906802 23.07189,11.8437647 23.66646,24.8647647 l 0,418.806511 c 0.0497,10.31854 -11.79351,24.19224 -25.16434,24.86477 l -419.405663,0 C 20.433732,473.72489 5.5262338,458.92955 5.0927831,449.14373 L 5.691934,30.936364 C 4.6103723,24.633922 19.978002,5.6381226 30.856274,5.7720243 z"/><path id="path3661-4" style="fill:#003399;fill-opacity:1;fill-rule:evenodd;stroke:none" d="m 35.1875,16.78125 c -11.760613,-0.514916 -18.473169,7.51921 -18.03125,20.375 l 0,406.40625 c 0.04655,8.6672 3.728171,19.07043 15.6875,19.28125 l 414.4375,-0.0312 c 11.95933,-0.21085 15.6722,-10.6141 15.71875,-19.2813 l 0,-406.4375 c 0.44191,-12.855791 -6.27063,-20.88992 -18.03125,-20.375 L 35.1875,16.78125 z"/><path id="path5511" style="fill:#ffffff;fill-opacity:1;fill-rule:evenodd;stroke:none" d="M 240.63492,61.587301 45.714286,399.95904 l 389.206354,0 L 240.63492,61.587301 z"/><g id="g5501" transform="matrix(0.768565,0,0,0.768565,488.3241,-184.1601)"><path id="path5663" style="fill:#000000;fill-opacity:1;fill-rule:nonzero;stroke:none" d="m -305.84183,421.68087 c 0,13.91446 -11.27992,25.19438 -25.19438,25.19438 -13.91447,0 -25.19438,-11.27992 -25.19438,-25.19438 0,-13.91447 11.27991,-25.19439 25.19438,-25.19439 13.91446,0 25.19438,11.27992 25.19438,25.19439 l 0,0 z"/><path id="path5645" style="fill:#000000;fill-opacity:1;fill-rule:evenodd;stroke:none" d="m -531.60012,747.84425 55.6422,0 39.54125,-89.48197 -41.86496,0 -53.31849,89.48197 z"/><path id="path5647" style="fill:#000000;fill-opacity:1;fill-rule:evenodd;stroke:none" d="m -441.71179,748.25061 55.07081,0 8.52028,-45.57278 c -17.74634,10.41353 -29.78221,6.56449 -41.05224,0.16503 l 24.58307,-44.55688 -17.04055,0 -30.08137,89.96463 z"/><path id="path5649" style="fill:#000000;fill-opacity:1;fill-rule:evenodd;stroke:none" d="m -351.29022,747.84425 56.5818,0 -8.52027,-89.68515 -40.27767,0 -7.78386,89.68515 z"/><path id="path5651" style="fill:#000000;fill-opacity:1;fill-rule:evenodd;stroke:none" d="m -260.95738,748.00928 56.09914,0.40636 -31.38918,-90.70105 -6.23471,0.81272 c 8.11812,17.13113 16.49307,35.98937 -13.73909,52.8864 l -13.98531,-26.25262 -1.87431,-1.44117 11.12346,64.28936 z"/><path id="path5653" style="fill:#000000;fill-opacity:1;fill-rule:evenodd;stroke:none" d="m -169.76123,748.41564 55.15953,0 -54.79132,-90.6629 -40.88721,0.40636 40.519,90.25654 z"/><path id="path5659" style="fill:#000000;fill-opacity:1;fill-rule:evenodd;stroke:none" d="m -343.50636,571.34077 50.06699,0 0.23147,4.50651 53.14418,99.54568 c 1.04004,16.27254 -6.36972,22.51094 -13.79235,28.73406 l -64.36431,-118.38436 -62.06559,110.91351 c -17.53947,11.10191 -23.98884,6.44421 -31.60747,3.44808 l 67.91333,-123.36492 0.47375,-5.39856 z"/><path id="path5661" style="fill:#000000;fill-opacity:1;fill-rule:evenodd;stroke:none" d="m -406.21292,560.85962 62.78279,-94.27578 c 7.65325,-10.15887 19.193,-15.13574 38.19794,-10.15902 l 49.57605,40.63611 5.2827,9.75266 0,39.01067 c -4.80462,10.1992 -11.67311,17.1306 -22.9594,17.06716 l 0,-50.18559 -19.70852,-17.47353 0,70.50365 -50.99831,0 0,-56.48419 -35.15024,51.40467 c -10.12821,5.67041 -19.58764,7.99694 -27.02301,0.20319 z"/></g></g></g></svg>