<?xml version="1.0" encoding="UTF-8" standalone="no"?>
<svg xmlns:dc="http://purl.org/dc/elements/1.1/" xmlns:cc="http://creativecommons.org/ns#" xmlns:rdf="http://www.w3.org/1999/02/22-rdf-syntax-ns#" xmlns:svg="http://www.w3.org/2000/svg" xmlns="http://www.w3.org/2000/svg" xmlns:sodipodi="http://sodipodi.sourceforge.net/DTD/sodipodi-0.dtd" xmlns:inkscape="http://www.inkscape.org/namespaces/inkscape" id="svg2" version="1.1" viewBox="0 0 500 500"><defs id="defs4"/><metadata id="metadata7"><rdf:RDF><cc:Work rdf:about=""><dc:format>image/svg+xml</dc:format><dc:type rdf:resource="http://purl.org/dc/dcmitype/StillImage"/><dc:title/></cc:Work></rdf:RDF></metadata><g id="layer1" transform="translate(4191.9199,2299.6159)"><g transform="matrix(-0.71174377,0,0,0.71174377,-3683.9128,-2307.623)" id="g9651"><circle d="m 712.5,362.5 c 0,193.29966 -156.70034,350 -350,350 -193.29966,0 -350,-156.70034 -350,-350 0,-193.29966 156.70034,-350 350,-350 193.29966,0 350,156.70034 350,350 z" cx="362.5" cy="362.5" r="350" style="fill:#ffffff;stroke:#000000;stroke-width:2.5px" id="circle9653"/><path d="m -176.30905,369.66949 a 309.2189,309.2189 0 1 1 -618.43781,0 309.2189,309.2189 0 1 1 618.43781,0 z" transform="matrix(1.061206,0,0,1.061206,877.7452,-29.79549)" style="fill:#003399;fill-opacity:1;fill-rule:nonzero;stroke:none" id="path9656"/><path d="M 308.46875,87.53125 308.625,97.5 l -0.3125,-9.75 -104.28125,104.1875 0.125,75.78125 75.25,-73.84375 -0.21875,434.71875 60.125,-0.0625 -0.0937,-101 c 5.92084,-41.76004 28.9925,-70.56832 79.4375,-81.03125 -10e-6,-10e-6 109.84375,-0.125 109.84375,-0.125 l -73.28125,74.28125 76.75,0.21875 103.5,-104.9375 -9.96875,0.15625 9.75,-0.28125 -104.1875,-104.28125 -75.75,0.0937 73.03125,73.25 -105.5625,-0.71875 c -32.93683,2.57531 -60.24026,11.91219 -83.6875,25.875 L 338.90625,194.5 l 74.28125,73.28125 0.21875,-76.75 -104.9375,-103.5 z" style="fill:#ffffff;fill-opacity:1;fill-rule:evenodd;stroke:none" id="path9658"/></g></g></svg>