<?xml version="1.0" encoding="UTF-8" standalone="no"?>
<svg xmlns:dc="http://purl.org/dc/elements/1.1/" xmlns:cc="http://creativecommons.org/ns#" xmlns:rdf="http://www.w3.org/1999/02/22-rdf-syntax-ns#" xmlns:svg="http://www.w3.org/2000/svg" xmlns="http://www.w3.org/2000/svg" xmlns:sodipodi="http://sodipodi.sourceforge.net/DTD/sodipodi-0.dtd" xmlns:inkscape="http://www.inkscape.org/namespaces/inkscape" id="svg2" version="1.1" viewBox="0 0 500 500"><defs id="defs4"/><metadata id="metadata7"><rdf:RDF><cc:Work rdf:about=""><dc:format>image/svg+xml</dc:format><dc:type rdf:resource="http://purl.org/dc/dcmitype/StillImage"/><dc:title/></cc:Work></rdf:RDF></metadata><g id="layer1" transform="translate(5482.3219,3554.7795)"><g transform="matrix(1.0605875,0,0,1.0626206,-5486.6637,-3559.8596)" id="g8786"><path d="m 30.856274,5.7720243 420.004816,0 c 10.81582,0.7906802 23.07189,11.8437647 23.66646,24.8647647 l 0,418.806511 c 0.0497,10.31854 -11.79351,24.19224 -25.16434,24.86477 l -419.405663,0 C 20.433732,473.72489 5.5262338,458.92955 5.0927831,449.14373 L 5.691934,30.936364 C 4.6103723,24.633922 19.978002,5.6381226 30.856274,5.7720243 z" style="fill:#ffffff;fill-opacity:1;fill-rule:evenodd;stroke:#000000;stroke-width:2;stroke-linecap:butt;stroke-linejoin:miter;stroke-miterlimit:4;stroke-opacity:1;stroke-dasharray:none" id="path3669"/><path d="m 35.1875,16.78125 c -11.760613,-0.514916 -18.473169,7.51921 -18.03125,20.375 l 0,406.40625 c 0.04655,8.6672 3.728171,19.07043 15.6875,19.28125 l 414.4375,-0.0312 c 11.95933,-0.21085 15.6722,-10.6141 15.71875,-19.2813 l 0,-406.4375 c 0.44191,-12.855791 -6.27063,-20.88992 -18.03125,-20.375 L 35.1875,16.78125 z" style="fill:#003399;fill-opacity:1;fill-rule:evenodd;stroke:none" id="path3661"/><path d="m 250.15625,164.21875 0,55.3125 64.625,-64.625 0,225.15625 44.59375,0.0937 0,-225.1875 64.625,64.625 0,-55.28125 -86.90625,-85.90625 -86.9375,85.8125 z" style="fill:#ffffff;fill-opacity:1;fill-rule:evenodd;stroke:none" id="path1883-6"/><path d="m 230.41594,314.9549 0,-55.3125 -64.625,64.625 0,-225.156246 -44.59375,-0.09375 0,225.187496 -64.625002,-64.625 0,55.28125 86.906252,85.90625 86.9375,-85.8125 z" style="fill:#cc0000;fill-opacity:1;fill-rule:evenodd;stroke:none" id="path1888"/></g></g></svg>