<?xml version="1.0" encoding="UTF-8" standalone="no"?>
<svg xmlns:dc="http://purl.org/dc/elements/1.1/" xmlns:cc="http://creativecommons.org/ns#" xmlns:rdf="http://www.w3.org/1999/02/22-rdf-syntax-ns#" xmlns:svg="http://www.w3.org/2000/svg" xmlns="http://www.w3.org/2000/svg" xmlns:sodipodi="http://sodipodi.sourceforge.net/DTD/sodipodi-0.dtd" xmlns:inkscape="http://www.inkscape.org/namespaces/inkscape" id="svg2" version="1.1" viewBox="0 0 500 440"><defs id="defs4"/><metadata id="metadata7"><rdf:RDF><cc:Work rdf:about=""><dc:format>image/svg+xml</dc:format><dc:type rdf:resource="http://purl.org/dc/dcmitype/StillImage"/><dc:title/></cc:Work></rdf:RDF></metadata><g id="layer1" transform="translate(2109.9632,1956.4616)"><g transform="translate(7313.4681,-1131.6123)" id="g7738"><g id="g4408" transform="matrix(0.99999834,0,0,1.0009179,-7421.0411,-654.0364)"><path style="fill:#ffffff;fill-opacity:1;fill-rule:nonzero;stroke:#000000;stroke-width:1.79633701;stroke-linecap:round;stroke-linejoin:round;stroke-miterlimit:2;stroke-opacity:1;stroke-dasharray:none;stroke-dashoffset:0" d="m -1729.657,-157.23924 c -4.4566,-7.70081 -13.1754,-12.51819 -22.7409,-12.51819 -9.7394,0 -18.4615,5.08085 -23.0023,12.928 l -222.2004,384.02127 c -4.7688,8.24191 -5.4749,18.62338 -0.3734,27.4394 4.8697,8.41541 13.6405,13.41233 22.7223,13.41233 l 445.7076,0 c 9.0817,0 17.8525,-4.99698 22.7222,-13.41233 5.1016,-8.81596 4.3958,-19.19774 -0.3734,-27.4394 l -222.4617,-384.43108 z" id="path4410"/><path id="path4412" d="m -1752.3918,-161.75994 c 6.5396,0 12.22,3.32868 14.949,8.05523 l 222.4555,385.3022 c 3.3263,5.76134 3.7682,12.63048 0.3746,18.50829 -3.3028,5.72052 -9.1544,8.93566 -14.9303,8.93572 l -445.7164,0 c -5.7759,0 -11.6274,-3.21508 -14.9302,-8.93572 -3.3936,-5.87781 -2.9517,-12.74635 0.3747,-18.50829 l 222.1931,-384.89007 c 2.8883,-5.0026 8.6251,-8.46736 15.23,-8.46736 z" style="fill:#d40000;fill-opacity:1;fill-rule:nonzero;stroke:none"/><path id="path4414" d="m -1752.4105,-83.717877 170.2088,294.802657 -340.3989,0 170.1901,-294.802657 z" style="fill:#ffffff;fill-opacity:1;fill-rule:nonzero;stroke:none"/></g><path style="fill:#000000;fill-opacity:1;fill-rule:evenodd;stroke:none" d="m -9197.6271,-629.43234 c -12.37,0 -22.7366,9.3853 -23.7993,21.4216 -0.1385,1.568 -0.7518,2.9153 -1.3309,4.2999 -6.662,8.7641 -13.3186,20.0104 -12.1345,31.6632 0,0 5.9498,0.078 5.9498,0.078 1.0267,-5.3703 4.6388,-14.8603 11.3516,-17.5907 1.5547,-0.6323 2.7002,0.5092 3.4446,1.2509 5.0395,5.0208 11.4704,6.7502 16.5187,6.6454 8.4728,-0.1759 14.2254,-4.7462 19.8065,-10.5544 1.0791,-1.123 2.9656,-2.4657 4.619,-2.1891 1.4878,0.2489 2.6677,0.5068 3.5229,1.5636 4.173,5.1567 9.192,7.7115 15.6574,8.3653 4.714,0.1284 8.5946,-1.9094 12.2128,-4.6126 1.9814,-1.4803 4.2685,-1.6767 6.5761,-2.1109 1.3041,0 4.3636,0.7169 5.9498,1.3291 0.028,0.023 0.05,0.055 0.078,0.078 2.8688,2.3643 6.5579,3.7527 10.5688,3.7527 9.1677,0 16.5968,-7.4191 16.5968,-16.5743 0,-9.1552 -7.4291,-16.5743 -16.5968,-16.5743 -4.4799,0 -8.3412,1.9673 -11.5082,4.6126 -1.4163,1.183 -4.0492,2.0186 -5.2453,1.72 -1.3707,-0.3422 -3.5064,-1.7961 -4.384,-2.6581 -4.0489,-3.9773 -8.6543,-5.9947 -14.2483,-6.4891 -5.4846,-0.039 -9.742,2.4439 -13.7785,5.8636 -0.8354,0.7077 -3.3201,2.1264 -4.9321,1.4073 -1.6764,-0.748 -3.6674,-2.0303 -4.0709,-2.6582 -4.9679,-7.7292 -11.9395,-11.0759 -20.8244,-12.0398 z m -45.3283,62.6228 0,6.1763 3.7578,17.0434 -17.458,0 -10.5688,17.5125 10.5688,17.5125 125.729,0 0,-35.025 -9.003,0 0,-5.2381 -52.4523,0 0,5.2381 -34.7595,0 3.7578,-17.0434 0,-6.1763 -19.5718,0 z m 115.7866,17.6689 0,43.3903 -137.5504,0 0,14.8544 -12.9956,0 0,5.629 10.647,0 c -3.0297,1.8531 -5.0886,5.1853 -5.0886,8.9908 0,5.8183 4.7425,10.5544 10.5687,10.5544 5.8262,0 10.5688,-4.7361 10.5688,-10.5544 0,-3.8245 -2.1121,-7.1434 -5.167,-8.9908 l 15.4225,0 c -0.01,0.2069 0,0.417 0,0.6254 0,10.4387 8.4144,18.9198 18.8673,18.9198 10.4528,0 18.9454,-8.4811 18.9454,-18.9198 0,-0.2084 0.01,-0.4186 0,-0.6254 l 4.071,0 c -0.01,0.2069 0,0.417 0,0.6254 0,10.4387 8.4925,18.9198 18.9454,18.9198 10.4529,0 18.9455,-8.4811 18.9455,-18.9198 0,-0.2096 -0.071,-0.4175 -0.078,-0.6254 l 5.4018,0 c -0.01,0.2136 -0.078,0.4106 -0.078,0.6254 0,10.4387 8.4926,18.9198 18.9454,18.9198 10.4529,0 18.9455,-8.4811 18.9455,-18.9198 0,-0.2149 -0.07,-0.4118 -0.078,-0.6254 l 16.362,0 c -3.055,1.8474 -5.0887,5.1663 -5.0887,8.9908 0,5.8183 4.6643,10.5544 10.4905,10.5544 5.8262,0 10.5687,-4.7361 10.5687,-10.5544 0,-3.8245 -2.0338,-7.1434 -5.0887,-8.9908 l 21.529,0 0,-5.629 -48.6945,0 0,-3.9872 31.0016,0 0,-27.2851 -17.3797,0 0,-22.6725 27.3222,0 0,-4.2999 -50.2603,0 z" id="rect2842"/></g></g></svg>