<?xml version="1.0" encoding="UTF-8" standalone="no"?>
<svg xmlns:dc="http://purl.org/dc/elements/1.1/" xmlns:cc="http://creativecommons.org/ns#" xmlns:rdf="http://www.w3.org/1999/02/22-rdf-syntax-ns#" xmlns:svg="http://www.w3.org/2000/svg" xmlns="http://www.w3.org/2000/svg" xmlns:sodipodi="http://sodipodi.sourceforge.net/DTD/sodipodi-0.dtd" xmlns:inkscape="http://www.inkscape.org/namespaces/inkscape" id="svg2" version="1.1" viewBox="0 0 500 440"><defs id="defs4"/><metadata id="metadata7"><rdf:RDF><cc:Work rdf:about=""><dc:format>image/svg+xml</dc:format><dc:type rdf:resource="http://purl.org/dc/dcmitype/StillImage"/><dc:title/></cc:Work></rdf:RDF></metadata><g id="layer1" transform="translate(1452.7674,80.675195)"><g transform="translate(13754.072,751.58154)" id="g7625"><g transform="translate(-12558.745,1822.8814)" id="g9159"><g id="g9161"><g id="g9163" transform="translate(2639.6087,-727.89124)"><g id="g9165" transform="matrix(0.99999834,0,0,1.0009179,-3285.3129,-1756.434)"><path style="fill:#ffffff;fill-opacity:1;fill-rule:nonzero;stroke:#000000;stroke-width:1.79633701;stroke-linecap:round;stroke-linejoin:round;stroke-miterlimit:2;stroke-opacity:1;stroke-dasharray:none;stroke-dashoffset:0" d="m -1729.657,-157.23924 c -4.4566,-7.70081 -13.1754,-12.51819 -22.7409,-12.51819 -9.7394,0 -18.4615,5.08085 -23.0023,12.928 l -222.2004,384.02127 c -4.7688,8.24191 -5.4749,18.62338 -0.3734,27.4394 4.8697,8.41541 13.6405,13.41233 22.7223,13.41233 l 445.7076,0 c 9.0817,0 17.8525,-4.99698 22.7222,-13.41233 5.1016,-8.81596 4.3958,-19.19774 -0.3734,-27.4394 l -222.4617,-384.43108 z" id="path9167"/><path id="path9169" d="m -1752.3918,-161.75994 c 6.5396,0 12.22,3.32868 14.949,8.05523 l 222.4555,385.3022 c 3.3263,5.76134 3.7682,12.63048 0.3746,18.50829 -3.3028,5.72052 -9.1544,8.93566 -14.9303,8.93572 l -445.7164,0 c -5.7759,0 -11.6274,-3.21508 -14.9302,-8.93572 -3.3936,-5.87781 -2.9517,-12.74635 0.3747,-18.50829 l 222.1931,-384.89007 c 2.8883,-5.0026 8.6251,-8.46736 15.23,-8.46736 z" style="fill:#d40000;fill-opacity:1;fill-rule:nonzero;stroke:none"/><path id="path9171" d="m -1752.4105,-83.717877 170.2088,294.802657 -340.3989,0 170.1901,-294.802657 z" style="fill:#ffffff;fill-opacity:1;fill-rule:nonzero;stroke:none"/></g></g></g></g><path d="m -14986.277,-659.73981 c -9.955,0 -18.5,8.7704 -18.5,18.7258 0,9.9553 8.996,18.698 18.951,18.698 2.678,0 4.737,-0.443 7.023,-1.4919 0.469,0.5296 1.442,1.8183 1.836,2.4223 -0.149,1.8038 -0.833,3.0752 -3.568,5.6939 -9.473,8.3306 -7.684,16.3822 -6.363,25.9468 0.87,7.2566 2.717,12.4201 3.504,19.6866 -4.429,8.6111 -7.811,12.1312 -10.55,25.0459 -1.3,3.5513 -1.87,5.6595 -1.62,10.247 -5.237,3.2063 -11.471,6.3343 -16.719,9.5221 -3.132,-8.6986 -13.174,-5.3637 -14.949,-13.537 -3.969,-7.7849 -10.495,-9.4768 -22.534,-11.3225 -2.176,-0.9259 -3.799,0.6219 -6.34,1.2458 -16.197,28.6647 -31.868,57.622 -47.864,86.3989 l 110.456,0 c 0.01,-7.2901 -2.087,-11.966 -3.82,-19.9041 -0.16,-3.2995 -1.48,-4.4855 -3.018,-11.6822 -1.995,-3.4978 -5.005,-8.7141 -5.149,-12.4298 -1.357,-6.4814 -3.734,-7.1482 -4.54,-10.824 4.462,-2.5178 12.299,-6.7667 16.527,-10.0213 5.506,2.2284 13.488,-1.3315 15.032,-6.0349 -0.4,-3.9678 0.284,0.087 0.02,-2.0721 3.733,-2.3967 14.494,-9.2357 18.843,-11.9584 -5.802,12.1162 -6.61,13.329 -7.237,35.8447 -0.484,12.8994 -1.464,25.7693 -1.827,38.6733 -5.943,2.0162 -12.61,4.0517 -17.413,7.6257 -1.482,5.0339 6.413,2.4707 8.969,3.3645 9.395,-0.023 19.633,-0.2586 29.027,-0.3322 2.031,-8.9344 2.848,-18.906 6.014,-27.9085 1.436,-8.2946 3.32,-16.3368 4.574,-24.6617 -0.636,0.1033 -0.744,0.1572 -1.497,0.2315 0.08,-2.7212 -0.02,-4.9426 0.328,-6.8951 3.043,-6.4311 14.708,-25.0163 17.419,-30.2657 2.467,14.3172 7.771,28.9816 17.606,39.8637 11.019,9.8716 22.812,18.9102 34.051,28.5136 4.941,4.2356 -0.28,10.9031 -2.963,14.7827 -1.634,2.4331 -4.13,4.1693 -5.896,6.4503 8.552,2.4874 19.325,-0.3387 23.586,-8.831 3.886,-7.031 8.229,-13.9215 10.907,-21.5374 -12.319,-1.8866 -16.919,-14.4382 -24.749,-22.368 -1.431,-1.8696 -12.485,-13.8102 -13.675,-15.6409 -1.246,0.4754 -1.51,0.6324 -2.325,1.2457 -1.752,-1.5116 -3.081,-2.3866 -4.817,-3.9033 -4.056,-6.9736 -1.394,-15.6737 -3.848,-23.2261 -1.438,-8.9904 -3.52,-17.8345 -7.835,-25.9391 1.858,-1.317 2.113,-3.1612 4.523,-0.5546 1.457,2.3175 9.193,-5.3551 11.211,-7.6268 0.945,-3.5743 -2.953,-5.1809 -4.826,-8.4838 -2.61,-5.9374 -3.487,-10.9506 -4.001,-17.4939 -2.219,-10.8612 -8.916,-22.9519 -19.143,-28.5707 -4.34,-2.2463 -9.411,-2.7344 -14.229,-2.5193 -12.877,1.0526 -25.544,5.9427 -36.185,12.9725 -2.361,1.5656 -2.525,1.02 -3.999,-1.4238 0.744,-1.9744 0.514,-2.7822 0.514,-5.0154 0,-9.9554 -8.968,-18.7257 -18.923,-18.7258 z m 62.22,32.8441 c 5.423,-0.1751 11.725,1.199 13.315,7.2254 3.632,8.56 5.47,17.682 9.191,26.2435 -0.904,1.217 -4.623,7.3698 -5.536,1.7718 -7.054,-10.2906 -11.186,-22.492 -19.877,-31.6695 -2.389,-2.18 0.98,-3.9439 2.907,-3.5712 z m -42.687,37.1785 c 5.622,4.6584 10.553,9.7184 14.422,15.9177 3.274,4.2453 -2.118,10.285 -2.546,14.2015 -5.801,3.7391 -16.475,8.6738 -24.777,15.3918 -0.825,0.2169 -2.856,1.6798 -0.03,-2.4361 2.722,-6.2045 9.424,-14.4541 12.645,-18.7076 -0.08,-5.6597 0.304,-18.7077 0.283,-24.3673 z" id="path731" style="font-size:12px;stroke-width:3pt"/></g></g></svg>