<?xml version="1.0" encoding="UTF-8" standalone="no"?>
<svg xmlns:dc="http://purl.org/dc/elements/1.1/" xmlns:cc="http://creativecommons.org/ns#" xmlns:rdf="http://www.w3.org/1999/02/22-rdf-syntax-ns#" xmlns:svg="http://www.w3.org/2000/svg" xmlns="http://www.w3.org/2000/svg" xmlns:sodipodi="http://sodipodi.sourceforge.net/DTD/sodipodi-0.dtd" xmlns:inkscape="http://www.inkscape.org/namespaces/inkscape" id="svg2" version="1.1" viewBox="0 0 500 440"><defs id="defs4"/><metadata id="metadata7"><rdf:RDF><cc:Work rdf:about=""><dc:format>image/svg+xml</dc:format><dc:type rdf:resource="http://purl.org/dc/dcmitype/StillImage"/><dc:title/></cc:Work></rdf:RDF></metadata><g id="layer1" transform="translate(4871.8895,3077.8009)"><g transform="translate(-1388.5442,-2252.9572)" id="g7915"><g id="g7533"><g id="g7547"><path id="path5463" d="m -3210.6077,-811.41997 c -4.4566,-7.70788 -13.1754,-12.52968 -22.7409,-12.52968 -9.7394,0 -18.4615,5.08551 -23.0023,12.93987 l -222.2,384.37376 c -4.7688,8.24947 -5.4749,18.64047 -0.3734,27.46459 4.8697,8.42313 13.6405,13.42464 22.7223,13.42464 l 445.7068,0 c 9.0817,0 17.8525,-5.00157 22.7222,-13.42464 5.1016,-8.82406 4.3958,-19.21537 -0.3734,-27.46459 l -222.4613,-384.78395 z" style="fill:#ffffff;fill-opacity:1;fill-rule:nonzero;stroke:#000000;stroke-width:1.79715979;stroke-linecap:round;stroke-linejoin:round;stroke-miterlimit:2;stroke-opacity:1;stroke-dasharray:none;stroke-dashoffset:0"/><path style="fill:#d40000;fill-opacity:1;fill-rule:nonzero;stroke:none" d="m -3233.3425,-815.94482 c 6.5396,0 12.22,3.33174 14.949,8.06262 l 222.4551,385.65587 c 3.3263,5.76663 3.7682,12.64208 0.3746,18.52528 -3.3028,5.72577 -9.1544,8.94386 -14.9303,8.94392 l -445.7156,0 c -5.7759,0 -11.6274,-3.21803 -14.9302,-8.94392 -3.3936,-5.8832 -2.9517,-12.75805 0.3747,-18.52528 l 222.1927,-385.24336 c 2.8883,-5.00719 8.6251,-8.47513 15.23,-8.47513 z" id="path5465"/><path style="fill:#ffffff;fill-opacity:1;fill-rule:nonzero;stroke:none" d="m -3233.3612,-737.83112 170.2085,295.07325 -340.3983,0 170.1898,-295.07325 z" id="path5467"/></g></g><path id="path4610" d="m -3187.1752,-625.97184 0,160.2501 -28.1933,0 0,-160.2501 28.1933,0 z m -59.4777,0 0,51.0533 -21.6929,44.225 0,64.9718 -28.1747,0 0,-71.4634 21.6743,-44.2437 0,-44.543 28.1933,0 z" style="fill:#000000;fill-opacity:1;fill-rule:evenodd;stroke:none"/></g></g></svg>