<?xml version="1.0" encoding="UTF-8" standalone="no"?>
<svg xmlns:dc="http://purl.org/dc/elements/1.1/" xmlns:cc="http://creativecommons.org/ns#" xmlns:rdf="http://www.w3.org/1999/02/22-rdf-syntax-ns#" xmlns:svg="http://www.w3.org/2000/svg" xmlns="http://www.w3.org/2000/svg" xmlns:sodipodi="http://sodipodi.sourceforge.net/DTD/sodipodi-0.dtd" xmlns:inkscape="http://www.inkscape.org/namespaces/inkscape" id="svg2" version="1.1" viewBox="0 0 500 500"><defs id="defs4"/><metadata id="metadata7"><rdf:RDF><cc:Work rdf:about=""><dc:format>image/svg+xml</dc:format><dc:type rdf:resource="http://purl.org/dc/dcmitype/StillImage"/><dc:title/></cc:Work></rdf:RDF></metadata><g id="layer1" transform="translate(5111.1057,3578.5112)"><g id="g9256" transform="matrix(1.0605875,0,0,1.0626221,-5115.4475,-3583.5919)"><path style="fill:#ffffff;fill-opacity:1;fill-rule:evenodd;stroke:#000000;stroke-width:2;stroke-linecap:butt;stroke-linejoin:miter;stroke-miterlimit:4;stroke-opacity:1;stroke-dasharray:none" id="path3669-0" d="m 30.856274,5.77202 420.004816,0 c 10.81582,0.7906802 23.07189,11.843765 23.66646,24.864765 l 0,418.806515 c 0.0497,10.31854 -11.79351,24.19224 -25.16434,24.86477 l -419.405663,0 C 16.93511,474.30807 5.0927831,462.751 5.0927831,449.14373 L 5.691934,30.93636 c 0,-13.512255 8.803051,-25.16434 25.16434,-25.16434 z"/><path style="fill:#003399;fill-opacity:1;fill-rule:evenodd;stroke:#003399;stroke-width:1px;stroke-linecap:butt;stroke-linejoin:miter;stroke-opacity:1" id="path3661-9" d="m 35.1875,16.78125 c -11.760613,-0.514916 -18.473169,7.51921 -18.03125,20.375 l 0,406.40625 c 0.04655,8.6672 3.728171,19.07043 15.6875,19.28125 l 414.4375,-0.0312 c 11.95933,-0.21085 15.6722,-10.6141 15.71875,-19.2813 l 0,-406.4375 c 0.44191,-12.855791 -6.27063,-20.88992 -18.03125,-20.375 L 35.1875,16.78125 z"/><path style="fill:#ffffff;fill-opacity:1;fill-rule:evenodd;stroke:none" id="path1886-3" d="M 240.34375,54.625 84.375,209.75 84.34375,297.53125 205.4375,176.875 l 0,248.625 69.8125,0 0,-248.625 121.09375,120.65625 0,-87.78125 -156,-155.125 z"/></g></g></svg>