<?xml version="1.0" encoding="UTF-8" standalone="no"?>
<svg xmlns:dc="http://purl.org/dc/elements/1.1/" xmlns:cc="http://creativecommons.org/ns#" xmlns:rdf="http://www.w3.org/1999/02/22-rdf-syntax-ns#" xmlns:svg="http://www.w3.org/2000/svg" xmlns="http://www.w3.org/2000/svg" xmlns:sodipodi="http://sodipodi.sourceforge.net/DTD/sodipodi-0.dtd" xmlns:inkscape="http://www.inkscape.org/namespaces/inkscape" id="svg2" version="1.1" viewBox="0 0 500 440"><defs id="defs4"/><metadata id="metadata7"><rdf:RDF><cc:Work rdf:about=""><dc:format>image/svg+xml</dc:format><dc:type rdf:resource="http://purl.org/dc/dcmitype/StillImage"/><dc:title/></cc:Work></rdf:RDF></metadata><g id="layer1" transform="translate(5282.9866,3631.7959)"><g transform="translate(-4564.5139,-2806.9466)" id="g7959"><g transform="translate(4544.0517,1098.8007)" id="g5300"><g transform="translate(-187.04149,0)" id="g5302"><g transform="matrix(0.99999834,0,0,1.0009179,-3073.0927,-1752.8371)" id="g5304"><path id="path5306" d="m -1729.657,-157.23924 c -4.4566,-7.70081 -13.1754,-12.51819 -22.7409,-12.51819 -9.7394,0 -18.4615,5.08085 -23.0023,12.928 l -222.2004,384.02127 c -4.7688,8.24191 -5.4749,18.62338 -0.3734,27.4394 4.8697,8.41541 13.6405,13.41233 22.7223,13.41233 l 445.7076,0 c 9.0817,0 17.8525,-4.99698 22.7222,-13.41233 5.1016,-8.81596 4.3958,-19.19774 -0.3734,-27.4394 l -222.4617,-384.43108 z" style="fill:#ffffff;fill-opacity:1;fill-rule:nonzero;stroke:#000000;stroke-width:1.79633701;stroke-linecap:round;stroke-linejoin:round;stroke-miterlimit:2;stroke-opacity:1;stroke-dasharray:none;stroke-dashoffset:0"/><path style="fill:#d40000;fill-opacity:1;fill-rule:nonzero;stroke:none" d="m -1752.3918,-161.75994 c 6.5396,0 12.22,3.32868 14.949,8.05523 l 222.4555,385.3022 c 3.3263,5.76134 3.7682,12.63048 0.3746,18.50829 -3.3028,5.72052 -9.1544,8.93566 -14.9303,8.93572 l -445.7164,0 c -5.7759,0 -11.6274,-3.21508 -14.9302,-8.93572 -3.3936,-5.87781 -2.9517,-12.74635 0.3747,-18.50829 l 222.1931,-384.89007 c 2.8883,-5.0026 8.6251,-8.46736 15.23,-8.46736 z" id="path5308"/><path style="fill:#ffffff;fill-opacity:1;fill-rule:nonzero;stroke:none" d="m -1752.4105,-83.717877 170.2088,294.802657 -340.3989,0 170.1901,-294.802657 z" id="path5310"/></g></g></g><path style="fill:#000000;fill-opacity:1;fill-rule:evenodd;stroke:none" d="m -487.22004,-629.56194 c -0.875,-0.063 -1.939,0.3961 -3.125,1.5604 -3.26,3.2013 -38.75,40.2579 -38.75,40.2579 -3.312,3.3375 -2.684,5.2734 1.953,6.2415 0,0 50.116,11.0172 54.61,11.8589 4.358,0.8163 5.067,-2.2541 3.671,-4.6811 -2.855,-4.9668 -5.155,-10.23 -7.5,-15.4478 0.445,-0.012 0.881,0 1.329,0 18.764,0 35.233,9.9574 44.453,24.8101 l 15.703,-12.4831 c -12.935,-19.4187 -35.05,-32.2219 -60.156,-32.2219 -2.455,0 -4.874,0.1503 -7.266,0.3901 -1.109,-5.5763 -1.931,-11.2567 -2.422,-16.9302 -0.151,-1.7424 -1.042,-3.2492 -2.5,-3.3548 z m -52.188,59.3726 c -4.977,9.777 -7.812,20.8136 -7.812,32.534 0,15.9563 5.251,30.6698 14.062,42.5984 -4.239,3.9049 -8.598,7.6906 -13.203,11.1568 -2.237,1.6843 -2.833,4.6865 1.485,5.6954 4.451,1.0402 54.843,11.2347 54.843,11.2347 4.596,1.0117 5.879,-0.5617 4.219,-4.9932 0,0 -17.451,-48.1863 -19.14,-52.4289 -1.639,-4.1146 -4.666,-3.0397 -5.938,-0.5461 -2.244,4.3977 -8.658,13.9448 -8.828,14.1995 -4.762,-7.8482 -7.5,-17.0816 -7.5,-26.9166 0,-8.2179 1.995,-15.9452 5.391,-22.8596 l -17.579,-9.6744 z m 131.954,8.27 c -0.883,0.1861 -1.929,0.9506 -3.125,2.2626 0,0 -34.884,37.5211 -37.891,40.96 -2.917,3.3353 -0.615,5.5482 2.188,5.5394 4.89,-0.015 16.027,1.2657 16.562,1.3263 -8.224,14.3226 -22.984,24.4731 -40.234,26.1364 l -0.391,19.9729 c 26.893,-1.719 49.803,-18.1728 60.703,-41.3501 5.51,1.8255 10.939,4.1047 16.172,6.6316 2.523,1.2181 5.449,0.3953 4.375,-3.9009 -1.107,-4.4298 -15.078,-53.8333 -15.078,-53.8333 -0.749,-2.84 -1.81,-4.0551 -3.281,-3.7449 z" id="path1895"/></g></g></svg>