<?xml version="1.0" encoding="UTF-8" standalone="no"?>
<svg xmlns:dc="http://purl.org/dc/elements/1.1/" xmlns:cc="http://creativecommons.org/ns#" xmlns:rdf="http://www.w3.org/1999/02/22-rdf-syntax-ns#" xmlns:svg="http://www.w3.org/2000/svg" xmlns="http://www.w3.org/2000/svg" xmlns:sodipodi="http://sodipodi.sourceforge.net/DTD/sodipodi-0.dtd" xmlns:inkscape="http://www.inkscape.org/namespaces/inkscape" id="svg2" version="1.1" viewBox="0 0 500 500"><defs id="defs4"/><metadata id="metadata7"><rdf:RDF><cc:Work rdf:about=""><dc:format>image/svg+xml</dc:format><dc:type rdf:resource="http://purl.org/dc/dcmitype/StillImage"/><dc:title/></cc:Work></rdf:RDF></metadata><g id="layer1" transform="translate(4773.2499,3544.6416)"><g id="g8860" transform="matrix(0.71174377,0,0,0.71174377,-4781.257,-3552.6487)"><circle id="circle4-9" style="fill:#ffffff;stroke:#000000;stroke-width:2.5px" r="350" cy="362.5" cx="362.5" d="m 712.5,362.5 c 0,193.29966 -156.70034,350 -350,350 -193.29966,0 -350,-156.70034 -350,-350 0,-193.29966 156.70034,-350 350,-350 193.29966,0 350,156.70034 350,350 z"/><path id="path1883-1" style="fill:#003399;fill-opacity:1;fill-rule:nonzero;stroke:none" transform="matrix(1.061206,0,0,1.061206,877.7452,-29.79549)" d="m -176.30905,369.66949 a 309.2189,309.2189 0 1 1 -618.43781,0 309.2189,309.2189 0 1 1 618.43781,0 z"/><path id="path2806-5" style="fill:#ffffff;fill-opacity:1;fill-rule:evenodd;stroke:none" d="m 151.78402,434.22108 82.49931,-83.90525 -0.37894,-48.97431 -60.7261,59.37939 C 171.16407,265.73848 252.9506,185.96417 329.76742,175.70399 l -6.80558,-41.09776 C 188.08566,161.30323 133.76958,266.74319 131.1744,360.37317 l -61.303306,-59.60071 -0.278968,50.929 82.191894,82.51962 z"/><path id="path3753" style="fill:#ffffff;fill-opacity:1;fill-rule:evenodd;stroke:none" d="m 530.20519,509.211 -114.03226,-29.03223 -42.12267,24.98613 81.8792,22.5692 c -81.05,49.56427 -191.15428,19.06794 -238.69655,-42.13524 l -32.08154,26.57286 c 90.97667,103.09004 209.42441,96.92936 291.62675,52.02853 l -20.62816,82.97482 44.14276,-25.40192 29.91247,-112.56215 z"/><path id="path3755" style="fill:#ffffff;fill-opacity:1;fill-rule:evenodd;stroke:none" d="m 405.55939,145.06645 32.14766,113.19344 42.75791,23.88278 -21.59305,-82.14203 c 83.55862,45.20704 112.46788,155.73863 83.40939,227.58361 l 39.08851,14.4024 C 624.84436,311.54788 560.04447,212.20608 479.94026,163.66099 l 82.11495,-23.8218 -44.13178,-25.421 -112.36404,30.64826 z"/></g></g></svg>