<?xml version="1.0" encoding="UTF-8" standalone="no"?>
<svg xmlns:dc="http://purl.org/dc/elements/1.1/" xmlns:cc="http://creativecommons.org/ns#" xmlns:rdf="http://www.w3.org/1999/02/22-rdf-syntax-ns#" xmlns:svg="http://www.w3.org/2000/svg" xmlns="http://www.w3.org/2000/svg" xmlns:sodipodi="http://sodipodi.sourceforge.net/DTD/sodipodi-0.dtd" xmlns:inkscape="http://www.inkscape.org/namespaces/inkscape" id="svg2" version="1.1" viewBox="0 0 500 440"><defs id="defs4"/><metadata id="metadata7"><rdf:RDF><cc:Work rdf:about=""><dc:format>image/svg+xml</dc:format><dc:type rdf:resource="http://purl.org/dc/dcmitype/StillImage"/><dc:title/></cc:Work></rdf:RDF></metadata><g id="layer1" transform="translate(-623.58372,1044.1464)"><g transform="translate(14008.947,-234.11751)" id="g7720"><g id="g7552" transform="translate(3435.155,14.814815)"><path style="fill:#ffffff;fill-opacity:1;fill-rule:nonzero;stroke:#000000;stroke-width:1.79715979;stroke-linecap:round;stroke-linejoin:round;stroke-miterlimit:2;stroke-opacity:1;stroke-dasharray:none;stroke-dashoffset:0" d="m -16547.785,-811.41997 c -4.457,-7.70788 -13.176,-12.52968 -22.741,-12.52968 -9.739,0 -18.461,5.08551 -23.002,12.93987 l -222.2,384.37376 c -4.769,8.24947 -5.475,18.64047 -0.374,27.46459 4.87,8.42313 13.641,13.42464 22.723,13.42464 l 445.706,0 c 9.082,0 17.853,-5.00157 22.723,-13.42464 5.101,-8.82406 4.395,-19.21537 -0.374,-27.46459 l -222.461,-384.78395 z" id="path4516"/><path id="path4518" d="m -16570.52,-815.94482 c 6.54,0 12.22,3.33174 14.949,8.06262 l 222.455,385.65587 c 3.327,5.76663 3.768,12.64208 0.375,18.52528 -3.303,5.72577 -9.155,8.94386 -14.93,8.94392 l -445.716,0 c -5.776,0 -11.628,-3.21803 -14.93,-8.94392 -3.394,-5.8832 -2.952,-12.75805 0.374,-18.52528 l 222.193,-385.24336 c 2.888,-5.00719 8.625,-8.47513 15.23,-8.47513 z" style="fill:#d40000;fill-opacity:1;fill-rule:nonzero;stroke:none"/><path id="path4520" d="m -16570.539,-737.83112 170.209,295.07325 -340.398,0 170.189,-295.07325 z" style="fill:#ffffff;fill-opacity:1;fill-rule:nonzero;stroke:none"/></g><g id="g7515" transform="translate(3425.9259,14.814815)"><path d="m -16599.578,-592.94096 -43.184,12.13729 -3.535,0 0,121.86928 7.729,0 0,-108.34289 23.184,20.56343 5.187,4.60093 117.807,26.54774 c 5.05,1.60627 11.693,-3.90977 14.663,-13.58479 2.969,-9.67501 1.146,-19.85459 -3.904,-21.46086 l -110.29,-42.19286 c -2.552,-0.66964 -5.104,-1.12562 -7.657,-0.13727 z m -9.829,9.08507 c -5.203,7.83607 -7.697,17.02344 -7.839,26.37207 l -20.202,-18.489 28.041,-7.88307 z" style="fill:#000000;fill-opacity:1;fill-rule:nonzero;stroke:none" id="rect1886"/><path d="m -16596.21,-589.06004 c -4.842,0.20547 -10.938,7.99257 -14.273,18.66466 -3.679,11.77611 -2.614,22.61161 2.394,24.17623 5.008,1.56463 12.065,-6.71288 15.744,-18.48899 3.679,-11.77611 2.592,-22.61161 -2.415,-24.17623 -0.47,-0.14668 -0.949,-0.19693 -1.45,-0.17567 z m 26.241,9.70563 c 1.154,12.99517 -1.117,28.32488 -10.826,38.60291 l 16.183,3.86469 c 10.433,-10.35097 12.012,-22.81272 11.133,-36.0777 l -16.49,-6.3899 z m 34.013,12.62609 c 1.075,11.54117 -1.059,25.14908 -10.101,34.27711 l 15.086,3.42551 c 9.715,-9.19282 11.183,-20.25655 10.364,-32.03734 l -15.349,-5.66528 z m 30.566,11.41838 c 0.993,10.22348 -0.965,22.30462 -9.31,30.39047 l 13.922,3.03026 c 8.966,-8.14324 10.329,-17.9565 9.573,-28.39224 l -14.185,-5.02849 z" style="fill:#ffffff;fill-opacity:1;fill-rule:nonzero;stroke:none" id="path2779"/></g></g></g></svg>