<?xml version="1.0" encoding="UTF-8" standalone="no"?>
<svg xmlns:dc="http://purl.org/dc/elements/1.1/" xmlns:cc="http://creativecommons.org/ns#" xmlns:rdf="http://www.w3.org/1999/02/22-rdf-syntax-ns#" xmlns:svg="http://www.w3.org/2000/svg" xmlns="http://www.w3.org/2000/svg" xmlns:sodipodi="http://sodipodi.sourceforge.net/DTD/sodipodi-0.dtd" xmlns:inkscape="http://www.inkscape.org/namespaces/inkscape" id="svg2" version="1.1" viewBox="0 0 500 440"><defs id="defs4"/><metadata id="metadata7"><rdf:RDF><cc:Work rdf:about=""><dc:format>image/svg+xml</dc:format><dc:type rdf:resource="http://purl.org/dc/dcmitype/StillImage"/><dc:title/></cc:Work></rdf:RDF></metadata><g id="layer1" transform="translate(1589.9107,875.4479)"><g transform="translate(3219.3978,3731.5281)" id="g6334"><g id="g5595" transform="translate(478.3946,-2679.7291)"><g id="g5597" transform="matrix(0.99999834,0,0,1.0009179,-3285.3129,-1756.434)"><path style="fill:#ffffff;fill-opacity:1;fill-rule:nonzero;stroke:#000000;stroke-width:1.79633701;stroke-linecap:round;stroke-linejoin:round;stroke-miterlimit:2;stroke-opacity:1;stroke-dasharray:none;stroke-dashoffset:0" d="m -1729.657,-157.23924 c -4.4566,-7.70081 -13.1754,-12.51819 -22.7409,-12.51819 -9.7394,0 -18.4615,5.08085 -23.0023,12.928 l -222.2004,384.02127 c -4.7688,8.24191 -5.4749,18.62338 -0.3734,27.4394 4.8697,8.41541 13.6405,13.41233 22.7223,13.41233 l 445.7076,0 c 9.0817,0 17.8525,-4.99698 22.7222,-13.41233 5.1016,-8.81596 4.3958,-19.19774 -0.3734,-27.4394 l -222.4617,-384.43108 z" id="path5599"/><path id="path5601" d="m -1752.3918,-161.75994 c 6.5396,0 12.22,3.32868 14.949,8.05523 l 222.4555,385.3022 c 3.3263,5.76134 3.7682,12.63048 0.3746,18.50829 -3.3028,5.72052 -9.1544,8.93566 -14.9303,8.93572 l -445.7164,0 c -5.7759,0 -11.6274,-3.21508 -14.9302,-8.93572 -3.3936,-5.87781 -2.9517,-12.74635 0.3747,-18.50829 l 222.1931,-384.89007 c 2.8883,-5.0026 8.6251,-8.46736 15.23,-8.46736 z" style="fill:#d40000;fill-opacity:1;fill-rule:nonzero;stroke:none"/><path id="path5603" d="m -1752.4105,-83.717877 170.2088,294.802657 -340.3989,0 170.1901,-294.802657 z" style="fill:#ffffff;fill-opacity:1;fill-rule:nonzero;stroke:none"/></g></g><g id="g4713" transform="matrix(0.90111775,0,0,0.90111775,-1035.1682,-4103.1246)"><path id="path4198" d="m -3941.9268,-254.65782 c 3.806,-7.47352 6.228,-12.31747 8.6499,-17.16142 0.9688,-1.86838 2.8372,-5.39754 4.9132,-8.8575 l -4.0828,-1.66079 -10.1031,19.099 -7.8887,15.43144 -5.5359,10.51829 0.069,0.41519 c 0,0.0692 0,0.2076 0,0.346 0,1.52238 -0.8996,2.76797 -2.3528,3.18316 -1.73,0.5536 -3.6676,0.2768 -5.19,-0.62279 -1.1071,-0.62279 -1.7991,-1.59158 -2.2143,-2.76797 -0.4844,-1.52238 -0.8304,-3.11397 -1.038,-4.77475 l 0.069,-1.10719 c 0.069,-1.45318 0.2768,-2.83717 0.7612,-4.15195 l 2.5603,-9.3419 3.6676,-9.8263 1.5916,-3.32156 -0.1384,-2.28358 -1.4532,-13.42466 -2.1452,-14.73944 c -0.2768,-1.79918 0.1384,-3.59836 1.1072,-5.05155 1.3148,-1.86838 2.8372,-3.59836 4.5672,-5.05154 1.4532,-1.24559 2.7679,-2.49118 3.9443,-3.87516 l 3.0448,-3.11397 0.1384,-0.2076 v -1.45318 -0.0692 c 0,-1.10719 -0.5536,-2.21438 -1.5224,-2.76797 l -1.2456,-0.0692 c -0.8996,-0.0692 -1.7992,-0.2768 -2.5603,-0.76119 -0.6228,-0.4844 -1.1764,-0.96879 -1.6608,-1.52239 -1.5224,-1.79918 -2.3528,-4.08275 -2.2144,-6.43553 v -1.79918 l -3.806,-6.29713 h -5.3975 l 0.8996,-1.17639 c 1.1764,-1.66078 2.6988,-3.04477 4.4287,-4.15196 v -1.03799 l 0.069,-1.38398 0.4152,-3.87516 1.4532,-1.17639 1.1764,-0.69199 1.5916,-0.83039 2.3528,-1.03799 1.1071,-0.346 1.4532,-0.48439 2.2144,-0.5536 1.73,-0.27679 1.384,-0.1384 h 3.5983 l 1.5224,2.49117 c 2.0068,3.32157 3.46,6.91993 4.2212,10.72589 0.4152,1.79918 0.692,3.52916 0.8996,5.32834 0.346,2.83717 1.6607,5.53594 3.8059,7.54272 0.8996,0.96879 1.9376,1.72998 3.114,2.42198 2.4912,1.45318 5.2591,2.42197 8.2347,2.62957 4.2904,0.34599 8.5115,1.24559 12.5943,2.56037 2.9755,0.96879 5.6743,2.28358 8.2347,4.01356 1.2456,0.83039 2.2836,1.52238 3.3907,2.35277 3.6676,2.62958 6.7816,4.84395 9.8263,7.05833 l 3.6676,3.04477 4.152,3.52916 2.8371,2.35277 c 2.2836,1.93758 4.152,4.22116 5.4668,6.85073 0.692,1.31479 1.038,2.69877 1.038,4.22116 0,0.13839 0,0.20759 0,0.34599 l 0.069,1.86838 c 0.069,2.28358 0.4152,4.56715 0.8304,6.85073 l 1.1071,9.5495 0.5536,4.35955 c 0.069,1.10719 0.4152,2.07598 0.9688,2.97557 0.4844,0.76119 0.9688,1.52238 1.5224,2.21438 0.8304,1.10719 1.2456,2.42197 1.2456,3.80596 0,0.1384 0,0.34599 0,0.48439 l 57.2278,29.82489 0.8996,-0.96879 c 1.3148,-1.45319 3.0447,-2.49118 4.9823,-2.83717 0.7612,-0.2076 1.5916,0.0692 2.1452,0.62279 0.4844,0.55359 0.8304,1.24559 0.8996,1.93758 0.069,0.48439 0.069,0.83039 0.069,1.17639 0,1.79918 -0.4152,3.52916 -1.1764,5.12074 l 3.3216,4.35956 -5.7436,-0.5536 -0.2768,0.4844 c -1.2456,1.93758 -3.2523,3.25236 -5.5359,3.73676 -0.6228,0.1384 -1.3148,-0.0692 -1.7992,-0.5536 -0.692,-0.69199 -1.1072,-1.59158 -1.2456,-2.56037 -0.2768,-1.86838 0,-3.80596 0.8996,-5.46674 l -55.567,-28.9253 -0.346,0.692 c -0.692,1.38398 -1.9376,2.42197 -3.3216,2.90637 -0.4152,0.13839 -0.8303,0.20759 -1.3147,0.13839 -0.2768,0 -0.4844,-0.13839 -0.7612,-0.20759 -0.4152,-0.1384 -0.7612,-0.4152 -1.1072,-0.76119 -0.7612,-0.692 -1.384,-1.45319 -1.9376,-2.28358 -0.7612,-1.31479 -1.4532,-2.62957 -1.9376,-4.08276 -0.346,-0.76119 -0.4844,-1.66078 -0.4844,-2.49117 0,-2.07598 -0.346,-4.15196 -1.038,-6.08954 l -0.7612,-3.39076 -0.8303,-3.39076 -1.1764,-4.35956 -0.9688,-3.73676 -2.4912,-10.10309 h -0.8304 c -2.768,-0.0692 -5.6051,-0.346 -8.3731,-0.76119 l 0.8996,0.76119 c 0.7612,0.69199 1.4532,1.38398 2.076,2.21438 0.692,0.89959 1.3148,1.79918 1.8683,2.62957 0.6228,0.96879 1.1764,2.00678 1.5916,3.11396 0.2076,0.4844 0.4152,0.89959 0.5536,1.31479 1.1072,2.76797 1.73,5.67434 1.73,8.58071 0,0.2076 0,0.48439 0,0.76119 -0.069,1.93758 -0.2768,3.87516 -0.4844,5.81274 0.1384,-1.24559 -0.692,5.25914 -1.5224,11.76387 l -1.038,6.78153 c -0.1384,0.83039 -0.2076,1.72998 -0.2076,2.56038 0,2.69877 0.7612,5.32834 2.1452,7.61191 0.346,0.4844 0.7612,0.96879 1.1764,1.31479 0.692,0.4844 1.384,0.89959 2.076,1.17639 3.5983,1.45318 6.7123,3.87516 8.9959,6.98912 3.1832,4.35956 5.3975,9.34191 6.5739,14.67025 0.5536,2.56037 1.9376,4.91315 3.806,6.78153 1.5224,1.45318 2.9063,3.04476 4.0135,4.70555 1.2456,1.79918 2.4912,3.52916 3.7368,5.32834 l 35.43,-26.08812 4.3596,4.77475 -84.3539,62.48693 c -3.8752,2.97557 -8.7883,4.35956 -13.7015,4.01356 -2.9756,-0.2076 -5.8819,-0.89959 -8.5807,-2.21438 -4.0136,-1.93758 -6.9199,-5.46674 -8.1655,-9.75709 -0.1384,-0.6228 -0.2076,-1.24559 -0.1384,-1.86838 0,-0.4152 0.2768,-0.76119 0.6228,-0.89959 0.4844,-0.2076 0.8996,-0.346 1.3148,-0.4844 0.9688,-0.27679 2.0067,-0.27679 2.9063,-0.0692 0.9688,0.2076 1.8684,0.5536 2.6988,0.96879 0.6228,0.346 1.1764,0.83039 1.6608,1.38399 0.6228,0.83039 1.384,1.52238 2.2836,2.07598 1.5224,0.96879 3.1831,1.59158 4.9131,2.00677 1.3148,0.2768 2.6296,0.346 3.9444,0.346 0.1384,0 0.2768,0 0.4844,0 1.9375,0 3.9443,-0.55359 5.7435,-1.59158 1.6608,-0.89959 3.2524,-2.00678 4.844,-3.11397 3.3907,-2.42197 6.4355,-4.70555 9.4803,-6.98913 2.6295,-2.14517 5.2591,-4.01355 7.9579,-5.81273 0.6228,-0.4152 1.3148,-1.03799 2.076,-1.66079 l -0.4844,-1.17638 c -0.4152,-1.03799 -0.4152,-2.21438 -0.069,-3.32157 0.5536,-1.79918 1.3147,-3.39076 2.2835,-4.98235 0.5536,-0.76119 1.1072,-1.59158 1.6608,-2.35277 0.7612,-0.83039 1.1764,-1.93758 1.2456,-3.04477 0.069,-1.03799 0.2076,-2.07598 0.346,-3.04477 l 0,0 -35.9144,17.92261 -16.1926,8.37312 -16.3311,8.7191 -10.3107,5.53594 -4.2211,2.56038 c -6.228,3.73676 -13.9783,3.94436 -20.3446,0.48439 -3.9444,-2.07598 -6.6431,-5.95114 -7.1275,-10.37989 -0.1384,-1.03799 0.5536,-2.00678 1.5916,-2.21437 1.2455,-0.2768 2.5603,-0.0692 3.6675,0.48439 0.2768,0.1384 0.5536,0.346 0.692,0.62279 l 1.73,1.79918 c 0.8996,0.96879 2.1452,1.72999 3.46,2.14518 2.3527,0.83039 4.8439,1.24559 7.2659,1.24559 3.2523,0 6.3663,-0.69199 9.2727,-2.00678 1.7992,-0.76119 3.4599,-1.66078 5.0515,-2.76797 l 6.3664,-4.22116 c 5.1207,-3.39076 10.1722,-6.43553 15.4314,-9.2035 l -0.2768,-0.76119 c -0.346,-1.66078 0.069,-3.39076 1.1764,-4.70555 1.3148,-1.66078 2.5604,-3.32156 3.5983,-5.05155 1.2456,-2.07597 2.0068,-4.49795 2.0068,-6.98912 0,-0.96879 -0.1384,-1.86838 -0.346,-2.76797 -1.2456,-5.88194 -3.4599,-11.55628 -6.7815,-16.74623 -4.4288,-6.91992 -9.2727,-13.70145 -14.4626,-20.27538 -1.5224,-1.79918 -2.422,-3.73676 -2.8372,-5.81274 -0.1384,-0.89959 -0.1384,-1.79918 0.1384,-2.62957 0.346,-1.10719 0.7612,-2.14518 1.1764,-3.18317 0.692,-1.66078 1.384,-3.32156 2.0759,-5.05154 0.7612,-2.07598 1.6608,-4.01356 2.6296,-5.95114 h -0.069 z"/><path id="path4200" d="m -3940.5428,-286.28188 4.0828,1.66078 -10.7951,21.31337 -9.3419,18.6838 -0.2076,-2.69877 0.7612,-1.03799 c 1.2456,-1.72998 2.2835,-3.52916 2.9755,-5.46674 1.5224,-3.80596 3.1832,-7.40432 5.0516,-11.00268 0.8304,-1.72998 1.5916,-3.66756 2.1452,-5.60514 1.5915,-5.53594 3.3907,-10.79509 5.4667,-15.98503 l -0.1384,0.1384 z" style="fill:#ffffff"/><path id="path4202" d="m -3875.4955,-200.3364 -29.5481,13.00947 -0.692,-1.93758 c -1.384,-3.87516 -3.6675,-7.33513 -6.5739,-10.1723 -0.6228,-0.55359 -0.9688,-1.24558 -1.2456,-1.93758 l -0.4844,-1.93757 c -0.8996,-3.39077 -1.6608,-6.78153 -2.2836,-10.2415 -0.6227,-3.25236 -1.3839,-6.22793 -2.2143,-9.1343 -0.8304,-2.76797 -1.8684,-5.32834 -3.114,-7.88872 -2.0068,-3.87515 -4.9131,-7.19672 -8.6499,-9.54949 l 1.038,-0.8304 c 7.0583,-6.08953 13.4938,-12.66346 19.3758,-19.72179 l -0.069,1.45319 c 0.069,9.1343 1.73,18.19941 4.9131,26.64172 1.038,2.69877 2.9756,4.98234 5.4668,6.43553 3.2523,2.00678 6.3663,4.42875 9.1343,7.19672 1.038,1.10719 2.2143,2.14518 3.3215,3.18317 4.844,4.29035 8.7883,9.5495 11.6255,15.43143 l 0,0 z" style="fill:#ffffff"/></g></g></g></svg>