<?xml version="1.0" encoding="UTF-8" standalone="no"?>
<svg xmlns:dc="http://purl.org/dc/elements/1.1/" xmlns:cc="http://creativecommons.org/ns#" xmlns:rdf="http://www.w3.org/1999/02/22-rdf-syntax-ns#" xmlns:svg="http://www.w3.org/2000/svg" xmlns="http://www.w3.org/2000/svg" xmlns:sodipodi="http://sodipodi.sourceforge.net/DTD/sodipodi-0.dtd" xmlns:inkscape="http://www.inkscape.org/namespaces/inkscape" id="svg2" version="1.1" viewBox="0 0 500 440"><defs id="defs4"/><metadata id="metadata7"><rdf:RDF><cc:Work rdf:about=""><dc:format>image/svg+xml</dc:format><dc:type rdf:resource="http://purl.org/dc/dcmitype/StillImage"/><dc:title/></cc:Work></rdf:RDF></metadata><g id="layer1" transform="translate(2356.0582,-447.20073)"><g transform="translate(13839.511,727.60559)" id="g7586"><g transform="matrix(0.99999834,0,0,1.0009179,-14193.179,-109.59196)" id="g4533"><path id="path4535" d="m -1729.657,-157.23924 c -4.4566,-7.70081 -13.1754,-12.51819 -22.7409,-12.51819 -9.7394,0 -18.4615,5.08085 -23.0023,12.928 l -222.2004,384.02127 c -4.7688,8.24191 -5.4749,18.62338 -0.3734,27.4394 4.8697,8.41541 13.6405,13.41233 22.7223,13.41233 l 445.7076,0 c 9.0817,0 17.8525,-4.99698 22.7222,-13.41233 5.1016,-8.81596 4.3958,-19.19774 -0.3734,-27.4394 l -222.4617,-384.43108 z" style="fill:#ffffff;fill-opacity:1;fill-rule:nonzero;stroke:#000000;stroke-width:1.79633701;stroke-linecap:round;stroke-linejoin:round;stroke-miterlimit:2;stroke-opacity:1;stroke-dasharray:none;stroke-dashoffset:0"/><path style="fill:#d40000;fill-opacity:1;fill-rule:nonzero;stroke:none" d="m -1752.3918,-161.75994 c 6.5396,0 12.22,3.32868 14.949,8.05523 l 222.4555,385.3022 c 3.3263,5.76134 3.7682,12.63048 0.3746,18.50829 -3.3028,5.72052 -9.1544,8.93566 -14.9303,8.93572 l -445.7164,0 c -5.7759,0 -11.6274,-3.21508 -14.9302,-8.93572 -3.3936,-5.87781 -2.9517,-12.74635 0.3747,-18.50829 l 222.1931,-384.89007 c 2.8883,-5.0026 8.6251,-8.46736 15.23,-8.46736 z" id="path4537"/><path style="fill:#ffffff;fill-opacity:1;fill-rule:nonzero;stroke:none" d="m -1752.4105,-83.717877 170.2088,294.802657 -340.3989,0 170.1901,-294.802657 z" id="path4539"/></g><g id="g3886" transform="translate(-12158.915,16.416444)"><path style="fill:#000000;fill-opacity:1;fill-rule:evenodd;stroke:none" id="path3888" d="m -3855.5819,-51.90265 c 6.1221,-24.305678 -0.741,-3.817229 23.4038,-35.83039 17.0499,-21.59039 4.6095,-17.87256 59.4238,-4.199186 48.3127,13.949095 40.3883,4.293747 44.6473,33.179559 5.1345,36.911378 8.6813,19.257912 2.8248,40.869573 -6.841,23.6110894 3.552,19.8495774 -70.1798,1.027075 -72.694,-20.455852 -65.7169,-11.958137 -60.1199,-35.046631 z m 20.9947,-19.431669 16.1373,-20.426394 c 2.9558,-3.604541 2.2,-3.157682 6.564,-2.018498 l 69.8258,18.626634 c 3.7762,1.022673 3.2871,0.629006 3.8825,4.65559 l 3.8167,25.60884 -100.2263,-26.446172 z m -18.7984,41.857437 18.6878,4.942625 c -6.3089,23.4570573 -4.0171,22.6667115 -14.2423,20.0998463 -12.1157,-3.2836385 -10.5249,-1.5464904 -4.4455,-25.0424713 z m 96.1369,25.8352218 18.7081,4.9926844 c -6.3864,23.4754808 -4.2499,22.3253148 -14.8526,19.5627358 -10.9067,-3.067103 -9.9768,-0.964538 -3.8555,-24.5554202 z"/><path style="fill:#000000;fill-opacity:1;fill-rule:evenodd;stroke:none" d="m -3809.487,15.449615 c -32.4029,3.941442 -58.6086,4.863528 -68.0875,17.197503 -2.0275,2.638207 -1.2516,4.597421 6.5207,8.370089 2.2354,2.057095 3.2053,3.980846 -1.9896,5.255017 -18.173,0.249822 -23.1235,-4.338675 -23.9753,-8.819773 -1.1257,-5.922586 5.0748,-12.423265 19.0563,-17.519154 14.5441,-5.300955 44.4015,-7.576743 67.4933,-8.013936 1.2099,1.65202 3.8731,2.6246 0.9821,3.530254 z" id="path3890"/><path style="fill:#000000;fill-opacity:1;fill-rule:evenodd;stroke:none" d="m -3881.7528,61.185682 c 18.3838,1.163178 37.8788,6.605139 52.5092,-6.708029 1.5571,-2.519144 -1.4922,-4.831398 -3.4326,-6.236234 -2.2575,-1.634405 -5.567,-2.466513 -9.8386,-2.879719 -5.2225,-0.505194 -7.1302,-6.27761 -4.2658,-11.61821 7.7877,-9.476734 30.6931,-14.602783 70.0928,-14.981961 1.3831,0.988906 1.3831,1.977819 0,2.966724 -16.3139,3.308368 -36.2527,3.868424 -47.9283,9.954942 -8.3813,4.210548 -8.9557,8.528503 0.6236,11.597202 8.2474,1.22981 12.686,4.027693 13.2216,10.04347 -7.123,14.923078 -20.1712,15.654487 -31.1134,17.737928 -29.5729,5.630808 -35.3806,-0.187585 -40.4613,-0.08592 -3.4283,-3.263398 -4.9934,-6.52679 0.5928,-9.790189 z" id="path3892"/><path style="fill:#000000;fill-opacity:1;fill-rule:evenodd;stroke:none" d="m -3762.0172,27.513368 c 2.8822,-2.695701 0.427,-3.336504 -6.9648,-2.076708 -43.3109,14.453133 1.0039,32.771136 26.2292,30.853931 19.6294,3.51119 59.4874,-1.809638 45.6418,16.316979 2.0011,0.666514 3.9591,1.404997 7.113,0.148341 15.1998,-4.297006 24.1339,-13.927285 -7.4094,-20.025392 l -48.7537,-2.818384 c -19.6848,-4.753838 -34.3021,-9.043543 -15.8561,-22.398767 z" id="path3894"/></g></g></g></svg>