<?xml version="1.0" encoding="UTF-8" standalone="no"?>
<svg xmlns:dc="http://purl.org/dc/elements/1.1/" xmlns:cc="http://creativecommons.org/ns#" xmlns:rdf="http://www.w3.org/1999/02/22-rdf-syntax-ns#" xmlns:svg="http://www.w3.org/2000/svg" xmlns="http://www.w3.org/2000/svg" xmlns:sodipodi="http://sodipodi.sourceforge.net/DTD/sodipodi-0.dtd" xmlns:inkscape="http://www.inkscape.org/namespaces/inkscape" id="svg2" version="1.1" viewBox="0 0 500 500"><defs id="defs4"/><metadata id="metadata7"><rdf:RDF><cc:Work rdf:about=""><dc:format>image/svg+xml</dc:format><dc:type rdf:resource="http://purl.org/dc/dcmitype/StillImage"/><dc:title/></cc:Work></rdf:RDF></metadata><g id="layer1" transform="translate(5015.5905,3102.6011)"><g id="g8802" transform="matrix(0.85274698,0,0,0.85308128,-5020.8786,-3223.3457)"><path id="path8804" style="fill:#fffefe;fill-rule:evenodd;stroke:#000000;stroke-width:1.1739316;stroke-opacity:1" d="M 591.95264,434.74696 C 593.09662,287.86662 481.45088,162.26431 335.97021,144.44513 168.29633,123.44973 18.636786,248.23779 7.3113803,416.57787 -2.5874147,584.50073 131.06315,727.83475 299.63202,727.0676 460.35453,728.16448 592.98223,595.36181 591.95264,434.74696"/><path id="path8806" d="m 591.69875,434.80787 -0.40376,-18.16909 m 0,0 -4.44133,-36.74197 m 0,0 -9.28642,-35.53068 m 0,0 -13.32402,-34.3194 m 0,0 -17.76534,-31.89687 m 0,0 -21.80292,-29.87808 m 0,0 -25.03297,-26.64801 m 0,0 -28.26306,-23.41795 m 0,0 -31.08934,-19.78414 m 0,0 -33.10815,-15.74654 m 0,0 -35.12691,-11.30522 m 0,0 -36.33821,-6.86388 m 0,0 -36.33819,-2.42255 m 0,0 -36.74196,2.42255 m 0,0 -35.93445,6.86388 m 0,0 -35.12692,11.30522 m 0,0 -33.10814,15.74654 m 0,0 -31.08934,19.78414 m 0,0 -28.263054,23.41795 m 0,0 -25.032983,26.64801 m 0,0 -21.80292,29.87808 m 0,0 -17.765342,31.89687 m 0,0 -13.324007,34.3194 m 0,0 -9.286429,35.53068 m 0,0 -4.8450928,36.74197 m 0,0 0,36.3382 m 0,0 4.8450928,36.74195 m 0,0 9.286429,35.53069 m 0,0 13.324007,33.91566 m 0,0 17.765342,32.30062 m 0,0 21.80292,29.87807 m 0,0 25.032983,26.64802 m 0,0 28.263054,23.41795 m 0,0 31.08934,19.78412 m 0,0 33.10814,15.74656 m 0,0 35.12692,11.30522 m 0,0 35.93445,6.86388 m 0,0 36.74196,2.01879 m 0,0 36.33819,-2.01879 m 0,0 36.33821,-6.86388 m 0,0 35.12691,-11.30522 m 0,0 33.10815,-15.74656 m 0,0 31.08934,-19.78412 m 0,0 28.26306,-23.41795 m 0,0 25.03297,-26.64802 m 0,0 21.80292,-29.87807 m 0,0 17.76534,-32.30062 m 0,0 13.32402,-33.91566 m 0,0 9.28642,-35.53069 m 0,0 4.44133,-36.74195 m 0,0 0.40376,-18.16911"/><path id="path8808" style="fill:#cc0000;fill-opacity:1;fill-rule:evenodd;stroke:none" d="M 577.25603,434.71143 C 577.71363,294.64114 472.93175,176.59581 334.19386,158.94488 175.51705,138.81082 31.52356,257.36757 22.089087,417.34986 11.712512,577.4129 139.26632,712.78614 299.47069,712.49679 452.43432,712.94766 577.88186,587.78947 577.25603,434.71143"/><path id="path8810" style="fill:#fffefe;fill-rule:evenodd;stroke:none" d="M 504.08836,434.63645 C 504.39791,331.94066 426.91007,243.75996 324.81991,231.54629 208.09354,216.52649 102.0331,304.28326 95.081736,421.71621 87.645864,540.16528 181.13599,638.77639 299.38318,639.34165 412.96697,638.43992 503.57021,548.65766 504.08836,434.63645"/><path id="path8812" style="fill:#000000;fill-rule:evenodd;stroke:none" d="m 220.0529,315.08708 38.357,0 -51.27724,102.15072 c 27.04504,-10.00647 54.33233,-0.86809 69.44634,23.82169 13.79505,25.40311 10.4977,76.83512 -14.13153,96.49812 -29.96555,27.26038 -73.08688,24.18509 -99.72816,-6.05636 C 149.67792,514.55688 146.2931,498.25853 147.3765,477.3977 l 0,-3.23006 0.40377,-6.46012 1.21127,-6.05637 1.61503,-6.05638 2.42255,-6.05636 1.21127,-2.8263 65.81251,-131.62503 z M 181.29216,477.3977 c -6.11019,55.59073 65.67793,59.13032 68.23506,10.49771 6.79659,-56.45207 -65.77213,-59.16397 -68.23506,-10.49771 z m 132.43254,10.49771 c 7.13306,-64.42629 -28.69371,-156.91374 59.75617,-174.42337 40.48343,-4.8249 76.97641,26.70186 76.71397,67.83131 -7.11287,65.2809 28.69373,156.20715 -59.75614,174.42337 -41.09582,4.62302 -76.67361,-26.21063 -76.714,-67.83131 z m 33.91566,0 0,-106.59206 0.40377,-2.42255 0.40374,-4.03757 0.80753,-4.03758 1.61502,-4.03758 2.01879,-4.03758 c 6.96483,-8.98361 13.20288,-13.49897 24.62923,-15.3428 20.78007,-2.63115 38.39736,13.08848 38.35698,33.91566 l 0,108.61085 -0.40375,4.44133 -1.21128,4.03757 -1.61502,4.03759 -2.01878,3.63381 c -5.10082,8.76155 -14.73044,14.36706 -24.62923,15.74656 -9.93245,1.02285 -20.33593,-2.13992 -27.45554,-9.28644 -8.64042,-8.25683 -9.66326,-13.43839 -10.90146,-24.62921"/></g></g></svg>