<?xml version="1.0" encoding="UTF-8" standalone="no"?>
<svg xmlns:dc="http://purl.org/dc/elements/1.1/" xmlns:cc="http://creativecommons.org/ns#" xmlns:rdf="http://www.w3.org/1999/02/22-rdf-syntax-ns#" xmlns:svg="http://www.w3.org/2000/svg" xmlns="http://www.w3.org/2000/svg" xmlns:sodipodi="http://sodipodi.sourceforge.net/DTD/sodipodi-0.dtd" xmlns:inkscape="http://www.inkscape.org/namespaces/inkscape" id="svg2" version="1.1" viewBox="0 0 500 440"><defs id="defs4"/><metadata id="metadata7"><rdf:RDF><cc:Work rdf:about=""><dc:format>image/svg+xml</dc:format><dc:type rdf:resource="http://purl.org/dc/dcmitype/StillImage"/><dc:title/></cc:Work></rdf:RDF></metadata><g id="layer1" transform="translate(508.31306,1037.874)"><g transform="translate(15210.867,-205.61735)" id="g7636"><g transform="translate(-10431.477,1094.9902)" id="g5585"><g transform="matrix(0.99999834,0,0,1.0009179,-3285.3129,-1756.434)" id="g5587"><path id="path5589" d="m -1729.657,-157.23924 c -4.4566,-7.70081 -13.1754,-12.51819 -22.7409,-12.51819 -9.7394,0 -18.4615,5.08085 -23.0023,12.928 l -222.2004,384.02127 c -4.7688,8.24191 -5.4749,18.62338 -0.3734,27.4394 4.8697,8.41541 13.6405,13.41233 22.7223,13.41233 l 445.7076,0 c 9.0817,0 17.8525,-4.99698 22.7222,-13.41233 5.1016,-8.81596 4.3958,-19.19774 -0.3734,-27.4394 l -222.4617,-384.43108 z" style="fill:#ffffff;fill-opacity:1;fill-rule:nonzero;stroke:#000000;stroke-width:1.79633701;stroke-linecap:round;stroke-linejoin:round;stroke-miterlimit:2;stroke-opacity:1;stroke-dasharray:none;stroke-dashoffset:0"/><path style="fill:#d40000;fill-opacity:1;fill-rule:nonzero;stroke:none" d="m -1752.3918,-161.75994 c 6.5396,0 12.22,3.32868 14.949,8.05523 l 222.4555,385.3022 c 3.3263,5.76134 3.7682,12.63048 0.3746,18.50829 -3.3028,5.72052 -9.1544,8.93566 -14.9303,8.93572 l -445.7164,0 c -5.7759,0 -11.6274,-3.21508 -14.9302,-8.93572 -3.3936,-5.87781 -2.9517,-12.74635 0.3747,-18.50829 l 222.1931,-384.89007 c 2.8883,-5.0026 8.6251,-8.46736 15.23,-8.46736 z" id="path5591"/><path style="fill:#ffffff;fill-opacity:1;fill-rule:nonzero;stroke:none" d="m -1752.4105,-83.717877 170.2088,294.802657 -340.3989,0 170.1901,-294.802657 z" id="path5593"/></g></g><g id="g4653" transform="matrix(0.94180597,0,0,0.94180597,-12318.147,-170.23276)"><polyline transform="matrix(0.78381796,0,0,0.78381796,-3570.0945,-657.37576)" id="polyline4129" points="83.125,444.401 158.521,313.811 487.057,443.759 " style="stroke:#000000;stroke-width:0.17640001;stroke-linecap:round;stroke-linejoin:round"/><line id="line4131" y2="-309.04626" x2="-3186.541" y1="-411.44427" x1="-3445.9402" style="stroke:#000000;stroke-width:0.13826549;stroke-linecap:round;stroke-linejoin:round"/><path id="path4133" d="m -3430.0317,-417.11282 -9.8048,-2.39222 11.2541,-19.43163 8.0803,2.41338 25.7328,-11.22819 51.4216,19.47787 12.4227,27.51828 33.0034,18.0333 -4.9827,15.15983 -9.2302,-2.39927 c 2.9244,-7.2558 -0.3614,-15.52979 -7.4675,-18.79988 -7.1068,-3.27087 -15.5297,-0.38485 -19.1369,6.55586 l -66.173,-24.00991 c 2.3295,-6.77768 -0.9461,-14.20827 -7.5208,-17.06137 -6.5746,-2.8531 -14.2396,-0.16774 -17.599,6.16395 z" style="stroke:#000000;stroke-width:0.13826549;stroke-linecap:round;stroke-linejoin:round"/><path id="path4135" d="m -3438.4734,-343.03419 -4.3761,-1.6225 11.8647,-32.00329 c -2.6744,2.30834 -5.3543,3.75606 -8.0389,4.34157 l 2.857,-7.7065 c 1.4109,-0.30177 3.1612,-1.21727 5.2508,-2.74493 2.0905,-1.52845 3.8846,-3.54913 5.3833,-6.0644 l 3.5507,1.31603 -16.4915,44.48402 z" style="fill:#ffffff"/><path id="path4137" d="m -3414.8954,-379.73568 c 2.3554,-2.56387 4.6386,-3.43626 6.8498,-2.61639 2.2111,0.81988 3.372,2.99184 3.4825,6.51588 0.1403,4.17697 -1.3474,10.46632 -4.4615,18.86729 -3.1071,8.38136 -6.0879,14.12753 -8.9418,17.24007 -2.3562,2.56387 -4.6394,3.43704 -6.8506,2.61717 -2.2213,-0.82379 -3.3978,-3.14468 -3.5287,-6.96344 -0.1317,-3.81798 1.3787,-9.978 4.5312,-18.48008 3.0914,-8.34139 6.0652,-14.06718 8.9191,-17.1805 l 0,0 z m 4.2404,4.42465 c -0.5298,-0.19595 -1.1239,-0.0439 -1.7808,0.45697 -0.6584,0.50086 -1.4148,1.55431 -2.2707,3.1627 -1.1154,2.08417 -2.636,5.72579 -4.5634,10.92329 -1.9266,5.19828 -3.1165,8.81952 -3.5672,10.86293 -0.4514,2.0442 -0.591,3.46526 -0.4201,4.2624 0.1709,0.79715 0.5213,1.29252 1.0511,1.48926 0.5291,0.19595 1.1232,0.0439 1.7809,-0.45697 0.6576,-0.50086 1.4147,-1.55509 2.2707,-3.1627 1.1075,-2.06458 2.625,-5.69601 4.5524,-10.89272 1.9266,-5.19828 3.1157,-8.81874 3.5671,-10.86293 0.4507,-2.0442 0.5926,-3.46997 0.4249,-4.27651 -0.1678,-0.80655 -0.5158,-1.30976 -1.0449,-1.50572 z" style="fill:#ffffff"/><path id="path4139-7" d="m -3406.4631,-329.24213 -3.2387,-1.20002 29.4935,-42.24309 3.1454,1.16554 -29.4002,42.27757 z m 4.6661,-38.14372 c 1.4712,-3.96847 3.0106,-6.74397 4.6182,-8.32493 1.6069,-1.58174 3.1792,-2.0873 4.7163,-1.51747 1.588,0.58865 2.4784,2.00187 2.6704,4.23811 0.1921,2.23701 -0.4514,5.34955 -1.9305,9.3384 -1.4712,3.96926 -3.0107,6.74397 -4.6183,8.32493 -1.6076,1.58175 -3.1799,2.08653 -4.7162,1.51748 -1.588,-0.58865 -2.4784,-2.00188 -2.6705,-4.23811 -0.192,-2.23623 0.4515,-5.34956 1.9306,-9.33841 z m 6.0973,-4.40819 c -0.7086,0.86063 -1.5966,2.73082 -2.665,5.61136 -1.0683,2.88209 -1.6139,4.87926 -1.6374,5.99307 -0.01,0.82144 0.214,1.31681 0.671,1.48612 0.4671,0.174 0.9648,-0.0541 1.4931,-0.68349 0.6976,-0.86455 1.581,-2.73631 2.6493,-5.61763 1.0684,-2.88131 1.6155,-4.86672 1.6421,-5.95701 0.017,-0.84104 -0.2085,-1.34974 -0.6756,-1.52218 -0.457,-0.1693 -0.9492,0.0604 -1.4775,0.68976 l 0,0 z m 0.62,33.53801 c 1.4712,-3.96848 3.0106,-6.74397 4.6182,-8.32494 1.6077,-1.58096 3.1902,-2.0826 4.7469,-1.50571 1.5676,0.58081 2.4455,1.9956 2.6336,4.24202 0.1881,2.24721 -0.4531,5.35505 -1.9251,9.3243 -1.479,3.98885 -3.0216,6.77454 -4.6292,8.35472 -1.6076,1.58174 -3.18,2.08652 -4.7162,1.51747 -1.5881,-0.58865 -2.4769,-2.00736 -2.665,-4.25378 -0.1881,-2.24721 0.4577,-5.36445 1.9368,-9.35408 z m 6.0856,-4.37763 c -0.7086,0.86063 -1.5967,2.73082 -2.665,5.61135 -1.0684,2.8821 -1.61,4.86908 -1.6257,5.96251 -0.017,0.84182 0.203,1.34738 0.66,1.51669 0.4672,0.17322 0.9594,-0.0564 1.4775,-0.68976 0.7086,-0.85985 1.5966,-2.73004 2.665,-5.61136 1.0683,-2.88131 1.6186,-4.87691 1.6531,-5.98758 0.01,-0.82144 -0.2195,-1.31917 -0.6867,-1.49161 -0.4671,-0.17322 -0.9601,0.0564 -1.4782,0.68976 l 0,0 z" style="fill:#ffffff"/><line id="line4141" y2="-309.04626" x2="-3186.541" y1="-309.04626" x1="-3504.9397" style="fill:none;stroke:#000000;stroke-width:0.13826549;stroke-linecap:round;stroke-linejoin:round"/><polygon transform="matrix(0.78381796,0,0,0.78381796,-3570.0945,-657.37576)" id="polygon4143" points="249.549,305.669 255.246,286.117 282.751,297.724 290.383,321.166 " style="fill:#ffffff;stroke:#000000;stroke-width:0.17640001;stroke-linecap:round;stroke-linejoin:round"/><polygon transform="matrix(0.78381796,0,0,0.78381796,-3570.0945,-657.37576)" id="polygon4145" points="204.881,289.078 206.294,284.78 225.99,275.972 251.881,284.838 245.9,304.157 " style="fill:#ffffff;stroke:#000000;stroke-width:0.17640001;stroke-linecap:round;stroke-linejoin:round"/><circle transform="matrix(0.78381796,0,0,0.78381796,-3570.0945,-657.37576)" id="circle4147" r="13.599" cy="313.285" cx="195.105" style="stroke:#000000;stroke-width:0.17640001;stroke-linecap:round;stroke-linejoin:round" d="m 208.704,313.285 c 0,7.51052 -6.08848,13.599 -13.599,13.599 -7.51052,0 -13.599,-6.08848 -13.599,-13.599 0,-7.51052 6.08848,-13.599 13.599,-13.599 7.51052,0 13.599,6.08848 13.599,13.599 z"/><circle transform="matrix(0.78381796,0,0,0.78381796,-3570.0945,-657.37576)" id="circle4149" r="14.708" cy="358.57001" cx="311.815" style="stroke:#000000;stroke-width:0.17640001;stroke-linecap:round;stroke-linejoin:round" d="m 326.523,358.57001 c 0,8.123 -6.58499,14.708 -14.708,14.708 -8.123,0 -14.708,-6.585 -14.708,-14.708 0,-8.12301 6.585,-14.708 14.708,-14.708 8.12301,0 14.708,6.58499 14.708,14.708 z"/></g></g></g></svg>