<?xml version="1.0" encoding="UTF-8" standalone="no"?>
<svg xmlns:dc="http://purl.org/dc/elements/1.1/" xmlns:cc="http://creativecommons.org/ns#" xmlns:rdf="http://www.w3.org/1999/02/22-rdf-syntax-ns#" xmlns:svg="http://www.w3.org/2000/svg" xmlns="http://www.w3.org/2000/svg" xmlns:sodipodi="http://sodipodi.sourceforge.net/DTD/sodipodi-0.dtd" xmlns:inkscape="http://www.inkscape.org/namespaces/inkscape" id="svg2" version="1.1" viewBox="0 0 500 500"><defs id="defs4"/><metadata id="metadata7"><rdf:RDF><cc:Work rdf:about=""><dc:format>image/svg+xml</dc:format><dc:type rdf:resource="http://purl.org/dc/dcmitype/StillImage"/><dc:title/></cc:Work></rdf:RDF></metadata><g id="layer1" transform="translate(5244.7561,3059.2928)"><g id="layer1-3" transform="matrix(0.83333351,0,0,0.83333351,-5244.7676,-3059.2811)"><g id="g3715" transform="matrix(1.024827,0,0,1.024827,2.800107,-162.1289)"><path id="path32-5" style="fill:#fffefe;fill-rule:evenodd;stroke:none" d="m 181.10184,743.44678 -1.75289,0 -3.06755,-0.43823 -3.50578,-0.87644 -3.06755,-0.87644 -3.06755,-1.31467 -2.62934,-1.75289 L 161.38185,735.997 4.9366117,579.55176 2.7455019,576.92243 0.99261404,574.2931 l -1.3146659,-3.06756 -1.75288784,-6.1351 -0.438222,-3.50578 0,-221.30209 0.438222,-3.06756 0.8764439,-3.50577 0.87644394,-3.06756 1.3146659,-2.62933 1.75288786,-3.06755 2.1911098,-2.62933 1.3146659,-0.86914 154.2541324,-154.25414 0.87644,-1.31466 5.25867,-3.50578 3.06755,-1.75289 3.06755,-0.87644 3.50578,-0.87644 3.06755,-0.43823 221.3021,0 3.06755,0.43823 3.50578,0.87644 3.06755,0.87644 2.62933,1.75289 3.06755,1.75289 2.62934,1.75289 0.87644,1.31466 154.25413,154.25414 1.31467,0.86914 2.19111,2.62933 1.75289,3.06755 1.31466,2.62933 0.87645,3.06756 0.86914,3.50577 0.43822,3.06756 0,221.30209 -0.43822,3.50578 -1.74559,6.1351 -1.31466,3.06756 -1.75289,2.62933 -2.19111,2.62933 -156.44524,156.44524 -2.62934,2.19111 -3.06755,1.75289 -2.62933,1.31467 -3.06755,0.87644 -3.50578,0.87644 -3.06755,0.43823 -219.54921,0"/><path id="path34-6" style="stroke:#000000;stroke-width:0.43822196;stroke-miterlimit:4;stroke-opacity:1;stroke-dasharray:none" d="m 181.10184,743.44678 -1.75289,0 m 0,0 -3.06755,-0.43823 m 0,0 -3.50578,-0.87644 m 0,0 -3.06755,-0.87644 m 0,0 -3.06755,-1.31467 m 0,0 -2.62934,-1.75289 m 0,0 -2.62933,-2.19111 m 0,0 -0.87644,-0.87644 L 6.2512776,580.86643 4.9366117,579.55176 m 0,0 -2.1911098,-2.62933 m 0,0 -1.75288786,-2.62933 m 0,0 -1.3146659,-3.06756 m 0,0 -0.87644394,-3.06755 -0.8764439,-3.06755 m 0,0 -0.438222,-3.50578 m 0,0 0,-1.75289 0,-217.79632 0,-1.75288 m 0,0 0.438222,-3.06756 m 0,0 0.8764439,-3.50577 m 0,0 0.87644394,-3.06756 m 0,0 1.3146659,-2.62933 m 0,0 1.75288786,-3.06755 m 0,0 2.1911098,-2.62933 m 0,0 1.3146659,-0.87645 m 0,0 L 160.50541,167.18489 m 0,0 0.87644,-1.31467 m 0,0 2.62933,-1.75288 2.62934,-1.75289 m 0,0 3.06755,-1.75289 m 0,0 3.06755,-0.87644 m 0,0 3.50578,-0.87645 m 0,0 3.06755,-0.43822 m 0,0 1.75289,0 217.79632,0 1.75289,0 m 0,0 3.06755,0.43822 m 0,0 3.50578,0.87645 m 0,0 3.06755,0.87644 m 0,0 2.62933,1.75289 m 0,0 3.06755,1.75289 m 0,0 2.62934,1.75288 m 0,0 0.87644,1.31467 m 0,0 154.25413,154.25413 m 0,0 1.31467,0.87645 m 0,0 2.19111,2.62933 m 0,0 1.75289,3.06755 m 0,0 1.31466,2.62933 m 0,0 0.87645,3.06756 m 0,0 0.87644,3.50577 m 0,0 0.43822,3.06756 m 0,0 0,1.75288 0,217.79632 0,1.75289 m 0,0 -0.43822,3.50578 m 0,0 -0.87644,3.06755 -0.87645,3.06755 m 0,0 -1.31466,3.06756 m 0,0 -1.75289,2.62933 m 0,0 -2.19111,2.62933 m 0,0 -1.31467,1.31467 -154.25413,154.25413 -0.87644,0.87644 m 0,0 -2.62934,2.19111 m 0,0 -3.06755,1.75289 m 0,0 -2.62933,1.31467 m 0,0 -3.06755,0.87644 m 0,0 -3.50578,0.87644 m 0,0 -3.06755,0.43823 m 0,0 -1.75289,0 m 0,0 -217.79632,0"/><path id="path36-3" style="fill:#cc0000;fill-opacity:1;fill-rule:evenodd;stroke:none" d="M 181.10184,714.0859 26.84771,559.83177 l 0,-217.79632 154.25413,-154.25413 217.79632,0 154.25413,154.25413 0,217.79632 -154.25413,154.25413 -217.79632,0"/><path id="path38-2" style="fill:#fffefe;fill-rule:evenodd;stroke:none" d="m 66.287687,494.97492 28.922649,0 c -3.498471,20.26046 9.494814,36.62075 30.237314,29.36087 7.2964,-3.44734 12.3956,-9.86161 12.65122,-17.85916 -0.46053,0.52063 4.64394,-31.26552 -12.213,-40.86258 -24.05838,-9.44368 -47.393701,-14.88494 -55.654185,-42.06931 -4.710887,-16.06083 -3.922087,-45.54587 8.764439,-58.72174 34.290866,-38.4905 93.867146,-11.51063 87.644396,42.50753 l -29.36088,0 c 0.52587,-11.48872 1.02252,-22.83867 -10.51732,-28.92265 -6.93121,-3.76871 -17.79181,-2.93609 -23.22577,3.06755 -8.530718,8.00486 -6.814348,20.74251 -6.135104,31.11376 3.177104,18.63174 29.302444,18.69017 41.192864,26.73154 17.94519,9.39256 27.41078,24.51122 28.04621,44.69864 1.11746,27.76136 1.02982,47.10886 -23.66399,63.98041 -38.85568,20.80824 -82.378425,-6.54412 -76.688843,-53.02486 z m 145.927913,58.28352 0,-177.04167 -34.61953,0 0,-27.60799 98.59994,0 0,27.60799 -34.61954,0 0,177.04167 -29.36087,0 z m 78.87995,-47.32797 0,-113.06127 0.43823,-6.1351 1.75288,-5.69689 2.19111,-5.69689 3.06756,-5.69688 c 6.81435,-11.76626 22.20324,-21.27568 35.49598,-22.34932 29.77718,-3.7541 54.83617,18.81433 55.65419,48.64264 l 0,109.99371 -0.43823,3.06755 -0.43822,6.13511 -1.75289,6.13511 -2.1911,5.69688 -3.06756,5.25867 c -6.7121,11.56175 -22.27628,21.53861 -35.49598,22.34932 -28.29453,4.27266 -56.56715,-19.69808 -55.21597,-48.64264 z m 28.92265,0 0,-110.87016 0.43823,-2.62933 0.43822,-2.62933 1.31466,-2.19111 0.87645,-2.19111 c 4.76931,-5.97443 6.82165,-7.64697 14.46132,-9.20266 12.05111,-1.42422 22.75103,7.44977 22.78755,19.71999 l 0,111.30838 -0.43823,2.19111 -0.43822,2.62933 -0.87644,2.19111 -1.31467,2.19111 c -4.11929,5.95251 -7.35482,7.72001 -14.46132,9.20266 -11.76626,1.84783 -22.6999,-7.96103 -22.78755,-19.71999 z m 98.59995,47.32797 0,-204.64966 c 40.55744,-3.90747 92.17999,-5.1345 95.09416,47.32798 5.79914,51.02364 -11.0578,81.59693 -65.73329,77.12706 l 0,80.19462 -29.36087,0 z m 29.36087,-177.04167 c 17.55079,-1.55569 36.48928,-1.94279 38.56353,19.71999 2.34449,37.17583 2.08156,53.63106 -38.56353,49.51908 l 0,-69.23907"/></g></g></g></svg>