<?xml version="1.0" encoding="UTF-8" standalone="no"?>
<svg xmlns:dc="http://purl.org/dc/elements/1.1/" xmlns:cc="http://creativecommons.org/ns#" xmlns:rdf="http://www.w3.org/1999/02/22-rdf-syntax-ns#" xmlns:svg="http://www.w3.org/2000/svg" xmlns="http://www.w3.org/2000/svg" xmlns:xlink="http://www.w3.org/1999/xlink" xmlns:sodipodi="http://sodipodi.sourceforge.net/DTD/sodipodi-0.dtd" xmlns:inkscape="http://www.inkscape.org/namespaces/inkscape" id="svg2" version="1.1" viewBox="0 0 426 500"><defs id="defs4"><radialGradient r="100.0051" fy="91.648651" fx="491.4762" cy="91.648651" cx="491.4762" gradientTransform="matrix(1.327847,0.422803,-0.25222,0.496391,-132.0524,-119.5639)" gradientUnits="userSpaceOnUse" id="radialGradient11507" xlink:href="#linearGradient20621"/><linearGradient id="linearGradient20621"><stop id="stop20623" offset="0.0000000" style="stop-color:#c6c6c6;stop-opacity:1.0000000;"/><stop id="stop20631" offset="0.57692307" style="stop-color:#393939;stop-opacity:1.0000000;"/><stop id="stop20625" offset="1.0000000" style="stop-color:#000000;stop-opacity:1.0000000;"/></linearGradient><linearGradient y2="505.93338" x2="535.71429" y1="505.93338" x1="300" gradientTransform="matrix(0.64197778,0,0,0.64390144,-3702.7541,-2496.1635)" gradientUnits="userSpaceOnUse" id="linearGradient11509" xlink:href="#linearGradient16202"/><linearGradient id="linearGradient16202"><stop id="stop16204" offset="0" style="stop-color:#000000;stop-opacity:1;"/><stop id="stop16210" offset="0.11779332" style="stop-color:#2a2a2a;stop-opacity:1.0000000;"/><stop id="stop16214" offset="0.68058366" style="stop-color:#2a2a2a;stop-opacity:1.0000000;"/><stop id="stop16212" offset="0.88943279" style="stop-color:#292929;stop-opacity:1.0000000;"/><stop id="stop16206" offset="1.0000000" style="stop-color:#b1b1b1;stop-opacity:1.0000000;"/></linearGradient><radialGradient r="54.285713" fy="326.99408" fx="423.84116" cy="326.99408" cx="423.84116" gradientTransform="matrix(1.367366,-0.00653879,0.00621049,1.298734,-157.7355,-94.91288)" gradientUnits="userSpaceOnUse" id="radialGradient11511" xlink:href="#linearGradient20621"/><linearGradient id="linearGradient5690"><stop id="stop5692" offset="0.0000000" style="stop-color:#c6c6c6;stop-opacity:1.0000000;"/><stop id="stop5694" offset="0.57692307" style="stop-color:#393939;stop-opacity:1.0000000;"/><stop id="stop5696" offset="1.0000000" style="stop-color:#000000;stop-opacity:1.0000000;"/></linearGradient><linearGradient y2="400.74866" x2="408.57144" y1="289.8378" x1="408.57144" gradientUnits="userSpaceOnUse" id="linearGradient11513" xlink:href="#linearGradient3498"/><linearGradient id="linearGradient3498"><stop id="stop3500" offset="0.0000000" style="stop-color:#373737;stop-opacity:1.0000000;"/><stop id="stop3511" offset="0.25961539" style="stop-color:#363636;stop-opacity:1.0000000;"/><stop id="stop3508" offset="0.51923078" style="stop-color:#000000;stop-opacity:1.0000000;"/><stop id="stop3502" offset="1.0000000" style="stop-color:#323232;stop-opacity:1.0000000;"/></linearGradient><radialGradient r="54.285713" fy="326.99408" fx="423.84116" cy="326.99408" cx="423.84116" gradientTransform="matrix(1.367366,-0.00653879,0.00621049,1.298734,-157.7355,-94.91288)" gradientUnits="userSpaceOnUse" id="radialGradient11515" xlink:href="#linearGradient20621"/><linearGradient id="linearGradient5705"><stop id="stop5707" offset="0.0000000" style="stop-color:#c6c6c6;stop-opacity:1.0000000;"/><stop id="stop5709" offset="0.57692307" style="stop-color:#393939;stop-opacity:1.0000000;"/><stop id="stop5711" offset="1.0000000" style="stop-color:#000000;stop-opacity:1.0000000;"/></linearGradient><linearGradient y2="400.74866" x2="408.57144" y1="289.8378" x1="408.57144" gradientUnits="userSpaceOnUse" id="linearGradient11517" xlink:href="#linearGradient3498"/><linearGradient id="linearGradient5714"><stop id="stop5716" offset="0.0000000" style="stop-color:#373737;stop-opacity:1.0000000;"/><stop id="stop5718" offset="0.25961539" style="stop-color:#363636;stop-opacity:1.0000000;"/><stop id="stop5720" offset="0.51923078" style="stop-color:#000000;stop-opacity:1.0000000;"/><stop id="stop5722" offset="1.0000000" style="stop-color:#323232;stop-opacity:1.0000000;"/></linearGradient><radialGradient r="54.285713" fy="326.99408" fx="423.84116" cy="326.99408" cx="423.84116" gradientTransform="matrix(1.367366,-0.00653879,0.00621049,1.298734,-157.7355,-94.91288)" gradientUnits="userSpaceOnUse" id="radialGradient11519" xlink:href="#linearGradient5747"/><linearGradient id="linearGradient5747"><stop id="stop5749" offset="0.0000000" style="stop-color:#89ffa2;stop-opacity:1.0000000;"/><stop id="stop5751" offset="0.42590761" style="stop-color:#00ae24;stop-opacity:1.0000000;"/><stop id="stop5753" offset="0.82026649" style="stop-color:#00ae24;stop-opacity:1.0000000;"/><stop id="stop5755" offset="1.0000000" style="stop-color:#007818;stop-opacity:1.0000000;"/></linearGradient><linearGradient y2="400.74866" x2="408.57144" y1="289.8378" x1="408.57144" gradientUnits="userSpaceOnUse" id="linearGradient11521" xlink:href="#linearGradient3498"/><linearGradient id="linearGradient5731"><stop id="stop5733" offset="0.0000000" style="stop-color:#373737;stop-opacity:1.0000000;"/><stop id="stop5735" offset="0.25961539" style="stop-color:#363636;stop-opacity:1.0000000;"/><stop id="stop5737" offset="0.51923078" style="stop-color:#000000;stop-opacity:1.0000000;"/><stop id="stop5739" offset="1.0000000" style="stop-color:#323232;stop-opacity:1.0000000;"/></linearGradient><linearGradient y2="794.68359" x2="605" y1="636.46936" x1="623.98987" gradientTransform="matrix(0.64100665,0,0,0.64100665,-3675.5404,-2497.904)" gradientUnits="userSpaceOnUse" id="linearGradient11523" xlink:href="#linearGradient12453"/><linearGradient id="linearGradient12453"><stop id="stop12457" offset="0.0000000" style="stop-color:#929292;stop-opacity:1.0000000;"/><stop id="stop12459" offset="0.61538464" style="stop-color:#242424;stop-opacity:1.0000000;"/><stop id="stop12461" offset="1.0000000" style="stop-color:#000000;stop-opacity:1.0000000;"/></linearGradient><linearGradient y2="794.68359" x2="605" y1="636.46936" x1="623.98987" gradientTransform="matrix(0.64100665,0,0,0.64100665,-3675.5404,-2497.904)" gradientUnits="userSpaceOnUse" id="linearGradient11525" xlink:href="#linearGradient12453"/><linearGradient id="linearGradient5748"><stop id="stop5750" offset="0.0000000" style="stop-color:#929292;stop-opacity:1.0000000;"/><stop id="stop5752" offset="0.61538464" style="stop-color:#242424;stop-opacity:1.0000000;"/><stop id="stop5754" offset="1.0000000" style="stop-color:#000000;stop-opacity:1.0000000;"/></linearGradient><linearGradient y2="794.68359" x2="605" y1="636.46936" x1="623.98987" gradientTransform="matrix(0.64100665,0,0,0.64100665,-3675.5404,-2760.7167)" gradientUnits="userSpaceOnUse" id="linearGradient11527" xlink:href="#linearGradient12453"/><linearGradient id="linearGradient5757"><stop id="stop5759" offset="0.0000000" style="stop-color:#929292;stop-opacity:1.0000000;"/><stop id="stop5761" offset="0.61538464" style="stop-color:#242424;stop-opacity:1.0000000;"/><stop id="stop5763" offset="1.0000000" style="stop-color:#000000;stop-opacity:1.0000000;"/></linearGradient><linearGradient y2="794.68359" x2="605" y1="636.46936" x1="623.98987" gradientTransform="matrix(0.64100665,0,0,0.64100665,-3675.5404,-2760.7167)" gradientUnits="userSpaceOnUse" id="linearGradient11529" xlink:href="#linearGradient12453"/><linearGradient id="linearGradient5766"><stop id="stop5768" offset="0.0000000" style="stop-color:#929292;stop-opacity:1.0000000;"/><stop id="stop5770" offset="0.61538464" style="stop-color:#242424;stop-opacity:1.0000000;"/><stop id="stop5772" offset="1.0000000" style="stop-color:#000000;stop-opacity:1.0000000;"/></linearGradient><linearGradient y2="794.68359" x2="605" y1="636.46936" x1="623.98987" gradientTransform="matrix(0.64100665,0,0,0.64100665,-3675.5404,-2629.3104)" gradientUnits="userSpaceOnUse" id="linearGradient11531" xlink:href="#linearGradient12453"/><linearGradient id="linearGradient5775"><stop id="stop5777" offset="0.0000000" style="stop-color:#929292;stop-opacity:1.0000000;"/><stop id="stop5779" offset="0.61538464" style="stop-color:#242424;stop-opacity:1.0000000;"/><stop id="stop5781" offset="1.0000000" style="stop-color:#000000;stop-opacity:1.0000000;"/></linearGradient><linearGradient y2="794.68359" x2="605" y1="636.46936" x1="623.98987" gradientTransform="matrix(0.64100665,0,0,0.64100665,-3675.5404,-2629.3104)" gradientUnits="userSpaceOnUse" id="linearGradient11533" xlink:href="#linearGradient12453"/><linearGradient id="linearGradient5784"><stop id="stop5786" offset="0.0000000" style="stop-color:#929292;stop-opacity:1.0000000;"/><stop id="stop5788" offset="0.61538464" style="stop-color:#242424;stop-opacity:1.0000000;"/><stop id="stop5790" offset="1.0000000" style="stop-color:#000000;stop-opacity:1.0000000;"/></linearGradient><linearGradient y2="794.68359" x2="605" y1="636.46936" x1="573.98987" gradientTransform="matrix(-0.64100665,0,0,0.64100665,-3193.1919,-2497.904)" gradientUnits="userSpaceOnUse" id="linearGradient11535" xlink:href="#linearGradient20572"/><linearGradient id="linearGradient20572"><stop id="stop20574" offset="0.0000000" style="stop-color:#929292;stop-opacity:1.0000000;"/><stop id="stop20576" offset="0.61538464" style="stop-color:#242424;stop-opacity:1.0000000;"/><stop id="stop20578" offset="1.0000000" style="stop-color:#000000;stop-opacity:1.0000000;"/></linearGradient><linearGradient y2="794.68359" x2="605" y1="636.46936" x1="573.98987" gradientTransform="matrix(-0.64100665,0,0,0.64100665,-3193.1919,-2497.904)" gradientUnits="userSpaceOnUse" id="linearGradient11537" xlink:href="#linearGradient20572"/><linearGradient id="linearGradient5798"><stop id="stop5800" offset="0.0000000" style="stop-color:#929292;stop-opacity:1.0000000;"/><stop id="stop5802" offset="0.61538464" style="stop-color:#242424;stop-opacity:1.0000000;"/><stop id="stop5804" offset="1.0000000" style="stop-color:#000000;stop-opacity:1.0000000;"/></linearGradient><linearGradient y2="794.68359" x2="605" y1="636.46936" x1="579.70416" gradientTransform="matrix(-0.64100665,0,0,0.64100665,-3193.1919,-2760.7167)" gradientUnits="userSpaceOnUse" id="linearGradient11539" xlink:href="#linearGradient20572"/><linearGradient id="linearGradient5807"><stop id="stop5809" offset="0.0000000" style="stop-color:#929292;stop-opacity:1.0000000;"/><stop id="stop5811" offset="0.61538464" style="stop-color:#242424;stop-opacity:1.0000000;"/><stop id="stop5813" offset="1.0000000" style="stop-color:#000000;stop-opacity:1.0000000;"/></linearGradient><linearGradient y2="794.68359" x2="605" y1="636.46936" x1="579.70416" gradientTransform="matrix(-0.64100665,0,0,0.64100665,-3193.1919,-2760.7167)" gradientUnits="userSpaceOnUse" id="linearGradient11541" xlink:href="#linearGradient20572"/><linearGradient id="linearGradient5816"><stop id="stop5818" offset="0.0000000" style="stop-color:#929292;stop-opacity:1.0000000;"/><stop id="stop5820" offset="0.61538464" style="stop-color:#242424;stop-opacity:1.0000000;"/><stop id="stop5822" offset="1.0000000" style="stop-color:#000000;stop-opacity:1.0000000;"/></linearGradient><linearGradient y2="794.68359" x2="605" y1="636.46936" x1="575.41846" gradientTransform="matrix(-0.64100665,0,0,0.64100665,-3193.1919,-2629.3104)" gradientUnits="userSpaceOnUse" id="linearGradient11543" xlink:href="#linearGradient20572"/><linearGradient id="linearGradient5825"><stop id="stop5827" offset="0.0000000" style="stop-color:#929292;stop-opacity:1.0000000;"/><stop id="stop5829" offset="0.61538464" style="stop-color:#242424;stop-opacity:1.0000000;"/><stop id="stop5831" offset="1.0000000" style="stop-color:#000000;stop-opacity:1.0000000;"/></linearGradient><linearGradient y2="794.68359" x2="605" y1="636.46936" x1="575.41846" gradientTransform="matrix(-0.64100665,0,0,0.64100665,-3193.1919,-2629.3104)" gradientUnits="userSpaceOnUse" id="linearGradient11545" xlink:href="#linearGradient20572"/><linearGradient id="linearGradient5834"><stop id="stop5836" offset="0.0000000" style="stop-color:#929292;stop-opacity:1.0000000;"/><stop id="stop5838" offset="0.61538464" style="stop-color:#242424;stop-opacity:1.0000000;"/><stop id="stop5840" offset="1.0000000" style="stop-color:#000000;stop-opacity:1.0000000;"/></linearGradient></defs><metadata id="metadata7"><rdf:RDF><cc:Work rdf:about=""><dc:format>image/svg+xml</dc:format><dc:type rdf:resource="http://purl.org/dc/dcmitype/StillImage"/><dc:title/></cc:Work></rdf:RDF></metadata><g id="layer1" transform="translate(4771.6672,2676.5023)"><g transform="matrix(1.1363637,0,0,1.1363637,-656.29686,58.376397)" id="g11421"><path d="m 535.38083,160.39749 c 0,27.3367 -44.77381,49.49748 -100.0051,49.49748 -55.23129,0 -100.00509,-22.16078 -100.00509,-49.49748 0,-27.3367 44.7738,-49.49747 100.00509,-49.49747 55.23129,0 100.0051,22.16077 100.0051,49.49747 z" id="path9573" style="color:#000000;fill:url(#radialGradient11507);fill-opacity:1;fill-rule:nonzero;stroke:none;stroke-width:8.28270054;marker:none;visibility:visible;display:inline;overflow:visible" transform="matrix(0.58968253,0,0,0.74490678,-3690.6485,-2489.3033)"/><rect height="407.39841" id="rect9575" style="color:#000000;fill:url(#linearGradient11509);fill-opacity:1;fill-rule:nonzero;stroke:none;stroke-width:7.49999905;marker:none;visibility:visible;display:inline;overflow:visible" width="151.32335" x="-3510.1606" y="-2374.0916"/><rect height="129.57491" id="rect9581" ry="0" style="color:#000000;fill:#242424;fill-opacity:1;fill-rule:nonzero;stroke:none;stroke-width:7.5;marker:none;visibility:visible;display:inline;overflow:visible" width="129.57491" x="-3498.7141" y="-2366.3569"/><path d="m -3368.9758,-2366.5091 -129.5548,0 5.2349,5.2349 119.0849,0 5.235,-5.2349 z" id="path9583" style="fill:#4c4c4c;fill-opacity:1;fill-rule:evenodd;stroke:none"/><path d="m -3368.9758,-2236.6305 -129.8786,0 5.235,-5.235 119.4086,0 5.235,5.235 z" id="path9585" style="fill:#000000;fill-opacity:1;fill-rule:evenodd;stroke:none"/><path d="m -3498.8544,-2366.8329 0,130.2024 5.235,-5.235 0,-119.7324 -5.235,-5.235 z" id="path9587" style="fill:#000000;fill-opacity:1;fill-rule:evenodd;stroke:none"/><path d="m -3368.9758,-2366.5091 0,129.8786 -5.235,-5.235 0,-119.4087 5.235,-5.2349 z" id="path9589" style="fill:#4c4c4c;fill-opacity:1;fill-rule:evenodd;stroke:none"/><path d="m 462.85715,343.79074 c 0,29.98117 -24.30454,54.28571 -54.28571,54.28571 -29.98117,0 -54.28571,-24.30454 -54.28571,-54.28571 0,-29.98117 24.30454,-54.28571 54.28571,-54.28571 29.98117,0 54.28571,24.30454 54.28571,54.28571 z" id="path9593" style="color:#000000;fill:url(#radialGradient11511);fill-opacity:1;fill-rule:nonzero;stroke:none;stroke-width:5.34439707;marker:none;visibility:visible;display:inline;overflow:visible" transform="matrix(0.89954963,0,0,0.89954963,-3801.457,-2610.9885)"/><path d="m 462.85715,343.79074 c 0,29.98117 -24.30454,54.28571 -54.28571,54.28571 -29.98117,0 -54.28571,-24.30454 -54.28571,-54.28571 0,-29.98117 24.30454,-54.28571 54.28571,-54.28571 29.98117,0 54.28571,24.30454 54.28571,54.28571 z" id="path9595" style="color:#000000;fill:none;stroke:url(#linearGradient11513);stroke-width:5.34439707;stroke-linecap:round;stroke-linejoin:round;stroke-miterlimit:4;stroke-opacity:1;stroke-dasharray:none;stroke-dashoffset:0;marker:none;visibility:visible;display:inline;overflow:visible" transform="matrix(0.89954963,0,0,0.89954963,-3801.457,-2610.9885)"/><rect height="129.57491" id="rect9601" ry="0" style="color:#000000;fill:#242424;fill-opacity:1;fill-rule:nonzero;stroke:none;stroke-width:7.5;marker:none;visibility:visible;display:inline;overflow:visible" width="129.57491" x="-3498.7141" y="-2234.9507"/><path d="m -3368.9758,-2235.1027 -129.5548,0 5.2349,5.2349 119.0849,0 5.235,-5.2349 z" id="path9603" style="fill:#4c4c4c;fill-opacity:1;fill-rule:evenodd;stroke:none"/><path d="m -3368.9758,-2105.2241 -129.8786,0 5.235,-5.235 119.4086,0 5.235,5.235 z" id="path9605" style="fill:#000000;fill-opacity:1;fill-rule:evenodd;stroke:none"/><path d="m -3498.8544,-2235.4265 0,130.2024 5.235,-5.235 0,-119.7324 -5.235,-5.235 z" id="path9607" style="fill:#000000;fill-opacity:1;fill-rule:evenodd;stroke:none"/><path d="m -3368.9758,-2235.1027 0,129.8786 -5.235,-5.235 0,-119.4087 5.235,-5.2349 z" id="path9609" style="fill:#4c4c4c;fill-opacity:1;fill-rule:evenodd;stroke:none"/><path d="m 462.85715,343.79074 c 0,29.98117 -24.30454,54.28571 -54.28571,54.28571 -29.98117,0 -54.28571,-24.30454 -54.28571,-54.28571 0,-29.98117 24.30454,-54.28571 54.28571,-54.28571 29.98117,0 54.28571,24.30454 54.28571,54.28571 z" id="path9613" style="color:#000000;fill:url(#radialGradient11515);fill-opacity:1;fill-rule:nonzero;stroke:none;stroke-width:5.34439707;marker:none;visibility:visible;display:inline;overflow:visible" transform="matrix(0.89954963,0,0,0.89954963,-3801.457,-2479.5822)"/><path d="m 462.85715,343.79074 c 0,29.98117 -24.30454,54.28571 -54.28571,54.28571 -29.98117,0 -54.28571,-24.30454 -54.28571,-54.28571 0,-29.98117 24.30454,-54.28571 54.28571,-54.28571 29.98117,0 54.28571,24.30454 54.28571,54.28571 z" id="path9615" style="color:#000000;fill:none;stroke:url(#linearGradient11517);stroke-width:5.34439707;stroke-linecap:round;stroke-linejoin:round;stroke-miterlimit:4;stroke-opacity:1;stroke-dasharray:none;stroke-dashoffset:0;marker:none;visibility:visible;display:inline;overflow:visible" transform="matrix(0.89954963,0,0,0.89954963,-3801.457,-2479.5822)"/><rect height="129.57491" id="rect9621" ry="0" style="color:#000000;fill:#242424;fill-opacity:1;fill-rule:nonzero;stroke:none;stroke-width:7.5;marker:none;visibility:visible;display:inline;overflow:visible" width="129.57491" x="-3498.7141" y="-2103.5444"/><path d="m -3368.9758,-2103.6964 -129.5548,0 5.2349,5.2349 119.0849,0 5.235,-5.2349 z" id="path9623" style="fill:#4c4c4c;fill-opacity:1;fill-rule:evenodd;stroke:none"/><path d="m -3368.9758,-1973.8178 -129.8786,0 5.235,-5.235 119.4086,0 5.235,5.235 z" id="path9625" style="fill:#000000;fill-opacity:1;fill-rule:evenodd;stroke:none"/><path d="m -3498.8544,-2104.0202 0,130.2024 5.235,-5.235 0,-119.7324 -5.235,-5.235 z" id="path9627" style="fill:#000000;fill-opacity:1;fill-rule:evenodd;stroke:none"/><path d="m -3368.9758,-2103.6964 0,129.8786 -5.235,-5.235 0,-119.4087 5.235,-5.2349 z" id="path9629" style="fill:#4c4c4c;fill-opacity:1;fill-rule:evenodd;stroke:none"/><path d="m 462.85715,343.79074 c 0,29.98117 -24.30454,54.28571 -54.28571,54.28571 -29.98117,0 -54.28571,-24.30454 -54.28571,-54.28571 0,-29.98117 24.30454,-54.28571 54.28571,-54.28571 29.98117,0 54.28571,24.30454 54.28571,54.28571 z" id="path9633" style="color:#000000;fill:url(#radialGradient11519);fill-opacity:1;fill-rule:nonzero;stroke:none;stroke-width:5.34439707;marker:none;visibility:visible;display:inline;overflow:visible" transform="matrix(0.89954963,0,0,0.89954963,-3801.4454,-2348.1758)"/><path d="m 462.85715,343.79074 c 0,29.98117 -24.30454,54.28571 -54.28571,54.28571 -29.98117,0 -54.28571,-24.30454 -54.28571,-54.28571 0,-29.98117 24.30454,-54.28571 54.28571,-54.28571 29.98117,0 54.28571,24.30454 54.28571,54.28571 z" id="path9635" style="color:#000000;fill:none;stroke:url(#linearGradient11521);stroke-width:5.34439707;stroke-linecap:round;stroke-linejoin:round;stroke-miterlimit:4;stroke-opacity:1;stroke-dasharray:none;stroke-dashoffset:0;marker:none;visibility:visible;display:inline;overflow:visible" transform="matrix(0.89954963,0,0,0.89954963,-3801.4454,-2348.1758)"/><path style="color:#000000;fill:url(#linearGradient11523);fill-opacity:1;fill-rule:nonzero;stroke:url(#linearGradient11525);stroke-width:4.80755043;stroke-linecap:round;stroke-linejoin:miter;stroke-miterlimit:4;stroke-opacity:1;stroke-dasharray:none;stroke-dashoffset:0;marker:none;visibility:visible;display:inline;overflow:visible" id="path9639" d="m -3342.6748,-1990.9103 0.9157,-96.6088 92.0303,0 c -0.3506,22.1625 4.91,29.4793 -29.1685,57.5432 -17.9932,14.8175 -27.208,18.9517 -28.0643,39.0656 l -35.7132,0 z"/><rect y="-2103.6873" x="-3358.7" width="10.072959" style="color:#000000;fill:#242424;fill-opacity:1;fill-rule:nonzero;stroke:none;stroke-width:7.5;marker:none;visibility:visible;display:inline;overflow:visible" ry="0" id="rect9641" height="129.83246"/><path style="fill:#4c4c4c;fill-opacity:1;fill-rule:evenodd;stroke:none" id="path9643" d="m -3348.6506,-2103.6964 0,129.8786 5.2349,-5.235 0,-119.4086 -5.2349,-5.235 z"/><path style="color:#000000;fill:url(#linearGradient11527);fill-opacity:1;fill-rule:nonzero;stroke:url(#linearGradient11529);stroke-width:4.80755043;stroke-linecap:round;stroke-linejoin:miter;stroke-miterlimit:4;stroke-opacity:1;stroke-dasharray:none;stroke-dashoffset:0;marker:none;visibility:visible;display:inline;overflow:visible" id="path9647" d="m -3342.6748,-2253.723 0.9157,-96.6088 92.0303,0 c -0.3506,22.1625 4.91,29.4793 -29.1685,57.5432 -17.9932,14.8175 -27.208,18.9517 -28.0643,39.0656 l -35.7132,0 z"/><rect y="-2366.5" x="-3358.7" width="10.072959" style="color:#000000;fill:#242424;fill-opacity:1;fill-rule:nonzero;stroke:none;stroke-width:7.5;marker:none;visibility:visible;display:inline;overflow:visible" ry="0" id="rect9649" height="129.83246"/><path style="fill:#4c4c4c;fill-opacity:1;fill-rule:evenodd;stroke:none" id="path9651" d="m -3348.6506,-2366.5091 0,129.8786 5.2349,-5.235 0,-119.4086 -5.2349,-5.235 z"/><path style="color:#000000;fill:url(#linearGradient11531);fill-opacity:1;fill-rule:nonzero;stroke:url(#linearGradient11533);stroke-width:4.80755043;stroke-linecap:round;stroke-linejoin:miter;stroke-miterlimit:4;stroke-opacity:1;stroke-dasharray:none;stroke-dashoffset:0;marker:none;visibility:visible;display:inline;overflow:visible" id="path9655" d="m -3342.6748,-2122.3167 0.9157,-96.6088 92.0303,0 c -0.3506,22.1625 4.91,29.4793 -29.1685,57.5432 -17.9932,14.8175 -27.208,18.9517 -28.0643,39.0656 l -35.7132,0 z"/><rect y="-2235.0938" x="-3358.7" width="10.072959" style="color:#000000;fill:#242424;fill-opacity:1;fill-rule:nonzero;stroke:none;stroke-width:7.5;marker:none;visibility:visible;display:inline;overflow:visible" ry="0" id="rect9657" height="129.83246"/><path style="fill:#4c4c4c;fill-opacity:1;fill-rule:evenodd;stroke:none" id="path9659" d="m -3348.6506,-2235.1028 0,129.8786 5.2349,-5.235 0,-119.4086 -5.2349,-5.235 z"/><path style="color:#000000;fill:url(#linearGradient11535);fill-opacity:1;fill-rule:nonzero;stroke:url(#linearGradient11537);stroke-width:4.80755043;stroke-linecap:round;stroke-linejoin:miter;stroke-miterlimit:4;stroke-opacity:1;stroke-dasharray:none;stroke-dashoffset:0;marker:none;visibility:visible;display:inline;overflow:visible" id="path9663" d="m -3526.0575,-1990.9103 -0.9157,-96.6088 -92.0303,0 c 0.3506,22.1625 -4.91,29.4793 29.1685,57.5432 17.9932,14.8175 27.208,18.9517 28.0643,39.0656 l 35.7132,0 z"/><rect y="-2103.6873" x="3510.0322" width="10.072959" style="color:#000000;fill:#242424;fill-opacity:1;fill-rule:nonzero;stroke:none;stroke-width:7.5;marker:none;visibility:visible;display:inline;overflow:visible" ry="0" id="rect9665" height="129.83246" transform="scale(-1,1)"/><path style="fill:#000000;fill-opacity:1;fill-rule:evenodd;stroke:none" id="path9667" d="m -3520.0817,-2103.6964 0,129.8786 -5.2349,-5.235 0,-119.4086 5.2349,-5.235 z"/><path style="color:#000000;fill:url(#linearGradient11539);fill-opacity:1;fill-rule:nonzero;stroke:url(#linearGradient11541);stroke-width:4.80755043;stroke-linecap:round;stroke-linejoin:miter;stroke-miterlimit:4;stroke-opacity:1;stroke-dasharray:none;stroke-dashoffset:0;marker:none;visibility:visible;display:inline;overflow:visible" id="path9671" d="m -3526.0575,-2253.723 -0.9157,-96.6088 -92.0303,0 c 0.3506,22.1625 -4.91,29.4793 29.1685,57.5432 17.9932,14.8175 27.208,18.9517 28.0643,39.0656 l 35.7132,0 z"/><rect y="-2366.5" x="3510.0322" width="10.072959" style="color:#000000;fill:#242424;fill-opacity:1;fill-rule:nonzero;stroke:none;stroke-width:7.5;marker:none;visibility:visible;display:inline;overflow:visible" ry="0" id="rect9673" height="129.83246" transform="scale(-1,1)"/><path style="fill:#000000;fill-opacity:1;fill-rule:evenodd;stroke:none" id="path9675" d="m -3520.0817,-2366.5091 0,129.8786 -5.2349,-5.235 0,-119.4086 5.2349,-5.235 z"/><path style="color:#000000;fill:url(#linearGradient11543);fill-opacity:1;fill-rule:nonzero;stroke:url(#linearGradient11545);stroke-width:4.80755043;stroke-linecap:round;stroke-linejoin:miter;stroke-miterlimit:4;stroke-opacity:1;stroke-dasharray:none;stroke-dashoffset:0;marker:none;visibility:visible;display:inline;overflow:visible" id="path9679" d="m -3526.0575,-2122.3167 -0.9157,-96.6088 -92.0303,0 c 0.3506,22.1625 -4.91,29.4793 29.1685,57.5432 17.9932,14.8175 27.208,18.9517 28.0643,39.0656 l 35.7132,0 z"/><rect y="-2235.0938" x="3510.0322" width="10.072959" style="color:#000000;fill:#242424;fill-opacity:1;fill-rule:nonzero;stroke:none;stroke-width:7.5;marker:none;visibility:visible;display:inline;overflow:visible" ry="0" id="rect9681" height="129.83246" transform="scale(-1,1)"/><path style="fill:#000000;fill-opacity:1;fill-rule:evenodd;stroke:none" id="path9683" d="m -3520.0817,-2235.1028 0,129.8786 -5.2349,-5.235 0,-119.4086 5.2349,-5.235 z"/><path d="m -3526.0575,-2253.723 -0.9157,-96.6088 c 0,0 -15.8988,14.3699 -62.8618,57.5432 17.9932,14.8175 27.208,18.9517 28.0643,39.0656 l 35.7132,0 z" id="path9685" style="opacity:0.24999994;color:#000000;fill:#000000;fill-opacity:1;fill-rule:nonzero;stroke:#000000;stroke-width:4.80755043;stroke-linecap:round;stroke-linejoin:miter;stroke-miterlimit:4;stroke-opacity:1;stroke-dasharray:none;stroke-dashoffset:0;marker:none;visibility:visible;display:inline;overflow:visible"/><path d="m -3526.0575,-2122.3167 -0.9157,-96.6088 -92.0303,0 c 0.3506,22.1625 -4.91,29.4793 29.1685,57.5432 17.9932,14.8175 27.208,18.9517 28.0643,39.0656 l 35.7132,0 z" id="path9687" style="opacity:0.24999994;color:#000000;fill:#000000;fill-opacity:1;fill-rule:nonzero;stroke:#000000;stroke-width:4.80755043;stroke-linecap:round;stroke-linejoin:miter;stroke-miterlimit:4;stroke-opacity:1;stroke-dasharray:none;stroke-dashoffset:0;marker:none;visibility:visible;display:inline;overflow:visible"/><path d="m -3526.0575,-1990.9103 -0.9157,-96.6088 -92.0303,0 c 0.3506,22.1625 -4.91,29.4793 29.1685,57.5432 17.9932,14.8175 27.208,18.9517 28.0643,39.0656 l 35.7132,0 z" id="path9689" style="opacity:0.24999994;color:#000000;fill:#000000;fill-opacity:1;fill-rule:nonzero;stroke:#000000;stroke-width:4.80755043;stroke-linecap:round;stroke-linejoin:miter;stroke-miterlimit:4;stroke-opacity:1;stroke-dasharray:none;stroke-dashoffset:0;marker:none;visibility:visible;display:inline;overflow:visible"/></g></g></svg>