<?xml version="1.0" encoding="UTF-8" standalone="no"?>
<svg xmlns:dc="http://purl.org/dc/elements/1.1/" xmlns:cc="http://creativecommons.org/ns#" xmlns:rdf="http://www.w3.org/1999/02/22-rdf-syntax-ns#" xmlns:svg="http://www.w3.org/2000/svg" xmlns="http://www.w3.org/2000/svg" xmlns:sodipodi="http://sodipodi.sourceforge.net/DTD/sodipodi-0.dtd" xmlns:inkscape="http://www.inkscape.org/namespaces/inkscape" id="svg2" version="1.1" viewBox="0 0 500 440"><defs id="defs4"/><metadata id="metadata7"><rdf:RDF><cc:Work rdf:about=""><dc:format>image/svg+xml</dc:format><dc:type rdf:resource="http://purl.org/dc/dcmitype/StillImage"/><dc:title/></cc:Work></rdf:RDF></metadata><g id="layer1" transform="translate(2573.7284,1547.0575)"><g transform="translate(13087.605,-1277.7637)" id="g7609"><g id="g3637" transform="translate(-12772.653,2022.5676)"><g id="g5043" transform="translate(-240.58607,363.27675)"><g id="g5045"><g transform="translate(2639.6087,-727.89124)" id="g5047"><g transform="matrix(0.99999834,0,0,1.0009179,-3285.3129,-1756.434)" id="g5049"><path id="path5051" d="m -1729.657,-157.23924 c -4.4566,-7.70081 -13.1754,-12.51819 -22.7409,-12.51819 -9.7394,0 -18.4615,5.08085 -23.0023,12.928 l -222.2004,384.02127 c -4.7688,8.24191 -5.4749,18.62338 -0.3734,27.4394 4.8697,8.41541 13.6405,13.41233 22.7223,13.41233 l 445.7076,0 c 9.0817,0 17.8525,-4.99698 22.7222,-13.41233 5.1016,-8.81596 4.3958,-19.19774 -0.3734,-27.4394 l -222.4617,-384.43108 z" style="fill:#ffffff;fill-opacity:1;fill-rule:nonzero;stroke:#000000;stroke-width:1.79633701;stroke-linecap:round;stroke-linejoin:round;stroke-miterlimit:2;stroke-opacity:1;stroke-dasharray:none;stroke-dashoffset:0"/><path style="fill:#d40000;fill-opacity:1;fill-rule:nonzero;stroke:none" d="m -1752.3918,-161.75994 c 6.5396,0 12.22,3.32868 14.949,8.05523 l 222.4555,385.3022 c 3.3263,5.76134 3.7682,12.63048 0.3746,18.50829 -3.3028,5.72052 -9.1544,8.93566 -14.9303,8.93572 l -445.7164,0 c -5.7759,0 -11.6274,-3.21508 -14.9302,-8.93572 -3.3936,-5.87781 -2.9517,-12.74635 0.3747,-18.50829 l 222.1931,-384.89007 c 2.8883,-5.0026 8.6251,-8.46736 15.23,-8.46736 z" id="path5053"/><path style="fill:#ffffff;fill-opacity:1;fill-rule:nonzero;stroke:none" d="m -1752.4105,-83.717877 170.2088,294.802657 -340.3989,0 170.1901,-294.802657 z" id="path5055"/></g></g></g></g></g><g id="g3659" transform="matrix(0.72590435,0,0,0.72590435,-13029.515,1463.9237)"><path d="m -3298.4419,-2122.7731 c -10.9001,-0.031 -19.8314,8.903 -19.8625,19.844 l -0.062,19.844 c -5e-4,0.1805 0.057,0.3476 0.062,0.5271 -4.3916,2.5671 -7.3672,7.2845 -7.3828,12.7745 l -0.062,19.844 c -0.022,7.7782 5.8455,14.0743 13.4064,14.7899 l -0.062,21.7974 c 0,0.5497 0.4409,0.9906 0.9885,0.9922 l 9.8849,0.031 c 0.5476,0 0.9869,-0.4425 0.9885,-0.9922 l 0.062,-21.6423 73.2409,0.217 -0.062,21.3633 c 0,0.5496 0.4408,0.9906 0.9884,0.9922 l 9.8849,0.031 c 0.5477,0 0.987,-0.4425 0.9885,-0.9922 l 0.062,-21.5493 c 7.4004,-0.8295 13.1684,-7.0361 13.1902,-14.697 l 0.062,-19.8439 c 0.016,-5.5216 -2.9947,-10.2548 -7.4137,-12.8366 0,-0.1678 0.03,-0.3273 0.031,-0.4961 l 0.062,-19.844 c 0.031,-10.9409 -8.9006,-19.9368 -19.8007,-19.968 l -69.1942,-0.186 z m 0,10.046 69.1633,0.1861 c 5.5286,0.016 9.8389,4.3417 9.8231,9.8909 l -0.031,18.2937 -88.8404,-0.2481 0.031,-18.2936 c 0.016,-5.5493 4.3254,-9.8448 9.854,-9.829 z" id="path872" style="font-size:12px;fill-rule:evenodd;stroke:#000000;stroke-width:1.23793006"/><path d="m -3335.9508,-2075.4303 c -11.6616,-0.036 -21.217,10.1914 -21.2502,22.7159 l -0.066,22.7158 c -6e-4,0.2067 0.062,0.398 0.066,0.6034 -4.6985,2.9387 -7.8819,8.3388 -7.8986,14.6234 l -0.066,22.7158 c -0.024,8.9039 6.2539,16.1112 14.3431,16.9305 l -0.066,24.9519 c 0,0.6292 0.4716,1.134 1.0575,1.1358 l 10.5756,0.035 c 0.5858,0 1.0558,-0.5066 1.0575,-1.1358 l 0.066,-24.7745 78.3582,0.2485 -0.066,24.455 c 0,0.6292 0.4716,1.134 1.0575,1.1358 l 10.5756,0.035 c 0.5858,0 1.0558,-0.5065 1.0575,-1.1358 l 0.066,-24.668 c 7.9174,-0.9495 14.0885,-8.0544 14.1117,-16.8239 l 0.066,-22.7159 c 0.017,-6.3207 -3.2038,-11.7389 -7.9316,-14.6943 0.01,-0.1921 0.033,-0.3747 0.033,-0.5679 l 0.066,-22.7159 c 0.033,-12.5244 -9.5225,-22.8221 -21.1841,-22.8578 l -74.0288,-0.213 z m 0,11.4999 73.9958,0.213 c 5.9148,0.018 10.5263,4.97 10.5094,11.3224 l -0.033,20.9412 -95.0477,-0.284 0.033,-20.9411 c 0.017,-6.3525 4.6277,-11.2696 10.5425,-11.2515 z" id="path876" style="font-size:12px;fill-rule:evenodd;stroke:#ffffff;stroke-width:5"/><path d="m -3335.9508,-2075.4303 c -11.6616,-0.036 -21.217,10.1914 -21.2502,22.7159 l -0.066,22.7158 c -6e-4,0.2067 0.062,0.398 0.066,0.6034 -4.6985,2.9387 -7.8819,8.3388 -7.8986,14.6234 l -0.066,22.7158 c -0.024,8.9039 6.2539,16.1112 14.3431,16.9305 l -0.066,24.9519 c 0,0.6292 0.4716,1.134 1.0575,1.1358 l 10.5756,0.035 c 0.5858,0 1.0558,-0.5066 1.0575,-1.1358 l 0.066,-24.7745 78.3582,0.2485 -0.066,24.455 c 0,0.6292 0.4716,1.134 1.0575,1.1358 l 10.5756,0.035 c 0.5858,0 1.0558,-0.5065 1.0575,-1.1358 l 0.066,-24.668 c 7.9174,-0.9495 14.0885,-8.0544 14.1117,-16.8239 l 0.066,-22.7159 c 0.017,-6.3207 -3.2038,-11.7389 -7.9316,-14.6943 0.01,-0.1921 0.033,-0.3747 0.033,-0.5679 l 0.066,-22.7159 c 0.033,-12.5244 -9.5225,-22.8221 -21.1841,-22.8578 l -74.0288,-0.213 z m 0,11.4999 73.9958,0.213 c 5.9148,0.018 10.5263,4.97 10.5094,11.3224 l -0.033,20.9412 -95.0477,-0.284 0.033,-20.9411 c 0.017,-6.3525 4.6277,-11.2696 10.5425,-11.2515 z" id="path874" style="font-size:12px;fill-rule:evenodd;stroke:#000000;stroke-width:1.36996996"/><path d="m -3375.3174,-2022.8042 c -12.106,-0.036 -22.0253,10.1914 -22.0598,22.7158 l -0.069,22.7159 c -6e-4,0.2067 0.064,0.398 0.069,0.6034 -4.8775,2.9387 -8.1822,8.3388 -8.1995,14.6233 l -0.069,22.7159 c -0.024,8.9039 6.4921,16.1112 14.8895,16.9304 l -0.069,24.952 c 0,0.6292 0.4896,1.134 1.0978,1.1358 l 10.9784,0.036 c 0.6082,0 1.0961,-0.5066 1.0979,-1.1358 l 0.069,-24.7745 81.3432,0.2484 -0.069,24.4551 c 0,0.6292 0.4896,1.134 1.0978,1.1358 l 10.9785,0.035 c 0.6082,0 1.0961,-0.5066 1.0978,-1.1358 l 0.069,-24.668 c 8.219,-0.9495 14.6252,-8.0544 14.6493,-16.824 l 0.069,-22.7158 c 0.017,-6.3208 -3.3259,-11.739 -8.2338,-14.6944 0.01,-0.1921 0.034,-0.3746 0.034,-0.5679 l 0.069,-22.7158 c 0.035,-12.5244 -9.8852,-22.8222 -21.9911,-22.8579 l -76.849,-0.2129 z m 0,11.4999 76.8146,0.2129 c 6.1401,0.018 10.9273,4.9701 10.9098,11.3225 l -0.034,20.9412 -98.6686,-0.284 0.034,-20.9412 c 0.017,-6.3524 4.804,-11.2695 10.9442,-11.2514 z" id="path877" style="font-size:12px;fill-rule:evenodd;stroke:#ffffff;stroke-width:5"/><path d="m -3375.3174,-2022.8042 c -12.106,-0.036 -22.0253,10.1914 -22.0598,22.7158 l -0.069,22.7159 c -6e-4,0.2067 0.064,0.398 0.069,0.6034 -4.8775,2.9387 -8.1822,8.3388 -8.1995,14.6233 l -0.069,22.7159 c -0.024,8.9039 6.4921,16.1112 14.8895,16.9304 l -0.069,24.952 c 0,0.6292 0.4896,1.134 1.0978,1.1358 l 10.9784,0.036 c 0.6082,0 1.0961,-0.5066 1.0979,-1.1358 l 0.069,-24.7745 81.3432,0.2484 -0.069,24.4551 c 0,0.6292 0.4896,1.134 1.0978,1.1358 l 10.9785,0.035 c 0.6082,0 1.0961,-0.5066 1.0978,-1.1358 l 0.069,-24.668 c 8.219,-0.9495 14.6252,-8.0544 14.6493,-16.824 l 0.069,-22.7158 c 0.017,-6.3208 -3.3259,-11.739 -8.2338,-14.6944 0.01,-0.1921 0.034,-0.3746 0.034,-0.5679 l 0.069,-22.7158 c 0.035,-12.5244 -9.8852,-22.8222 -21.9911,-22.8579 l -76.849,-0.2129 z m 0,11.4999 76.8146,0.2129 c 6.1401,0.018 10.9273,4.9701 10.9098,11.3225 l -0.034,20.9412 -98.6686,-0.284 0.034,-20.9412 c 0.017,-6.3524 4.804,-11.2695 10.9442,-11.2514 z" id="path875" style="font-size:12px;fill-rule:evenodd;stroke:#000000;stroke-width:1.39583004"/></g></g></g></svg>