<?xml version="1.0" encoding="UTF-8" standalone="no"?>
<svg xmlns:dc="http://purl.org/dc/elements/1.1/" xmlns:cc="http://creativecommons.org/ns#" xmlns:rdf="http://www.w3.org/1999/02/22-rdf-syntax-ns#" xmlns:svg="http://www.w3.org/2000/svg" xmlns="http://www.w3.org/2000/svg" xmlns:sodipodi="http://sodipodi.sourceforge.net/DTD/sodipodi-0.dtd" xmlns:inkscape="http://www.inkscape.org/namespaces/inkscape" id="svg2" version="1.1" viewBox="0 0 500 440"><defs id="defs4"/><metadata id="metadata7"><rdf:RDF><cc:Work rdf:about=""><dc:format>image/svg+xml</dc:format><dc:type rdf:resource="http://purl.org/dc/dcmitype/StillImage"/><dc:title/></cc:Work></rdf:RDF></metadata><g id="layer1" transform="translate(1492.6504,523.3391)"><g transform="translate(15246.512,-257.7491)" id="g7597"><g id="g5030" transform="translate(-11476.638,1658.06)"><g transform="translate(-187.04149,0)" id="g5007"><g transform="matrix(0.99999834,0,0,1.0009179,-3073.0927,-1752.8371)" id="g4656"><path id="path4658" d="m -1729.657,-157.23924 c -4.4566,-7.70081 -13.1754,-12.51819 -22.7409,-12.51819 -9.7394,0 -18.4615,5.08085 -23.0023,12.928 l -222.2004,384.02127 c -4.7688,8.24191 -5.4749,18.62338 -0.3734,27.4394 4.8697,8.41541 13.6405,13.41233 22.7223,13.41233 l 445.7076,0 c 9.0817,0 17.8525,-4.99698 22.7222,-13.41233 5.1016,-8.81596 4.3958,-19.19774 -0.3734,-27.4394 l -222.4617,-384.43108 z" style="fill:#ffffff;fill-opacity:1;fill-rule:nonzero;stroke:#000000;stroke-width:1.79633701;stroke-linecap:round;stroke-linejoin:round;stroke-miterlimit:2;stroke-opacity:1;stroke-dasharray:none;stroke-dashoffset:0"/><path style="fill:#d40000;fill-opacity:1;fill-rule:nonzero;stroke:none" d="m -1752.3918,-161.75994 c 6.5396,0 12.22,3.32868 14.949,8.05523 l 222.4555,385.3022 c 3.3263,5.76134 3.7682,12.63048 0.3746,18.50829 -3.3028,5.72052 -9.1544,8.93566 -14.9303,8.93572 l -445.7164,0 c -5.7759,0 -11.6274,-3.21508 -14.9302,-8.93572 -3.3936,-5.87781 -2.9517,-12.74635 0.3747,-18.50829 l 222.1931,-384.89007 c 2.8883,-5.0026 8.6251,-8.46736 15.23,-8.46736 z" id="path4660"/><path style="fill:#ffffff;fill-opacity:1;fill-rule:nonzero;stroke:none" d="m -1752.4105,-83.717877 170.2088,294.802657 -340.3989,0 170.1901,-294.802657 z" id="path4662"/></g></g></g><g id="g4381" transform="translate(-13582.082,-100.84944)"><path transform="matrix(2.0597733,0,0,2.0597733,-3124.0375,-168.65409)" d="m 121.18959,87.484512 c 0,8.759907 -7.10131,15.861218 -15.86121,15.861218 -8.75991,0 -15.861218,-7.101311 -15.861218,-15.861218 0,-8.759907 7.101308,-15.861214 15.861218,-15.861214 8.7599,0 15.86121,7.101307 15.86121,15.861214 z" id="path1918" style="fill:#d40000;fill-opacity:1;fill-rule:evenodd;stroke:#000000;stroke-width:0.58206296;stroke-linecap:round;stroke-linejoin:round;stroke-miterlimit:4;stroke-opacity:1;stroke-dasharray:none"/><path style="fill:#ebeb00;fill-opacity:1;fill-rule:evenodd;stroke:#000000;stroke-width:0.58206296;stroke-linecap:round;stroke-linejoin:round;stroke-miterlimit:4;stroke-opacity:1;stroke-dasharray:none" id="path3692" d="m 121.18959,87.484512 c 0,8.759907 -7.10131,15.861218 -15.86121,15.861218 -8.75991,0 -15.861218,-7.101311 -15.861218,-15.861218 0,-8.759907 7.101308,-15.861214 15.861218,-15.861214 8.7599,0 15.86121,7.101307 15.86121,15.861214 z" transform="matrix(2.0597733,0,0,2.0597733,-3124.0375,-87.941991)"/><path transform="matrix(2.0597733,0,0,2.0597733,-3124.0375,-7.2298457)" d="m 121.18959,87.484512 c 0,8.759907 -7.10131,15.861218 -15.86121,15.861218 -8.75991,0 -15.861218,-7.101311 -15.861218,-15.861218 0,-8.759907 7.101308,-15.861214 15.861218,-15.861214 8.7599,0 15.86121,7.101307 15.86121,15.861214 z" id="path3694" style="fill:#08842c;fill-opacity:1;fill-rule:evenodd;stroke:#000000;stroke-width:0.58206296;stroke-linecap:round;stroke-linejoin:round;stroke-miterlimit:4;stroke-opacity:1;stroke-dasharray:none"/></g></g></g></svg>