<?xml version="1.0" encoding="UTF-8" standalone="no"?>
<svg xmlns:dc="http://purl.org/dc/elements/1.1/" xmlns:cc="http://creativecommons.org/ns#" xmlns:rdf="http://www.w3.org/1999/02/22-rdf-syntax-ns#" xmlns:svg="http://www.w3.org/2000/svg" xmlns="http://www.w3.org/2000/svg" xmlns:sodipodi="http://sodipodi.sourceforge.net/DTD/sodipodi-0.dtd" xmlns:inkscape="http://www.inkscape.org/namespaces/inkscape" id="svg2" version="1.1" viewBox="0 0 500 440"><defs id="defs4"/><metadata id="metadata7"><rdf:RDF><cc:Work rdf:about=""><dc:format>image/svg+xml</dc:format><dc:type rdf:resource="http://purl.org/dc/dcmitype/StillImage"/><dc:title/></cc:Work></rdf:RDF></metadata><g id="layer1" transform="translate(1098.7651,975.02751)"><g transform="translate(17461.033,-150.17817)" id="g7684"><g transform="translate(-14467.036,3885.3794)" id="g9173"><g transform="translate(-1444.6677,-2055.0906)" id="g9175"><g id="g9177"><g id="g9179" transform="translate(2639.6087,-727.89124)"><g id="g9181" transform="matrix(0.99999834,0,0,1.0009179,-3285.3129,-1756.434)"><path style="fill:#ffffff;fill-opacity:1;fill-rule:nonzero;stroke:#000000;stroke-width:1.79633701;stroke-linecap:round;stroke-linejoin:round;stroke-miterlimit:2;stroke-opacity:1;stroke-dasharray:none;stroke-dashoffset:0" d="m -1729.657,-157.23924 c -4.4566,-7.70081 -13.1754,-12.51819 -22.7409,-12.51819 -9.7394,0 -18.4615,5.08085 -23.0023,12.928 l -222.2004,384.02127 c -4.7688,8.24191 -5.4749,18.62338 -0.3734,27.4394 4.8697,8.41541 13.6405,13.41233 22.7223,13.41233 l 445.7076,0 c 9.0817,0 17.8525,-4.99698 22.7222,-13.41233 5.1016,-8.81596 4.3958,-19.19774 -0.3734,-27.4394 l -222.4617,-384.43108 z" id="path9183"/><path id="path9185" d="m -1752.3918,-161.75994 c 6.5396,0 12.22,3.32868 14.949,8.05523 l 222.4555,385.3022 c 3.3263,5.76134 3.7682,12.63048 0.3746,18.50829 -3.3028,5.72052 -9.1544,8.93566 -14.9303,8.93572 l -445.7164,0 c -5.7759,0 -11.6274,-3.21508 -14.9302,-8.93572 -3.3936,-5.87781 -2.9517,-12.74635 0.3747,-18.50829 l 222.1931,-384.89007 c 2.8883,-5.0026 8.6251,-8.46736 15.23,-8.46736 z" style="fill:#d40000;fill-opacity:1;fill-rule:nonzero;stroke:none"/><path id="path9187" d="m -1752.4105,-83.717877 170.2088,294.802657 -340.3989,0 170.1901,-294.802657 z" style="fill:#ffffff;fill-opacity:1;fill-rule:nonzero;stroke:none"/></g></g></g></g></g><g id="g9218" transform="matrix(0.85607057,0,0,0.85607057,-15921.903,806.44281)"><polygon transform="translate(-3045.9822,-1858.7282)" id="polygon3943" points="401.544,364.671 401.544,383.751 255.528,383.751 109.512,383.751 109.512,364.671 255.528,364.671 "/><path id="path3945" d="m -2850.7182,-1503.5612 h 60.264 60.336 v -53.352 c -14.04,-19.152 -36.504,-30.528 -60.336,-30.528 0.072,0 0.072,0 0,0 -23.688,0 -46.08,11.376 -60.264,30.528 v 53.352 z"/><path id="path3947" d="m -2848.8462,-1637.5532 h 58.392 58.392 l -18.072,49.392 c -12.384,-6.48 -26.28,-9.936 -40.32,-9.936 0.072,0 0,0 0,0 -14.04,0 -27.792,3.384 -40.248,9.936 l -18.144,-49.392 z"/><path id="path3949" d="m -2682.4542,-1584.2012 -39.456,-48.24 -21.528,48.312 c 7.2,4.68 13.608,10.44 19.008,16.992 l 41.976,-17.064 z"/><polygon transform="translate(-3045.9822,-1858.7282)" id="polygon3951" points="325.368,297.999 325.368,358.407 366.696,358.407 366.696,284.031 "/><path id="path3953" d="m -2837.3982,-1584.1292 -21.528,-48.312 -39.384,48.168 41.904,17.136 c 5.544,-6.696 11.952,-12.384 19.152,-17.064 l -0.144,0.072 z"/><polygon transform="translate(-3045.9822,-1858.7282)" id="polygon3955" points="144.432,284.031 144.432,358.407 185.688,358.407 185.688,297.999 "/></g></g></g></svg>