<?xml version="1.0" encoding="UTF-8" standalone="no"?>
<svg xmlns:dc="http://purl.org/dc/elements/1.1/" xmlns:cc="http://creativecommons.org/ns#" xmlns:rdf="http://www.w3.org/1999/02/22-rdf-syntax-ns#" xmlns:svg="http://www.w3.org/2000/svg" xmlns="http://www.w3.org/2000/svg" xmlns:sodipodi="http://sodipodi.sourceforge.net/DTD/sodipodi-0.dtd" xmlns:inkscape="http://www.inkscape.org/namespaces/inkscape" id="svg2" version="1.1" viewBox="0 0 500 500"><defs id="defs4"/><metadata id="metadata7"><rdf:RDF><cc:Work rdf:about=""><dc:format>image/svg+xml</dc:format><dc:type rdf:resource="http://purl.org/dc/dcmitype/StillImage"/><dc:title/></cc:Work></rdf:RDF></metadata><g id="layer1" transform="translate(4751.0776,2871.829)"><g id="g9215" transform="matrix(0.71174377,0,0,0.71174377,-4759.0847,-2879.8361)"><circle id="circle4-47" style="fill:#ffffff;stroke:#000000;stroke-width:2.5px" r="350" cy="362.5" cx="362.5" d="m 712.5,362.5 c 0,193.29966 -156.70034,350 -350,350 -193.29966,0 -350,-156.70034 -350,-350 0,-193.29966 156.70034,-350 350,-350 193.29966,0 350,156.70034 350,350 z"/><path id="path1883-8" style="fill:#003399;fill-opacity:1;fill-rule:nonzero;stroke:none" transform="matrix(1.061206,0,0,1.061206,877.7452,-29.79549)" d="m -176.30905,369.66949 a 309.2189,309.2189 0 1 1 -618.43781,0 309.2189,309.2189 0 1 1 618.43781,0 z"/><path id="path2806-7" style="fill:#ffffff;fill-opacity:1;fill-rule:evenodd;stroke:none" d="m 371.4375,200.4375 125.15625,125.3125 -398.84375,0 0,73.28125 399.25,0 -125.21875,125.375 92.34375,0 162.1875,-161.875 -16.09375,0.21875 15.75,-0.4375 -162.21875,-161.875 -92.3125,0 z"/></g></g></svg>