<?xml version="1.0" encoding="UTF-8" standalone="no"?>
<svg xmlns:dc="http://purl.org/dc/elements/1.1/" xmlns:cc="http://creativecommons.org/ns#" xmlns:rdf="http://www.w3.org/1999/02/22-rdf-syntax-ns#" xmlns:svg="http://www.w3.org/2000/svg" xmlns="http://www.w3.org/2000/svg" xmlns:sodipodi="http://sodipodi.sourceforge.net/DTD/sodipodi-0.dtd" xmlns:inkscape="http://www.inkscape.org/namespaces/inkscape" id="svg2" version="1.1" viewBox="0 0 500 500"><defs id="defs4"/><metadata id="metadata7"><rdf:RDF><cc:Work rdf:about=""><dc:format>image/svg+xml</dc:format><dc:type rdf:resource="http://purl.org/dc/dcmitype/StillImage"/><dc:title/></cc:Work></rdf:RDF></metadata><g id="layer1" transform="translate(4953.6259,3226.8848)"><g transform="matrix(-0.71174377,0,0,0.71174377,-4445.6188,-3234.8919)" id="g9617"><circle d="m 712.5,362.5 c 0,193.29966 -156.70034,350 -350,350 -193.29966,0 -350,-156.70034 -350,-350 0,-193.29966 156.70034,-350 350,-350 193.29966,0 350,156.70034 350,350 z" cx="362.5" cy="362.5" r="350" style="fill:#ffffff;stroke:#000000;stroke-width:2.5px" id="circle9619"/><path d="m -176.30905,369.66949 a 309.2189,309.2189 0 1 1 -618.43781,0 309.2189,309.2189 0 1 1 618.43781,0 z" transform="matrix(1.061206,0,0,1.061206,877.7452,-29.79549)" style="fill:#003399;fill-opacity:1;fill-rule:nonzero;stroke:none" id="path9621"/><path d="M 383.65625,138.34375 473.3125,228 380.46875,228.46875 C 265.85778,233.37859 237.41403,333.38056 233.03125,362.5 l 0,232.78125 63.3125,0 0,-223.1875 c -10e-6,-10.79629 9.57271,-69.73935 80.78125,-82 l 97.8125,0.25 -91.34375,91.34375 78.65625,0 121.53125,-121.5625 0.3125,0 -0.15625,-0.15625 0.0937,-0.0937 -0.1875,0 -121.5625,-121.53125 -78.625,0 z" style="fill:#ffffff;fill-opacity:1;fill-rule:evenodd;stroke:none" id="path9624"/></g></g></svg>