<?xml version="1.0" encoding="UTF-8" standalone="no"?>
<svg xmlns:dc="http://purl.org/dc/elements/1.1/" xmlns:cc="http://creativecommons.org/ns#" xmlns:rdf="http://www.w3.org/1999/02/22-rdf-syntax-ns#" xmlns:svg="http://www.w3.org/2000/svg" xmlns="http://www.w3.org/2000/svg" xmlns:sodipodi="http://sodipodi.sourceforge.net/DTD/sodipodi-0.dtd" xmlns:inkscape="http://www.inkscape.org/namespaces/inkscape" id="svg2" version="1.1" viewBox="0 0 500 500"><defs id="defs4"/><metadata id="metadata7"><rdf:RDF><cc:Work rdf:about=""><dc:format>image/svg+xml</dc:format><dc:type rdf:resource="http://purl.org/dc/dcmitype/StillImage"/><dc:title/></cc:Work></rdf:RDF></metadata><g id="layer1" transform="translate(5257.0875,3303.2407)"><g transform="matrix(0.71174377,0,0,0.71174377,-5265.0946,-3311.2478)" id="g8560"><circle d="m 712.5,362.5 c 0,193.29966 -156.70034,350 -350,350 -193.29966,0 -350,-156.70034 -350,-350 0,-193.29966 156.70034,-350 350,-350 193.29966,0 350,156.70034 350,350 z" cx="362.5" cy="362.5" r="350" style="fill:#ffffff;stroke:#000000;stroke-width:2.5px" id="circle4-6"/><path d="m -176.30905,369.66949 c 0,170.77689 -138.44202,309.2189 -309.2189,309.2189 -170.77689,1e-5 -309.21891,-138.44201 -309.21891,-309.2189 0,-170.77689 138.44202,-309.218905 309.21891,-309.218905 170.77688,0 309.2189,138.442015 309.2189,309.218905 z" style="fill:#003399;fill-opacity:1;fill-rule:nonzero;stroke:none" id="path1883-2" transform="matrix(1.061206,0,0,1.061206,877.7452,-29.79549)"/><path style="fill:#ffffff;fill-opacity:1;fill-rule:evenodd;stroke:none" d="M 329.44838,657.68381 C 192.51917,632.50501 170.53994,539.42549 147.07361,390.69976 127.0443,263.7573 200.46315,101.82253 299.1142,74.987119 c 10.23758,-2.784864 19.88313,-5.194496 30.6087,-4.85344 0,0 159.51632,-18.340052 223.47287,111.060031 1.87673,8.22541 41.38813,77.81419 40.72284,171.88982 -0.40497,57.2646 -13.12244,118.63137 -42.87607,188.91832 -21.49245,50.77156 -60.63159,83.96543 -103.45632,100.16753 -43.45955,16.44228 -90.65018,15.51443 -118.13784,15.51443 z" id="path13508"/><path style="fill:none;stroke:#000000;stroke-width:10.40503788;stroke-linecap:butt;stroke-linejoin:miter;stroke-miterlimit:4;stroke-opacity:1" d="m 390.2957,653.23224 c 236.8122,19.36943 297.64967,-547.12288 9.40074,-580.834824 l -24.45197,0.563478" id="path9079"/><path style="fill:#ffffff;fill-opacity:1;fill-rule:evenodd;stroke:#000000;stroke-width:9.69643307;stroke-linecap:butt;stroke-linejoin:miter;stroke-miterlimit:4;stroke-opacity:1;stroke-dasharray:none" d="m 427.92039,104.46108 c -6.01393,-11.241104 16.71895,-19.271408 23.89079,-5.865939 l 15.17253,31.400919 c 4.39577,8.21646 -13.14594,21.50595 -21.13565,6.57173 0,0 -17.92767,-32.10671 -17.92767,-32.10671 z" id="path8169"/><path style="fill:none;stroke:#000000;stroke-width:10;stroke-linecap:round;stroke-linejoin:round;stroke-miterlimit:4;stroke-opacity:1;stroke-dasharray:none;stroke-dashoffset:0" id="path1910" d="m 558.63139,368.92087 c 0,55.93326 -17.76169,101.27613 -39.67186,101.27613 -21.91016,0 -39.67186,-45.34287 -39.67186,-101.27613 0,-55.93326 17.7617,-101.27613 39.67186,-101.27613 21.91017,0 39.67186,45.34287 39.67186,101.27613 z" transform="matrix(0.945362,0,0,1.220953,-64.01822,-87.09674)"/><path style="fill:#000000;fill-opacity:1;fill-rule:nonzero;stroke:#000000;stroke-width:10;stroke-linecap:round;stroke-linejoin:round;stroke-miterlimit:4;stroke-opacity:1;stroke-dasharray:none;stroke-dashoffset:0" id="path1912" d="m 575.40326,405.36737 c 0,43.6422 -13.71839,79.02119 -30.64087,79.02119 -16.92248,0 -30.64087,-35.37899 -30.64087,-79.02119 0,-43.6422 13.71839,-79.02119 30.64087,-79.02119 16.92248,0 30.64087,35.37899 30.64087,79.02119 z" transform="matrix(1.012133,0,0,1.410639,-135.4053,-209.0344)"/><path style="fill:#ffffff;fill-opacity:1;fill-rule:evenodd;stroke:#000000;stroke-width:10;stroke-linecap:butt;stroke-linejoin:miter;stroke-miterlimit:4;stroke-opacity:1;stroke-dasharray:none" d="m 359.56254,554.24858 c -11.20699,7.4251 -22.55947,-13.88882 -9.19467,-22.74357 l 31.50706,-19.13925 c 8.19154,-5.42725 24.49287,10.07142 9.60396,19.93594 0,0 -31.91635,21.94688 -31.91635,21.94688 z" id="path8143-0"/><path style="fill:#ffffff;fill-opacity:1;fill-rule:evenodd;stroke:#000000;stroke-width:10;stroke-linecap:butt;stroke-linejoin:miter;stroke-miterlimit:4;stroke-opacity:1;stroke-dasharray:none" d="m 345.81174,189.7829 c -11.40796,-7.11249 3.26852,-26.28965 16.87296,-17.80771 l 30.49319,20.71645 c 8.33843,5.19874 1.00704,26.46356 -14.14885,17.01434 0,0 -33.2173,-19.92308 -33.2173,-19.92308 z" id="path8155"/><path style="fill:none;stroke:#000000;stroke-width:4.44534969;stroke-linecap:round;stroke-linejoin:round;stroke-miterlimit:4;stroke-opacity:1;stroke-dasharray:none;stroke-dashoffset:0" id="path1914-0" d="m 252.86779,396.90631 c 0,60.06668 -32.86822,108.76034 -73.41323,108.76034 -40.54501,0 -73.41323,-48.69366 -73.41323,-108.76034 0,-60.06667 32.86822,-108.76034 73.41323,-108.76034 40.54501,0 73.41323,48.69367 73.41323,108.76034 z" transform="matrix(1.073414,0,0,1.725473,270.9496,-322.5078)"/><path style="fill:#ffffff;fill-opacity:1;fill-rule:evenodd;stroke:#000000;stroke-width:10;stroke-linecap:butt;stroke-linejoin:miter;stroke-miterlimit:4;stroke-opacity:1;stroke-dasharray:none" d="m 318.83144,443.65832 c -13.43686,0.42394 -11.88779,-23.67508 4.13621,-24.18064 l 36.8636,0.28443 c 9.82142,-0.30987 15.53943,21.44435 -2.31194,22.00756 0,0 -38.68787,1.88865 -38.68787,1.88865 z" id="path8133"/><path style="fill:none;stroke:#000000;stroke-width:8.01780701;stroke-linecap:round;stroke-linejoin:round;stroke-miterlimit:4;stroke-opacity:1;stroke-dasharray:none;stroke-dashoffset:0" id="path3688" d="m 726.96059,418.03397 c 0,66.69032 -35.49603,120.75351 -79.28261,120.75351 -43.78658,0 -79.28262,-54.06319 -79.28262,-120.75351 0,-66.69033 35.49604,-120.75352 79.28262,-120.75352 43.78658,0 79.28261,54.06319 79.28261,120.75352 z" transform="matrix(1.242475,0,0,1.815766,-342.0382,-397.9389)"/><path style="fill:none;stroke:#000000;stroke-width:6;stroke-linecap:butt;stroke-linejoin:miter;stroke-miterlimit:4;stroke-opacity:1;stroke-dasharray:none" d="M 401.6986,624.98193 C 239.47879,534.56322 257.80609,170.85532 405.76437,98.057452" id="path5460"/><path style="fill:#ffffff;fill-opacity:1;fill-rule:evenodd;stroke:#000000;stroke-width:10;stroke-linecap:butt;stroke-linejoin:miter;stroke-miterlimit:4;stroke-opacity:1;stroke-dasharray:none" d="m 246.77944,250.95683 c -9.50602,-9.50602 9.12371,-24.87141 20.46003,-13.53509 l 25.02419,27.0702 c 6.94825,6.94824 -4.998,26.00681 -17.6271,13.37771 0,0 -27.85712,-26.91282 -27.85712,-26.91282 z" id="path6349"/><path style="fill:#ffffff;fill-opacity:1;fill-rule:evenodd;stroke:#000000;stroke-width:10;stroke-linecap:butt;stroke-linejoin:miter;stroke-miterlimit:4;stroke-opacity:1;stroke-dasharray:none" d="m 194.60521,220.36455 c -11.7768,-6.48348 1.83826,-26.4282 15.88259,-18.69639 l 31.5716,19.0326 c 8.60805,4.73897 2.44044,26.37003 -13.20549,17.75648 0,0 -34.2487,-18.09269 -34.2487,-18.09269 z" id="path8121"/><path style="fill:#ffffff;fill-opacity:1;fill-rule:evenodd;stroke:#000000;stroke-width:10;stroke-linecap:butt;stroke-linejoin:miter;stroke-miterlimit:4;stroke-opacity:1;stroke-dasharray:none" d="m 229.79946,321.52208 c -12.58672,4.72264 -18.87006,-18.59434 -3.85988,-24.22628 l 34.99677,-11.58584 c 9.20002,-3.45192 21.61033,15.30777 4.88841,21.58197 0,0 -36.0253,14.23015 -36.0253,14.23015 z" id="path8123"/><path style="fill:#ffffff;fill-opacity:1;fill-rule:evenodd;stroke:#000000;stroke-width:10;stroke-linecap:butt;stroke-linejoin:miter;stroke-miterlimit:4;stroke-opacity:1;stroke-dasharray:none" d="m 176.47074,352.0051 c -11.29755,7.28657 -22.38678,-14.16549 -8.91398,-22.85503 l 31.74028,-18.74994 c 8.25773,-5.32599 24.36703,10.37217 9.35781,20.05266 0,0 -32.18411,21.55231 -32.18411,21.55231 z" id="path8125"/><path style="fill:#ffffff;fill-opacity:1;fill-rule:evenodd;stroke:#000000;stroke-width:10;stroke-linecap:butt;stroke-linejoin:miter;stroke-miterlimit:4;stroke-opacity:1;stroke-dasharray:none" d="m 316.75689,302.46852 c -13.39438,-1.14872 -9.04056,-24.90175 6.93278,-23.53185 l 36.57795,4.58906 c 9.79037,0.83963 12.9278,23.1129 -4.86713,21.58677 0,0 -38.6436,-2.64398 -38.6436,-2.64398 z" id="path8127"/><path style="fill:#ffffff;fill-opacity:1;fill-rule:evenodd;stroke:#000000;stroke-width:10;stroke-linecap:butt;stroke-linejoin:miter;stroke-miterlimit:4;stroke-opacity:1;stroke-dasharray:none" d="m 222.1274,426.3885 c -12.73999,-4.29206 -2.87799,-26.33526 12.31496,-21.21681 l 34.44658,13.1316 c 9.31206,3.13719 7.07854,25.51918 -9.847,19.81701 0,0 -36.91454,-11.7318 -36.91454,-11.7318 z" id="path8129"/><path style="fill:#ffffff;fill-opacity:1;fill-rule:evenodd;stroke:#000000;stroke-width:10;stroke-linecap:butt;stroke-linejoin:miter;stroke-miterlimit:4;stroke-opacity:1;stroke-dasharray:none" d="m 161.51935,394.41241 c -11.74633,-6.53855 1.96198,-26.41931 15.96995,-18.62182 l 31.48215,19.18021 c 8.58576,4.77922 2.31695,26.38117 -13.28849,17.69445 0,0 -34.16361,-18.25284 -34.16361,-18.25284 z" id="path8131"/><path style="fill:#ffffff;fill-opacity:1;fill-rule:evenodd;stroke:#000000;stroke-width:10;stroke-linecap:butt;stroke-linejoin:miter;stroke-miterlimit:4;stroke-opacity:1;stroke-dasharray:none" d="m 262.86086,491.70217 c -9.28776,9.7194 -25.07214,-8.55668 -13.99612,-20.14746 l 26.49508,-25.63232 c 6.7887,-7.10422 26.11358,4.40625 13.77445,17.31882 0,0 -26.27341,28.46096 -26.27341,28.46096 z" id="path8135"/><path style="fill:#ffffff;fill-opacity:1;fill-rule:evenodd;stroke:#000000;stroke-width:10;stroke-linecap:butt;stroke-linejoin:miter;stroke-miterlimit:4;stroke-opacity:1;stroke-dasharray:none" d="m 203.505,525.06496 c -11.94674,6.16476 -20.91859,-16.2555 -6.67161,-23.60722 l 33.39839,-15.6062 c 8.73225,-4.50602 23.25494,12.67052 7.38324,20.86062 0,0 -34.11002,18.3528 -34.11002,18.3528 z" id="path8137"/><path style="fill:#ffffff;fill-opacity:1;fill-rule:evenodd;stroke:#000000;stroke-width:10;stroke-linecap:butt;stroke-linejoin:miter;stroke-miterlimit:4;stroke-opacity:1;stroke-dasharray:none" d="m 191.36584,547.74724 c -13.00529,-3.40462 -4.68454,-26.07458 10.82479,-22.01444 l 35.26904,10.72851 c 9.50597,2.48853 8.81893,24.97119 -8.45907,20.44802 0,0 -37.63476,-9.16209 -37.63476,-9.16209 z" id="path8139"/><path style="fill:#ffffff;fill-opacity:1;fill-rule:evenodd;stroke:#000000;stroke-width:10;stroke-linecap:butt;stroke-linejoin:miter;stroke-miterlimit:4;stroke-opacity:1;stroke-dasharray:none" d="m 258.34347,561.97517 c -13.43427,-0.49939 -10.23467,-24.43523 5.78624,-23.83969 l 36.75713,2.81413 c 9.81953,0.36501 14.03081,22.46042 -3.81711,21.79696 0,0 -38.72626,-0.7714 -38.72626,-0.7714 z" id="path8141"/><path style="fill:#ffffff;fill-opacity:1;fill-rule:evenodd;stroke:#000000;stroke-width:9.5115118;stroke-linecap:butt;stroke-linejoin:miter;stroke-miterlimit:4;stroke-opacity:1;stroke-dasharray:none" d="m 298.17774,611.28257 c -8.79918,9.28286 -23.68753,-8.23595 -13.19414,-19.30614 l 25.09741,-24.47724 c 6.4316,-6.78514 24.67998,4.26634 12.98993,16.59896 0,0 -24.8932,27.18442 -24.8932,27.18442 z" id="path8145"/><path style="fill:none;stroke:#000000;stroke-width:10.40503788;stroke-linecap:butt;stroke-linejoin:miter;stroke-miterlimit:4;stroke-opacity:1" d="m 390.28808,653.45521 0,0 0,0 -49.47089,-0.58317 C 117.21855,677.74712 42.686282,106.71164 330.93521,72.999699 l 12.43858,-0.475389 3.92926,0.436585" id="path8191"/><path style="fill:#ffffff;fill-opacity:1;fill-rule:evenodd;stroke:#000000;stroke-width:9.6683054;stroke-linecap:butt;stroke-linejoin:miter;stroke-miterlimit:4;stroke-opacity:1;stroke-dasharray:none" d="m 285.70302,643.49342 c -12.16448,-2.50257 -5.55039,-25.97448 8.95625,-22.99006 l 33.05921,8.29579 c 8.89141,1.82921 9.31469,24.56455 -6.84628,21.23978 0,0 -35.16918,-6.54551 -35.16918,-6.54551 z" id="path8147"/><path style="fill:#ffffff;fill-opacity:1;fill-rule:evenodd;stroke:#000000;stroke-width:9.51073933;stroke-linecap:butt;stroke-linejoin:miter;stroke-miterlimit:4;stroke-opacity:1;stroke-dasharray:none" d="m 349.79953,654.76463 c -12.81035,0.99355 -12.37531,-21.85848 2.90155,-23.04331 l 35.20749,-1.35726 c 9.36348,-0.72622 15.76507,19.58841 -1.25397,20.90836 0,0 -36.85507,3.49221 -36.85507,3.49221 z" id="path8149"/><path style="fill:#ffffff;fill-opacity:1;fill-rule:evenodd;stroke:#000000;stroke-width:8.2296505;stroke-linecap:butt;stroke-linejoin:miter;stroke-miterlimit:4;stroke-opacity:1;stroke-dasharray:none" d="m 247.86886,626.1474 c -10.25635,2.76204 -12.99526,-17.83992 -0.76415,-21.13378 l 28.37398,-6.35679 c 7.49669,-2.01887 15.43763,15.30509 1.81169,18.97456 0,0 -29.42152,8.51601 -29.42152,8.51601 z" id="path8151"/><path style="fill:#ffffff;fill-opacity:1;fill-rule:evenodd;stroke:#000000;stroke-width:9.25247478;stroke-linecap:butt;stroke-linejoin:miter;stroke-miterlimit:4;stroke-opacity:1;stroke-dasharray:none" d="m 444.70488,629.93767 c -6.51112,10.76081 -23.69686,-3.32557 -15.93209,-16.15826 l 18.94258,-28.74877 c 4.75917,-7.86542 23.8886,-0.72878 15.23833,13.56734 0,0 -18.24882,31.33969 -18.24882,31.33969 z" id="path8153"/><path style="fill:#ffffff;fill-opacity:1;fill-rule:evenodd;stroke:#000000;stroke-width:10;stroke-linecap:butt;stroke-linejoin:miter;stroke-miterlimit:4;stroke-opacity:1;stroke-dasharray:none" d="m 259.32192,185.24493 c -13.43149,0.56928 -12.14323,-23.54508 3.87436,-24.22397 l 36.86452,-0.11441 c 9.8175,-0.41611 15.77053,21.27498 -2.0737,22.03128 0,0 -38.66518,2.3071 -38.66518,2.3071 z" id="path8157"/><path style="fill:#ffffff;fill-opacity:1;fill-rule:evenodd;stroke:#000000;stroke-width:10;stroke-linecap:butt;stroke-linejoin:miter;stroke-miterlimit:4;stroke-opacity:1;stroke-dasharray:none" d="m 200.77116,197.77209 c -13.07527,3.1251 -16.41819,-20.79116 -0.82539,-24.51796 l 36.16351,-7.15585 c 9.55712,-2.28424 19.54491,17.86982 2.17393,22.02162 0,0 -37.51205,9.65219 -37.51205,9.65219 z" id="path8159"/><path style="fill:#ffffff;fill-opacity:1;fill-rule:evenodd;stroke:#000000;stroke-width:9.43849659;stroke-linecap:butt;stroke-linejoin:miter;stroke-miterlimit:4;stroke-opacity:1;stroke-dasharray:none" d="m 281.39634,129.5502 c -9.2251,-8.70881 7.83989,-23.80573 18.84119,-13.42013 l 24.34569,24.86139 c 6.74291,6.36554 -3.92532,24.75619 -16.1812,13.1862 0,0 -27.00568,-24.62746 -27.00568,-24.62746 z" id="path8161"/><path style="fill:#ffffff;fill-opacity:1;fill-rule:evenodd;stroke:#000000;stroke-width:8.7036705;stroke-linecap:butt;stroke-linejoin:miter;stroke-miterlimit:4;stroke-opacity:1;stroke-dasharray:none" d="m 245.1619,120.74968 c -9.67026,-1.20533 -6.52696,-26.128796 5.00521,-24.691394 l 26.40794,4.815194 c 7.0683,0.88099 9.33341,24.2518 -3.51388,22.65046 0,0 -27.89927,-2.77426 -27.89927,-2.77426 z" id="path8163"/><path style="fill:#ffffff;fill-opacity:1;fill-rule:evenodd;stroke:#000000;stroke-width:9.69535637;stroke-linecap:butt;stroke-linejoin:miter;stroke-miterlimit:4;stroke-opacity:1;stroke-dasharray:none" d="m 289.38352,104.58938 c -12.40773,1.63856 -12.97157,-22.769201 1.82515,-24.723243 l 34.16023,-3.037684 c 9.0692,-1.197678 16.16811,20.193541 -0.31602,22.370418 0,0 -35.66936,5.390509 -35.66936,5.390509 z" id="path8165"/><path style="fill:#ffffff;fill-opacity:1;fill-rule:evenodd;stroke:#000000;stroke-width:10;stroke-linecap:butt;stroke-linejoin:miter;stroke-miterlimit:4;stroke-opacity:1;stroke-dasharray:none" d="M 348.79823,95.831562 C 335.3555,95.68362 337.92815,71.672297 353.95915,71.848728 l 36.81814,1.85206 c 9.82572,0.10813 14.6133,22.085873 -3.24587,21.88931 0,0 -38.73319,0.241464 -38.73319,0.241464 z" id="path8167"/><path style="fill:#ffffff;fill-opacity:1;fill-rule:nonzero;stroke:#000000;stroke-width:10;stroke-linecap:round;stroke-linejoin:round;stroke-miterlimit:4;stroke-opacity:1;stroke-dasharray:none;stroke-dashoffset:0" id="path8171" d="m 246.61397,374.66571 c 0,8.35892 -6.77623,15.13515 -15.13515,15.13515 -8.35891,0 -15.13515,-6.77623 -15.13515,-15.13515 0,-8.35891 6.77624,-15.13515 15.13515,-15.13515 8.35892,0 15.13515,6.77624 15.13515,15.13515 z" transform="translate(60.98577,57.42455)"/><path style="fill:#ffffff;fill-opacity:1;fill-rule:nonzero;stroke:#000000;stroke-width:10;stroke-linecap:round;stroke-linejoin:round;stroke-miterlimit:4;stroke-opacity:1;stroke-dasharray:none;stroke-dashoffset:0" id="path8173" d="m 246.61397,374.66571 c 0,8.35892 -6.77623,15.13515 -15.13515,15.13515 -8.35891,0 -15.13515,-6.77623 -15.13515,-15.13515 0,-8.35891 6.77624,-15.13515 15.13515,-15.13515 8.35892,0 15.13515,6.77624 15.13515,15.13515 z" transform="translate(-82.35305,-12.9094)"/><path style="fill:#ffffff;fill-opacity:1;fill-rule:nonzero;stroke:#000000;stroke-width:10;stroke-linecap:round;stroke-linejoin:round;stroke-miterlimit:4;stroke-opacity:1;stroke-dasharray:none;stroke-dashoffset:0" id="path8175" d="m 246.61397,374.66571 c 0,8.35892 -6.77623,15.13515 -15.13515,15.13515 -8.35891,0 -15.13515,-6.77623 -15.13515,-15.13515 0,-8.35891 6.77624,-15.13515 15.13515,-15.13515 8.35892,0 15.13515,6.77624 15.13515,15.13515 z" transform="matrix(0.922621,0,0,0.922621,78.6747,-52.69419)"/><path style="fill:#ffffff;fill-opacity:1;fill-rule:nonzero;stroke:#000000;stroke-width:10;stroke-linecap:round;stroke-linejoin:round;stroke-miterlimit:4;stroke-opacity:1;stroke-dasharray:none;stroke-dashoffset:0" id="path8177" d="m 246.61397,374.66571 c 0,8.35892 -6.77623,15.13515 -15.13515,15.13515 -8.35891,0 -15.13515,-6.77623 -15.13515,-15.13515 0,-8.35891 6.77624,-15.13515 15.13515,-15.13515 8.35892,0 15.13515,6.77624 15.13515,15.13515 z" transform="matrix(0.94473,0,0,0.94473,-46.18865,-150.8981)"/><path style="fill:#ffffff;fill-opacity:1;fill-rule:nonzero;stroke:#000000;stroke-width:10;stroke-linecap:round;stroke-linejoin:round;stroke-miterlimit:4;stroke-opacity:1;stroke-dasharray:none;stroke-dashoffset:0" id="path8179" d="m 246.61397,374.66571 c 0,8.35892 -6.77623,15.13515 -15.13515,15.13515 -8.35891,0 -15.13515,-6.77623 -15.13515,-15.13515 0,-8.35891 6.77624,-15.13515 15.13515,-15.13515 8.35892,0 15.13515,6.77624 15.13515,15.13515 z" transform="matrix(0.911567,0,0,0.911567,116.1779,-167.6307)"/><path style="fill:#ffffff;fill-opacity:1;fill-rule:nonzero;stroke:#000000;stroke-width:10;stroke-linecap:round;stroke-linejoin:round;stroke-miterlimit:4;stroke-opacity:1;stroke-dasharray:none;stroke-dashoffset:0" id="path8181" d="m 246.61397,374.66571 c 0,8.35892 -6.77623,15.13515 -15.13515,15.13515 -8.35891,0 -15.13515,-6.77623 -15.13515,-15.13515 0,-8.35891 6.77624,-15.13515 15.13515,-15.13515 8.35892,0 15.13515,6.77624 15.13515,15.13515 z" transform="matrix(0.889459,0,0,0.889459,209.4355,-244.8166)"/><path style="fill:#ffffff;fill-opacity:1;fill-rule:nonzero;stroke:#000000;stroke-width:10;stroke-linecap:round;stroke-linejoin:round;stroke-miterlimit:4;stroke-opacity:1;stroke-dasharray:none;stroke-dashoffset:0" id="path8183" d="m 246.61397,374.66571 c 0,8.35892 -6.77623,15.13515 -15.13515,15.13515 -8.35891,0 -15.13515,-6.77623 -15.13515,-15.13515 0,-8.35891 6.77624,-15.13515 15.13515,-15.13515 8.35892,0 15.13515,6.77624 15.13515,15.13515 z" transform="matrix(0.900513,0,0,0.900513,-36.39865,185.7324)"/><path style="fill:#ffffff;fill-opacity:1;fill-rule:nonzero;stroke:#000000;stroke-width:10;stroke-linecap:round;stroke-linejoin:round;stroke-miterlimit:4;stroke-opacity:1;stroke-dasharray:none;stroke-dashoffset:0" id="path8185" d="m 246.61397,374.66571 c 0,8.35892 -6.77623,15.13515 -15.13515,15.13515 -8.35891,0 -15.13515,-6.77623 -15.13515,-15.13515 0,-8.35891 6.77624,-15.13515 15.13515,-15.13515 8.35892,0 15.13515,6.77624 15.13515,15.13515 z" transform="matrix(0.878405,0,0,0.878405,122.7414,220.2794)"/><path style="fill:#ffffff;fill-opacity:1;fill-rule:nonzero;stroke:#000000;stroke-width:10;stroke-linecap:round;stroke-linejoin:round;stroke-miterlimit:4;stroke-opacity:1;stroke-dasharray:none;stroke-dashoffset:0" id="path8187" d="m 246.61397,374.66571 c 0,8.35892 -6.77623,15.13515 -15.13515,15.13515 -8.35891,0 -15.13515,-6.77623 -15.13515,-15.13515 0,-8.35891 6.77624,-15.13515 15.13515,-15.13515 8.35892,0 15.13515,6.77624 15.13515,15.13515 z" transform="matrix(0.867351,0,0,0.867351,214.1078,311.003)"/></g></g></svg>