<?xml version="1.0" encoding="UTF-8" standalone="no"?>
<svg xmlns:dc="http://purl.org/dc/elements/1.1/" xmlns:cc="http://creativecommons.org/ns#" xmlns:rdf="http://www.w3.org/1999/02/22-rdf-syntax-ns#" xmlns:svg="http://www.w3.org/2000/svg" xmlns="http://www.w3.org/2000/svg" xmlns:sodipodi="http://sodipodi.sourceforge.net/DTD/sodipodi-0.dtd" xmlns:inkscape="http://www.inkscape.org/namespaces/inkscape" id="svg2" version="1.1" viewBox="0 0 500 440"><defs id="defs4"/><metadata id="metadata7"><rdf:RDF><cc:Work rdf:about=""><dc:format>image/svg+xml</dc:format><dc:type rdf:resource="http://purl.org/dc/dcmitype/StillImage"/><dc:title/></cc:Work></rdf:RDF></metadata><g id="layer1" transform="translate(3698.0638,791.02923)"><g transform="translate(8019.5319,33.820068)" id="g7821"><g id="g4929" transform="matrix(0.99999834,0,0,1.0009179,-9715.2055,-654.0364)"><path style="fill:#ffffff;fill-opacity:1;fill-rule:nonzero;stroke:#000000;stroke-width:1.79633701;stroke-linecap:round;stroke-linejoin:round;stroke-miterlimit:2;stroke-opacity:1;stroke-dasharray:none;stroke-dashoffset:0" d="m -1729.657,-157.23924 c -4.4566,-7.70081 -13.1754,-12.51819 -22.7409,-12.51819 -9.7394,0 -18.4615,5.08085 -23.0023,12.928 l -222.2004,384.02127 c -4.7688,8.24191 -5.4749,18.62338 -0.3734,27.4394 4.8697,8.41541 13.6405,13.41233 22.7223,13.41233 l 445.7076,0 c 9.0817,0 17.8525,-4.99698 22.7222,-13.41233 5.1016,-8.81596 4.3958,-19.19774 -0.3734,-27.4394 l -222.4617,-384.43108 z" id="path4931"/><path id="path4933" d="m -1752.3918,-161.75994 c 6.5396,0 12.22,3.32868 14.949,8.05523 l 222.4555,385.3022 c 3.3263,5.76134 3.7682,12.63048 0.3746,18.50829 -3.3028,5.72052 -9.1544,8.93566 -14.9303,8.93572 l -445.7164,0 c -5.7759,0 -11.6274,-3.21508 -14.9302,-8.93572 -3.3936,-5.87781 -2.9517,-12.74635 0.3747,-18.50829 l 222.1931,-384.89007 c 2.8883,-5.0026 8.6251,-8.46736 15.23,-8.46736 z" style="fill:#d40000;fill-opacity:1;fill-rule:nonzero;stroke:none"/><path id="path4935" d="m -1752.4105,-83.717877 170.2088,294.802657 -340.3989,0 170.1901,-294.802657 z" style="fill:#ffffff;fill-opacity:1;fill-rule:nonzero;stroke:none"/></g><path style="fill:#000000;fill-opacity:1;fill-rule:nonzero;stroke:none" id="path3642" d="m -11415.656,-590.13274 c -5.258,-0.025 -17.609,4.0844 -17.565,17.7014 -0.04,10.9479 3.075,6.9539 3.011,12.8586 0.06,2.9113 -3.179,4.2806 -4.684,4.3418 -20.518,-0.061 -45.335,2.1111 -65.078,8.0158 -8.762,2.6316 -16.869,4.9973 -22.083,5.0098 -5.266,-0.013 -9.381,0.1114 -19.741,-3.1729 -10.348,-3.4387 -15.747,-5.579 -16.897,-6.0118 -1.896,-0.7598 -5.343,-0.4077 -5.353,2.8389 0.01,1.9344 0.75,2.3769 1.338,3.3399 0.502,0.6694 19.889,22.1616 21.247,23.8803 14.381,17.9213 32.009,25.0603 58.72,25.0491 1.949,0.011 4.694,-0.1962 4.685,1.837 0.01,1.1216 -0.24,1.7019 -1.171,2.5049 -0.898,0.8573 -3.975,3.5974 -4.016,5.3438 0.04,1.4084 0.29,1.2414 0.837,2.004 0.618,0.8976 5.523,8.1201 5.855,8.5167 0.168,0.2672 1.082,1.6783 1.004,2.8389 0.08,0.9978 -0.172,2.9071 1.84,3.3399 1.98,0.5636 14.039,3.884 15.057,4.1749 0.729,-0.6221 2.891,-2.7805 8.197,-1.837 -0.234,-1.027 -1.148,-2.8528 1.84,-6.1788 -0.826,-0.1614 -17.231,-2.0039 -17.231,-2.0039 0,0 -4.044,0.1113 -7.361,-4.0079 -1.016,-1.2886 -2.763,-4.0273 -3.011,-4.5088 -0.251,-0.3493 -1.747,-1.6769 0.167,-3.8409 2.077,-2.1529 5.819,-6.2206 6.357,-6.6798 0.46,-0.5372 3.537,-2.1974 5.856,-0.167 2.338,1.9538 5.249,5.0265 5.688,5.5108 0.559,0.5108 2.306,2.7527 2.175,4.8429 -0.203,2.0596 0.05,2.4757 1.672,3.0059 1.701,0.6318 17.566,6.5128 17.566,6.5128 0,0 2.432,-5.7975 9.369,-3.5069 -0.202,-0.7139 -1.616,-4.1999 0.669,-7.6818 -1.037,0.078 -17.733,0 -17.733,0 0,0 -2.818,0.444 -6.023,-2.3379 -2.562,-2.2335 -3.68,-3.6739 -3.68,-3.6739 0,0 -0.711,-0.3855 -0.669,-1.6699 -0.04,-1.2066 0.289,-2.1195 3.011,-2.171 2.601,-0.1141 24.64,-1.027 28.106,-1.3359 17.303,-1.1718 23.478,-14.5021 23.421,-22.8783 0.06,-9.4213 -6.673,-24.8655 -8.867,-28.8901 -0.806,-1.2997 -1.055,-1.4653 -1.004,-2.5049 -0.05,-1.1188 -0.468,-3.6933 11.042,-3.6739 11.443,-0.019 22.504,6.8719 25.261,6.8468 1.65,0.025 2.648,-1.6351 2.677,-2.6719 -0.03,-0.956 -0.195,-1.7033 -1.84,-2.8389 -1.502,-0.9059 -13.324,-8.4945 -15.224,-9.8527 -1.759,-1.297 -7.997,-5.1991 -9.703,-12.1906 -1.62,-6.9553 -8.191,-14.0526 -17.733,-14.0275"/></g></g></svg>