<?xml version="1.0" encoding="UTF-8" standalone="no"?>
<svg xmlns:dc="http://purl.org/dc/elements/1.1/" xmlns:cc="http://creativecommons.org/ns#" xmlns:rdf="http://www.w3.org/1999/02/22-rdf-syntax-ns#" xmlns:svg="http://www.w3.org/2000/svg" xmlns="http://www.w3.org/2000/svg" xmlns:sodipodi="http://sodipodi.sourceforge.net/DTD/sodipodi-0.dtd" xmlns:inkscape="http://www.inkscape.org/namespaces/inkscape" id="svg2" version="1.1" viewBox="0 0 500 440"><defs id="defs4"/><metadata id="metadata7"><rdf:RDF><cc:Work rdf:about=""><dc:format>image/svg+xml</dc:format><dc:type rdf:resource="http://purl.org/dc/dcmitype/StillImage"/><dc:title/></cc:Work></rdf:RDF></metadata><g id="layer1" transform="translate(3035.9266,-1114.3356)"><g transform="translate(3256.6397,3020.7583)" id="g4526"><g transform="matrix(0.99999834,0,0,1.0009179,-4290.1761,-1735.6098)" id="g4477"><path id="path4479" d="m -1729.657,-157.23924 c -4.4566,-7.70081 -13.1754,-12.51819 -22.7409,-12.51819 -9.7394,0 -18.4615,5.08085 -23.0023,12.928 l -222.2004,384.02127 c -4.7688,8.24191 -5.4749,18.62338 -0.3734,27.4394 4.8697,8.41541 13.6405,13.41233 22.7223,13.41233 l 445.7076,0 c 9.0817,0 17.8525,-4.99698 22.7222,-13.41233 5.1016,-8.81596 4.3958,-19.19774 -0.3734,-27.4394 l -222.4617,-384.43108 z" style="fill:#ffffff;fill-opacity:1;fill-rule:nonzero;stroke:#000000;stroke-width:1.79633701;stroke-linecap:round;stroke-linejoin:round;stroke-miterlimit:2;stroke-opacity:1;stroke-dasharray:none;stroke-dashoffset:0"/><path style="fill:#d40000;fill-opacity:1;fill-rule:nonzero;stroke:none" d="m -1752.3918,-161.75994 c 6.5396,0 12.22,3.32868 14.949,8.05523 l 222.4555,385.3022 c 3.3263,5.76134 3.7682,12.63048 0.3746,18.50829 -3.3028,5.72052 -9.1544,8.93566 -14.9303,8.93572 l -445.7164,0 c -5.7759,0 -11.6274,-3.21508 -14.9302,-8.93572 -3.3936,-5.87781 -2.9517,-12.74635 0.3747,-18.50829 l 222.1931,-384.89007 c 2.8883,-5.0026 8.6251,-8.46736 15.23,-8.46736 z" id="path4481"/><path style="fill:#ffffff;fill-opacity:1;fill-rule:nonzero;stroke:none" d="m -1752.4105,-83.717877 170.2088,294.802657 -340.3989,0 170.1901,-294.802657 z" id="path4483"/></g><path style="fill:#000000;fill-opacity:1;fill-rule:evenodd;stroke:none" d="m -6072.2419,-1704.8495 c 3.7386,-3.8867 6.5833,-8.2826 9.7583,-12.6068 -0.9421,-3.6872 -0.9789,-9.3208 3.098,-11.2146 0.5441,0.1019 -1.4793,3.5775 -1.3941,5.2592 0.3162,1.2633 1.4817,3.3258 3.9498,1.3149 2.7793,-1.755 5.5995,-3.6537 8.5193,-4.4859 0.6857,-4.0264 3.5235,-7.1609 6.7379,-9.2037 -0.843,3.4921 -3.0793,6.1303 -2.1685,10.4412 2.185,1.0936 2.6769,2.9087 3.1753,4.4085 -10.2899,-3.9718 -21.1784,4.4294 -21.2206,14.3083 -0.019,4.4769 7.7673,2.5467 12.3916,1.0055 1.1839,-0.2956 -0.4235,1.8924 -0.8519,2.3203 -1.0003,0.9989 -1.8227,1.8202 -2.7881,2.7843 -0.8366,0.8354 -2.4631,1.311 -3.4077,1.5468 -1.6419,0.4099 -1.9491,0.7477 -1.2392,2.1656 0.6332,1.2646 1.4935,1.3255 1.8587,2.7844 5.7651,25.7844 14.9282,49.8065 47.3979,54.1396 4.9838,1.2304 7.3892,0.3674 12.3917,0 9.2571,3.9143 18.3568,9.4473 23.8538,18.2529 3.37,3.9474 0.3631,6.3794 -3.0979,7.4248 -0.4342,0.4336 1.7766,4.2491 1.8587,4.3312 0.537,0.5363 0.3098,3.4032 0.3098,4.3312 -0.5806,5.3161 1.7027,7.7849 5.2665,11.1373 0.8208,1.093 2.26,1.6154 3.4077,2.4749 1.2608,0.9444 2.6281,1.3123 3.7175,1.8563 1.7869,0.8922 2.4783,0.089 2.4783,2.7843 0,1.8361 -0.3994,3.3548 0,4.9499 0.4439,1.7734 0.4701,3.1153 0.9293,4.9499 0.4129,1.6492 0.5699,2.5856 0.9294,4.0218 0.2027,0.8097 2.2901,2.4306 2.7881,3.0937 2.2056,6.6131 6.1911,11.3642 10.2231,16.706 0.863,0.8619 1.4007,1.8694 1.8587,2.7843 0.631,1.2602 2.4993,1.8614 3.7175,2.1656 2.1624,0.5399 -0.1837,-0.032 2.1686,-0.6188 1.4061,-0.351 -0.042,2.9271 0.3098,4.3312 0.8886,2.4691 2.5194,4.3665 4.337,6.1874 1.0169,1.0155 1.5774,1.9698 1.8587,3.0937 0.4509,1.8008 -3.7174,0 -5.5762,0 -1.9001,0 -2.773,-0.2282 -4.337,-0.6187 -1.1249,-0.2809 -2.437,-0.7528 -3.4077,-1.2375 -0.4448,-0.2221 -1.5805,-2.8472 -1.8588,-3.4031 -0.7992,-1.5962 -1.4745,-2.3263 -2.1685,-3.7124 -9.1968,-5.769 -11.0607,-18.6848 -17.6581,-25.987 -0.8925,-0.8914 -1.3874,-2.4619 -1.8587,-3.4031 -0.4721,-0.9429 -1.5818,-2.3124 -2.1685,-3.0937 -0.9131,-1.2159 -1.2025,-2.3285 -1.549,-3.7124 -0.3715,-1.4842 -1.7135,-1.4333 -3.4077,-1.8563 -1.5709,-0.3921 -3.5076,-1.8537 -4.337,-2.4749 -8.4103,-4.3545 -16.9941,-7.1135 -21.0658,-17.6341 -0.4719,-1.885 -0.3193,-2.325 -1.8587,-3.0937 -1.5789,-0.7884 -3.094,-1.2355 -4.3371,-1.8562 -1.8256,-0.9116 -3.5843,-1.0163 -5.2664,-1.8562 -1.4864,-0.7422 -2.7116,-1.0446 -3.7175,-1.5469 -1.4053,-0.7017 -1.1776,-1.5468 -3.0979,-1.5468 -1.5489,0 -3.0979,0 -4.6468,0 -1.9621,0 -3.9241,0 -5.8861,0 -2.2383,0 -3.9791,-0.3094 -6.1958,-0.3094 -1.6513,0 -4.0252,-0.2315 -5.5762,-0.6187 -1.6927,-0.4226 -3.3269,-0.6026 -4.9566,-0.9282 -1.598,-0.3191 -2.5807,-0.8245 -4.0273,-1.5468 -1.1005,-0.5495 -2.2051,-0.8599 -3.7175,-1.2375 -1.3957,-0.3484 -2.7727,-0.6187 -4.3371,-0.6187 -1.694,0 -2.5417,-0.3094 -4.337,-0.3094 -1.561,0 -3.7941,-0.2511 -5.2664,-0.6187 -1.3509,-0.3373 -3.2462,0 -4.6469,0 -1.6783,0 -2.967,0.033 -4.3371,-0.3094 -1.2063,-0.3011 1.5991,1.9063 2.4784,2.7843 1.0912,1.0898 2.3942,1.6596 3.4076,2.1656 1.3766,0.6874 2.5934,1.5756 3.7175,1.8562 1.473,0.3678 2.471,1.3885 3.4077,1.8563 1.462,0.7299 2.7797,1.5426 4.0273,2.1656 1.4655,0.7317 1.6957,1.4654 3.0979,2.1655 1.4007,0.6994 3.249,1.313 4.3371,1.8563 1.3209,0.6595 1.5294,1.469 1.8587,2.7843 0.2812,1.1233 0.7538,2.4336 1.2392,3.4031 0.5509,1.1003 0.6195,3.2392 0.6195,4.3311 0,2.9077 -0.09,2.1433 -2.4783,1.5469 -0.7043,-0.1759 -2.2495,-1.6278 -2.7881,-2.1656 -1.0673,-1.0659 -2.4717,-1.5402 -3.4077,-2.475 -0.9364,-0.9352 -2.1653,-1.6999 -3.0979,-2.1656 -13.6133,-5.6864 -24.4136,-16.2178 -37.4846,-22.5839 -1.0248,-0.2559 -2.2198,-1.2887 -2.7881,-1.8563 -1.0805,-1.079 -1.1588,-1.535 -1.549,-3.0937 -0.5055,-2.0193 0.4768,-2.6417 1.2392,-3.403 0.9807,-0.9794 1.7489,-1.2101 3.0979,-1.5469 1.6385,-0.409 3.4573,-0.3093 5.2664,-0.3093 7.13,-0.534 14.2944,0.6709 21.3756,0.3093 1.7736,0 2.9805,-0.096 4.0272,-0.6187 1.306,-0.6521 0.2848,-3.1936 0,-4.3312 -3.5574,-4.8072 -2.3446,-8.9035 -1.2391,-13.3029 0,-1.2364 0.9293,-2.0124 0.9293,-3.7124 0,-0.948 -0.9855,-2.3899 -1.2391,-3.4031 -0.2422,-0.9673 -1.1103,-2.8362 -1.549,-3.7124 -2.1297,-5.4108 -1.8587,-10.9863 -1.8587,-16.706 0,-1.5468 0,-3.0937 0,-4.6405 0,-1.8672 -1.1627,-1.8181 -2.4783,-2.475 -6.5008,-2.3847 -12.8892,-4.9 -19.207,-7.7342 -1.223,-0.6107 -2.1769,-0.9448 -2.7881,-2.1656 -0.7637,-1.5252 1.3781,-2.3044 1.8587,-2.7843 7.3559,-0.6948 14.9748,-2.0463 20.4462,-7.7343 z" id="path3460"/></g></g></svg>