<?xml version="1.0" encoding="UTF-8" standalone="no"?>
<svg xmlns:dc="http://purl.org/dc/elements/1.1/" xmlns:cc="http://creativecommons.org/ns#" xmlns:rdf="http://www.w3.org/1999/02/22-rdf-syntax-ns#" xmlns:svg="http://www.w3.org/2000/svg" xmlns="http://www.w3.org/2000/svg" xmlns:sodipodi="http://sodipodi.sourceforge.net/DTD/sodipodi-0.dtd" xmlns:inkscape="http://www.inkscape.org/namespaces/inkscape" enable-background="new 0 0 499.895 500.093" id="svg6649" version="1.1" viewBox="0 0 499.895 500.093" xml:space="preserve"><metadata id="metadata11664"><rdf:RDF><cc:Work rdf:about=""><dc:format>image/svg+xml</dc:format><dc:type rdf:resource="http://purl.org/dc/dcmitype/StillImage"/></cc:Work></rdf:RDF></metadata><defs id="defs11662"> </defs><circle cx="287" cy="287" id="circle12991" r="285" d="M 572,287 C 572,444.40115 444.40115,572 287,572 129.59885,572 2,444.40115 2,287 2,129.59885 129.59885,2 287,2 444.40115,2 572,129.59885 572,287 z" style="fill:#ffffff;stroke:#000000" transform="matrix(0.87565676,0,0,0.87565676,-1.3541768,-1.2749436)"/><g id="g11677"><path id="path1933-0" d="m 317.62342,118.01992 c 0,0 -32.46254,54.18842 -32.89023,70.88222 h 0.0349 l 51.20157,23.21888 0.4904,-1.63323 c 6.58954,-8.99104 10.18526,-4.61921 20.11531,-5.98851 4.51556,0 18.51169,-2.57223 21.09612,-11.84114 2.33181,-8.35605 14.55883,-8.58339 14.34542,-14.01879 9.9466,-10.54414 -72.76805,-22.78335 -74.39344,-60.61943 l 0,0 z m -37.70107,75.04761 -0.84405,0.73517 c -4.92322,3.63841 -25.06378,11.94829 -46.51965,16.55008 -21.45673,4.60179 -44.23399,5.49027 -48.94205,6.55992 -9.88562,1.15067 -25.48275,2.40238 -38.65313,1.03482 -10.92305,-1.13412 -11.0267,-6.85522 -16.9856,-10.45268 -11.74794,-7.09301 -31.697743,4.70371 -13.69213,19.27213 11.47094,3.85268 20.7834,9.88823 18.83659,39.36042 -0.91461,13.8437 4.1863,20.48028 2.55829,33.83619 0.64981,12.63468 -9.74886,38.20018 -10.26191,56.50979 -0.87193,9.46316 2.37798,22.34783 9.82639,23.54466 0,0 14.39856,1.45727 22.70234,0 0,0 0.32752,-38.45279 0.84405,-47.52659 5.67755,-10.2201 23.72236,-39.64003 28.69086,-48.3715 10.16959,-7.11828 12.50402,-12.16953 29.53404,-8.57468 18.96116,7.86564 65.73689,23.02812 65.73689,23.02812 0,0 0.43989,15.25394 4.46504,29.20739 0,0 0.5296,38.45105 0.87105,42.383 0.85538,9.84555 1.4416,10.36295 7.26723,11.13297 0,0 13.68517,1.7125 22.67621,0 l 3.34747,-85.88094 c 1.97033,-13.69562 9.00411,-27.63775 14.48044,-48.098 0.31794,-6.05123 0.0296,-27.11599 -1.33358,-29.34415 l -54.60479,-24.90612 z"/><path d="m 249.94494,7.572573 c -59.6935,0 -114.34794,21.731117 -156.545397,57.707491 -1.107113,0.944225 -2.203773,1.894548 -3.293464,2.858807 -0.438142,0.38675 -0.871928,0.780467 -1.306585,1.1707 -0.932902,0.836215 -1.857093,1.680268 -2.776057,2.53129 -0.245638,0.227346 -0.490405,0.45295 -0.735172,0.680296 -1.087949,1.01478 -2.169801,2.040885 -3.239459,3.0757 -1.226447,1.186379 -2.446797,2.381468 -3.647984,3.593108 -1.17854,1.189863 -2.357079,2.379726 -3.511229,3.593108 -1.196832,1.259547 -2.368402,2.553066 -3.538231,3.837875 -0.134143,0.147208 -0.275254,0.288319 -0.408526,0.435528 -1.011296,1.115823 -2.002559,2.240357 -2.993821,3.375344 -1.081852,1.238642 -2.12712,2.494705 -3.184582,3.755995 -0.04094,0.04965 -0.09495,0.08711 -0.135885,0.135885 -35.274303,42.14084 -56.5367914,96.45383 -56.5367914,155.72835 0,133.84218 108.3428734,242.45247 241.8549234,242.45247 59.82503,0 114.57703,-21.84 156.81717,-57.95139 l 0.027,0.0253 c 0.33623,-0.28745 0.67159,-0.58012 1.00782,-0.87105 0.13501,-0.1176 0.27176,-0.23432 0.40852,-0.35365 0.81879,-0.71079 1.6402,-1.42767 2.44941,-2.15064 0.63849,-0.57054 1.27174,-1.13673 1.90587,-1.71511 0.17944,-0.16376 0.36323,-0.32404 0.54267,-0.49041 0.84406,-0.77175 1.67156,-1.55483 2.50429,-2.33965 0.74824,-0.70469 1.49386,-1.4085 2.23252,-2.12277 0.10191,-0.0976 0.19947,-0.20121 0.30051,-0.30051 0.9451,-0.9181 1.87103,-1.84142 2.80306,-2.77519 0.27177,-0.27351 0.54702,-0.54267 0.81618,-0.81618 1.09143,-1.10537 2.1698,-2.22468 3.24033,-3.34747 0.1054,-0.11324 0.22038,-0.21689 0.32578,-0.32839 1.22644,-1.29265 2.44941,-2.59749 3.64624,-3.91975 1.09927,-1.21077 2.16632,-2.44157 3.24033,-3.67412 0.19947,-0.22822 0.40068,-0.45121 0.59929,-0.68204 0.91809,-1.06094 1.82225,-2.13321 2.7203,-3.21071 35.12884,-42.09206 56.2929,-96.29703 56.2929,-155.42957 0,-133.84132 -108.37075,-242.478607 -241.88193,-242.478607 l 0,0 z m 0,54.059507 c 103.74718,0 187.95831,84.41495 187.95831,188.42084 0,44.28886 -15.25743,85.03253 -40.80464,117.2111 L 131.86278,103.52467 c 32.27613,-26.1857 73.35428,-41.89259 118.08216,-41.89259 z m -146.8819,70.91009 265.29158,263.79336 c -32.33014,26.33987 -73.53546,42.13648 -118.40968,42.13648 -103.74718,0 -187.930433,-84.41408 -187.930433,-188.41909 0,-44.42824 15.361952,-85.28514 41.048533,-117.51075 z" id="path1979-90" style="fill:#d40000;stroke:#d40000;stroke-width:0.8710565"/></g>
</svg>