<?xml version="1.0" encoding="UTF-8" standalone="no"?>
<svg xmlns:dc="http://purl.org/dc/elements/1.1/" xmlns:cc="http://creativecommons.org/ns#" xmlns:rdf="http://www.w3.org/1999/02/22-rdf-syntax-ns#" xmlns:svg="http://www.w3.org/2000/svg" xmlns="http://www.w3.org/2000/svg" xmlns:sodipodi="http://sodipodi.sourceforge.net/DTD/sodipodi-0.dtd" xmlns:inkscape="http://www.inkscape.org/namespaces/inkscape" enable-background="new 0 0 499.895 500.093" id="svg7489" version="1.1" viewBox="0 0 499.895 500.093" xml:space="preserve"><metadata id="metadata12032"><rdf:RDF><cc:Work rdf:about=""><dc:format>image/svg+xml</dc:format><dc:type rdf:resource="http://purl.org/dc/dcmitype/StillImage"/></cc:Work></rdf:RDF></metadata><defs id="defs12030"> </defs><circle cx="287" cy="287" id="circle12991" r="285" d="M 572,287 C 572,444.40115 444.40115,572 287,572 129.59885,572 2,444.40115 2,287 2,129.59885 129.59885,2 287,2 444.40115,2 572,129.59885 572,287 z" style="fill:#ffffff;stroke:#000000" transform="matrix(0.87565676,0,0,0.87565676,-1.3567901,-1.2741901)"/><path d="m 157.0522,280.4448 0.845,2.533 0.845,2.533 0.845,1.689 0.845,2.533 v 1.689 l 0.845,2.533 0.845,2.534 0.845,1.688 0.845,-1.688 v -1.688 l 0.845,-0.846 v -8.445 l 4.223,2.533 2.534,4.224 1.689,4.223 1.689,5.067 0.845,5.067 0.845,5.067 0.845,4.223 1.689,4.224 0.845,-0.845 0.845,-1.689 0.845,-0.844 v -1.689 l 0.845,-1.689 v -0.844 l 0.845,-1.689 v -1.689 l 3.378,5.068 0.845,5.066 0.845,5.912 -0.845,5.912 -0.845,5.912 -0.845,5.912 v 5.068 l 0.845,3.378 v -0.845 h 0.845 l 0.845,-0.845 0.845,-0.845 v -0.845 l 0.845,-0.845 0.845,-0.845 v -0.845 l 0.845,1.689 0.845,1.688 v 5.067 l -0.845,1.689 v 2.533 l -0.845,2.533 v 2.534 l -1.689,4.224 -2.534,4.223 -6.757,6.757 -3.378,2.534 -8.446,3.378 -4.223,0.845 h -5.912 l -1.689,-0.845 h -2.534 l -1.689,-0.845 2.534,-0.845 2.534,-1.688 2.534,-1.689 3.378,-2.533 4.223,-4.223 1.689,-3.379 1.689,-2.533 0.845,-1.689 0.845,-1.689 0.845,-1.688 v -1.688 l 0.845,-1.689 v -5.912 l -0.845,0.845 h -0.845 v 0.845 h -1.689 v 0.845 h -1.689 l 0.845,-1.688 0.845,-2.534 v -6.757 l -0.845,-1.689 -0.845,-2.533 -0.845,-1.689 -0.845,1.689 -0.845,1.689 -1.689,3.378 -0.845,1.688 -0.845,1.689 -2.534,2.533 0.845,-5.912 v -5.912 l -1.689,-10.135 -2.534,-4.223 -2.534,-3.379 -5.067,-5.066 v 5.066 l 0.845,5.068 v 5.912 l 0.845,5.912 -0.845,5.912 v 5.066 l -1.689,4.224 -1.689,-1.688 -0.845,-1.689 -0.845,-1.689 -0.845,-2.533 -0.845,-1.689 -0.845,-1.688 v -1.688 l -0.845,-2.534 -1.689,3.378 -0.845,3.379 v 14.357 l 0.845,3.379 0.845,3.379 -2.534,-2.534 -1.689,-3.378 -1.688,-3.379 -0.846,-3.379 -0.844,-4.223 -0.846,-3.379 -0.844,-4.223 -0.846,-3.378 -0.844,2.534 -0.846,1.688 -0.844,2.534 v 2.533 l -0.846,1.689 v 2.533 l -0.844,2.533 v 2.534 l -0.846,-0.845 -0.844,-0.845 v -0.845 l -3.379,-3.379 0.846,5.068 1.689,5.066 0.844,5.068 2.535,5.066 5.066,8.446 4.224,3.378 3.378,2.534 -2.534,0.845 h -2.533 l -2.535,-0.845 h -2.533 l -2.535,-0.845 -2.533,-0.845 -2.535,-1.688 -2.533,-2.534 h -0.846 l -0.844,-0.845 -0.846,-0.845 v -0.845 l -1.689,-1.689 v -0.844 l -0.844,-0.846 -0.846,-1.688 v -0.845 l -0.844,-0.845 v -1.688 l -0.846,-0.846 v -2.533 l -0.844,-0.845 v -3.378 l -0.846,-0.846 v -28.716 h 0.846 l 0.844,0.845 h 0.846 l 0.844,0.845 1.689,1.688 h 0.846 l 0.844,-0.844 v -6.758 l 0.846,-3.378 0.844,-3.378 0.846,-4.224 v -10.979 l 1.689,0.845 2.533,2.534 0.846,1.688 0.844,1.688 1.689,1.689 0.846,1.689 0.844,1.688 1.689,-3.378 1.689,-4.223 v -5.068 l 0.846,-5.912 -0.846,-5.912 v -5.912 l -0.844,-3.378 -0.846,-2.534 3.379,1.689 1.689,0.845 0.844,1.688 1.689,1.689 1.689,3.379 0.845,1.688 1.689,-3.378 0.845,-4.224 v -16.048 l 0.845,-4.223 1.689,-3.378 0.845,3.378 0.845,2.534 0.845,2.534 1.689,2.533 1.689,2.533 2.534,1.689 1.689,2.533 0.845,2.534 0,0.018 z m -7.601,16.047 h 0.845 l 0.845,-1.689 v -0.844 l 0.845,-0.846 0.845,-1.688 v -4.224 l -0.845,-0.844 -0.845,-0.846 -0.845,-0.844 -0.845,-0.846 -0.845,-0.844 v -0.846 l -0.845,-1.688 v 5.912 2.534 l 0.845,1.688 v 2.534 l 0.845,1.688 v 1.688 0.01 z m 25.338,91.217 v 1.688 h -53.21 v -1.688 h 53.21 l 0,1.688 0,-1.688 0,0 z m -5.068,-105.574 -0.845,-3.379 1.689,-2.533 5.912,-5.912 4.223,-2.534 4.223,-3.378 3.378,-2.534 2.534,-2.534 -3.378,0.846 -3.378,0.844 -3.378,2.534 -6.757,3.378 -3.378,1.689 -2.534,0.845 h -2.534 l -0.845,-1.688 0.845,-0.846 0.845,-1.688 2.534,-3.378 10.979,-10.98 -0.845,0.845 -2.534,0.845 -2.534,1.689 -3.378,1.688 -3.378,0.845 h -2.534 l -0.845,-0.845 -0.845,-0.845 v -1.689 l 0.845,-1.688 1.689,-3.378 1.689,-2.534 7.602,-7.602 2.534,-1.689 3.378,-2.534 6.757,-5.067 4.223,-3.378 4.223,-3.378 5.067,-3.378 5.067,-3.378 5.067,-2.534 5.067,-3.378 4.223,-1.689 37.162,-15.203 -2.534,-3.378 -2.533,-3.378 -1.689,-3.378 -2.533,-3.378 -1.689,-3.378 -2.534,-3.378 -1.689,-3.378 -2.534,-3.378 16.893,-7.602 -4.223,-41.385 v -2.534 l 2.533,-2.534 1.689,-0.845 h 4.223 l 0.845,0.845 h 1.688 v 0.845 l 0.846,0.845 0.844,0.845 v 0.845 l 4.223,38.007 83.615,-31.25 36.318,58.277 -94.596,69.257 -6.757,5.067 -6.757,5.067 -5.912,6.757 -5.067,5.912 -5.067,6.757 -5.067,5.912 -4.224,6.757 -4.223,6.757 -2.533,5.067 -2.534,5.912 -1.689,5.912 -2.534,6.757 -2.534,5.912 -3.378,5.912 -3.378,5.912 -3.378,4.223 -1.689,-4.223 -0.845,-4.224 -0.845,-3.378 0.845,-4.224 0.845,-4.223 0.845,-3.378 0.845,-4.224 1.689,-3.378 v -1.688 l 0.845,-0.846 v -1.688 l -0.845,-0.845 -5.067,2.533 -1.689,0.846 -1.689,0.844 -1.689,1.689 -1.689,1.689 -1.689,2.533 -0.845,3.379 -0.845,4.223 -0.845,5.067 -1.689,4.224 -1.689,5.066 -2.534,3.379 -3.378,2.533 -4.223,1.689 -0.845,-0.845 -0.845,-0.845 -0.845,-0.845 -0.845,-1.688 v -3.379 l 0.845,-1.689 1.689,-3.378 1.689,-3.378 1.689,-2.534 2.534,-3.378 1.689,-1.689 2.534,-2.533 2.534,-1.689 2.534,-2.533 v -5.068 l 0.845,-2.533 1.689,-2.533 0.845,-2.534 1.689,-2.534 1.689,-1.688 0.845,-1.688 1.689,-2.534 1.689,-1.688 1.689,-1.689 2.534,-1.689 5.067,-5.066 0.845,-1.689 5.067,-5.067 4.223,-4.224 4.223,-4.223 4.223,-4.223 4.224,-4.223 4.223,-5.068 4.223,-5.066 4.223,-5.068 -5.912,3.378 -5.066,3.379 -10.136,8.445 -5.067,4.223 -4.223,5.067 -5.067,4.224 -3.378,5.066 -5.067,3.379 -4.223,4.223 -3.378,4.224 -4.223,4.223 -4.223,3.378 -5.067,3.379 -5.067,1.689 -6.757,1.688 v -5.067 l 1.689,-2.533 3.378,-5.068 5.067,-5.066 1.689,-1.689 h -0.845 l -1.689,0.845 -1.689,1.688 -2.534,0.846 -1.689,1.688 -2.534,0.845 h -2.534 v -4.223 l 1.689,-2.534 1.689,-3.378 2.534,-1.689 3.378,-2.533 2.534,-2.534 1.689,-1.688 1.689,-3.379 -3.378,0.845 -4.223,1.688 -5.912,2.534 -6.757,2.534 -5.912,1.688 -5.912,1.688 -4.223,0.846 -2.534,-0.846 0,-0.012 z m 91.216,-166.386 10.135,93.75 h -5.912 l -8.445,-92.905 v -1.689 h 3.379 l 0.843,0.844 0,0 z m 11.825,135.136 2.533,-4.223 0.846,-2.534 -1.689,-0.845 h -2.533 l -3.379,1.689 -3.379,0.845 -2.533,1.689 -2.533,1.689 -30.406,27.872 -4.223,4.223 -7.601,7.602 -3.378,3.379 -4.223,3.378 -3.378,2.534 -4.223,2.533 -3.378,1.689 0.845,-2.534 1.689,-2.534 2.534,-2.533 2.534,-3.379 2.534,-2.533 1.689,-2.533 1.689,-2.534 v -1.688 l -1.689,-0.846 h -0.845 l -2.534,0.846 -1.689,1.688 -2.534,0.845 -2.534,1.689 -1.689,1.688 -1.689,0.845 0.845,-1.689 1.689,-2.533 2.534,-1.689 2.534,-1.688 2.534,-2.534 2.534,-3.378 1.689,-3.378 0.845,-3.379 -1.689,-0.845 -4.223,0.845 -5.067,1.689 -6.757,2.533 -5.912,1.689 -5.912,2.533 -5.912,0.845 -4.223,0.845 4.223,-4.223 2.534,-1.689 2.534,-2.533 2.534,-1.689 1.689,-1.689 5.067,-3.378 1.689,-3.378 0.845,-1.689 0.845,-1.689 v -0.844 l -1.689,-0.846 h -1.689 l -2.534,0.846 -3.378,0.844 -1.689,0.846 -2.534,1.688 -1.689,0.845 -2.534,0.845 -1.689,1.688 -2.534,0.846 -1.689,0.844 -1.689,0.846 5.912,-5.912 2.534,-2.534 3.378,-3.378 2.534,-1.689 1.689,-2.534 0.845,-1.689 v -0.845 h -3.378 l -2.534,0.845 -2.534,1.689 -3.378,0.845 -2.534,1.689 -3.378,0.845 h -1.689 l 1.689,-2.534 1.689,-2.534 2.534,-2.534 5.067,-5.067 6.757,-5.067 4.223,-2.534 5.067,-4.223 5.067,-3.378 4.223,-2.534 3.378,-2.534 4.223,-2.534 4.223,-2.534 4.223,-1.689 5.067,-2.534 8.446,-3.378 4.223,-1.689 4.223,-1.689 8.446,-3.378 4.223,-1.689 4.223,-1.689 2.534,3.378 -2.534,1.689 -1.688,1.689 -0.845,1.689 -0.845,1.689 v 4.223 l 1.688,4.223 2.534,2.534 3.378,2.534 h 5.068 l 2.533,-0.845 2.533,-0.845 1.689,3.378 2.533,3.378 2.534,3.378 2.534,3.378 2.533,4.223 2.533,3.378 2.534,3.378 1.688,3.378 -5.912,5.067 -6.756,5.912 -5.912,5.067 -5.068,5.912 -5.066,6.757 -5.068,5.912 -4.223,6.757 -5.067,7.602 -1.689,4.223 -2.534,5.912 -5.067,13.514 -2.534,5.912 -2.534,5.912 -1.689,3.379 -0.845,1.688 -0.845,-0.845 v -5.067 l 0.845,-3.378 0.845,-3.379 1.689,-8.445 1.689,-4.224 0.845,-0.845 v -1.689 l -0.845,-0.844 v -0.846 l -0.845,-1.688 -0.845,-0.845 h -3.378 l -2.534,0.845 -1.689,0.845 -1.689,0.845 -1.689,1.688 0.845,-2.533 1.689,-3.379 1.689,-2.533 2.534,-3.379 8.446,-8.445 2.534,-1.689 4.223,-4.223 4.223,-5.067 4.222,-4.224 4.224,-4.223 3.378,-4.223 4.224,-4.223 4.223,-5.068 3.378,-4.223 v 0 z m -69.257,92.06 -0.845,-1.689 v -1.688 l 1.689,-5.067 1.689,-3.379 2.534,-2.533 1.689,-2.533 2.534,-1.689 v 2.533 l -0.845,2.534 -0.845,3.378 -1.689,2.534 -0.845,2.534 -1.689,1.688 -3.377,3.377 0,0 z m -10.98,-58.277 -2.534,2.534 -1.689,2.534 -0.845,3.378 -0.845,3.378 -1.689,3.379 -1.689,2.533 -2.534,1.689 -3.378,0.845 -1.689,-1.688 v -1.689 l -0.845,-0.845 0.845,-1.688 v -1.689 l 0.845,-1.689 0.845,-0.844 0.845,-1.689 1.689,-1.689 1.689,-1.688 1.689,-1.688 5.067,-2.534 2.534,-0.845 h 1.689 v -0.01 z m -13.514,16.892 -0.845,-0.845 v -1.688 l 0.845,-2.534 1.689,-1.688 0.845,-1.689 1.689,-1.689 1.689,-0.844 v 2.533 l -0.845,1.689 -0.845,2.533 -1.689,1.689 -0.845,1.688 -0.845,0.845 h -0.843 l 0,0 z m -60.81,-7.601 -0.846,-1.688 v -1.688 l 0.846,-2.534 1.689,-2.534 1.689,-2.533 1.689,-2.533 1.689,-1.689 h 1.689 v 0.845 l -0.846,2.534 -0.844,1.688 -0.846,2.534 -1.689,2.533 -1.689,2.533 -0.844,1.689 -1.687,0.843 0,0 z m 16.891,-21.959 -3.377,3.379 -1.689,3.378 -1.689,4.223 -0.846,4.224 -1.689,4.223 -1.689,2.533 -1.689,1.689 -1.689,0.845 h -5.066 l -1.689,-0.845 -0.846,-2.533 v -1.689 l 0.846,-1.689 v -1.688 l 0.844,-1.688 0.846,-1.689 0.844,-1.689 4.223,-4.223 2.535,-1.688 1.689,-1.688 2.533,-0.846 2.535,-1.688 h 2.533 l 2.535,-0.845" id="path15140" style="fill:#000000"/>
<path d="m 249.9442,7.5728 c -59.693,0 -114.349,21.731 -156.546,57.708 -1.107,0.944 -2.203,1.895 -3.293,2.858 -0.438,0.387 -0.873,0.78 -1.307,1.17 -0.934,0.837 -1.857,1.681 -2.777,2.532 -0.244,0.227 -0.49,0.453 -0.734,0.681 -1.088,1.015 -2.17,2.041 -3.24,3.076 -1.227,1.187 -2.445,2.381 -3.646,3.593 -1.18,1.189 -2.357,2.38 -3.512,3.593 -1.197,1.259 -2.369,2.553 -3.539,3.838 -0.135,0.147 -0.275,0.288 -0.408,0.436 -1.012,1.116 -2.004,2.241 -2.994,3.375 -1.082,1.239 -2.129,2.496 -3.186,3.756 -0.041,0.049 -0.094,0.087 -0.135,0.136 -35.275,42.141 -56.537,96.455 -56.537,155.729 0,133.843 108.342,242.452 241.854,242.452 59.826,0 114.578,-21.84 156.818,-57.951 l 0.027,0.025 c 0.336,-0.287 0.672,-0.58 1.006,-0.871 0.137,-0.117 0.273,-0.234 0.408,-0.354 0.82,-0.711 1.641,-1.428 2.451,-2.15 0.639,-0.57 1.271,-1.139 1.904,-1.715 0.182,-0.164 0.363,-0.324 0.545,-0.49 0.842,-0.773 1.672,-1.557 2.504,-2.34 0.748,-0.705 1.494,-1.41 2.232,-2.123 0.102,-0.1 0.197,-0.201 0.299,-0.301 0.947,-0.918 1.873,-1.842 2.805,-2.775 0.271,-0.273 0.545,-0.543 0.816,-0.816 1.09,-1.104 2.17,-2.223 3.238,-3.348 0.105,-0.111 0.221,-0.215 0.326,-0.328 1.227,-1.293 2.451,-2.598 3.648,-3.92 1.098,-1.211 2.164,-2.441 3.238,-3.674 0.199,-0.229 0.402,-0.451 0.6,-0.682 0.918,-1.061 1.822,-2.133 2.723,-3.211 35.129,-42.092 56.291,-96.297 56.291,-155.429 0,-133.842 -108.369,-242.48 -241.882,-242.48 h 0 z m 0,54.06 c 103.747,0 187.958,84.416 187.958,188.42 0,44.289 -15.256,85.033 -40.803,117.211 l -265.238,-263.739 c 32.278,-26.185 73.355,-41.892 118.083,-41.892 l 0,0 z m -146.882,70.909 265.291,263.794 c -32.33,26.34 -73.534,42.137 -118.409,42.137 -103.748,0 -187.931,-84.415 -187.931,-188.42 0,-44.429 15.364,-85.286 41.049,-117.511 l 0,0 z" id="path15142" style="fill:#d40000;stroke:#d40000;stroke-width:0.87110001"/></svg>