<?xml version="1.0" encoding="UTF-8" standalone="no"?>
<svg xmlns:dc="http://purl.org/dc/elements/1.1/" xmlns:cc="http://creativecommons.org/ns#" xmlns:rdf="http://www.w3.org/1999/02/22-rdf-syntax-ns#" xmlns:svg="http://www.w3.org/2000/svg" xmlns="http://www.w3.org/2000/svg" xmlns:sodipodi="http://sodipodi.sourceforge.net/DTD/sodipodi-0.dtd" xmlns:inkscape="http://www.inkscape.org/namespaces/inkscape" enable-background="new 0 0 499.895 500.093" id="svg7454" version="1.1" viewBox="0 0 499.895 500.093" xml:space="preserve"><metadata id="metadata25602"><rdf:RDF><cc:Work rdf:about=""><dc:format>image/svg+xml</dc:format><dc:type rdf:resource="http://purl.org/dc/dcmitype/StillImage"/></cc:Work></rdf:RDF></metadata><defs id="defs25600"> </defs><circle cx="287" cy="287" id="circle12991-1" r="285" d="M 572,287 C 572,444.40115 444.40115,572 287,572 129.59885,572 2,444.40115 2,287 2,129.59885 129.59885,2 287,2 444.40115,2 572,129.59885 572,287 z" style="fill:#ffffff;stroke:#000000" transform="matrix(0.87565676,0,0,0.87565676,-1.3566901,-1.2729901)"/><path d="m 250.3808,215.411 -2.534,-2.534 -10.135,10.135 2.534,2.534 10.135,-10.135 z m -12.669,13.513 -2.534,-2.534 -9.291,10.979 2.534,2.534 9.291,-10.979 z m -12.668,14.358 -2.534,-2.534 -9.291,10.136 2.534,2.533 9.291,-10.135 z m -12.669,13.514 -2.534,-2.534 -9.291,10.979 2.534,2.534 9.291,-10.979 0,0 z m -12.669,14.358 -2.534,-2.533 -9.291,10.135 2.534,2.533 9.291,-10.135 z m -12.669,13.513 -2.534,-1.689 -9.291,10.136 2.534,2.534 9.291,-10.981 z m -12.669,14.358 -2.534,-2.533 -9.291,10.979 2.534,2.534 9.291,-10.98 0,0 z m -12.669,14.359 -2.534,-2.534 -9.291,10.136 2.534,2.533 9.291,-10.135 z m -12.669,13.514 -2.534,-2.534 -9.291,10.979 2.535,2.533 9.29,-10.978 0,0 z m -12.669,14.357 -2.535,-2.533 -9.289,10.135 2.533,2.533 9.291,-10.135 0,0 z m 122.466,-144.425 -2.533,-2.534 -10.136,9.291 1.689,2.534 10.98,-9.291 0,0 z m 14.358,-11.825 -2.533,-2.534 -10.979,9.291 2.534,2.534 10.978,-9.291 z m -28.716,24.493 -2.534,-2.534 -10.135,9.291 2.534,2.534 10.135,-9.291 z m -14.358,12.669 -1.689,-2.534 -10.979,9.291 2.534,2.534 10.134,-9.291 0,0 z m -13.514,11.825 -2.534,-2.534 -10.135,9.291 1.689,2.534 10.98,-9.291 z m -14.358,12.669 -2.534,-2.534 -10.135,9.291 2.534,2.533 10.135,-9.29 z m -14.358,12.669 -1.689,-2.533 -10.98,9.29 2.534,2.534 10.135,-9.291 z m -13.513,11.824 -2.534,-2.533 -10.98,9.29 2.534,2.534 10.98,-9.291 0,0 z m -14.358,12.669 -2.534,-2.534 -10.135,9.291 1.689,2.533 10.98,-9.29 0,0 z m -14.358,12.669 -2.535,-2.533 -10.135,9.29 2.535,2.534 10.135,-9.291 0,0 z m -14.359,12.669 -1.689,-3.378 -10.979,9.29 2.533,3.378 10.135,-9.29 z m -13.514,11.824 -2.533,-2.534 -10.135,9.291 1.689,2.533 10.979,-9.29 z m 121.622,-117.399 -1.689,-2.534 -11.824,7.601 1.689,3.378 11.824,-8.445 z m -15.202,10.98 -1.689,-3.378 -11.824,8.446 1.689,2.534 11.824,-7.602 z m -15.203,10.135 -2.534,-2.534 -10.979,7.602 1.689,3.378 11.824,-8.446 0,0 z m -15.202,10.98 -2.534,-2.534 -10.979,7.601 1.689,3.378 11.824,-8.445 z m -16.048,10.98 -1.689,-3.378 -10.979,8.446 1.689,2.533 10.979,-7.601 z m -15.202,10.135 -1.689,-2.534 -11.824,7.602 2.534,3.378 10.979,-8.446 0,0 z m -15.203,10.979 -1.689,-2.533 -11.824,7.602 2.533,3.378 10.98,-8.447 0,0 z m -15.202,10.98 -1.689,-3.379 -11.824,8.446 1.689,2.534 11.824,-7.601 z m -15.203,10.98 -2.535,-3.378 -10.979,8.445 1.689,2.533 11.825,-7.6 0,0 z m -15.203,10.136 -2.535,-2.534 -10.979,7.601 1.689,3.379 11.825,-8.446 z m 149.493,-111.487 -1.689,-3.378 -12.669,6.757 1.689,3.378 12.669,-6.757 z m 16.891,-8.446 -1.688,-3.378 -11.824,6.757 1.688,2.534 11.824,-5.913 z m -32.939,17.736 -1.689,-3.378 -12.669,6.757 1.689,2.534 12.669,-5.913 z m -16.892,8.446 -1.689,-3.378 -11.824,6.757 1.689,3.378 11.824,-6.757 z m -16.047,9.291 -1.689,-3.378 -12.669,6.757 1.689,2.534 12.669,-5.913 z m -16.892,8.445 -1.689,-3.378 -11.824,6.757 1.689,3.378 11.824,-6.757 z m -16.048,9.291 -1.689,-3.378 -12.669,6.757 1.689,2.534 12.669,-5.913 z m -16.892,8.446 -1.689,-3.378 -11.824,6.757 1.689,3.378 11.824,-6.757 0,0 z m -16.048,9.29 -1.689,-3.378 -12.668,6.756 1.689,2.534 12.668,-5.912 z m -16.89,8.447 -0.846,-3.379 -12.668,6.757 1.689,3.378 11.825,-6.756 z m -16.047,8.445 -1.689,-2.533 -11.824,6.756 1.689,2.534 11.824,-6.757 z m -16.047,9.291 -1.689,-3.379 -12.67,6.757 1.689,3.378 12.67,-6.756 z m 176.521,-74.325 3.378,1.689 -8.446,11.824 -2.533,-2.534 7.601,-10.979 0,0 z m 10.978,-15.202 3.379,1.689 -8.445,11.824 -2.534,-2.534 7.6,-10.979 0,0 z m -21.959,30.405 3.379,2.534 -8.446,10.98 -2.534,-1.689 7.601,-11.825 0,0 z m -10.979,15.202 3.378,2.534 -8.446,11.824 -2.534,-2.534 7.602,-11.824 z m -10.136,16.048 2.534,1.688 -8.446,11.824 -2.534,-2.533 8.446,-10.979 z m -10.98,15.202 2.534,1.689 -8.446,11.824 -2.534,-2.533 8.446,-10.98 z m -10.979,15.203 2.534,2.533 -8.446,10.98 -2.534,-1.689 8.446,-11.824 z m -10.98,15.203 2.534,2.533 -8.446,11.824 -2.534,-2.533 8.446,-11.824 z m -10.979,16.047 2.534,1.689 -8.446,11.824 -2.534,-2.534 8.446,-10.979 z m -10.98,15.203 2.534,1.688 -8.446,11.824 -2.534,-1.688 8.446,-11.824 z m -10.98,15.202 2.534,2.534 -8.446,10.979 -2.534,-1.688 8.446,-11.825 z m -10.979,15.202 2.534,2.534 -7.602,11.824 -3.378,-2.534 8.446,-11.824 0,0 z m 104.73,-133.445 2.533,1.689 -6.757,12.669 -3.378,-2.534 7.602,-11.824 z m -9.291,16.048 2.533,1.689 -6.756,12.669 -3.378,-1.688 7.601,-12.67 z m -9.291,16.892 2.534,1.689 -6.757,12.668 -2.534,-1.688 6.757,-12.669 z m -9.29,16.892 3.378,1.688 -7.602,11.824 -2.534,-1.688 6.758,-11.824 z m -9.291,16.047 3.378,1.689 -7.601,12.668 -2.534,-1.688 6.757,-12.669 0,0 z m -9.29,16.893 3.378,1.688 -7.602,12.669 -2.534,-2.533 6.758,-11.824 z m -9.291,16.047 3.378,2.533 -6.757,11.824 -3.378,-1.688 6.757,-12.669 z m -9.29,16.892 3.378,1.688 -6.757,12.669 -3.378,-1.689 6.757,-12.668 z m -9.291,16.892 3.378,1.688 -6.757,11.824 -3.378,-1.688 6.757,-11.824 z m -9.29,16.048 3.378,1.688 -6.757,12.669 -3.378,-1.689 6.757,-12.668 z m 97.129,-162.163 3.378,1.689 -5.912,12.669 -3.378,-0.845 5.912,-13.513 0,0 z m 7.601,-17.736 3.378,0.845 -5.912,13.514 -2.534,-1.689 5.068,-12.67 0,0 z m -15.203,35.473 3.379,1.689 -5.912,12.669 -2.534,-1.689 5.067,-12.669 z m -7.602,17.736 3.379,0.845 -5.068,13.514 -3.378,-1.688 5.067,-12.671 0,0 z m -6.756,16.893 3.378,1.688 -5.912,13.514 -3.378,-1.688 5.912,-13.514 z m -7.601,17.736 3.378,1.688 -5.912,12.669 -2.534,-0.845 5.068,-13.512 0,0 z m -7.602,17.736 3.378,1.688 -5.067,12.669 -3.378,-0.845 5.067,-13.512 0,0 z m -6.757,17.737 3.378,0.844 -5.912,13.514 -3.378,-1.688 5.912,-12.67 0,0 z m -7.601,17.736 3.378,0.844 -5.912,13.514 -3.378,-1.688 5.912,-12.67 0,0 z m -7.601,16.892 3.378,1.688 -5.067,13.514 -3.378,-1.688 5.067,-13.514 z m -6.757,17.736 2.534,1.688 -5.067,12.67 -3.378,-0.846 5.911,-13.512 0,0 z m -7.601,17.736 3.378,0.845 -5.912,13.514 -3.378,-1.689 5.912,-12.67 0,0 z m 114.864,-271.959 8.445,-5.912 10.137,5.067 1.688,-1.689 0.846,-0.845 1.689,-0.845 1.688,-1.689 0.846,-0.845 1.689,-0.845 1.688,-0.845 1.689,-0.845 1.689,-0.845 1.689,-0.845 h 1.688 l 1.689,-0.845 1.689,-0.845 h 8.445 l 1.689,0.845 h 1.689 l 1.688,0.845 1.689,0.845 1.689,1.689 1.689,0.845 0.844,1.689 0.846,1.689 1.688,1.689 0.846,1.689 v 0.845 l 0.844,1.689 0.846,1.689 21.115,89.527 1.688,5.067 2.535,3.378 3.377,2.534 4.223,1.689 3.379,0.845 4.223,0.845 h 8.447 v 9.291 h -6.758 l -5.912,-0.845 -5.912,-0.845 -5.066,-2.534 -4.225,-2.534 -4.223,-3.378 -2.533,-4.223 -1.689,-5.067 -21.959,-90.372 -0.846,-1.689 v -1.689 l -2.533,-2.534 v -0.845 h -0.844 v -0.845 h -0.846 l -0.844,-0.845 h -0.846 l -0.844,-0.845 h -6.758 l -1.689,0.845 h -0.844 l -1.689,0.845 h -0.844 l -0.846,0.845 -1.689,0.845 -0.844,0.845 -1.689,0.845 -0.844,0.845 -0.846,0.845 -0.844,0.845 -0.846,0.845 6.758,10.979 -5.912,9.291 -27.027,-26.183 0.01,0 z m 8.446,34.628 -16.047,-15.203 6.758,-10.135 19.426,18.581 -10.137,6.757 z m -18.58,-10.979 14.357,14.358 -30.405,21.115 -2.534,-2.534 18.582,-32.939 z m 7.601,-21.96 -32.096,55.743 7.602,8.446 52.365,-38.007 -27.871,-26.182" id="path15119" style="fill:#000000"/><path d="m 249.9448,7.573 c -59.693,0 -114.348,21.731 -156.545,57.708 -1.107,0.944 -2.205,1.895 -3.295,2.858 -0.438,0.387 -0.871,0.78 -1.307,1.17 -0.932,0.837 -1.855,1.681 -2.775,2.532 -0.246,0.227 -0.49,0.453 -0.736,0.681 -1.088,1.015 -2.17,2.041 -3.238,3.076 -1.227,1.187 -2.447,2.381 -3.648,3.593 -1.178,1.189 -2.357,2.38 -3.512,3.593 -1.197,1.259 -2.367,2.553 -3.539,3.838 -0.133,0.147 -0.273,0.288 -0.408,0.436 -1.012,1.116 -2.002,2.241 -2.994,3.375 -1.082,1.239 -2.127,2.496 -3.184,3.756 -0.041,0.049 -0.096,0.087 -0.137,0.136 -35.273,42.141 -56.537,96.455 -56.537,155.729 0,133.842 108.344,242.454 241.855,242.454 59.826,0 114.578,-21.84 156.818,-57.953 l 0.027,0.027 c 0.336,-0.289 0.672,-0.582 1.006,-0.871 0.137,-0.119 0.273,-0.236 0.408,-0.355 0.82,-0.711 1.641,-1.428 2.451,-2.15 0.639,-0.57 1.271,-1.137 1.904,-1.715 0.182,-0.164 0.363,-0.324 0.545,-0.49 0.842,-0.771 1.672,-1.555 2.504,-2.34 0.748,-0.705 1.494,-1.408 2.232,-2.123 0.102,-0.098 0.197,-0.201 0.299,-0.299 0.947,-0.92 1.873,-1.844 2.805,-2.777 0.271,-0.271 0.545,-0.543 0.816,-0.816 1.09,-1.104 2.17,-2.223 3.238,-3.348 0.105,-0.111 0.221,-0.215 0.326,-0.326 1.227,-1.295 2.451,-2.6 3.648,-3.92 1.098,-1.213 2.164,-2.441 3.238,-3.676 0.199,-0.229 0.402,-0.451 0.6,-0.68 0.918,-1.063 1.822,-2.135 2.723,-3.213 35.129,-42.092 56.291,-96.296 56.291,-155.429 0,-133.843 -108.368,-242.481 -241.879,-242.481 l 0,0 z m 0,54.06 c 103.747,0 187.958,84.416 187.958,188.42 0,44.289 -15.256,85.032 -40.803,117.212 l -265.237,-263.74 c 32.277,-26.186 73.354,-41.892 118.082,-41.892 z m -146.88,70.909 265.29,263.793 c -32.33,26.34 -73.534,42.137 -118.409,42.137 -103.748,0 -187.93,-84.414 -187.93,-188.419 0,-44.429 15.361,-85.285 41.049,-117.511 l 0,0 z" id="path15121" style="fill:#d40000;stroke:#d40000;stroke-width:0.87110001"/>
</svg>