<?xml version="1.0" encoding="UTF-8" standalone="no"?>
<svg xmlns:dc="http://purl.org/dc/elements/1.1/" xmlns:cc="http://creativecommons.org/ns#" xmlns:rdf="http://www.w3.org/1999/02/22-rdf-syntax-ns#" xmlns:svg="http://www.w3.org/2000/svg" xmlns="http://www.w3.org/2000/svg" xmlns:sodipodi="http://sodipodi.sourceforge.net/DTD/sodipodi-0.dtd" xmlns:inkscape="http://www.inkscape.org/namespaces/inkscape" enable-background="new 0 0 499.895 500.093" id="svg6860" version="1.1" viewBox="0 0 499.895 500.093" xml:space="preserve"><metadata id="metadata25848"><rdf:RDF><cc:Work rdf:about=""><dc:format>image/svg+xml</dc:format><dc:type rdf:resource="http://purl.org/dc/dcmitype/StillImage"/></cc:Work></rdf:RDF></metadata><defs id="defs25846"> </defs><circle cx="287" cy="287" id="circle12991-1" r="285" d="M 572,287 C 572,444.40115 444.40115,572 287,572 129.59885,572 2,444.40115 2,287 2,129.59885 129.59885,2 287,2 444.40115,2 572,129.59885 572,287 z" style="fill:#ffffff;stroke:#000000" transform="matrix(0.87565676,0,0,0.87565676,-1.3541778,-1.2745086)"/><path id="path1933-2" d="m 386.22312,83.749948 c 0,0 -44.32197,22.974112 -70.49025,33.634972 -16.38109,6.67404 -90.13954,15.79574 -108.00229,36.03909 -12.69913,14.39247 -52.96459,70.61307 -57.55767,80.77568 -2.32572,8.14002 -4.85875,10.20791 -4.11748,22.87046 1.18986,20.30433 -2.14019,67.37273 3.26036,78.48829 4.46416,9.18529 19.33658,0.67594 23.5856,-6.64704 6.1845,-10.65998 11.0868,-50.07616 9.91785,-71.84125 -0.67072,-12.48572 24.18401,-27.34159 28.54277,-29.87114 -11.98312,17.74603 -15.82796,19.29129 -11.61118,32.41201 2.17242,6.75853 8.0024,22.9898 11.0058,25.39653 10.62166,-6.7594 24.05771,-19.11708 27.93739,-21.16406 2.13845,7.54509 -10.6957,13.25748 -16.08493,16.93159 -5.31083,3.62098 -19.11097,13.5519 -26.00277,27.9374 -4.34135,8.06249 0.11933,20.30781 5.80385,24.30596 0,0 78.63201,-53.23375 99.29172,-63.25177 13.81844,-6.70191 25.42963,-16.3837 40.27504,-38.09304 11.1835,-16.35234 27.32069,-48.55792 46.56233,-67.72638 7.62,-6.77334 33.86406,-32.17073 33.86406,-32.17073 l -36.1802,-48.026572 0,0 z"/><rect y="350.92215" x="130.33199" width="168.99367" id="rect1935" height="22.927948"/><path id="path2824-1" d="m 221.74936,325.75992 23.41661,-16.17377 c 0,0 4.65493,9.16177 4.10355,17.38106 -0.40504,6.03293 -2.69592,9.72447 -7.95187,13.30451 -4.48333,3.0548 -13.76357,1.19161 -14.71912,-1.06182 -1.28219,-3.02343 -5.09045,-13.44998 -4.84917,-13.44998 z"/><path id="path2826" d="m 250.23552,306.44686 18.10491,-12.79495 c 0,0 7.48412,8.75237 5.79514,17.14065 -1.69072,8.38827 -10.9997,18.30351 -20.51948,18.34706 1.09579,-7.68097 -3.38057,-22.69276 -3.38057,-22.69276 l 0,0 z"/><path style="fill:#d40000;stroke:#d40000;stroke-width:0.8710565" id="path1979-977" d="m 249.94494,7.572573 c -59.6935,0 -114.34794,21.731117 -156.545399,57.707491 -1.107113,0.944225 -2.203773,1.894548 -3.293464,2.858807 -0.438142,0.38675 -0.871928,0.780467 -1.306585,1.1707 -0.932902,0.837086 -1.857093,1.680268 -2.776057,2.53129 -0.245638,0.227346 -0.490405,0.45295 -0.735172,0.680296 -1.087949,1.01478 -2.169801,2.040885 -3.239459,3.076571 -1.226447,1.186379 -2.446797,2.380597 -3.647984,3.593108 -1.17854,1.189863 -2.357079,2.379726 -3.511229,3.593108 -1.196832,1.259548 -2.368402,2.553066 -3.538231,3.837875 -0.134143,0.147208 -0.275254,0.288319 -0.408526,0.435528 -1.011296,1.115823 -2.002559,2.240357 -2.993821,3.375344 -1.081852,1.238642 -2.12712,2.495577 -3.184582,3.755995 -0.04094,0.04965 -0.09495,0.08711 -0.135885,0.135885 C 29.354243,136.46541 8.0917546,190.7784 8.0917546,250.05292 c 0,133.84305 108.3428754,242.45247 241.8549254,242.45247 59.82503,0 114.57703,-21.84 156.81717,-57.95139 l 0.027,0.0253 c 0.33623,-0.28745 0.67159,-0.58012 1.00781,-0.86931 0.13502,-0.11934 0.27177,-0.23606 0.40853,-0.35539 0.81792,-0.71078 1.6402,-1.42766 2.44941,-2.15064 0.63848,-0.57054 1.27174,-1.13673 1.90587,-1.71511 0.17944,-0.16376 0.36323,-0.32403 0.54267,-0.49041 0.84405,-0.77175 1.67156,-1.55483 2.50429,-2.33965 0.74823,-0.70469 1.49386,-1.4085 2.23251,-2.12277 0.10192,-0.0976 0.19948,-0.20121 0.30052,-0.30051 0.9451,-0.9181 1.87103,-1.84142 2.80306,-2.77519 0.27177,-0.27351 0.54702,-0.54267 0.81618,-0.81618 1.09143,-1.10537 2.1698,-2.22468 3.24033,-3.34747 0.1054,-0.11149 0.22038,-0.21689 0.32577,-0.32839 1.22645,-1.29264 2.44941,-2.59749 3.64625,-3.91975 1.09927,-1.21077 2.16631,-2.44157 3.24033,-3.67412 0.19947,-0.22821 0.40068,-0.4512 0.59928,-0.68203 0.9181,-1.06095 1.82225,-2.13322 2.72031,-3.21072 35.12884,-42.09206 56.2929,-96.29703 56.2929,-155.42957 0,-133.84219 -108.37075,-242.479477 -241.88193,-242.479477 l 0,0 z m 0,54.059507 c 103.74718,0 187.95831,84.41582 187.95831,188.42084 0,44.28886 -15.25743,85.03253 -40.80464,117.2111 L 131.86278,103.52467 C 164.13891,77.339841 205.21706,61.63208 249.94494,61.63208 z m -146.8819,70.91009 265.29157,263.79336 c -32.33013,26.33987 -73.53546,42.13648 -118.40967,42.13648 -103.74718,0 -187.930435,-84.41408 -187.930435,-188.41909 0,-44.42824 15.361952,-85.28514 41.048535,-117.51075 z"/>
</svg>