<?xml version="1.0" encoding="UTF-8" standalone="no"?>
<svg xmlns:dc="http://purl.org/dc/elements/1.1/" xmlns:cc="http://creativecommons.org/ns#" xmlns:rdf="http://www.w3.org/1999/02/22-rdf-syntax-ns#" xmlns:svg="http://www.w3.org/2000/svg" xmlns="http://www.w3.org/2000/svg" xmlns:sodipodi="http://sodipodi.sourceforge.net/DTD/sodipodi-0.dtd" xmlns:inkscape="http://www.inkscape.org/namespaces/inkscape" enable-background="new 0 0 499.895 500.093" id="svg7528" version="1.1" viewBox="0 0 499.895 500.093" xml:space="preserve"><metadata id="metadata25910"><rdf:RDF><cc:Work rdf:about=""><dc:format>image/svg+xml</dc:format><dc:type rdf:resource="http://purl.org/dc/dcmitype/StillImage"/></cc:Work></rdf:RDF></metadata><defs id="defs25908"> </defs><circle cx="287" cy="287" id="circle12991-1" r="285" d="M 572,287 C 572,444.40115 444.40115,572 287,572 129.59885,572 2,444.40115 2,287 2,129.59885 129.59885,2 287,2 444.40115,2 572,129.59885 572,287 z" style="fill:#ffffff;stroke:#000000" transform="matrix(0.87565676,0,0,0.87565676,-1.3561901,-1.2730901)"/><g id="g15155" transform="translate(5759.7673,-4916.5454)"> <path d="m -5428.552,5335.08 0.844,-336.992 11.824,5.912 10.98,6.757 10.135,7.601 10.135,8.446 9.291,9.291 8.445,9.291 8.445,10.135 7.602,10.135 6.758,11.824 5.066,10.98 5.068,12.669 4.223,11.824 3.379,13.514 2.533,12.669 1.689,13.514 0.844,13.514 -0.844,14.358 -1.689,13.514 -2.533,12.669 -3.379,13.514 -4.223,11.824 -5.068,12.669 -5.066,11.824 -6.758,10.979 -7.602,10.135 -8.445,10.136 -8.445,10.136 -9.291,8.445 -10.135,8.445 -10.98,7.602 -10.979,6.758 -11.824,5.912" id="path9336" style="fill:#848382"/>
	<path d="m -5477.539,5171.23 6.757,-10.136 1.689,0.845 2.533,0.845 h 1.689 l 1.688,0.845 h 2.534 l 1.688,0.845 h 5.067 v 2.534 l -0.845,1.689 -0.845,2.534 -0.845,1.688 -1.688,2.534 -1.689,1.688 -3.379,1.688 -4.223,1.689 -10.135,-9.291 0,0 z m 35.474,-27.872 0.844,3.378 v 3.378 l -0.844,1.689 -0.846,2.534 -0.844,1.689 -1.689,1.689 -1.689,0.845 -2.533,1.689 h -2.533 l -2.534,0.845 h -6.757 l -2.533,-0.845 -2.534,-0.845 -2.534,-0.845 12.67,-20.271 2.533,0.845 1.689,0.845 h 2.533 l 1.689,0.845 1.689,0.845 h 1.688 l 0.846,0.845 1.689,0.845 0,0 z m -59.123,55.744 -5.067,7.602 -4.223,6.756 -6.757,10.136 -3.378,4.224 -3.378,4.223 -3.378,3.378 -4.223,2.534 -5.067,3.378 -10.135,5.912 -12.669,8.446 -15.203,10.135 -16.047,11.824 -14.358,11.824 -5.912,5.912 -5.912,6.757 -4.223,5.912 -3.378,5.911 -8.446,-7.6 -7.602,-6.758 -5.912,-5.912 -5.067,-5.912 -5.912,-6.756 -5.067,-6.758 -5.067,-8.445 -6.757,-10.135 5.912,-8.446 4.223,-9.29 5.067,-9.291 4.223,-10.135 7.601,-21.115 5.912,-21.115 5.067,-19.425 4.223,-16.047 3.378,-12.669 2.534,-7.601 7.602,-8.446 9.291,-7.601 10.135,-6.757 10.98,-6.757 11.824,-6.757 11.824,-6.757 12.669,-6.757 11.824,-7.602 2.534,-0.845 2.534,-1.689 2.534,-0.845 3.378,-0.845 h 8.446 l 5.067,0.845 5.067,0.845 8.446,0.845 h 7.602 l 8.445,0.845 h 27.027 l 9.291,0.845 h 10.135 l 0.846,1.689 0.844,0.845 0.846,1.689 v 1.689 l -0.846,3.378 -1.689,3.378 -2.533,3.378 -1.689,3.378 -2.533,2.534 -1.689,0.845 -9.29,2.534 -7.601,1.689 -8.446,1.689 -8.446,0.845 -7.602,0.845 h -17.736 l -9.29,-0.845 -3.378,1.689 -2.534,0.845 -3.378,1.689 -2.534,2.534 -3.378,1.689 -3.378,3.378 -3.378,2.534 -3.378,4.223 -1.689,6.757 7.601,-4.223 5.912,-3.378 5.067,-0.845 h 4.223 l 5.067,0.845 4.223,1.689 5.913,3.378 6.756,2.534 8.446,3.378 -2.534,2.534 -2.533,1.689 -1.689,2.534 -1.688,1.689 -3.378,5.067 -1.689,2.534 -2.533,4.223 -9.291,10.98 11.824,-7.602 5.067,-6.757 5.067,-5.912 5.067,-6.757 5.912,-6.757 6.757,-5.067 7.602,-4.223 3.379,-0.845 4.223,-0.845 4.223,-0.845 4.223,0.845 3.379,0.845 2.533,0.845 1.689,1.689 0.846,1.689 v 4.223 l -1.689,2.534 -2.533,2.534 -6.758,9.291 -6.757,9.291 -6.757,9.291 -6.757,10.135 -6.757,9.29 -6.757,10.136 -6.757,10.136 -5.912,9.29" id="path9338" style="fill:#000000"/>
	<path d="m -5344.093,5113.797 -25.338,88.683 16.047,-8.446 -32.939,46.452 -10.135,-54.054 11.824,13.514 7.602,-54.899 -43.92,22.804 30.406,-100.507 h 33.783 l -33.783,69.257 46.453,-22.804" id="path9344" style="fill:#ffffff"/>
	<path d="m -5395.612,5141.669 47.297,-23.648 -24.494,89.526 11.824,-6.756 -23.648,33.783 -7.602,-39.695 8.447,10.135 10.135,-63.345 -43.92,21.959 28.717,-94.595 h 27.871 l -34.627,72.636" id="path9346" style="fill:#000000"/>
	</g><path d="m 249.9443,7.5729 c -59.693,0 -114.348,21.731 -156.544,57.708 -1.107,0.944 -2.203,1.895 -3.295,2.858 -0.438,0.387 -0.871,0.78 -1.307,1.17 -0.932,0.837 -1.855,1.681 -2.775,2.532 -0.246,0.227 -0.49,0.453 -0.736,0.681 -1.088,1.015 -2.17,2.041 -3.238,3.076 -1.227,1.187 -2.447,2.381 -3.648,3.593 -1.178,1.189 -2.357,2.38 -3.512,3.593 -1.197,1.259 -2.369,2.553 -3.539,3.838 -0.133,0.147 -0.273,0.288 -0.408,0.436 -1.012,1.116 -2.002,2.241 -2.994,3.375 -1.082,1.239 -2.127,2.496 -3.184,3.756 -0.041,0.049 -0.096,0.087 -0.137,0.136 -35.273,42.141 -56.537,96.455 -56.537,155.729 0,133.842 108.344,242.454 241.855,242.454 59.826,0 114.578,-21.84 156.818,-57.953 l 0.027,0.027 c 0.336,-0.289 0.672,-0.582 1.006,-0.871 0.137,-0.119 0.273,-0.236 0.408,-0.355 0.82,-0.711 1.641,-1.428 2.451,-2.15 0.639,-0.57 1.271,-1.137 1.904,-1.715 0.182,-0.164 0.363,-0.324 0.545,-0.49 0.842,-0.771 1.672,-1.555 2.504,-2.34 0.748,-0.705 1.494,-1.408 2.232,-2.123 0.102,-0.098 0.197,-0.201 0.299,-0.299 0.947,-0.92 1.873,-1.844 2.805,-2.777 0.271,-0.271 0.545,-0.543 0.816,-0.816 1.09,-1.104 2.17,-2.223 3.238,-3.348 0.107,-0.111 0.221,-0.215 0.328,-0.326 1.225,-1.295 2.449,-2.6 3.646,-3.92 1.1,-1.213 2.166,-2.441 3.24,-3.676 0.197,-0.229 0.4,-0.451 0.598,-0.68 0.918,-1.063 1.822,-2.135 2.723,-3.213 35.129,-42.092 56.291,-96.296 56.291,-155.429 0,-133.843 -108.369,-242.481 -241.88,-242.481 l 0,0 z m 0,54.06 c 103.748,0 187.958,84.416 187.958,188.42 0,44.289 -15.258,85.032 -40.805,117.212 l -265.236,-263.74 c 32.278,-26.186 73.355,-41.892 118.083,-41.892 z m -146.882,70.909 265.292,263.793 c -32.33,26.34 -73.535,42.137 -118.41,42.137 -103.748,0 -187.931,-84.414 -187.931,-188.419 0,-44.429 15.363,-85.286 41.049,-117.511 l 0,0 z" id="path1979-8" style="fill:#d40000;stroke:#d40000;stroke-width:0.87110001"/>
</svg>