<?xml version="1.0" encoding="UTF-8" standalone="no"?>
<svg xmlns:dc="http://purl.org/dc/elements/1.1/" xmlns:cc="http://creativecommons.org/ns#" xmlns:rdf="http://www.w3.org/1999/02/22-rdf-syntax-ns#" xmlns:svg="http://www.w3.org/2000/svg" xmlns="http://www.w3.org/2000/svg" xmlns:sodipodi="http://sodipodi.sourceforge.net/DTD/sodipodi-0.dtd" xmlns:inkscape="http://www.inkscape.org/namespaces/inkscape" enable-background="new 0 0 500 500" id="svg6893" version="1.1" viewBox="0 0 500 500" xml:space="preserve"><metadata id="metadata3066"><rdf:RDF><cc:Work rdf:about=""><dc:format>image/svg+xml</dc:format><dc:type rdf:resource="http://purl.org/dc/dcmitype/StillImage"/></cc:Work></rdf:RDF></metadata><defs id="defs3064"> </defs><circle cx="287" cy="287" id="circle12991-1" r="285" d="M 572,287 C 572,444.40115 444.40115,572 287,572 129.59885,572 2,444.40115 2,287 2,129.59885 129.59885,2 287,2 444.40115,2 572,129.59885 572,287 z" style="fill:#ffffff;stroke:#000000" transform="matrix(0.87565674,0,0,0.87565674,-1.3134851,-1.3134851)"/><path d="m 150.17513,48.828375 29.77232,63.047275 c 20.14011,43.78284 35.02627,-29.772328 70.05254,-29.772328 35.02627,0 49.91244,73.555168 70.05254,29.772328 l 29.77233,-63.047275 m -140.10508,70.052535 18.38879,36.77758 -26.2697,208.4063 c 48.16112,78.80911 48.16112,78.80911 96.32224,0 l -26.2697,-208.4063 18.38879,-36.77758 m -18.38879,36.77758 h -43.78284" id="path12993" style="fill:none;stroke:#000000;stroke-width:12.25919437"/><path style="fill:#d40000;stroke:#d40000;stroke-width:0.87105638" id="path1979-0" d="m 249.98606,7.5340559 c -59.69349,0 -114.34792,21.7311151 -156.545382,57.7074861 -1.107113,0.944225 -2.203773,1.894547 -3.293464,2.858807 -0.438142,0.386749 -0.871928,0.780466 -1.306585,1.170699 -0.932901,0.836215 -1.856221,1.680268 -2.776057,2.53129 -0.245638,0.227346 -0.490404,0.45295 -0.735171,0.680295 -1.08795,1.014781 -2.169802,2.040885 -3.239459,3.0757 -1.226447,1.186379 -2.446797,2.381469 -3.647984,3.593108 -1.178539,1.188992 -2.357079,2.379726 -3.511228,3.593108 -1.196832,1.259547 -2.368403,2.553066 -3.538231,3.837874 -0.134143,0.147208 -0.275254,0.28832 -0.408526,0.435528 -1.011296,1.115823 -2.00343,2.240357 -2.994692,3.375344 -1.081852,1.238642 -2.127119,2.495576 -3.184582,3.755995 -0.04094,0.04878 -0.09495,0.0871 -0.135885,0.135884 C 29.394515,136.42513 8.1320289,190.73898 8.1320289,250.0135 c 0,133.84217 108.3437411,242.45245 241.8549011,242.45245 59.82503,0 114.57702,-21.84 156.81716,-57.95226 l 0.027,0.027 c 0.33623,-0.28832 0.67158,-0.58187 1.00781,-0.87106 0.13501,-0.11759 0.27177,-0.23606 0.40853,-0.35365 0.81792,-0.71165 1.6402,-1.42853 2.44941,-2.15064 0.63848,-0.57054 1.27174,-1.13847 1.90413,-1.71598 0.18205,-0.16376 0.36497,-0.32403 0.54528,-0.48953 0.84405,-0.7735 1.67155,-1.55658 2.50428,-2.34053 0.74824,-0.70643 1.49387,-1.40937 2.23252,-2.12364 0.10192,-0.0976 0.19947,-0.20121 0.30052,-0.29877 0.94509,-0.91896 1.87103,-1.84141 2.80306,-2.77606 0.27177,-0.27264 0.54702,-0.54266 0.81618,-0.81705 1.09143,-1.10362 2.1698,-2.22293 3.24033,-3.34747 0.10539,-0.11149 0.22037,-0.21515 0.32577,-0.32577 1.22645,-1.29526 2.44941,-2.59836 3.64624,-3.91975 1.09928,-1.21164 2.16632,-2.44158 3.24033,-3.67499 0.19947,-0.22822 0.40069,-0.45208 0.59929,-0.6803 0.91809,-1.06269 1.82225,-2.13408 2.72031,-3.21158 35.12883,-42.09206 56.29289,-96.29703 56.29289,-155.42956 0,-133.84304 -108.37074,-242.4803141 -241.88191,-242.4803141 l 0,0 z m 0,54.0595011 c 103.74717,0 187.95829,84.414943 187.95829,188.420813 0,44.28886 -15.25742,85.03252 -40.80464,117.21109 L 131.90392,103.48614 C 164.18004,77.301317 205.25819,61.593557 249.98606,61.593557 z m -146.88188,70.910083 265.29155,263.7942 c -32.33013,26.34074 -73.53546,42.13735 -118.4088,42.13735 -103.74717,0 -187.930414,-84.41495 -187.930414,-188.42082 -8.71e-4,-44.42823 15.36108,-85.28513 41.047664,-117.51073 z"/></svg>