<?xml version="1.0" encoding="UTF-8" standalone="no"?>
<svg xmlns:dc="http://purl.org/dc/elements/1.1/" xmlns:cc="http://creativecommons.org/ns#" xmlns:rdf="http://www.w3.org/1999/02/22-rdf-syntax-ns#" xmlns:svg="http://www.w3.org/2000/svg" xmlns="http://www.w3.org/2000/svg" xmlns:sodipodi="http://sodipodi.sourceforge.net/DTD/sodipodi-0.dtd" xmlns:inkscape="http://www.inkscape.org/namespaces/inkscape" enable-background="new 0 0 500 500" id="svg7267" version="1.1" viewBox="0 0 500 500" xml:space="preserve"><metadata id="metadata3009"><rdf:RDF><cc:Work rdf:about=""><dc:format>image/svg+xml</dc:format><dc:type rdf:resource="http://purl.org/dc/dcmitype/StillImage"/></cc:Work></rdf:RDF></metadata><defs id="defs3007"> </defs><circle cx="287" cy="287" id="circle12991-1" r="285" d="M 572,287 C 572,444.40115 444.40115,572 287,572 129.59885,572 2,444.40115 2,287 2,129.59885 129.59885,2 287,2 444.40115,2 572,129.59885 572,287 z" style="fill:#ffffff;stroke:#000000" transform="matrix(0.87565674,0,0,0.87565674,-1.3134851,-1.3134851)"/><path d="m 249.99999,127.40806 35.90193,35.90192 v -28.02101 h 37.65236 v 65.67425 l 66.55078,66.54991 H 362.9597 V 372.59194 H 139.66726 V 267.51401 H 109.89492 L 249.99999,127.40806 z" id="path14783"/><path style="fill:#d40000;stroke:#d40000;stroke-width:0.87105638" id="path1979-0" d="m 249.98605,7.5340569 c -59.69349,0 -114.34792,21.7311151 -156.545375,57.7074861 -1.10712,0.944225 -2.20378,1.894547 -3.29347,2.858807 -0.43814,0.386749 -0.87192,0.780466 -1.30658,1.170699 -0.9329,0.836215 -1.85622,1.680268 -2.77606,2.53129 -0.24564,0.227346 -0.4904,0.45295 -0.73517,0.680295 -1.08795,1.014781 -2.1698,2.040885 -3.23946,3.0757 -1.22645,1.186379 -2.4468,2.381469 -3.64798,3.593108 -1.17854,1.188992 -2.35708,2.379726 -3.51123,3.593108 -1.19683,1.259547 -2.3684,2.553066 -3.53823,3.837874 -0.13414,0.147208 -0.27526,0.28832 -0.40853,0.435528 -1.01129,1.115823 -2.00343,2.240357 -2.99469,3.375344 -1.08185,1.238642 -2.12712,2.495576 -3.18458,3.755995 -0.0409,0.04878 -0.095,0.0871 -0.13589,0.135884 C 29.394505,136.42513 8.1320249,190.73898 8.1320249,250.0135 c 0,133.84217 108.3437351,242.45245 241.8548951,242.45245 59.82503,0 114.57702,-21.84 156.81716,-57.95226 l 0.027,0.027 c 0.33623,-0.28832 0.67158,-0.58187 1.00781,-0.87106 0.13501,-0.11759 0.27177,-0.23606 0.40853,-0.35365 0.81792,-0.71165 1.6402,-1.42853 2.44941,-2.15064 0.63848,-0.57054 1.27174,-1.13847 1.90413,-1.71598 0.18205,-0.16376 0.36497,-0.32403 0.54528,-0.48953 0.84405,-0.7735 1.67155,-1.55658 2.50428,-2.34053 0.74824,-0.70643 1.49387,-1.40937 2.23252,-2.12364 0.10192,-0.0976 0.19947,-0.20121 0.30052,-0.29877 0.94509,-0.91896 1.87103,-1.84141 2.80306,-2.77606 0.27177,-0.27264 0.54702,-0.54266 0.81618,-0.81705 1.09143,-1.10362 2.1698,-2.22293 3.24033,-3.34747 0.10539,-0.11149 0.22037,-0.21515 0.32577,-0.32577 1.22645,-1.29526 2.44941,-2.59836 3.64624,-3.91975 1.09928,-1.21164 2.16632,-2.44158 3.24033,-3.67499 0.19947,-0.22822 0.40069,-0.45208 0.59929,-0.6803 0.91809,-1.06269 1.82225,-2.13408 2.72031,-3.21158 35.12883,-42.09206 56.29289,-96.29703 56.29289,-155.42956 0,-133.84304 -108.37074,-242.4803131 -241.88191,-242.4803131 l 0,0 z m 0,54.0595011 c 103.74717,0 187.95829,84.414942 187.95829,188.420812 0,44.28886 -15.25742,85.03252 -40.80464,117.21109 L 131.90391,103.48614 C 164.18003,77.301318 205.25818,61.593558 249.98605,61.593558 z m -146.88188,70.910082 265.29155,263.7942 c -32.33013,26.34074 -73.53546,42.13735 -118.4088,42.13735 -103.74717,0 -187.930405,-84.41495 -187.930405,-188.42082 -8.8e-4,-44.42823 15.36108,-85.28513 41.047655,-117.51073 z"/></svg>