<?xml version="1.0" encoding="UTF-8" standalone="no"?>
<svg xmlns:dc="http://purl.org/dc/elements/1.1/" xmlns:cc="http://creativecommons.org/ns#" xmlns:rdf="http://www.w3.org/1999/02/22-rdf-syntax-ns#" xmlns:svg="http://www.w3.org/2000/svg" xmlns="http://www.w3.org/2000/svg" xmlns:sodipodi="http://sodipodi.sourceforge.net/DTD/sodipodi-0.dtd" xmlns:inkscape="http://www.inkscape.org/namespaces/inkscape" enable-background="new 0 0 499.895 500.093" id="svg6778" version="1.1" viewBox="0 0 499.895 500.093" xml:space="preserve"><metadata id="metadata12280"><rdf:RDF><cc:Work rdf:about=""><dc:format>image/svg+xml</dc:format><dc:type rdf:resource="http://purl.org/dc/dcmitype/StillImage"/></cc:Work></rdf:RDF></metadata><defs id="defs12278"> </defs><circle cx="287" cy="287" id="circle12991" r="285" d="M 572,287 C 572,444.40115 444.40115,572 287,572 129.59885,572 2,444.40115 2,287 2,129.59885 129.59885,2 287,2 444.40115,2 572,129.59885 572,287 z" style="fill:#ffffff;stroke:#000000" transform="matrix(0.87565676,0,0,0.87565676,-1.3550484,-1.2749436)"/><g id="g2011" transform="matrix(0.87105647,0,0,0.87105647,422.98858,-221.9822)"> <path style="stroke:#000000;stroke-width:0.89590001;stroke-linecap:square" id="path1933-7" d="m -255.086,612.633 c -15.403,0 -27.906,12.503 -27.906,27.906 0,15.403 12.503,27.906 27.906,27.906 15.403,0 27.906,-12.503 27.906,-27.906 0,-15.403 -12.503,-27.906 -27.906,-27.906 z m 0,12.407 c 8.557,0 15.5,6.942 15.5,15.5 0,8.558 -6.943,15.5 -15.5,15.5 -8.557,0 -15.5,-6.942 -15.5,-15.5 0,-8.558 6.943,-15.5 15.5,-15.5 z"/>
	<path style="stroke:#000000;stroke-width:0.64880002;stroke-linecap:square" id="path1937-0" d="m -113.085,591.384 c -21.271,0 -38.532,17.261 -38.532,38.531 0,21.27 17.261,38.531 38.532,38.531 21.27,0 38.531,-17.261 38.531,-38.531 0,-21.27 -17.261,-38.531 -38.531,-38.531 z m 0,14.155 c 13.447,0 24.375,10.929 24.375,24.375 0,13.446 -10.929,24.344 -24.375,24.344 -13.446,0 -24.344,-10.897 -24.344,-24.344 0,-13.447 10.897,-24.375 24.344,-24.375 z"/>
	<path style="stroke:#000000;stroke-width:0.8858;stroke-linecap:square" id="rect1941" d="m -316.93,635.852 v 13.281 h 48.938 c -1.648,-2.462 -2.594,-5.409 -2.594,-8.593 0,-1.629 0.252,-3.212 0.719,-4.687 h -47.063 z m 76.594,0 c 0.466,1.475 0.75,3.058 0.75,4.687 0,3.184 -0.977,6.131 -2.625,8.593 h 114.219 c -4.231,-3.287 -7.373,-7.93 -8.719,-13.281 h -103.625 z m 150.875,0 c -1.348,5.351 -4.458,9.994 -8.686,13.281 h 65.718 v -13.281 h -57.032 z"/>
	
	<rect style="stroke:#000000;stroke-width:0.8858;stroke-linecap:square" y="540.44397" x="-45.708" width="13.288" id="rect1963" height="98.162003"/>
	
	<rect style="stroke:#000000;stroke-width:0.8858;stroke-linecap:square" y="561.33398" x="-261.40201" width="96.218002" id="rect1965-1" height="13.286"/>
	
	<rect style="stroke:#000000;stroke-width:0.8858;stroke-linecap:square" y="527.11603" x="-165.769" width="120.046" id="rect1967" height="13.288"/>
	
	<rect style="stroke:#000000;stroke-width:0.8858;stroke-linecap:square" y="409.35901" x="-105.878" width="13.288" id="rect1969" height="120.755"/>
	
	<rect style="stroke:#000000;stroke-width:0.8858;stroke-linecap:square" y="396.13199" x="-211.78" width="105.9" id="rect1971" height="13.288"/>
	
	<rect style="stroke:#000000;stroke-width:0.8858;stroke-linecap:square" y="536.53802" x="-166.01401" width="13.288" id="rect1973" height="26.907"/>
	
	<path style="stroke:#000000;stroke-width:0.82959998;stroke-linecap:square" id="path1977" d="m -45.721,527.182 c 7.339,0 13.288,5.949 13.288,13.287 h -13.288 v -13.287 z"/>
	
	<path style="stroke:#000000;stroke-width:0.82959998;stroke-linecap:square" id="path1980" d="m -105.869,396.123 c 7.337,0 13.288,5.949 13.288,13.288 h -13.288 v -13.288 z"/>
	<path style="stroke:#000000;stroke-width:0.8858;stroke-linecap:square" id="rect1982" d="m -241.586,364.258 -86.531,292.563 12.906,3.156 86.344,-291.937 -12.719,-3.782 z"/>
	<path style="stroke:#000000;stroke-width:0.8858;stroke-linecap:square" id="rect1984" d="m -224.68,405.601 -59.438,201.032 h 13.844 l 58.344,-197.25 -12.75,-3.782 z"/>
	<path style="stroke:#000000;stroke-width:0.8858;stroke-linecap:square" id="rect1988" d="m -377.492,631.289 -3.094,12.875 63.469,15.344 3.094,-12.875 -63.469,-15.344 z"/>
	
	<rect style="stroke:#000000;stroke-width:0.8858;stroke-linecap:square" y="593.31598" x="-304.42401" width="32.091999" id="rect1996" height="13.288"/>
	
	<path style="stroke:#000000;stroke-width:0.82959998;stroke-linecap:square" id="path2009" d="m -225.093,409.427 c 0,-7.338 5.949,-13.287 13.288,-13.287 v 13.287 h -13.288 z"/>
	</g><g id="g2033" transform="matrix(0.87105647,0,0,0.87105647,422.98858,-221.9822)"> <path style="stroke:#000000" id="path2029" d="m -198.078,514.719 h 38.373 v -37.493 l -16.111,17.868 -26.881,5.231 -2.704,-13.725 c 0,0 17.91,-4.156 20.253,-5.328 12.51,-10.648 26.907,-30.115 26.907,-30.115 12.887,6.151 24.25,3.151 29.876,-3.808 1.466,0.293 4.395,4.101 5.274,7.03 v 67.077 c -0.294,2.051 -2.931,5.565 -7.029,7.909 h -55.07 l -12.888,-14.646 z"/>
	
	<path style="stroke:#000000;stroke-width:0.91100001;stroke-linecap:square" id="path2031" d="m -145.665,418.684 c 8.563,0 15.503,6.941 15.503,15.504 0,8.563 -6.94,15.504 -15.503,15.504 -8.563,0 -15.505,-6.941 -15.505,-15.504 0,-8.424 6.727,-15.306 15.149,-15.5"/>
	</g><path style="fill:#d40000;stroke:#d40000;stroke-width:0.8710565" id="path1979-6" d="m 249.94494,7.572573 c -59.6935,0 -114.34794,21.731117 -156.545399,57.707491 -1.107113,0.944225 -2.203773,1.894548 -3.293464,2.858807 -0.438142,0.38675 -0.871928,0.780467 -1.306585,1.1707 -0.932902,0.836215 -1.857093,1.680268 -2.776057,2.53129 -0.245638,0.227346 -0.490405,0.45295 -0.735172,0.680296 -1.087949,1.01478 -2.169801,2.040885 -3.239459,3.0757 -1.226447,1.186379 -2.446797,2.381468 -3.647984,3.593108 -1.17854,1.189863 -2.357079,2.379726 -3.511229,3.593108 -1.196832,1.259547 -2.368402,2.553066 -3.538231,3.837875 -0.134143,0.147208 -0.275254,0.288319 -0.408526,0.435528 -1.011296,1.115823 -2.00343,2.240357 -2.994692,3.375344 -1.081852,1.238642 -2.12712,2.494705 -3.184582,3.755995 -0.04094,0.04965 -0.09495,0.08711 -0.135885,0.135885 -35.274303,42.14084 -56.5367915,96.45383 -56.5367915,155.72835 0,133.84218 108.3428765,242.45247 241.8549265,242.45247 59.82503,0 114.57703,-21.84 156.81717,-57.95139 l 0.027,0.0253 c 0.33623,-0.28745 0.67158,-0.58012 1.00781,-0.87105 0.13502,-0.1176 0.27177,-0.23432 0.40853,-0.35365 0.81792,-0.71079 1.6402,-1.42767 2.44941,-2.15064 0.63848,-0.57054 1.27174,-1.13673 1.90587,-1.71511 0.17944,-0.16376 0.36323,-0.32404 0.54267,-0.49041 0.84405,-0.77175 1.67156,-1.55483 2.50429,-2.33965 0.74823,-0.70469 1.49386,-1.4085 2.23251,-2.12277 0.10192,-0.0976 0.19948,-0.20121 0.30052,-0.30051 0.94509,-0.9181 1.87103,-1.84142 2.80306,-2.77519 0.27177,-0.27351 0.54702,-0.54267 0.81618,-0.81618 1.09143,-1.10537 2.1698,-2.22468 3.24033,-3.34747 0.1054,-0.11324 0.22037,-0.21689 0.32577,-0.32839 1.22645,-1.29265 2.44941,-2.59749 3.64625,-3.91975 1.09927,-1.21077 2.16631,-2.44157 3.24033,-3.67412 0.19947,-0.22822 0.40068,-0.45121 0.59928,-0.68204 0.9181,-1.06094 1.82225,-2.13321 2.72031,-3.21071 35.12884,-42.0921 56.2929,-96.29707 56.2929,-155.42961 C 491.82687,116.20986 383.45612,7.572573 249.94494,7.572573 l 0,0 z m 0,54.059507 c 103.74718,0 187.95831,84.41495 187.95831,188.42084 0,44.28886 -15.25743,85.03253 -40.80464,117.2111 L 131.86278,103.52467 c 32.27613,-26.1857 73.35428,-41.89259 118.08216,-41.89259 z m -146.8819,70.91009 265.29157,263.79336 c -32.33013,26.33987 -73.53546,42.13648 -118.40967,42.13648 -103.74718,0 -187.930435,-84.41408 -187.930435,-188.41909 0,-44.42824 15.361952,-85.28514 41.048535,-117.51075 z"/>
</svg>