<?xml version="1.0" encoding="UTF-8" standalone="no"?>
<svg xmlns:dc="http://purl.org/dc/elements/1.1/" xmlns:cc="http://creativecommons.org/ns#" xmlns:rdf="http://www.w3.org/1999/02/22-rdf-syntax-ns#" xmlns:svg="http://www.w3.org/2000/svg" xmlns="http://www.w3.org/2000/svg" xmlns:sodipodi="http://sodipodi.sourceforge.net/DTD/sodipodi-0.dtd" xmlns:inkscape="http://www.inkscape.org/namespaces/inkscape" enable-background="new 0 0 499.895 500.093" id="svg6692" version="1.1" viewBox="0 0 499.895 500.093" xml:space="preserve"><metadata id="metadata3019"><rdf:RDF><cc:Work rdf:about=""><dc:format>image/svg+xml</dc:format><dc:type rdf:resource="http://purl.org/dc/dcmitype/StillImage"/><dc:title/></cc:Work></rdf:RDF></metadata><defs id="defs3017"> </defs><circle cx="287" cy="287" id="circle12991" r="285" d="M 572,287 C 572,444.40115 444.40115,572 287,572 129.59885,572 2,444.40115 2,287 2,129.59885 129.59885,2 287,2 444.40115,2 572,129.59885 572,287 z" style="fill:#ffffff;stroke:#000000" transform="matrix(0.87565676,0,0,0.87565676,-1.3525069,-1.2745799)"/><g id="g11624"><path style="fill:none;stroke:#000000;stroke-width:4.62966394" id="path1937-9" d="m 118.31869,405.37436 c 0,0 39.71494,-36.82041 60.29713,-50.59878 10.20442,-6.83082 6.22021,-6.01377 18.66412,-5.3056 18.98119,1.08011 55.15441,8.69662 55.15441,8.69662"/><path style="fill:none;stroke:#000000;stroke-width:4.62966394" id="path1939-2" d="M 57.79161,302.39461 H 96.882 l -1.681138,-21.01684 c -11.979637,-0.2256 -9.992757,-17.6537 -9.992757,-17.6537 0,0 -1.118437,-10.1269 7.471049,-15.55183 l 1.681138,-23.95841 c 10.171328,-24.41135 38.249818,-24.73625 38.249818,-24.73625 0,0 31.72387,-7.35084 42.03282,35.66365 -0.22647,2.486 2.07399,7.50241 5.46414,8.40657 v 2.52171 h -68.51293"/><path style="fill:none;stroke:#000000;stroke-width:4.62966394" id="path1943" d="m 128.4064,325.09173 c 18.53433,0.45207 28.7945,-6.04339 37.40925,-26.51147 2.71247,-13.56235 4.39709,-34.20115 3.94501,-52.50901"/><path style="fill:none;stroke:#000000;stroke-width:4.62966394" id="path1945" d="M 217.51545,300.29276 H 164.13364"/><path style="fill:none;stroke:#000000;stroke-width:4.84742785;stroke-linecap:square" id="path1947" d="m 153.3909,295.59341 c 0,8.42747 -5.11049,15.25742 -11.41519,15.25742 -6.30383,0 -11.41432,-6.82995 -11.41432,-15.25742 0,-8.42573 5.11049,-15.25568 11.41432,-15.25568 6.30383,0 11.41519,6.82995 11.41519,15.25568 z"/><path d="m 249.94487,7.5725704 c -59.69348,0 -114.34791,21.7311106 -156.545353,57.7074746 -1.107112,0.944225 -2.203772,1.894547 -3.293463,2.858806 -0.438142,0.386749 -0.871928,0.780467 -1.306585,1.1707 -0.932901,0.837085 -1.857091,1.680267 -2.776056,2.531289 -0.245638,0.227346 -0.490404,0.45295 -0.735171,0.680295 -1.087949,1.014781 -2.169801,2.040885 -3.239458,3.076571 -1.226447,1.186378 -2.445926,2.380597 -3.647113,3.593107 -1.178539,1.189863 -2.357078,2.379725 -3.511227,3.593107 -1.196832,1.259547 -2.368402,2.553065 -3.538231,3.837873 -0.134142,0.147209 -0.275253,0.28832 -0.408525,0.435528 -1.011296,1.115824 -2.002558,2.240357 -2.99382,3.375343 -1.081852,1.238642 -2.12712,2.495576 -3.184582,3.755995 -0.04094,0.04965 -0.09495,0.0871 -0.135885,0.135885 C 29.355109,136.46537 8.0926264,190.77834 8.0926264,250.05285 c 0,133.84214 108.3428436,242.4524 241.8548536,242.4524 59.82502,0 114.577,-21.84 156.81713,-57.95137 l 0.027,0.0253 c 0.33623,-0.28745 0.67158,-0.58013 1.00607,-0.87106 0.13675,-0.11759 0.27351,-0.23431 0.41027,-0.35365 0.81792,-0.71078 1.63845,-1.42766 2.44941,-2.15064 0.63848,-0.57054 1.27174,-1.13672 1.90412,-1.71511 0.18206,-0.16375 0.36498,-0.32403 0.54529,-0.4904 0.84405,-0.77176 1.67155,-1.55484 2.50428,-2.33966 0.74824,-0.70468 1.49386,-1.40849 2.23252,-2.12276 0.10191,-0.0993 0.19947,-0.20121 0.29877,-0.30052 0.94684,-0.91809 1.87277,-1.84141 2.8048,-2.77518 0.27177,-0.27351 0.54703,-0.54267 0.81618,-0.81618 1.08969,-1.10537 2.1698,-2.22468 3.24033,-3.34921 0.1054,-0.1115 0.22038,-0.21515 0.32578,-0.32578 1.22644,-1.29264 2.44941,-2.59749 3.64624,-3.91975 1.09927,-1.21077 2.16631,-2.44157 3.24033,-3.67411 0.19947,-0.22822 0.40068,-0.45121 0.59754,-0.68204 0.9181,-1.06095 1.82225,-2.13322 2.72292,-3.21071 35.12883,-42.09205 56.29288,-96.29701 56.29288,-155.42953 C 491.82673,116.20983 383.45601,7.5725704 249.94487,7.5725704 l 0,0 z m 0,54.0594906 c 103.74715,0 187.95825,84.414929 187.95825,188.420789 0,44.28885 -15.25742,85.0325 -40.80463,117.21106 L 131.86275,103.52464 C 164.13886,77.339818 205.217,61.632061 249.94487,61.632061 z M 103.06302,132.54214 368.35451,396.33541 c -32.33012,26.33987 -73.53544,42.13648 -118.40877,42.13648 -103.74715,0 -187.930378,-84.41406 -187.930378,-188.41904 -8.71e-4,-44.4291 15.361076,-85.28512 41.047658,-117.51071 z" id="path1979-9" style="fill:#d40000;stroke:#d40000;stroke-width:0.8710562"/><path id="path1933" d="m 249.98668,276.78905 10.07115,-137.32463 c 2.50255,-23.08212 29.79622,-17.91589 29.29537,0.45817 l -4.11923,73.69746 c -0.96252,10.28456 7.65223,10.32289 8.23932,1.83096 l 9.61211,-97.04176 c 5.92231,-19.699809 31.62544,-11.78191 30.66989,3.66192 l -10.52933,101.16185 c -2.45899,11.45352 7.19492,10.60947 8.6975,4.57741 l 10.07028,-88.80244 c 5.37093,-18.22424 32.49997,-9.61298 30.21258,4.11922 l -12.81846,97.04176 c -3.16978,9.41263 4.82652,9.11212 6.86741,2.74644 l 20.59786,-52.18324 c 6.87264,-11.31502 26.93132,-3.17761 21.51335,12.35942 0,0 -24.86953,63.72735 -28.75618,72.49104 -8.77938,19.79824 -11.25579,43.90995 -15.64417,58.42349 -4.57827,11.90211 -27.26929,39.52156 -44.14861,46.77136 -18.25037,7.8395 -56.58556,-0.20993 -70.28814,-11.40038 -20.35833,-16.62673 -14.86632,-23.66922 -19.92541,-30.85195 -7.37698,-10.4727 -19.98465,-35.3492 -23.56033,-43.88468 -5.94932,-8.92397 -18.93938,-24.88085 -22.4297,-30.66989 -7.23761,-11.76971 3.21768,-19.04651 10.52846,-19.68238 13.36548,-1.08186 19.79736,4.11487 26.54892,12.81759 l 19.22508,26.09162 c 3.74293,8.36736 10.43787,6.62699 10.07028,-6.40924 v 8.8e-4 z"/></g>
</svg>