<?xml version="1.0" encoding="UTF-8" standalone="no"?>
<svg xmlns:dc="http://purl.org/dc/elements/1.1/" xmlns:cc="http://creativecommons.org/ns#" xmlns:rdf="http://www.w3.org/1999/02/22-rdf-syntax-ns#" xmlns:svg="http://www.w3.org/2000/svg" xmlns="http://www.w3.org/2000/svg" xmlns:sodipodi="http://sodipodi.sourceforge.net/DTD/sodipodi-0.dtd" xmlns:inkscape="http://www.inkscape.org/namespaces/inkscape" enable-background="new 0 0 499.895 500.093" id="svg7195" version="1.1" viewBox="0 0 499.895 500.093" xml:space="preserve"><metadata id="metadata11792"><rdf:RDF><cc:Work rdf:about=""><dc:format>image/svg+xml</dc:format><dc:type rdf:resource="http://purl.org/dc/dcmitype/StillImage"/></cc:Work></rdf:RDF></metadata><defs id="defs11790"> </defs><circle cx="287" cy="287" id="circle12991" r="285" d="M 572,287 C 572,444.40115 444.40115,572 287,572 129.59885,572 2,444.40115 2,287 2,129.59885 129.59885,2 287,2 444.40115,2 572,129.59885 572,287 z" style="fill:#ffffff;stroke:#000000" transform="matrix(0.87565676,0,0,0.87565676,-1.3550459,-1.2753686)"/><g id="g11867"><path d="m 101.06896,178.59162 h 297.77937 c 1.08011,0 1.95726,0.87628 1.95726,1.95726 v 20.0012 c 0,1.08098 -0.87715,1.95727 -1.95726,1.95727 H 101.06896 c -1.080977,0 -1.95726,-0.87629 -1.95726,-1.95727 v -20.0012 c 0,-1.08098 0.876283,-1.95726 1.95726,-1.95726 z" id="rect1990" style="fill:#808080"/><path d="m 115.72884,151.65768 h 268.45961 c 9.18006,0 16.6215,7.44144 16.6215,16.6215 V 331.8 c 0,9.18006 -7.44144,16.6215 -16.6215,16.6215 H 115.72884 c -9.17919,0 -16.621495,-7.44144 -16.621495,-16.6215 V 168.27831 c 0,-9.17919 7.442305,-16.62063 16.621495,-16.62063 z" id="rect1992" style="fill:none;stroke:#000000;stroke-width:4.62966537;stroke-linecap:round;stroke-linejoin:bevel"/><path d="M 232.77967,252.92497 H 382.3601 c 1.09405,0 1.98078,0.88673 1.98078,1.98165 v 19.95155 c 0,1.09404 -0.88673,1.98078 -1.98078,1.98078 H 232.77967 c -1.09405,0 -1.98078,-0.88674 -1.98078,-1.98078 v -19.95155 c 0,-1.09492 0.88673,-1.98165 1.98078,-1.98165 z" id="rect1994-1" style="fill:#808080"/><path d="M 232.77967,299.96202 H 382.3601 c 1.09405,0 1.98078,0.88673 1.98078,1.98165 v 19.95155 c 0,1.09404 -0.88673,1.98078 -1.98078,1.98078 H 232.77967 c -1.09405,0 -1.98078,-0.88674 -1.98078,-1.98078 v -19.95155 c 0,-1.09492 0.88673,-1.98165 1.98078,-1.98165 z" id="rect1996-8" style="fill:#808080"/><path d="m 136.83977,225.38303 h 49.4821 c 4.87966,0 8.83513,3.95547 8.83513,8.83513 v 40.22277 c 0,4.87879 -3.95547,8.83426 -8.83513,8.83426 h -49.4821 c -4.87966,0 -8.83513,-3.95547 -8.83513,-8.83426 v -40.22277 c 0,-4.87966 3.95547,-8.83513 8.83513,-8.83513 z" id="rect1998"/><path d="m 112.78032,313.54788 28.64295,-23.68925 v 47.37938 l -28.64295,-23.69013 z" id="path2000"/><path style="fill:none;stroke:#ffffff;stroke-width:2.24349308;stroke-linecap:round;stroke-linejoin:bevel" id="path2010" d="m 172.91544,265.66417 -11.33418,4.69412 -11.33419,-4.69412 -4.69499,-11.33419 4.69499,-11.33506 11.33419,-4.69499 11.33418,4.69499 4.695,11.33506 -4.695,11.33419 z"/><path style="fill:none;stroke:#ffffff;stroke-width:3.08641434" id="path2012" d="m 128.06562,237.13968 h 17.60927 l 4.71503,5.87005"/><path style="fill:none;stroke:#ffffff;stroke-width:3.08641434" id="path2014" d="m 195.09603,237.13968 h -17.60928 l -4.71503,5.87005"/><path style="fill:none;stroke:#ffffff;stroke-width:3.08641434" id="path2016" d="m 128.06562,271.27464 h 17.60927 l 4.71503,-5.87005"/><path style="fill:none;stroke:#ffffff;stroke-width:3.08641434" id="path2018" d="m 195.09603,271.27464 h -17.60928 l -4.71503,-5.87005"/><path style="fill:none;stroke:#ffffff;stroke-width:3.08641434" id="path2020" d="M 145.57734,254.28381 H 128.06562"/><path style="fill:none;stroke:#ffffff;stroke-width:3.08641434" id="path2022" d="M 195.09603,254.28381 H 177.58344"/><path style="fill:none;stroke:#ffffff;stroke-width:3.08641434" id="path2024" d="M 161.58126,238.41404 V 225.44313"/><path style="fill:none;stroke:#ffffff;stroke-width:3.08641434" id="path2026" d="m 161.58126,283.21508 v -12.9709"/><path style="fill:#d40000;stroke:#d40000;stroke-width:0.8710565" id="path1979-05" d="m 249.94494,7.572583 c -59.6935,0 -114.34793,21.731117 -156.545394,57.707491 -1.107113,0.944225 -2.203773,1.894548 -3.293464,2.857936 -0.438142,0.387621 -0.871928,0.780467 -1.306585,1.1707 -0.932902,0.836215 -1.857093,1.680268 -2.776057,2.53129 -0.245638,0.227346 -0.490405,0.45295 -0.735172,0.680296 -1.087949,1.01478 -2.169801,2.040885 -3.239459,3.0757 -1.226447,1.186379 -2.446797,2.381468 -3.647984,3.593108 -1.17854,1.188992 -2.357079,2.379726 -3.511229,3.593108 -1.197703,1.259547 -2.368402,2.553066 -3.538231,3.837875 -0.134143,0.147208 -0.275254,0.288319 -0.408526,0.435528 -1.011296,1.115823 -2.00343,2.240357 -2.994692,3.375344 -1.081852,1.238642 -2.12712,2.494705 -3.184582,3.755995 -0.04094,0.04878 -0.09495,0.08711 -0.135885,0.135885 C 29.353377,136.46281 8.0908885,190.77666 8.0908885,250.05119 c 0,133.84218 108.3428715,242.45247 241.8549215,242.45247 59.82503,0 114.57703,-21.84 156.81717,-57.95139 l 0.027,0.0253 c 0.33623,-0.28745 0.67159,-0.58012 1.00782,-0.87106 0.13501,-0.11759 0.27177,-0.23431 0.40852,-0.35364 0.8188,-0.71079 1.6402,-1.42767 2.44941,-2.15064 0.63849,-0.57055 1.27175,-1.13673 1.90588,-1.71511 0.17943,-0.16376 0.36323,-0.32404 0.54266,-0.49041 0.84406,-0.77175 1.67156,-1.55483 2.50429,-2.33966 0.74824,-0.70468 1.49386,-1.40849 2.23252,-2.12276 0.10191,-0.0993 0.19947,-0.20121 0.30051,-0.30052 0.9451,-0.91809 1.87103,-1.84141 2.80306,-2.77518 0.27177,-0.27351 0.54703,-0.54267 0.81618,-0.81618 1.09144,-1.10537 2.1698,-2.22468 3.24033,-3.34921 0.1054,-0.1115 0.22038,-0.21515 0.32578,-0.32578 1.22645,-1.29265 2.44941,-2.59749 3.64624,-3.91975 1.09927,-1.21077 2.16632,-2.44157 3.24033,-3.67412 0.19947,-0.22822 0.40069,-0.45121 0.59929,-0.68204 0.91809,-1.06094 1.82225,-2.13321 2.72031,-3.21071 C 470.66194,363.3887 491.826,309.18373 491.826,250.05119 491.82687,116.20987 383.45612,7.572583 249.94494,7.572583 l 0,0 z m 0,54.060378 c 103.74718,0 187.95831,84.414949 187.95831,188.420839 0,44.28887 -15.25742,85.03253 -40.80464,117.2111 L 131.86279,103.52468 C 164.13891,77.33898 205.21707,61.632961 249.94494,61.632961 z M 103.06305,132.54218 368.35462,396.33641 c -32.33013,26.33988 -73.53546,42.13648 -118.40968,42.13648 -103.74718,0 -187.93043,-84.41408 -187.93043,-188.41909 0,-44.42911 15.361952,-85.28601 41.04854,-117.51162 z"/></g>
</svg>