<?xml version="1.0" encoding="UTF-8" standalone="no"?>
<svg xmlns:dc="http://purl.org/dc/elements/1.1/" xmlns:cc="http://creativecommons.org/ns#" xmlns:rdf="http://www.w3.org/1999/02/22-rdf-syntax-ns#" xmlns:svg="http://www.w3.org/2000/svg" xmlns="http://www.w3.org/2000/svg" xmlns:sodipodi="http://sodipodi.sourceforge.net/DTD/sodipodi-0.dtd" xmlns:inkscape="http://www.inkscape.org/namespaces/inkscape" enable-background="new 0 0 499.895 500.093" id="svg6714" version="1.1" viewBox="0 0 499.895 500.093" xml:space="preserve"><metadata id="metadata11960"><rdf:RDF><cc:Work rdf:about=""><dc:format>image/svg+xml</dc:format><dc:type rdf:resource="http://purl.org/dc/dcmitype/StillImage"/></cc:Work></rdf:RDF></metadata><defs id="defs11958"> </defs><circle cx="287" cy="287" id="circle12991" r="285" d="M 572,287 C 572,444.40115 444.40115,572 287,572 129.59885,572 2,444.40115 2,287 2,129.59885 129.59885,2 287,2 444.40115,2 572,129.59885 572,287 z" style="fill:#ffffff;stroke:#000000" transform="matrix(0.87565676,0,0,0.87565676,-1.3528723,-1.2749436)"/><path id="path2853" d="m 121.39503,261.77488 16.9316,127.90855 h 3.53823 66.14629 3.53823 l 16.93159,-127.90855 h -37.40055 -32.22909 -37.4563 z m 11.67826,9.03721 h 14.07279 55.61173 14.07278 l -2.3954,24.74236 h -9.30985 -60.34854 -9.33685 l -2.36666,-24.74236 z"/><path id="path2855" d="m 266.94422,110.43492 c -1.71686,-0.0105 -3.41542,1.16808 -3.42935,3.5931 -0.2047,13.0162 -0.061,30.56102 -0.27352,47.60847 -0.0732,5.9075 -7.76372,4.82826 -7.70275,0.27264 0.22735,-17.14936 0.0836,-35.03389 0.24477,-47.3367 0.0514,-4.84917 -6.87612,-5.35961 -6.72282,0 -0.41636,12.67301 -1.3632,46.35502 -2.31439,67.26211 -0.277,6.08433 8.78286,15.34802 20.22506,16.22343 -0.24651,26.94352 -4.27341,191.46954 -4.27341,191.46954 h 22.3217 c 0,0 -3.99989,-164.52602 -4.2464,-191.46954 11.44132,-0.87541 20.47331,-10.13823 20.19718,-16.22343 -0.95119,-20.90709 -1.87103,-54.5891 -2.28739,-67.26211 0.15331,-5.35961 -6.80121,-4.84917 -6.74982,0 0.16028,12.30368 0.0453,30.18821 0.27177,47.3367 0.061,4.55649 -7.62871,5.63486 -7.70275,-0.27264 -0.21254,-17.04745 -0.0679,-34.5914 -0.27264,-47.60847 -0.0305,-4.85004 -6.85086,-4.76642 -6.9127,0 -0.15418,13.42473 0.21515,30.45737 0.27177,47.60847 0.002,0.70294 -0.0897,1.31181 -0.21777,1.85099 -0.034,-2.263 -0.0653,-3.48335 -0.081,-2.12276 -0.0348,2.89278 -1.70727,4.67147 -3.42935,4.9537 -1.71685,-0.29268 -3.39625,-2.07138 -3.43109,-4.9537 -0.0165,-1.36059 -0.0479,-0.14024 -0.081,2.12276 -0.12804,-0.53831 -0.19337,-1.14892 -0.19163,-1.85099 0.0566,-17.1511 0.42595,-34.18374 0.27351,-47.60847 -0.034,-2.38321 -1.76911,-3.58265 -3.48596,-3.5931 l 0,0 z"/><path id="path2857" d="m 330.40678,389.52315 3.52342,-117.46893 c -7.2498,-5.02513 -15.59975,-2.31963 -15.82448,-18.72249 -0.45731,-33.31878 -0.2439,-81.01261 -0.43989,-114.66674 -0.0375,-6.46934 2.08793,-12.63119 7.46844,-19.77037 5.38313,-7.13918 13.36723,-8.49455 14.92033,-8.49977 6.30122,-0.0192 13.77924,2.26649 13.63639,8.93878 -1.52958,69.93712 0.43988,270.19301 0.43988,270.19301 l -23.72409,-0.003 0,0 z"/><path style="fill:#d40000;stroke:#d40000;stroke-width:0.8710565" id="path1979-2" d="m 249.94494,7.572573 c -59.6935,0 -114.34794,21.731117 -156.545399,57.707491 -1.107113,0.944225 -2.203773,1.894548 -3.293464,2.858807 -0.438142,0.38675 -0.871928,0.780467 -1.306585,1.1707 -0.932902,0.836215 -1.857093,1.680268 -2.776057,2.53129 -0.245638,0.227346 -0.490405,0.45295 -0.735172,0.680296 -1.087949,1.01478 -2.169801,2.040885 -3.238588,3.0757 -1.226447,1.186379 -2.446797,2.381468 -3.647984,3.593108 -1.17854,1.189863 -2.357079,2.379726 -3.511229,3.593108 -1.196831,1.259547 -2.368402,2.553066 -3.538231,3.837875 -0.134143,0.147208 -0.275254,0.288319 -0.408526,0.435528 -1.011296,1.115823 -2.002559,2.240357 -2.993821,3.375344 -1.081852,1.238642 -2.12712,2.494705 -3.184582,3.755995 -0.04094,0.04965 -0.09495,0.08711 -0.135885,0.135885 -35.274303,42.14084 -56.5367913,96.45383 -56.5367913,155.72835 0,133.84218 108.3428743,242.45247 241.8549243,242.45247 59.82503,0 114.57703,-21.84 156.81717,-57.95139 l 0.027,0.0253 c 0.33623,-0.28745 0.67159,-0.58012 1.00781,-0.87105 0.13502,-0.1176 0.27177,-0.23432 0.40853,-0.35365 0.81792,-0.71079 1.6402,-1.42767 2.44941,-2.15064 0.63849,-0.57054 1.27174,-1.13673 1.90413,-1.71511 0.18205,-0.16376 0.36497,-0.32404 0.54528,-0.49041 0.84406,-0.77175 1.67156,-1.55483 2.50429,-2.33965 0.74824,-0.70469 1.49386,-1.4085 2.23252,-2.12277 0.10191,-0.0976 0.19947,-0.20121 0.30051,-0.30051 0.9451,-0.9181 1.87103,-1.84142 2.80306,-2.77519 0.27177,-0.27351 0.54702,-0.54267 0.81618,-0.81618 1.09143,-1.10537 2.1698,-2.22468 3.24033,-3.34747 0.1054,-0.11324 0.22038,-0.21689 0.32578,-0.32839 1.22644,-1.29265 2.44941,-2.59749 3.64624,-3.91975 1.09927,-1.21077 2.16632,-2.44157 3.24033,-3.67412 0.19947,-0.22822 0.40068,-0.45121 0.59929,-0.68204 0.91809,-1.06094 1.82225,-2.13321 2.7203,-3.21071 35.12884,-42.09206 56.2929,-96.29703 56.2929,-155.42957 C 491.82687,116.20986 383.45612,7.572573 249.94494,7.572573 l 0,0 z m 0,54.059507 c 103.74718,0 187.95831,84.41495 187.95831,188.42084 0,44.28886 -15.25743,85.03253 -40.80464,117.2111 L 131.86278,103.52467 c 32.277,-26.1857 73.35428,-41.89259 118.08216,-41.89259 z m -146.8819,70.91009 265.29157,263.79336 c -32.33013,26.33987 -73.53546,42.13648 -118.40967,42.13648 -103.74718,0 -187.930435,-84.41408 -187.930435,-188.41909 0,-44.42824 15.361952,-85.28514 41.048535,-117.51075 z"/>
</svg>