<?xml version="1.0" encoding="UTF-8" standalone="no"?>
<svg xmlns:dc="http://purl.org/dc/elements/1.1/" xmlns:cc="http://creativecommons.org/ns#" xmlns:rdf="http://www.w3.org/1999/02/22-rdf-syntax-ns#" xmlns:svg="http://www.w3.org/2000/svg" xmlns="http://www.w3.org/2000/svg" xmlns:sodipodi="http://sodipodi.sourceforge.net/DTD/sodipodi-0.dtd" xmlns:inkscape="http://www.inkscape.org/namespaces/inkscape" enable-background="new 0 0 499.895 500.093" id="svg7118" version="1.1" viewBox="0 0 499.895 500.093" xml:space="preserve"><metadata id="metadata12426"><rdf:RDF><cc:Work rdf:about=""><dc:format>image/svg+xml</dc:format><dc:type rdf:resource="http://purl.org/dc/dcmitype/StillImage"/></cc:Work></rdf:RDF></metadata><defs id="defs12424"> </defs><circle cx="287" cy="287" id="circle12991" r="285" d="M 572,287 C 572,444.40115 444.40115,572 287,572 129.59885,572 2,444.40115 2,287 2,129.59885 129.59885,2 287,2 444.40115,2 572,129.59885 572,287 z" style="fill:#ffffff;stroke:#000000" transform="matrix(0.87565676,0,0,0.87565676,-1.3541773,-1.2749436)"/><path d="m 308.0183,153.91527 c -51.80434,0 -93.82933,42.05113 -93.82933,93.85634 0,51.80434 42.02412,93.85633 93.82933,93.85633 51.80522,0 93.85547,-42.05199 93.85547,-93.85633 0,-51.80521 -42.05113,-93.85634 -93.85547,-93.85634 z m 0,10.77933 c 45.86113,0 83.07614,37.21588 83.07614,83.07701 0,45.86112 -37.21501,83.07701 -83.07614,83.07701 -45.86025,0 -83.07701,-37.21676 -83.07701,-83.07701 0,-45.86025 37.21676,-83.07701 83.07701,-83.07701 z" id="path2005"/><rect height="30.284893" id="rect2009" width="13.308872" x="403.56363" y="232.62743"/><path d="m 320.86377,247.76987 c 0,7.08952 -5.7481,12.83763 -12.83763,12.83763 -7.08953,0 -12.83763,-5.74811 -12.83763,-12.83763 0,-7.0904 5.7481,-12.83763 12.83763,-12.83763 7.08953,0 12.83763,5.74723 12.83763,12.83763 z" id="path2011"/><rect height="45.655811" id="rect2013" transform="matrix(-0.710996,0.70319605,-0.70319605,-0.710996,0,0)" width="13.324626" x="-49.935173" y="-385.94318"/><rect height="67.819069" id="rect2015" transform="matrix(-0.70570538,-0.70850541,0.70850541,-0.70570538,0,0)" width="8.7261772" x="-400.6655" y="48.212597"/><path d="M 283.60259,36.594419 V 157.15473 c 7.79073,-2.0975 15.96472,-3.23946 24.41571,-3.23946 8.43967,0 16.63457,1.12018 24.41572,3.21159 V 36.594419 h -48.83143 z m 0,301.794061 v 114.81657 h 48.8323 V 338.41549 c -7.78115,2.0914 -15.97692,3.21158 -24.41572,3.21158 -8.45186,8.7e-4 -16.62585,-1.14108 -24.41658,-3.23859 z" id="rect2017"/><path id="path2031-7" d="m 106.45061,236.20311 -0.21776,31.16814 h 28.00969 l -0.43553,23.73629 23.49152,0.67942 -0.46253,20.55171 16.60495,16.95773 c -1.49038,3.9964 -2.31353,8.30987 -2.31353,12.82108 0,20.293 16.48213,36.74726 36.77514,36.74726 20.29387,0 36.74813,-16.45426 36.74813,-36.74726 0,-20.29388 -16.45426,-36.77427 -36.74813,-36.77427 -4.94064,0 -9.65828,0.97733 -13.96391,2.74819 l -74.58421,-71.88829 h -12.90383 z m 108.09288,103.05643 c 5.91883,0 10.72445,4.80649 10.72445,10.72445 0,5.9197 -4.80562,10.69744 -10.72445,10.69744 -5.91883,0 -10.72532,-4.77774 -10.72532,-10.69744 0,-5.91796 4.80562,-10.72445 10.72532,-10.72445 z"/><rect height="9.2872038" id="rect2051" width="48.091026" x="283.90555" y="334.64203"/><path d="m 249.94494,7.572573 c -59.6935,0 -114.34794,21.731117 -156.545398,57.707491 -1.107113,0.944225 -2.203773,1.894548 -3.293464,2.858807 -0.438142,0.38675 -0.871928,0.780467 -1.306585,1.1707 -0.932902,0.836215 -1.857093,1.680268 -2.776057,2.53129 -0.245638,0.227346 -0.490405,0.45295 -0.735172,0.680296 -1.087949,1.01478 -2.169801,2.040885 -3.239459,3.0757 -1.226447,1.186379 -2.446797,2.381468 -3.647984,3.593108 -1.17854,1.189863 -2.357079,2.379726 -3.511229,3.593108 -1.197703,1.259547 -2.368402,2.553066 -3.538231,3.837875 -0.134143,0.147208 -0.275254,0.288319 -0.408526,0.435528 -1.011296,1.115823 -2.002559,2.240357 -2.993821,3.375344 -1.081852,1.238642 -2.12712,2.494705 -3.184582,3.755995 -0.04094,0.04965 -0.09495,0.08711 -0.135885,0.135885 -35.274303,42.14084 -56.5367914,96.45383 -56.5367914,155.72835 0,133.84218 108.3428744,242.45247 241.8549244,242.45247 59.82503,0 114.57703,-21.84 156.81717,-57.95139 l 0.027,0.0253 c 0.33623,-0.28745 0.67159,-0.58012 1.00781,-0.87105 0.13502,-0.1176 0.27177,-0.23432 0.40853,-0.35365 0.81879,-0.71079 1.6402,-1.42767 2.44941,-2.15064 0.63849,-0.57054 1.27174,-1.13673 1.90587,-1.71511 0.17944,-0.16376 0.36323,-0.32404 0.54267,-0.49041 0.84405,-0.77175 1.67156,-1.55483 2.50429,-2.33965 0.74824,-0.70469 1.49386,-1.4085 2.23252,-2.12277 0.10191,-0.0976 0.19947,-0.20121 0.30051,-0.30051 0.9451,-0.9181 1.87103,-1.84142 2.80306,-2.77519 0.27177,-0.27351 0.54702,-0.54267 0.81618,-0.81618 1.09143,-1.10537 2.1698,-2.22468 3.24033,-3.34747 0.1054,-0.11324 0.22038,-0.21689 0.32577,-0.32839 1.22645,-1.29265 2.44942,-2.59749 3.64625,-3.91975 1.09927,-1.21077 2.16631,-2.44157 3.24033,-3.67412 0.19947,-0.22822 0.40068,-0.45121 0.59928,-0.68204 0.9181,-1.06094 1.82225,-2.13321 2.72031,-3.21071 35.12884,-42.09206 56.2929,-96.29703 56.2929,-155.42957 0,-133.84132 -108.37075,-242.478607 -241.88193,-242.478607 l 0,0 z m 0,54.059507 c 103.74718,0 187.95831,84.41495 187.95831,188.42084 0,44.28886 -15.25743,85.03253 -40.80464,117.2111 L 131.86278,103.52467 c 32.27613,-26.1857 73.35428,-41.89259 118.08216,-41.89259 z m -146.8819,70.91009 265.29157,263.79336 c -32.33013,26.33987 -73.53545,42.13648 -118.40967,42.13648 -103.74718,0 -187.930434,-84.41408 -187.930434,-188.41909 0,-44.42824 15.361952,-85.28514 41.048534,-117.51075 z" id="path1979-63" style="fill:#d40000;stroke:#d40000;stroke-width:0.8710565"/><rect height="9.2872038" id="rect2049" width="48.091026" x="283.90555" y="149.97891"/>
</svg>