<?xml version="1.0" encoding="UTF-8" standalone="no"?>
<svg xmlns:dc="http://purl.org/dc/elements/1.1/" xmlns:cc="http://creativecommons.org/ns#" xmlns:rdf="http://www.w3.org/1999/02/22-rdf-syntax-ns#" xmlns:svg="http://www.w3.org/2000/svg" xmlns="http://www.w3.org/2000/svg" xmlns:sodipodi="http://sodipodi.sourceforge.net/DTD/sodipodi-0.dtd" xmlns:inkscape="http://www.inkscape.org/namespaces/inkscape" enable-background="new 0 0 499.895 500.093" id="svg6640" version="1.1" viewBox="0 0 499.895 500.093" xml:space="preserve"><metadata id="metadata25410"><rdf:RDF><cc:Work rdf:about=""><dc:format>image/svg+xml</dc:format><dc:type rdf:resource="http://purl.org/dc/dcmitype/StillImage"/></cc:Work></rdf:RDF></metadata><defs id="defs25408"> </defs><circle cx="287" cy="287" id="circle12991-1" r="285" d="M 572,287 C 572,444.40115 444.40115,572 287,572 129.59885,572 2,444.40115 2,287 2,129.59885 129.59885,2 287,2 444.40115,2 572,129.59885 572,287 z" style="fill:#ffffff;stroke:#000000" transform="matrix(0.87565676,0,0,0.87565676,-1.3528733,-1.2753786)"/><path id="rect1994" d="m 280.48483,143.58148 -12.91142,22.49948 2.03002,1.16494 -20.53923,35.7917 -4.98175,-2.8588 -101.11109,176.19644 69.10473,39.65404 101.11066,-176.19567 -55.03347,-31.58121 20.53922,-35.7917 2.03003,1.16493 12.91142,-22.49947 -13.14868,-7.54543 z m -51.81598,124.42467 c 3.18971,1.83043 4.29486,5.91436 2.46487,9.10332 -1.83043,3.18971 -5.91436,4.29486 -9.10332,2.46486 -3.18971,-1.83043 -4.29529,-5.9136 -2.46486,-9.10331 1.82967,-3.19015 5.91328,-4.29649 9.10331,-2.46487 z m 16.88052,9.68596 c 3.18971,1.83043 4.27188,5.90016 2.44145,9.08988 -1.83,3.18895 -5.89062,4.30949 -9.0799,2.4783 -3.18971,-1.83043 -4.29529,-5.91361 -2.46486,-9.10332 1.82924,-3.18939 5.9136,-4.29529 9.10331,-2.46486 z m 16.85786,9.67295 c 3.18852,1.83075 4.29486,5.91436 2.46486,9.10332 -1.83118,3.18927 -5.91404,4.29605 -9.10375,2.46562 -3.19047,-1.83087 -4.29562,-5.9148 -2.46594,-9.10494 1.83,-3.18896 5.91393,-4.29411 9.10483,-2.464 z m -43.42585,-2.47926 c 3.18928,1.83119 4.29443,5.91512 2.46519,9.10451 -1.83043,3.18971 -5.90092,4.27144 -9.08988,2.44145 -3.18927,-1.83119 -4.3083,-5.89095 -2.4783,-9.0799 1.82967,-3.19015 5.91328,-4.29649 9.10299,-2.46606 z m 16.88052,9.68596 c 3.18928,1.83119 4.2722,5.90136 2.44102,9.09063 -1.83043,3.18972 -5.87675,4.28532 -9.06646,2.45489 -3.18928,-1.83119 -4.30949,-5.89062 -2.47831,-9.0799 1.83,-3.18895 5.91437,-4.29486 9.10375,-2.46562 z m 16.85743,9.67371 c 3.18971,1.83043 4.29486,5.91436 2.46486,9.10331 -1.83,3.18896 -5.90092,4.27144 -9.08988,2.44145 -3.18971,-1.83043 -4.3083,-5.89094 -2.4783,-9.0799 1.83,-3.18895 5.91317,-4.29454 9.10332,-2.46486 z m -43.41165,-2.50224 c 3.18896,1.82999 4.29529,5.9136 2.46486,9.10331 -1.83043,3.18971 -5.91436,4.29486 -9.10407,2.46443 -3.18928,-1.83118 -4.29486,-5.91436 -2.46486,-9.10331 1.83118,-3.18928 5.91479,-4.29562 9.10407,-2.46443 z m 16.88127,9.68639 c 3.18972,1.83043 4.27188,5.90016 2.44145,9.08987 -1.83043,3.18971 -5.89062,4.30949 -9.0799,2.47831 -3.18971,-1.83043 -4.29529,-5.91361 -2.46486,-9.10332 1.82924,-3.18939 5.9136,-4.29529 9.10331,-2.46486 z m 16.85624,9.67402 c 3.18971,1.83043 4.29529,5.91361 2.46486,9.10332 -1.83043,3.18971 -5.91436,4.29486 -9.10331,2.46487 -3.18972,-1.83043 -4.29487,-5.91437 -2.46487,-9.10332 1.83,-3.18896 5.91436,-4.29486 9.10332,-2.46487 z m -43.41078,-2.50375 c 3.18971,1.83043 4.29529,5.91361 2.46486,9.10332 -1.83043,3.18971 -5.91404,4.29605 -9.10331,2.46486 -3.18972,-1.83043 -4.2953,-5.9136 -2.46487,-9.10331 1.82968,-3.19015 5.91361,-4.2953 9.10332,-2.46487 z m 16.88084,9.68715 c 3.18971,1.83043 4.27187,5.90016 2.44069,9.08944 -1.83,3.18896 -5.89019,4.30874 -9.0799,2.47831 -3.18971,-1.83043 -4.29529,-5.91361 -2.46562,-9.10375 1.83043,-3.18972 5.91512,-4.29443 9.10483,-2.464 z m 16.85742,9.6737 c 3.18971,1.83043 4.29486,5.91436 2.46487,9.10332 -1.83043,3.18971 -5.91436,4.29486 -9.10332,2.46486 -3.18971,-1.83043 -4.2953,-5.9136 -2.46487,-9.10331 1.82925,-3.18939 5.91318,-4.29454 9.10332,-2.46487 z m -35.7161,-15.91427 c -1.29945,-0.7457 -2.93363,-0.30258 -3.6789,0.99612 -0.74526,1.2987 -0.31677,2.95663 0.98268,3.70232 1.29946,0.7457 2.97006,0.29336 3.71576,-1.0061 0.7457,-1.29945 0.27948,-2.94588 -1.01954,-3.69234 z m 33.73783,19.36161 c -1.29945,-0.7457 -2.95619,-0.31753 -3.70232,0.98268 -0.74526,1.2987 -0.29336,2.97006 1.00578,3.71457 1.29946,0.7457 2.97006,0.29336 3.71576,-1.0061 0.74602,-1.29827 0.27948,-2.94589 -1.01922,-3.69115 z m -42.46472,20.94901 12.06411,6.92405 c 3.2018,1.83736 4.27806,5.88764 2.44145,9.08987 -1.83694,3.20105 -5.87886,4.31524 -9.0799,2.47831 l -12.06411,-6.92405 c -3.2018,-1.83737 -4.27838,-5.88883 -2.44144,-9.08988 1.83693,-3.20104 5.87809,-4.31567 9.07989,-2.4783 z"/><path d="m 259.53957,84.046985 c -15.89593,5.623039 -29.93794,16.730835 -38.98127,32.489765 -9.04159,15.7559 -11.5359,33.47133 -8.37016,50.02494 l 6.78222,-1.31824 c -2.85853,-14.97836 -0.59538,-31.01167 7.58508,-45.26522 8.18665,-14.26606 20.90191,-24.311425 35.29173,-29.397764 l -2.3076,-6.533481 z m 96.09024,55.141815 -6.80445,1.30448 c 2.86921,14.9895 0.61111,31.03677 -7.57629,45.3024 -8.17971,14.25397 -20.88082,24.29742 -35.25368,29.38746 l 2.30642,6.53381 c 15.89277,-5.61581 29.92752,-16.71271 38.96858,-32.46591 9.04474,-15.76314 11.53302,-33.49608 8.35942,-50.06224 z" id="path3131"/><path d="m 266.95274,105.09078 c -11.03006,3.90608 -20.78124,11.6021 -27.05898,22.5417 -6.27384,10.93281 -8.02033,23.2324 -5.8336,34.72098 l 6.80521,-1.30405 c -1.88837,-9.92241 -0.39282,-20.53517 5.02477,-29.97587 5.42149,-9.4475 13.83248,-16.1119 23.35979,-19.48538 l -2.29719,-6.49738 z m 66.76711,38.31461 -6.78103,1.31792 c 1.88837,9.92241 0.39282,20.53518 -5.02521,29.97663 -5.41758,9.4407 -13.8267,16.08609 -23.34559,19.46239 l 2.30836,6.53392 c 11.02121,-3.90815 20.75978,-11.62245 27.03556,-22.55515 6.27688,-10.93809 8.00058,-23.24172 5.80791,-34.73571 z" id="path3135"/><path d="m 274.35625,126.09891 c -6.16183,2.19549 -11.61717,6.51474 -15.12477,12.63061 -3.50988,6.11457 -4.48738,13.00344 -3.27329,19.43164 l 6.78104,-1.31793 c -0.90786,-4.85649 -0.1612,-10.05505 2.48863,-14.67266 2.65243,-4.62213 6.7768,-7.87334 11.43556,-9.53742 l -2.30717,-6.53424 z m 37.49007,21.51384 -6.80446,1.30449 c 0.91423,4.86115 0.18766,10.06321 -2.46521,14.6861 -2.6494,4.61685 -6.76073,7.88558 -11.41214,9.55086 l 2.29719,6.49738 c 6.15416,-2.19788 11.60763,-6.49812 15.11328,-12.60708 3.50793,-6.11467 4.48662,-13.00387 3.27134,-19.43175 z" id="path3139"/><path d="m 249.94494,7.572573 c -59.6935,0 -114.34794,21.731117 -156.545401,57.707491 -1.107113,0.944225 -2.203773,1.894548 -3.293464,2.857936 -0.438142,0.387621 -0.871928,0.780467 -1.306585,1.1707 -0.932902,0.836215 -1.857093,1.680268 -2.776057,2.53129 -0.245638,0.227346 -0.490405,0.45295 -0.735172,0.680296 -1.087949,1.01478 -2.169801,2.040885 -3.238588,3.0757 -1.226447,1.186379 -2.446797,2.381468 -3.647984,3.593108 -1.17854,1.188992 -2.357079,2.379726 -3.511229,3.593108 -1.196831,1.259547 -2.368402,2.553066 -3.538231,3.837875 -0.134143,0.147208 -0.275254,0.288319 -0.408526,0.435528 -1.011296,1.115823 -2.002559,2.240357 -2.993821,3.375344 -1.081852,1.238642 -2.12712,2.494705 -3.184582,3.755995 -0.04094,0.04878 -0.09494,0.08711 -0.135885,0.135885 C 29.355112,136.4628 8.0926237,190.77665 8.0926237,250.05118 c 0,133.84218 108.3428763,242.45247 241.8549263,242.45247 59.82503,0 114.57703,-21.84 156.81717,-57.95139 l 0.027,0.0253 c 0.33623,-0.28745 0.67158,-0.58012 1.00781,-0.87106 0.13502,-0.11759 0.27177,-0.23431 0.40853,-0.35364 0.81879,-0.71079 1.6402,-1.42767 2.44941,-2.15064 0.63848,-0.57055 1.27174,-1.13673 1.90413,-1.71511 0.18118,-0.16376 0.36497,-0.32404 0.54528,-0.49041 0.84405,-0.77175 1.67156,-1.55483 2.50429,-2.33966 0.74823,-0.70468 1.49386,-1.40849 2.23251,-2.12276 0.10192,-0.0993 0.19948,-0.20121 0.30052,-0.30052 0.9451,-0.91809 1.87103,-1.84141 2.80306,-2.77518 0.27177,-0.27351 0.54702,-0.54267 0.81618,-0.81618 1.09143,-1.10537 2.1698,-2.22468 3.24033,-3.34921 0.1054,-0.1115 0.22038,-0.21515 0.32577,-0.32578 1.22645,-1.29265 2.44941,-2.59749 3.64625,-3.91975 1.09927,-1.21077 2.16631,-2.44157 3.24033,-3.67412 0.19947,-0.22822 0.40068,-0.45121 0.59928,-0.68204 0.9181,-1.06094 1.82225,-2.13321 2.72031,-3.21071 35.12884,-42.09206 56.2929,-96.29703 56.2929,-155.42957 C 491.82687,116.20986 383.45612,7.572573 249.94494,7.572573 l 0,0 z m 0,54.060378 c 103.74718,0 187.9583,84.414949 187.9583,188.420839 0,44.28887 -15.25742,85.03253 -40.80464,117.2111 L 131.86278,103.52467 C 164.13891,77.33897 205.21706,61.632951 249.94494,61.632951 z M 103.06304,132.54217 368.35461,396.3364 c -32.33013,26.33988 -73.53546,42.13648 -118.40967,42.13648 -103.74718,0 -187.930437,-84.41408 -187.930437,-188.41909 0,-44.42911 15.361952,-85.28601 41.048537,-117.51162 z" id="path1979-38" style="fill:#d40000;stroke:#d40000;stroke-width:0.8710565"/>
</svg>