<?xml version="1.0" encoding="UTF-8" standalone="no"?>
<svg xmlns:dc="http://purl.org/dc/elements/1.1/" xmlns:cc="http://creativecommons.org/ns#" xmlns:rdf="http://www.w3.org/1999/02/22-rdf-syntax-ns#" xmlns:svg="http://www.w3.org/2000/svg" xmlns="http://www.w3.org/2000/svg" xmlns:sodipodi="http://sodipodi.sourceforge.net/DTD/sodipodi-0.dtd" xmlns:inkscape="http://www.inkscape.org/namespaces/inkscape" enable-background="new 0 0 499.895 500.093" id="svg7305" version="1.1" viewBox="0 0 499.895 500.093" xml:space="preserve"><metadata id="metadata12509"><rdf:RDF><cc:Work rdf:about=""><dc:format>image/svg+xml</dc:format><dc:type rdf:resource="http://purl.org/dc/dcmitype/StillImage"/></cc:Work></rdf:RDF></metadata><defs id="defs12507"> </defs><circle cx="287" cy="287" id="circle12991" r="285" d="M 572,287 C 572,444.40115 444.40115,572 287,572 129.59885,572 2,444.40115 2,287 2,129.59885 129.59885,2 287,2 444.40115,2 572,129.59885 572,287 z" style="fill:#ffffff;stroke:#000000" transform="matrix(0.87565676,0,0,0.87565676,-1.3541622,-1.2749436)"/><path d="m 330.61174,101.4019 c -6.07823,0.13502 -12.86899,1.78915 -20.55258,5.49811 l -49.65021,38.43537 c 1.92764,2.50516 2.83441,4.65667 0.13675,6.96845 0,0 -105.54156,82.40978 -155.61946,120.07078 -23.359124,17.5666 -24.479303,47.13896 -9.499745,63.12285 10.429155,11.12862 22.356535,21.77903 61.245725,7.59561 77.48308,-28.29888 257.72296,-92.08809 257.72296,-92.08809 0,0 -26.20312,-5.78991 -86.85914,13.28448 -61.23265,19.25471 -158.06974,55.25721 -158.06974,55.25721 5.97283,-18.88276 -3.57047,-45.0101 -25.15176,-50.9838 29.49049,-21.6144 130.06005,-96.82316 130.06005,-96.82316 0,0 12.88467,12.15473 32.12108,12.76621 -1.92765,7.51547 -3.61924,12.0049 -1.52522,21.58565 2.2752,10.41087 3.74816,12.26534 12.60332,9.79938 8.85516,-2.46596 10.8551,-8.73931 21.64053,-17.93766 -7.3221,-5.97371 0.97471,-5.41275 6.36916,-5.79775 11.26973,-11.11468 16.52743,-11.45614 20.87922,-19.00036 15.34802,-26.61426 5.71326,-46.53619 -8.08601,-59.80412 -7.23935,-6.95974 -16.16507,-12.20699 -27.76493,-11.94916 z M 127.79147,285.68522 c 12.62422,0 22.86523,10.24014 22.86523,22.86524 0,12.62422 -10.24101,22.86523 -22.86523,22.86523 -12.62422,0 -22.89224,-10.24101 -22.89224,-22.86523 -8.7e-4,-12.6251 10.26715,-22.86524 22.89224,-22.86524 z" id="path1933-64"/><path style="fill:#d40000;stroke:#d40000;stroke-width:0.8710565" id="path1979-50" d="m 249.94496,7.572573 c -59.6935,0 -114.34793,21.731117 -156.545398,57.707491 -1.107113,0.944225 -2.203773,1.894548 -3.293464,2.858807 -0.438142,0.38675 -0.871928,0.780467 -1.306585,1.1707 -0.932902,0.836215 -1.857093,1.680268 -2.776057,2.53129 -0.245638,0.227346 -0.490405,0.45295 -0.735172,0.680296 -1.087949,1.01478 -2.169801,2.040885 -3.239459,3.0757 -1.226447,1.186379 -2.446797,2.381468 -3.647984,3.593108 -1.17854,1.189863 -2.357079,2.379726 -3.511229,3.593108 -1.196832,1.259547 -2.368402,2.553066 -3.538231,3.837875 -0.134143,0.147208 -0.275254,0.288319 -0.408526,0.435528 -1.011296,1.115823 -2.002559,2.240357 -2.993821,3.375344 -1.081852,1.238642 -2.12712,2.494705 -3.184582,3.755995 -0.04094,0.04965 -0.09495,0.08711 -0.135885,0.135885 -35.274303,42.14084 -56.5367911,96.45383 -56.5367911,155.72835 0,133.84218 108.3428841,242.45247 241.8549341,242.45247 59.82503,0 114.57702,-21.84 156.81716,-57.95139 l 0.027,0.0253 c 0.33622,-0.28745 0.67158,-0.58012 1.00781,-0.87105 0.13501,-0.1176 0.27177,-0.23432 0.40852,-0.35365 0.81793,-0.71079 1.6402,-1.42767 2.44942,-2.15064 0.63848,-0.57054 1.27174,-1.13673 1.90587,-1.71511 0.17943,-0.16376 0.36323,-0.32404 0.54267,-0.49041 0.84405,-0.77175 1.67155,-1.55483 2.50428,-2.33965 0.74824,-0.70469 1.49386,-1.4085 2.23252,-2.12277 0.10191,-0.0976 0.19947,-0.20121 0.30051,-0.30051 0.9451,-0.9181 1.87103,-1.84142 2.80306,-2.77519 0.27177,-0.27351 0.54703,-0.54267 0.81618,-0.81618 1.09144,-1.10537 2.16981,-2.22468 3.24033,-3.34747 0.1054,-0.11324 0.22038,-0.21689 0.32578,-0.32839 1.22645,-1.29265 2.44941,-2.59749 3.64624,-3.91975 1.09928,-1.21077 2.16632,-2.44157 3.24033,-3.67412 0.19947,-0.22822 0.40069,-0.45121 0.59929,-0.68204 0.91809,-1.06094 1.82225,-2.13321 2.72031,-3.21071 35.12883,-42.09206 56.29289,-96.29703 56.29289,-155.42957 0,-133.84132 -108.37074,-242.478607 -241.88193,-242.478607 l 0,0 z m 0,54.059507 c 103.74719,0 187.95831,84.41495 187.95831,188.42084 0,44.28886 -15.25742,85.03253 -40.80464,117.2111 L 131.86281,103.52467 c 32.27612,-26.1857 73.35428,-41.89259 118.08215,-41.89259 z m -146.88189,70.91009 265.29157,263.79336 c -32.33013,26.33987 -73.53546,42.13648 -118.40968,42.13648 -103.74718,0 -187.930434,-84.41408 -187.930434,-188.41909 0,-44.42824 15.361952,-85.28514 41.048544,-117.51075 z"/>
</svg>