<?xml version="1.0" encoding="UTF-8" standalone="no"?>
<svg xmlns:dc="http://purl.org/dc/elements/1.1/" xmlns:cc="http://creativecommons.org/ns#" xmlns:rdf="http://www.w3.org/1999/02/22-rdf-syntax-ns#" xmlns:svg="http://www.w3.org/2000/svg" xmlns="http://www.w3.org/2000/svg" xmlns:sodipodi="http://sodipodi.sourceforge.net/DTD/sodipodi-0.dtd" xmlns:inkscape="http://www.inkscape.org/namespaces/inkscape" enable-background="new 0 0 499.895 500.093" id="svg6909" version="1.1" viewBox="0 0 499.895 500.093" xml:space="preserve"><metadata id="metadata25291"><rdf:RDF><cc:Work rdf:about=""><dc:format>image/svg+xml</dc:format><dc:type rdf:resource="http://purl.org/dc/dcmitype/StillImage"/></cc:Work></rdf:RDF></metadata><defs id="defs25289"> </defs><circle cx="287" cy="287" id="circle12991-1" r="285" d="M 572,287 C 572,444.40115 444.40115,572 287,572 129.59885,572 2,444.40115 2,287 2,129.59885 129.59885,2 287,2 444.40115,2 572,129.59885 572,287 z" style="fill:#ffffff;stroke:#000000" transform="matrix(0.87565676,0,0,0.87565676,-1.3550484,-1.2749436)"/><path style="stroke:#000000;stroke-width:0.8710565" id="path1933-6" d="m 236.35062,135.03508 c -1.08708,-0.007 -2.21161,-0.002 -3.34834,0.027 -40.6252,1.02523 -61.20217,47.15812 -62.74307,61.02796 -2.1637,19.47334 5.13401,48.15026 30.73175,84.38359 10.80371,15.29314 71.40746,67.94502 89.58293,72.70621 19.04565,-4.76032 79.6494,-57.41307 90.45399,-72.70621 25.59773,-36.23246 32.86931,-64.90938 30.70474,-84.38359 -1.5409,-13.87071 -22.11874,-60.0036 -62.74394,-61.02796 -1.13673,-0.0296 -2.23426,-0.034 -3.32047,-0.027 -33.69159,0.20905 -43.74184,17.19204 -54.22327,25.99581 -11.3516,-8.80377 -21.4036,-25.78589 -55.09432,-25.99581 z"/><path id="path1938-0" d="m 144.9829,353.49952 c 0,8.79506 -7.13047,15.92553 -15.9264,15.92553 -8.79506,0 -15.92553,-7.13047 -15.92553,-15.92553 0,-8.79593 7.13047,-15.92552 15.92553,-15.92552 8.79593,0 15.9264,7.12959 15.9264,15.92552 z"/><path style="fill:none;stroke:#000000;stroke-width:6.17282867" id="path2827" d="M 128.61574,345.46664 V 195.8052 c 2.1881,-15.31666 21.88007,-14.00397 24.06817,0 v 52.51251 c 0.87541,17.06661 4.37618,17.06661 17.94202,17.94202 h 26.69352"/><path style="fill:#d40000;stroke:#d40000;stroke-width:0.8710565" id="path1979-16" d="m 249.94494,7.572573 c -59.6935,0 -114.34794,21.731117 -156.545399,57.707491 -1.107113,0.944225 -2.203773,1.894548 -3.293464,2.858807 -0.438142,0.38675 -0.871928,0.780467 -1.306585,1.1707 -0.932902,0.836215 -1.857093,1.680268 -2.776057,2.53129 -0.245638,0.227346 -0.490405,0.45295 -0.735172,0.680296 -1.087949,1.01478 -2.169801,2.040885 -3.239459,3.0757 -1.226447,1.186379 -2.446797,2.381468 -3.647984,3.593108 -1.17854,1.189863 -2.357079,2.379726 -3.511229,3.593108 -1.196832,1.259547 -2.368402,2.553066 -3.538231,3.837875 -0.134143,0.147208 -0.275254,0.288319 -0.408526,0.435528 -1.011296,1.115823 -2.00343,2.240357 -2.994692,3.375344 -1.081852,1.238642 -2.12712,2.494705 -3.184582,3.755995 -0.04094,0.04965 -0.09495,0.08711 -0.135885,0.135885 -35.274303,42.14084 -56.5367915,96.45383 -56.5367915,155.72835 0,133.84218 108.3428765,242.45247 241.8549265,242.45247 59.82503,0 114.57703,-21.84 156.81717,-57.95139 l 0.027,0.0253 c 0.33623,-0.28745 0.67158,-0.58012 1.00781,-0.87105 0.13502,-0.1176 0.27177,-0.23432 0.40853,-0.35365 0.81792,-0.71079 1.6402,-1.42767 2.44941,-2.15064 0.63848,-0.57054 1.27174,-1.13673 1.90587,-1.71511 0.17944,-0.16376 0.36323,-0.32404 0.54267,-0.49041 0.84405,-0.77175 1.67156,-1.55483 2.50429,-2.33965 0.74823,-0.70469 1.49386,-1.4085 2.23251,-2.12277 0.10192,-0.0976 0.19948,-0.20121 0.30052,-0.30051 0.94509,-0.9181 1.87103,-1.84142 2.80306,-2.77519 0.27177,-0.27351 0.54702,-0.54267 0.81618,-0.81618 1.09143,-1.10537 2.1698,-2.22468 3.24033,-3.34747 0.1054,-0.11324 0.22037,-0.21689 0.32577,-0.32839 1.22645,-1.29265 2.44941,-2.59749 3.64625,-3.91975 1.09927,-1.21077 2.16631,-2.44157 3.24033,-3.67412 0.19947,-0.22822 0.40068,-0.45121 0.59928,-0.68204 0.9181,-1.06094 1.82225,-2.13321 2.72031,-3.21071 35.12884,-42.0921 56.2929,-96.29707 56.2929,-155.42961 C 491.82687,116.20986 383.45612,7.572573 249.94494,7.572573 l 0,0 z m 0,54.059507 c 103.74718,0 187.95831,84.41495 187.95831,188.42084 0,44.28886 -15.25743,85.03253 -40.80464,117.2111 L 131.86278,103.52467 c 32.27613,-26.1857 73.35428,-41.89259 118.08216,-41.89259 z m -146.8819,70.91009 265.29157,263.79336 c -32.33013,26.33987 -73.53546,42.13648 -118.40967,42.13648 -103.74718,0 -187.930435,-84.41408 -187.930435,-188.41909 0,-44.42824 15.361952,-85.28514 41.048535,-117.51075 z"/>
</svg>