<?xml version="1.0" encoding="UTF-8" standalone="no"?>
<svg xmlns:dc="http://purl.org/dc/elements/1.1/" xmlns:cc="http://creativecommons.org/ns#" xmlns:rdf="http://www.w3.org/1999/02/22-rdf-syntax-ns#" xmlns:svg="http://www.w3.org/2000/svg" xmlns="http://www.w3.org/2000/svg" xmlns:sodipodi="http://sodipodi.sourceforge.net/DTD/sodipodi-0.dtd" xmlns:inkscape="http://www.inkscape.org/namespaces/inkscape" enable-background="new 0 0 500 500" id="svg6742" version="1.1" viewBox="0 0 500 500" xml:space="preserve"><metadata id="metadata25348"><rdf:RDF><cc:Work rdf:about=""><dc:format>image/svg+xml</dc:format><dc:type rdf:resource="http://purl.org/dc/dcmitype/StillImage"/></cc:Work></rdf:RDF></metadata><defs id="defs25346"> </defs><circle cx="287" cy="287" id="circle12991-1" r="285" d="M 572,287 C 572,444.40115 444.40115,572 287,572 129.59885,572 2,444.40115 2,287 2,129.59885 129.59885,2 287,2 444.40115,2 572,129.59885 572,287 z" style="fill:#ffffff;stroke:#000000" transform="matrix(0.87565674,0,0,0.87565674,-1.3528655,-1.2749379)"/><path style="stroke:#000000;stroke-width:0.87101769" id="path1976-8" d="m 270.49474,133.1914 -4.11691,1.07211 c -6.13367,9.16088 -16.56121,15.20446 -28.40446,15.20446 -5.54119,0 -10.79082,-1.33566 -15.4207,-3.67948 l -3.55718,0.92552 -22.87574,50.97392 -43.68015,30.70131 13.52089,19.76111 51.47586,-34.33166 12.4973,-27.04678 19.24528,70.75842 -47.33478,46.80868 -42.12101,75.94899 24.94627,14.05828 41.09744,-73.36658 49.94166,-47.85427 -0.53634,64.52148 27.04098,74.38878 26.01975,-9.38076 -22.8773,-66.05674 -0.53478,-74.90028 -23.92348,-90.52032 20.80597,12.47546 19.75667,68.66332 26.01741,-6.74922 -21.85138,-81.16373 -55.13127,-31.21202 z"/><path style="stroke:#000000;stroke-width:0.92738587;stroke-linecap:square" id="path1978-4" d="m 265.23809,115.27431 c 0,15.06723 -12.21198,27.28226 -27.27719,27.28226 -15.06521,0 -27.2772,-12.21503 -27.2772,-27.28226 0,-15.068 12.21276,-27.283031 27.2772,-27.283031 15.06521,0 27.27719,12.215031 27.27719,27.283031 z"/><path style="fill:#d40000;stroke:#d40000;stroke-width:0.8710565" id="path1979-13" d="m 249.94494,7.572573 c -59.6935,0 -114.34794,21.731117 -156.545397,57.707491 -1.107113,0.944225 -2.203773,1.894548 -3.293464,2.858807 -0.438142,0.38675 -0.871928,0.780467 -1.306585,1.1707 -0.932902,0.836215 -1.857093,1.680268 -2.776057,2.53129 -0.245638,0.227346 -0.490405,0.45295 -0.735172,0.680296 -1.087949,1.01478 -2.169801,2.040885 -3.238588,3.0757 -1.226447,1.186379 -2.446797,2.381468 -3.647984,3.593108 -1.17854,1.189863 -2.357079,2.379726 -3.511229,3.593108 -1.196831,1.259547 -2.368402,2.553066 -3.538231,3.837875 -0.134143,0.147208 -0.275254,0.288319 -0.408526,0.435528 -1.011296,1.115823 -2.002559,2.240357 -2.993821,3.375344 -1.081852,1.238642 -2.12712,2.494705 -3.184582,3.755995 -0.04094,0.04965 -0.09494,0.08711 -0.135885,0.135885 -35.274303,42.14084 -56.5367913,96.45383 -56.5367913,155.72835 0,133.84218 108.3428723,242.45247 241.8549223,242.45247 59.82503,0 114.57703,-21.84 156.81717,-57.95139 l 0.027,0.0253 c 0.33623,-0.28745 0.67159,-0.58012 1.00782,-0.87105 0.13501,-0.1176 0.27177,-0.23432 0.40852,-0.35365 0.81879,-0.71079 1.6402,-1.42767 2.44941,-2.15064 0.63849,-0.57054 1.27175,-1.13673 1.90413,-1.71511 0.18205,-0.16376 0.36497,-0.32404 0.54528,-0.49041 0.84406,-0.77175 1.67156,-1.55483 2.50429,-2.33965 0.74824,-0.70469 1.49386,-1.4085 2.23252,-2.12277 0.10191,-0.0976 0.19947,-0.20121 0.30051,-0.30051 0.9451,-0.9181 1.87103,-1.84142 2.80306,-2.77519 0.27177,-0.27351 0.54703,-0.54267 0.81618,-0.81618 1.09144,-1.10537 2.1698,-2.22468 3.24033,-3.34747 0.1054,-0.11324 0.22038,-0.21689 0.32578,-0.32839 1.22645,-1.29265 2.44941,-2.59749 3.64624,-3.91975 1.09927,-1.21077 2.16632,-2.44157 3.24033,-3.67412 0.19947,-0.22822 0.40069,-0.45121 0.59929,-0.68204 0.91809,-1.06094 1.82225,-2.13321 2.72031,-3.21071 35.12883,-42.09206 56.29289,-96.29703 56.29289,-155.42957 C 491.82687,116.20986 383.45612,7.572573 249.94494,7.572573 l 0,0 z m 0,54.059507 c 103.74718,0 187.95831,84.41495 187.95831,188.42084 0,44.28886 -15.25743,85.03253 -40.80464,117.2111 L 131.86278,103.52467 c 32.27613,-26.1857 73.35428,-41.89259 118.08216,-41.89259 z m -146.8819,70.91009 265.29158,263.79336 c -32.33014,26.33987 -73.53546,42.13648 -118.40968,42.13648 -103.74718,0 -187.930433,-84.41408 -187.930433,-188.41909 0,-44.42824 15.361952,-85.28514 41.048533,-117.51075 z"/>
</svg>