<?xml version="1.0" encoding="UTF-8" standalone="no"?>
<svg xmlns:dc="http://purl.org/dc/elements/1.1/" xmlns:cc="http://creativecommons.org/ns#" xmlns:rdf="http://www.w3.org/1999/02/22-rdf-syntax-ns#" xmlns:svg="http://www.w3.org/2000/svg" xmlns="http://www.w3.org/2000/svg" xmlns:sodipodi="http://sodipodi.sourceforge.net/DTD/sodipodi-0.dtd" xmlns:inkscape="http://www.inkscape.org/namespaces/inkscape" enable-background="new 0 0 499.895 500.093" id="svg6962" version="1.1" viewBox="0 0 499.895 500.093" xml:space="preserve"><metadata id="metadata25714"><rdf:RDF><cc:Work rdf:about=""><dc:format>image/svg+xml</dc:format><dc:type rdf:resource="http://purl.org/dc/dcmitype/StillImage"/></cc:Work></rdf:RDF></metadata><defs id="defs25712"> </defs><circle cx="287" cy="287" id="circle12991-1" r="285" d="M 572,287 C 572,444.40115 444.40115,572 287,572 129.59885,572 2,444.40115 2,287 2,129.59885 129.59885,2 287,2 444.40115,2 572,129.59885 572,287 z" style="fill:#ffffff;stroke:#000000" transform="matrix(0.87565676,0,0,0.87565676,-1.3541778,-1.2745086)"/><path id="rect1933" d="m 104.12382,153.36526 v 13.9099 h 59.3956 v -12.13991 h 20.0883 v 12.13991 h 132.72723 v -12.13991 h 20.06217 v 12.13991 h 59.39473 v -13.9099 H 104.12382 z"/><path id="rect2822" d="m 104.12382,198.22467 v 13.9099 h 59.3956 v -13.9099 h -59.3956 z m 79.4839,0 v 13.9099 h 132.72723 v -13.9099 H 183.60772 z m 152.7894,0 v 13.9099 h 59.39473 v -13.9099 h -59.39473 z"/><path id="rect2824" d="m 104.12382,243.08408 v 13.9099 h 59.3956 v -13.9099 h -59.3956 z m 79.4839,0 v 13.9099 h 132.72723 v -13.9099 H 183.60772 z m 152.7894,0 v 13.9099 h 59.39473 v -13.9099 h -59.39473 z"/><path id="rect2826" d="m 104.12382,287.94436 v 13.90903 h 59.3956 v -13.90903 h -59.3956 z m 79.4839,0 v 13.90903 H 316.33495 V 287.94436 H 183.60772 z m 152.7894,0 v 13.90903 h 59.39473 v -13.90903 h -59.39473 z"/><path id="rect2828" d="m 104.12382,332.80377 v 13.90903 h 291.66803 v -13.90903 h -59.39473 v 12.13991 H 316.33495 V 332.80377 H 183.60859 v 12.13991 h -20.0883 v -12.13991 h -59.39647 z"/><path id="rect2830" d="m 148.11217,139.701 v 220.67693 h 50.9028 V 139.701 h -50.9028 z m 15.43425,15.43425 h 20.0613 v 189.80843 h -20.0613 V 155.13525 z"/><path id="path2835" d="m 300.90331,139.701 v 220.67693 h 50.9028 V 139.701 h -50.9028 z m 15.43513,15.43425 h 20.06043 V 344.94368 H 316.33844 V 155.13525 z"/><rect y="158.21791" x="104.12643" width="13.888995" id="rect2848" height="183.6431"/><rect y="158.21791" x="381.90286" width="13.890738" id="rect2850" height="183.6431"/><path style="fill:#d40000;stroke:#d40000;stroke-width:0.8710565" id="path1979-00" d="m 249.94494,7.572573 c -59.6935,0 -114.34794,21.731117 -156.545399,57.707491 -1.107113,0.944225 -2.203773,1.894548 -3.293464,2.858807 -0.438142,0.38675 -0.871928,0.780467 -1.306585,1.1707 -0.932902,0.837086 -1.857093,1.680268 -2.776057,2.53129 -0.245638,0.227346 -0.490405,0.45295 -0.735172,0.680296 -1.087949,1.01478 -2.169801,2.040885 -3.239459,3.076571 -1.226447,1.186379 -2.446797,2.380597 -3.647984,3.593108 -1.17854,1.189863 -2.357079,2.379726 -3.511229,3.593108 -1.196832,1.259548 -2.368402,2.553066 -3.538231,3.837875 -0.134143,0.147208 -0.275254,0.288319 -0.408526,0.435528 -1.011296,1.115823 -2.002559,2.240357 -2.993821,3.375344 -1.081852,1.238642 -2.12712,2.495577 -3.184582,3.755995 -0.04094,0.04965 -0.09495,0.08711 -0.135885,0.135885 C 29.354243,136.46541 8.0917546,190.7784 8.0917546,250.05292 c 0,133.84305 108.3428754,242.45247 241.8549254,242.45247 59.82503,0 114.57703,-21.84 156.81717,-57.95139 l 0.027,0.0253 c 0.33623,-0.28745 0.67159,-0.58012 1.00781,-0.86931 0.13502,-0.11934 0.27177,-0.23606 0.40853,-0.35539 0.81792,-0.71078 1.6402,-1.42766 2.44941,-2.15064 0.63848,-0.57054 1.27174,-1.13673 1.90587,-1.71511 0.17944,-0.16376 0.36323,-0.32403 0.54267,-0.49041 0.84405,-0.77175 1.67156,-1.55483 2.50429,-2.33965 0.74823,-0.70469 1.49386,-1.4085 2.23251,-2.12277 0.10192,-0.0976 0.19948,-0.20121 0.30052,-0.30051 0.9451,-0.9181 1.87103,-1.84142 2.80306,-2.77519 0.27177,-0.27351 0.54702,-0.54267 0.81618,-0.81618 1.09143,-1.10537 2.1698,-2.22468 3.24033,-3.34747 0.1054,-0.11149 0.22038,-0.21689 0.32577,-0.32839 1.22645,-1.29264 2.44941,-2.59749 3.64625,-3.91975 1.09927,-1.21077 2.16631,-2.44157 3.24033,-3.67412 0.19947,-0.22821 0.40068,-0.4512 0.59928,-0.68203 0.9181,-1.06095 1.82225,-2.13322 2.72031,-3.21072 35.12884,-42.09206 56.2929,-96.29703 56.2929,-155.42957 0,-133.84219 -108.37075,-242.479477 -241.88193,-242.479477 l 0,0 z m 0,54.059507 c 103.74718,0 187.95831,84.41582 187.95831,188.42084 0,44.28886 -15.25743,85.03253 -40.80464,117.2111 L 131.86278,103.52467 C 164.13891,77.339841 205.21706,61.63208 249.94494,61.63208 z m -146.8819,70.91009 265.29157,263.79336 c -32.33013,26.33987 -73.53546,42.13648 -118.40967,42.13648 -103.74718,0 -187.930435,-84.41408 -187.930435,-188.41909 0,-44.42911 15.361952,-85.28514 41.048535,-117.51075 z"/>
</svg>