<?xml version="1.0" encoding="UTF-8" standalone="no"?>
<svg xmlns:dc="http://purl.org/dc/elements/1.1/" xmlns:cc="http://creativecommons.org/ns#" xmlns:rdf="http://www.w3.org/1999/02/22-rdf-syntax-ns#" xmlns:svg="http://www.w3.org/2000/svg" xmlns="http://www.w3.org/2000/svg" xmlns:sodipodi="http://sodipodi.sourceforge.net/DTD/sodipodi-0.dtd" xmlns:inkscape="http://www.inkscape.org/namespaces/inkscape" enable-background="new 0 0 500 500" id="svg6788" version="1.1" viewBox="0 0 500 500" xml:space="preserve"><metadata id="metadata25542"><rdf:RDF><cc:Work rdf:about=""><dc:format>image/svg+xml</dc:format><dc:type rdf:resource="http://purl.org/dc/dcmitype/StillImage"/></cc:Work></rdf:RDF></metadata><defs id="defs25540"> </defs><circle cx="287" cy="287" id="circle12991-1" r="285" d="M 572,287 C 572,444.40115 444.40115,572 287,572 129.59885,572 2,444.40115 2,287 2,129.59885 129.59885,2 287,2 444.40115,2 572,129.59885 572,287 z" style="fill:#ffffff;stroke:#000000" transform="matrix(0.87565674,0,0,0.87565674,-1.3546081,-1.2740979)"/><path d="m 201.23615,349.07616 c -0.65503,-12.88902 0.20296,-14.39072 -14.11285,-19.54128 -23.57515,-8.47973 -16.74084,-35.40931 -11.57983,-45.23483 11.15823,-21.24245 21.82084,-25.00193 52.75815,-41.68963 31.28922,-16.87759 40.85777,-47.47432 37.34742,-68.31958 -3.4311,-20.27035 -31.68381,-45.22873 -72.37434,-40.16789 -63.90593,7.93358 -89.89913,49.07096 -91.19265,52.83393 -0.60364,1.75605 -6.513758,9.77064 -6.513758,9.77064 -0.218635,-23.81295 44.683458,-55.56644 76.717428,-65.4991 41.7297,-12.93954 74.2506,-7.45624 93.36245,25.3312 15.9412,27.34594 0.66635,60.11422 -9.0468,69.11833 -23.58472,21.86787 -31.77614,23.16139 -56.45142,41.61559 -23.33909,17.4551 -23.06994,40.23323 -21.71283,44.87335 2.88407,9.85513 9.48493,11.71832 17.00825,14.83583 9.54155,3.95547 9.40915,7.23848 9.40915,7.23848 0,0 -1.03394,12.8054 -3.61837,14.83496 l 0,0 z" id="path1935"/><path d="m 96.27559,195.79461 c 4.17323,-6.5695 -3.340502,-3.1419 7.98933,-10.15564 11.32983,-7.01288 23.29553,-14.34369 36.68629,-17.62322 21.95062,-5.37703 53.59087,12.94826 53.59087,12.94826 l 7.49109,43.3638 c 0,0 -20.65275,18.33051 -28.73528,26.65259 -1.0653,1.09579 -7.55555,5.9345 -10.95876,14.89419 -3.40322,8.95882 -3.71942,22.04034 4.14797,27.66476 13.09633,9.36385 29.52968,13.64422 35.5121,19.84266 18.60751,19.29303 -0.71949,35.2473 -0.71949,35.2473 0,0 6.95451,-15.26788 3.33179,-23.799 -3.07222,-7.23761 -11.17653,-9.57553 -23.73803,-15.82536 -14.60762,-7.26983 -24.23367,-7.39265 -28.61073,-22.27901 -3.50513,-11.92215 -3.89536,-23.1971 9.9074,-35.98595 21.3705,-19.80086 25.65174,-21.00379 35.33528,-29.30496 13.57541,-11.63731 -21.30866,-40.83077 -21.30866,-40.83077 0,0 -11.79497,-11.01102 -32.01045,-7.55293 -22.06735,3.77516 -40.10867,15.67553 -47.91072,22.74328 l 0,0 z" id="path1937"/><path d="m 367.37014,155.77393 c -5.42755,0.12107 -11.02932,1.65239 -13.96304,5.39009 -40.31423,51.39756 -126.03228,162.45987 -155.64733,199.49894 0.54702,-0.23519 1.72991,0.0584 2.3954,-0.10801 1.39108,-0.34756 2.53478,-0.99736 3.94676,-1.27959 1.11931,-0.22386 2.32485,-0.30138 3.40322,-0.57141 1.26041,-0.31532 2.66282,-0.19512 3.94675,-0.40852 1.23081,-0.2047 2.91891,-0.10279 4.11052,0.13588 1.13673,0.22735 2.32746,0.14547 3.37534,0.40853 1.24997,0.3127 2.41109,0.61845 3.67499,0.87105 1.01652,0.20296 1.87538,0.48954 2.96682,0.70817 1.05485,0.2108 2.0435,0.16376 2.99382,0.54441 0.80224,0.32142 1.58445,0.30139 2.3954,0.70817 1.32488,0.662 2.83529,0.85973 3.94763,1.41634 0.75434,0.37717 1.31965,0.74736 1.98688,1.41372 0.68988,0.69075 1.40066,0.78831 1.851,1.68811 0.331,0.662 0.91635,1.48689 1.11582,2.28652 0.13937,0.55835 1.09666,1.3693 1.55135,1.824 0.5296,0.5296 0.85973,1.55483 1.1437,2.12276 0.55486,1.1106 1.1437,2.42241 1.82399,3.10357 0.74824,0.74824 1.14021,1.54874 1.851,2.25865 0.49824,0.49825 0.93377,1.11844 1.27958,1.57923 0.31968,0.42595 0.9059,0.76914 1.25171,1.11495 0.5627,0.56358 0.84405,1.04266 0.84405,1.85187 0,0.94945 -0.56967,1.11756 -1.11582,0.98081 -0.74214,-0.18554 -1.44247,-1.57923 -1.98688,-2.12277 -0.48605,-0.48605 -1.27349,-1.56877 -1.68724,-2.39627 -0.35104,-0.7012 -1.51477,-1.5139 -1.98688,-1.98601 -0.63674,-0.63674 -1.1768,-1.44247 -1.68724,-2.12277 -0.4904,-0.65416 -1.04526,-1.31268 -1.55135,-1.98862 -0.50521,-0.6742 -0.70033,-1.6463 -1.14282,-2.53129 -0.45034,-0.90067 -1.05398,-1.89455 -1.55136,-2.55829 -0.385,-0.51393 -0.95729,-0.66026 -1.68723,-0.84406 -0.83709,-0.20905 -1.69072,-0.20469 -2.42328,-0.57141 -0.76653,-0.38413 -1.27349,-0.56531 -1.82399,-1.11582 -0.60103,-0.6019 -1.1498,-0.635 -1.98688,-0.84406 -0.72037,-0.17943 -1.55135,-0.63325 -2.39541,-0.84405 -1.03133,-0.25783 -1.87712,-0.90416 -2.83093,-1.1437 -0.99997,-0.24999 -1.60187,-0.43465 -2.69505,-0.43465 -1.15415,0 -2.33356,-0.4094 -3.53823,-0.4094 -1.03743,0 -2.06615,0 -3.1027,0 -1.13151,0 -2.24472,0 -3.37535,0 -1.66285,0 -3.27169,-0.0366 -4.81781,0.27264 -0.93029,0.18554 -1.67243,0.35365 -2.55917,0.7073 -1.32749,0.53134 -2.70985,0.8005 -4.08264,1.14457 -0.98516,0.24651 -1.61145,0.50434 -2.42241,0.70729 -0.65155,0.16202 -1.1254,0.49389 -1.55135,0.7073 -0.66026,0.331 -1.40937,0.27526 -1.52435,0.27351 -0.003,0.004 -0.0235,-0.005 -0.027,0 -0.59667,0.73605 -1.33184,1.67766 -1.85099,2.31266 -4.13752,5.05822 -8.87694,11.99009 -5.14533,24.14568 3.89972,12.69827 15.98388,21.44454 22.15793,23.76242 7.15224,2.68547 25.55767,3.62708 28.14645,1.98863 9.62604,-6.0974 9.15567,-7.71495 15.43425,-19.78866 43.45788,-52.24946 113.43158,-146.15805 153.2798,-197.26816 1.15851,-1.4869 4.24205,-12.98484 0,-19.78866 -7.16792,-11.49708 -17.94724,-21.30082 -31.68555,-24.17182 -2.13757,-0.44947 -4.55998,-0.68465 -7.02855,-0.62977 l 0,0 z m 2.36927,7.02332 c 5.08436,-0.17943 10.59553,2.05657 16.19556,5.98852 9.95704,6.99022 17.69115,10.31069 12.71307,27.11163 L 281.7087,349.58486 C 268.64112,330.60628 257.30954,321.08128 240.19764,320.45847 L 358.8242,167.94171 c 3.26647,-3.40321 6.95975,-5.00596 10.91521,-5.14446 l 0,0 z M 237.6106,325.90258 c 0.51654,0.0174 1.55832,0.44162 1.68724,0.57141 0.69336,0.69336 1.2909,0.23693 1.55135,1.27958 0.27786,1.11234 -1.37976,0.966 -2.09576,1.25258 -0.70295,0.28135 -2.08096,0.29877 -2.83094,0.29877 -0.87802,0 -1.25083,-0.48517 -1.41546,-1.14369 -0.26916,-1.0775 0.25521,-1.23342 0.97993,-1.41547 0.89371,-0.22386 0.99301,-0.19337 1.851,-0.70817 0,-0.10801 0.10017,-0.14111 0.27264,-0.13501 z m -7.07733,0.38065 c 0.2465,-8.7e-4 0.55486,0.11846 0.84405,0.19076 -0.56532,-0.14198 0.003,1.27523 -0.40853,1.68724 -0.85363,0.85363 -0.84405,-1.06705 -0.84405,-1.41547 0,-0.35104 0.16289,-0.46253 0.40853,-0.46253 z m 20.44195,2.12276 c 0.74824,-0.0549 1.00694,0.43553 1.47034,0.89806 0.51915,0.52089 0.7073,1.47035 0.87106,2.12277 0.2047,0.82315 -0.12108,1.76476 -0.43553,2.3954 -0.26741,0.53396 -1.32052,0.71078 -1.85187,0.84406 -0.70991,0.17769 -1.48166,0.13588 -2.25952,0.13588 -0.80137,0 -1.59403,0 -2.3954,0 -0.68639,0 -0.7073,-1.04352 -0.7073,-1.55048 0,-1.02872 0.0636,-1.02349 0.97994,-1.25171 0.63848,-0.16027 1.00433,-0.42856 1.57835,-0.57228 0.53745,-0.13502 0.95729,-0.60364 1.38847,-1.14283 0.007,-0.002 0.0601,-1.58793 1.00694,-1.82399 0.12892,-0.0322 0.24825,-0.047 0.35452,-0.0549 z m -22.12919,1.27959 c 0.66897,-0.0375 1.22383,0.35364 1.55135,0.59928 0.42943,0.32229 0.57141,0.92942 0.57141,1.55048 0,1.05311 -0.12543,1.11147 -1.00694,1.55135 -0.54876,0.27439 -1.26477,0.53396 -1.95987,0.70817 -0.93639,0.23432 -1.04876,0.8066 -1.98688,0.57142 -0.78047,-0.19425 -0.70643,-1.43638 -0.84406,-2.12277 0.38588,-0.77175 0.52525,-1.35362 1.55135,-2.12363 0.49999,-0.37456 1.2491,-0.55661 1.851,-0.7073 0.10017,-0.0253 0.17682,-0.0209 0.27264,-0.027 l 0,0 z m 10.72445,1.00781 c 0.4303,-0.002 0.8606,0.0584 1.27958,0.16201 0.17944,-0.0435 1.57835,1.48428 1.57835,2.25952 0,1.06705 -1.4416,1.27959 -2.28652,1.27959 -1.08098,0 -2.35621,-0.4695 -3.1027,-0.84406 -0.55051,-0.27525 -0.38937,-0.98603 -0.57142,-1.71511 -0.22821,-0.91199 1.22819,-0.82402 1.851,-0.98081 0.40591,-0.10017 0.8214,-0.16114 1.25171,-0.16114 z m 1.1707,5.38835 c 0.47734,-0.0244 0.9991,0 1.11582,0 0.27525,0 0.47211,0.29529 0.70817,0.43553 0.19076,-0.047 0.21428,1.8118 0.13588,2.12277 -0.17856,0.71688 -1.98252,-0.29529 -1.98688,-0.29878 -0.74736,-0.74736 -0.57228,-0.87279 -0.84405,-1.95987 -0.0462,-0.18293 0.39372,-0.27352 0.87106,-0.29965 z m -6.66968,0.43553 c 0.27699,0.0706 1.41372,1.32227 1.6881,1.68724 0.32926,0.43988 -0.10539,1.78915 -0.27264,2.12363 -0.35016,0.70033 -0.71078,0.85799 -1.27958,1.1437 -0.60538,0.30313 -1.5949,-0.18553 -1.82399,-0.29964 -0.26393,-0.13153 -0.2317,-1.85187 -0.29964,-2.12364 -0.20122,-0.80485 -0.0819,-1.33271 0.16288,-1.82312 0.16463,-0.32665 1.48341,-0.5357 1.82487,-0.70817 z m -10.45268,1.11757 c -0.0331,0.0331 1.35101,-0.16986 2.83093,0.57054 0.61061,0.30661 1.0113,0.30661 1.41547,0.84405 0.5418,0.72298 0.1986,1.19074 -0.16289,1.5531 -0.37194,0.37107 -1.56442,-0.48344 -1.68811,-0.54529 -0.57576,-0.28744 -1.11146,-0.25783 -1.82399,-0.43552 -0.54789,-0.13676 -1.4233,-0.16463 -1.85099,-0.27177 -0.90416,-0.22648 -0.63587,-1.01478 -0.43553,-1.41634 0.005,-0.009 1.69943,-0.29703 1.71511,-0.29877 z m 17.96641,2.50428 c 0.58796,0.0157 1.19945,0.2047 1.68724,0.32578 0.81531,0.20296 1.05223,0.662 1.95987,0.43553 0.1054,0 0.45382,2.2421 0.57142,2.83093 0.19598,0.98168 -0.47734,0.95642 -1.11583,1.11582 -0.77088,0.19251 -1.60622,0.13589 -2.42328,0.13589 -0.57489,0 -1.5618,-1.5618 -1.95987,-1.95988 -0.40504,-0.40417 -0.60974,-1.32313 -0.70817,-1.71511 -0.20383,-0.81444 0.78134,-0.95729 1.41547,-1.11495 0.1864,-0.0462 0.37629,-0.0601 0.57315,-0.054 z m -18.45594,2.85707 c 0.21602,0 0.3972,0.027 0.48953,0.027 0.76043,0 0.57141,0.75782 0.57141,1.55135 0,0.81705 -0.50173,1.04614 -1.00694,1.55136 -0.45121,0.4512 -0.82837,-0.0932 -1.11582,-0.57229 0.65416,-0.32664 -0.57142,-1.3902 -0.57142,-2.12276 0,-0.38153 0.9843,-0.43466 1.63324,-0.43466 l 0,0 z m 7.18621,1.33359 c 0.23344,-0.0331 0.5418,0.10975 0.78918,0.10975 0,-0.0165 2.20029,0.73256 2.69505,0.97907 0.93813,0.4695 1.15415,1.28916 0.97994,1.98688 -0.17247,0.69162 -1.65501,0.7073 -2.25952,0.7073 -0.70295,0 -1.36582,0.13675 -2.12364,0.13675 -0.75085,0 -1.22296,-0.67942 -1.55135,-1.00781 -0.42072,-0.41985 -0.27264,-1.12541 -0.27264,-1.82312 0,-0.23954 1.24212,-0.66984 1.55135,-0.97907 0.0601,-0.0584 0.11411,-0.0976 0.19163,-0.10975 z m 8.54681,1.38933 c 0.27786,-0.054 0.59145,1.38672 0.73517,1.95901 0.24041,0.96513 -0.0967,1.09404 -0.84405,1.28045 -0.74824,0.18641 -1.16199,0.10453 -1.57836,0 -0.44946,-0.11237 -0.27264,-1.75605 -0.27264,-2.12363 0,-0.66201 1.32226,-0.84754 1.851,-0.97907 0.0383,-0.0767 0.0697,-0.12892 0.10888,-0.13676 z m -25.06988,0.87106 c 0.52264,-0.0984 1.09405,0.16637 1.63323,0.38065 0.94074,0.37717 1.54264,1.11321 2.09576,1.85187 0.71863,0.95816 -0.75085,1.31442 -1.2517,1.41546 -1.00869,0.20209 -1.7726,0.40853 -2.83094,0.40853 -0.9207,0 -1.49212,-0.0888 -1.71511,-0.97994 -0.23257,-0.92855 0.0157,-1.14805 0.29965,-1.71511 0.28483,-0.57141 1.29003,-1.11757 1.98688,-1.11757 h -0.7073 c 0.16637,-0.12456 0.31532,-0.21079 0.48953,-0.24389 z m 6.83257,2.17764 c 0.34755,0.003 0.70033,0.0679 1.00694,0.19076 0.358,-0.71688 0.19425,1.61842 0,2.39541 -0.1986,0.79527 -1.02523,0.56618 -1.55135,0.43552 -0.31097,-0.0784 -0.79528,-1.3571 -0.84406,-1.55135 -0.22821,-0.91286 -0.37891,-0.88586 0.40853,-1.27958 0.28222,-0.14198 0.63239,-0.19599 0.97994,-0.19076 z m 10.15303,1.11495 c 0.2108,-0.0131 0.41201,-0.005 0.59842,0 0.24912,0.008 0.45817,0.0261 0.57141,0.0549 0.15505,-0.0775 1.90674,1.19944 2.25952,1.55135 0.62107,0.62106 1.00694,0.81357 1.00694,1.71511 0,0.62716 -1.65326,0.40853 -2.12276,0.40853 -0.89719,0 -1.42505,-0.39721 -2.12364,-0.57142 -0.42159,-0.1054 -0.75869,-0.91025 -0.84405,-1.25171 -0.20121,-0.80485 -0.94597,-0.46078 -0.7073,-1.41633 0.0758,-0.30313 0.72908,-0.44947 1.36146,-0.49041 z m -7.02245,2.23252 c 0.5357,0.0836 1.3693,0.93464 1.98688,1.08882 1.10711,0.27613 1.09317,0.39807 1.41546,1.68811 0.21428,0.85538 -0.28745,1.24909 -0.87105,1.68723 -0.52874,0.39633 -1.89978,0.13589 -2.53129,0.13589 -0.99736,0 -1.60972,-0.63413 -1.98688,-1.38759 -0.3885,-0.77873 -0.32404,-1.33969 0,-1.98863 0.26131,-0.5235 1.03394,-0.61845 1.55135,-1.00694 0.0949,-0.18989 0.25696,-0.24389 0.43553,-0.21689 z m 10.34379,3.94763 c 0.62803,0.0409 1.30484,0.78482 1.52435,1.2247 0.2979,0.59755 0.25783,1.22819 0.13588,1.71511 -0.11062,0.44163 -2.12015,0.0349 -2.25952,0 -0.8876,-0.22212 -1.51302,-0.54876 -2.12363,-1.00694 -0.90851,-0.68204 0.24389,-1.38759 0.57141,-1.55135 0.42508,-0.21254 1.03656,-0.19163 1.60623,-0.16289 0.16724,-0.14633 0.35365,-0.2317 0.54528,-0.21863 z m -0.54441,0.21776 c -0.0157,0.0139 -0.0392,0.0113 -0.054,0.0261 h 0.70729 c -0.1925,0 -0.42594,-0.0157 -0.65329,-0.0261 z M 197.488,360.9896 c -0.53657,0.67072 -0.9451,1.1498 -1.44247,1.76912 0.14808,-0.0836 0.32839,-0.19163 0.43553,-0.24477 0.39371,-0.19686 0.77611,-0.9059 0.97993,-1.41634 -8.7e-4,-0.0444 0.0183,-0.0688 0.027,-0.10801 l 0,0 z m 53.24332,26.97575 c 0.25609,-0.0505 0.65068,0.15592 1.00694,0.29877 0.0932,-0.37281 1.19074,1.81877 1.27959,2.25952 0.13762,0.69249 0.26044,1.28743 0.43552,1.98688 0.18641,0.74476 0.27265,1.27175 0.27265,2.09577 0,0.72994 -0.73343,0.95206 -1.11583,1.14369 -0.70033,0.3493 -1.60448,-0.0793 -1.85099,-0.57228 -0.28484,-0.5688 -0.13676,-1.58358 -0.13676,-2.25865 0,-0.18815 0,-0.38414 0,-0.57141 0,-0.47734 0.13676,-1.27871 0.13676,-1.96075 0,-0.56009 -0.27351,-1.15067 -0.27351,-1.98601 0,-0.28919 0.0915,-0.40591 0.24563,-0.43553 z" id="path1939"/><path d="m 249.94494,7.572543 c -59.6935,0 -114.34794,21.731117 -156.545399,57.707491 -1.107113,0.944225 -2.203773,1.894548 -3.294336,2.857936 -0.43727,0.387621 -0.871927,0.780467 -1.306584,1.1707 -0.932902,0.837086 -1.856222,1.680268 -2.776057,2.532161 -0.244767,0.227346 -0.490405,0.452079 -0.735172,0.680296 -1.087949,1.01478 -2.169802,2.040885 -3.239459,3.0757 -1.226447,1.186379 -2.446797,2.381468 -3.647113,3.593108 -1.17854,1.188992 -2.35795,2.379726 -3.5121,3.593108 -1.196832,1.259547 -2.368403,2.553937 -3.538231,3.838746 -0.134143,0.147208 -0.275254,0.288319 -0.408526,0.435528 -1.011296,1.115823 -2.00343,2.240357 -2.993821,3.375344 -1.082723,1.239513 -2.127991,2.495577 -3.185453,3.755995 -0.04094,0.04965 -0.09495,0.08711 -0.135885,0.135885 C 29.352501,136.46538 8.0900125,190.77924 8.0900125,250.05289 c 0,133.84305 108.3428775,242.45334 241.8540575,242.45334 59.82416,0 114.57615,-21.84 156.81804,-57.95313 l 0.027,0.027 c 0.33623,-0.28745 0.67158,-0.58012 1.00607,-0.87105 0.13675,-0.1176 0.27351,-0.23606 0.40852,-0.35365 0.82054,-0.71078 1.6402,-1.42766 2.45116,-2.15064 0.63848,-0.57054 1.27174,-1.13847 1.90413,-1.71511 0.18205,-0.16376 0.36497,-0.32403 0.54528,-0.49041 0.84405,-0.77175 1.67156,-1.55657 2.50429,-2.33965 0.74823,-0.70469 1.49386,-1.4085 2.23251,-2.12277 0.10192,-0.0993 0.19948,-0.20121 0.29878,-0.30051 0.94771,-0.9181 1.87277,-1.84142 2.8048,-2.77519 0.27177,-0.27351 0.54702,-0.54267 0.81618,-0.81618 1.08969,-1.10537 2.1698,-2.22468 3.23859,-3.34921 0.10714,-0.1115 0.22299,-0.21515 0.32838,-0.32578 1.22471,-1.29526 2.44941,-2.59749 3.64625,-3.91975 1.09927,-1.21077 2.16631,-2.44157 3.24033,-3.67412 0.19685,-0.22821 0.40068,-0.45294 0.59754,-0.68203 0.91809,-1.06095 1.82225,-2.13322 2.72292,-3.21072 35.12884,-42.09206 56.2929,-96.29703 56.2929,-155.42957 C 491.82687,116.21071 383.45612,7.572543 249.94494,7.572543 l 0,0 z m 0,54.059507 c 103.74805,0 187.95831,84.41582 187.95831,188.42084 0,44.28886 -15.25743,85.0334 -40.80464,117.21197 L 131.86191,103.52464 c 32.27787,-26.1857 73.35515,-41.89259 118.08303,-41.89259 z m -146.8819,70.91009 265.29157,263.79423 c -32.33187,26.33988 -73.53546,42.13648 -118.40967,42.13648 -103.74718,0 -187.930435,-84.41408 -187.930435,-188.41996 0,-44.42824 15.361952,-85.28514 41.048535,-117.51075 z" id="path1979-1" style="fill:#d40000;stroke:#d40000;stroke-width:0.8710565"/>
</svg>