<?xml version="1.0" encoding="UTF-8" standalone="no"?>
<svg xmlns:dc="http://purl.org/dc/elements/1.1/" xmlns:cc="http://creativecommons.org/ns#" xmlns:rdf="http://www.w3.org/1999/02/22-rdf-syntax-ns#" xmlns:svg="http://www.w3.org/2000/svg" xmlns="http://www.w3.org/2000/svg" xmlns:sodipodi="http://sodipodi.sourceforge.net/DTD/sodipodi-0.dtd" xmlns:inkscape="http://www.inkscape.org/namespaces/inkscape" enable-background="new 0 0 499.912 500" id="svg6980" version="1.1" viewBox="0 0 499.912 500" xml:space="preserve"><metadata id="metadata25789"><rdf:RDF><cc:Work rdf:about=""><dc:format>image/svg+xml</dc:format><dc:type rdf:resource="http://purl.org/dc/dcmitype/StillImage"/></cc:Work></rdf:RDF></metadata><defs id="defs25787"> </defs><circle cx="287" cy="287" id="circle12991-1" r="285" d="M 572,287 C 572,444.40115 444.40115,572 287,572 129.59885,572 2,444.40115 2,287 2,129.59885 129.59885,2 287,2 444.40115,2 572,129.59885 572,287 z" style="fill:#ffffff;stroke:#000000" transform="matrix(0.87565676,0,0,0.87565676,-1.353374,-1.31115)"/><g transform="matrix(0.8143939,0,0,0.8143939,448.6096,-176.51091)" id="g2849"> <rect style="stroke:#000000;stroke-width:0.86619997" y="253.636" x="-270.759" width="55.826" id="rect1931" height="154.42999"/>
	<path style="stroke:#000000;stroke-width:0.86619997" id="rect2820-0" d="m -141.469,384.031 -112.844,218.656 c -15.517,4.83 -26.781,19.307 -26.781,36.406 0,10.064 3.905,19.216 10.281,26.032 v 138.407 h 55.843 v -138.563 -0.031 c 6.279,-6.798 10.125,-15.868 10.125,-25.845 0,-3.12 -0.385,-6.156 -1.094,-9.062 L -92.124,409.5 -141.469,384.031 z m -101.5,216.938 c 0.667,0 1.312,0.028 1.969,0.062 -0.65,-0.032 -1.312,-0.062 -1.969,-0.062 z m 0,19.063 c 10.524,0 19.063,8.54 19.063,19.061 0,10.524 -8.539,19.064 -19.063,19.064 -10.523,0 -19.063,-8.54 -19.063,-19.064 10e-4,-10.521 8.54,-19.061 19.063,-19.061 z m 8.593,56.217 c -0.299,0.07 -0.603,0.127 -0.905,0.188 0.303,-0.062 0.605,-0.118 0.905,-0.188 z"/>
	</g><path style="fill:#d40000;stroke:#d40000;stroke-width:0.87105608" id="path1979-97" d="m 249.94487,7.5347303 c -59.69347,0 -114.34789,21.7311077 -156.545328,57.7074667 -1.107112,0.944225 -2.203771,1.894547 -3.293463,2.857935 -0.438141,0.38762 -0.871927,0.780466 -1.306584,1.170699 -0.932901,0.837085 -1.857091,1.680268 -2.776056,2.53216 -0.245637,0.227346 -0.490404,0.45295 -0.735171,0.680295 -1.087949,1.014781 -2.169801,2.041756 -3.238586,3.07657 -1.226447,1.186379 -2.446797,2.380597 -3.647983,3.593107 -1.178539,1.188991 -2.357078,2.379725 -3.511228,3.593106 -1.196831,1.259547 -2.368401,2.553066 -3.538229,3.838744 -0.134143,0.147209 -0.275254,0.28832 -0.408526,0.435529 -1.011296,1.115822 -2.003429,2.240356 -2.994691,3.375342 -1.081851,1.239513 -2.127119,2.495576 -3.184581,3.756865 -0.04094,0.04878 -0.09494,0.08711 -0.135884,0.135885 C 29.354272,136.42926 8.0917923,190.74309 8.0917923,250.01671 c 0,133.84213 108.3428277,242.45324 241.8548277,242.45324 59.825,0 114.57697,-21.83999 156.8171,-57.9531 l 0.027,0.027 c 0.3371,-0.28745 0.67158,-0.58186 1.00694,-0.87105 0.13676,-0.1176 0.27351,-0.23606 0.4094,-0.35365 0.81879,-0.71079 1.63932,-1.42941 2.44941,-2.15064 0.63935,-0.57054 1.27261,-1.13847 1.905,-1.71511 0.18205,-0.16637 0.3641,-0.32403 0.54528,-0.4904 0.84318,-0.7735 1.67155,-1.55658 2.50428,-2.3414 0.74824,-0.70469 1.49299,-1.4085 2.23252,-2.12277 0.10191,-0.0976 0.1986,-0.20121 0.29877,-0.29877 0.94684,-0.91983 1.8719,-1.84141 2.80393,-2.77693 0.27264,-0.27177 0.54703,-0.54266 0.81705,-0.81618 1.08969,-1.10362 2.16893,-2.22293 3.23946,-3.34746 0.1054,-0.1115 0.22038,-0.21516 0.32578,-0.32578 1.22644,-1.29526 2.45028,-2.59923 3.64711,-3.91975 1.0984,-1.21077 2.16544,-2.44157 3.23945,-3.67586 0.19948,-0.22647 0.40156,-0.45121 0.59842,-0.67942 0.91809,-1.06269 1.82225,-2.13496 2.72292,-3.21333 35.12882,-42.09204 56.292,-96.29525 56.292,-155.42864 C 491.82583,116.17198 383.456,7.5347303 249.94487,7.5347303 l 0,0 z m 0,54.0594837 c 103.74714,0 187.95736,84.415786 187.95736,188.420756 0,44.28972 -15.25655,85.03337 -40.80375,117.21105 L 131.8619,103.48679 C 164.13888,77.301098 205.21701,61.594214 249.94487,61.594214 z M 103.06304,132.50428 368.35363,396.29839 c -32.33012,26.33987 -73.53456,42.13647 -118.40876,42.13647 -103.74713,0 -187.93035,-84.41492 -187.93035,-188.42076 0,-44.42822 15.361946,-85.28423 41.04852,-117.50982 z"/>
</svg>