<?xml version="1.0" encoding="UTF-8" standalone="no"?>
<svg xmlns:dc="http://purl.org/dc/elements/1.1/" xmlns:cc="http://creativecommons.org/ns#" xmlns:rdf="http://www.w3.org/1999/02/22-rdf-syntax-ns#" xmlns:svg="http://www.w3.org/2000/svg" xmlns="http://www.w3.org/2000/svg" xmlns:sodipodi="http://sodipodi.sourceforge.net/DTD/sodipodi-0.dtd" xmlns:inkscape="http://www.inkscape.org/namespaces/inkscape" enable-background="new 0 0 500 500" id="svg6934" version="1.1" viewBox="0 0 500 500" xml:space="preserve"><metadata id="metadata25964"><rdf:RDF><cc:Work rdf:about=""><dc:format>image/svg+xml</dc:format><dc:type rdf:resource="http://purl.org/dc/dcmitype/StillImage"/></cc:Work></rdf:RDF></metadata><defs id="defs25962"> </defs><circle cx="287" cy="287" id="circle12991-1" r="285" d="M 572,287 C 572,444.40115 444.40115,572 287,572 129.59885,572 2,444.40115 2,287 2,129.59885 129.59885,2 287,2 444.40115,2 572,129.59885 572,287 z" style="fill:#ffffff;stroke:#000000" transform="matrix(0.87565674,0,0,0.87565674,-1.3477329,-1.2891992)"/><g transform="matrix(0.87105638,0,0,0.87105638,236.94015,135.9301)" id="g4659"> <path style="stroke:#000000;stroke-width:0.8858" id="path1931-4" d="m 36.592,19.704 c 0,11.951 -9.689,21.639 -21.639,21.639 -11.95,0 -21.638,-9.688 -21.638,-21.639 0,-11.951 9.687,-21.639 21.638,-21.639 11.951,0 21.639,9.688 21.639,21.639 z"/>
	<path style="stroke:#000000" id="path2824" d="M -5.015,43.608 -35.14,54.389 -51.765,161.578 h 18.875 l 11.781,-64.813 10.969,46.438 -23.719,128.719 H -7.734 L 14.954,165.265 37.641,271.922 H 63.767 L 40.079,143.202 51.016,96.764 62.798,161.577 H 81.673 L 65.046,54.389 34.922,43.608 c -5.408,4.523 -12.37,7.25 -19.968,7.25 -7.598,0 -14.561,-2.727 -19.969,-7.25 z"/>
	<path id="rect2858" d="m 10.063,-101.094 v 39 H 0.094 v 21 H -79.875 V 303 H 0.188 v 21.063 h 10 v 38.999 h 9.749 v -38.999 h 9.969 V 303 h 79.876 V -41.093 H 29.813 v -21 h -9.969 v -39 H 10.063 z M -62.5,-23.156 H 92.406 V 285.063 H -62.5 V -23.156 z"/>
	</g><path style="fill:#d40000;stroke:#d40000;stroke-width:0.87105638" id="path1979-0" d="m 249.95181,7.5583404 c -59.69349,0 -114.34792,21.7311146 -156.545378,57.7074856 -1.107113,0.944225 -2.203773,1.894547 -3.293464,2.858807 -0.438142,0.386749 -0.871928,0.780466 -1.306585,1.170699 -0.932901,0.836215 -1.856221,1.680268 -2.776057,2.53129 -0.245638,0.227346 -0.490404,0.45295 -0.735171,0.680295 -1.08795,1.014781 -2.169802,2.040885 -3.239459,3.0757 -1.226447,1.186379 -2.446797,2.381469 -3.647984,3.593108 -1.178539,1.188992 -2.357079,2.379726 -3.511228,3.593108 -1.196832,1.259547 -2.368403,2.553066 -3.538231,3.837874 -0.134143,0.147208 -0.275254,0.28832 -0.408526,0.435528 -1.011296,1.115823 -2.00343,2.240357 -2.994692,3.375344 -1.081852,1.238642 -2.127119,2.495576 -3.184582,3.755995 -0.04094,0.04878 -0.09495,0.0871 -0.135885,0.135884 C 29.360269,136.44942 8.097783,190.76327 8.097783,250.03779 c 0,133.84217 108.343737,242.45245 241.854897,242.45245 59.82503,0 114.57702,-21.84 156.81716,-57.95226 l 0.027,0.027 c 0.33623,-0.28832 0.67158,-0.58187 1.00781,-0.87106 0.13501,-0.11759 0.27177,-0.23606 0.40853,-0.35365 0.81792,-0.71165 1.6402,-1.42853 2.44941,-2.15064 0.63848,-0.57054 1.27174,-1.13847 1.90413,-1.71598 0.18205,-0.16376 0.36497,-0.32403 0.54528,-0.48953 0.84405,-0.7735 1.67155,-1.55658 2.50428,-2.34053 0.74824,-0.70643 1.49387,-1.40937 2.23252,-2.12364 0.10192,-0.0976 0.19947,-0.20121 0.30052,-0.29877 0.94509,-0.91896 1.87103,-1.84141 2.80306,-2.77606 0.27177,-0.27264 0.54702,-0.54266 0.81618,-0.81705 1.09143,-1.10362 2.1698,-2.22293 3.24033,-3.34747 0.10539,-0.11149 0.22037,-0.21515 0.32577,-0.32577 1.22645,-1.29526 2.44941,-2.59836 3.64624,-3.91975 1.09928,-1.21164 2.16632,-2.44158 3.24033,-3.67499 0.19947,-0.22822 0.40069,-0.45208 0.59929,-0.6803 0.91809,-1.06269 1.82225,-2.13408 2.72031,-3.21158 35.12883,-42.09206 56.29289,-96.29703 56.29289,-155.42956 0,-133.84304 -108.37074,-242.4803196 -241.88191,-242.4803196 l 0,0 z m 0,54.0595006 c 103.74717,0 187.95829,84.414949 187.95829,188.420819 0,44.28886 -15.25742,85.03252 -40.80464,117.21109 L 131.86967,103.51043 C 164.14579,77.325601 205.22394,61.617841 249.95181,61.617841 z m -146.88188,70.910089 265.29155,263.7942 c -32.33013,26.34074 -73.53546,42.13735 -118.4088,42.13735 -103.74717,0 -187.93041,-84.41495 -187.93041,-188.42082 -8.71e-4,-44.42823 15.36108,-85.28513 41.04766,-117.51073 z"/>
</svg>