<?xml version="1.0" encoding="UTF-8" standalone="no"?>
<svg xmlns:dc="http://purl.org/dc/elements/1.1/" xmlns:cc="http://creativecommons.org/ns#" xmlns:rdf="http://www.w3.org/1999/02/22-rdf-syntax-ns#" xmlns:svg="http://www.w3.org/2000/svg" xmlns="http://www.w3.org/2000/svg" xmlns:sodipodi="http://sodipodi.sourceforge.net/DTD/sodipodi-0.dtd" xmlns:inkscape="http://www.inkscape.org/namespaces/inkscape" enable-background="new 0 0 500 500" id="svg7364" version="1.1" viewBox="0 0 500 500" xml:space="preserve"><metadata id="metadata25483"><rdf:RDF><cc:Work rdf:about=""><dc:format>image/svg+xml</dc:format><dc:type rdf:resource="http://purl.org/dc/dcmitype/StillImage"/></cc:Work></rdf:RDF></metadata><defs id="defs25481"> </defs><circle cx="287" cy="287" id="circle12991-1" r="285" d="M 572,287 C 572,444.40115 444.40115,572 287,572 129.59885,572 2,444.40115 2,287 2,129.59885 129.59885,2 287,2 444.40115,2 572,129.59885 572,287 z" style="fill:#ffffff;stroke:#000000" transform="matrix(0.87565674,0,0,0.87565674,-1.3134851,-1.3134851)"/><g id="g3145" transform="translate(-0.21891512,8.8800001e-6)"><path id="path15011" d="m 104.64098,164.18563 v 39.40456 h 62.17163 v -39.40456 h -62.17163 z m 153.23993,0 h 78.80911 v 39.40456 h -78.80911 v -39.40456 z"/><path id="path15013" d="M 104.64098,207.09281 V 335.81435 H 395.79685 V 207.09281 H 104.64098 z M 250,217.60069 c 29.5,0 53.41506,23.91507 53.41506,53.41507 0,29.5 -23.91506,53.41506 -53.41506,53.41506 -29.50088,0 -53.41506,-23.91506 -53.41506,-53.41506 0,-29.5 23.91418,-53.41507 53.41506,-53.41507 m 0,7.00526 c 25.63047,0 46.40981,20.77846 46.40981,46.40981 0,25.63047 -20.77934,46.4098 -46.40981,46.4098 -25.63135,0 -46.40981,-20.77933 -46.40981,-46.4098 0,-25.63135 20.77846,-46.40981 46.40981,-46.40981"/><path d="m 175.56918,167.25043 v 33.27496 h 73.55516 v -33.27496 h -73.55516 z m 169.00175,0 v 33.27496 h 48.16112 v -33.27496 h -48.16112 z" id="path15019" style="fill:none;stroke:#000000;stroke-width:6.12959719"/></g><path style="fill:#d40000;stroke:#d40000;stroke-width:0.87105638" id="path1979-0" d="m 249.98606,7.5340539 c -59.69349,0 -114.34793,21.7311201 -156.545385,57.7074901 -1.10711,0.944225 -2.20377,1.894547 -3.29346,2.858807 -0.43814,0.386749 -0.87193,0.780466 -1.30658,1.170699 -0.93291,0.836215 -1.85623,1.680268 -2.77606,2.53129 -0.24564,0.227346 -0.49041,0.45295 -0.73517,0.680295 -1.08795,1.014781 -2.1698,2.040885 -3.23946,3.0757 -1.22645,1.186379 -2.4468,2.381469 -3.64799,3.593108 -1.17853,1.188992 -2.35707,2.379726 -3.51122,3.593108 -1.19684,1.259547 -2.36841,2.553066 -3.53823,3.837874 -0.13415,0.147208 -0.27526,0.28832 -0.40853,0.435528 -1.0113,1.115823 -2.00343,2.240357 -2.99469,3.375344 -1.08185,1.238642 -2.12712,2.495576 -3.18458,3.755995 -0.0409,0.04878 -0.0949,0.0871 -0.13589,0.135884 C 29.394515,136.42513 8.1320349,190.73898 8.1320349,250.0135 c 0,133.84217 108.3437251,242.45245 241.8548951,242.45245 59.82503,0 114.57702,-21.84 156.81716,-57.95226 l 0.027,0.027 c 0.33623,-0.28832 0.67158,-0.58187 1.00781,-0.87106 0.13501,-0.11759 0.27177,-0.23606 0.40853,-0.35365 0.81792,-0.71165 1.6402,-1.42853 2.44941,-2.15064 0.63848,-0.57054 1.27174,-1.13847 1.90413,-1.71598 0.18205,-0.16376 0.36497,-0.32403 0.54528,-0.48953 0.84405,-0.7735 1.67154,-1.55658 2.50427,-2.34053 0.74824,-0.70643 1.49387,-1.40937 2.23252,-2.12364 0.10192,-0.0976 0.19947,-0.20121 0.30052,-0.29877 0.94509,-0.91896 1.87103,-1.84141 2.80306,-2.77606 0.27177,-0.27264 0.54702,-0.54266 0.81618,-0.81705 1.09143,-1.10362 2.1698,-2.22293 3.24033,-3.34747 0.10539,-0.11149 0.22037,-0.21515 0.32577,-0.32577 1.22645,-1.29526 2.44941,-2.59836 3.64624,-3.91975 1.09928,-1.21164 2.16632,-2.44158 3.24033,-3.67499 0.19947,-0.22822 0.40069,-0.45208 0.59929,-0.6803 0.91809,-1.06269 1.82225,-2.13408 2.72031,-3.21158 35.12883,-42.09206 56.29289,-96.29703 56.29289,-155.42956 0,-133.84304 -108.37073,-242.4803161 -241.8819,-242.4803161 l 0,0 z m 0,54.0595051 c 103.74717,0 187.95828,84.414941 187.95828,188.420811 0,44.28886 -15.25742,85.03252 -40.80463,117.21109 L 131.90391,103.48614 C 164.18003,77.301319 205.25819,61.593559 249.98606,61.593559 z m -146.88189,70.910081 265.29156,263.7942 c -32.33013,26.34074 -73.53546,42.13735 -118.4088,42.13735 -103.74718,0 -187.930415,-84.41495 -187.930415,-188.42082 -8.7e-4,-44.42823 15.36108,-85.28513 41.047655,-117.51073 z"/></svg>