<?xml version="1.0" encoding="UTF-8" standalone="no"?>
<svg xmlns:dc="http://purl.org/dc/elements/1.1/" xmlns:cc="http://creativecommons.org/ns#" xmlns:rdf="http://www.w3.org/1999/02/22-rdf-syntax-ns#" xmlns:svg="http://www.w3.org/2000/svg" xmlns="http://www.w3.org/2000/svg" xmlns:sodipodi="http://sodipodi.sourceforge.net/DTD/sodipodi-0.dtd" xmlns:inkscape="http://www.inkscape.org/namespaces/inkscape" enable-background="new 0 0 500 500" id="svg6836" version="1.1" viewBox="0 0 500 500" xml:space="preserve"><metadata id="metadata12557"><rdf:RDF><cc:Work rdf:about=""><dc:format>image/svg+xml</dc:format><dc:type rdf:resource="http://purl.org/dc/dcmitype/StillImage"/></cc:Work></rdf:RDF></metadata><defs id="defs12555"> </defs><circle cx="287" cy="287" id="circle12991" r="285" d="M 572,287 C 572,444.40115 444.40115,572 287,572 129.59885,572 2,444.40115 2,287 2,129.59885 129.59885,2 287,2 444.40115,2 572,129.59885 572,287 z" style="fill:#ffffff;stroke:#000000" transform="matrix(0.87565674,0,0,0.87565674,-1.3412444,-1.3408854)"/><g transform="matrix(0.85057598,0,0,0.85057598,452.23961,-191.74511)" id="g1945"> <path style="stroke:#000000" id="path1931" d="m -269.437,380.688 c 0,0 -26.567,2.286 -47.688,20.969 -3.087,2.731 -29.844,31.899 -33.406,38.312 -4.15,8.463 -5.375,27.625 -5.375,27.625 -7.006,-6.295 -11.125,-20.031 -11.125,-20.031 0,0 -6.606,9.893 -9.813,19.156 -2.606,7.528 -8.825,30.186 -1.343,50.375 4.202,14.19 21.844,44.562 21.844,44.562 -8.313,0.595 -26.75,-10.25 -26.75,-10.25 0,0 2.256,17.569 3.563,21.844 2.239,7.33 13.769,18.875 16.5,21.844 7.45,8.098 30.75,16.469 30.75,16.469 0,0 -3.999,0.113 -11.125,0.468 0,0 10.56,14.712 20.062,15.782 9.598,0.645 28.062,5.155 33.406,6.937 2.105,0.703 13.888,8.269 9.375,18.719 0,0 11.244,-5.381 12.907,-6.687 4.539,-3.566 8.944,-15.082 10.25,-17.813 2.788,-5.829 -0.875,-25.407 -0.875,-25.407 0,0 -2.1,3.245 -5.781,8.469 0,0 3.762,-12.699 5.781,-16.5 2.741,-5.161 15.431,-19.705 18.281,-25.407 2.731,-5.463 7.562,-35.217 7.562,-35.217 l -5.343,-56.157 c -3.8,-24.108 -16.181,-45.469 -21.407,-47.25 l 0.469,23.187 c 0,0 -16.813,-12.662 -20.969,-20.5 0,0 -12.038,-19.506 -6.219,-30.313 0,10e-4 5.543,-16.061 16.469,-23.186 z m -65.001,122.374 c 4.515,9.268 5.701,12.407 8.313,14.25 4.039,2.851 12.812,4.749 12.812,4.749 -5.466,-5.227 -4.75,-9.968 -4.75,-9.968 4.99,1.188 17.058,7.715 24,12.343 7.842,5.227 20.218,11.599 20.218,21.625 0,3.803 0,20.438 0,20.438 3.327,-2.851 6.723,-11.144 7.344,-13.781 1.901,-8.079 -0.721,-11.986 -0.937,-20.189 9.03,3.091 14.68,15.236 15.438,17.345 3.327,9.266 1.049,26.497 -2.125,29.937 -2.851,3.09 -13.144,17.993 -14.969,23.75 -6.179,10.931 -3.572,21.621 -8.563,28.75 0,0 -1.352,-9.942 -14.031,-17.813 -8.792,-5.465 -33.992,-13.849 -40.875,-17.812 -15.683,-9.029 -13.532,-28.75 -13.532,-28.75 11.168,8.792 17.427,8.637 28.031,14.47 4.515,-12.12 -1.8,-24.207 -9.719,-30.875 -4.514,-3.803 -10.786,-15.151 -12.843,-25.438 -1.187,-5.939 3.172,-18.255 6.188,-23.031 z"/>
	<path style="stroke:#000000" id="path1936-9" d="m -89.532,427.188 -141.187,162.25 c -0.356,0.286 -0.7,0.618 -1.063,0.999 -6.245,7.929 -18.345,28.148 -20.437,38.781 0,0 -3.591,19.229 -13.875,23.063 -5.721,0.51 -26.181,11.991 -32.282,19.311 -2.605,3.128 -11.985,19.621 -3.75,30.377 10.808,9.936 12.909,9.128 18.313,9.998 16.978,2.739 24.68,-5.727 27.469,-9.562 8.7,-11.962 5.729,-31.484 8.344,-37.062 5.616,-9.053 5.552,-6.247 14.094,-12 11.849,-6.771 24.044,-12.68 30.843,-18.781 8.92,-8.008 12.719,-14.771 16.218,-18.719 0.15,-0.192 0.279,-0.401 0.406,-0.594 l 135.656,-159.688 -5.625,-28.093 -0.406,0.094 0.094,-0.219 -32.812,-0.155 0,0 z m 3.033,6.906 18.906,0.032 -142.219,163.969 c -0.387,0.323 -0.773,0.685 -1.156,1.094 -5.888,7.568 -27.532,27.188 -27.532,27.188 0,0 1.636,-23.244 12.532,-32.594 0.127,-0.141 0.233,-0.297 0.343,-0.437 l 0.125,-0.156 c 0.054,-0.073 0.139,-0.147 0.187,-0.219 L -86.499,434.094 z m 24.686,4.75 3.375,16.718 h 0.374 L -190.75,609.751 c -0.356,0.308 -0.691,0.665 -1.063,1.093 -3.229,3.768 -5.962,8.257 -10.843,13.312 -1.892,1.96 -16.168,13 -25.313,13.125 -1.395,-6.973 15.182,-25.456 21.999,-33.531 0.377,-0.434 0.707,-0.85 1.001,-1.25 0.021,-0.029 0.041,-0.065 0.062,-0.094 L -61.813,438.844 z"/>
	</g><path style="fill:#d40000;stroke:#d40000;stroke-width:0.87105626" id="path1979" d="m 249.95613,7.5058179 c -59.69348,0 -114.34791,21.7302401 -156.545356,57.7066051 -1.107113,0.944225 -2.203773,1.894548 -3.293464,2.858807 -0.438141,0.38762 -0.871927,0.780466 -1.306584,1.1707 -0.932902,0.837085 -1.857092,1.680267 -2.776057,2.53216 -0.245637,0.226475 -0.490404,0.452078 -0.735171,0.680295 -1.087949,1.014781 -2.169801,2.041756 -3.239458,3.076571 -1.226447,1.186378 -2.445926,2.380596 -3.647113,3.593107 -1.178539,1.188992 -2.357078,2.379725 -3.511228,3.593107 -1.197702,1.259547 -2.368401,2.553066 -3.53823,3.837874 -0.134143,0.147208 -0.275254,0.288319 -0.408525,0.435528 -1.011297,1.115823 -2.002559,2.240356 -2.993821,3.375343 -1.081852,1.238642 -2.127119,2.495576 -3.184581,3.755994 -0.04094,0.04965 -0.09495,0.08711 -0.135885,0.135885 C 29.366363,136.39862 8.1038799,190.71247 8.1038799,249.9861 c 0,133.84302 108.3428501,242.45328 241.8548701,242.45328 59.82414,0 114.57612,-21.83999 156.81712,-57.95311 l 0.027,0.027 c 0.33622,-0.28745 0.67158,-0.58012 1.00694,-0.87106 0.13588,-0.11759 0.27264,-0.23605 0.40852,-0.35364 0.81967,-0.71079 1.6402,-1.42767 2.45028,-2.15064 0.63849,-0.57054 1.27262,-1.13847 1.905,-1.71511 0.18031,-0.16376 0.3641,-0.32404 0.54441,-0.49041 0.84406,-0.77349 1.67243,-1.55657 2.50516,-2.33965 0.74824,-0.70469 1.49299,-1.41024 2.23165,-2.12277 0.10191,-0.0993 0.1986,-0.20121 0.29964,-0.30051 0.94771,-0.9181 1.8719,-1.84142 2.80393,-2.77519 0.27177,-0.27351 0.54615,-0.54267 0.81618,-0.81618 1.09056,-1.10537 2.1698,-2.22467 3.23946,-3.34921 0.10627,-0.11149 0.22038,-0.21515 0.32752,-0.32577 1.22557,-1.29526 2.44941,-2.59749 3.64711,-3.91976 1.0984,-1.21076 2.16544,-2.44157 3.23946,-3.67411 0.1986,-0.22822 0.40155,-0.45295 0.59841,-0.68204 0.9181,-1.06269 1.82225,-2.13322 2.72205,-3.21071 C 470.67829,363.32359 491.8406,309.1195 491.8406,249.98697 491.83713,116.14395 383.46728,7.5058179 249.95613,7.5058179 l 0,0 z m 0,54.0594931 c 103.74716,0 187.95739,84.415799 187.95739,188.420789 0,44.28886 -15.25655,85.03338 -40.80289,117.21107 L 131.874,103.45876 C 164.15012,77.272197 205.22826,61.565311 249.95613,61.565311 z M 103.07427,132.47539 368.36578,396.26955 c -32.331,26.33987 -73.53544,42.13647 -118.40965,42.13647 -103.74715,0 -187.930384,-84.41406 -187.930384,-188.41992 0,-44.42822 15.361948,-85.28512 41.048524,-117.51071 z"/>
</svg>