<?xml version="1.0" encoding="UTF-8" standalone="no"?>
<svg
   xmlns:dc="http://purl.org/dc/elements/1.1/"
   xmlns:cc="http://creativecommons.org/ns#"
   xmlns:rdf="http://www.w3.org/1999/02/22-rdf-syntax-ns#"
   xmlns:svg="http://www.w3.org/2000/svg"
   xmlns="http://www.w3.org/2000/svg"
   viewBox="0 0 500 440"
   id="svg3938"
   version="1.1">  
  <defs
     id="defs3940" />
  <metadata
     id="metadata3944">
    <rdf:RDF>
      <cc:Work
         rdf:about="">
        <dc:format>image/svg+xml</dc:format>
        <dc:type
           rdf:resource="http://purl.org/dc/dcmitype/StillImage" />
        <dc:title />
      </cc:Work>
    </rdf:RDF>
  </metadata>
  <path     
     style="fill:#ffffff;fill-opacity:1;stroke:#000000;stroke-width:7.06698704;stroke-linecap:round;stroke-miterlimit:4;stroke-opacity:1"
     id="path4386"
     d="m 250.06555,3.5588173 c -6.14438,0.3020945 -11.70983,3.7015866 -14.78767,9.0280757 L 5.9541481,409.82223 c -3.2369515,5.6032 -3.2341473,12.50403 0,18.10916 3.2341415,5.60513 9.2000689,9.06165 15.6710439,9.06341 l 456.739368,0.0883 c 6.45581,-0.003 12.41541,-3.44302 15.65338,-9.02807 3.23798,-5.58505 3.25765,-12.46946 0.053,-18.07382 L 266.6553,12.657563 C 263.27314,6.7447451 256.86935,3.2291 250.06555,3.5588173 z" />
  <path
     style="fill:#ffcc00;fill-opacity:1;fill-rule:evenodd;stroke:#000000;stroke-width:16.64640808;stroke-linecap:round;stroke-linejoin:round;stroke-miterlimit:4;stroke-opacity:1;stroke-dasharray:none"
     id="path4388"
     d="M 250.94804,22.205001 22.260338,418.32729 477.72765,418.41563 C 402.13247,286.34141 326.54381,154.28025 250.94804,22.205001 z" />
  <path
     d="m 242.55957,191.96624 c -0.0926,0 -0.16632,0.006 -0.3311,0.0201 -23.8519,3.7252 -42.04801,24.33649 -42.04801,49.19524 0,3.42296 0.3828,6.74821 1.05043,9.9729 l -0.0208,-0.013 c 0.0991,0.52434 0.16534,1.05668 0.16534,1.60937 0,1.56347 -0.44813,3.01429 -1.1726,4.28233 l 0.007,0.007 3.25926,1.86088 c 0.004,0.0109 0.008,0.0231 0.0131,0.0352 -0.005,6.2e-4 -0.008,-8e-4 -0.0131,0 l -3.25926,-1.89682 c -0.73739,1.26066 -1.76682,2.37979 -3.12251,3.16148 -0.47956,0.27643 -0.97816,0.48439 -1.48244,0.66099 l 0.0208,0.007 c -3.1305,1.03471 -6.20516,2.36965 -9.1738,4.08085 -21.55879,12.42943 -30.33112,38.4674 -21.63551,60.95701 0.0675,0.15053 0.0982,0.22225 0.14397,0.3017 0.60952,1.05445 1.9579,1.41693 3.00761,0.81192 0.93586,-0.53941 1.28081,-1.6438 0.92093,-2.62973 -0.0497,-0.14415 -0.102,-0.2867 -0.15115,-0.43099 -5.48291,-16.11125 1.1324,-33.97803 16.44805,-42.80767 15.90962,-9.1727 35.85936,-4.96731 46.87589,9.06739 l 0.0131,-0.007 c 0.89228,1.32298 2.6729,1.74612 4.09406,0.92702 1.16804,-0.67351 1.72745,-1.97805 1.50373,-3.219 l 0.007,-0.007 c -0.49572,-2.90855 0.0369,-5.89509 1.49667,-8.42067 l -0.007,-0.007 c 1.46184,-2.51332 3.77856,-4.45967 6.54049,-5.48208 l 0,-0.0132 c 1.18785,-0.42693 2.04326,-1.56295 2.04326,-2.90988 0,-1.63867 -1.2629,-2.96492 -2.85642,-3.07503 l 0,-0.0132 c -17.6797,-2.50973 -31.29851,-17.65852 -31.29851,-36.00365 0,-17.65976 12.18862,-32.31586 28.90263,-35.63007 0.14982,-0.0285 0.29611,-0.0569 0.44618,-0.0856 1.0349,-0.18146 1.82024,-1.03318 1.82024,-2.11241 0,-1.20998 -0.98964,-2.19129 -2.20878,-2.19129 z m 14.85062,0 c -1.21925,0 -2.20904,0.98118 -2.20904,2.19127 0,1.07924 0.78552,1.93085 1.82042,2.11227 0.14987,0.0285 0.29629,0.0569 0.44613,0.0862 16.71391,3.31403 28.9026,17.97016 28.9026,35.63006 0,18.34498 -13.61878,33.49377 -31.29853,36.00355 l 0,0.0134 c -1.59357,0.11022 -2.85655,1.43657 -2.85655,3.07508 0,1.34691 0.8555,2.48287 2.0436,2.91002 l 0,0.0131 c 2.77004,1.02558 5.09362,2.97941 6.55456,5.50373 l 0.007,-0.007 c 1.44632,2.51987 1.97604,5.49443 1.48205,8.39212 l 0.0131,0.007 c -0.22341,1.24106 0.32862,2.55268 1.49667,3.226 1.42112,0.81939 3.20878,0.38898 4.10112,-0.93415 l 0.007,0.007 c 11.01625,-14.03469 30.96609,-18.24009 46.87584,-9.06748 15.31535,8.82981 21.93063,26.70358 16.44795,42.81498 -0.0497,0.14425 -0.10152,0.27955 -0.15098,0.42385 -0.35992,0.9861 -0.007,2.09022 0.92815,2.62983 1.04948,0.60504 2.39066,0.24227 3.00037,-0.81185 0.0455,-0.0796 0.0816,-0.14421 0.15099,-0.29473 8.69562,-22.48965 -0.0828,-48.53473 -21.64269,-60.96404 -2.96842,-1.71142 -6.04351,-3.03906 -9.17377,-4.07376 l 0.0208,-0.0131 c -0.50413,-0.17658 -0.99557,-0.38453 -1.47503,-0.66092 -1.35575,-0.78163 -2.39239,-1.89366 -3.12982,-3.15422 l -0.007,0.007 c -0.72462,-1.26822 -1.1729,-2.71893 -1.1729,-4.28229 0,-0.5529 0.0661,-1.0852 0.16544,-1.60953 l -0.0211,0.0134 c 0.66769,-3.22461 1.05034,-6.54993 1.05034,-9.9728 0,-24.85875 -18.19613,-45.47032 -42.048,-49.19515 -0.16462,-0.0148 -0.23909,-0.0207 -0.33091,-0.0207 z m -7.49733,46.14152 0,0.007 c -7.664,0.0404 -16.94361,3.38878 -21.21115,5.09426 -1.8767,0.74993 -3.35279,2.53078 -3.35279,4.72045 0,2.77126 2.23548,5.02218 4.99338,5.02218 0.82388,0 1.57402,-0.20294 2.22324,-0.52437 3.84371,-1.66155 11.14224,-4.2843 17.41924,-4.30375 6.27705,0.0185 13.57548,2.6422 17.41939,4.30375 0.64916,0.32143 1.3993,0.52437 2.2232,0.52437 2.75799,0 4.99342,-2.25092 4.99342,-5.02218 0,-2.18967 -1.47606,-3.97052 -3.35274,-4.72045 -4.26764,-1.70548 -13.54732,-5.05347 -21.21123,-5.09426 l 0,-0.007 c -0.0229,0 -0.0481,0.007 -0.0715,0.007 -0.0229,-7e-5 -0.0483,-0.007 -0.0712,-0.007 z m 49.52374,19.11182 -2.91392,1.69568 c -0.007,-9.4e-4 -0.0197,-0.006 -0.0281,-0.007 7.1e-4,-0.003 0.006,-0.004 0.007,-0.007 l 2.93557,-1.68125 z m -7.20231,25.43466 c -1.60722,0.10808 -3.13138,0.9881 -3.99318,2.47883 -0.41193,0.71256 -0.60892,1.46199 -0.65477,2.18429 -0.48086,4.15487 -1.85727,11.77679 -4.97898,17.21502 -3.15559,5.41867 -9.07733,10.41795 -12.44027,12.91131 -0.60334,0.40083 -1.15666,0.94711 -1.56867,1.65973 -1.37905,2.38508 -0.53979,5.44711 1.86354,6.83287 1.89916,1.09492 4.18176,0.70179 5.77048,-0.54601 3.61286,-2.83781 11.15601,-9.18518 15.02331,-15.79248 l 0.007,0 c 0.0106,-0.0196 0.0161,-0.0433 0.0278,-0.0643 0.0107,-0.0196 0.031,-0.0363 0.0427,-0.0574 l -0.007,0 c 3.79669,-6.64834 5.53323,-16.35052 6.1879,-20.89384 0.28783,-1.99802 -0.51863,-4.16453 -2.41769,-5.25933 -0.90126,-0.51953 -1.89909,-0.73288 -2.86358,-0.66823 z m -84.48458,0.0208 c -0.96441,-0.0643 -1.95511,0.1485 -2.85636,0.66813 -1.89911,1.09499 -2.70564,3.26143 -2.4177,5.25954 0.65468,4.54318 2.39116,14.23822 6.1879,20.88654 l -0.007,0.007 c 0.0107,0.0193 0.0306,0.0363 0.0426,0.0574 0.0106,0.0196 0.0156,0.0436 0.0281,0.0639 l 0.007,0 c 3.86725,6.60725 11.41045,12.95456 15.02332,15.79231 1.58875,1.24816 3.87125,1.6338 5.77045,0.53909 2.40356,-1.38594 3.2354,-4.44063 1.85634,-6.8257 -0.41205,-0.71262 -0.96528,-1.25898 -1.56858,-1.65992 -3.36294,-2.49329 -9.28486,-7.4998 -12.44038,-12.91842 -3.12143,-5.43824 -4.49812,-13.06019 -4.97886,-17.21507 -0.0456,-0.72207 -0.24292,-1.47153 -0.65472,-2.18423 -0.86201,-1.49079 -2.3861,-2.36368 -3.99332,-2.47155 z m 51.98438,11.90546 c -0.61977,0.0601 -1.20857,0.30427 -1.69073,0.71118 l -0.0133,-0.007 c -2.27459,1.88291 -5.13172,2.91574 -8.0514,2.91727 l 0,0.0201 c -2.90947,-0.007 -5.75536,-1.04019 -8.02246,-2.91696 l -0.007,0.007 c -0.9643,-0.8139 -2.37911,-0.98942 -3.54717,-0.31609 -1.42105,0.81911 -1.9387,2.57587 -1.23759,4.00916 l -0.013,0.007 c 6.66335,16.5443 0.33243,35.89861 -15.57737,45.07098 -15.31532,8.83009 -34.11921,5.61964 -45.35064,-7.17752 -0.10097,-0.11514 -0.19459,-0.22994 -0.29494,-0.34509 -0.67507,-0.8041 -1.80544,-1.05683 -2.74129,-0.51712 -1.04952,0.60492 -1.40824,1.94896 -0.79871,3.00338 0.0459,0.0786 0.091,0.14588 0.18712,0.28001 15.15635,18.76468 42.12493,24.19107 63.68373,11.76186 2.96847,-1.71157 5.66055,-3.70206 8.12331,-5.89172 l 0,0.0208 c 0.40502,-0.34752 0.83708,-0.67202 1.31654,-0.94829 1.35604,-0.78185 2.83357,-1.12064 4.29555,-1.12803 l 0,-0.0131 -0.007,-3.74321 c 0.006,-0.007 0.007,-0.0131 0.0131,-0.0207 9.4e-4,0.002 0.005,0.005 0.007,0.007 l -0.0131,3.7576 c 1.46183,0.007 2.94673,0.34639 4.30259,1.12815 0.47943,0.27625 0.90432,0.60076 1.30952,0.94831 l 0,-0.0282 c 2.46261,2.18975 5.15479,4.18024 8.12329,5.89161 21.55881,12.42958 48.53445,7.00306 63.69075,-11.7618 0.0971,-0.13415 0.13393,-0.20047 0.17994,-0.28018 0.6097,-1.0542 0.258,-2.39817 -0.79142,-3.00325 -0.93587,-0.53968 -2.07352,-0.28708 -2.74857,0.5174 -0.10054,0.11482 -0.1946,0.22996 -0.295,0.34477 -11.23133,12.79716 -30.03509,16.00768 -45.35054,7.17786 -15.90986,-9.17267 -22.2408,-28.5196 -15.57742,-45.06386 l -0.007,-0.007 c 0.70114,-1.43319 0.17636,-3.1899 -1.24471,-4.00928 -0.58402,-0.33668 -1.2293,-0.46266 -1.84912,-0.40227 z"
     id="path106"
     style="fill:#01050e;fill-opacity:1;fill-rule:nonzero;stroke:none" />
</svg>
