<?xml version="1.0" encoding="UTF-8" standalone="no"?>
<svg xmlns:dc="http://purl.org/dc/elements/1.1/" xmlns:cc="http://creativecommons.org/ns#" xmlns:rdf="http://www.w3.org/1999/02/22-rdf-syntax-ns#" xmlns:svg="http://www.w3.org/2000/svg" xmlns="http://www.w3.org/2000/svg" xmlns:sodipodi="http://sodipodi.sourceforge.net/DTD/sodipodi-0.dtd" xmlns:inkscape="http://www.inkscape.org/namespaces/inkscape" id="svg2" version="1.1" viewBox="0 0 500 440"><defs id="defs4"/><metadata id="metadata7"><rdf:RDF><cc:Work rdf:about=""><dc:format>image/svg+xml</dc:format><dc:type rdf:resource="http://purl.org/dc/dcmitype/StillImage"/><dc:title/></cc:Work></rdf:RDF></metadata><g id="layer1" transform="translate(2352.5999,2613.189)"><g id="g4919" transform="translate(-16568.906,-6205.0801)"><g transform="matrix(0.70090825,0,0,0.69991898,14205.466,3541.618)" id="use8402"><path d="m 291.34375,-65.6875 c -10.8681,0.534341 -20.7122,6.547321 -26.15625,15.96875 l -405.625,702.625 c -5.72548,9.91086 -5.72052,22.11697 0,32.03125 5.72051,9.91429 16.27297,16.02815 27.71875,16.03125 l 807.875,0.15625 c 11.41896,-0.006 21.96022,-6.08998 27.6875,-15.96875 5.7273,-9.87876 5.7621,-22.05583 0.0937,-31.96875 L 320.6875,-49.59375 C 314.70518,-60.05227 303.37823,-66.2707 291.34375,-65.6875 z" id="path6147" style="fill:#ffffff;fill-opacity:1;stroke:#000000;stroke-width:12.5;stroke-linecap:round;stroke-miterlimit:4;stroke-opacity:1" transform="matrix(0.806617,0,0,0.806617,137.24505,129.88708)"/><path d="m 292.90625,-32.375 -404.5,700.65625 805.625,0.15625 C 560.31943,434.82625 426.61912,201.23809 292.90625,-32.375 z" id="path6149" style="fill:#ffcc00;fill-opacity:1;fill-rule:evenodd;stroke:#000000;stroke-width:29.4439621;stroke-linecap:round;stroke-linejoin:round;stroke-miterlimit:4;stroke-opacity:1;stroke-dasharray:none" transform="matrix(0.806617,0,0,0.806617,137.24379,129.6198)"/></g><g id="g4900"><g id="g7490" transform="translate(15499.968,-4022.8453)"><path id="path2405" style="fill:#000000;fill-opacity:1;fill-rule:nonzero;stroke:none" d="m -1084.5774,7873.9992 -20.6092,80.3991 131.40001,31.1813 19.79407,-80.399 -130.58488,-31.1814 z m 4.2289,6.9037 119.37583,28.532 -17.04277,69.241 -120.14006,-28.5065 17.807,-69.2665 z"/><path id="path2413" style="fill:#000000;fill-opacity:1;fill-rule:evenodd;stroke:none" d="m -1063.2876,7864.8141 -4.2462,14.6014 3.0408,0.7122 3.3969,-11.5879 89.41606,21.7239 -2.93123,11.314 c 0,0 3.01341,0.7944 3.01341,0.7944 l 3.69827,-14.3547 -95.38801,-23.2033 z"/><path id="path2423" style="fill:#000000;fill-opacity:1;fill-rule:evenodd;stroke:none" d="m -1024.4818,7805.395 -0.9681,0.076 -0.8661,0.2293 -0.8152,0.2802 -0.7388,0.4331 -0.6624,0.5859 -0.6623,0.7388 -0.6624,0.968 -0.5095,1.0954 -0.5859,1.3247 -0.5095,1.5285 -14.3169,58.0321 61.85326,15.4888 0,-0.1529 0.15285,-0.2802 0.15285,-0.6114 0.15285,-0.7897 0.28022,-0.9681 0.3057,-1.0954 0.28023,-1.3247 0.35665,-1.5285 0.45855,-1.6049 0.43307,-1.7833 0.43308,-1.8342 0.5095,-1.9616 0.6114,-2.1399 0.5095,-2.1908 0.58592,-2.2163 0.58593,-2.3437 0.58592,-2.3437 0.58593,-2.4201 0.66235,-2.4202 0.58592,-2.4201 0.66235,-2.4965 0.58593,-2.4202 0.58592,-2.4201 0.66235,-2.4201 0.58593,-2.3437 0.5095,-2.2928 0.58592,-2.1908 0.5095,-2.1144 0.5095,-2.0635 0.5095,-1.9871 0.45855,-1.8342 0.43307,-1.6813 0.3057,-1.4776 0.12738,-1.2482 0.0764,-1.1719 0,-1.019 -0.2038,-0.9426 -0.22927,-0.8152 -0.43308,-0.7387 -0.53497,-0.6624 -0.63688,-0.5095 -0.8152,-0.5095 -0.96805,-0.5095 -1.09542,-0.4585 -1.24828,-0.3567 -1.37564,-0.4331 -1.55398,-0.3821 -1.68135,-0.4331 -37.85586,-9.171 -1.4776,-0.3566 -1.3247,-0.3057 -1.2482,-0.2038 -1.1719,-0.2293 -1.019,-0.076 -1.019,-0.076 z m -0.2293,11.5147 47.48538,11.3618 0.051,-0.1273 0.0764,0.1528 -0.12738,-0.025 -0.0254,0.025 -0.12738,0.5095 -0.3057,0.7897 -0.28022,1.0445 -0.38213,1.3247 -0.35665,1.5285 -0.45855,1.7578 -0.5095,1.9106 -0.5095,2.0635 -0.58592,2.2673 -0.58593,2.3437 -0.58592,2.4201 -0.58593,2.4965 -0.58592,2.573 -0.66235,2.573 -0.66235,2.6239 -0.58593,2.573 -0.58592,2.573 -0.58593,2.4965 -0.58592,2.4201 -0.58593,2.3437 -0.5095,2.1909 -0.5095,2.1399 -0.45855,1.9106 -0.35665,1.6814 -0.38212,1.5539 -0.28023,1.2993 -0.3057,1.0444 -0.12737,0.7388 -0.0764,0.5095 -0.0764,0.1274 -47.6892,-11.3619 13.4254,-53.8541 z"/><path id="path2427" style="fill:#000000;fill-opacity:1;fill-rule:nonzero;stroke:none" d="m -1090.082,7903.6319 -2.1277,0.1468 -1.9076,0.5869 -1.6874,0.8803 -1.4674,1.2472 -1.1738,1.4673 -0.8804,1.6873 -0.587,1.7608 -0.3668,1.9074 0.073,1.8341 0.3669,1.8341 0.6603,1.7607 1.1005,1.614 1.394,1.394 1.8342,1.1004 2.2744,0.807 2.4945,-20.0283 z"/><path id="path2429" style="fill:#000000;fill-opacity:1;fill-rule:nonzero;stroke:none" d="m -966.01747,7934.0045 -121.71683,-30.0058 -4.8422,19.6615 121.71677,30.0057 2.42113,-9.8307 2.42113,-9.8307 z"/><path id="path2431" style="fill:#000000;fill-opacity:1;fill-rule:nonzero;stroke:none" d="m -968.51197,7954.0328 2.12766,-0.1468 1.90756,-0.5869 1.68745,-0.8803 1.46736,-1.2472 1.17388,-1.4673 0.8804,-1.6874 0.66032,-1.7607 0.29347,-1.9074 -0.0734,-1.8341 -0.36684,-1.8341 -0.66031,-1.7608 -1.10051,-1.614 -1.39399,-1.3939 -1.83419,-1.1004 -2.27439,-0.807 -2.4945,20.0283 z"/><path id="path2433" style="fill:#000000;fill-opacity:1;fill-rule:evenodd;stroke:none" d="m -1035.9368,7968.3387 0,29.2721 -111.8855,0 0,-29.2721 111.8855,0 z"/><path id="path2435" style="fill:#000000;fill-opacity:1;fill-rule:evenodd;stroke:none" d="m -997.27205,7988.7338 0,9.2438 -38.66475,0 0,-9.2438 38.66475,0 z"/><path id="path2437" style="fill:#000000;fill-opacity:1;fill-rule:evenodd;stroke:none" d="m -957.94704,7988.0735 0,8.877 -39.32501,0 0,-8.877 39.32501,0 z"/><path id="path2439" style="fill:#000000;fill-opacity:1;fill-rule:evenodd;stroke:none" d="m -922.7306,7992.8421 0,6.8228 -35.95011,0 0,-6.8228 35.95011,0 z"/><path id="path2441" style="fill:#000000;fill-opacity:1;fill-rule:evenodd;stroke:none" d="m -1023.6844,7983.2315 1.1739,0.5869 1.0271,0.8804 0.7337,1.2471 0.5136,1.4673 0.1467,1.6874 -0.1467,1.8341 -0.4402,1.9808 -0.7337,1.9808 -1.0271,1.8341 -1.1739,1.6874 -1.3206,1.4672 -1.4674,1.1739 -1.5407,0.8803 -1.6141,0.5869 -1.5407,0.2201 -1.4674,-0.2201 -1.1738,-0.5869 -1.0272,-0.8803 -0.7337,-1.1739 -0.5135,-1.4672 -0.1468,-1.6874 0.073,-1.8341 0.4402,-1.9808 0.7337,-1.9808 1.0271,-1.8341 1.2473,-1.6874 1.3206,-1.4673 1.4673,-1.2471 1.5408,-0.8804 1.614,-0.5869 1.5408,-0.2201 1.4673,0.2201 z"/><path id="path2443" style="fill:#000000;fill-opacity:1;fill-rule:evenodd;stroke:none" d="m -1000.5736,7984.0385 1.02715,0.5869 0.95378,0.807 0.73367,1.1005 0.58695,1.3205 0.36684,1.4673 0.14672,1.6873 -0.0734,1.7608 -0.36684,1.7607 -0.51357,1.6873 -0.73367,1.4673 -0.80705,1.3206 -1.02708,1.0271 -1.0272,0.8803 -1.1739,0.5136 -1.1738,0.1467 -1.1005,-0.1467 -1.0272,-0.5136 -0.8804,-0.8803 -0.7337,-1.0271 -0.5869,-1.3206 -0.2935,-1.4673 -0.1467,-1.6873 0.073,-1.7607 0.2935,-1.7608 0.5136,-1.6873 0.7337,-1.4673 0.807,-1.3205 0.9538,-1.1005 1.1005,-0.807 1.1005,-0.5869 1.1739,-0.1467 1.1005,0.1467 z"/><path id="path2445" style="fill:#000000;fill-opacity:1;fill-rule:evenodd;stroke:none" d="m -978.93016,7982.8647 1.90756,0.5135 1.68744,0.8804 1.54072,1.1738 1.17389,1.3939 0.95378,1.614 0.58694,1.7607 0.2201,1.9075 -0.2201,1.9074 -0.58694,1.8341 -0.95378,1.614 -1.17389,1.3939 -1.54072,1.1739 -1.68744,0.8803 -1.90756,0.5136 -2.0543,0.2201 -2.05429,-0.2201 -1.90756,-0.5136 -1.68745,-0.8803 -1.46735,-1.1739 -1.24725,-1.3939 -0.95378,-1.614 -0.58694,-1.8341 -0.2201,-1.9074 0.2201,-1.9075 0.58694,-1.7607 0.95378,-1.614 1.24725,-1.3939 1.46735,-1.1738 1.68745,-0.8804 1.90756,-0.5135 2.05429,-0.2201 2.0543,0.2201 z"/><path id="path2447" style="fill:#000000;fill-opacity:1;fill-rule:evenodd;stroke:none" d="m -959.41439,7983.4516 1.10052,0.5135 0.95377,0.8804 0.73367,1.0271 0.58695,1.3205 0.36684,1.5407 0.14673,1.6873 -0.0734,1.7608 -0.36684,1.7607 -0.51358,1.6873 -0.73367,1.5407 -0.95378,1.3205 -1.02715,1.0271 -1.10051,0.8804 -1.24725,0.5135 -1.24725,0.1468 -1.17388,-0.1468 -1.10051,-0.5135 -0.95378,-0.8804 -0.73368,-1.0271 -0.58694,-1.3205 -0.36684,-1.5407 -0.14673,-1.6873 0.0734,-1.7607 0.36684,-1.7608 0.51357,-1.6873 0.73367,-1.5407 0.95378,-1.3205 1.02715,-1.0271 1.10051,-0.8804 1.24725,-0.5135 1.24725,-0.1468 1.17388,0.1468 z"/><path id="path2449" style="fill:#000000;fill-opacity:1;fill-rule:evenodd;stroke:none" d="m -939.23831,7985.5058 1.24725,0.5135 1.10052,0.8804 0.80704,1.0271 0.58694,1.3205 0.36683,1.5406 0.0734,1.6874 -0.2201,1.7607 -0.51357,1.7608 -0.80705,1.6873 -1.02714,1.5407 -1.17388,1.3205 -1.32062,1.0271 -1.39398,0.8804 -1.46735,0.5135 -1.54072,0.1467 -1.39399,-0.1467 -1.24724,-0.5135 -1.10052,-0.8804 -0.80704,-1.0271 -0.66031,-1.3205 -0.36684,-1.5407 0,-1.6873 0.22011,-1.7608 0.51357,-1.7607 0.80704,-1.6874 1.02715,-1.5406 1.17388,-1.3205 1.32061,-1.0271 1.39399,-0.8804 1.46735,-0.5135 1.54072,-0.1468 1.39398,0.1468 z"/><path id="path2451" style="fill:#000000;fill-opacity:1;fill-rule:evenodd;stroke:none" d="m -925.07837,7992.1819 1.54072,0.3668 1.32062,0.6602 1.02715,0.8804 0.88041,1.0271 0.51357,1.2472 0.29347,1.3205 -0.0734,1.5407 -0.29347,1.5406 -0.44021,1.614 -0.58695,1.5406 -0.8804,1.3206 -1.24725,1.1004 -1.54072,0.7337 -2.0543,0.2934 -2.56786,-0.2201 -2.4945,-0.5135 -1.83419,-0.5869 -1.24724,-0.7337 -0.80704,-0.807 -0.51358,-0.9537 -0.29347,-1.1004 -0.0734,-1.3206 -0.0734,-1.5406 0.14674,-1.614 0.66031,-1.3939 0.95378,-1.3206 1.24724,-1.1004 1.54072,-0.8804 1.68746,-0.6603 1.76082,-0.4401 1.76083,-0.1468 1.68744,0.1468 z"/></g></g></g><g id="g1327" transform="matrix(0.4327767,0,0,0.4327767,2172.3218,562.82943)"/></g></svg>