<?xml version="1.0" encoding="UTF-8" standalone="no"?>
<svg xmlns:dc="http://purl.org/dc/elements/1.1/" xmlns:cc="http://creativecommons.org/ns#" xmlns:rdf="http://www.w3.org/1999/02/22-rdf-syntax-ns#" xmlns:svg="http://www.w3.org/2000/svg" xmlns="http://www.w3.org/2000/svg" xmlns:sodipodi="http://sodipodi.sourceforge.net/DTD/sodipodi-0.dtd" xmlns:inkscape="http://www.inkscape.org/namespaces/inkscape" id="svg2" version="1.1" viewBox="0 0 500 440"><defs id="defs4"/><metadata id="metadata7"><rdf:RDF><cc:Work rdf:about=""><dc:format>image/svg+xml</dc:format><dc:type rdf:resource="http://purl.org/dc/dcmitype/StillImage"/><dc:title/></cc:Work></rdf:RDF></metadata><g id="layer1" transform="translate(182.33681,-429.48574)"><g id="use3384" transform="matrix(0.70090825,0,0,0.69991898,-193.1769,379.2126)"><path transform="matrix(0.806617,0,0,0.806617,137.24505,129.88708)" style="fill:#ffffff;fill-opacity:1;stroke:#000000;stroke-width:12.5;stroke-linecap:round;stroke-miterlimit:4;stroke-opacity:1" id="path6639" d="m 291.34375,-65.6875 c -10.8681,0.534341 -20.7122,6.547321 -26.15625,15.96875 l -405.625,702.625 c -5.72548,9.91086 -5.72052,22.11697 0,32.03125 5.72051,9.91429 16.27297,16.02815 27.71875,16.03125 l 807.875,0.15625 c 11.41896,-0.006 21.96022,-6.08998 27.6875,-15.96875 5.7273,-9.87876 5.7621,-22.05583 0.0937,-31.96875 L 320.6875,-49.59375 C 314.70518,-60.05227 303.37823,-66.2707 291.34375,-65.6875 z"/><path transform="matrix(0.806617,0,0,0.806617,137.24379,129.6198)" style="fill:#ffcc00;fill-opacity:1;fill-rule:evenodd;stroke:#000000;stroke-width:29.4439621;stroke-linecap:round;stroke-linejoin:round;stroke-miterlimit:4;stroke-opacity:1;stroke-dasharray:none" id="path6641" d="m 292.90625,-32.375 -404.5,700.65625 805.625,0.15625 C 560.31943,434.82625 426.61912,201.23809 292.90625,-32.375 z"/></g><g id="g1327" transform="matrix(0.4327767,0,0,0.4327767,2172.3218,562.82943)"/><path id="path24" style="color:#000000;fill:#000000;fill-opacity:1;fill-rule:nonzero;stroke:none;stroke-width:150;marker:none;visibility:visible;display:inline;overflow:visible;enable-background:accumulate" d="m 78.480763,569.23045 c 0.6115,0.12609 1.1555,0.29492 1.5928,0.47857 2.3323,0.97954 4.255,5.14912 2.8372,9.14205 l -9.3148,26.23854 c -1.2031,2.12859 -2.9152,3.72245 -5.0623,4.52148 l -11.2191,4.18006 c -3.966,1.79745 -4.4224,4.9615 -4.1661,8.52298 0.4781,5.56696 3.1331,13.46249 3.8962,16.18075 0.9299,3.31258 7.0959,-1.27736 10.9684,-2.67743 l 16.7474,-6.04641 c 6.108998,-2.20863 10.643598,-2.92923 16.001997,5.79562 4.1576,6.76947 8.3251,13.51981 12.476,20.0514 2.5258,3.97448 3.0515,5.35093 5.9333,9.96713 1.6961,2.71691 1.6368,3.4083 1.3636,6.35058 -0.5297,5.7038 -7.9364,8.31372 -12.917,5.44271 -4.4704,-2.57688 -12.558599,-25.70687 -17.946999,-29.83391 -2.1666,-1.65948 -24.250098,7.90742 -25.525698,10.17883 2.9032,3.61182 20.094,16.05509 21.8125,18.59186 l 16.903297,35.26212 c 4.3532,9.28834 -8.940099,19.85729 -17.062697,5.79431 -5.2044,-10.70046 -7.4287,-22.87065 -15.615,-32.10423 -5.9297,-5.98702 -22.7874,-17.93688 -26.9169,-18.73092 -12.7385,-2.65607 -9.0954,-10.56872 -11.2744,-16.64214 l -6.8638,-22.0548 -3.4385,-1.73332 -13.2095004,5.76936 c -0.7546,0.26153 -3.2788,1.91683 -3.623,3.70693 l -3.5998,18.72176 c -1.93940003,10.08616 -14.7054006,7.47454 -12.7951006,-2.46025 l 4.1288004,-21.47279 c 0.7097,-3.69069 3.7483,-6.75342 5.5352002,-7.87681 9.8688,-5.04734 16.6636004,-11.71903 29.7041004,-15.0809 9.0163,-2.42821 33.662,-7.8516 36.0184,-14.36456 l 6.1627,-18.20982 c 1.9168,-5.67622 5.8187,-6.15526 8.4688,-5.60875 z m -40.0629,2.5397 c 6.6146,1.27143 10.7267,8.73402 9.2022,16.66491 l -0.01,0.0369 c -1.5378,7.91429 -8.1158,13.29617 -14.7191,12.02701 -6.6147,-1.27144 -10.7452,-8.73758 -9.2207,-16.66847 1.5245,-7.93089 8.13,-13.33171 14.7447,-12.06038 z m 124.402497,236.32355 -34.6438,0 0,-35.26048 -34.420399,0 0,-35.49851 -34.963598,0 0,-34.83852 -34.7265,0 0,-34.61089 -51.5601,0 0,17.65902 34.2767996,0 0,34.74245 34.7658004,0 0,35.23149 34.6948,0 0,35.04799 34.838597,0 0,35.3453 51.7384,0 0,-17.81785 z"/></g></svg>