<?xml version="1.0" encoding="UTF-8" standalone="no"?>
<svg xmlns:dc="http://purl.org/dc/elements/1.1/" xmlns:cc="http://creativecommons.org/ns#" xmlns:rdf="http://www.w3.org/1999/02/22-rdf-syntax-ns#" xmlns:svg="http://www.w3.org/2000/svg" xmlns="http://www.w3.org/2000/svg" xmlns:sodipodi="http://sodipodi.sourceforge.net/DTD/sodipodi-0.dtd" xmlns:inkscape="http://www.inkscape.org/namespaces/inkscape" id="svg2" version="1.1" viewBox="0 0 500 440"><defs id="defs4"/><metadata id="metadata7"><rdf:RDF><cc:Work rdf:about=""><dc:format>image/svg+xml</dc:format><dc:type rdf:resource="http://purl.org/dc/dcmitype/StillImage"/><dc:title/></cc:Work></rdf:RDF></metadata><g id="layer1" transform="translate(3225.6445,1585.6856)"><g id="g4772" transform="translate(-10711.686,-5177.5767)"><g transform="matrix(0.70090825,0,0,0.69991898,7475.2014,3541.618)" id="use8378"><path d="m 291.34375,-65.6875 c -10.8681,0.534341 -20.7122,6.547321 -26.15625,15.96875 l -405.625,702.625 c -5.72548,9.91086 -5.72052,22.11697 0,32.03125 5.72051,9.91429 16.27297,16.02815 27.71875,16.03125 l 807.875,0.15625 c 11.41896,-0.006 21.96022,-6.08998 27.6875,-15.96875 5.7273,-9.87876 5.7621,-22.05583 0.0937,-31.96875 L 320.6875,-49.59375 C 314.70518,-60.05227 303.37823,-66.2707 291.34375,-65.6875 z" id="path6507" style="fill:#ffffff;fill-opacity:1;stroke:#000000;stroke-width:12.5;stroke-linecap:round;stroke-miterlimit:4;stroke-opacity:1" transform="matrix(0.806617,0,0,0.806617,137.24505,129.88708)"/><path d="m 292.90625,-32.375 -404.5,700.65625 805.625,0.15625 C 560.31943,434.82625 426.61912,201.23809 292.90625,-32.375 z" id="path6509" style="fill:#ffcc00;fill-opacity:1;fill-rule:evenodd;stroke:#000000;stroke-width:29.4439621;stroke-linecap:round;stroke-linejoin:round;stroke-miterlimit:4;stroke-opacity:1;stroke-dasharray:none" transform="matrix(0.806617,0,0,0.806617,137.24379,129.6198)"/></g><g transform="matrix(3.641621,0,0,3.5065493,7450.1542,3578.986)" id="g1764"><path style="fill:#000000;stroke:none" id="path1765" d="m 84.9045,65.4738 c -6.561,1.0527 -13.2026,4.3735 -19.8447,3.1587 -1.2148,-1.2149 -0.8101,-3.6451 -0.3237,-5.1026 l 1.539,-1.1343 c 5.7505,-1.2959 11.6636,-2.0249 17.0904,-3.8881 0.8911,2.1064 1.1342,4.6171 1.539,6.9663 z"/><path style="fill:#ffcc00;stroke:none" id="path1766" d="m 83.7707,63.5299 0,0.8096 -17.9008,0 c 4.7788,-2.6729 11.1777,-2.835 16.6855,-4.293 l 1.2153,3.4834 z"/><path style="fill:#000000;stroke:none" id="path1767" d="m 86.1199,75.1935 c -0.7295,0.3242 -1.1343,1.0532 -1.9444,0.81 -3.0776,-1.9438 0.648,-3.9692 0.3242,-6.2368 0.4859,1.458 2.2681,3.0777 1.6202,5.4268 z"/><path style="fill:#000000;stroke:none" id="path1768" d="m 72.1067,75.1935 c 1.8633,1.2148 2.4302,3.3208 1.539,5.103 -1.1338,2.106 -3.5639,2.187 -5.4267,1.5391 -4.6983,-1.0532 -9.5581,-2.6734 -14.0132,-3.1592 -0.3237,-2.0249 0.4053,-5.3457 1.1343,-7.7759 5.1841,2.4302 11.0967,2.916 16.7666,4.293 z"/><path style="fill:#ffcc00;stroke:none" id="path1769" d="m 72.1067,76.7325 -17.0908,0 1.1342,-4.2119 c 5.5078,0.8101 10.6109,2.7539 15.9566,4.2119 z"/><path style="fill:#000000;stroke:none" id="path1770" d="m 86.4436,89.6115 c -0.5669,0.6479 -1.5391,0.2426 -2.2681,0.4047 -2.1059,-2.268 1.2959,-4.1308 0.729,-6.6416 1.7012,1.6197 1.7012,4.3736 1.5391,6.2369 z"/><path style="fill:#000000;stroke:none" id="path1771" d="m 55.0159,90.0162 c -0.9717,-0.2431 -2.2681,0.4859 -2.754,-0.81 l 1.1343,-5.022 c 1.1338,1.7012 2.835,3.645 1.6197,5.832 z"/><path style="fill:#000000;stroke:none" id="path1772" d="m 113.335,97.3873 c 1.701,0.648 3.888,0.2427 5.832,0.4048 l 0,15.1469 c -8.424,1.62 -16.766,4.536 -25.2718,1.134 -5.2646,-1.053 -11.5825,0.729 -16.3613,-1.539 -0.7016,-1.618 0.4165,-1.69 1.3233,-2.03 0.5258,-0.078 0.9824,-0.227 1.4306,-0.319 10.4868,-0.009 12.8252,0.412 12.9873,0.169 -0.2417,-0.09 0.2466,-1.22 -0.1958,-1.272 -3.8115,-0.447 -15.3642,0.984 -19.436,-0.619 -0.6089,-0.239 -0.6797,-0.441 -0.9819,-0.793 -0.1944,-0.226 -0.1094,-0.688 -0.1495,-0.968 l 0.3384,-0.354 0.8428,-0.081 19.2983,-0.668 c -0.1953,-0.09 0.1187,-1.064 -0.1079,-1.116 -1.6255,-0.372 -21.8506,0.949 -22.9282,-0.152 -0.3911,-0.399 -0.4873,-0.917 -0.4678,-1.837 0.3023,-0.34 0.5108,-0.55 0.8628,-0.712 2.4629,-1.131 19.4058,0.131 22.0816,-0.493 0.601,0.098 -0.4297,-0.15 0.0268,-0.419 -0.6401,-0.183 -13.5093,-0.674 -14.2129,-0.745 -1.789,-0.1815 -3.6118,-0.2665 -4.6001,-1.6039 -0.5669,-1.7011 1.377,-1.9438 2.3492,-2.3491 2.0249,-0.4858 3.4018,0.891 5.4267,0.4053 -0.081,0.81 0.0811,1.458 0.8101,1.9438 2.6728,1.7009 5.4267,-1.2148 8.0996,-1.9438 0.81,-0.0811 1.7822,0.3237 2.3491,-0.4053 -1.3769,-0.9717 -3.4019,-2.2676 -3.0781,-4.2119 8.2622,1.0532 17.0907,0.4863 23.7327,5.4272 z"/><path style="fill:#000000;stroke:none" id="path1773" d="m 55.7449,99.736 c -0.648,0.81 -1.8628,1.62 -2.6729,0.729 -1.2959,-1.5386 0.0811,-4.0498 0.729,-5.8316 1.7012,1.2959 1.377,3.3208 1.9439,5.1026 z"/><path style="fill:#000000;stroke:none" id="path1774" d="m 50.3181,103.624 c 1.5391,3.078 5.2646,2.187 7.7759,1.944 0.81,-3.645 4.6977,-1.296 6.9658,-1.944 l 0,5.427 -27.2158,0 0,-5.427 12.4741,0 z"/></g></g><g id="g1327" transform="matrix(0.4327767,0,0,0.4327767,2172.3218,562.82943)"/></g></svg>