<?xml version="1.0" encoding="UTF-8" standalone="no"?>
<svg xmlns:dc="http://purl.org/dc/elements/1.1/" xmlns:cc="http://creativecommons.org/ns#" xmlns:rdf="http://www.w3.org/1999/02/22-rdf-syntax-ns#" xmlns:svg="http://www.w3.org/2000/svg" xmlns="http://www.w3.org/2000/svg" xmlns:sodipodi="http://sodipodi.sourceforge.net/DTD/sodipodi-0.dtd" xmlns:inkscape="http://www.inkscape.org/namespaces/inkscape" id="svg2" version="1.1" viewBox="0 0 500 440"><defs id="defs4"/><metadata id="metadata7"><rdf:RDF><cc:Work rdf:about=""><dc:format>image/svg+xml</dc:format><dc:type rdf:resource="http://purl.org/dc/dcmitype/StillImage"/><dc:title/></cc:Work></rdf:RDF></metadata><g id="layer1" transform="translate(1778.3779,629.15416)"><g id="g3990" transform="translate(2917.3206,-1058.6399)"><g transform="matrix(0.70090825,0,0,0.69991898,-4706.5386,379.2126)" id="use3910"><path d="m 291.34375,-65.6875 c -10.8681,0.534341 -20.7122,6.547321 -26.15625,15.96875 l -405.625,702.625 c -5.72548,9.91086 -5.72052,22.11697 0,32.03125 5.72051,9.91429 16.27297,16.02815 27.71875,16.03125 l 807.875,0.15625 c 11.41896,-0.006 21.96022,-6.08998 27.6875,-15.96875 5.7273,-9.87876 5.7621,-22.05583 0.0937,-31.96875 L 320.6875,-49.59375 C 314.70518,-60.05227 303.37823,-66.2707 291.34375,-65.6875 z" id="path6381" style="fill:#ffffff;fill-opacity:1;stroke:#000000;stroke-width:12.5;stroke-linecap:round;stroke-miterlimit:4;stroke-opacity:1" transform="matrix(0.806617,0,0,0.806617,137.24505,129.88708)"/><path d="m 292.90625,-32.375 -404.5,700.65625 805.625,0.15625 C 560.31943,434.82625 426.61912,201.23809 292.90625,-32.375 z" id="path6383" style="fill:#ffcc00;fill-opacity:1;fill-rule:evenodd;stroke:#000000;stroke-width:29.4439621;stroke-linecap:round;stroke-linejoin:round;stroke-miterlimit:4;stroke-opacity:1;stroke-dasharray:none" transform="matrix(0.806617,0,0,0.806617,137.24379,129.6198)"/></g><g transform="matrix(8.4868756,0,0,8.4868756,-8092.6169,-3529.4178)" id="g4278" style="display:inline"><g id="g5046"><path id="path4266" d="m 435.01467,496.52592 -0.71875,2.125 -5,0.15625 1,2.03125 -3.40625,3.65625 2.125,0.71875 0.1875,5 2,-1 3.65625,3.40625 0.71875,-2.125 5,-0.15625 -1,-2.03125 3.4375,-3.65625 -2.15625,-0.71875 -0.15625,-5 -2.03125,1 -3.65625,-3.40625 z m -0.0625,4.96875 c 1.70575,0 3.09375,1.38799 3.09375,3.09375 -1e-5,1.70576 -1.38799,3.0625 -3.09375,3.0625 -1.70577,0 -3.09375,-1.35674 -3.09375,-3.0625 -1e-5,-1.70577 1.38799,-3.09375 3.09375,-3.09375 z m 0,2.1875 c -0.49055,0 -0.875,0.4157 -0.875,0.90625 0,0.49055 0.38445,0.875 0.875,0.875 0.49055,0 0.90625,-0.38445 0.90625,-0.875 0,-0.49055 -0.4157,-0.90625 -0.90625,-0.90625 z" style="color:#000000;fill:#000000;fill-opacity:1;fill-rule:nonzero;stroke:none;stroke-width:0.40000001;marker:none;visibility:visible;display:inline;overflow:visible"/><path id="path4274" d="m 412.22209,512.73701 34.98132,0 -1.07257,-1.85774 -8.62203,0.04 c -0.38181,1.06217 -1.93212,1.16173 -2.82758,0.92906 l -22.44399,0 -0.0152,0.88867 z" style="fill:#000000;fill-opacity:1;fill-rule:evenodd;stroke:none"/><path id="path4276" d="m 417.69549,500.09365 0,8.40198 1.03006,0 c 0.137,0.23958 0.0683,0.48268 0,0.6665 -0.8082,1.07587 -0.69311,1.76622 -0.71485,2.66785 l 10.57101,0 c -0.12803,-0.84259 -0.28784,-1.83984 -2.60542,-2.02154 -1.01215,-0.10348 -2.19919,-0.008 -2.54483,-0.86848 l 0.0202,-0.44433 1.00985,0 0,-8.40198 -1.05025,0 0,7.51331 -4.62512,0 0,-7.47292 -1.09065,-0.0404 z" style="fill:#000000;fill-opacity:1;fill-rule:evenodd;stroke:none"/></g></g></g><g id="g1327" transform="matrix(0.4327767,0,0,0.4327767,2172.3218,562.82943)"/></g></svg>