<?xml version="1.0" encoding="UTF-8" standalone="no"?>
<svg xmlns:dc="http://purl.org/dc/elements/1.1/" xmlns:cc="http://creativecommons.org/ns#" xmlns:rdf="http://www.w3.org/1999/02/22-rdf-syntax-ns#" xmlns:svg="http://www.w3.org/2000/svg" xmlns="http://www.w3.org/2000/svg" xmlns:sodipodi="http://sodipodi.sourceforge.net/DTD/sodipodi-0.dtd" xmlns:inkscape="http://www.inkscape.org/namespaces/inkscape" id="svg2" version="1.1" viewBox="0 0 500 440"><defs id="defs4"/><metadata id="metadata7"><rdf:RDF><cc:Work rdf:about=""><dc:format>image/svg+xml</dc:format><dc:type rdf:resource="http://purl.org/dc/dcmitype/StillImage"/><dc:title/></cc:Work></rdf:RDF></metadata><g id="layer1" transform="translate(1881.7314,1131.2637)"><g id="g3884" transform="translate(3321.3816,-1026.315)"><g transform="matrix(0.70090825,0,0,0.69991898,-5213.9531,-155.2218)" id="use9022"><path d="m 291.34375,-65.6875 c -10.8681,0.534341 -20.7122,6.547321 -26.15625,15.96875 l -405.625,702.625 c -5.72548,9.91086 -5.72052,22.11697 0,32.03125 5.72051,9.91429 16.27297,16.02815 27.71875,16.03125 l 807.875,0.15625 c 11.41896,-0.006 21.96022,-6.08998 27.6875,-15.96875 5.7273,-9.87876 5.7621,-22.05583 0.0937,-31.96875 L 320.6875,-49.59375 C 314.70518,-60.05227 303.37823,-66.2707 291.34375,-65.6875 z" id="path6519" style="fill:#ffffff;fill-opacity:1;stroke:#000000;stroke-width:12.5;stroke-linecap:round;stroke-miterlimit:4;stroke-opacity:1" transform="matrix(0.806617,0,0,0.806617,137.24505,129.88708)"/><path d="m 292.90625,-32.375 -404.5,700.65625 805.625,0.15625 C 560.31943,434.82625 426.61912,201.23809 292.90625,-32.375 z" id="path6521" style="fill:#ffcc00;fill-opacity:1;fill-rule:evenodd;stroke:#000000;stroke-width:29.4439621;stroke-linecap:round;stroke-linejoin:round;stroke-miterlimit:4;stroke-opacity:1;stroke-dasharray:none" transform="matrix(0.806617,0,0,0.806617,137.24379,129.6198)"/></g><g transform="matrix(8.4868756,0,0,8.4868756,-8323.6821,-3243.2601)" id="g4450" style="display:inline"><path style="fill:none;stroke:#000000;stroke-width:0.49713001;stroke-linecap:butt;stroke-linejoin:round;stroke-miterlimit:4;stroke-opacity:1;stroke-dasharray:none" d="m 391.34624,415.7989 c 2.80063,-1.26889 4.88049,-1.63681 8.76673,-4.26271 l 6.35386,-6.83642 c 0.20079,-1.37573 -0.74085,-1.65016 -1.689,-1.689 l -7.319,7.72114" id="path4471"/><path style="fill:none;stroke:#000000;stroke-width:0.49713001;stroke-linecap:round;stroke-linejoin:round;stroke-miterlimit:4;stroke-opacity:1;stroke-dasharray:none" d="m 404.69558,403.08681 1.52993,-1.68461 c 0.34215,-1.81908 -0.96083,-2.26101 -2.252,-1.76943 l -8.68627,8.76671" id="path4473"/><path style="fill:none;stroke:#000000;stroke-width:0.49713001;stroke-linecap:butt;stroke-linejoin:round;stroke-miterlimit:4;stroke-opacity:1;stroke-dasharray:none" d="m 401.1163,402.3771 -1.96847,-1.29662 -5.71045,5.71043" id="path4475"/><path style="fill:none;stroke:#000000;stroke-width:0.49713001;stroke-linecap:butt;stroke-linejoin:round;stroke-miterlimit:4;stroke-opacity:1;stroke-dasharray:none" d="m 399.08762,401.06256 -2.18538,-1.35349 -5.31472,5.07113" id="path4477"/><path style="fill:none;stroke:#000000;stroke-width:0.49713001;stroke-linecap:butt;stroke-linejoin:round;stroke-miterlimit:4;stroke-opacity:1;stroke-dasharray:none" d="m 391.66797,404.63945 -0.40214,-3.63939 c -0.36516,-1.92662 -2.9672,-2.32363 -3.45845,-0.48258 l 0.16086,10.134" id="path4479-1"/><path style="fill:none;stroke:#000000;stroke-width:0.248565;stroke-linecap:butt;stroke-linejoin:round;stroke-miterlimit:4;stroke-opacity:1;stroke-dasharray:none" d="m 395.08739,398.96791 c 0.11372,0 7.52408,1.61287 7.52408,1.61287" id="path4481-9"/><path style="fill:none;stroke:#000000;stroke-width:0.248565;stroke-linecap:butt;stroke-linejoin:round;stroke-miterlimit:4;stroke-opacity:1;stroke-dasharray:none" d="m 402.36695,400.41814 1.19427,-4.74877 c -0.16902,-1.16081 -1.66799,-2.06541 -2.64452,-0.42654 l -1.11533,4.73755" id="path4483-9"/><path style="fill:none;stroke:#000000;stroke-width:0.248565;stroke-linecap:butt;stroke-linejoin:round;stroke-miterlimit:4;stroke-opacity:1;stroke-dasharray:none" d="m 400.41267,397.32335 c 0.13986,-2.01568 -2.60942,-2.11486 -2.99826,-0.50877 l -0.6256,2.47391" id="path4485"/></g></g><g id="g1327" transform="matrix(0.4327767,0,0,0.4327767,2172.3218,562.82943)"/></g></svg>