<?xml version="1.0" encoding="UTF-8" standalone="no"?>
<svg xmlns:dc="http://purl.org/dc/elements/1.1/" xmlns:cc="http://creativecommons.org/ns#" xmlns:rdf="http://www.w3.org/1999/02/22-rdf-syntax-ns#" xmlns:svg="http://www.w3.org/2000/svg" xmlns="http://www.w3.org/2000/svg" xmlns:sodipodi="http://sodipodi.sourceforge.net/DTD/sodipodi-0.dtd" xmlns:inkscape="http://www.inkscape.org/namespaces/inkscape" id="svg2" version="1.1" viewBox="0 0 500 440"><defs id="defs4"/><metadata id="metadata7"><rdf:RDF><cc:Work rdf:about=""><dc:format>image/svg+xml</dc:format><dc:type rdf:resource="http://purl.org/dc/dcmitype/StillImage"/><dc:title/></cc:Work></rdf:RDF></metadata><g id="layer1" transform="translate(2955.4115,2661.6763)"><g transform="matrix(0.70090825,0,0,0.69991898,-2966.2516,-2711.9494)" id="use8388"><path d="m 291.34375,-65.6875 c -10.8681,0.534341 -20.7122,6.547321 -26.15625,15.96875 l -405.625,702.625 c -5.72548,9.91086 -5.72052,22.11697 0,32.03125 5.72051,9.91429 16.27297,16.02815 27.71875,16.03125 l 807.875,0.15625 c 11.41896,-0.006 21.96022,-6.08998 27.6875,-15.96875 5.7273,-9.87876 5.7621,-22.05583 0.0937,-31.96875 L 320.6875,-49.59375 C 314.70518,-60.05227 303.37823,-66.2707 291.34375,-65.6875 z" id="path5739" style="fill:#ffffff;fill-opacity:1;stroke:#000000;stroke-width:12.5;stroke-linecap:round;stroke-miterlimit:4;stroke-opacity:1" transform="matrix(0.806617,0,0,0.806617,137.24505,129.88708)"/><path d="m 292.90625,-32.375 -404.5,700.65625 805.625,0.15625 C 560.31943,434.82625 426.61912,201.23809 292.90625,-32.375 z" id="path5741" style="fill:#ffcc00;fill-opacity:1;fill-rule:evenodd;stroke:#000000;stroke-width:29.4439621;stroke-linecap:round;stroke-linejoin:round;stroke-miterlimit:4;stroke-opacity:1;stroke-dasharray:none" transform="matrix(0.806617,0,0,0.806617,137.24379,129.6198)"/></g><path style="fill:#000000;fill-opacity:1;stroke:none" d="m -2791.8381,-2402.3499 -1.5725,8.442 33.0559,6.1575 1.5726,-8.4421 -33.056,-6.1574 z m 62.4449,11.6318 -1.5726,8.4421 66.1647,12.3248 1.5725,-8.4421 -66.1646,-12.3248 z m 95.5535,17.7992 -1.5725,8.442 33.0559,6.1575 1.5726,-8.442 -33.056,-6.1575 z" id="rect1936"/><path style="fill:#000000;fill-opacity:1;stroke:none" d="m -2797.3813,-2372.5917 -1.5725,8.4421 33.0559,6.1575 1.5726,-8.4421 -33.056,-6.1575 z m 62.4449,11.6319 -1.5726,8.4421 66.1647,12.3247 1.5725,-8.4421 -66.1646,-12.3247 z m 95.5535,17.7991 -1.5725,8.4421 33.0559,6.1575 1.5726,-8.4421 -33.056,-6.1575 z" id="rect2825"/><path style="fill:#000000;fill-opacity:1;stroke:none" d="m -2808.4677,-2313.0752 -1.5725,8.4421 33.0559,6.1575 1.5726,-8.4421 -33.056,-6.1575 z m 62.4449,11.6319 -1.5725,8.4421 66.1646,12.3247 1.5725,-8.442 -66.1646,-12.3248 z m 95.5535,17.7992 -1.5725,8.442 33.0559,6.1575 1.5726,-8.4421 -33.056,-6.1574 z" id="rect2829"/><path style="fill:#000000;fill-opacity:1;stroke:none" d="m -2802.9245,-2342.8334 -1.5725,8.4421 33.0559,6.1574 1.5726,-8.442 -33.056,-6.1575 z m 62.4449,11.6318 -1.5726,8.4421 66.1647,12.3248 1.5725,-8.4421 -66.1646,-12.3248 z m 95.5535,17.7992 -1.5725,8.4421 33.0559,6.1574 1.5726,-8.442 -33.056,-6.1575 z" id="rect2827"/><path style="fill:#000000;fill-opacity:1;stroke:none" d="m -2662.0394,-2384.7776 -20.2611,108.7706 29.3889,5.4744 20.2612,-108.7706 -29.389,-5.4744 z m 6.8763,10.125 12.4256,2.3146 -17.0767,91.6755 -12.4257,-2.3146 17.0768,-91.6755 z" id="rect2839"/><path id="path2870" d="m -2728.204,-2397.1024 -20.2612,108.7707 -29.3889,-5.4744 20.2612,-108.7707 29.3889,5.4744 z m -10.0606,6.9702 -12.4257,-2.3146 -17.0768,91.6755 12.4257,2.3145 17.0768,-91.6754 z" style="fill:#000000;fill-opacity:1;stroke:none"/><rect style="fill:#000000;fill-opacity:1;stroke:none" id="rect2889" width="8.5805092" height="94.156456" x="-3184.5557" y="-1847.6776" transform="matrix(0.9830898,0.18312415,-0.18312415,0.9830898,0,0)"/><rect y="-1847.6776" x="-2998.7957" height="94.156456" width="8.5805092" id="rect2891" style="fill:#000000;fill-opacity:1;stroke:none" transform="matrix(0.9830898,0.18312415,-0.18312415,0.9830898,0,0)"/><path style="fill:#000000;fill-opacity:1;fill-rule:evenodd;stroke:none" d="m -2784.2535,-2301.5302 72.5128,-177.1782 c 2.8297,-3.3911 7.4426,-1.5797 7.2289,3.1589 l -72.3038,177.0728 c -1.9405,3.748 -8.3199,2.7073 -7.4379,-3.0535 z" id="path2899"/><path style="fill:#000000;fill-opacity:1;fill-rule:evenodd;stroke:none" d="m -2697.412,-2480.4907 c -1.7482,-0.1549 -3.3841,1.3514 -3.5188,3.3571 l 11.4188,44.8622 -4.1304,9.2848 7.2077,-8.7272 11.5352,5.3026 -7.9874,-6.7856 -11.5468,-44.9649 c -0.8221,-1.5508 -1.9294,-2.2361 -2.9783,-2.329 z m 25.2517,72.1627 -5.7796,8.8236 -12.6927,-5.0453 9.9952,8.6195 29.6237,121.6566 c 3.5759,2.8642 7.7405,1.4567 7.6491,-2.6697 l -30.5537,-120.3908 1.758,-10.9939 z" id="path2901"/><rect style="fill:#000000;fill-opacity:1;stroke:none" id="rect2951" width="18.248796" height="10.074857" x="-2712.3037" y="-2518.1245"/><path style="fill:#000000;fill-opacity:1;fill-rule:evenodd;stroke:none" d="m -2706.5049,-2510.0395 -0.1975,12.5461 c 8.3766,0.9628 11.8171,9.023 10.2723,14.8271 -2.5251,9.4878 -13.695,4.6825 -19.1992,-3.4216 -2.1487,-3.1637 -5.3515,-1.317 -3.9919,2.091 1.9543,4.8988 6.6057,15.3499 15.2073,15.7776 8.6017,0.4277 18.1143,-5.3286 19.1993,-14.0668 1.4267,-11.4912 -4.6302,-15.2966 -9.3145,-17.8686 -3.9059,-2.1445 -5.5127,-2.2811 -5.5127,-2.2811 l 0,-7.6037 -6.4631,0 z" id="path3838"/><g id="g1327" transform="matrix(0.4327767,0,0,0.4327767,2172.3218,562.82943)"/></g></svg>