<?xml version="1.0" encoding="UTF-8" standalone="no"?>
<svg xmlns:dc="http://purl.org/dc/elements/1.1/" xmlns:cc="http://creativecommons.org/ns#" xmlns:rdf="http://www.w3.org/1999/02/22-rdf-syntax-ns#" xmlns:svg="http://www.w3.org/2000/svg" xmlns="http://www.w3.org/2000/svg" xmlns:sodipodi="http://sodipodi.sourceforge.net/DTD/sodipodi-0.dtd" xmlns:inkscape="http://www.inkscape.org/namespaces/inkscape" id="svg2" version="1.1" viewBox="0 0 500 440"><defs id="defs4"/><metadata id="metadata7"><rdf:RDF><cc:Work rdf:about=""><dc:format>image/svg+xml</dc:format><dc:type rdf:resource="http://purl.org/dc/dcmitype/StillImage"/><dc:title/></cc:Work></rdf:RDF></metadata><g id="layer1" transform="translate(2259.3469,2677.8387)"><g id="g4870" transform="translate(-14637.494,-6269.7298)"><g transform="matrix(0.70090825,0,0,0.69991898,12367.307,3541.618)" id="use8394"><path d="m 291.34375,-65.6875 c -10.8681,0.534341 -20.7122,6.547321 -26.15625,15.96875 l -405.625,702.625 c -5.72548,9.91086 -5.72052,22.11697 0,32.03125 5.72051,9.91429 16.27297,16.02815 27.71875,16.03125 l 807.875,0.15625 c 11.41896,-0.006 21.96022,-6.08998 27.6875,-15.96875 5.7273,-9.87876 5.7621,-22.05583 0.0937,-31.96875 L 320.6875,-49.59375 C 314.70518,-60.05227 303.37823,-66.2707 291.34375,-65.6875 z" id="path5973" style="fill:#ffffff;fill-opacity:1;stroke:#000000;stroke-width:12.5;stroke-linecap:round;stroke-miterlimit:4;stroke-opacity:1" transform="matrix(0.806617,0,0,0.806617,137.24505,129.88708)"/><path d="m 292.90625,-32.375 -404.5,700.65625 805.625,0.15625 C 560.31943,434.82625 426.61912,201.23809 292.90625,-32.375 z" id="path5975" style="fill:#ffcc00;fill-opacity:1;fill-rule:evenodd;stroke:#000000;stroke-width:29.4439621;stroke-linecap:round;stroke-linejoin:round;stroke-miterlimit:4;stroke-opacity:1;stroke-dasharray:none" transform="matrix(0.806617,0,0,0.806617,137.24379,129.6198)"/></g><g transform="translate(14239.338,-1632.0944)" id="g7698"><g id="g2857" transform="matrix(0.86535439,0,0,0.86535439,-1340.4461,5230.3949)"><g id="g2853"><path style="fill:none;stroke:#000000;stroke-width:8.20333099;stroke-linecap:butt;stroke-linejoin:miter;stroke-miterlimit:4;stroke-opacity:1;stroke-dasharray:none" d="m -345.00568,132.20711 c 0,0 27.77441,44.72019 -19.62085,66.69676 -18.55697,8.60463 -43.42358,15.09235 -21.44701,57.45682" id="path1936"/><path style="fill:none;stroke:#000000;stroke-width:8.20333099;stroke-linecap:butt;stroke-linejoin:miter;stroke-miterlimit:4;stroke-opacity:1;stroke-dasharray:none" d="m -362.7458,165.56913 c 2.11822,22.50613 48.29592,16.04838 50.04303,43.15881 1.72926,26.83348 -33.48118,29.47642 -55.07381,27.53691 -67.57545,-6.06982 -50.68029,28.89325 -13.61138,22.00902" id="path1940"/></g><g style="fill:#000000;stroke:none" id="g1961"><path style="fill:#000000;fill-opacity:1;stroke:none" d="m -322.5,276.78125 0,14.75 -64.0625,0 0,-14.5 -26.21875,0 0,14.5 -31.34375,0 0,110.8125 88,0 c 2.61035,2.88082 5.907,6.52113 7.6875,11.28125 4.90635,13.11697 22.91432,17.71944 38.84375,17.21875 43.9276,-1.38073 28.00556,2.8286 50.5,6.65625 16.08419,2.74698 14.68901,11.9111 59.90625,7.75 11.54211,-1.06872 18.33541,-8.237 17.5,-15.8125 -2.05041,-18.75855 -21.62537,-9.07375 -21.65625,-28.84375 -0.0232,-14.91847 -5.23367,-19.52926 -16.09375,-19.40625 -30.98545,0.35097 -34.85584,2.97688 -36.34375,-21.65625 -0.009,0.0115 -0.0225,0.0197 -0.0312,0.0312 l 0,-68.03125 -0.625,0 C -256.91912,281.31466 -259.72501,281 -265.5625,281 l -26.75,0 c -4.1925,0.22459 -5.03125,-4.21875 -5.03125,-4.21875 l -25.15625,0 z M -433.71875,303 l 157.28125,0 0,87.90625 -157.28125,0 0,-87.90625 z" id="rect1934"/><rect style="fill:#000000;fill-opacity:1;stroke:none" id="rect1942" width="34.421135" height="10.061563" x="-317.99832" y="322.58246"/><path style="fill:#000000;fill-opacity:1;stroke:none" d="m -414.125,310.40625 0,12.1875 -12.15625,0 0,10.0625 12.15625,0 0,12.15625 10.0625,0 0,-12.15625 12.1875,0 0,-10.0625 -12.1875,0 0,-12.1875 -10.0625,0 z" id="rect1944"/></g></g></g></g><g id="g1327" transform="matrix(0.4327767,0,0,0.4327767,2172.3218,562.82943)"/></g></svg>