<?xml version="1.0" encoding="UTF-8" standalone="no"?>
<svg xmlns:dc="http://purl.org/dc/elements/1.1/" xmlns:cc="http://creativecommons.org/ns#" xmlns:rdf="http://www.w3.org/1999/02/22-rdf-syntax-ns#" xmlns:svg="http://www.w3.org/2000/svg" xmlns="http://www.w3.org/2000/svg" xmlns:sodipodi="http://sodipodi.sourceforge.net/DTD/sodipodi-0.dtd" xmlns:inkscape="http://www.inkscape.org/namespaces/inkscape" id="svg2" version="1.1" viewBox="0 0 500 440"><defs id="defs4"/><metadata id="metadata7"><rdf:RDF><cc:Work rdf:about=""><dc:format>image/svg+xml</dc:format><dc:type rdf:resource="http://purl.org/dc/dcmitype/StillImage"/><dc:title/></cc:Work></rdf:RDF></metadata><g id="layer1" transform="translate(7643.8775,827.23916)"><g id="g4943" transform="translate(-3321.3816,1010.1526)"><g transform="matrix(0.70090825,0,0,0.69991898,-4333.336,-1887.6649)" id="use8384"><path d="m 291.34375,-65.6875 c -10.8681,0.534341 -20.7122,6.547321 -26.15625,15.96875 l -405.625,702.625 c -5.72548,9.91086 -5.72052,22.11697 0,32.03125 5.72051,9.91429 16.27297,16.02815 27.71875,16.03125 l 807.875,0.15625 c 11.41896,-0.006 21.96022,-6.08998 27.6875,-15.96875 5.7273,-9.87876 5.7621,-22.05583 0.0937,-31.96875 L 320.6875,-49.59375 C 314.70518,-60.05227 303.37823,-66.2707 291.34375,-65.6875 z" id="path5148" style="fill:#ffffff;fill-opacity:1;stroke:#000000;stroke-width:12.5;stroke-linecap:round;stroke-miterlimit:4;stroke-opacity:1" transform="matrix(0.806617,0,0,0.806617,137.24505,129.88708)"/><path d="m 292.90625,-32.375 -404.5,700.65625 805.625,0.15625 C 560.31943,434.82625 426.61912,201.23809 292.90625,-32.375 z" id="path5150" style="fill:#ffcc00;fill-opacity:1;fill-rule:evenodd;stroke:#000000;stroke-width:29.4439621;stroke-linecap:round;stroke-linejoin:round;stroke-miterlimit:4;stroke-opacity:1;stroke-dasharray:none" transform="matrix(0.806617,0,0,0.806617,137.24379,129.6198)"/></g><rect id="rect2241" style="fill:#090909;fill-opacity:1;stroke:none" y="-1454.0754" x="-4193.7095" height="9.3153629" width="129.11143"/><rect id="rect2239" style="fill:#090909;fill-opacity:1;stroke:none" y="-1553.4219" x="-4181.3013" height="10.212204" width="107.24836"/><path id="path2326" style="fill:#090909;fill-opacity:1;fill-rule:evenodd;stroke:none" d="m -4153.5087,-1577.4905 0,-21.8877 19.743,18.7609 0,-59.4097 13.6683,0 0,59.4097 19.743,-18.7609 0,21.8877 -26.5749,21.8878 -26.5794,-21.8878 z"/><path d="m -4068.3152,-1558.0926 c -0.8009,0.1596 -1.7002,2.4531 -1.9291,3.8276 0.079,3.9847 0.016,3.9527 0.9313,6.0907 1.0385,2.0931 4.1098,3.7422 7.2843,5.7581 10.1554,6.4488 16.1653,5.525 16.1653,5.525 0.093,0.027 1.8461,0.4457 2.1952,0.5325 0.035,1.019 -0.1437,2.0077 -0.6319,2.9622 l -84.219,0 c -4.2589,0 -7.6835,3.46 -7.6835,7.7216 0,4.2618 3.4246,7.6884 7.6835,7.6884 l 69.6836,0 c 0.6445,1.557 0.4907,3.1183 -0.4657,4.5265 l -81.3584,0 c -4.259,0 -7.7168,3.4268 -7.7168,7.6884 0,4.2617 3.4578,7.6884 7.7168,7.6884 l 73.9077,0 c 0.9705,1.447 1.6313,2.6411 1.8627,3.6944 l -69.0848,0 c -4.259,0 -7.6835,3.4268 -7.6835,7.6884 0,4.2618 3.4245,7.6885 7.6835,7.6885 l 77.2672,0 c 0.7131,0.987 1.0268,2.0597 0.7318,3.2284 l -53.3853,0 c -3.7553,0 -6.7854,3.0321 -6.7854,6.7897 0,3.7577 3.0302,6.7898 6.7854,6.7898 l 62.2994,0 c 6.1717,1.9017 13.2255,3.6425 19.7908,4.3268 6.6593,0 45.7406,-1.8916 51.1234,-2.5295 7.6696,-0.9088 24.3145,-7.2224 24.3145,-7.2224 l 0,-61.7735 -81.6911,-23.5311 c -1.8062,-0.4756 -9.9437,-0.4769 -11.4088,-0.5991 -3.9016,-0.3254 -13.5743,-2.6399 -15.4668,-3.1286 -1.375,-0.2901 -4.5755,-0.8814 -7.75,-1.4312 -0.052,-0.01 -0.1129,-0.011 -0.1663,0 z" style="fill:#090909;fill-opacity:1;stroke:#000000;stroke-width:1.09953856;stroke-miterlimit:4;stroke-opacity:1;stroke-dasharray:none;stroke-dashoffset:0" id="rect10870"/></g><g id="g1327" transform="matrix(0.4327767,0,0,0.4327767,2172.3218,562.82943)"/></g></svg>