<?xml version="1.0" encoding="UTF-8" standalone="no"?>
<svg xmlns:dc="http://purl.org/dc/elements/1.1/" xmlns:cc="http://creativecommons.org/ns#" xmlns:rdf="http://www.w3.org/1999/02/22-rdf-syntax-ns#" xmlns:svg="http://www.w3.org/2000/svg" xmlns="http://www.w3.org/2000/svg" xmlns:sodipodi="http://sodipodi.sourceforge.net/DTD/sodipodi-0.dtd" xmlns:inkscape="http://www.inkscape.org/namespaces/inkscape" id="svg2" version="1.1" viewBox="0 0 500 440"><defs id="defs4"/><metadata id="metadata7"><rdf:RDF><cc:Work rdf:about=""><dc:format>image/svg+xml</dc:format><dc:type rdf:resource="http://purl.org/dc/dcmitype/StillImage"/><dc:title/></cc:Work></rdf:RDF></metadata><g id="layer1" transform="translate(2628.6708,1537.4375)"><g id="g4710" transform="translate(-5514.5397,-5129.3271)"><g transform="matrix(0.70090825,0,0,0.69991898,2875.0253,3541.618)" id="use8141"><path d="m 291.34375,-65.6875 c -10.8681,0.534341 -20.7122,6.547321 -26.15625,15.96875 l -405.625,702.625 c -5.72548,9.91086 -5.72052,22.11697 0,32.03125 5.72051,9.91429 16.27297,16.02815 27.71875,16.03125 l 807.875,0.15625 c 11.41896,-0.006 21.96022,-6.08998 27.6875,-15.96875 5.7273,-9.87876 5.7621,-22.05583 0.0937,-31.96875 L 320.6875,-49.59375 C 314.70518,-60.05227 303.37823,-66.2707 291.34375,-65.6875 z" id="path6585" style="fill:#ffffff;fill-opacity:1;stroke:#000000;stroke-width:12.5;stroke-linecap:round;stroke-miterlimit:4;stroke-opacity:1" transform="matrix(0.806617,0,0,0.806617,137.24505,129.88708)"/><path d="m 292.90625,-32.375 -404.5,700.65625 805.625,0.15625 C 560.31943,434.82625 426.61912,201.23809 292.90625,-32.375 z" id="path6587" style="fill:#ffcc00;fill-opacity:1;fill-rule:evenodd;stroke:#000000;stroke-width:29.4439621;stroke-linecap:round;stroke-linejoin:round;stroke-miterlimit:4;stroke-opacity:1;stroke-dasharray:none" transform="matrix(0.806617,0,0,0.806617,137.24379,129.6198)"/></g><path style="fill:#000000;stroke:none" id="path1373" d="m 3150.4383,3710.7758 -5.5525,5.5251 c -2.0393,-1.4547 -4.3674,-3.1925 -5.5327,-4.0649 6.4092,5.5272 3.5076,14.5362 4.0902,22.1002 -11.3618,7.8547 -1.7539,20.1246 -2.628,30.8023 0.5274,-0.9479 1.0982,-1.8816 1.4622,-2.881 4.37,2.6183 2.3337,8.742 6.995,9.9057 -1.748,-10.7638 -8.1598,-21.2421 -5.8292,-32.0059 l 6.995,5.5251 c 0,-3.2002 0.8678,-6.7 -2.628,-8.4455 -3.2046,-8.7277 -0.2849,-18.6065 2.628,-26.4611 z m -9.623,54.3824 c -0.9473,1.7029 -1.8519,3.4264 -1.7191,5.525 1.0065,-1.7693 1.561,-3.6196 1.7191,-5.525 z m -1.7191,5.5448 c -0.8696,1.5241 -2.0662,2.9851 -3.8137,4.3608 -4.6612,7.2731 2.3312,14.8468 1.1659,20.9558 -26.802,29.6739 -34.0807,79.7138 -76.9053,90.7689 l 1.4424,41.8917 46.3369,-18.3313 2.6083,2.9006 c -13.9835,7.8561 -29.7011,12.2169 -44.5584,18.0354 10.7787,2.6183 7.2671,17.75 19.5029,19.4956 16.314,-4.3639 27.6756,11.0668 41.9501,15.4307 3.7873,20.652 24.1956,6.0964 34.975,18.3116 l 50.3875,-16.8711 -1.4622,-41.8918 c -16.0228,-13.6745 -21.8472,-40.1503 -16.8947,-61.3874 l -5.5327,6.9852 c -0.9176,-0.4581 -1.2076,-1.1667 -1.3437,-1.9337 0.1368,2.2482 0.1216,4.5248 -1.5611,6.0183 l -2.2131,-1.2826 c 6.4144,5.3999 6.0644,14.9741 9.2082,22.2187 4.0785,6.109 -0.2942,11.637 -6.9951,11.3461 l -33.5126,-20.936 c -3.4956,-29.0921 -4.9446,-60.5127 -4.0705,-89.6047 13.1094,16.8736 27.6748,34.8959 30.5882,54.6784 0.5826,-1.7456 -0.868,-4.6577 1.4622,-5.8211 2.622,1.4546 2.619,4.0755 4.3669,5.8211 l 0,-6.9853 2.6083,1.1642 c -13.692,-16.0008 -23.5791,-34.8935 -36.3976,-50.0215 l -2.628,-1.4602 c 4.9525,-3.4911 6.1152,-8.443 5.5327,-13.9705 -2.3306,-5.5276 -9.9116,-4.3528 -13.9899,-8.4257 -0.1438,-0.5025 -0.2264,-0.9982 -0.2569,-1.4602 z m 44.0841,103.4567 c -1.313,-1.1054 -2.8018,-2.1098 -4.7818,-2.802 l 4.7818,2.802 z m -43.8272,-96.4715 c 1.748,2.0365 1.4623,5.5165 1.4622,8.4258 0,4.0729 -5.2497,-5.5165 -1.4622,-8.4258 z m 2.9244,22.3963 2.6083,71.2732 c -11.3618,10.182 -18.9349,-6.6943 -29.4224,-6.9852 l 0,43.352 c -3.7873,-13.964 2.6245,-32.5737 -5.5327,-44.7925 l -13.9702,6.9655 0,-4.0648 39.322,-58.763 -2.9245,61.3874 4.0904,4.3608 2.9047,-4.3608 2.9244,-68.3726 z m 1.1658,76.7983 c 3.2047,16.0008 6.109,33.4626 2.9047,50.3373 -19.519,6.6912 -38.4521,14.8407 -58.8447,19.4955 -2.0393,-4.6547 -9.3262,-2.0451 -8.1609,-8.4454 l 57.106,-20.9361 c 6.7005,-11.9289 -0.8685,-24.4393 1.4622,-37.5309 l 5.5327,-2.9204 z m 50.3876,32.0059 c 3.2046,13.0926 6.1291,30.8337 2.9245,46.2526 l -54.4779,19.4956 c -3.496,0 -6.4179,-1.4465 -8.4572,-4.0648 l 51.5731,-18.3314 c 11.6532,-10.7642 1.7395,-26.7769 2.9048,-40.4513 l 5.5327,-2.9007 z m -75.443,4.3608 c 2.0393,0.5819 4.0761,0.8789 5.5327,2.6245 -0.291,2.9103 -5.824,0.5757 -5.5327,-2.6245 z m 30.8846,18.0354 c 11.0701,4.6548 21.2519,12.222 32.0307,18.3314 -12.2355,-2.6183 -21.5432,-11.9311 -32.0307,-18.3314 z"/></g><g id="g1327" transform="matrix(0.4327767,0,0,0.4327767,2172.3218,562.82943)"/></g></svg>