<?xml version="1.0" encoding="UTF-8" standalone="no"?>
<svg xmlns:dc="http://purl.org/dc/elements/1.1/" xmlns:cc="http://creativecommons.org/ns#" xmlns:rdf="http://www.w3.org/1999/02/22-rdf-syntax-ns#" xmlns:svg="http://www.w3.org/2000/svg" xmlns="http://www.w3.org/2000/svg" xmlns:sodipodi="http://sodipodi.sourceforge.net/DTD/sodipodi-0.dtd" xmlns:inkscape="http://www.inkscape.org/namespaces/inkscape" id="svg2" version="1.1" viewBox="0 0 500 440"><defs id="defs4"/><metadata id="metadata7"><rdf:RDF><cc:Work rdf:about=""><dc:format>image/svg+xml</dc:format><dc:type rdf:resource="http://purl.org/dc/dcmitype/StillImage"/><dc:title/></cc:Work></rdf:RDF></metadata><g id="layer1" transform="translate(2722.0834,1932.2274)"><g id="g4768" transform="translate(-9571.2828,-5524.1185)"><g transform="matrix(0.70090825,0,0,0.69991898,6838.3593,3541.618)" id="use8376"><path d="m 291.34375,-65.6875 c -10.8681,0.534341 -20.7122,6.547321 -26.15625,15.96875 l -405.625,702.625 c -5.72548,9.91086 -5.72052,22.11697 0,32.03125 5.72051,9.91429 16.27297,16.02815 27.71875,16.03125 l 807.875,0.15625 c 11.41896,-0.006 21.96022,-6.08998 27.6875,-15.96875 5.7273,-9.87876 5.7621,-22.05583 0.0937,-31.96875 L 320.6875,-49.59375 C 314.70518,-60.05227 303.37823,-66.2707 291.34375,-65.6875 z" id="path6513" style="fill:#ffffff;fill-opacity:1;stroke:#000000;stroke-width:12.5;stroke-linecap:round;stroke-miterlimit:4;stroke-opacity:1" transform="matrix(0.806617,0,0,0.806617,137.24505,129.88708)"/><path d="m 292.90625,-32.375 -404.5,700.65625 805.625,0.15625 C 560.31943,434.82625 426.61912,201.23809 292.90625,-32.375 z" id="path6515" style="fill:#ffcc00;fill-opacity:1;fill-rule:evenodd;stroke:#000000;stroke-width:29.4439621;stroke-linecap:round;stroke-linejoin:round;stroke-miterlimit:4;stroke-opacity:1;stroke-dasharray:none" transform="matrix(0.806617,0,0,0.806617,137.24379,129.6198)"/></g><path id="path24470" style="font-style:normal;font-variant:normal;font-weight:normal;font-stretch:normal;letter-spacing:normal;word-spacing:normal;text-anchor:start;fill:#000000;fill-opacity:1;fill-rule:evenodd;stroke:none" d="m 7039.2716,3754.5033 -7.4589,13.3942 -12.0885,-11.8487 10.0309,18.5459 3.858,24.9852 -25.7201,-13.9094 25.7201,17.7732 5.6585,33.4855 -33.4362,-16.2276 -11.5741,12.3638 13.3745,-5.6667 35.4938,23.955 0,27.8186 -65.8436,0 0,3.8637 65.8436,0 0,41.2129 -26.7489,13.3943 29.8354,-3.8638 11.3168,12.3639 11.5741,-13.3941 27.7778,-2.8335 -23.9197,-19.0609 0.7715,-27.8188 73.8168,0 -10.5452,14.167 -16.2038,-4.6365 -7.716,30.6522 1.8004,2.8333 c -10.4938,10.5092 -21.0392,16.3823 -38.3231,21.1217 l 7.7161,2.8333 -57.356,28.849 -3.858,-3.8637 -48.8684,9.5305 250,0 0,-11.3335 -23.9197,-1.0304 7.4588,-13.3942 -31.3785,-3.8637 34.465,-16.2276 -20.0618,-2.0606 13.3745,-2.8334 -5.9156,-15.4547 c 3.8065,-4.7395 13.5288,-17.052 18.2613,-35.2887 l 6.6872,0 0,-3.8636 -5.6584,0 1.0288,-6.6971 -24.9485,7.7275 1.8003,-16.4853 c -4.7325,-1.9576 -16.3067,-0.8241 -24.9485,2.0608 -9.5679,3.9151 -18.107,13.3941 -19.033,13.3941 l -77.6749,0 2.8292,-28.849 16.4609,-16.2275 8.4877,-1.0304 28.8066,-27.8187 -29.5782,22.9246 -8.7449,-1.8031 -15.4321,12.6215 0,-36.5765 3.0864,-13.9093 18.0041,-16.7428 -19.8045,14.167 -2.572,-31.4249 -5.9157,47.1372 -11.8312,33.4855 -22.1194,-62.5921 3.858,-18.0306 z m 150.463,113.0779 -3.0864,20.0913 25.9773,-8.5002 c -1.9549,6.6971 -3.9095,13.2912 -7.716,19.061 -15.2263,40.2854 -75.566,36.6281 -90.7922,60.5314 -7.716,-4.8424 -14.352,-9.6334 -23.9198,-11.591 53.6005,-18.1335 50.669,-79.5925 99.5371,-79.5925 z m 6.6872,26.0156 c 0,1.9578 1.9033,3.6063 3.8581,3.6063 7.3518,-2.215 -1.4394,-11.2792 -3.8581,-3.6063 z m -71.7593,7.7274 c 0,0 8.4877,0.8758 9.5165,1.8032 l -15.4321,19.061 -0.7715,-0.7729 6.6872,-20.0912 z m 69.7017,20.8641 2.0576,8.7577 -26.749,5.6668 c 8.642,-3.8121 16.9753,-9.582 24.6914,-14.4245 z"/></g><g id="g1327" transform="matrix(0.4327767,0,0,0.4327767,2172.3218,562.82943)"/></g></svg>