<?xml version="1.0" encoding="UTF-8" standalone="no"?>
<svg xmlns:dc="http://purl.org/dc/elements/1.1/" xmlns:cc="http://creativecommons.org/ns#" xmlns:rdf="http://www.w3.org/1999/02/22-rdf-syntax-ns#" xmlns:svg="http://www.w3.org/2000/svg" xmlns="http://www.w3.org/2000/svg" xmlns:sodipodi="http://sodipodi.sourceforge.net/DTD/sodipodi-0.dtd" xmlns:inkscape="http://www.inkscape.org/namespaces/inkscape" id="svg2" version="1.1" viewBox="0 0 500 440"><defs id="defs4"/><metadata id="metadata7"><rdf:RDF><cc:Work rdf:about=""><dc:format>image/svg+xml</dc:format><dc:type rdf:resource="http://purl.org/dc/dcmitype/StillImage"/><dc:title/></cc:Work></rdf:RDF></metadata><g id="layer1" transform="translate(2368.3069,2613.189)"><g id="g4890" transform="translate(-15995.139,-6205.0801)"><g id="use8400" transform="matrix(0.70090825,0,0,0.69991898,13615.992,3541.618)"><path transform="matrix(0.806617,0,0,0.806617,137.24505,129.88708)" style="fill:#ffffff;fill-opacity:1;stroke:#000000;stroke-width:12.5;stroke-linecap:round;stroke-miterlimit:4;stroke-opacity:1" id="path6081" d="m 291.34375,-65.6875 c -10.8681,0.534341 -20.7122,6.547321 -26.15625,15.96875 l -405.625,702.625 c -5.72548,9.91086 -5.72052,22.11697 0,32.03125 5.72051,9.91429 16.27297,16.02815 27.71875,16.03125 l 807.875,0.15625 c 11.41896,-0.006 21.96022,-6.08998 27.6875,-15.96875 5.7273,-9.87876 5.7621,-22.05583 0.0937,-31.96875 L 320.6875,-49.59375 C 314.70518,-60.05227 303.37823,-66.2707 291.34375,-65.6875 z"/><path transform="matrix(0.806617,0,0,0.806617,137.24379,129.6198)" style="fill:#ffcc00;fill-opacity:1;fill-rule:evenodd;stroke:#000000;stroke-width:29.4439621;stroke-linecap:round;stroke-linejoin:round;stroke-miterlimit:4;stroke-opacity:1;stroke-dasharray:none" id="path6083" d="m 292.90625,-32.375 -404.5,700.65625 805.625,0.15625 C 560.31943,434.82625 426.61912,201.23809 292.90625,-32.375 z"/></g><g transform="matrix(0.89173403,0,0,0.89173403,14220.268,3598.2905)" style="fill:#000000;stroke:none" id="g2005"><path style="fill:#000000;fill-opacity:1;stroke:none" d="m -538.625,313.3125 -3.09375,5.3125 57.25,0 0,109.1875 -120.5,0 -3.0625,5.3125 170.6875,0 0,-119.8125 -101.28125,0 z m 79.625,5.3125 12.8125,0 0,7.40625 -29.90625,28.46875 0,-19.59375 L -459,318.625 z m 12.8125,27.5625 0,19.625 -29.90625,28.46875 0,-19.625 29.90625,-28.46875 z m 0,39.78125 0,19.59375 -23.375,22.25 -6.53125,0 0,-13.375 29.90625,-28.46875 z" id="rect1934-7"/><path style="fill:#000000;fill-opacity:1;stroke:none" d="m -519.59375,355.6875 16.09375,14.15625 -42.375,0 0,9.6875 42.375,0 -16.09375,14.125 12.4375,0 21.5,-18.90625 0.15625,0 -0.0625,-0.0625 0.0625,-0.0625 -0.15625,0 -21.5,-18.9375 -12.4375,0 z" id="rect1965"/><path style="fill:#000000;fill-rule:evenodd;stroke:none" d="m -399.28125,268.9375 -18.90625,6.28125 -17.09375,78.71875 15.3125,0 10.84375,-50.28125 5.78125,35.875 -17.09375,93.09375 18.4375,0 16.65625,-75.5625 c 0,0 0.18663,-0.63989 0.21875,-0.75 0.032,0.10962 0.21875,0.75 0.21875,0.75 l 16.625,75.5625 18.4375,0 -17.09375,-93.09375 5.8125,-35.875 10.84375,50.28125 15.28125,0 -17.09375,-78.71875 -18.875,-6.28125 c -2.39563,2.39564 -6.83623,3.84524 -11.75,4.21875 -0.0105,8e-4 -0.0207,-7.9e-4 -0.0312,0 -0.0308,0.002 -0.0629,-0.002 -0.0937,0 -0.36779,0.0266 -0.75285,0.0478 -1.125,0.0625 -0.31401,0.009 -0.62452,0.031 -0.9375,0.0312 -0.45772,0.006 -0.91462,-0.0189 -1.375,-0.0312 -0.26209,-0.0102 -0.52121,-0.0151 -0.78125,-0.0312 -0.14664,-0.007 -0.2909,-0.0222 -0.4375,-0.0312 -4.92626,-0.36975 -9.38049,-1.81799 -11.78125,-4.21875 z" id="path1976"/><path style="fill:#000000;fill-opacity:1;stroke:none" id="path1978" d="m -369.52505,254.00146 c 0,7.99836 -6.48395,14.48231 -14.4823,14.48231 -7.99836,0 -14.48231,-6.48395 -14.48231,-14.48231 0,-7.99835 6.48395,-14.4823 14.48231,-14.4823 7.99835,0 14.4823,6.48395 14.4823,14.4823 z" transform="matrix(1.078971,0,0,1.078971,29.2062,-21.42868)"/><path id="path1988" d="m -231.6408,313.3125 3.09375,5.3125 -57.25,0 0,109.1875 120.5,0 3.0625,5.3125 -170.6875,0 0,-119.8125 101.28125,0 z m -79.625,5.3125 -12.8125,0 0,7.40625 29.90625,28.46875 0,-19.59375 -17.09375,-16.28125 z m -12.8125,27.5625 0,19.625 29.90625,28.46875 0,-19.625 -29.90625,-28.46875 z m 0,39.78125 0,19.59375 23.375,22.25 6.53125,0 0,-13.375 -29.90625,-28.46875 z" style="fill:#000000;fill-opacity:1;stroke:none"/><path id="path1990" d="m -250.67205,355.6875 -16.09375,14.15625 42.375,0 0,9.6875 -42.375,0 16.09375,14.125 -12.4375,0 -21.5,-18.90625 -0.15625,0 0.0625,-0.0625 -0.0625,-0.0625 0.15625,0 21.5,-18.9375 12.4375,0 z" style="fill:#000000;fill-opacity:1;stroke:none"/></g></g><g id="g1327" transform="matrix(0.4327767,0,0,0.4327767,2172.3218,562.82943)"/></g></svg>