<?xml version="1.0" encoding="UTF-8" standalone="no"?>
<svg xmlns:dc="http://purl.org/dc/elements/1.1/" xmlns:cc="http://creativecommons.org/ns#" xmlns:rdf="http://www.w3.org/1999/02/22-rdf-syntax-ns#" xmlns:svg="http://www.w3.org/2000/svg" xmlns="http://www.w3.org/2000/svg" xmlns:sodipodi="http://sodipodi.sourceforge.net/DTD/sodipodi-0.dtd" xmlns:inkscape="http://www.inkscape.org/namespaces/inkscape" id="svg2" version="1.1" viewBox="0 0 500 440"><defs id="defs4"/><metadata id="metadata7"><rdf:RDF><cc:Work rdf:about=""><dc:format>image/svg+xml</dc:format><dc:type rdf:resource="http://purl.org/dc/dcmitype/StillImage"/><dc:title/></cc:Work></rdf:RDF></metadata><g id="layer1" transform="translate(1119.7584,653.39776)"><g id="g4006" transform="translate(2448.6098,-1082.8835)"><g transform="matrix(0.70090825,0,0,0.69991898,-3579.2083,379.2126)" id="use3914"><path d="m 291.34375,-65.6875 c -10.8681,0.534341 -20.7122,6.547321 -26.15625,15.96875 l -405.625,702.625 c -5.72548,9.91086 -5.72052,22.11697 0,32.03125 5.72051,9.91429 16.27297,16.02815 27.71875,16.03125 l 807.875,0.15625 c 11.41896,-0.006 21.96022,-6.08998 27.6875,-15.96875 5.7273,-9.87876 5.7621,-22.05583 0.0937,-31.96875 L 320.6875,-49.59375 C 314.70518,-60.05227 303.37823,-66.2707 291.34375,-65.6875 z" id="path6393" style="fill:#ffffff;fill-opacity:1;stroke:#000000;stroke-width:12.5;stroke-linecap:round;stroke-miterlimit:4;stroke-opacity:1" transform="matrix(0.806617,0,0,0.806617,137.24505,129.88708)"/><path d="m 292.90625,-32.375 -404.5,700.65625 805.625,0.15625 C 560.31943,434.82625 426.61912,201.23809 292.90625,-32.375 z" id="path6395" style="fill:#ffcc00;fill-opacity:1;fill-rule:evenodd;stroke:#000000;stroke-width:29.4439621;stroke-linecap:round;stroke-linejoin:round;stroke-miterlimit:4;stroke-opacity:1;stroke-dasharray:none" transform="matrix(0.806617,0,0,0.806617,137.24379,129.6198)"/></g><path id="path8006" d="m -3348.5491,821.25411 c -1.2857,-1.5489 -0.1697,-4.1459 2.5274,-5.8814 4.4896,-2.8907 5.2356,-3.59 6.1428,-5.7601 0.5092,-1.2187 0.8402,-2.7989 0.7299,-3.5127 -0.1782,-1.1992 -0.4244,-1.1253 -3.175,0.9819 l -2.9806,2.2796 -3.898,-8.0812 c -5.4163,-11.229 -10.0153,-19.3025 -17.0501,-29.9323 l -6.0325,-9.1141 0.7044,-4.7526 c 0.7808,-5.2254 2.496,-10.7911 4.818,-15.6049 0.8317,-1.7203 1.2765,-3.1274 0.9913,-3.1274 -0.2886,0 -3.483,1.0252 -7.1069,2.2787 -7.247,2.5071 -10.9023,4.4056 -13.1827,6.8464 -1.3808,1.4784 -1.4368,1.795 -0.7129,4.0406 1.722,5.3586 6.8803,17.0264 12.1965,27.5925 3.0841,6.1293 5.6107,11.3478 5.6141,11.5965 0,0.2461 -1.1296,0.7893 -2.5164,1.2077 l -2.5223,0.7553 0.085,3.887 c 0,2.1379 -0.1358,4.7832 -0.3734,5.8789 -0.4074,1.8577 -0.662,2.0148 -3.7503,2.3313 -2.8576,0.2886 -3.517,0.1358 -4.8214,-1.1287 l -1.5107,-1.4691 -1.8298,2.0835 c -3.7053,4.2205 -6.6562,4.3495 -14.7315,0.645 -2.9118,-1.3358 -3.6612,-1.98 -3.6612,-3.1478 0,-2.4399 1.6659,-3.2148 6.9142,-3.2148 4.7416,0 4.8104,0 6.2684,-2.1709 0.8063,-1.1941 1.4004,-2.2372 1.3104,-2.3178 -0.093,-0.085 -1.8119,0.1528 -3.8259,0.5262 -2.0139,0.3734 -3.7766,0.5516 -3.9175,0.4074 -0.1443,-0.1443 -0.7299,-4.2783 -1.3155,-9.182 -0.5856,-4.9037 -1.9155,-15.0769 -2.9628,-22.6073 -1.0472,-7.5313 -1.9341,-16.4145 -1.9706,-19.7422 -0.1273,-11.8961 2.8253,-15.2356 26.7243,-30.1827 3.2395,-2.0259 5.8908,-4.0593 5.8908,-4.5184 0,-0.4583 -1.0108,-2.3365 -2.2465,-4.1722 -2.1676,-3.2216 -2.2066,-3.382 -1.1169,-4.5863 1.7042,-1.8832 10.808,-7.8164 21.7094,-14.1493 9.6971,-5.6319 9.7633,-5.6862 12.2814,-9.9976 1.3918,-2.3831 4.2511,-6.3278 6.3541,-8.7644 l 3.8225,-4.431 -2.4111,-1.6473 c -6.5451,-4.4725 -16.3814,-5.272 -31.1867,-2.535 -12.2958,2.2728 -11.2044,2.378 -11.8689,-1.1491 -0.3141,-1.6634 -0.8402,-3.0247 -1.1636,-3.0247 -0.3225,0 -1.7109,0.5686 -3.0765,1.2671 -1.8561,0.9471 -3.0154,2.26 -4.5914,5.1999 -1.1601,2.1633 -2.3712,3.9574 -2.692,3.9871 -0.3225,0 -0.8937,-1.2145 -1.273,-2.765 -0.382,-1.5497 -1.0023,-2.9195 -1.3826,-3.0426 -0.7892,-0.2546 -2.731,3.7198 -3.3794,6.91 -0.3056,1.4886 -0.8317,2.1931 -1.7449,2.3263 -1.038,0.1528 -1.5438,-0.4159 -2.4273,-2.7328 -1.4835,-3.8836 -0.9318,-5.721 2.7973,-9.322 2.8609,-2.7624 13.6477,-8.8331 15.6948,-8.8331 0.4837,0 1.6592,-0.8682 2.6037,-1.9282 1.941,-2.1786 5.8984,-3.5102 12.3026,-4.1391 10.1359,-0.9955 36.5309,3.2828 46.7152,7.5712 2.1506,0.9055 2.4086,0.914 2.0827,0.085 -0.2037,-0.5346 -1.9928,-6.1911 -3.9727,-12.5724 -1.9809,-6.3821 -3.6655,-11.6822 -3.7436,-11.7781 -0.085,-0.093 -1.1058,4.1552 -2.2847,9.4476 -1.4122,6.3388 -2.3016,9.2227 -2.6063,8.4529 -0.6365,-1.6074 -11.5354,-62.6543 -11.2383,-62.9514 0.1273,-0.1358 2.9212,8.7814 6.1988,19.8058 3.2776,11.0245 6.035,19.9646 6.1275,19.8661 0.093,-0.1018 1.6626,-3.7605 3.4881,-8.1389 1.8247,-4.3784 3.5085,-8.1678 3.7402,-8.4215 0.2291,-0.2546 2.249,10.5644 4.4836,24.0408 3.3718,20.3387 4.235,24.5007 5.0794,24.4956 1.4419,0 6.9779,-2.7311 9.6148,-4.728 l 2.2286,-1.6889 0.4159,1.4606 c 0.2292,0.8062 0.4413,3.466 0.4837,5.9179 l 0.085,4.4573 4.9309,1.4623 c 2.7124,0.8062 5.5496,1.621 6.3058,1.8145 1.0982,0.28 2.3152,-0.645 6.0503,-4.6092 2.5715,-2.7286 5.177,-5.4792 5.7897,-6.1131 0.6111,-0.6366 1.969,-1.1517 3.0129,-1.1517 1.4606,0 1.985,0.3479 2.2736,1.4954 0.348,1.3723 0.662,1.4792 3.8471,1.3027 1.9095,-0.1018 3.7223,-0.348 4.0279,-0.5347 0.594,-0.3649 1.3265,1.0643 1.3265,2.6047 0,0.5177 1.1508,3.2878 2.5579,6.1572 3.3931,6.9193 4.7849,16.2659 3.1962,21.4557 -0.4838,1.5862 -0.4923,1.5845 -1.4717,-0.6281 l -0.9836,-2.2218 -0.4243,2.5401 c -0.2377,1.3969 -0.662,3.2564 -0.9395,4.1322 l -0.5092,1.5922 -0.6366,-1.5922 -0.6365,-1.5921 -0.4667,1.812 c -0.348,1.3231 -0.6196,1.5811 -1.0142,0.9547 -0.3735,-0.5941 -0.5432,-0.331 -0.5517,0.8572 0,3.4397 -1.6838,2.7845 -2.5936,-1.021 -0.3479,-1.4444 -0.4837,-1.5955 -0.5346,-0.5686 -0.1189,2.4595 -1.2527,2.2244 -2.0454,-0.4243 -0.4243,-1.4114 -1.0099,-2.5656 -1.3053,-2.5656 -2.1675,0 3.22,10.006 10.9727,20.3787 18.8876,25.2696 26.1498,39.632 25.1704,49.7789 -0.4243,4.4446 -2.1608,8.3596 -3.4754,7.8546 -0.5177,-0.1952 -1.7016,0.3819 -2.6666,1.3044 -1.5352,1.4708 -1.89,1.5659 -3.0807,0.8233 -1.6057,-1.0023 -1.6957,-3.0341 -0.3734,-8.4946 0.5092,-2.1013 0.9276,-4.3758 0.9327,-5.0539 0.01,-1.0855 -0.2207,-1.0125 -1.9045,0.6026 -2.7972,2.6793 -3.4804,1.6184 -2.6029,-4.0389 0.9327,-6.0147 0.931,-6.0317 -0.7383,-5.6268 -1.1874,0.2885 -1.924,-0.3225 -4.2986,-3.5866 -1.5761,-2.1641 -7.8928,-10.2419 -14.0373,-17.9514 -6.1437,-7.7087 -12.9629,-16.3805 -15.1534,-19.2703 -2.1904,-2.8898 -4.1848,-5.2534 -4.4318,-5.2525 -1.3104,0.01 -16.2218,4.0609 -21.5728,5.8678 l -6.1946,2.0911 -3.3379,5.7312 c -3.0883,5.3026 -3.3412,6.0478 -3.376,9.9483 0,2.3187 0.5431,7.5848 1.2611,11.7017 0.7129,4.1179 1.2136,7.5729 1.1076,7.679 -0.1019,0.1018 -1.7653,-0.348 -3.6876,-1.0142 -5.2169,-1.8009 -5.7278,-1.6617 -8.5904,2.3347 -3.4117,4.762 -11.0924,12.0166 -17.4074,16.4417 l -5.1533,3.6103 4.9131,6.1733 c 5.4749,6.8795 13.4695,18.5277 18.6083,27.1088 l 3.3837,5.6514 -1.5353,1.1805 c -0.8486,0.6535 -1.7508,1.1865 -2.013,1.1941 -1.1466,0 -0.3056,1.2892 1.6829,2.5198 2.1922,1.3545 4.2078,4.6449 4.2078,6.8667 0,1.3724 -4.1331,4.0016 -6.2879,4.0016 -1.3384,0 -3.8692,3.2522 -4.7892,6.1521 -0.7214,2.2652 -1.6906,2.625 -8.368,3.0952 -5.5496,0.3904 -6.5061,0.3055 -7.2741,-0.6196 z m -3.2802,-233.816 c -2.9992,-18.0295 -5.2482,-32.5556 -4.9979,-32.2807 0.2546,0.2716 2.5622,6.8761 5.138,14.6688 2.5749,7.7934 4.8417,14.1696 5.0369,14.1696 0.1952,0 1.1865,-1.4249 2.2041,-3.1664 1.0167,-1.7415 1.9265,-3.0892 2.0207,-2.995 0.2376,0.2376 -3.4312,41.8657 -3.7173,42.1517 -0.1273,0.1273 -2.6861,-14.5193 -5.6845,-32.548 z" style="fill:#000000;display:inline"/></g><g id="g1327" transform="matrix(0.4327767,0,0,0.4327767,2172.3218,562.82943)"/></g></svg>