<?xml version="1.0" encoding="UTF-8" standalone="no"?>
<svg xmlns:dc="http://purl.org/dc/elements/1.1/" xmlns:cc="http://creativecommons.org/ns#" xmlns:rdf="http://www.w3.org/1999/02/22-rdf-syntax-ns#" xmlns:svg="http://www.w3.org/2000/svg" xmlns="http://www.w3.org/2000/svg" xmlns:sodipodi="http://sodipodi.sourceforge.net/DTD/sodipodi-0.dtd" xmlns:inkscape="http://www.inkscape.org/namespaces/inkscape" id="svg2" version="1.1" viewBox="0 0 500 440"><defs id="defs4"/><metadata id="metadata7"><rdf:RDF><cc:Work rdf:about=""><dc:format>image/svg+xml</dc:format><dc:type rdf:resource="http://purl.org/dc/dcmitype/StillImage"/><dc:title/></cc:Work></rdf:RDF></metadata><g id="layer1" transform="translate(2020.736,2702.0823)"><g id="g4950" transform="translate(1672.8126,-864.69059)"><g transform="matrix(0.70090825,0,0,0.69991898,-3704.3887,-1887.6649)" id="use8386"><path d="m 291.34375,-65.6875 c -10.8681,0.534341 -20.7122,6.547321 -26.15625,15.96875 l -405.625,702.625 c -5.72548,9.91086 -5.72052,22.11697 0,32.03125 5.72051,9.91429 16.27297,16.02815 27.71875,16.03125 l 807.875,0.15625 c 11.41896,-0.006 21.96022,-6.08998 27.6875,-15.96875 5.7273,-9.87876 5.7621,-22.05583 0.0937,-31.96875 L 320.6875,-49.59375 C 314.70518,-60.05227 303.37823,-66.2707 291.34375,-65.6875 z" id="path5661" style="fill:#ffffff;fill-opacity:1;stroke:#000000;stroke-width:12.5;stroke-linecap:round;stroke-miterlimit:4;stroke-opacity:1" transform="matrix(0.806617,0,0,0.806617,137.24505,129.88708)"/><path d="m 292.90625,-32.375 -404.5,700.65625 805.625,0.15625 C 560.31943,434.82625 426.61912,201.23809 292.90625,-32.375 z" id="path5663" style="fill:#ffcc00;fill-opacity:1;fill-rule:evenodd;stroke:#000000;stroke-width:29.4439621;stroke-linecap:round;stroke-linejoin:round;stroke-miterlimit:4;stroke-opacity:1;stroke-dasharray:none" transform="matrix(0.806617,0,0,0.806617,137.24379,129.6198)"/></g><path id="path21024" style="fill:#000000;fill-opacity:1;fill-rule:evenodd;stroke:none" d="m -3556.374,-1508.6463 0,27.2421 0.964,1.9286 0,1.9286 0.965,1.9287 0,0.9643 0.964,0.9643 1.929,0.9643 0.964,0.9644 1.929,0.9643 2.893,0 1.928,0.9643 0.965,0 1.928,0.9643 0.965,0 1.928,0.9643 0.965,0.9644 0,0.9643 0.964,0 -42.671,0 0,-0.9643 2.17,-0.9644 0.964,-0.9643 1.929,0 0.964,-0.9643 1.929,0 1.928,-0.9643 2.893,0 1.929,-0.9643 0.964,-0.9644 0.964,-0.9643 0.965,-0.9643 0.964,-0.9643 0.964,-1.9287 0,-31.0993 -3.857,0 -1.928,-0.9643 -0.965,-0.9643 -0.964,-0.9644 -0.964,-1.9286 0,-6.7502 0.964,-0.9644 0,-0.9643 0.964,-0.9643 0.965,0 0.964,-0.9643 13.5,0 0.964,0.9643 0.965,0 0,0.9643 0.964,0.9643 0,0.9644 0.964,1.9286 0,4.8216 -0.964,1.9286 -0.964,0.9644 -1.929,0.9643 -0.964,0.9643 -4.822,0 z m 146.577,-135.9691 91.851,118.6113 0.965,0.9644 0.964,0.9643 0.964,0.9643 0,2.893 0.965,0.9643 0,5.7859 -0.965,1.9286 -0.964,1.9287 -0.964,0.9643 -0.965,1.9286 -0.964,1.2054 -1.929,1.9287 1.929,3.8573 1.929,4.8216 2.893,4.8216 1.928,3.8573 1.929,4.8216 2.893,4.8216 1.928,3.8572 1.929,4.8216 0,6.7503 -49.421,0 -19.287,-49.4214 -141.755,0 -19.286,49.4214 -50.386,0 0,-6.7503 2.893,-4.8216 1.929,-3.8572 2.17,-4.8216 2.893,-4.8216 1.928,-3.8573 1.929,-4.8216 2.893,-4.8216 1.929,-3.8573 -1.929,-1.9287 -0.964,-1.2054 -0.965,-1.9286 -0.964,-0.9643 -1.929,-3.8573 0,-6.7502 0.965,-1.9287 0,-0.9643 0.964,-0.9643 0.964,-0.9643 0,-0.9644 92.575,-118.6113 2.893,0.9643 -83.896,113.7898 1.928,0 0.965,0.9643 4.821,0 1.929,0.9643 0.964,0.9643 0.965,0.9643 0.964,1.9287 0.964,0.9643 0,0.9643 0.965,1.9287 72.324,-123.433 2.893,0 0,16.3934 -13.501,34.7156 76.181,0 -13.5,-34.7156 0,-16.3934 2.893,0 72.324,123.433 0,-1.9287 0.964,-0.9643 0.965,-0.9643 0.964,-1.9287 0.964,-0.9643 0.965,-0.9643 1.928,-0.9643 4.822,0 0,-0.9643 2.893,0 -83.896,-113.7898 2.893,-0.9643 z m -73.289,56.8949 -22.179,54.9662 124.397,0 -22.179,-54.9662 -80.039,0 z m 152.363,79.0742 0,31.0993 -0.964,1.9287 -2.893,2.8929 -0.965,0.9644 -1.928,0.9643 -2.893,0 -1.929,0.9643 -1.928,0 -0.965,0.9643 -1.928,0 -0.965,0.9643 -1.928,0.9644 0,0.9643 42.671,0 -0.964,-0.9643 -0.965,-0.9644 -1.928,-0.9643 -0.965,0 -1.928,-0.9643 -0.965,0 -1.928,-0.9643 -2.893,0 -1.929,-0.9643 -0.964,-0.9644 -1.206,-0.9643 -1.928,-0.9643 0,-0.9643 -0.965,-1.9287 0,-1.9286 -0.964,-1.9286 0,-27.2421 5.063,0 0.964,-0.9643 1.929,-0.9643 0.964,-0.9644 0.964,-1.9286 0,-4.8216 -0.964,-1.9286 0,-0.9644 -0.964,-0.9643 0,-0.9643 -0.965,0 -0.964,-0.9643 -13.742,0 -0.964,0.9643 -0.964,0 -0.964,0.9643 0,0.9643 -0.965,0.9644 0,6.7502 0.965,1.9286 0.964,0.9644 1.928,0.9643 0.965,0.9643 3.857,0 z m -131.147,-115.7184 0.964,0 0.964,-0.9643 1.929,-0.9643 0.964,0 0.964,-0.9644 0.965,-0.9643 0.964,0 0.964,-0.9643 0.965,0 0,-0.9643 0.964,-0.9644 0.964,0 0.965,-0.9643 0.964,0 0.964,-0.9643 0.965,0 0,2.893 -0.965,1.9286 0,1.9287 0,12.5361 -0.964,2.893 0,12.5361 -0.964,2.893 1.928,0 1.929,0.9643 8.679,0 0,-10.6075 -0.964,-2.893 0,-13.5004 -0.965,-1.9287 0,-9.6432 0.965,0.9643 0.964,0 0.964,0.9643 0.964,0 0.965,0.9644 0.964,0.9643 0.964,0 0.965,0.9643 0.964,0 0.964,0.9643 0.965,0.9644 0.964,0 0.964,0.9643 0.965,0.9643 0.964,0 0,-0.9643 -0.964,-0.9643 0,-1.9287 -0.965,-0.9643 0,-2.893 -1.928,-0.9643 -0.965,-0.9643 -0.964,0 -0.964,-0.9643 -0.965,0 -0.964,-0.9644 -1.929,-0.9643 -0.964,0 -0.964,-0.9643 -0.964,0 -1.929,-1.9286 -0.964,0 0,-0.9644 -0.965,0 -0.964,-0.9643 -0.964,0.9643 -0.965,0 -0.964,0.9644 -0.964,0 -0.965,0.9643 -0.964,0 -0.964,0.9643 -0.965,0.9643 -0.964,0 -0.964,0.9643 -0.965,0 -1.928,0.9644 -0.965,0.9643 -0.964,0 -1.929,1.9286 -0.964,0.9643 0,2.893 -0.964,0.9643 0,1.9287 -0.964,0.9643 z m -20.251,142.9605 1.928,0.9643 1.929,0.9643 0.964,0.9643 1.929,0.9643 1.929,0.9644 3.857,1.9286 1.929,0.9643 1.928,0.9643 1.929,0.9644 1.929,0.9643 3.857,1.9286 1.928,0.9643 1.929,0.9644 1.929,0.9643 0,-22.1794 0.964,-2.8929 0,-16.6346 17.358,0 0,25.3134 0.964,1.9287 0,14.4648 1.929,-0.9643 1.928,-0.9644 1.929,-0.9643 1.929,-0.9643 3.857,-1.9286 1.929,-0.9644 1.928,-0.9643 0.964,-0.9643 3.858,-1.9286 1.928,-0.9644 1.929,-0.9643 1.929,-0.9643 1.928,-0.9643 0.965,-0.9643 0.964,0.9643 0,6.7502 0.964,1.9287 0,3.8572 -1.928,0.9644 -2.893,1.9286 -1.929,0.9643 -2.893,0.9643 -1.929,1.9287 -2.893,0.9643 -2.892,1.9286 -1.929,0.9644 -2.893,1.9286 -1.929,0.9643 -2.893,1.9287 -2.893,0.9643 -2.893,1.9286 -1.928,1.9287 -2.893,0.9643 -2.893,1.9286 -2.893,-1.9286 -2.893,-0.9643 -1.929,-1.9287 -2.893,-0.9643 -2.893,-1.9286 -2.893,-0.9644 -1.928,-1.9286 -2.893,-0.9643 -2.893,-1.9287 -1.929,-0.9643 -2.893,-1.9286 -2.893,-0.9643 -1.928,-1.9287 -2.893,-0.9643 -1.929,-0.9643 -2.893,-1.9287 0,-2.8929 0.964,-1.9287 0,-5.7859 0.965,-0.9643 0,-1.9286 z m 6.75,-104.3877 0.964,0 0.965,0.9643 0,1.9287 -0.965,0 0,0.9643 -0.964,0 -0.964,0.9643 -1.929,0 0,-0.9643 -0.964,0 0,-1.9287 0.964,0 0,-0.9643 0.964,0 0,-0.9643 1.929,0 z m -1.929,5.7859 0.965,0 0,0.9643 0.964,0 0,1.9287 -0.964,0 0,0.9643 -0.965,0.9643 -0.964,0 -0.964,0.9643 -0.965,0 0,-0.9643 -0.964,0 0,-2.8929 0.964,-0.9644 0.965,-0.9643 1.928,0 z m -2.893,6.7503 0.965,0 0.964,0.9643 0,2.8929 -0.964,0.9644 -0.965,0.9643 -3.857,0 0,-2.893 0.964,-0.9643 0,-0.9643 0.965,0 0.964,-0.9643 0.964,0 z m -2.893,7.7145 1.929,0 0,0.9643 0.964,0.9644 0,1.9286 -0.964,0 0,0.9643 -0.964,0.9643 -0.965,0.9644 -3.857,0 0,-3.8573 0.965,-0.9643 0.964,-0.9644 0.964,-0.9643 0.964,0 z m -2.892,8.6789 0.964,0.9643 0.964,0 0,0.9643 0.964,0.9644 0,0.9643 -0.964,0.9643 -0.964,0.9643 0,0.9643 -0.964,0.9644 -0.965,0 0,0.9643 -2.893,0 -0.964,-0.9643 0,-3.8573 1.929,-1.9287 0.964,-0.9643 0.964,0 0.965,-0.9643 z m -3.858,10.6075 0.965,0 0.964,0.9643 0.964,0.9644 0,2.8929 -0.964,0.9643 0,0.9644 -0.964,0.9643 -0.965,0.9643 -0.964,0 0,0.9643 -3.857,0 0,-0.9643 -0.965,0 0,-2.893 0.965,-0.9643 0,-0.9643 0.964,-0.9643 0,-0.9643 0.964,0 0.965,-0.9644 0.964,0 0.964,-0.9643 z m 27.001,-39.5371 1.929,0 0,0.9643 0.964,0 0,0.9643 -0.964,0.9644 0,0.9643 -0.964,0 -0.965,0.9643 -1.928,0 0,-0.9643 -0.965,0 0,-1.9287 0.965,-0.9643 0.964,-0.9643 0.964,0 z m -0.964,5.7859 1.929,0 0,3.8573 -0.965,0.9643 -0.964,0 -0.964,0.9643 -0.965,0 0,-0.9643 -0.964,0 0,-0.9643 -0.964,0 0,-0.9643 0.964,0 0,-1.9287 0.964,0 0,-0.9643 1.929,0 z m -0.964,6.7503 0.964,0 0,0.9643 0.964,0 0,2.8929 -0.964,0.9644 -0.964,0.9643 -2.893,0 -0.965,-0.9643 0,-2.893 0.965,-0.9643 0.964,0 0,-0.9643 1.929,0 z m -1.929,7.7145 0.964,0 0.965,0.9643 0,0.9644 0.964,0.9643 -0.964,0.9643 0,0.9643 -1.929,1.9287 -3.857,0 0,-4.8216 0.964,0 0,-0.9644 0.964,0 0,-0.9643 1.929,0 z m -1.929,8.6789 0.965,0.9643 0.964,0 0,0.9643 0.964,0.9644 0,1.9286 -0.964,0 0,0.9643 -0.964,0.9643 0,0.9644 -0.965,0 0,0.9643 -2.893,0 -0.964,-0.9643 -0.964,-0.9644 0,-1.9286 0.964,-0.9643 0,-1.9287 0.964,0 0.965,-0.9643 0.964,0 0.964,-0.9643 z m -2.893,10.6075 0.965,0 0.964,0.9643 0.964,0.9644 0,0.9643 0.965,0.9643 -0.965,0.9643 0,1.9287 -0.964,0.9643 0,0.9643 -0.964,0 -0.965,0.9643 -2.893,0 -0.964,-0.9643 -0.964,-0.9643 0,-2.893 0.964,-0.9643 0,-0.9643 0.964,-0.9643 0.965,-0.9644 0.964,0 0.964,-0.9643 z m 22.18,-39.5371 0.964,0 0.964,0.9643 0,2.893 -0.964,0 0,0.9643 -2.893,0 0,-0.9643 -0.964,0 0,-2.893 0.964,0 0,-0.9643 1.929,0 z m -0.965,5.7859 1.929,0 0,0.9643 0.964,0 0,2.893 -0.964,0.9643 -0.964,0 0,0.9643 -1.929,0 0,-0.9643 -0.964,0 0,-0.9643 -0.965,0 0,-1.9286 0.965,0 0,-0.9644 0.964,-0.9643 0.964,0 z m 0,6.7503 0.965,0 0.964,0.9643 0.964,0.9643 0,1.9286 -0.964,0 0,0.9644 -0.964,0.9643 -2.893,0 -0.965,-0.9643 0,-0.9644 -0.964,0 0,-0.9643 0.964,0 0,-1.9286 0.965,0 0.964,-0.9643 0.964,0 z m -0.964,7.7145 1.929,0 0,0.9643 0.964,0 0,4.8216 -0.964,0 0,0.9644 -3.858,0 -0.964,-0.9644 0,-3.8572 1.929,-1.9287 0.964,0 z m 0,8.6789 0,0.9643 0.964,0 0.965,0.9643 0.964,0.9644 0,1.9286 -0.964,0.9643 0,1.9287 -0.965,0 -0.964,0.9643 -2.893,0 0,-0.9643 -0.964,0 0,-5.786 0.964,0 0,-0.9643 1.929,0 0.964,-0.9643 z m -0.964,10.6075 0.964,0.9643 0.964,0 0,0.9644 0.965,0 0,4.8216 -0.965,0.9643 0,0.9643 -0.964,0 -0.964,0.9643 -2.893,0 0,-0.9643 -0.965,0 0,-0.9643 -0.964,-0.9643 0,-2.893 0.964,-0.9643 0,-0.9643 0.965,0 0,-0.9644 0.964,0 0.964,-0.9643 0.965,0 z m 15.429,-39.5371 1.928,0 0,0.9643 0.965,0 0,2.893 -0.965,0 0,0.9643 -1.928,0 -0.965,-0.9643 -0.964,0 0,-2.893 0.964,0 0,-0.9643 0.965,0 z m 0.964,5.7859 0.964,0 0.965,0.9643 0.964,0.9644 0,1.9286 -0.964,0.9643 -0.965,0 0,0.9643 -0.964,0 -0.964,-0.9643 -0.965,0 0,-0.9643 -0.964,0 0,-2.893 0.964,0 0,-0.9643 1.929,0 z m 0,6.7503 0.964,0 0.965,0.9643 0.964,0 0,1.9286 0.964,0 0,0.9643 -0.964,0 0,0.9644 -0.964,0.9643 -2.893,0 -0.964,-0.9643 0,-0.9644 -0.965,0 0,-1.9286 0.965,-0.9643 0.964,0 0,-0.9643 0.964,0 z m 0.964,7.7145 0.965,0 0.964,0.9643 0.964,0.9644 0,3.8572 -0.964,0 0,0.9644 -3.857,0 0,-0.9644 -0.964,0 0,-1.9286 -0.965,0 0.965,-0.9643 0,-1.9287 0.964,0 0,-0.9643 1.928,0 z m 0,8.6789 0.965,0.9643 0.964,0 0.964,0.9643 0.965,0.9644 0,3.8572 -0.965,0.9644 -0.964,0.9643 -2.893,0 0,-0.9643 -0.964,0 0,-0.9644 -0.964,-0.9643 0,-3.8573 0.964,0 0,-0.9643 0.964,0 0.964,-0.9643 z m 0.965,10.6075 0.964,0 0,0.9643 0.964,0 0.965,0.9644 0.964,0.9643 0,4.8216 -1.929,1.9286 -2.893,0 -0.964,-0.9643 -0.964,0 0,-1.9286 -0.964,-0.9644 0,-2.8929 0.964,-0.9643 0.964,-0.9644 0.964,-0.9643 0.965,0 z m 10.607,-39.5371 1.929,0 0,0.9643 0.964,0 0,2.893 -0.964,0 0,0.9643 -1.929,0 -0.964,-0.9643 -0.964,0 0,-2.893 0.964,-0.9643 0.964,0 z m 0.965,5.7859 1.928,0 0,0.9643 0.965,0 0,0.9644 0.964,0.9643 0,0.9643 -0.964,0 0,0.9643 -0.965,0 0,0.9643 -0.964,0 -0.964,-0.9643 -0.965,0 0,-0.9643 -0.964,0 0,-2.893 0.964,-0.9643 0.965,0 z m 1.928,6.7503 0.965,0 0,0.9643 0.964,0 0.964,0.9643 0,2.893 -0.964,0.9643 -2.893,0 -0.964,-0.9643 -0.965,-0.9644 0,-2.8929 0.965,0 0,-0.9643 1.928,0 z m 0.965,7.7145 0.964,0 0.964,0.9643 0.965,0 0,0.9644 0.964,0 0,3.8572 -0.964,0.9644 -3.858,0 0,-0.9644 -0.964,0 0,-1.9286 -0.964,0 0,-1.9286 0.964,0 0,-0.9644 0.964,-0.9643 0.965,0 z m 1.928,8.6789 0.965,0.9643 0.964,0 1.929,1.9287 0,4.8216 -0.965,0 0,0.9643 -2.893,0 -0.964,-0.9643 -0.964,-0.9644 0,-0.9643 -0.965,-0.9643 0,-2.893 0.965,0 0,-0.9643 0.964,0 0.964,-0.9643 z m 1.929,10.6075 0.964,0 0.965,0.9643 0.964,0.9644 0.964,0 0,0.9643 0.964,0.9643 0,3.8573 -1.928,1.9286 -2.893,0 -0.964,-0.9643 -0.965,-0.9643 0,-0.9643 -0.964,-0.9644 0,-3.8572 0.964,0 0,-0.9644 0.965,0 0,-0.9643 0.964,0 z m 4.821,-39.5371 1.929,0 0.964,0.9643 0.965,0 0,2.893 -0.965,0.9643 -1.928,0 -0.965,-0.9643 -0.964,0 0,-1.9287 -0.964,0 0,-0.9643 0.964,0 0,-0.9643 0.964,0 z m 2.893,5.7859 0.965,0 0.964,0.9643 0.964,0.9644 0,0.9643 0.965,0 0,0.9643 -0.965,0 0,0.9643 -0.964,0 0,0.9643 -0.964,0 -0.965,-0.9643 -0.964,0 -0.964,-0.9643 0,-0.9643 -0.965,0 0,-0.9643 0.965,-0.9644 0,-0.9643 1.928,0 z m 1.929,6.7503 0.964,0 0.965,0.9643 0.964,0 0,0.9643 0.964,0.9643 0,2.893 -3.857,0 -0.964,-0.9643 -0.965,-0.9644 0,-2.8929 0.965,-0.9643 0.964,0 z m 2.893,7.7145 0.964,0 0.965,0.9643 0.964,0.9644 0.964,0.9643 0,3.8573 -3.857,0 -1.929,-1.9287 0,-0.9643 -0.964,0 0,-1.9286 0.964,-0.9644 0,-0.9643 1.929,0 z m 2.893,8.6789 0,0.9643 1.929,0 0.964,0.9643 0.964,0.9644 0,0.9643 0.965,0.9643 0,2.893 -0.965,0 0,0.9643 -2.893,0 -0.964,-0.9643 -0.964,0 0,-0.9644 -0.965,-0.9643 0,-0.9643 -0.964,0 0,-2.893 0.964,-0.9643 0.965,0 0.964,-0.9643 z m 2.893,10.6075 0.964,0 0.965,0.9643 0.964,0 0,0.9644 0.964,0 0.965,0.9643 0,0.9643 0.964,0.9643 0,3.8573 -0.964,0 0,0.9643 -2.893,0 -0.965,-0.9643 -0.964,0 -0.964,-0.9643 0,-0.9643 -0.965,-0.9644 0,-4.8216 0.965,0 0,-0.9643 0.964,0"/></g><g id="g1327" transform="matrix(0.4327767,0,0,0.4327767,2172.3218,562.82943)"/></g></svg>