<?xml version="1.0" encoding="UTF-8" standalone="no"?>
<svg xmlns:dc="http://purl.org/dc/elements/1.1/" xmlns:cc="http://creativecommons.org/ns#" xmlns:rdf="http://www.w3.org/1999/02/22-rdf-syntax-ns#" xmlns:svg="http://www.w3.org/2000/svg" xmlns="http://www.w3.org/2000/svg" xmlns:sodipodi="http://sodipodi.sourceforge.net/DTD/sodipodi-0.dtd" xmlns:inkscape="http://www.inkscape.org/namespaces/inkscape" id="svg2" version="1.1" viewBox="0 0 500 440"><defs id="defs4"/><metadata id="metadata7"><rdf:RDF><cc:Work rdf:about=""><dc:format>image/svg+xml</dc:format><dc:type rdf:resource="http://purl.org/dc/dcmitype/StillImage"/><dc:title/></cc:Work></rdf:RDF></metadata><g id="layer1" transform="translate(2724.1579,1212.0759)"><g id="g3872" transform="translate(1163.6957,-1107.1272)"><g transform="matrix(0.70090825,0,0,0.69991898,-3898.6937,-155.2218)" id="use12134"><path d="m 291.34375,-65.6875 c -10.8681,0.534341 -20.7122,6.547321 -26.15625,15.96875 l -405.625,702.625 c -5.72548,9.91086 -5.72052,22.11697 0,32.03125 5.72051,9.91429 16.27297,16.02815 27.71875,16.03125 l 807.875,0.15625 c 11.41896,-0.006 21.96022,-6.08998 27.6875,-15.96875 5.7273,-9.87876 5.7621,-22.05583 0.0937,-31.96875 L 320.6875,-49.59375 C 314.70518,-60.05227 303.37823,-66.2707 291.34375,-65.6875 z" id="path6531" style="fill:#ffffff;fill-opacity:1;stroke:#000000;stroke-width:12.5;stroke-linecap:round;stroke-miterlimit:4;stroke-opacity:1" transform="matrix(0.806617,0,0,0.806617,137.24505,129.88708)"/><path d="m 292.90625,-32.375 -404.5,700.65625 805.625,0.15625 C 560.31943,434.82625 426.61912,201.23809 292.90625,-32.375 z" id="path6533" style="fill:#ffcc00;fill-opacity:1;fill-rule:evenodd;stroke:#000000;stroke-width:29.4439621;stroke-linecap:round;stroke-linejoin:round;stroke-miterlimit:4;stroke-opacity:1;stroke-dasharray:none" transform="matrix(0.806617,0,0,0.806617,137.24379,129.6198)"/></g><g transform="matrix(8.4868756,0,0,8.4868756,-6532.1056,-4065.5082)" id="g4043" style="display:inline"><path style="color:#000000;fill:#000000;fill-opacity:1;fill-rule:nonzero;stroke:none;stroke-width:0.69999999;marker:none;visibility:visible;display:inline;overflow:visible" d="m 341.125,487.1875 c -0.6069,0 -1.09375,0.50131 -1.09375,1.125 l 0,10.875 -0.40625,0 0,-9.375 c 0,-0.62369 -0.48685,-1.125 -1.09375,-1.125 -0.6069,0 -1.09375,0.50131 -1.09375,1.125 l 0,9.375 -0.3125,0 0,-3.375 c -0.49491,-1.38738 -1.36878,-1.7081 -2.375,-1.65625 l 0,7.84375 7.125,-1.84375 c 0,0 -1.72951,2.58398 -1.84375,2.8125 -0.11425,0.2285 4.84376,-1.18751 4.84375,-1.1875 L 342.96875,504.5 c 0,0 2.27089,-0.37367 4.34375,-0.71875 l 0,-11.21875 c 0,-0.62369 -0.48685,-1.125 -1.09375,-1.125 -0.6069,0 -1.09375,0.50131 -1.09375,1.125 l 0,6.625 -0.375,0 0,-9.375 c 0,-0.62369 -0.48685,-1.125 -1.09375,-1.125 -0.6069,0 -1.09375,0.50131 -1.09375,1.125 l 0,9.375 -0.34375,0 0,-10.875 c 0,-0.62369 -0.48685,-1.125 -1.09375,-1.125 z m -1.71875,14.625 -4.65625,1.21875 0,2.90625 c 0.27308,1.36 0.5436,2.72024 1.96875,3.96875 0,0 0.12854,2.84023 0,2.96875 -0.12854,0.12853 8.25,2e-5 8.25,0 l 0,-2.9375 c 2.18124,-1.69865 2.1463,-3.55095 2.34375,-4.96875 l 0,-0.125 -6.46875,0.875 1.625,-2.3125 -4.8125,1.09375 1.75,-2.6875 z" id="rect3990"/><path style="fill:#000000;fill-opacity:1;fill-rule:evenodd;stroke:none" d="m 330.375,488.3125 -1.21875,1.84375 c 0.99499,0.9831 2.01284,1.9444 3,2.9375 0.0471,0.12502 0.0579,0.21498 -0.0312,0.4375 -0.10818,0.27 -0.35136,0.63608 -0.6875,1 -0.51368,0.51758 -1.05707,1.00634 -1.59375,1.5 -0.0914,0.0941 -0.15712,0.27389 -0.25,0.40625 -0.69928,0.87893 -0.58142,2.48253 -0.21875,3.71875 0.55162,1.08175 1.39716,1.96638 2.5625,2.28125 l 0.1875,-0.65625 c 0.6481,0.2606 0.99166,0.75839 1.1875,1.4375 -8.1e-4,0.0104 -8.1e-4,0.0208 0,0.0312 0.0197,0.041 0.0528,0.0741 0.0937,0.0937 0.0188,0.014 0.04,0.0246 0.0625,0.0312 0.0104,8.1e-4 0.0208,8.1e-4 0.0312,0 0.0334,-0.002 0.0656,-0.0132 0.0937,-0.0312 0.0115,-0.009 0.022,-0.0197 0.0312,-0.0312 0.0294,-0.0246 0.0511,-0.0572 0.0625,-0.0937 0.003,-0.0207 0.003,-0.0418 0,-0.0625 8.1e-4,-0.0104 8.1e-4,-0.0208 0,-0.0312 -0.19198,-0.66573 -0.55051,-1.22131 -1.15625,-1.5625 0.63556,0.1141 1.14,0.13119 1.65625,0.28125 0.009,0.0115 0.0197,0.022 0.0312,0.0312 0.0104,8.1e-4 0.0208,8.1e-4 0.0312,0 0.0225,-0.007 0.0437,-0.0172 0.0625,-0.0312 0.0104,8.1e-4 0.0208,8.1e-4 0.0312,0 0.0115,-0.009 0.022,-0.0197 0.0312,-0.0312 0.0115,-0.009 0.022,-0.0197 0.0312,-0.0312 0.0181,-0.0281 0.0288,-0.0604 0.0312,-0.0937 0.003,-0.0207 0.003,-0.0418 0,-0.0625 8.1e-4,-0.0104 8.1e-4,-0.0208 0,-0.0312 -0.009,-0.0115 -0.0197,-0.022 -0.0312,-0.0312 -0.0272,-0.0469 -0.0723,-0.0807 -0.125,-0.0937 -0.50129,-0.14571 -0.91555,-0.1486 -1.40625,-0.21875 0.55558,-0.24906 1.00146,-0.67034 1.25,-1.34375 0.003,-0.0207 0.003,-0.0418 0,-0.0625 0.003,-0.0207 0.003,-0.0418 0,-0.0625 -0.0114,-0.0366 -0.0331,-0.0691 -0.0625,-0.0937 -0.0188,-0.014 -0.04,-0.0246 -0.0625,-0.0312 -0.0281,-0.0181 -0.0604,-0.0288 -0.0937,-0.0312 -0.0225,0.007 -0.0437,0.0172 -0.0625,0.0312 -0.041,0.0197 -0.0741,0.0528 -0.0937,0.0937 -8.1e-4,0.0104 -8.1e-4,0.0208 0,0.0312 -0.26835,0.7271 -0.77274,1.07684 -1.4375,1.25 l 0.1878,-0.7191 c -0.2066,-0.0558 -0.85152,-0.55867 -1.15625,-1.15625 -0.30473,-0.59758 -0.32335,-1.05267 -0.0625,-1.375 0.13078,-0.23063 0.35291,-0.37367 0.53125,-0.5625 0.33554,-0.30433 0.78506,-0.71797 1.21875,-1.1875 0.43369,-0.46953 0.88554,-1.01187 1.15625,-1.6875 0.27071,-0.67563 0.33713,-1.5605 -0.0625,-2.34375 -1.17132,-1.30376 -2.46363,-2.50404 -3.75,-3.6875 z" id="path4009"/></g></g><g id="g1327" transform="matrix(0.4327767,0,0,0.4327767,2172.3218,562.82943)"/></g></svg>