<?xml version="1.0" encoding="UTF-8" standalone="no"?>
<svg xmlns:dc="http://purl.org/dc/elements/1.1/" xmlns:cc="http://creativecommons.org/ns#" xmlns:rdf="http://www.w3.org/1999/02/22-rdf-syntax-ns#" xmlns:svg="http://www.w3.org/2000/svg" xmlns="http://www.w3.org/2000/svg" xmlns:sodipodi="http://sodipodi.sourceforge.net/DTD/sodipodi-0.dtd" xmlns:inkscape="http://www.inkscape.org/namespaces/inkscape" id="svg2" version="1.1" viewBox="0 0 500 440"><defs id="defs4"/><metadata id="metadata7"><rdf:RDF><cc:Work rdf:about=""><dc:format>image/svg+xml</dc:format><dc:type rdf:resource="http://purl.org/dc/dcmitype/StillImage"/><dc:title/></cc:Work></rdf:RDF></metadata><g id="layer1" transform="translate(2357.2039,3032.7082)"><g id="g8106" transform="translate(-485.86798,-6840.048)"><g transform="matrix(0.70090825,0,0,0.69991898,-1882.176,3757.0667)" id="use6903"><path d="m 291.34375,-65.6875 c -10.8681,0.534341 -20.7122,6.547321 -26.15625,15.96875 l -405.625,702.625 c -5.72548,9.91086 -5.72052,22.11697 0,32.03125 5.72051,9.91429 16.27297,16.02815 27.71875,16.03125 l 807.875,0.15625 c 11.41896,-0.006 21.96022,-6.08998 27.6875,-15.96875 5.7273,-9.87876 5.7621,-22.05583 0.0937,-31.96875 L 320.6875,-49.59375 C 314.70518,-60.05227 303.37823,-66.2707 291.34375,-65.6875 z" id="path5619" style="fill:#ffffff;fill-opacity:1;stroke:#000000;stroke-width:12.5;stroke-linecap:round;stroke-miterlimit:4;stroke-opacity:1" transform="matrix(0.806617,0,0,0.806617,137.24505,129.88708)"/><path d="m 292.90625,-32.375 -404.5,700.65625 805.625,0.15625 C 560.31943,434.82625 426.61912,201.23809 292.90625,-32.375 z" id="path5621" style="fill:#ffcc00;fill-opacity:1;fill-rule:evenodd;stroke:#000000;stroke-width:29.4439621;stroke-linecap:round;stroke-linejoin:round;stroke-miterlimit:4;stroke-opacity:1;stroke-dasharray:none" transform="matrix(0.806617,0,0,0.806617,137.24379,129.6198)"/></g><g transform="matrix(3.6409045,0,0,3.5065542,-1910.9545,3771.7586)" id="g1833"><path style="fill:#000000;stroke:none" id="path1834" d="m 83.8746,48.1777 c 0.1158,1.0418 -1.2734,1.8522 -0.463,2.7783 2.5468,-2.5468 4.1675,-6.1355 5.7881,-9.3769 1.1577,1.3892 1.2734,2.7784 2.7784,3.8202 -1.8522,4.7463 -7.7562,8.335 -8.1035,13.6601 3.0099,3.3572 8.9138,-6.4827 7.2931,1.6207 -2.0837,1.6207 -3.1256,5.7882 -6.367,3.7045 -1.6207,-1.0419 -0.2315,-2.6626 -2.3152,-3.7045 -3.936,4.6306 -5.904,10.0714 -9.7242,14.8177 -2.8941,5.5567 -5.5566,10.4188 -9.1453,15.7439 -1.0419,1.2734 0,2.7783 0,4.1675 1.1577,1.6207 5.3251,-3.1256 3.936,0.9261 -2.1995,2.5468 -6.0197,2.431 -8.6823,2.7783 -1.2734,-3.3571 4.5148,-4.399 2.7783,-8.1034 2.0838,-4.0518 4.8621,-7.872 6.1355,-12.271 7.9877,-12.734 11.8079,-27.2044 18.6379,-40.5172 2.0838,3.2414 -1.2734,6.8301 -2.5468,9.9557 z"/><path style="fill:#000000;stroke:none" id="path1835" d="m 56.4387,82.4436 c 1.1576,1.3892 -1.1576,2.6626 0.2315,3.8202 0,4.6306 -3.2414,7.872 -2.431,12.8498 -0.6946,1.0424 -2.1995,0.3473 -3.1256,0.2315 C 47.7564,93.557 47.5249,86.4954 45.3254,80.1284 l 0.8103,-1.8522 c 3.2414,3.5886 1.6207,8.798 3.5887,13.3128 0.8103,1.0419 2.1995,1.3891 3.3571,0.8103 1.7365,-1.6207 1.1577,-4.0517 1.968,-6.1355 -1.2734,-1.8521 -4.2832,-1.6206 -3.9359,-4.1674 2.5468,-1.8522 -0.6946,-8.2192 4.7463,-6.5986 1.9679,-3.8201 0.5788,-8.9137 2.1995,-12.8497 -1.0419,-4.7463 3.8202,-8.4507 5.5566,-12.734 -2.7783,10.9976 -4.2832,21.532 -7.1773,32.5295 z"/><path style="fill:#000000;stroke:none" id="path1836" d="m 75.3081,54.6604 c -1.6207,2.5468 -2.7783,6.0197 -5.7881,7.7562 -0.9261,-0.4631 -2.0838,-1.3892 -1.968,-2.5468 2.1995,-2.3153 3.0098,-8.335 7.7561,-5.2094 z"/><path style="fill:#000000;stroke:none" id="path1837" d="M 101.934,59.8698 C 101.355,58.7121 99.85,58.4806 98.9239,59.0594 90.3574,67.5102 82.9485,77.5816 73.919,86.0323 l -0.5789,-0.5788 c 5.4409,-8.5665 14.702,-14.8177 19.7956,-23.6157 1.5049,-1.968 4.5148,-3.7045 5.5567,-6.1355 1.0418,1.3892 2.1996,2.7783 3.2416,4.1675 z"/><path style="fill:#000000;stroke:none" id="path1838" d="m 108.069,70.9831 c -1.157,-0.6946 -2.083,1.1576 -2.778,1.9679 -1.389,0.4631 -3.242,1.2734 -3.82,2.5468 -4.9781,2.6626 -9.3772,6.7143 -13.8919,10.1872 -3.1256,1.0419 -5.0936,4.6306 -8.1035,5.5567 -5.7882,4.8621 -11.6921,9.3773 -17.8276,13.4283 -1.0418,-1.389 1.0419,-2.431 1.968,-2.778 14.0074,-10.8818 27.0887,-25.3523 40.286,-37.0444 l -0.232,-2.1995 4.399,8.335 z"/><path style="fill:#000000;stroke:none" id="path1839" d="m 53.3131,67.9732 -0.8104,0 2.1995,-3.5886 c -0.3473,1.1576 -0.1157,2.6625 -1.3891,3.5886 z"/><path style="fill:#000000;stroke:none" id="path1840" d="m 48.914,75.4978 c 0,0.3473 -0.8103,0.3473 -1.1576,0.4631 l 0.5789,-1.3892 0.5787,0.9261 z"/><path style="fill:#000000;stroke:none" id="path1841" d="m 63.616,81.5176 c -0.463,0.5788 -1.2734,0.2315 -1.968,0.3472 -0.8103,-1.7364 0.2316,-3.7044 1.968,-4.1674 1.0419,1.0418 0.1158,2.6625 0,3.8202 z"/><path style="fill:#000000;stroke:none" id="path1842" d="m 114.784,82.9067 c -6.367,0.6946 -11.808,4.9779 -17.8281,6.9458 -7.6404,3.7045 -15.5123,6.8301 -23.0369,10.6505 0.463,-3.1258 4.2832,-3.0101 6.367,-4.515 7.0615,-3.1256 13.4285,-7.9877 20.606,-10.766 3.357,-3.2414 7.756,-3.8202 11.113,-6.9458 l 2.779,4.6305 z"/><path style="fill:#000000;stroke:none" id="path1843" d="m 75.8869,80.1284 c 0,1.1576 -1.1576,1.3892 -1.9679,1.7364 -0.8104,-0.463 -1.505,-1.0418 -0.8104,-1.9679 0.6946,-1.1577 2.6626,-1.6207 2.7783,0.2315 z"/><path style="fill:#ffffff;stroke:none" id="path1844" d="m 112.584,81.0545 c -0.116,0.6946 -0.926,0.8103 -1.389,0.8103 0,-0.6945 0.694,-1.0418 1.389,-0.8103 z"/><path style="fill:#000000;stroke:none" id="path1845" d="m 61.648,85.4535 c 0,0.2315 0.1158,0.6946 -0.2315,0.8103 l -0.8103,0 0,-1.0418 c 0.3472,0 0.9261,-0.2316 1.0418,0.2315 z"/><path style="fill:#000000;stroke:none" id="path1846" d="m 48.1037,97.956 -0.3473,0.2315 c -1.3892,-2.1995 -4.9778,-1.2734 -6.0197,-3.8202 0,-1.8522 1.6207,-3.5887 0.2315,-5.3251 l -1.6207,-1.3892 1.3892,-2.1995 c 3.1256,4.2833 3.8202,7.8719 6.367,12.5025 z"/><path style="fill:#000000;stroke:none" id="path1847" d="m 98.6924,93.7885 c 0,1.5049 -0.5788,2.3153 -1.968,2.7783 -1.3892,-0.3473 -3.936,0.9261 -4.1675,-1.1576 0.463,-1.7365 2.431,-2.1995 3.8202,-2.7783 1.0418,-0.1158 1.968,0.2315 2.3153,1.1576 z"/><path style="fill:#000000;stroke:none" id="path1848" d="m 123.35,98.5348 c -3.01,-1.3892 -5.788,1.1576 -8.914,1.0419 -14.9333,1.7363 -29.751,3.3573 -44.6845,5.0933 -0.4631,-0.694 -0.2315,-1.736 -0.2315,-2.547 0.3472,-0.926 1.6206,-0.578 2.1995,-0.231 1.8522,2.778 5.2093,0.463 7.7561,0.81 13.6601,-2.315 26.9724,-6.0194 40.0544,-8.682 l 0.81,-1.0419 c 0.579,1.968 1.968,3.7045 3.01,5.5567 z"/><path style="fill:#000000;stroke:none" id="path1849" d="m 42.7786,99.924 c -0.3473,0.232 -0.3473,0.695 -0.5788,1.042 -0.3473,0 -0.8104,0.231 -1.0419,-0.232 -0.4631,-1.0416 1.1576,-2.0835 1.6207,-0.81 z"/><path style="fill:#000000;stroke:none" id="path1850" d="m 47.5249,103.513 c -0.2316,2.083 -5.6724,2.546 -1.968,4.746 4.399,-2.431 6.2513,3.126 10.5345,1.621 1.3892,-1.505 2.3152,-3.357 4.7463,-3.01 1.8522,1.042 0,2.894 0.5788,4.167 -3.3571,0.926 -7.5246,-1.042 -10.5345,1.621 0.3473,1.042 0.9262,2.084 1.968,2.547 1.5049,0.231 3.4729,0.116 4.1675,1.62 -0.5788,1.968 -2.3153,1.853 -3.7044,3.126 -3.5887,0.579 -7.9877,0.347 -10.5345,-1.968 -3.1256,-2.778 -4.399,-6.598 -3.3572,-10.534 0.3473,-3.358 3.4729,-5.094 6.1355,-6.136 1.5049,-0.116 1.1577,1.505 1.968,2.2 z"/><path style="fill:#000000;stroke:none" id="path1851" d="m 56.4387,104.902 c -1.8522,1.736 -4.5148,0.231 -6.367,-0.232 0,-1.852 1.968,-1.157 3.0098,-1.736 1.2734,0.231 3.3572,0.463 3.3572,1.968 z"/><path style="fill:#000000;stroke:none" id="path1852" d="m 129.254,109.069 c -14.239,-0.579 -28.594,0.116 -43.0641,-0.579 -0.3473,-0.347 -0.8103,-0.578 -0.5788,-1.041 l 0.8103,-0.579 c 13.3128,1.273 27.6676,-1.158 40.8646,-1.158 0.579,1.158 0.926,2.431 1.968,3.357 z"/><path style="fill:#000000;stroke:none" id="path1853" d="m 131.106,113.005 1.158,1.852 -5.557,0.579 c 1.968,2.316 7.409,-1.273 7.525,3.126 -19.796,-2.547 -39.3598,-6.251 -59.1554,-7.525 -2.6626,0 -6.4827,-0.463 -9.4926,-1.157 -0.3473,-1.158 0.9261,-0.579 1.3891,-1.042 20.9532,2.778 42.6009,3.241 64.1329,4.167 z"/><path style="fill:#000000;stroke:none" id="path1854" d="m 73.3401,113.237 c 0.1158,0.231 -0.1157,0.463 -0.2315,0.579 l -0.5788,0 c -0.3473,-0.579 0.5788,-1.274 0.8103,-0.579 z"/><path style="fill:#000000;stroke:none" id="path1855" d="m 95.5667,116.594 0.5789,1.042 c -2.4311,-0.347 -6.1355,0.926 -8.1035,-1.042 0.9261,-2.894 5.7882,-1.737 7.5246,0 z"/><path style="fill:#000000;stroke:none" id="path1856" d="m 80.286,118.215 c 0.5788,-0.811 1.0418,-1.968 2.1995,-1.968 1.5049,1.042 -0.6946,3.01 1.7364,3.125 8.6823,2.547 20.0271,2.663 29.4041,5.21 -2.547,0.347 -4.747,1.852 -7.756,0.926 -12.7343,-2.663 -24.8895,-6.367 -37.7392,-8.335 -0.4631,0.231 -1.0419,0.463 -1.1577,1.042 1.0419,2.778 4.8621,3.473 8.1035,3.357 1.3892,-0.579 0.8103,1.157 1.3892,1.62 2.1995,1.39 4.7463,1.968 7.1773,2.779 -8.2192,1.273 -13.7759,-3.82 -20.0271,-7.409 -1.5049,-0.463 -3.7044,-0.232 -4.1675,-1.968 l 2.7784,-1.389 18.0591,3.01 z"/><path style="fill:#000000;stroke:none" id="path1857" d="m 61.9953,121.34 0,0.232 c -0.8103,0.579 -1.7364,0.116 -2.1995,-0.579 -0.463,-2.084 2.0838,-0.695 2.1995,0.347 z"/><path style="fill:#000000;stroke:none" id="path1858" d="m 96.7244,125.971 c -2.7784,-0.116 -5.6724,0.579 -8.1035,-0.463 0,-0.695 0,-1.621 0.8104,-1.737 2.7783,-0.115 5.4409,2.084 7.2931,2.2 z"/></g></g><g id="g1327" transform="matrix(0.4327767,0,0,0.4327767,2172.3218,562.82943)"/></g></svg>