<?xml version="1.0" encoding="UTF-8" standalone="no"?>
<svg xmlns:dc="http://purl.org/dc/elements/1.1/" xmlns:cc="http://creativecommons.org/ns#" xmlns:rdf="http://www.w3.org/1999/02/22-rdf-syntax-ns#" xmlns:svg="http://www.w3.org/2000/svg" xmlns="http://www.w3.org/2000/svg" xmlns:sodipodi="http://sodipodi.sourceforge.net/DTD/sodipodi-0.dtd" xmlns:inkscape="http://www.inkscape.org/namespaces/inkscape" id="svg2" version="1.1" viewBox="0 0 500 440"><defs id="defs4"/><metadata id="metadata7"><rdf:RDF><cc:Work rdf:about=""><dc:format>image/svg+xml</dc:format><dc:type rdf:resource="http://purl.org/dc/dcmitype/StillImage"/><dc:title/></cc:Work></rdf:RDF></metadata><g id="layer1" transform="translate(-52.01849,427.12363)"><g id="g3446" transform="translate(1357.645,-856.60937)"><g transform="matrix(0.70090825,0,0,0.69991898,-1316.4666,379.2126)" id="use8237"><path d="m 291.34375,-65.6875 c -10.8681,0.534341 -20.7122,6.547321 -26.15625,15.96875 l -405.625,702.625 c -5.72548,9.91086 -5.72052,22.11697 0,32.03125 5.72051,9.91429 16.27297,16.02815 27.71875,16.03125 l 807.875,0.15625 c 11.41896,-0.006 21.96022,-6.08998 27.6875,-15.96875 5.7273,-9.87876 5.7621,-22.05583 0.0937,-31.96875 L 320.6875,-49.59375 C 314.70518,-60.05227 303.37823,-66.2707 291.34375,-65.6875 z" id="path6417" style="fill:#ffffff;fill-opacity:1;stroke:#000000;stroke-width:12.5;stroke-linecap:round;stroke-miterlimit:4;stroke-opacity:1" transform="matrix(0.806617,0,0,0.806617,137.24505,129.88708)"/><path d="m 292.90625,-32.375 -404.5,700.65625 805.625,0.15625 C 560.31943,434.82625 426.61912,201.23809 292.90625,-32.375 z" id="path6419" style="fill:#ffcc00;fill-opacity:1;fill-rule:evenodd;stroke:#000000;stroke-width:29.4439621;stroke-linecap:round;stroke-linejoin:round;stroke-miterlimit:4;stroke-opacity:1;stroke-dasharray:none" transform="matrix(0.806617,0,0,0.806617,137.24379,129.6198)"/></g><path id="path1934" d="m -1038.6066,612.16997 -0.081,46.80461 33.555,22.48668 -36.0864,40.52988 -34.2821,-18.07014 -45.4042,12.49559 2.7738,16.66976 40.2336,-11.74154 37.4598,19.49743 -29.65,17.23529 -20.5208,45.70047 15.8888,6.5171 15.8888,-39.66812 37.1366,-20.87086 39.31809,-44.46168 17.66617,22.70211 0.0808,41.71481 15.32325,0 0.16158,-45.56582 -18.79724,-33.0433 c -14.51217,-1.74145 -23.28732,-6.3741 -24.61412,-22.37895 l -27.89973,-17.18143 -0.1616,-39.29109 -17.9893,-0.0808 z m 67.54085,36.51729 c -9.79596,0 -17.74692,7.951 -17.74692,17.74697 0,9.79597 7.95097,17.74698 17.74692,17.74697 9.79597,0 17.74696,-7.951 17.74697,-17.74697 0,-9.79597 -7.95099,-17.74697 -17.74697,-17.74697 z m -191.04255,84.42602 0,11.71462 38.4832,0 0,77.28953 10.2335,0 0,-89.00415 -48.7167,0 z" style="fill:#000000;fill-rule:evenodd;stroke:none"/></g><g id="g1327" transform="matrix(0.4327767,0,0,0.4327767,2172.3218,562.82943)"/></g></svg>