<?xml version="1.0" encoding="UTF-8" standalone="no"?>
<svg xmlns:dc="http://purl.org/dc/elements/1.1/" xmlns:cc="http://creativecommons.org/ns#" xmlns:rdf="http://www.w3.org/1999/02/22-rdf-syntax-ns#" xmlns:svg="http://www.w3.org/2000/svg" xmlns="http://www.w3.org/2000/svg" xmlns:sodipodi="http://sodipodi.sourceforge.net/DTD/sodipodi-0.dtd" xmlns:inkscape="http://www.inkscape.org/namespaces/inkscape" id="svg2" version="1.1" viewBox="0 0 500 440"><defs id="defs4"/><metadata id="metadata7"><rdf:RDF><cc:Work rdf:about=""><dc:format>image/svg+xml</dc:format><dc:type rdf:resource="http://purl.org/dc/dcmitype/StillImage"/><dc:title/></cc:Work></rdf:RDF></metadata><g id="layer1" transform="translate(154.05271,564.50438)"><g id="g4021" transform="translate(1737.4624,-993.99012)"><g transform="matrix(0.70090825,0,0,0.69991898,-1902.3552,379.2126)" id="use3922"><path d="m 291.34375,-65.6875 c -10.8681,0.534341 -20.7122,6.547321 -26.15625,15.96875 l -405.625,702.625 c -5.72548,9.91086 -5.72052,22.11697 0,32.03125 5.72051,9.91429 16.27297,16.02815 27.71875,16.03125 l 807.875,0.15625 c 11.41896,-0.006 21.96022,-6.08998 27.6875,-15.96875 5.7273,-9.87876 5.7621,-22.05583 0.0937,-31.96875 L 320.6875,-49.59375 C 314.70518,-60.05227 303.37823,-66.2707 291.34375,-65.6875 z" id="path6411" style="fill:#ffffff;fill-opacity:1;stroke:#000000;stroke-width:12.5;stroke-linecap:round;stroke-miterlimit:4;stroke-opacity:1" transform="matrix(0.806617,0,0,0.806617,137.24505,129.88708)"/><path d="m 292.90625,-32.375 -404.5,700.65625 805.625,0.15625 C 560.31943,434.82625 426.61912,201.23809 292.90625,-32.375 z" id="path6413" style="fill:#ffcc00;fill-opacity:1;fill-rule:evenodd;stroke:#000000;stroke-width:29.4439621;stroke-linecap:round;stroke-linejoin:round;stroke-miterlimit:4;stroke-opacity:1;stroke-dasharray:none" transform="matrix(0.806617,0,0,0.806617,137.24379,129.6198)"/></g><g transform="matrix(8.4868756,0,0,8.4868756,-3934.4738,-3393.4897)" id="g3678" style="display:inline"><path style="fill:#000000;fill-opacity:1;fill-rule:evenodd;stroke:none" d="m 269.59039,469.09743 0.52481,5.85364 -1.13036,0.84777 0.60555,-6.70141 z" id="path2766"/><path style="fill:#000000;fill-opacity:1;fill-rule:evenodd;stroke:none" d="m 264.01603,476.74584 0.36354,7.02858 -1.05024,-0.72709 0.6867,-6.30149 z" id="path3653"/><path style="fill:#000000;fill-opacity:1;fill-rule:evenodd;stroke:none" d="m 276.21505,477.35176 -6.09951,4.88769 1.09064,1.57537 -2.0197,1.45419 -2.70641,-3.71626 0.88867,-2.98917 1.81774,2.46404 6.30148,-4.68572 0.72709,1.00986 z" id="path3655"/><path style="fill:#000000;fill-opacity:1;fill-rule:evenodd;stroke:none" d="m 274.80126,493.69118 6.26109,-4.03941 -1.3734,-0.60591 -6.48326,3.95862 1.59557,0.6867 z" id="path3657-7"/><path style="fill:#000000;fill-opacity:1;fill-rule:evenodd;stroke:none" d="m 274.90225,496.66015 6.24089,-3.91823 -0.0202,-2.7266 -6.26109,3.99901 0.0404,2.64582 z" id="path3659"/><path style="fill:#000000;fill-opacity:1;fill-rule:evenodd;stroke:none" d="m 274.57909,496.72074 0.0202,-2.7266 -1.53498,-0.62611 0.0202,2.7468 1.49458,0.60591 z" id="path3661-2"/><path style="color:#000000;fill:#000000;fill-opacity:1;fill-rule:nonzero;stroke:none;stroke-width:0.69999999;marker:none;visibility:visible;display:inline;overflow:visible" d="m 259.65625,484.5625 c -0.31073,0.0497 -0.57696,0.33664 -0.375,0.875 l 3.84375,6.96875 c -0.18302,0.34974 -0.3125,0.7305 -0.3125,1.15625 0,1.33785 1.02482,2.40626 2.3125,2.40625 0.24326,0 0.46697,-0.0531 0.6875,-0.125 -0.01,-0.0122 -0.0221,-0.0184 -0.0312,-0.0312 l -0.96875,-1.34375 c -0.25499,-0.36098 -0.17349,-0.87 0.1875,-1.125 0.36099,-0.255 0.87,-0.17349 1.125,0.1875 l 0.9375,1.34375 c 0.24252,-0.38223 0.40625,-0.82077 0.40625,-1.3125 0,-1.33785 -1.05607,-2.4375 -2.34375,-2.4375 -0.0647,0 -0.12426,0.0258 -0.1875,0.0312 l -4.75,-6.4375 c -0.12203,-0.14766 -0.34481,-0.18605 -0.53125,-0.15625 z" id="path3663"/></g></g><g id="g1327" transform="matrix(0.4327767,0,0,0.4327767,2172.3218,562.82943)"/></g></svg>