<?xml version="1.0" encoding="UTF-8" standalone="no"?>
<svg xmlns:dc="http://purl.org/dc/elements/1.1/" xmlns:cc="http://creativecommons.org/ns#" xmlns:rdf="http://www.w3.org/1999/02/22-rdf-syntax-ns#" xmlns:svg="http://www.w3.org/2000/svg" xmlns="http://www.w3.org/2000/svg" xmlns:sodipodi="http://sodipodi.sourceforge.net/DTD/sodipodi-0.dtd" xmlns:inkscape="http://www.inkscape.org/namespaces/inkscape" id="svg2" version="1.1" viewBox="0 0 500 440"><defs id="defs4"/><metadata id="metadata7"><rdf:RDF><cc:Work rdf:about=""><dc:format>image/svg+xml</dc:format><dc:type rdf:resource="http://purl.org/dc/dcmitype/StillImage"/><dc:title/></cc:Work></rdf:RDF></metadata><g id="layer1" transform="translate(2496.1629,2029.915)"><g id="g4702" transform="translate(-4841.6462,-5621.8061)"><g id="use8225" transform="matrix(0.70090825,0,0,0.69991898,2334.6432,3541.618)"><path transform="matrix(0.806617,0,0,0.806617,137.24505,129.88708)" style="fill:#ffffff;fill-opacity:1;stroke:#000000;stroke-width:12.5;stroke-linecap:round;stroke-miterlimit:4;stroke-opacity:1" id="path6537" d="m 291.34375,-65.6875 c -10.8681,0.534341 -20.7122,6.547321 -26.15625,15.96875 l -405.625,702.625 c -5.72548,9.91086 -5.72052,22.11697 0,32.03125 5.72051,9.91429 16.27297,16.02815 27.71875,16.03125 l 807.875,0.15625 c 11.41896,-0.006 21.96022,-6.08998 27.6875,-15.96875 5.7273,-9.87876 5.7621,-22.05583 0.0937,-31.96875 L 320.6875,-49.59375 C 314.70518,-60.05227 303.37823,-66.2707 291.34375,-65.6875 z"/><path transform="matrix(0.806617,0,0,0.806617,137.24379,129.6198)" style="fill:#ffcc00;fill-opacity:1;fill-rule:evenodd;stroke:#000000;stroke-width:29.4439621;stroke-linecap:round;stroke-linejoin:round;stroke-miterlimit:4;stroke-opacity:1;stroke-dasharray:none" id="path6539" d="m 292.90625,-32.375 -404.5,700.65625 805.625,0.15625 C 560.31943,434.82625 426.61912,201.23809 292.90625,-32.375 z"/></g><g transform="matrix(3.6399134,0,0,3.5065067,2308.0211,3572.1471)" id="g1896"><path style="fill:#000000;stroke:none" id="path1897" d="m 77.4997,53.0466 c 3.1589,6.3179 6.6419,12.5548 8.5048,19.4397 0.972,-1.944 1.377,-4.2119 1.215,-6.6419 2.592,5.6699 4.05,11.7448 5.427,17.9007 2.1059,-1.6199 2.1869,-4.2929 2.6729,-6.6419 1.863,5.994 3.078,13.2839 1.944,20.2498 1.944,0.8099 2.268,-2.349 3.1586,-3.483 0.162,5.2649 -0.8906,10.935 -5.4266,14.742 -3.7259,3.402 -8.4238,4.617 -13.2838,5.103 0.162,-0.972 1.701,-1.782 2.754,-1.944 4.0499,-3.24 4.9409,-7.776 5.4269,-12.4741 -0.729,-0.8909 -1.701,0.081 -2.349,0.8101 0,-2.5921 1.782,-6.237 0,-8.9909 -0.648,1.9439 -1.6199,3.8069 -3.0779,5.4269 -0.405,-3.483 -0.972,-7.5329 -3.483,-10.4489 L 77.0947,96.219 c -1.863,-0.729 -1.377,-3.564 -3.159,-4.293 -1.215,2.997 -0.81,7.2089 -0.324,10.449 -3.8069,-2.187 -3.159,-6.966 -4.6979,-10.449 -0.405,2.997 -2.43,5.832 -1.539,8.91 -0.891,0 -2.025,-1.7011 -2.754,0 0.405,5.184 6.8039,7.776 7.3709,12.879 -5.3459,-0.324 -10.0438,-3.564 -12.7978,-8.181 -2.592,-5.6701 -1.62,-13.689 -0.81,-19.8449 l 1.944,3.483 c 1.7819,-2.835 1.944,-7.0469 2.349,-10.8539 l 0,-4.6979 c 2.0249,0.972 2.8349,3.1589 4.2929,4.6979 2.835,-4.2119 4.374,-9.3149 3.0779,-14.8228 2.673,-0.567 3.078,8.2619 5.508,2.754 l 1.539,-13.2028 0.405,0 z"/><path style="fill:#ffcc00;stroke:none" id="path1898" d="m 78.2287,74.0253 c -0.4861,-1.863 -0.8911,-4.536 0.405,-6.2369 0.4859,1.8629 0.8909,4.6979 -0.405,6.2369 z"/><path style="fill:#ffcc00;stroke:none" id="path1899" d="m 92.6465,103.59 c -0.243,0.162 -0.405,0.486 -0.81,0.405 l 1.5389,-3.564 c 0.81,0.648 -0.081,2.268 -0.7289,3.159 z"/><path style="fill:#000000;stroke:none" id="path1900" d="m 93.7804,115.877 0,1.726 -28.7546,0 0,-1.62 28.7546,-0.106 z"/></g></g><g id="g1327" transform="matrix(0.4327767,0,0,0.4327767,2172.3218,562.82943)"/></g></svg>