<?xml version="1.0" encoding="UTF-8" standalone="no"?>
<svg xmlns:dc="http://purl.org/dc/elements/1.1/" xmlns:cc="http://creativecommons.org/ns#" xmlns:rdf="http://www.w3.org/1999/02/22-rdf-syntax-ns#" xmlns:svg="http://www.w3.org/2000/svg" xmlns="http://www.w3.org/2000/svg" xmlns:sodipodi="http://sodipodi.sourceforge.net/DTD/sodipodi-0.dtd" xmlns:inkscape="http://www.inkscape.org/namespaces/inkscape" id="svg2" version="1.1" viewBox="0 0 500 440"><defs id="defs4"/><metadata id="metadata7"><rdf:RDF><cc:Work rdf:about=""><dc:format>image/svg+xml</dc:format><dc:type rdf:resource="http://purl.org/dc/dcmitype/StillImage"/><dc:title/></cc:Work></rdf:RDF></metadata><g id="layer1" transform="translate(2449.9613,2145.1318)"><g id="g4657" transform="translate(-1558.4475,-5737.0229)"><g transform="matrix(0.70090825,0,0,0.69991898,-902.35385,3541.618)" id="use8235"><path d="m 291.34375,-65.6875 c -10.8681,0.534341 -20.7122,6.547321 -26.15625,15.96875 l -405.625,702.625 c -5.72548,9.91086 -5.72052,22.11697 0,32.03125 5.72051,9.91429 16.27297,16.02815 27.71875,16.03125 l 807.875,0.15625 c 11.41896,-0.006 21.96022,-6.08998 27.6875,-15.96875 5.7273,-9.87876 5.7621,-22.05583 0.0937,-31.96875 L 320.6875,-49.59375 C 314.70518,-60.05227 303.37823,-66.2707 291.34375,-65.6875 z" id="path6345" style="fill:#ffffff;fill-opacity:1;stroke:#000000;stroke-width:12.5;stroke-linecap:round;stroke-miterlimit:4;stroke-opacity:1" transform="matrix(0.806617,0,0,0.806617,137.24505,129.88708)"/><path d="m 292.90625,-32.375 -404.5,700.65625 805.625,0.15625 C 560.31943,434.82625 426.61912,201.23809 292.90625,-32.375 z" id="path6347" style="fill:#ffcc00;fill-opacity:1;fill-rule:evenodd;stroke:#000000;stroke-width:29.4439621;stroke-linecap:round;stroke-linejoin:round;stroke-miterlimit:4;stroke-opacity:1;stroke-dasharray:none" transform="matrix(0.806617,0,0,0.806617,137.24379,129.6198)"/></g><g transform="matrix(3.6427072,0,0,3.5064845,-914.27251,3577.1216)" id="g3502"><path style="fill:#000000;stroke:none" id="path3504" d="m 67.0884,59.8048 c -2.7232,12.9874 -6.5985,26.6033 -9.3217,39.2765 -0.2094,0.4191 0.3142,1.1527 0.5238,1.7807 2.4089,0 2.4089,-2.7232 3.0373,-4.2944 2.0948,-8.1695 3.7706,-16.4437 6.2843,-24.4039 0.6285,-3.3516 1.7805,-6.8079 2.5137,-9.8453 l 1.9901,-1.2568 21.3665,-0.1239 c 2.3042,1.5711 1.5615,5.6749 1.6661,7.9792 -0.6284,6.2843 0.1142,11.6234 0.124,18.1196 l 0.933,1.8235 c 4.7185,-0.324 11.4905,-0.7589 11.7975,2.1565 l 0.038,17.0725 c -0.838,1.152 1.99,5.027 -1.466,4.818 -3.247,0 -8.4842,-2.723 -10.0553,1.99 -1.8853,1.466 -5.0274,1.466 -7.0174,1.047 -1.99,-0.942 -2.8279,-2.932 -4.8179,-3.77 -4.399,-0.105 -10.1596,0.104 -14.0349,-0.315 -1.1521,1.676 -1.6758,3.457 -3.7706,4.085 -1.7805,0.21 -3.1421,-0.419 -4.6084,-0.838 -0.5237,-1.152 -0.9427,-2.932 -2.5137,-3.247 -2.7232,-0.104 -6.8079,-1.466 -6.2843,3.038 -3.5611,-1.676 -7.8553,-1.676 -11.5211,-3.038 -0.9427,-0.419 -0.3143,-1.466 -0.5237,-2.199 l 1.2568,-0.838 c 3.2469,0.21 6.2842,2.723 9.3217,1.781 2.5137,-5.342 2.9326,-11.9406 4.8179,-17.2822 l 8.3735,-36.3528 1.8908,2.8368 z"/><path style="fill:#ffcc00;stroke:none" id="path3506" d="m 72.849,64.0989 19.167,-0.0904 0.7332,1.1378 c 0.3215,7.2318 0.1048,14.8728 0.2094,21.8902 -0.8379,1.6758 -3.0373,0.8379 -4.2941,0.7332 -1.4664,-1.5711 1.3615,-2.5137 0.8378,-4.2942 0.419,-4.9227 0.6285,-10.2644 -3.0374,-13.8254 1.4664,-1.1521 -0.1048,-2.0948 0,-3.5611 -1.0473,-0.8379 -2.8279,-1.4663 -4.0848,-0.419 -1.0473,0.8379 -1.0473,2.1996 -0.9426,3.4564 1.8853,0.9426 0.5237,3.0373 0.2095,4.2942 -2.1995,1.6759 -2.1995,4.6085 -5.2369,4.818 -1.0474,-0.5237 -2.9327,-0.5237 -3.2468,0.9426 -0.4191,1.2568 0.7331,1.8852 1.2568,2.8279 3.1421,1.5711 6.7032,-3.3516 8.2743,1.2569 -1.5711,5.4463 -8.3791,-0.3143 -11.3117,3.98 0.2095,2.1995 0.8379,5.1322 -0.5237,7.0174 -2.0948,-0.2094 -5.6558,0.7332 -6.0748,-1.7805 l 8.0648,-28.384 z"/><path style="fill:#ffcc00;stroke:none" id="path3508" d="m 78.9239,93.5303 c -0.4191,1.0474 -1.6759,1.0474 -2.828,1.0474 -1.2568,-0.7332 -0.6284,-2.5137 -0.4189,-3.5612 1.0473,-1.4663 5.132,0.1048 3.2469,2.5138 z"/><path style="fill:#ffcc00;stroke:none" id="path14-7" d="m 80.1807,97.5103 c 1.571,-2.0947 0.9426,-4.3418 1.4663,-6.5412 7.6459,0.9425 14.8394,-0.2191 22.695,0.4093 l 0.733,0.9426 -0.281,16.501 c -1.466,1.362 -3.247,0.733 -5.0274,0.524 -0.6333,-4.117 -2.9025,-7.411 -8.9191,-7.411 -6.0167,0 -6.8963,7.411 -6.8963,7.411 l -13.6159,-0.21 c 0,-2.409 -2.1995,-2.932 -3.7705,-4.294 -2.3042,0.105 -5.0275,0.419 -5.9701,2.723 -0.5237,0.629 -0.6284,1.571 -1.5711,1.781 l -3.2468,-0.21 c 0.5236,-1.571 -0.3142,-4.503 1.7805,-5.551 1.6758,-0.733 4.9227,1.676 5.2369,-1.466 l -0.5237,-0.524 c -0.5021,-4.0727 0.7747,-4.6697 2.9349,-4.5275 l 14.9753,0.4428 z"/><path style="fill:#ffcc00;stroke:none" id="path15" d="m 91.9522,114.151 c 2.7206,0 4.9262,-2.205 4.9262,-4.926 0,-2.721 -2.2056,-4.926 -4.9262,-4.926 -2.7206,0 -4.9261,2.205 -4.9261,4.926 0,2.721 2.2055,4.926 4.9261,4.926 z"/><path style="fill:#ffcc00;stroke:none" id="path16-5" d="m 65.1976,113.619 c 1.7312,0 3.1348,-1.403 3.1348,-3.134 0,-1.732 -1.4036,-3.135 -3.1348,-3.135 -1.7313,0 -3.1349,1.403 -3.1349,3.135 0,1.731 1.4036,3.134 3.1349,3.134 z"/></g></g><g id="g1327" transform="matrix(0.4327767,0,0,0.4327767,2172.3218,562.82943)"/></g></svg>