<?xml version="1.0" encoding="UTF-8" standalone="no"?>
<svg xmlns:dc="http://purl.org/dc/elements/1.1/" xmlns:cc="http://creativecommons.org/ns#" xmlns:rdf="http://www.w3.org/1999/02/22-rdf-syntax-ns#" xmlns:svg="http://www.w3.org/2000/svg" xmlns="http://www.w3.org/2000/svg" xmlns:sodipodi="http://sodipodi.sourceforge.net/DTD/sodipodi-0.dtd" xmlns:inkscape="http://www.inkscape.org/namespaces/inkscape" id="svg2" version="1.1" viewBox="0 0 500 440"><defs id="defs4"/><metadata id="metadata7"><rdf:RDF><cc:Work rdf:about=""><dc:format>image/svg+xml</dc:format><dc:type rdf:resource="http://purl.org/dc/dcmitype/StillImage"/><dc:title/></cc:Work></rdf:RDF></metadata><g id="layer1" transform="translate(2516.7774,1682.1849)"><g id="g4750" transform="translate(-8732.4241,-5274.076)"><g id="g3836" transform="matrix(0.70090825,0,0,0.69991898,6204.8066,3541.618)"><path transform="matrix(0.806617,0,0,0.806617,137.24505,129.88708)" style="fill:#ffffff;fill-opacity:1;stroke:#000000;stroke-width:12.5;stroke-linecap:round;stroke-miterlimit:4;stroke-opacity:1" id="path7108-2" d="m 291.34375,-65.6875 c -10.8681,0.534341 -20.7122,6.547321 -26.15625,15.96875 l -405.625,702.625 c -5.72548,9.91086 -5.72052,22.11697 0,32.03125 5.72051,9.91429 16.27297,16.02815 27.71875,16.03125 l 807.875,0.15625 c 11.41896,-0.006 21.96022,-6.08998 27.6875,-15.96875 5.7273,-9.87876 5.7621,-22.05583 0.0937,-31.96875 L 320.6875,-49.59375 C 314.70518,-60.05227 303.37823,-66.2707 291.34375,-65.6875 z"/><path transform="matrix(0.806617,0,0,0.806617,137.24379,129.6198)" style="fill:#ffcc00;fill-opacity:1;fill-rule:evenodd;stroke:#000000;stroke-width:29.4439621;stroke-linecap:round;stroke-linejoin:round;stroke-miterlimit:4;stroke-opacity:1;stroke-dasharray:none" id="path7110-3" d="m 292.90625,-32.375 -404.5,700.65625 805.625,0.15625 C 560.31943,434.82625 426.61912,201.23809 292.90625,-32.375 z"/></g><g transform="translate(7554.7408,1767.986)" id="g6948"><rect style="fill:none;stroke:#ff0000;stroke-width:0.86756164;stroke-miterlimit:4;stroke-opacity:1;stroke-dasharray:none;stroke-dashoffset:0" id="rect6839" width="5.956645" height="93.95253" x="-1113.5237" y="2071.0081" ry="0"/><rect ry="0" y="2071.0081" x="-1113.5237" height="93.95253" width="5.956645" id="rect6841" style="fill:none;stroke:#ff0000;stroke-width:0.86756164;stroke-miterlimit:4;stroke-opacity:1;stroke-dasharray:none;stroke-dashoffset:0"/><rect style="fill:#00000f;fill-opacity:0.94117647;stroke:#000000;stroke-width:0.87917459;stroke-miterlimit:4;stroke-opacity:1;stroke-dasharray:none;stroke-dashoffset:0" id="rect6843" width="6.0624633" height="94.553749" x="-1113.5184" y="2070.4016" ry="0"/><rect ry="0" y="2083.386" x="-1123.0056" height="81.59877" width="6.1209064" id="rect6845" style="fill:#000000;fill-opacity:1;stroke:#000000;stroke-width:0.81958669;stroke-miterlimit:4;stroke-opacity:1;stroke-dasharray:none;stroke-dashoffset:0"/><path style="fill:none;stroke:#000000;stroke-width:6.91658354;stroke-miterlimit:4;stroke-opacity:1;stroke-dasharray:none;stroke-dashoffset:0" d="m -1089.0806,1989.8712 c -9.1946,0 -17.4858,6.2381 -23.2073,16.1584 l 0,32.7233 c -13.2381,5.2256 -22.5566,18.0993 -22.5566,33.2384 l 0,141.0873 91.5007,0 0,-141.0873 c 0,-15.1391 -9.3185,-28.0128 -22.5566,-33.2384 l 0,-32.7233 c -5.7215,-9.9203 -13.9856,-16.1584 -23.1802,-16.1584 z" id="path6847"/><rect style="fill:#00000f;fill-opacity:0.94117647;stroke:#000000;stroke-width:0.63346493;stroke-miterlimit:4;stroke-opacity:1;stroke-dasharray:none;stroke-dashoffset:0" id="rect6849" width="6.3070278" height="47.307487" x="-2040.7577" y="-1111.8052" ry="0" transform="matrix(0,-1,1,0,0,0)"/><rect style="fill:none;stroke:#ff0000;stroke-width:0.86756164;stroke-miterlimit:4;stroke-opacity:1;stroke-dasharray:none;stroke-dashoffset:0" id="rect6885" width="5.956645" height="93.95253" x="-1113.5237" y="2071.0081" ry="0"/><rect ry="0" y="2071.0081" x="-1113.5237" height="93.95253" width="5.956645" id="rect6887" style="fill:none;stroke:#ff0000;stroke-width:0.86756164;stroke-miterlimit:4;stroke-opacity:1;stroke-dasharray:none;stroke-dashoffset:0"/><rect style="fill:#00000f;fill-opacity:0.94117647;stroke:#000000;stroke-width:0.87917459;stroke-miterlimit:4;stroke-opacity:1;stroke-dasharray:none;stroke-dashoffset:0" id="rect6889" width="6.0624633" height="94.553749" x="-1113.5184" y="2070.4016" ry="0"/><rect ry="0" y="2083.386" x="-1123.0056" height="81.59877" width="6.1209064" id="rect6891" style="fill:#000000;fill-opacity:1;stroke:#000000;stroke-width:0.81958669;stroke-miterlimit:4;stroke-opacity:1;stroke-dasharray:none;stroke-dashoffset:0"/><path style="fill:none;stroke:#000000;stroke-width:6.91658354;stroke-miterlimit:4;stroke-opacity:1;stroke-dasharray:none;stroke-dashoffset:0" d="m -1089.0806,1989.8712 c -9.1946,0 -17.4858,6.2381 -23.2073,16.1584 l 0,32.7233 c -13.2381,5.2256 -22.5566,18.0993 -22.5566,33.2384 l 0,141.0873 91.5007,0 0,-141.0873 c 0,-15.1391 -9.3185,-28.0128 -22.5566,-33.2384 l 0,-32.7233 c -5.7215,-9.9203 -13.9856,-16.1584 -23.1802,-16.1584 z" id="path6893"/><rect style="fill:#00000f;fill-opacity:0.94117647;stroke:#000000;stroke-width:0.63346493;stroke-miterlimit:4;stroke-opacity:1;stroke-dasharray:none;stroke-dashoffset:0" id="rect6895" width="6.3070278" height="47.307487" x="-2040.7577" y="-1111.8052" ry="0" transform="matrix(0,-1,1,0,0,0)"/></g></g><g id="g1327" transform="matrix(0.4327767,0,0,0.4327767,2172.3218,562.82943)"/></g></svg>