<?xml version="1.0" encoding="UTF-8" standalone="no"?>
<svg xmlns:dc="http://purl.org/dc/elements/1.1/" xmlns:cc="http://creativecommons.org/ns#" xmlns:rdf="http://www.w3.org/1999/02/22-rdf-syntax-ns#" xmlns:svg="http://www.w3.org/2000/svg" xmlns="http://www.w3.org/2000/svg" xmlns:sodipodi="http://sodipodi.sourceforge.net/DTD/sodipodi-0.dtd" xmlns:inkscape="http://www.inkscape.org/namespaces/inkscape" id="svg2" version="1.1" viewBox="0 0 500 440"><defs id="defs4"/><metadata id="metadata7"><rdf:RDF><cc:Work rdf:about=""><dc:format>image/svg+xml</dc:format><dc:type rdf:resource="http://purl.org/dc/dcmitype/StillImage"/><dc:title/></cc:Work></rdf:RDF></metadata><g id="layer1" transform="translate(2805.2209,1764.6015)"><g id="g4667" transform="translate(-2460.7845,-5356.4926)"><g transform="matrix(0.70090825,0,0,0.69991898,-355.27651,3541.618)" id="use8233"><path d="m 291.34375,-65.6875 c -10.8681,0.534341 -20.7122,6.547321 -26.15625,15.96875 l -405.625,702.625 c -5.72548,9.91086 -5.72052,22.11697 0,32.03125 5.72051,9.91429 16.27297,16.02815 27.71875,16.03125 l 807.875,0.15625 c 11.41896,-0.006 21.96022,-6.08998 27.6875,-15.96875 5.7273,-9.87876 5.7621,-22.05583 0.0937,-31.96875 L 320.6875,-49.59375 C 314.70518,-60.05227 303.37823,-66.2707 291.34375,-65.6875 z" id="path6459" style="fill:#ffffff;fill-opacity:1;stroke:#000000;stroke-width:12.5;stroke-linecap:round;stroke-miterlimit:4;stroke-opacity:1" transform="matrix(0.806617,0,0,0.806617,137.24505,129.88708)"/><path d="m 292.90625,-32.375 -404.5,700.65625 805.625,0.15625 C 560.31943,434.82625 426.61912,201.23809 292.90625,-32.375 z" id="path6461" style="fill:#ffcc00;fill-opacity:1;fill-rule:evenodd;stroke:#000000;stroke-width:29.4439621;stroke-linecap:round;stroke-linejoin:round;stroke-miterlimit:4;stroke-opacity:1;stroke-dasharray:none" transform="matrix(0.806617,0,0,0.806617,137.24379,129.6198)"/></g><g transform="matrix(0.6488265,0,0,0.64792438,-743.57031,3573.2626)" id="g4359"><path transform="matrix(1.615385,0,0,1.615385,-666.03,-406.8297)" style="fill:#030303;fill-opacity:1;fill-rule:nonzero;stroke:#000000;stroke-width:0;stroke-linecap:round;stroke-linejoin:round;stroke-miterlimit:4;stroke-opacity:1" id="path3656" d="m 1062.3517,615.76416 c 0,16.02388 -12.9899,29.01381 -29.0138,29.01381 -16.0239,0 -29.0138,-12.98993 -29.0138,-29.01381 0,-16.02388 12.9899,-29.01381 29.0138,-29.01381 16.0239,0 29.0138,12.98993 29.0138,29.01381 z"/><path style="fill:#000000;fill-opacity:1;fill-rule:evenodd;stroke:none" id="path4355" d="M 998.03125,214.59375 C 971.61523,214.9905 950.51256,236.70849 950.875,263.125 l 7.5,200.875 c 0.64425,17.25514 3.82698,30.82487 18.73992,39.52884 14.91294,8.70398 28.35718,8.70398 43.27018,0 14.9129,-8.70397 18.0957,-22.2737 18.7399,-39.52884 l 7.5,-200.875 c 0.1775,-12.93576 -4.8872,-25.39282 -14.041,-34.53476 -9.1537,-9.14193 -21.6172,-14.19062 -34.55275,-13.99649 l 0,0 z"/></g></g><g id="g1327" transform="matrix(0.4327767,0,0,0.4327767,2172.3218,562.82943)"/></g></svg>