<?xml version="1.0" encoding="UTF-8" standalone="no"?>
<svg xmlns:dc="http://purl.org/dc/elements/1.1/" xmlns:cc="http://creativecommons.org/ns#" xmlns:rdf="http://www.w3.org/1999/02/22-rdf-syntax-ns#" xmlns:svg="http://www.w3.org/2000/svg" xmlns="http://www.w3.org/2000/svg" xmlns:sodipodi="http://sodipodi.sourceforge.net/DTD/sodipodi-0.dtd" xmlns:inkscape="http://www.inkscape.org/namespaces/inkscape" id="svg2" version="1.1" viewBox="0 0 500 440"><defs id="defs4"/><metadata id="metadata7"><rdf:RDF><cc:Work rdf:about=""><dc:format>image/svg+xml</dc:format><dc:type rdf:resource="http://purl.org/dc/dcmitype/StillImage"/><dc:title/></cc:Work></rdf:RDF></metadata><g id="layer1" transform="translate(1535.9413,540.26072)"><g id="g3998" transform="translate(2569.8281,-969.74646)"><g transform="matrix(0.70090825,0,0,0.69991898,-4116.6095,379.2126)" id="use3912"><path d="m 291.34375,-65.6875 c -10.8681,0.534341 -20.7122,6.547321 -26.15625,15.96875 l -405.625,702.625 c -5.72548,9.91086 -5.72052,22.11697 0,32.03125 5.72051,9.91429 16.27297,16.02815 27.71875,16.03125 l 807.875,0.15625 c 11.41896,-0.006 21.96022,-6.08998 27.6875,-15.96875 5.7273,-9.87876 5.7621,-22.05583 0.0937,-31.96875 L 320.6875,-49.59375 C 314.70518,-60.05227 303.37823,-66.2707 291.34375,-65.6875 z" id="path6387" style="fill:#ffffff;fill-opacity:1;stroke:#000000;stroke-width:12.5;stroke-linecap:round;stroke-miterlimit:4;stroke-opacity:1" transform="matrix(0.806617,0,0,0.806617,137.24505,129.88708)"/><path d="m 292.90625,-32.375 -404.5,700.65625 805.625,0.15625 C 560.31943,434.82625 426.61912,201.23809 292.90625,-32.375 z" id="path6389" style="fill:#ffcc00;fill-opacity:1;fill-rule:evenodd;stroke:#000000;stroke-width:29.4439621;stroke-linecap:round;stroke-linejoin:round;stroke-miterlimit:4;stroke-opacity:1;stroke-dasharray:none" transform="matrix(0.806617,0,0,0.806617,137.24379,129.6198)"/></g><g transform="matrix(8.3578469,0,0,8.3578469,-7947.5453,-3490.2704)" id="g4365" style="display:inline"><path style="color:#000000;fill:#000000;fill-opacity:1;fill-rule:nonzero;stroke:none;stroke-width:0.40000001;marker:none;visibility:visible;display:inline;overflow:visible" d="m 488.3125,494.03125 0,12.59375 6.5625,0 0,-12.59375 -6.5625,0 z m 2.25,4.625 2.0625,0 0,3 1.5,0 -1.25,1.34375 -1.28125,1.375 -1.25,-1.375 -1.28125,-1.34375 1.5,0 0,-3 z" id="rect4348"/><path style="fill:#000000;fill-opacity:1;fill-rule:evenodd;stroke:none" d="m 481.25,493.84375 -3.375,5.9375 7.03125,10.5 2.03125,5.6875 c 1.75377,-0.12569 0.97852,-3.88875 0.45428,-5.9375 l 7.42072,0 1.625,-0.9375 1.375,1.53125 2.28125,-0.0625 1.125,-0.71875 -0.8125,-0.75382 -1.5,0 -2.84375,-3.04461 0,1.64218 -8.9375,0 0,-4.25 -5.875,-9.59375 z" id="path4356"/><path style="fill:#000000;fill-opacity:1;fill-rule:evenodd;stroke:none" d="m 496.08153,501.92533 0,1.22821 2.09938,-0.61411 c 0.654,-0.64831 1.32503,-0.7612 1.78519,-0.74263 0.61353,-0.14618 0.8793,-0.55988 0.9997,-1.08539 l 0,-0.79977 -2.79917,1.02827 c -0.0343,0.21404 -0.22465,0.29437 -0.3856,0.39988 l -1.6995,0.58554 z" id="path4361"/><path style="fill:#000000;fill-opacity:1;fill-rule:evenodd;stroke:none" d="m 501.27094,504.66829 -0.18177,3.36281 c -0.45206,0.002 -0.91239,0.10281 -1.31281,-0.51503 l 0.0404,-2.05 c -0.63457,-0.12377 -1.04896,0.0827 -1.47439,0.27266 -0.97805,0.18072 -2.00412,-0.34952 -2.33276,-1.42389 -0.0122,-0.0398 0.93916,-0.25247 0.93916,-0.25247 0.30874,-0.28418 0.73956,-0.38525 1.15124,-0.51502 l 3.17093,1.12094 z" id="path4363"/></g></g><g id="g1327" transform="matrix(0.4327767,0,0,0.4327767,2172.3218,562.82943)"/></g></svg>