<?xml version="1.0" encoding="UTF-8" standalone="no"?>
<svg xmlns:dc="http://purl.org/dc/elements/1.1/" xmlns:cc="http://creativecommons.org/ns#" xmlns:rdf="http://www.w3.org/1999/02/22-rdf-syntax-ns#" xmlns:svg="http://www.w3.org/2000/svg" xmlns="http://www.w3.org/2000/svg" xmlns:sodipodi="http://sodipodi.sourceforge.net/DTD/sodipodi-0.dtd" xmlns:inkscape="http://www.inkscape.org/namespaces/inkscape" id="svg2" version="1.1" viewBox="0 0 500 440"><defs id="defs4"/><metadata id="metadata7"><rdf:RDF><cc:Work rdf:about=""><dc:format>image/svg+xml</dc:format><dc:type rdf:resource="http://purl.org/dc/dcmitype/StillImage"/><dc:title/></cc:Work></rdf:RDF></metadata><g id="layer1" transform="translate(2802.4401,985.80169)"><g id="g3878" transform="translate(1713.2187,-880.85303)"><g transform="matrix(0.70090825,0,0,0.69991898,-4526.4989,-155.2218)" id="use12132"><path d="m 291.34375,-65.6875 c -10.8681,0.534341 -20.7122,6.547321 -26.15625,15.96875 l -405.625,702.625 c -5.72548,9.91086 -5.72052,22.11697 0,32.03125 5.72051,9.91429 16.27297,16.02815 27.71875,16.03125 l 807.875,0.15625 c 11.41896,-0.006 21.96022,-6.08998 27.6875,-15.96875 5.7273,-9.87876 5.7621,-22.05583 0.0937,-31.96875 L 320.6875,-49.59375 C 314.70518,-60.05227 303.37823,-66.2707 291.34375,-65.6875 z" id="path6525" style="fill:#ffffff;fill-opacity:1;stroke:#000000;stroke-width:12.5;stroke-linecap:round;stroke-miterlimit:4;stroke-opacity:1" transform="matrix(0.806617,0,0,0.806617,137.24505,129.88708)"/><path d="m 292.90625,-32.375 -404.5,700.65625 805.625,0.15625 C 560.31943,434.82625 426.61912,201.23809 292.90625,-32.375 z" id="path6527" style="fill:#ffcc00;fill-opacity:1;fill-rule:evenodd;stroke:#000000;stroke-width:29.4439621;stroke-linecap:round;stroke-linejoin:round;stroke-miterlimit:4;stroke-opacity:1;stroke-dasharray:none" transform="matrix(0.806617,0,0,0.806617,137.24379,129.6198)"/></g><g transform="matrix(8.4868756,0,0,8.4868756,-8326.9009,-3291.835)" id="g3042" style="display:inline"><path style="color:#000000;fill:none;stroke:#000000;stroke-width:0.417;stroke-linecap:round;stroke-linejoin:round;stroke-miterlimit:4;stroke-opacity:1;stroke-dasharray:none;stroke-dashoffset:0;marker:none;visibility:visible;display:inline;overflow:visible" d="m 476.15706,394.21875 0,20.375 c -0.92066,0.71184 -1.53124,1.80956 -1.53125,3.0625 0,2.14789 1.75837,3.90625 3.90625,3.90625 2.14789,0 3.90627,-1.75835 3.90625,-3.90625 0,-1.31016 -0.66285,-2.45101 -1.65625,-3.15625 l 0,-20.28125 c -0.71921,-2.68413 -3.89037,-2.74166 -4.625,0 z" id="path3023"/><path style="color:#000000;fill:#000000;fill-opacity:1;fill-rule:nonzero;stroke:none;stroke-width:0.39265314;marker:none;visibility:visible;display:inline;overflow:visible" d="m 476.71956,398.65625 0,16.1875 c -0.92202,0.59544 -1.53125,1.63403 -1.53125,2.8125 0,1.8455 1.49823,3.34376 3.34375,3.34375 1.8455,0 3.34378,-1.49825 3.34375,-3.34375 0,-1.19197 -0.62273,-2.25175 -1.5625,-2.84375 l 0,-16.15625 -3.59375,0 z" id="rect3028"/></g></g><g id="g1327" transform="matrix(0.4327767,0,0,0.4327767,2172.3218,562.82943)"/></g></svg>