<?xml version="1.0" encoding="UTF-8" standalone="no"?>
<svg xmlns:dc="http://purl.org/dc/elements/1.1/" xmlns:cc="http://creativecommons.org/ns#" xmlns:rdf="http://www.w3.org/1999/02/22-rdf-syntax-ns#" xmlns:svg="http://www.w3.org/2000/svg" xmlns="http://www.w3.org/2000/svg" xmlns:sodipodi="http://sodipodi.sourceforge.net/DTD/sodipodi-0.dtd" xmlns:inkscape="http://www.inkscape.org/namespaces/inkscape" id="svg2" version="1.1" viewBox="0 0 500 440"><defs id="defs4"/><metadata id="metadata7"><rdf:RDF><cc:Work rdf:about=""><dc:format>image/svg+xml</dc:format><dc:type rdf:resource="http://purl.org/dc/dcmitype/StillImage"/><dc:title/></cc:Work></rdf:RDF></metadata><g id="layer1" transform="translate(2381.6769,1342.7737)"><g id="g4739" transform="translate(-7467.7667,-4934.6648)"><g transform="matrix(0.70090825,0,0,0.69991898,5075.2497,3541.618)" id="use6899"><path d="m 291.34375,-65.6875 c -10.8681,0.534341 -20.7122,6.547321 -26.15625,15.96875 l -405.625,702.625 c -5.72548,9.91086 -5.72052,22.11697 0,32.03125 5.72051,9.91429 16.27297,16.02815 27.71875,16.03125 l 807.875,0.15625 c 11.41896,-0.006 21.96022,-6.08998 27.6875,-15.96875 5.7273,-9.87876 5.7621,-22.05583 0.0937,-31.96875 L 320.6875,-49.59375 C 314.70518,-60.05227 303.37823,-66.2707 291.34375,-65.6875 z" id="path6621" style="fill:#ffffff;fill-opacity:1;stroke:#000000;stroke-width:12.5;stroke-linecap:round;stroke-miterlimit:4;stroke-opacity:1" transform="matrix(0.806617,0,0,0.806617,137.24505,129.88708)"/><path d="m 292.90625,-32.375 -404.5,700.65625 805.625,0.15625 C 560.31943,434.82625 426.61912,201.23809 292.90625,-32.375 z" id="path6623" style="fill:#ffcc00;fill-opacity:1;fill-rule:evenodd;stroke:#000000;stroke-width:29.4439621;stroke-linecap:round;stroke-linejoin:round;stroke-miterlimit:4;stroke-opacity:1;stroke-dasharray:none" transform="matrix(0.806617,0,0,0.806617,137.24379,129.6198)"/></g><path style="fill:#000000;fill-opacity:1;fill-rule:evenodd;stroke:#000000;stroke-width:0;stroke-linecap:square;stroke-linejoin:miter;stroke-miterlimit:4;stroke-opacity:1;stroke-dasharray:none;stroke-dashoffset:0;marker-start:none;marker-mid:none" id="path3186" d="m 5332.4158,3713.2916 -53.2753,179.2484 64.9101,-36.5572 -4.2865,73.7041 -18.3708,-1.1792 15.9213,56.0151 37.3539,-50.7084 -18.9831,-2.3585 37.3539,-123.2334 -83.2808,48.9396 61.8482,-142.6912 -39.1909,-1.1793 z"/></g><g id="g1327" transform="matrix(0.4327767,0,0,0.4327767,2172.3218,562.82943)"/></g></svg>