<?xml version="1.0" encoding="UTF-8" standalone="no"?>
<svg xmlns:dc="http://purl.org/dc/elements/1.1/" xmlns:cc="http://creativecommons.org/ns#" xmlns:rdf="http://www.w3.org/1999/02/22-rdf-syntax-ns#" xmlns:svg="http://www.w3.org/2000/svg" xmlns="http://www.w3.org/2000/svg" xmlns:sodipodi="http://sodipodi.sourceforge.net/DTD/sodipodi-0.dtd" xmlns:inkscape="http://www.inkscape.org/namespaces/inkscape" id="svg2" version="1.1" viewBox="0 0 500 440"><defs id="defs4"/><metadata id="metadata7"><rdf:RDF><cc:Work rdf:about=""><dc:format>image/svg+xml</dc:format><dc:type rdf:resource="http://purl.org/dc/dcmitype/StillImage"/><dc:title/></cc:Work></rdf:RDF></metadata><g id="layer1" transform="translate(7894.6247,2887.9504)"><g id="g4930" transform="translate(-2278.9042,-1042.4774)"><g transform="matrix(0.70090825,0,0,0.69991898,-5626.5606,-1895.7461)" id="use8380"><path d="m 291.34375,-65.6875 c -10.8681,0.534341 -20.7122,6.547321 -26.15625,15.96875 l -405.625,702.625 c -5.72548,9.91086 -5.72052,22.11697 0,32.03125 5.72051,9.91429 16.27297,16.02815 27.71875,16.03125 l 807.875,0.15625 c 11.41896,-0.006 21.96022,-6.08998 27.6875,-15.96875 5.7273,-9.87876 5.7621,-22.05583 0.0937,-31.96875 L 320.6875,-49.59375 C 314.70518,-60.05227 303.37823,-66.2707 291.34375,-65.6875 z" id="path4992" style="fill:#ffffff;fill-opacity:1;stroke:#000000;stroke-width:12.5;stroke-linecap:round;stroke-miterlimit:4;stroke-opacity:1" transform="matrix(0.806617,0,0,0.806617,137.24505,129.88708)"/><path d="m 292.90625,-32.375 -404.5,700.65625 805.625,0.15625 C 560.31943,434.82625 426.61912,201.23809 292.90625,-32.375 z" id="path4994" style="fill:#ffcc00;fill-opacity:1;fill-rule:evenodd;stroke:#000000;stroke-width:29.4439621;stroke-linecap:round;stroke-linejoin:round;stroke-miterlimit:4;stroke-opacity:1;stroke-dasharray:none" transform="matrix(0.806617,0,0,0.806617,137.24379,129.6198)"/></g><path d="m -5360.5868,-1638.0921 c -5.0018,8.1729 5.9107,15.4378 -0.9097,23.1567 l 4.5468,6.3561 c 11.8221,-4.0857 4.0921,-29.0588 17.2778,-22.7023 -1.8189,7.2649 -7.2746,16.8002 -4.5464,25.8811 9.0932,-0.9083 10.4575,-10.8973 15.4589,-16.3458 4.5468,-8.1729 6.3657,-21.7946 17.2779,-24.0647 -1.3639,16.3458 -18.1871,29.0592 -21.8246,45.859 2.2732,5.4485 7.2749,2.2701 10.0028,0 5.9111,-2.7244 7.275,-18.1618 16.3689,-10.8969 -1.8189,11.3509 -22.7342,12.713 -14.0953,26.3347 -2.7282,3.6324 -0.9093,15.4378 7.7296,14.9838 -7.7296,6.3561 5.0014,13.621 -2.2736,18.6158 -1.3639,5.4485 1.8186,8.6269 4.0922,12.2594 l -5.4561,7.2648 c 1.3639,0.9073 1.3639,2.2697 1.3639,3.6321 -4.0921,0.453 -11.8217,1.3624 -8.6389,8.6273 1.8189,9.5331 16.3686,10.4426 17.2782,20.4322 -9.0939,2.7248 -16.8235,-23.6099 -27.2814,-10.8991 5.0014,16.8016 19.5518,27.7007 24.0986,43.5893 -9.094,0.9095 -9.5486,-9.5331 -14.0954,-14.0732 -6.3657,-9.5368 -6.8203,-22.7041 -18.6421,-25.8818 -5.9107,9.0802 4.5471,18.1604 0.9093,28.15 -13.1854,-3.6306 -0.9093,-25.4253 -15.0043,-29.5124 -11.3671,9.9896 -1.3639,26.3347 -4.5468,38.1397 l -0.9093,16.3451 c -5.456,0 -3.6375,-7.2649 -5.456,-10.8956 0.4546,-13.1673 3.1825,-30.8748 -2.2736,-41.3174 -10.9125,4.0836 -5.4561,21.3381 -15.4593,24.9724 -3.6375,-9.0803 11.3672,-24.0665 -3.1825,-28.1537 l -20.9153,40.4116 -6.3657,0 c 0.4546,-18.1604 24.0982,-29.0595 18.6421,-48.1294 -9.5486,0.9094 -12.2764,9.9897 -17.7328,16.3451 -3.1829,0.9094 -3.1829,-0.9059 -4.0922,-3.1777 1.3643,-8.6273 15.0047,-13.1674 8.639,-21.7947 -11.3668,7.2649 -25.0075,10.4426 -33.6464,21.7947 -2.7279,-0.453 -6.3654,1.3624 -7.7297,-2.2683 l 0.9097,-6.359 c 11.3671,-10.4426 32.7367,-9.5331 37.2839,-25.426 -7.7297,-4.0865 -25.9168,9.9904 -24.0982,-4.0865 5.456,-6.8108 20.9153,0.9081 20.9153,-10.8973 l -3.6375,-3.1784 c -16.3686,0.454 -31.8278,3.1784 -46.8321,-2.27 l 1.3639,-5.4482 c 13.1857,0 28.645,-1.8164 43.6493,2.2697 2.7282,-0.9076 5.0018,-4.0861 4.0921,-7.7185 -5.0014,-9.0809 -20.915,0 -20.4603,-12.2594 5.9107,-6.8108 29.0996,14.5294 19.551,-5.4488 -10.9125,-10.4429 -29.5542,-11.3513 -35.0103,-24.9723 9.0936,-7.7189 11.3671,7.7185 20.9153,5.4484 5.4565,8.6266 16.3686,9.989 22.734,16.3458 3.1828,0 3.6374,-3.6324 3.1828,-6.3568 -1.8186,-8.6269 -16.8232,-7.2649 -11.8218,-17.7079 7.7297,-4.5404 14.55,22.7023 21.825,6.8106 -4.5468,-13.6211 -16.8235,-25.4268 -19.5514,-40.4105 0.9093,-1.8161 4.0921,-3.1781 5.4561,-0.9081 l 22.7342,39.9565 c 14.095,-5.9025 -9.5482,-27.6971 7.7293,-27.2431 5.0018,2.2704 0,5.4488 0,7.7189 2.7282,5.9028 2.7282,13.1677 9.5482,17.7082 l 4.5472,-4.5405 -0.9093,-43.5889 c 16.8232,-10.897 3.1825,13.6214 7.275,19.5242 z" id="path1498" style="fill:#000000;stroke:none"/><path d="m -5275.108,-1609.4869 c 5.0036,12.713 -14.5489,9.9889 -20.9146,17.2538 -4.5464,3.6324 -9.5479,5.9025 -15.4589,6.3565 9.0939,-10.8973 20.4607,-22.2483 36.3735,-23.6103 z" id="path1499" style="fill:#000000;stroke:none"/><path d="m -5287.3837,-1574.9793 0,3.6325 c -5.4561,0 -10.9118,4.0864 -16.3682,0.9083 2.7282,-3.1784 12.7311,-7.7192 16.3682,-4.5408 z" id="path1500" style="fill:#000000;stroke:none"/><path d="m -5288.293,-1536.8392 0,3.6324 c -4.5468,2.7237 -9.5478,-0.454 -13.1853,-3.6324 2.2736,-3.1784 10.0025,-3.1784 13.1853,0 z" id="path1501" style="fill:#000000;stroke:none"/><path d="m -5275.108,-1508.2355 c 2.7286,1.3624 1.8214,4.0872 1.8214,6.359 -5.0035,4.0872 -8.6392,-2.2718 -12.7328,-3.1777 -7.7296,-4.5437 -16.8232,-8.6273 -20.915,-16.3486 11.8218,0 20.0057,10.8991 31.8264,13.1673 z" id="path1502" style="fill:#000000;stroke:none"/><path d="m -5357.2633,-1550.7741 144.1945,-5.0818 1.6965,6.7759 -145.891,-1.6941 z" id="path1503" style="fill:#000000;stroke:none"/></g><g id="g1327" transform="matrix(0.4327767,0,0,0.4327767,2172.3218,562.82943)"/></g></svg>