<?xml version="1.0" encoding="UTF-8" standalone="no"?>
<svg xmlns:dc="http://purl.org/dc/elements/1.1/" xmlns:cc="http://creativecommons.org/ns#" xmlns:rdf="http://www.w3.org/1999/02/22-rdf-syntax-ns#" xmlns:svg="http://www.w3.org/2000/svg" xmlns="http://www.w3.org/2000/svg" xmlns:sodipodi="http://sodipodi.sourceforge.net/DTD/sodipodi-0.dtd" xmlns:inkscape="http://www.inkscape.org/namespaces/inkscape" id="svg2" version="1.1" viewBox="0 0 500 440"><defs id="defs4"/><metadata id="metadata7"><rdf:RDF><cc:Work rdf:about=""><dc:format>image/svg+xml</dc:format><dc:type rdf:resource="http://purl.org/dc/dcmitype/StillImage"/><dc:title/></cc:Work></rdf:RDF></metadata><g id="layer1" transform="translate(2616.465,1411.8784)"><g transform="translate(-1103.4416,-5003.7695)" id="use4838"><g transform="matrix(0.70090825,0,0,0.69991898,-1523.8635,3541.618)" id="use4842"><path d="m 291.34375,-65.6875 c -10.8681,0.534341 -20.7122,6.547321 -26.15625,15.96875 l -405.625,702.625 c -5.72548,9.91086 -5.72052,22.11697 0,32.03125 5.72051,9.91429 16.27297,16.02815 27.71875,16.03125 l 807.875,0.15625 c 11.41896,-0.006 21.96022,-6.08998 27.6875,-15.96875 5.7273,-9.87876 5.7621,-22.05583 0.0937,-31.96875 L 320.6875,-49.59375 C 314.70518,-60.05227 303.37823,-66.2707 291.34375,-65.6875 z" id="path6369" style="fill:#ffffff;fill-opacity:1;stroke:#000000;stroke-width:12.5;stroke-linecap:round;stroke-miterlimit:4;stroke-opacity:1" transform="matrix(0.806617,0,0,0.806617,137.24505,129.88708)"/><path d="m 292.90625,-32.375 -404.5,700.65625 805.625,0.15625 C 560.31943,434.82625 426.61912,201.23809 292.90625,-32.375 z" id="path6371" style="fill:#ffcc00;fill-opacity:1;fill-rule:evenodd;stroke:#000000;stroke-width:29.4439621;stroke-linecap:round;stroke-linejoin:round;stroke-miterlimit:4;stroke-opacity:1;stroke-dasharray:none" transform="matrix(0.806617,0,0,0.806617,137.24379,129.6198)"/></g><g id="g4844" transform="matrix(0.63832279,0,0,0.63743528,-2016.0375,3692.6345)"><g id="g4846" transform="translate(0,2.5)"><g id="g4848" transform="translate(22.5973,22.87627)"><path d="m 1157.9777,134.22044 0,138.26757" id="path4850" style="fill:none;stroke:#000000;stroke-width:33.754879;stroke-linecap:round;stroke-linejoin:miter;stroke-miterlimit:4;stroke-opacity:1"/><g id="g4852" transform="translate(-2.5,0)"><path d="m 1163.325,170.63855 31.8678,-18.39888" id="path4854" style="fill:none;stroke:#000000;stroke-width:33.75;stroke-linecap:round;stroke-linejoin:miter;stroke-miterlimit:4;stroke-opacity:1"/><path d="M 1157.6928,170.63855 1125.825,152.23967" id="path4856" style="fill:none;stroke:#000000;stroke-width:33.75;stroke-linecap:round;stroke-linejoin:miter;stroke-miterlimit:4;stroke-opacity:1"/></g></g><g transform="matrix(0.5,-0.866025,0.866025,0.5,364.39547,1162.0113)" id="use4858"><path style="fill:none;stroke:#000000;stroke-width:33.754879;stroke-linecap:round;stroke-linejoin:miter;stroke-miterlimit:4;stroke-opacity:1" id="path4934" d="m 1157.9777,134.22044 0,138.26757"/><g transform="translate(-2.5,0)" id="g4937"><path style="fill:none;stroke:#000000;stroke-width:33.75;stroke-linecap:round;stroke-linejoin:miter;stroke-miterlimit:4;stroke-opacity:1" id="path4939" d="m 1163.325,170.63855 31.8678,-18.39888"/><path style="fill:none;stroke:#000000;stroke-width:33.75;stroke-linecap:round;stroke-linejoin:miter;stroke-miterlimit:4;stroke-opacity:1" id="path4941" d="M 1157.6928,170.63855 1125.825,152.23967"/></g></g></g><g transform="matrix(-0.5,-0.866025,0.866025,-0.5,1514.5291,1471.823)" id="use4860"><g transform="translate(22.5973,22.87627)" id="g4877"><path style="fill:none;stroke:#000000;stroke-width:33.754879;stroke-linecap:round;stroke-linejoin:miter;stroke-miterlimit:4;stroke-opacity:1" id="path4879" d="m 1157.9777,134.22044 0,138.26757"/><g transform="translate(-2.5,0)" id="g4881"><path style="fill:none;stroke:#000000;stroke-width:33.75;stroke-linecap:round;stroke-linejoin:miter;stroke-miterlimit:4;stroke-opacity:1" id="path4883" d="m 1163.325,170.63855 31.8678,-18.39888"/><path style="fill:none;stroke:#000000;stroke-width:33.75;stroke-linecap:round;stroke-linejoin:miter;stroke-miterlimit:4;stroke-opacity:1" id="path4885" d="M 1157.6928,170.63855 1125.825,152.23967"/></g></g><g transform="matrix(0.5,-0.866025,0.866025,0.5,364.39547,1162.0113)" id="use4887"><path style="fill:none;stroke:#000000;stroke-width:33.754879;stroke-linecap:round;stroke-linejoin:miter;stroke-miterlimit:4;stroke-opacity:1" id="path4955" d="m 1157.9777,134.22044 0,138.26757"/><g transform="translate(-2.5,0)" id="g4957"><path style="fill:none;stroke:#000000;stroke-width:33.75;stroke-linecap:round;stroke-linejoin:miter;stroke-miterlimit:4;stroke-opacity:1" id="path4959" d="m 1163.325,170.63855 31.8678,-18.39888"/><path style="fill:none;stroke:#000000;stroke-width:33.75;stroke-linecap:round;stroke-linejoin:miter;stroke-miterlimit:4;stroke-opacity:1" id="path4961" d="M 1157.6928,170.63855 1125.825,152.23967"/></g></g></g><g transform="matrix(-0.5,0.866025,-0.866025,-0.5,2025.4769,-571.8641)" id="use4862"><g transform="translate(22.5973,22.87627)" id="g4891"><path style="fill:none;stroke:#000000;stroke-width:33.754879;stroke-linecap:round;stroke-linejoin:miter;stroke-miterlimit:4;stroke-opacity:1" id="path4893" d="m 1157.9777,134.22044 0,138.26757"/><g transform="translate(-2.5,0)" id="g4895"><path style="fill:none;stroke:#000000;stroke-width:33.75;stroke-linecap:round;stroke-linejoin:miter;stroke-miterlimit:4;stroke-opacity:1" id="path4897" d="m 1163.325,170.63855 31.8678,-18.39888"/><path style="fill:none;stroke:#000000;stroke-width:33.75;stroke-linecap:round;stroke-linejoin:miter;stroke-miterlimit:4;stroke-opacity:1" id="path4900" d="M 1157.6928,170.63855 1125.825,152.23967"/></g></g><g transform="matrix(0.5,-0.866025,0.866025,0.5,364.39547,1162.0113)" id="use4902"><path style="fill:none;stroke:#000000;stroke-width:33.754879;stroke-linecap:round;stroke-linejoin:miter;stroke-miterlimit:4;stroke-opacity:1" id="path4966" d="m 1157.9777,134.22044 0,138.26757"/><g transform="translate(-2.5,0)" id="g4969"><path style="fill:none;stroke:#000000;stroke-width:33.75;stroke-linecap:round;stroke-linejoin:miter;stroke-miterlimit:4;stroke-opacity:1" id="path4971" d="m 1163.325,170.63855 31.8678,-18.39888"/><path style="fill:none;stroke:#000000;stroke-width:33.75;stroke-linecap:round;stroke-linejoin:miter;stroke-miterlimit:4;stroke-opacity:1" id="path4973" d="M 1157.6928,170.63855 1125.825,152.23967"/></g></g></g></g></g><g id="g1327" transform="matrix(0.4327767,0,0,0.4327767,2172.3218,562.82943)"/></g></svg>