<?xml version="1.0" encoding="UTF-8" standalone="no"?>
<svg xmlns:dc="http://purl.org/dc/elements/1.1/" xmlns:cc="http://creativecommons.org/ns#" xmlns:rdf="http://www.w3.org/1999/02/22-rdf-syntax-ns#" xmlns:svg="http://www.w3.org/2000/svg" xmlns="http://www.w3.org/2000/svg" xmlns:sodipodi="http://sodipodi.sourceforge.net/DTD/sodipodi-0.dtd" xmlns:inkscape="http://www.inkscape.org/namespaces/inkscape" id="svg2" version="1.1" viewBox="0 0 500 440"><defs id="defs4"/><metadata id="metadata7"><rdf:RDF><cc:Work rdf:about=""><dc:format>image/svg+xml</dc:format><dc:type rdf:resource="http://purl.org/dc/dcmitype/StillImage"/><dc:title/></cc:Work></rdf:RDF></metadata><g id="layer1" transform="translate(2469.3908,1316.0579)"><g id="g3970" transform="translate(3305.2192,-1745.5436)"><g id="use8143" transform="matrix(0.70090825,0,0,0.69991898,-5785.4501,379.2126)"><path transform="matrix(0.806617,0,0,0.806617,137.24505,129.88708)" style="fill:#ffffff;fill-opacity:1;stroke:#000000;stroke-width:12.5;stroke-linecap:round;stroke-miterlimit:4;stroke-opacity:1" id="path6633" d="m 291.34375,-65.6875 c -10.8681,0.534341 -20.7122,6.547321 -26.15625,15.96875 l -405.625,702.625 c -5.72548,9.91086 -5.72052,22.11697 0,32.03125 5.72051,9.91429 16.27297,16.02815 27.71875,16.03125 l 807.875,0.15625 c 11.41896,-0.006 21.96022,-6.08998 27.6875,-15.96875 5.7273,-9.87876 5.7621,-22.05583 0.0937,-31.96875 L 320.6875,-49.59375 C 314.70518,-60.05227 303.37823,-66.2707 291.34375,-65.6875 z"/><path transform="matrix(0.806617,0,0,0.806617,137.24379,129.6198)" style="fill:#ffcc00;fill-opacity:1;fill-rule:evenodd;stroke:#000000;stroke-width:29.4439621;stroke-linecap:round;stroke-linejoin:round;stroke-miterlimit:4;stroke-opacity:1;stroke-dasharray:none" id="path6635" d="m 292.90625,-32.375 -404.5,700.65625 805.625,0.15625 C 560.31943,434.82625 426.61912,201.23809 292.90625,-32.375 z"/></g><g transform="matrix(0.26392441,0,0,0.26355746,-5625.606,589.58562)" id="g3021"><path style="fill:#000000;fill-opacity:1;stroke:none" id="path3110" d="m 380.76965,522.51473 c 20.31876,0 36.79258,-16.47245 36.79258,-36.79258 0,-20.32013 -16.47382,-36.79258 -36.79258,-36.79258 -20.32013,0 -36.79258,16.47245 -36.79258,36.79258 0,20.32013 16.47245,36.79258 36.79258,36.79258 z"/><path style="fill:#110c0a;fill-opacity:1;fill-rule:nonzero;stroke:none" id="rect1710" d="m 382.65625,569.4375 c -12.81203,0.0175 -21.18806,10.39901 -24.53125,22.28125 l -81.75,290.5625 106.28125,0 0.0312,0 106.28125,0 -81.75,-290.5625 c -3.34321,-11.88231 -11.7191,-22.2639 -24.53125,-22.28125 -0.0107,-10e-6 -0.0205,0 -0.0312,0 z"/><path style="fill:none;stroke:#000000;stroke-width:37.5;stroke-linecap:round;stroke-linejoin:miter;stroke-miterlimit:4;stroke-opacity:1" id="path1752" d="m 471.77743,415.14181 c 0,0 24.28556,24.22825 24.28556,70.29124 m -24.28556,70 c 0,0 24.28556,-24.22825 24.28556,-70.29124"/><path style="fill:none;stroke:#000000;stroke-width:37.5;stroke-linecap:round;stroke-linejoin:miter;stroke-miterlimit:4;stroke-opacity:1" id="path2381" d="m 554.63465,344.99619 c 0,0 48.57112,48.4565 48.57112,140.58248 m -48.57112,140 c 0,0 48.57112,-48.4565 48.57112,-140.58248"/><path style="fill:none;stroke:#000000;stroke-width:37.5;stroke-linecap:round;stroke-linejoin:miter;stroke-miterlimit:4;stroke-opacity:1" id="path2382" d="m 644.99187,274.85057 c 0,0 72.85668,72.68475 72.85668,210.87372 m -72.85668,210 c 0,0 72.85668,-72.68475 72.85668,-210.87372"/><path style="fill:none;stroke:#000000;stroke-width:37.5;stroke-linecap:round;stroke-linejoin:miter;stroke-miterlimit:4;stroke-opacity:1" id="path3004" d="m 291.06299,415.14181 c 0,0 -24.28556,24.22825 -24.28556,70.29124 m 24.28556,70 c 0,0 -24.28556,-24.22825 -24.28556,-70.29124"/><path style="fill:none;stroke:#000000;stroke-width:37.5;stroke-linecap:round;stroke-linejoin:miter;stroke-miterlimit:4;stroke-opacity:1" id="path3128" d="m 210.70577,344.99619 c 0,0 -48.57112,48.4565 -48.57112,140.58248 m 48.57112,140 c 0,0 -48.57112,-48.4565 -48.57112,-140.58248"/><path style="fill:none;stroke:#000000;stroke-width:37.5;stroke-linecap:round;stroke-linejoin:miter;stroke-miterlimit:4;stroke-opacity:1" id="path3009" d="m 120.34855,274.85057 c 0,0 -72.85668,72.68475 -72.85668,210.87372 m 72.85668,210 c 0,0 -72.85668,-72.68475 -72.85668,-210.87372"/></g></g><g id="g1327" transform="matrix(0.4327767,0,0,0.4327767,2172.3218,562.82943)"/></g></svg>