<?xml version="1.0" encoding="UTF-8" standalone="no"?>
<svg xmlns:dc="http://purl.org/dc/elements/1.1/" xmlns:cc="http://creativecommons.org/ns#" xmlns:rdf="http://www.w3.org/1999/02/22-rdf-syntax-ns#" xmlns:svg="http://www.w3.org/2000/svg" xmlns="http://www.w3.org/2000/svg" xmlns:sodipodi="http://sodipodi.sourceforge.net/DTD/sodipodi-0.dtd" xmlns:inkscape="http://www.inkscape.org/namespaces/inkscape" id="svg2" version="1.1" viewBox="0 0 500 440"><defs id="defs4"/><metadata id="metadata7"><rdf:RDF><cc:Work rdf:about=""><dc:format>image/svg+xml</dc:format><dc:type rdf:resource="http://purl.org/dc/dcmitype/StillImage"/><dc:title/></cc:Work></rdf:RDF></metadata><g id="layer1" transform="translate(2657.9642,2083.2748)"><g id="g4673" transform="translate(-2864.3267,-5675.1659)"><g transform="matrix(0.70090825,0,0,0.69991898,195.52246,3541.618)" id="use8231"><path d="m 291.34375,-65.6875 c -10.8681,0.534341 -20.7122,6.547321 -26.15625,15.96875 l -405.625,702.625 c -5.72548,9.91086 -5.72052,22.11697 0,32.03125 5.72051,9.91429 16.27297,16.02815 27.71875,16.03125 l 807.875,0.15625 c 11.41896,-0.006 21.96022,-6.08998 27.6875,-15.96875 5.7273,-9.87876 5.7621,-22.05583 0.0937,-31.96875 L 320.6875,-49.59375 C 314.70518,-60.05227 303.37823,-66.2707 291.34375,-65.6875 z" id="path6435" style="fill:#ffffff;fill-opacity:1;stroke:#000000;stroke-width:12.5;stroke-linecap:round;stroke-miterlimit:4;stroke-opacity:1" transform="matrix(0.806617,0,0,0.806617,137.24505,129.88708)"/><path d="m 292.90625,-32.375 -404.5,700.65625 805.625,0.15625 C 560.31943,434.82625 426.61912,201.23809 292.90625,-32.375 z" id="path6437" style="fill:#ffcc00;fill-opacity:1;fill-rule:evenodd;stroke:#000000;stroke-width:29.4439621;stroke-linecap:round;stroke-linejoin:round;stroke-miterlimit:4;stroke-opacity:1;stroke-dasharray:none" transform="matrix(0.806617,0,0,0.806617,137.24379,129.6198)"/></g><g transform="translate(1387.3039,-1609.6953)" id="g7305"><g id="g2835" transform="matrix(0.85290492,0,0,0.85290492,-400.27459,5303.7011)"><path id="path2828" d="m -622,105.21875 -12.5,77.53125 -52.28125,-58.59375 31.375,71.96875 -75.65625,-21.03125 65.34375,43.59375 -75.03125,23.21875 78.53125,1.34375 -50.5625,60.0625 66.78125,-41.28125 -10.0625,77.875 33.84375,-70.875 33.65625,70.96875 -9.84375,-77.90625 66.65625,41.5 -50.375,-60.25 78.5,-1.125 -74.9375,-23.40625 65.4375,-43.40625 -75.71875,20.8125 31.59375,-71.875 -52.4375,58.4375 L -622,105.21875 z m 0.5,82.21875 c 21.27047,0 38.53125,17.26079 38.53125,38.53125 0,21.27047 -17.26079,38.5625 -38.53125,38.5625 -21.27046,-10e-6 -38.53125,-17.29204 -38.53125,-38.5625 0,-21.27046 17.26079,-38.53125 38.53125,-38.53125 z" style="fill:#000000;fill-opacity:1;stroke:#000000;stroke-width:1.24129677;stroke-linecap:square;stroke-miterlimit:4;stroke-opacity:1;stroke-dasharray:none;stroke-dashoffset:0"/><path style="fill:#000000;fill-opacity:1;stroke:#000000;stroke-width:1.08170712;stroke-linecap:square;stroke-miterlimit:4;stroke-opacity:1;stroke-dasharray:none;stroke-dashoffset:0" id="path2832" d="m -283.76617,72.152695 c 0,22.28124 -18.06251,40.343755 -40.34375,40.343755 -22.28124,0 -40.34376,-18.062515 -40.34376,-40.343755 0,-22.28124 18.06252,-40.343754 40.34376,-40.343754 22.28124,0 40.34375,18.062514 40.34375,40.343754 z" transform="matrix(0.779473,0,0,0.779473,-369.313,168.9978)"/></g></g></g><g id="g1327" transform="matrix(0.4327767,0,0,0.4327767,2172.3218,562.82943)"/></g></svg>