<?xml version="1.0" encoding="UTF-8" standalone="no"?>
<svg xmlns:dc="http://purl.org/dc/elements/1.1/" xmlns:cc="http://creativecommons.org/ns#" xmlns:rdf="http://www.w3.org/1999/02/22-rdf-syntax-ns#" xmlns:svg="http://www.w3.org/2000/svg" xmlns="http://www.w3.org/2000/svg" xmlns:sodipodi="http://sodipodi.sourceforge.net/DTD/sodipodi-0.dtd" xmlns:inkscape="http://www.inkscape.org/namespaces/inkscape" id="svg2" version="1.1" viewBox="0 0 500 440"><defs id="defs4"/><metadata id="metadata7"><rdf:RDF><cc:Work rdf:about=""><dc:format>image/svg+xml</dc:format><dc:type rdf:resource="http://purl.org/dc/dcmitype/StillImage"/><dc:title/></cc:Work></rdf:RDF></metadata><g id="layer1" transform="translate(1808.9655,2677.8387)"><g transform="matrix(0.70090825,0,0,0.69991898,-1819.8056,-2728.1118)" id="use8392"><path d="m 291.34375,-65.6875 c -10.8681,0.534341 -20.7122,6.547321 -26.15625,15.96875 l -405.625,702.625 c -5.72548,9.91086 -5.72052,22.11697 0,32.03125 5.72051,9.91429 16.27297,16.02815 27.71875,16.03125 l 807.875,0.15625 c 11.41896,-0.006 21.96022,-6.08998 27.6875,-15.96875 5.7273,-9.87876 5.7621,-22.05583 0.0937,-31.96875 L 320.6875,-49.59375 C 314.70518,-60.05227 303.37823,-66.2707 291.34375,-65.6875 z" id="path5895" style="fill:#ffffff;fill-opacity:1;stroke:#000000;stroke-width:12.5;stroke-linecap:round;stroke-miterlimit:4;stroke-opacity:1" transform="matrix(0.806617,0,0,0.806617,137.24505,129.88708)"/><path d="m 292.90625,-32.375 -404.5,700.65625 805.625,0.15625 C 560.31943,434.82625 426.61912,201.23809 292.90625,-32.375 z" id="path5897" style="fill:#ffcc00;fill-opacity:1;fill-rule:evenodd;stroke:#000000;stroke-width:29.4439621;stroke-linecap:round;stroke-linejoin:round;stroke-miterlimit:4;stroke-opacity:1;stroke-dasharray:none" transform="matrix(0.806617,0,0,0.806617,137.24379,129.6198)"/></g><g id="g1702" transform="matrix(3.6399137,0,0,3.5065077,-1848.9546,-2705.9412)"><path d="m 78.5418,50.7567 c 0.2309,3.1178 2.6558,5.6582 2.4249,8.6606 1.963,2.0785 2.3095,6.582 5.0808,6.582 1.7321,-1.9631 -1.3857,-5.3119 1.6167,-5.5427 1.6166,3.926 1.6166,8.4295 4.157,11.8937 2.194,-0.3463 2.6559,-3.8106 5.3118,-3.8106 l 0.231,0.231 c -1.8476,4.388 -0.9238,10.0462 -1.963,14.6651 1.8476,1.7321 3.2332,-1.8475 4.965,-1.0392 -6.0043,6.9285 -1.1544,14.2034 -3.002,22.4014 -0.9238,5.081 -5.4273,7.622 -8.8915,11.086 -0.3464,1.386 0.5774,1.732 1.3856,2.194 l 12.2409,0 c 0.23,0.693 -0.232,1.727 -0.809,1.727 -15.5306,0.5 -28.4065,-0.199 -43.3026,-0.121 -0.231,-0.347 -0.6929,-1.375 -0.5774,-1.837 l 12.4712,-0.231 c 0.5773,-0.346 0.6928,-0.924 0.3464,-1.386 -5.0809,-3.117 -9.3534,-7.621 -9.6999,-13.856 l -0.8082,-1.155 c 0.3464,-7.7368 0.8082,-14.7808 -2.5405,-21.5938 2.7714,-2.0785 5.3118,6.0047 6.1202,0 0,-2.8868 -1.6166,-7.5059 1.3857,-9.1224 0.8083,1.6165 1.0392,4.0416 3.3487,4.619 2.7714,-1.1549 1.3856,-4.85 1.6166,-7.1596 -0.1154,-1.9629 -2.7713,-3.3486 -1.3857,-5.3116 2.5405,-0.5774 3.9262,5.0809 6.3511,1.3856 -0.6928,-5.5428 -1.1547,-11.8938 1.3857,-17.0901 0.2309,-0.9238 -0.4619,-2.3095 0.5774,-2.7714 5.1963,-0.4619 0.4619,4.0415 1.9631,6.582 z" id="path1703" style="fill:#000000;stroke:none"/><path d="m 85.4702,70.7337 c -0.3465,0.9237 -0.3465,2.3096 -1.1547,2.7714 -1.0393,0.4618 -0.9239,-0.5773 -1.3858,-1.1548 0.1156,-1.2702 -1.7321,-3.1178 -0.2309,-4.6188 2.3095,-0.5775 1.963,1.8474 2.7714,3.0022 z" id="path1704" style="fill:#ffcc00;stroke:none"/><path d="m 80.5048,75.4681 c 0.6928,1.6167 2.0786,3.3488 1.3857,5.1964 -1.9631,-0.1155 -4.619,0.6929 -5.0809,-1.8476 -0.3464,-3.5797 0.4619,-6.9285 2.5404,-9.238 1.9631,1.0393 0.1156,4.0417 1.1548,5.8892 z" id="path1705" style="fill:#ffcc00;stroke:none"/><path d="m 74.0382,77.0848 c 0.4619,1.8476 0.6929,4.5035 -1.3856,5.3118 -1.3857,0.6929 -1.5012,-1.0392 -2.1941,-1.7321 -0.3464,-2.0786 0.4619,-3.8106 1.1548,-5.5427 1.3857,-0.4619 1.963,1.2701 2.4249,1.963 z" id="path1706" style="fill:#ffcc00;stroke:none"/><path d="m 87.0868,76.0455 c 1.1547,1.7322 0.231,4.0416 0.3465,6.0046 -0.3465,0.5775 -0.9239,0.231 -1.3858,0.3465 -1.1547,-1.2702 -2.0785,-2.5405 -1.732,-4.5035 0.8082,-0.6928 0.4619,-2.1939 1.963,-2.1939 0.1155,0.3463 0.5774,0.3463 0.8083,0.3463 z" id="path1707" style="fill:#ffcc00;stroke:none"/><path d="m 92.6296,81.8192 c -1.0393,1.8476 1.1547,3.4643 -0.8084,4.3881 -2.3094,-0.1155 -1.9631,-3.0024 -1.9631,-4.9655 -0.5773,-3.5797 3.4643,-1.7321 2.7715,0.5774 z" id="path1708" style="fill:#ffcc00;stroke:none"/><path d="m 66.0705,86.7846 c -0.9238,0.2309 -1.3856,1.7321 -2.5404,1.1548 -1.2702,-1.3858 0,-3.1179 0,-4.7345 l 1.1548,-1.1548 c 1.3856,1.0394 2.7713,3.1178 1.3856,4.7345 z" id="path1709" style="fill:#ffcc00;stroke:none"/><path d="m 92.6296,89.3251 c 3.8106,6.582 3.8106,15.8199 -1.0393,21.8249 -4.388,5.311 -12.3557,6.812 -19.1687,4.734 -6.1202,-3.002 -10.739,-9.584 -10.2772,-16.0508 -1.1548,-3.9261 0.6929,-7.6213 2.7714,-10.2773 2.194,-3.3486 5.8892,-5.3117 9.4689,-6.351 6.9284,-0.9238 13.5105,0.8084 18.2449,6.1202 z" id="path1710" style="fill:#ffcc00;stroke:none"/></g><g id="g1327" transform="matrix(0.4327767,0,0,0.4327767,2172.3218,562.82943)"/></g></svg>