<?xml version="1.0" encoding="UTF-8" standalone="no"?>
<svg xmlns:dc="http://purl.org/dc/elements/1.1/" xmlns:cc="http://creativecommons.org/ns#" xmlns:rdf="http://www.w3.org/1999/02/22-rdf-syntax-ns#" xmlns:svg="http://www.w3.org/2000/svg" xmlns="http://www.w3.org/2000/svg" xmlns:sodipodi="http://sodipodi.sourceforge.net/DTD/sodipodi-0.dtd" xmlns:inkscape="http://www.inkscape.org/namespaces/inkscape" id="svg2" version="1.1" viewBox="0 0 500 440"><defs id="defs4"/><metadata id="metadata7"><rdf:RDF><cc:Work rdf:about=""><dc:format>image/svg+xml</dc:format><dc:type rdf:resource="http://purl.org/dc/dcmitype/StillImage"/><dc:title/></cc:Work></rdf:RDF></metadata><g id="layer1" transform="translate(2666.8,1439.7483)"><g id="g4723" transform="translate(-6665.5227,-5031.6394)"><g transform="matrix(0.70090825,0,0,0.69991898,3987.8826,3541.618)" id="use8135"><path d="m 291.34375,-65.6875 c -10.8681,0.534341 -20.7122,6.547321 -26.15625,15.96875 l -405.625,702.625 c -5.72548,9.91086 -5.72052,22.11697 0,32.03125 5.72051,9.91429 16.27297,16.02815 27.71875,16.03125 l 807.875,0.15625 c 11.41896,-0.006 21.96022,-6.08998 27.6875,-15.96875 5.7273,-9.87876 5.7621,-22.05583 0.0937,-31.96875 L 320.6875,-49.59375 C 314.70518,-60.05227 303.37823,-66.2707 291.34375,-65.6875 z" id="path6603" style="fill:#ffffff;fill-opacity:1;stroke:#000000;stroke-width:12.5;stroke-linecap:round;stroke-miterlimit:4;stroke-opacity:1" transform="matrix(0.806617,0,0,0.806617,137.24505,129.88708)"/><path d="m 292.90625,-32.375 -404.5,700.65625 805.625,0.15625 C 560.31943,434.82625 426.61912,201.23809 292.90625,-32.375 z" id="path6605" style="fill:#ffcc00;fill-opacity:1;fill-rule:evenodd;stroke:#000000;stroke-width:29.4439621;stroke-linecap:round;stroke-linejoin:round;stroke-miterlimit:4;stroke-opacity:1;stroke-dasharray:none" transform="matrix(0.806617,0,0,0.806617,137.24379,129.6198)"/></g><g transform="matrix(3.6133309,0,0,3.608307,4526.2886,3555.7822)" id="g1192"><g transform="translate(-155.52514,0)" id="g8217"><path d="m 70.4551,90.4441 c 0,-2.9306 1.5582,-5.4974 3.8913,-6.917 L 64.7705,65.8975 C 56.1958,70.7202 50.4032,79.9058 50.4032,90.4441 l 20.0519,0 z" id="path1193" style="fill:#000000;stroke:none"/><path d="m 82.995,97.6768 c -2.5385,1.4658 -5.5408,1.3999 -7.9373,0.089 L 64.5774,114.876 c 8.4654,5.015 19.3182,5.439 28.4457,0.168 L 82.995,97.6768 z" id="path1194" style="fill:#000000;stroke:none"/><path d="m 82.9038,82.5685 c 2.5389,1.4656 3.9834,4.0991 4.0464,6.8301 l 20.0608,0.5201 c 0.11,-9.8399 -4.951,-19.4513 -14.08,-24.721 L 82.9038,82.5685 z" id="path1195" style="fill:#000000;stroke:none"/><path d="m 78.795,96.0728 c 3.1085,0 5.6286,-2.5201 5.6286,-5.6287 0,-3.1085 -2.5201,-5.6286 -5.6286,-5.6286 -3.1085,0 -5.6286,2.5201 -5.6286,5.6286 0,3.1086 2.5201,5.6287 5.6286,5.6287 z" id="path1196" style="fill:#000000;stroke:none"/></g></g></g><g id="g1327" transform="matrix(0.4327767,0,0,0.4327767,2172.3218,562.82943)"/></g></svg>