<?xml version="1.0" encoding="UTF-8" standalone="no"?>
<svg xmlns:dc="http://purl.org/dc/elements/1.1/" xmlns:cc="http://creativecommons.org/ns#" xmlns:rdf="http://www.w3.org/1999/02/22-rdf-syntax-ns#" xmlns:svg="http://www.w3.org/2000/svg" xmlns="http://www.w3.org/2000/svg" xmlns:sodipodi="http://sodipodi.sourceforge.net/DTD/sodipodi-0.dtd" xmlns:inkscape="http://www.inkscape.org/namespaces/inkscape" id="svg2" version="1.1" viewBox="0 0 500 440"><defs id="defs4"/><metadata id="metadata7"><rdf:RDF><cc:Work rdf:about=""><dc:format>image/svg+xml</dc:format><dc:type rdf:resource="http://purl.org/dc/dcmitype/StillImage"/><dc:title/></cc:Work></rdf:RDF></metadata><g id="layer1" transform="translate(5257.9703,2920.2753)"><g id="g4939" transform="translate(-282.84268,-1082.8835)"><g transform="matrix(0.70090825,0,0,0.69991898,-4985.9677,-1887.6649)" id="use8382"><path d="m 291.34375,-65.6875 c -10.8681,0.534341 -20.7122,6.547321 -26.15625,15.96875 l -405.625,702.625 c -5.72548,9.91086 -5.72052,22.11697 0,32.03125 5.72051,9.91429 16.27297,16.02815 27.71875,16.03125 l 807.875,0.15625 c 11.41896,-0.006 21.96022,-6.08998 27.6875,-15.96875 5.7273,-9.87876 5.7621,-22.05583 0.0937,-31.96875 L 320.6875,-49.59375 C 314.70518,-60.05227 303.37823,-66.2707 291.34375,-65.6875 z" id="path5070" style="fill:#ffffff;fill-opacity:1;stroke:#000000;stroke-width:12.5;stroke-linecap:round;stroke-miterlimit:4;stroke-opacity:1" transform="matrix(0.806617,0,0,0.806617,137.24505,129.88708)"/><path d="m 292.90625,-32.375 -404.5,700.65625 805.625,0.15625 C 560.31943,434.82625 426.61912,201.23809 292.90625,-32.375 z" id="path5072" style="fill:#ffcc00;fill-opacity:1;fill-rule:evenodd;stroke:#000000;stroke-width:29.4439621;stroke-linecap:round;stroke-linejoin:round;stroke-miterlimit:4;stroke-opacity:1;stroke-dasharray:none" transform="matrix(0.806617,0,0,0.806617,137.24379,129.6198)"/></g><path id="path1950" d="m -4689.0516,-1626.4892 -3.8558,10.1608 c 27.7992,6.4721 48.537,31.4132 48.537,61.1728 0,28.1331 -18.5186,51.9657 -44.0298,59.9483 11.1855,-8.4538 18.8794,-21.2499 20.608,-35.8752 0.093,-0.7856 0.1766,-1.575 0.2345,-2.3708 0.01,-0.061 0.022,-0.1215 0.026,-0.1824 0.012,-0.1651 0.015,-0.3299 0.026,-0.495 0.032,-0.5297 0.062,-1.0555 0.078,-1.5892 0.019,-0.5384 0.024,-1.0775 0.026,-1.6153 0,-0.9023 -0.036,-1.8105 -0.078,-2.7096 -0.04,-0.8602 -0.1003,-1.7235 -0.1824,-2.5792 0,-0.034 0,-0.07 0,-0.1042 0,-0.026 0,-0.052 0,-0.078 -0.052,-0.523 -0.1149,-1.0423 -0.1823,-1.5632 -0.8278,-10.6699 -3.9862,-21.3292 -9.6918,-31.2117 -20.4133,-35.3567 -65.6514,-47.5085 -101.0081,-27.0952 -29.4755,17.0176 -42.8316,51.3225 -34.6247,82.7448 l 10.7339,-1.7456 c -8.2946,-27.3108 2.9381,-57.7304 28.7106,-72.6101 24.2406,-13.9954 53.9544,-9.9753 73.6262,7.8941 -8.28,-3.4131 -17.0526,-4.5771 -25.5581,-3.6735 -0.1907,0.019 -0.3825,0.031 -0.5732,0.052 -0.269,0.032 -0.5392,0.069 -0.8076,0.1042 -0.8509,0.1074 -1.7049,0.241 -2.5533,0.3908 -1.6865,0.2978 -3.3606,0.6785 -5.0282,1.1463 l -0.078,-0.2345 c -1.5603,0.5407 -3.1106,1.153 -4.6374,1.7977 -0.095,0.037 -0.1915,0.067 -0.2866,0.1042 -2.4287,0.9538 -4.8367,2.095 -7.1646,3.439 -0.8918,0.5149 -1.7293,1.0833 -2.5793,1.6414 -10.0879,6.2249 -18.8286,14.9439 -25.1673,25.9229 -20.4133,35.3568 -8.2876,80.6209 27.0692,101.0342 29.4754,17.0176 65.8365,11.4073 88.9455,-11.4113 l -6.878,-8.4152 c -19.5046,20.8387 -51.4751,26.3432 -77.2477,11.4634 -24.1636,-13.9509 -35.553,-41.5781 -30.0393,-67.4777 0.8902,6.6268 3.0688,13.1849 6.6175,19.3315 2.46,4.2608 5.4286,8.049 8.78,11.3331 0.1303,0.1289 0.2591,0.2632 0.3908,0.3908 l -0.1824,0.2084 c 1.6218,1.4043 3.3134,2.7512 5.0543,4.0122 0.076,0.055 0.1582,0.1015 0.2345,0.1563 0.01,0.01 0.016,0.019 0.026,0.026 1.6314,1.2203 3.3632,2.3325 5.1325,3.3608 0.4787,0.2783 0.9448,0.5703 1.4329,0.8337 10.7827,6.1349 23.2427,9.6397 36.5266,9.6397 40.8265,0 73.9649,-33.1124 73.9649,-73.9389 0,-34.0353 -23.0309,-62.7298 -54.3469,-71.3336 z m -31.3159,48.8497 c 22.2597,0 40.3303,18.0446 40.3303,40.3043 0,6.9561 -1.7661,13.5129 -4.8719,19.2272 -0.2861,0.5264 -0.5773,1.0252 -0.8858,1.5371 -0.026,0.044 -0.052,0.087 -0.078,0.1303 -0.017,0.027 -0.035,0.052 -0.052,0.078 -0.2309,0.3779 -0.4866,0.7508 -0.7295,1.1203 -0.096,0.1458 -0.1889,0.2984 -0.2866,0.4429 -0.1515,0.2191 -0.3137,0.4361 -0.4689,0.6514 -11.9508,16.5714 -34.7633,21.7413 -52.8358,11.307 -17.4702,-10.0864 -24.5414,-31.3151 -17.4296,-49.5531 0.4905,-1.2578 1.0669,-2.5008 1.6935,-3.7256 0.2376,-0.4645 0.498,-0.922 0.7555,-1.3808 0.082,-0.1461 0.1505,-0.2974 0.2345,-0.4429 0.1082,-0.1874 0.228,-0.3622 0.3387,-0.5471 0.2838,-0.4639 0.5565,-0.9277 0.8597,-1.3809 0.055,-0.082 0.1265,-0.153 0.1824,-0.2344 0.022,-0.032 0.03,-0.072 0.052,-0.1042 0.3535,-0.5115 0.718,-1.0172 1.0942,-1.5111 0.3201,-0.424 0.6521,-0.8382 0.99,-1.2506 0.028,-0.034 0.05,-0.071 0.078,-0.1042 0.2072,-0.2512 0.4375,-0.4828 0.6513,-0.7295 0.2239,-0.2563 0.4211,-0.531 0.6513,-0.7816 0.3919,-0.4293 0.8121,-0.8366 1.2245,-1.2505 1.0569,-1.056 2.1666,-2.0621 3.3348,-2.9961 0.3252,-0.2606 0.6551,-0.53 0.9901,-0.7816 6.7374,-5.0497 15.1138,-8.0244 24.1773,-8.0244 z" style="fill:#000000;fill-opacity:1;stroke:none"/></g><g id="g1327" transform="matrix(0.4327767,0,0,0.4327767,2172.3218,562.82943)"/></g></svg>