<?xml version="1.0" encoding="UTF-8" standalone="no"?>
<svg xmlns:dc="http://purl.org/dc/elements/1.1/" xmlns:cc="http://creativecommons.org/ns#" xmlns:rdf="http://www.w3.org/1999/02/22-rdf-syntax-ns#" xmlns:svg="http://www.w3.org/2000/svg" xmlns="http://www.w3.org/2000/svg" xmlns:sodipodi="http://sodipodi.sourceforge.net/DTD/sodipodi-0.dtd" xmlns:inkscape="http://www.inkscape.org/namespaces/inkscape" id="svg2" version="1.1" viewBox="0 0 500 440"><defs id="defs4"/><metadata id="metadata7"><rdf:RDF><cc:Work rdf:about=""><dc:format>image/svg+xml</dc:format><dc:type rdf:resource="http://purl.org/dc/dcmitype/StillImage"/><dc:title/></cc:Work></rdf:RDF></metadata><g id="layer1" transform="translate(659.12891,459.44851)"><g id="g4010" transform="translate(2335.4727,-888.93425)"><g transform="matrix(0.70090825,0,0,0.69991898,-3005.4417,379.2126)" id="use3916"><path d="m 291.34375,-65.6875 c -10.8681,0.534341 -20.7122,6.547321 -26.15625,15.96875 l -405.625,702.625 c -5.72548,9.91086 -5.72052,22.11697 0,32.03125 5.72051,9.91429 16.27297,16.02815 27.71875,16.03125 l 807.875,0.15625 c 11.41896,-0.006 21.96022,-6.08998 27.6875,-15.96875 5.7273,-9.87876 5.7621,-22.05583 0.0937,-31.96875 L 320.6875,-49.59375 C 314.70518,-60.05227 303.37823,-66.2707 291.34375,-65.6875 z" id="path6399" style="fill:#ffffff;fill-opacity:1;stroke:#000000;stroke-width:12.5;stroke-linecap:round;stroke-miterlimit:4;stroke-opacity:1" transform="matrix(0.806617,0,0,0.806617,137.24505,129.88708)"/><path d="m 292.90625,-32.375 -404.5,700.65625 805.625,0.15625 C 560.31943,434.82625 426.61912,201.23809 292.90625,-32.375 z" id="path6401" style="fill:#ffcc00;fill-opacity:1;fill-rule:evenodd;stroke:#000000;stroke-width:29.4439621;stroke-linecap:round;stroke-linejoin:round;stroke-miterlimit:4;stroke-opacity:1;stroke-dasharray:none" transform="matrix(0.806617,0,0,0.806617,137.24379,129.6198)"/></g><g transform="matrix(8.4868756,0,0,8.4868756,-8179.6494,-3499.5588)" id="g3066" style="display:inline"><path style="color:#000000;fill:#000000;fill-opacity:1;fill-rule:nonzero;stroke:none;stroke-width:0.40000001;marker:none;visibility:visible;display:inline;overflow:visible" d="m 638.84375,489.1875 -0.90625,1.40625 -1.03125,0.0312 -0.875,-1.34375 -1.28125,0.5625 0.34375,1.65625 -0.6875,0.71875 -1.59375,-0.34375 -0.5,1.34375 1.40625,0.90625 0.0312,1.03125 -1.375,0.84375 0.59375,1.3125 1.625,-0.34375 0.75,0.6875 -0.3437,1.5938 1.3125,0.5 0.9375,-1.40625 1,-0.0312 0.875,1.34375 1.3125,-0.5625 -0.34375,-1.65625 0.6875,-0.75 1.5625,0.375 0.53125,-1.34375 -1.40625,-0.90625 -0.0625,-1.03125 1.375,-0.875 -0.5625,-1.28125 -1.65625,0.34375 -0.75,-0.6875 0.34375,-1.59375 -1.3125,-0.5 z M 637.5,491.53125 c 1.52148,-10e-6 2.78125,1.22851 2.78125,2.75 -3e-5,1.52149 -1.25976,2.75 -2.78125,2.75 -1.5215,10e-6 -2.75,-1.22851 -2.75,-2.75 10e-6,-1.52149 1.22851,-2.75 2.75,-2.75 z" id="path4637"/><path style="color:#000000;fill:#000000;fill-opacity:1;fill-rule:nonzero;stroke:none;stroke-width:0.40000001;marker:none;visibility:visible;display:inline;overflow:visible" d="m 649.5,492.53125 -0.59375,1.15625 -1,0.1875 -0.78125,-0.96875 -1.09375,0.5 0.0937,1.3125 -0.78125,0.625 -1.15625,-0.4375 -0.6875,1 0.6875,1.09375 -0.34375,0.9375 -1.1875,0.1875 -0.125,1.1875 1.15625,0.59375 0.1875,1 -0.96875,0.78125 0.5,1.09375 1.3125,-0.0625 0.625,0.75 -0.4375,1.15625 0.96875,0.71875 1.09375,-0.71875 0.96875,0.34375 0.1875,1.21875 1.1875,0.0937 0.59375,-1.15625 1,-0.15625 0.78125,0.9375 1.09375,-0.5 -0.0625,-1.28125 0.75,-0.65625 1.15625,0.4375 0.6875,-0.96875 -0.6875,-1.09375 0.34375,-0.9375 1.21875,-0.21875 0.0937,-1.1875 -1.15625,-0.59375 -0.15625,-0.96875 0.9375,-0.8125 -0.5,-1.09375 -1.28125,0.0937 -0.65625,-0.78125 0.4375,-1.15625 -0.96875,-0.6875 -1.09375,0.71875 -0.9375,-0.34375 -0.21875,-1.21875 -1.1875,-0.125 z m -0.0937,2.65625 c 2.32558,0 4.21875,1.89315 4.21875,4.21875 10e-6,2.32559 -1.89315,4.21875 -4.21875,4.21875 -2.32562,-10e-6 -4.21875,-1.89315 -4.21875,-4.21875 2e-5,-2.3256 1.89315,-4.21875 4.21875,-4.21875 z" id="path4644"/><path style="fill:#000000;fill-opacity:1;fill-rule:evenodd;stroke:none" d="m 642.15625,486.15625 0,5.34375 c 0.484,0.0153 0.64462,0.77508 0.875,1.40625 -0.29841,0.42091 -0.5342,0.9488 -0.9375,1.125 l 0,0.5625 0.84375,1.09375 c -0.0874,0.57674 -0.27089,1.3966 -0.78125,1.65625 l -0.8125,-0.125 L 640.4375,498 c 0.21207,0.48347 0.1077,1.01587 0,1.21875 -0.56486,0.43677 -1.1949,0.53335 -1.78125,0.5625 l -0.6875,-0.8125 -0.78125,0 c -0.51056,0.8804 -0.99455,0.79399 -1.46875,0.875 l -0.75,-0.28125 -0.5,-0.6875 -1.28125,-0.46875 -4.5,-0.0625 -4.15625,7.3125 c 6.11055,-0.6815 12.10722,-1.32027 16.78125,0.125 2.06569,0.63872 3.28343,2.31507 5.28125,3.4375 0.42866,-0.82037 0.82203,-1.67041 -0.59375,-3.28125 l -2.875,-2.25 c -1.34767,-1.13432 -0.62017,-2.38917 -0.34375,-3.625 -0.64304,-0.13928 -0.70796,-0.6251 -0.59375,-1.21875 -0.088,-1.44285 0.75777,-0.84974 1.15625,-1.25 0.28238,0.0496 0.35637,-0.15439 0.375,-0.40625 l -0.6875,-1.0625 c 0.1054,-0.26285 0.18186,-0.62545 0.25,-1 l 0.53125,-0.4375 -0.125,-4.15625 c -0.0975,-0.44871 0.17295,-0.59532 0.40625,-0.75 l -0.0312,-1.6875 c -0.17857,-1.345 -1.17115,-1.74528 -1.90625,-1.9375 z m 3.28125,0.0937 0.0312,1.25 c -0.27659,0.33751 -0.4827,0.74255 -0.625,1.1875 0.0538,0.53188 0.21809,0.97748 0.40625,1.375 l -1.0625,0.25 0.125,4.21875 1.375,0.375 0,-1.28125 c -0.19798,-0.24523 -0.23383,-0.46889 -0.21875,-0.6875 0.0715,-0.32333 0.23572,-0.57355 0.1875,-0.96875 l -0.25,-0.1875 0.0312,-0.40625 c 0.25778,-0.24002 0.57635,-0.42153 0.96875,-0.5 l 0.21875,-0.8125 -0.125,-0.21875 0,-0.78125 c 0.30012,-0.18461 0.41726,-0.5355 0.5625,-0.875 l 0,-1.15625 c -0.0862,-0.32046 -0.31885,-0.5864 -0.78125,-0.71875 L 645.4375,486.25 z m 4.53125,2.59375 c 0,0 -2.64686,1.27752 -2.8125,1.3125 -0.19164,0.0405 -0.29805,1.12983 -0.21875,1.15625 0,0 -0.82639,0.28222 -0.9375,0.3125 l 0,1.21875 0.8125,-0.4375 c 0.21207,-0.0723 0.41293,0.009 0.625,0.125 l 0.84375,-0.34375 c -0.0957,-0.19597 0.0189,-0.27996 0.0625,-0.40625 0.6872,-0.28334 1.40996,-0.53402 1.875,-1.6875 l 0,-0.78125 -0.25,-0.46875 z" id="path2173"/></g></g><g id="g1327" transform="matrix(0.4327767,0,0,0.4327767,2172.3218,562.82943)"/></g></svg>