<?xml version="1.0" encoding="UTF-8" standalone="no"?>
<svg xmlns:dc="http://purl.org/dc/elements/1.1/" xmlns:cc="http://creativecommons.org/ns#" xmlns:rdf="http://www.w3.org/1999/02/22-rdf-syntax-ns#" xmlns:svg="http://www.w3.org/2000/svg" xmlns="http://www.w3.org/2000/svg" xmlns:sodipodi="http://sodipodi.sourceforge.net/DTD/sodipodi-0.dtd" xmlns:inkscape="http://www.inkscape.org/namespaces/inkscape" id="svg2" version="1.1" viewBox="0 0 500 440"><defs id="defs4"/><metadata id="metadata7"><rdf:RDF><cc:Work rdf:about=""><dc:format>image/svg+xml</dc:format><dc:type rdf:resource="http://purl.org/dc/dcmitype/StillImage"/><dc:title/></cc:Work></rdf:RDF></metadata><g id="layer1" transform="translate(2263.7394,2175.1393)"><g id="g4714" transform="translate(-5693.2331,-5767.0304)"><g id="use8139" transform="matrix(0.70090825,0,0,0.69991898,3418.6536,3541.618)"><path transform="matrix(0.806617,0,0,0.806617,137.24505,129.88708)" style="fill:#ffffff;fill-opacity:1;stroke:#000000;stroke-width:12.5;stroke-linecap:round;stroke-miterlimit:4;stroke-opacity:1" id="path6579" d="m 291.34375,-65.6875 c -10.8681,0.534341 -20.7122,6.547321 -26.15625,15.96875 l -405.625,702.625 c -5.72548,9.91086 -5.72052,22.11697 0,32.03125 5.72051,9.91429 16.27297,16.02815 27.71875,16.03125 l 807.875,0.15625 c 11.41896,-0.006 21.96022,-6.08998 27.6875,-15.96875 5.7273,-9.87876 5.7621,-22.05583 0.0937,-31.96875 L 320.6875,-49.59375 C 314.70518,-60.05227 303.37823,-66.2707 291.34375,-65.6875 z"/><path transform="matrix(0.806617,0,0,0.806617,137.24379,129.6198)" style="fill:#ffcc00;fill-opacity:1;fill-rule:evenodd;stroke:#000000;stroke-width:29.4439621;stroke-linecap:round;stroke-linejoin:round;stroke-miterlimit:4;stroke-opacity:1;stroke-dasharray:none" id="path6581" d="m 292.90625,-32.375 -404.5,700.65625 805.625,0.15625 C 560.31943,434.82625 426.61912,201.23809 292.90625,-32.375 z"/></g><g transform="matrix(0.86911444,0,0,0.86911444,4035.0843,3593.8157)" id="g2833"><g id="g2829" style="fill:#000000;stroke:none"><path id="path1934-8" d="m -530.21008,373.69179 0,-51.98836 32.75979,-32.75979 19.22857,0 c 8.97477,5.2494 13.97138,6.43474 25.99419,0 l 37.74497,0 33.82805,-26.35027 12.81904,15.66773 -39.06482,31.97796 -27.1321,0.33867 25.53842,26.04642 49.35253,-30.34234 68.1506,-13.19967 2.91834,23.28002 -59.11006,10.32645 -39.52539,27.06244 51.27619,10.32645 47.00318,32.75979 -12.81905,17.80424 -45.93493,-30.2672 -73.35344,-8.54603 c -9.31345,-0.84668 -25.66032,-9.92294 -29.91111,-13.8873 -1.0737,-1.00135 -39.5254,-45.93493 -39.5254,-45.93493 l -18.87249,16.3799 0,41.6619 -21.36508,-0.35608 z" style="fill:#000000;fill-rule:evenodd;stroke:none"/><path transform="matrix(1.02123,0,0,1.02123,10.33533,-6.140818)" d="m -444.33603,268.0079 c 0,11.73693 -9.51466,21.25159 -21.25159,21.25159 -11.73692,0 -21.25158,-9.51466 -21.25158,-21.25159 0,-11.73692 9.51466,-21.25158 21.25158,-21.25158 11.73693,0 21.25159,9.51466 21.25159,21.25158 z" id="path1936-2" style="fill:#000000;fill-opacity:1;stroke:none"/></g><path style="fill:none;stroke:#000000;stroke-width:4.900702;stroke-linecap:butt;stroke-linejoin:miter;stroke-miterlimit:4;stroke-opacity:1;stroke-dasharray:none" d="m -455.47189,391.29842 c 0,0 15.70666,-3.29051 21.5703,-2.1392 9.76011,1.91637 8.12769,6.02636 1.06959,9.80468 -8.37452,4.48303 -8.20028,10.56231 3.56534,15.86575 10.01185,4.51292 24.56127,2.58714 35.65338,3.92187 10.74058,1.29243 12.96892,3.56533 7.30894,8.37854 -4.39643,3.7387 -8.33489,9.01153 4.2784,11.58735 15.02927,3.0692 59.00634,8.37854 59.00634,8.37854 l 0,0" id="path1938-6"/><path style="fill:none;stroke:#000000;stroke-width:4.900702;stroke-linecap:butt;stroke-linejoin:miter;stroke-miterlimit:4;stroke-opacity:1;stroke-dasharray:none" d="m -400.38742,396.64643 c 0,0 26.9183,1.82724 37.43604,5.70454 10.51775,3.8773 10.60688,7.75461 4.63494,9.80468 -5.09327,1.74843 -13.23632,8.24484 0,11.23081 13.1066,2.95671 49.37993,9.98294 49.37993,9.98294" id="path1940-3"/></g></g><g id="g1327" transform="matrix(0.4327767,0,0,0.4327767,2172.3218,562.82943)"/></g></svg>