<?xml version="1.0" encoding="UTF-8" standalone="no"?>
<svg xmlns:dc="http://purl.org/dc/elements/1.1/" xmlns:cc="http://creativecommons.org/ns#" xmlns:rdf="http://www.w3.org/1999/02/22-rdf-syntax-ns#" xmlns:svg="http://www.w3.org/2000/svg" xmlns="http://www.w3.org/2000/svg" xmlns:sodipodi="http://sodipodi.sourceforge.net/DTD/sodipodi-0.dtd" xmlns:inkscape="http://www.inkscape.org/namespaces/inkscape" id="svg2" version="1.1" viewBox="0 0 500 440"><defs id="defs4"/><metadata id="metadata7"><rdf:RDF><cc:Work rdf:about=""><dc:format>image/svg+xml</dc:format><dc:type rdf:resource="http://purl.org/dc/dcmitype/StillImage"/><dc:title/></cc:Work></rdf:RDF></metadata><g id="layer1" transform="translate(2073.6539,2005.6714)"><g id="g4743" transform="translate(-7724.5117,-5597.5625)"><g transform="matrix(0.70090825,0,0,0.69991898,5640.0177,3541.618)" id="use6897"><path d="m 291.34375,-65.6875 c -10.8681,0.534341 -20.7122,6.547321 -26.15625,15.96875 l -405.625,702.625 c -5.72548,9.91086 -5.72052,22.11697 0,32.03125 5.72051,9.91429 16.27297,16.02815 27.71875,16.03125 l 807.875,0.15625 c 11.41896,-0.006 21.96022,-6.08998 27.6875,-15.96875 5.7273,-9.87876 5.7621,-22.05583 0.0937,-31.96875 L 320.6875,-49.59375 C 314.70518,-60.05227 303.37823,-66.2707 291.34375,-65.6875 z" id="path6615" style="fill:#ffffff;fill-opacity:1;stroke:#000000;stroke-width:12.5;stroke-linecap:round;stroke-miterlimit:4;stroke-opacity:1" transform="matrix(0.806617,0,0,0.806617,137.24505,129.88708)"/><path d="m 292.90625,-32.375 -404.5,700.65625 805.625,0.15625 C 560.31943,434.82625 426.61912,201.23809 292.90625,-32.375 z" id="path6617" style="fill:#ffcc00;fill-opacity:1;fill-rule:evenodd;stroke:#000000;stroke-width:29.4439621;stroke-linecap:round;stroke-linejoin:round;stroke-miterlimit:4;stroke-opacity:1;stroke-dasharray:none" transform="matrix(0.806617,0,0,0.806617,137.24379,129.6198)"/></g><g transform="matrix(3.6308632,0,0,3.6257384,5613.3467,3553.564)" id="g2768"><path style="fill:#000000;stroke:none" id="path2770" d="m 79.1854,67.7801 c 0,0 10.7343,-1.1104 10.7343,5.1821 0,6.2925 -5.5522,44.7888 -5.5522,44.7888 l 11.1045,1.11 4.4419,-45.5287 c 0,0 -1.8508,-13.3255 -21.4689,-13.3255 l 1.4807,0 c -19.6181,0 -21.4689,13.3255 -21.4689,13.3255 l 4.4419,45.5287 11.1045,-1.11 c 0,0 -5.5523,-38.4963 -5.5523,-44.7888 0,-6.2925 10.7345,-5.1821 10.7345,-5.1821 z"/><path style="fill:#ffcc00;stroke:none" id="path2772" d="m 64.3793,117.195 -0.9254,-6.847 8.1433,-1.119 0.9254,7.041 -8.1433,0.925 z"/><path style="fill:#ffcc00;stroke:none" id="path2774" d="m 94.3616,117.565 0.9253,-6.847 -8.1433,-1.119 -0.9254,7.041 8.1434,0.925 z"/></g></g><g id="g1327" transform="matrix(0.4327767,0,0,0.4327767,2172.3218,562.82943)"/></g></svg>