<?xml version="1.0" encoding="UTF-8" standalone="no"?>
<svg xmlns:dc="http://purl.org/dc/elements/1.1/" xmlns:cc="http://creativecommons.org/ns#" xmlns:rdf="http://www.w3.org/1999/02/22-rdf-syntax-ns#" xmlns:svg="http://www.w3.org/2000/svg" xmlns="http://www.w3.org/2000/svg" xmlns:sodipodi="http://sodipodi.sourceforge.net/DTD/sodipodi-0.dtd" xmlns:inkscape="http://www.inkscape.org/namespaces/inkscape" id="svg2" version="1.1" viewBox="0 0 500 440"><defs id="defs4"/><metadata id="metadata7"><rdf:RDF><cc:Work rdf:about=""><dc:format>image/svg+xml</dc:format><dc:type rdf:resource="http://purl.org/dc/dcmitype/StillImage"/><dc:title/></cc:Work></rdf:RDF></metadata><g id="layer1" transform="translate(2150.114,734.20996)"><g id="g3982" transform="translate(3078.945,-1163.6957)"><g transform="matrix(0.70090825,0,0,0.69991898,-5239.8991,379.2126)" id="use3908"><path d="m 291.34375,-65.6875 c -10.8681,0.534341 -20.7122,6.547321 -26.15625,15.96875 l -405.625,702.625 c -5.72548,9.91086 -5.72052,22.11697 0,32.03125 5.72051,9.91429 16.27297,16.02815 27.71875,16.03125 l 807.875,0.15625 c 11.41896,-0.006 21.96022,-6.08998 27.6875,-15.96875 5.7273,-9.87876 5.7621,-22.05583 0.0937,-31.96875 L 320.6875,-49.59375 C 314.70518,-60.05227 303.37823,-66.2707 291.34375,-65.6875 z" id="path6375" style="fill:#ffffff;fill-opacity:1;stroke:#000000;stroke-width:12.5;stroke-linecap:round;stroke-miterlimit:4;stroke-opacity:1" transform="matrix(0.806617,0,0,0.806617,137.24505,129.88708)"/><path d="m 292.90625,-32.375 -404.5,700.65625 805.625,0.15625 C 560.31943,434.82625 426.61912,201.23809 292.90625,-32.375 z" id="path6377" style="fill:#ffcc00;fill-opacity:1;fill-rule:evenodd;stroke:#000000;stroke-width:29.4439621;stroke-linecap:round;stroke-linejoin:round;stroke-miterlimit:4;stroke-opacity:1;stroke-dasharray:none" transform="matrix(0.806617,0,0,0.806617,137.24379,129.6198)"/></g><g transform="matrix(7.3126146,0,0,7.3126146,-9893.6028,-2229.2084)" id="g7223" style="display:inline"><path style="fill:#000000;fill-opacity:1;fill-rule:evenodd;stroke:none" d="m 668.66453,417.12362 16.15044,0 1.66948,-4.31888 -0.65327,-0.21776 c -0.91157,0.41471 -1.2624,0.97919 -1.52432,1.63319 l -16.25931,-0.76215 0.61698,3.6656 z" id="path7213"/><path style="fill:#000000;fill-opacity:1;fill-rule:evenodd;stroke:none" d="m 662.38582,402.17085 2.83086,15.09794 -6.8594,0 c -0.67064,-0.289 -0.85013,-0.85701 -0.61698,-1.66948 l 4.64552,-13.42846 z" id="path7217"/><path style="fill:#000000;fill-opacity:1;fill-rule:evenodd;stroke:none" d="m 665.94254,401.39055 c 0.0344,-0.54146 0.22928,-1.04885 0.74401,-1.30655 l 2.63125,-1.14323 c 0.44284,-0.0721 1.0888,-0.10285 1.6332,-0.0363 0.81694,0.21446 1.40298,0.79873 1.65133,1.56061 -0.0296,1.19167 -0.40922,1.35378 -0.68957,1.8328 l -1.85095,1.03435 -0.36293,0.47182 c -0.089,0.0557 -0.18127,0.0735 -0.2722,-0.0363 l -0.70771,-0.7803 0,0.52625 -0.39923,0.18147 c -0.70704,0.0645 -1.30312,-0.0211 -1.39728,-0.2722 -0.48193,-0.67747 -0.76133,-1.35495 -0.97992,-2.03242 z" id="path7219"/><path style="fill:#000000;fill-opacity:1;fill-rule:evenodd;stroke:none" d="m 665.84375,417.14343 c 0,-0.1875 -3.03125,-15.59375 -3.03125,-15.59375 0.58206,-0.2112 1.17604,-0.39427 2.03125,-0.25 0.21223,0.0937 0.40876,0.28269 0.5,0.59375 l 2.59375,13.28125 c 0.0657,0.43504 0.007,0.75216 -0.125,1 -0.65625,0.67196 -1.3125,0.89877 -1.96875,0.96875 z" id="path7221-9"/></g></g><g id="g1327" transform="matrix(0.4327767,0,0,0.4327767,2172.3218,562.82943)"/></g></svg>