<?xml version="1.0" encoding="UTF-8" standalone="no"?>
<svg xmlns:dc="http://purl.org/dc/elements/1.1/" xmlns:cc="http://creativecommons.org/ns#" xmlns:rdf="http://www.w3.org/1999/02/22-rdf-syntax-ns#" xmlns:svg="http://www.w3.org/2000/svg" xmlns="http://www.w3.org/2000/svg" xmlns:sodipodi="http://sodipodi.sourceforge.net/DTD/sodipodi-0.dtd" xmlns:inkscape="http://www.inkscape.org/namespaces/inkscape" id="svg2" version="1.1" viewBox="0 0 500 440"><defs id="defs4"/><metadata id="metadata7"><rdf:RDF><cc:Work rdf:about=""><dc:format>image/svg+xml</dc:format><dc:type rdf:resource="http://purl.org/dc/dcmitype/StillImage"/><dc:title/></cc:Work></rdf:RDF></metadata><g id="layer1" transform="translate(2751.3913,2629.3514)"><g transform="matrix(0.70090825,0,0,0.69991898,-2762.2314,-2679.6245)" id="use8390"><path d="m 291.34375,-65.6875 c -10.8681,0.534341 -20.7122,6.547321 -26.15625,15.96875 l -405.625,702.625 c -5.72548,9.91086 -5.72052,22.11697 0,32.03125 5.72051,9.91429 16.27297,16.02815 27.71875,16.03125 l 807.875,0.15625 c 11.41896,-0.006 21.96022,-6.08998 27.6875,-15.96875 5.7273,-9.87876 5.7621,-22.05583 0.0937,-31.96875 L 320.6875,-49.59375 C 314.70518,-60.05227 303.37823,-66.2707 291.34375,-65.6875 z" id="path5817" style="fill:#ffffff;fill-opacity:1;stroke:#000000;stroke-width:12.5;stroke-linecap:round;stroke-miterlimit:4;stroke-opacity:1" transform="matrix(0.806617,0,0,0.806617,137.24505,129.88708)"/><path d="m 292.90625,-32.375 -404.5,700.65625 805.625,0.15625 C 560.31943,434.82625 426.61912,201.23809 292.90625,-32.375 z" id="path5819" style="fill:#ffcc00;fill-opacity:1;fill-rule:evenodd;stroke:#000000;stroke-width:29.4439621;stroke-linecap:round;stroke-linejoin:round;stroke-miterlimit:4;stroke-opacity:1;stroke-dasharray:none" transform="matrix(0.806617,0,0,0.806617,137.24379,129.6198)"/></g><path style="fill:#000000;fill-opacity:1;fill-rule:evenodd;stroke:none" d="m -2527.972,-2295.8553 c -4.6093,-1.6923 -5.5627,0.474 -4.9675,5.939 0.6157,5.6529 2.2653,12.3558 5.8158,15.2302 6.776,5.4854 9.8132,6.6297 26.0804,6.4698 l -0.089,-22.3125 c -4.4904,-0.08 -8.7422,0.5524 -15.0264,-2.4284 -8.106,-3.8449 -8.8271,-2.9373 -11.8132,-2.8981 z m 2.9498,2.917 c 0.7508,0 1.1485,0.5141 1.1485,1.3195 l 0,2.1724 c 0,0.8054 -0.7223,0.8606 -1.4731,0.8606 -0.7508,0 -0.8777,-0.3258 -0.8777,-1.1312 l 0.025,-1.9559 c 0,-0.8054 0.4265,-1.2654 1.1772,-1.2654 z m 5.0705,2.0756 c 0.8593,0 1.6512,1.4572 1.6512,2.3253 l -0.054,2.2041 c 0,0.8682 -0.5214,1.2973 -1.3806,1.2973 -0.8593,0 -1.7053,-0.2668 -1.7053,-1.1349 l -0.054,-2.2583 c 0,-0.8681 0.6837,-2.4335 1.5429,-2.4335 z m 6.3569,2.4615 c 0.9664,0 1.3423,0.7628 1.3423,1.7078 l 0.1623,2.5344 c 0,0.9449 -0.8088,1.329 -1.7751,1.329 -0.9664,0 -1.6425,-0.817 -1.6425,-1.7619 l 0.054,-2.1015 c 0,-0.945 0.8926,-1.7078 1.8589,-1.7078 z m 7.3152,0.4593 c 1.1792,0 3.3809,0.9572 3.3809,2.0698 l 0,3.1689 c 0,1.1125 -1.1196,1.7451 -2.2988,1.7451 -1.1791,0 -3.2971,-0.2538 -3.2971,-1.3664 l 0.1623,-3.3853 c 0,-1.1126 0.8735,-2.2321 2.0527,-2.2321 z m -21.3747,1.6983 c 0.7508,0 1.2812,0.1093 1.2812,0.9147 l -0.054,2.7177 c 10e-5,0.8054 -0.6385,0.4234 -1.3893,0.4234 -0.7508,0 -1.0403,-0.059 -1.0403,-0.8645 l -0.054,-2.4931 c 0,-0.8054 0.5059,-0.6982 1.2567,-0.6982 z m 4.2519,3.5517 c 0.8592,0 2.2174,0.4291 2.2174,1.2972 l -0.079,3.0408 c 0,0.8681 -0.9543,0.5146 -1.8135,0.5146 -0.8593,0 -1.8432,-0.175 -1.8432,-1.0431 l 0.054,-2.6205 c 0,-0.8682 0.6052,-1.189 1.4644,-1.189 z m 6.5087,2.3236 c 0.9664,0 1.6966,0.3299 1.6966,1.2749 l -0.1623,3.2098 c 0,0.9449 -0.5679,0.8961 -1.5343,0.8961 -0.9663,0 -2.3501,0.1323 -2.3501,-0.8126 l 0.2329,-3.9473 c 0,-0.9449 1.1509,-0.6209 2.1172,-0.6209 z m 5.966,1.9166 c 0.9663,0 1.913,0.01 1.913,0.9502 l -0.1083,2.9132 c 0,0.9449 -0.9466,1.8421 -1.913,1.8421 -0.9663,0 -1.8833,-0.8971 -1.8833,-1.8421 l 0.054,-2.7508 c 0,-0.9449 0.9711,-1.1126 1.9375,-1.1126 z m 6.5017,0.4388 c 0.9578,0 1.9375,0.5481 1.9375,1.5772 l -0.054,3.2714 c 1e-4,1.0291 -0.9255,1.956 -1.8833,1.956 -0.9578,0 -1.721,-0.981 -1.721,-2.0101 l 0,-3.542 c 0,-1.029 0.7632,-1.2525 1.721,-1.2525 z" id="path2121"/><path style="fill:#000000;fill-rule:evenodd;stroke:none" d="m -2501.131,-2335.7635 c -2.8777,0 -10.6928,13.16 -11.1112,15.5077 -1.4389,8.0737 -1.5788,10.4518 1.199,13.5893 2.7778,3.1375 7.5141,0.3997 9.9122,-1.0392 l 0,-28.0578 z" id="path2123"/><path style="fill:#000000;fill-rule:evenodd;stroke:none" d="m -2541.8988,-2347.4343 c 0.6595,-7.6739 10.8914,-13.1296 20.1441,-12.4701 8.3537,0.5903 15.381,4.4811 13.3495,11.9106 -2.0984,7.6739 -7.614,18.6452 -15.9874,18.7851 -8.3734,0.1399 -18.1657,-10.5516 -17.5062,-18.2256 z" id="path2125"/><path style="fill:none;stroke:#000000;stroke-width:4.76146221;stroke-linecap:butt;stroke-linejoin:miter;stroke-miterlimit:4;stroke-opacity:1;stroke-dasharray:none" d="m -2557.0586,-2349.8121 c -2.6525,-6.6312 -9.6484,-13.3003 -11.0883,-26.5248 -1.4399,-13.2246 6.9722,-35.5812 20.9167,-46.8353 9.6398,-7.78 26.9417,-15.5739 45.9259,-15.6118" id="path2127"/><path style="fill:none;stroke:#000000;stroke-width:4.76146221;stroke-linecap:round;stroke-linejoin:miter;stroke-miterlimit:4;stroke-opacity:1;stroke-dasharray:none" d="m -2501.1527,-2244.0159 c -7.6217,0.14 -19.2997,-0.7495 -27.889,-12.4288 -4.9371,-6.7132 -10.7435,-23.3885 -14.4618,-38.7006 -3.6258,-14.9311 -2.5334,-12.6313 -7.3477,-18.2426 -13.0213,-15.1771 -11.6044,-22.4238 -5.9682,-36.5758 3.7552,-9.4291 2.5153,-8.3666 1.556,-19.401 -1.1573,-13.3111 -0.1432,-17.5064 0.01,-23.3419" id="path2129"/><path style="fill:none;stroke:#000000;stroke-width:4.76146221;stroke-linecap:butt;stroke-linejoin:miter;stroke-miterlimit:4;stroke-opacity:1;stroke-dasharray:none" d="m -2543.4533,-2294.2096 c 0,0 -32.8487,-10.2938 -46.1613,-15.9054 -3.3048,-1.393 -4.2334,-6.672 -8.0567,-4.0793 -2.8308,1.9197 -1.1767,4.1258 -1.2664,8.7598 -0.09,4.6341 -3.3613,3.9953 -3.1036,7.5843 0.4638,6.4151 5.9848,1.0037 14.1009,2.6839 14.745,3.0524 48.0748,14.1115 48.0748,14.1115 l -3.5877,-13.1548 z" id="path2131"/><path style="fill:none;stroke:#000000;stroke-width:4.76146221;stroke-linecap:butt;stroke-linejoin:miter;stroke-miterlimit:4;stroke-opacity:1;stroke-dasharray:none" d="m -2536.726,-2272.2485 c 0,0 -33.9865,14.3778 -34.7059,14.7337 -6.917,3.4229 -14.4427,-0.7439 -17.3938,1.6113 -2.9512,2.3553 1.5863,3.9873 3.2725,7.9339 1.758,4.1146 -2.2895,6.8455 1.6083,8.5247 3.6181,1.5587 5.7148,-2.4106 16.4207,-7.0754 12.9018,-5.6215 35.3384,-15.0585 35.3384,-15.0585 l -4.5402,-10.6697 z" id="path2133"/><path style="fill:none;stroke:#000000;stroke-width:4.76146221;stroke-linecap:round;stroke-linejoin:bevel;stroke-miterlimit:4;stroke-opacity:1;stroke-dasharray:none" d="m -2530.9004,-2294.2594 c 0.087,2.7979 -2.3142,-13.7774 -7.5234,-16.704 -8.1782,-4.5947 -18.6236,-10.5797 -16.5252,-7.6069" id="path2135"/><path id="path4970" d="m -2474.8114,-2295.8553 c 4.6093,-1.6923 5.5627,0.474 4.9675,5.939 -0.6157,5.6529 -2.2653,12.3558 -5.8158,15.2302 -6.776,5.4854 -9.8132,6.6297 -26.0804,6.4698 l 0.089,-22.3125 c 4.4904,-0.08 8.7422,0.5524 15.0264,-2.4284 8.106,-3.8449 8.8271,-2.9373 11.8132,-2.8981 z m -2.9498,2.917 c -0.7508,0 -1.1485,0.5141 -1.1485,1.3195 l 0,2.1724 c 0,0.8054 0.7223,0.8606 1.4731,0.8606 0.7508,0 0.8777,-0.3258 0.8777,-1.1312 l -0.025,-1.9559 c 0,-0.8054 -0.4265,-1.2654 -1.1772,-1.2654 z m -5.0705,2.0756 c -0.8593,0 -1.6512,1.4572 -1.6512,2.3253 l 0.054,2.2041 c 0,0.8682 0.5214,1.2973 1.3806,1.2973 0.8593,0 1.7053,-0.2668 1.7053,-1.1349 l 0.054,-2.2583 c 0,-0.8681 -0.6837,-2.4335 -1.5429,-2.4335 z m -6.3569,2.4615 c -0.9664,0 -1.3423,0.7628 -1.3423,1.7078 l -0.1623,2.5344 c 0,0.9449 0.8088,1.329 1.7751,1.329 0.9664,0 1.6425,-0.817 1.6425,-1.7619 l -0.054,-2.1015 c 0,-0.945 -0.8926,-1.7078 -1.8589,-1.7078 z m -7.3152,0.4593 c -1.1792,0 -3.3809,0.9572 -3.3809,2.0698 l 0,3.1689 c 0,1.1125 1.1196,1.7451 2.2988,1.7451 1.1791,0 3.2971,-0.2538 3.2971,-1.3664 l -0.1623,-3.3853 c 0,-1.1126 -0.8735,-2.2321 -2.0527,-2.2321 z m 21.3747,1.6983 c -0.7508,0 -1.2812,0.1093 -1.2812,0.9147 l 0.054,2.7177 c -1e-4,0.8054 0.6385,0.4234 1.3893,0.4234 0.7508,0 1.0403,-0.059 1.0403,-0.8645 l 0.054,-2.4931 c 0,-0.8054 -0.5059,-0.6982 -1.2567,-0.6982 z m -4.2519,3.5517 c -0.8592,0 -2.2174,0.4291 -2.2174,1.2972 l 0.079,3.0408 c 0,0.8681 0.9543,0.5146 1.8135,0.5146 0.8593,0 1.8432,-0.175 1.8432,-1.0431 l -0.054,-2.6205 c 0,-0.8682 -0.6052,-1.189 -1.4644,-1.189 z m -6.5087,2.3236 c -0.9664,0 -1.6966,0.3299 -1.6966,1.2749 l 0.1623,3.2098 c 0,0.9449 0.5679,0.8961 1.5343,0.8961 0.9663,0 2.3501,0.1323 2.3501,-0.8126 l -0.2329,-3.9473 c 0,-0.9449 -1.1509,-0.6209 -2.1172,-0.6209 z m -5.966,1.9166 c -0.9663,0 -1.913,0.01 -1.913,0.9502 l 0.1083,2.9132 c 0,0.9449 0.9466,1.8421 1.913,1.8421 0.9663,0 1.8833,-0.8971 1.8833,-1.8421 l -0.054,-2.7508 c 0,-0.9449 -0.9711,-1.1126 -1.9375,-1.1126 z m -6.5017,0.4388 c -0.9578,0 -1.9375,0.5481 -1.9375,1.5772 l 0.054,3.2714 c -1e-4,1.0291 0.9255,1.956 1.8833,1.956 0.9578,0 1.721,-0.981 1.721,-2.0101 l 0,-3.542 c 0,-1.029 -0.7632,-1.2525 -1.721,-1.2525 z" style="fill:#000000;fill-opacity:1;fill-rule:evenodd;stroke:none"/><path id="path4972" d="m -2501.6524,-2335.7635 c 2.8777,0 10.6928,13.16 11.1112,15.5077 1.4389,8.0737 1.5788,10.4518 -1.199,13.5893 -2.7778,3.1375 -7.5141,0.3997 -9.9122,-1.0392 l 0,-28.0578 z" style="fill:#000000;fill-rule:evenodd;stroke:none"/><path id="path4974" d="m -2460.8846,-2347.4343 c -0.6595,-7.6739 -10.8914,-13.1296 -20.1441,-12.4701 -8.3537,0.5903 -15.381,4.4811 -13.3495,11.9106 2.0984,7.6739 7.614,18.6452 15.9874,18.7851 8.3734,0.1399 18.1657,-10.5516 17.5062,-18.2256 z" style="fill:#000000;fill-rule:evenodd;stroke:none"/><path id="path4978" d="m -2445.7248,-2349.8121 c 2.6525,-6.6312 9.6484,-13.3003 11.0883,-26.5248 1.4399,-13.2246 -6.9722,-35.5812 -20.9167,-46.8353 -9.6398,-7.78 -26.9417,-15.5739 -45.9259,-15.6118" style="fill:none;stroke:#000000;stroke-width:4.76146221;stroke-linecap:butt;stroke-linejoin:miter;stroke-miterlimit:4;stroke-opacity:1;stroke-dasharray:none"/><path id="path4980-4" d="m -2501.6307,-2244.0159 c 7.6217,0.14 19.2997,-0.7495 27.889,-12.4288 4.9371,-6.7132 10.7435,-23.3885 14.4618,-38.7006 3.6258,-14.9311 2.5334,-12.6313 7.3477,-18.2426 13.0213,-15.1771 11.6044,-22.4238 5.9682,-36.5758 -3.7552,-9.4291 -2.5153,-8.3666 -1.556,-19.401 1.1573,-13.3111 0.1432,-17.5064 -0.01,-23.3419" style="fill:none;stroke:#000000;stroke-width:4.76146221;stroke-linecap:round;stroke-linejoin:miter;stroke-miterlimit:4;stroke-opacity:1;stroke-dasharray:none"/><path id="path4982-4" d="m -2459.3301,-2294.2096 c 0,0 32.8487,-10.2938 46.1613,-15.9054 3.3048,-1.393 4.2334,-6.672 8.0567,-4.0793 2.8308,1.9197 1.1767,4.1258 1.2664,8.7598 0.09,4.6341 3.3613,3.9953 3.1036,7.5843 -0.4638,6.4151 -5.9848,1.0037 -14.1009,2.6839 -14.745,3.0524 -48.0748,14.1115 -48.0748,14.1115 l 3.5877,-13.1548 z" style="fill:none;stroke:#000000;stroke-width:4.76146221;stroke-linecap:butt;stroke-linejoin:miter;stroke-miterlimit:4;stroke-opacity:1;stroke-dasharray:none"/><path id="path4984-3" d="m -2466.0574,-2272.2485 c 0,0 33.9865,14.3778 34.7059,14.7337 6.917,3.4229 14.4427,-0.7439 17.3938,1.6113 2.9512,2.3553 -1.5863,3.9873 -3.2725,7.9339 -1.758,4.1146 2.2895,6.8455 -1.6083,8.5247 -3.6181,1.5587 -5.7148,-2.4106 -16.4207,-7.0754 -12.9018,-5.6215 -35.3384,-15.0585 -35.3384,-15.0585 l 4.5402,-10.6697 z" style="fill:none;stroke:#000000;stroke-width:4.76146221;stroke-linecap:butt;stroke-linejoin:miter;stroke-miterlimit:4;stroke-opacity:1;stroke-dasharray:none"/><path id="path4986" d="m -2471.883,-2294.2594 c -0.087,2.7979 2.3142,-13.7774 7.5234,-16.704 8.1782,-4.5947 18.6236,-10.5797 16.5252,-7.6069" style="fill:none;stroke:#000000;stroke-width:4.76146221;stroke-linecap:round;stroke-linejoin:bevel;stroke-miterlimit:4;stroke-opacity:1;stroke-dasharray:none"/><g id="g1327" transform="matrix(0.4327767,0,0,0.4327767,2172.3218,562.82943)"/></g></svg>