<?xml version="1.0" encoding="UTF-8" standalone="no"?>
<svg xmlns:dc="http://purl.org/dc/elements/1.1/" xmlns:cc="http://creativecommons.org/ns#" xmlns:rdf="http://www.w3.org/1999/02/22-rdf-syntax-ns#" xmlns:svg="http://www.w3.org/2000/svg" xmlns="http://www.w3.org/2000/svg" xmlns:sodipodi="http://sodipodi.sourceforge.net/DTD/sodipodi-0.dtd" xmlns:inkscape="http://www.inkscape.org/namespaces/inkscape" id="svg2" version="1.1" viewBox="0 0 500 440"><defs id="defs4"/><metadata id="metadata7"><rdf:RDF><cc:Work rdf:about=""><dc:format>image/svg+xml</dc:format><dc:type rdf:resource="http://purl.org/dc/dcmitype/StillImage"/><dc:title/></cc:Work></rdf:RDF></metadata><g id="layer1" transform="translate(2370.7271,1973.3465)"><g id="g4732" transform="translate(-6916.7659,-5565.2376)"><g transform="matrix(0.70090825,0,0,0.69991898,4535.1987,3541.618)" id="use6901"><path d="m 291.34375,-65.6875 c -10.8681,0.534341 -20.7122,6.547321 -26.15625,15.96875 l -405.625,702.625 c -5.72548,9.91086 -5.72052,22.11697 0,32.03125 5.72051,9.91429 16.27297,16.02815 27.71875,16.03125 l 807.875,0.15625 c 11.41896,-0.006 21.96022,-6.08998 27.6875,-15.96875 5.7273,-9.87876 5.7621,-22.05583 0.0937,-31.96875 L 320.6875,-49.59375 C 314.70518,-60.05227 303.37823,-66.2707 291.34375,-65.6875 z" id="path6597" style="fill:#ffffff;fill-opacity:1;stroke:#000000;stroke-width:12.5;stroke-linecap:round;stroke-miterlimit:4;stroke-opacity:1" transform="matrix(0.806617,0,0,0.806617,137.24505,129.88708)"/><path d="m 292.90625,-32.375 -404.5,700.65625 805.625,0.15625 C 560.31943,434.82625 426.61912,201.23809 292.90625,-32.375 z" id="path6599" style="fill:#ffcc00;fill-opacity:1;fill-rule:evenodd;stroke:#000000;stroke-width:29.4439621;stroke-linecap:round;stroke-linejoin:round;stroke-miterlimit:4;stroke-opacity:1;stroke-dasharray:none" transform="matrix(0.806617,0,0,0.806617,137.24379,129.6198)"/></g><g transform="matrix(3.5923782,0,0,3.5873834,4521.9957,3564.2824)" id="g3398"><path style="fill:#000000;stroke:none" id="path3400" d="m 97.9889,81.2671 c 3.0841,0 5.5841,-2.5002 5.5841,-5.5843 0,-3.0841 -2.5,-5.5843 -5.5841,-5.5843 -3.0841,0 -5.5843,2.5002 -5.5843,5.5843 0,3.0841 2.5002,5.5843 5.5843,5.5843 z"/><path style="fill:#000000;stroke:none" id="path3402" d="m 65.9609,117.144 0,-2.413 7.8973,0 0,-3.949 9.6523,0 0,3.949 8.9942,0 0,2.413 -26.5438,0 z"/><path style="fill:#000000;stroke:none" id="path3404" d="m 69.4708,74.8053 -1.4625,-3.8024 12.8697,-4.6799 9.0673,6.4349 c 0,0 0.585,7.3123 2.925,8.7748 l -3.8025,9.9448 5.8499,5.5574 -1.4624,2.9249 -11.1148,-7.0198 5.2649,-6.7274 -0.585,-1.17 -11.6998,3.8024 2.0475,10.2373 -7.6048,12.2847 -4.6799,0 7.6048,-12.8697 -2.0475,-8.4823 -1.7549,-2.3399 -5.8499,7.8973 -14.0397,-7.8973 3.5099,-2.925 8.4824,4.6799 5.2648,-8.1898 18.7197,-4.9724 0.8774,-2.0475 -4.6798,-3.2174 -11.6998,3.8024 z"/></g></g><g id="g1327" transform="matrix(0.4327767,0,0,0.4327767,2172.3218,562.82943)"/></g></svg>