<?xml version="1.0" encoding="UTF-8" standalone="no"?>
<svg xmlns:dc="http://purl.org/dc/elements/1.1/" xmlns:cc="http://creativecommons.org/ns#" xmlns:rdf="http://www.w3.org/1999/02/22-rdf-syntax-ns#" xmlns:svg="http://www.w3.org/2000/svg" xmlns="http://www.w3.org/2000/svg" xmlns:sodipodi="http://sodipodi.sourceforge.net/DTD/sodipodi-0.dtd" xmlns:inkscape="http://www.inkscape.org/namespaces/inkscape" id="svg2" version="1.1" viewBox="0 0 500 440"><defs id="defs4"/><metadata id="metadata7"><rdf:RDF><cc:Work rdf:about=""><dc:format>image/svg+xml</dc:format><dc:type rdf:resource="http://purl.org/dc/dcmitype/StillImage"/><dc:title/></cc:Work></rdf:RDF></metadata><g id="layer1" transform="translate(2498.7552,2287.3468)"><g id="g5005" transform="translate(-1126.3478,-4649.8263)"><g transform="matrix(0.70090825,0,0,0.69991898,-1383.2475,2312.2064)" id="use4995"><path d="m 291.34375,-65.6875 c -10.8681,0.534341 -20.7122,6.547321 -26.15625,15.96875 l -405.625,702.625 c -5.72548,9.91086 -5.72052,22.11697 0,32.03125 5.72051,9.91429 16.27297,16.02815 27.71875,16.03125 l 807.875,0.15625 c 11.41896,-0.006 21.96022,-6.08998 27.6875,-15.96875 5.7273,-9.87876 5.7621,-22.05583 0.0937,-31.96875 L 320.6875,-49.59375 C 314.70518,-60.05227 303.37823,-66.2707 291.34375,-65.6875 z" id="path6267" style="fill:#ffffff;fill-opacity:1;stroke:#000000;stroke-width:12.5;stroke-linecap:round;stroke-miterlimit:4;stroke-opacity:1" transform="matrix(0.806617,0,0,0.806617,137.24505,129.88708)"/><path d="m 292.90625,-32.375 -404.5,700.65625 805.625,0.15625 C 560.31943,434.82625 426.61912,201.23809 292.90625,-32.375 z" id="path6269" style="fill:#ffcc00;fill-opacity:1;fill-rule:evenodd;stroke:#000000;stroke-width:29.4439621;stroke-linecap:round;stroke-linejoin:round;stroke-miterlimit:4;stroke-opacity:1;stroke-dasharray:none" transform="matrix(0.806617,0,0,0.806617,137.24379,129.6198)"/></g><path id="path14256" d="m -1342.3646,2774.2756 h 450.28423 l -29.2255,-54.7879 c -7.6424,3.2756 -34.07499,9.0505 -43.84829,10.1893 -18.7403,2.1826 -41.34714,2.5861 -60.69524,1.1205 -26.8178,-2.0309 -54.18,-9.6007 -76.852,-26.2276 -10.9162,-8.0059 -17.649,-21.1797 -19.649,-34.5678 -2.4677,-16.5219 3.614,-32.0934 18.5585,-41.664 10.3385,-6.6194 27.1397,-8.6319 38.572,-5.8216 10.4026,2.5577 18.1934,4.0008 29.1096,15.0988 l 3.8357,-2.4552 c -1.7657,-5.1813 -6.2867,-13.2247 -8.7136,-17.1922 -3.4339,-5.609 -9.6548,-13.5414 -15.4239,-18.8403 -7.5223,-6.9079 -16.2501,-12.3635 -26.0234,-16.8379 -12.0441,-5.5148 -22.7269,-7.5356 -36.3151,-8.6177 -13.0996,-1.0421 -26.872,-0.5202 -39.7682,2.3184 -8.0776,1.7783 -20.2218,4.5261 -28.0134,7.1239 -9.8916,3.2963 -20.2351,7.1963 -29.7916,11.5398 -5.1804,2.3551 -33.7974,18.8403 -33.7974,18.8403 l -92.2434,160.7812 z"/></g><g id="g1327" transform="matrix(0.4327767,0,0,0.4327767,2172.3218,562.82943)"/></g></svg>