<?xml version="1.0" encoding="UTF-8" standalone="no"?>
<svg xmlns:dc="http://purl.org/dc/elements/1.1/" xmlns:cc="http://creativecommons.org/ns#" xmlns:rdf="http://www.w3.org/1999/02/22-rdf-syntax-ns#" xmlns:svg="http://www.w3.org/2000/svg" xmlns="http://www.w3.org/2000/svg" xmlns:sodipodi="http://sodipodi.sourceforge.net/DTD/sodipodi-0.dtd" xmlns:inkscape="http://www.inkscape.org/namespaces/inkscape" id="svg2" version="1.1" viewBox="0 0 500 440"><defs id="defs4"/><metadata id="metadata7"><rdf:RDF><cc:Work rdf:about=""><dc:format>image/svg+xml</dc:format><dc:type rdf:resource="http://purl.org/dc/dcmitype/StillImage"/><dc:title/></cc:Work></rdf:RDF></metadata><g id="layer1" transform="translate(-104.54645,669.56026)"><g id="g3450" transform="translate(864.69059,-1099.046)"><g id="use3924" transform="matrix(0.70090825,0,0,0.69991898,-770.98423,379.2126)"><path transform="matrix(0.806617,0,0,0.806617,137.24505,129.88708)" style="fill:#ffffff;fill-opacity:1;stroke:#000000;stroke-width:12.5;stroke-linecap:round;stroke-miterlimit:4;stroke-opacity:1" id="path6645" d="m 291.34375,-65.6875 c -10.8681,0.534341 -20.7122,6.547321 -26.15625,15.96875 l -405.625,702.625 c -5.72548,9.91086 -5.72052,22.11697 0,32.03125 5.72051,9.91429 16.27297,16.02815 27.71875,16.03125 l 807.875,0.15625 c 11.41896,-0.006 21.96022,-6.08998 27.6875,-15.96875 5.7273,-9.87876 5.7621,-22.05583 0.0937,-31.96875 L 320.6875,-49.59375 C 314.70518,-60.05227 303.37823,-66.2707 291.34375,-65.6875 z"/><path transform="matrix(0.806617,0,0,0.806617,137.24379,129.6198)" style="fill:#ffcc00;fill-opacity:1;fill-rule:evenodd;stroke:#000000;stroke-width:29.4439621;stroke-linecap:round;stroke-linejoin:round;stroke-miterlimit:4;stroke-opacity:1;stroke-dasharray:none" id="path6647" d="m 292.90625,-32.375 -404.5,700.65625 805.625,0.15625 C 560.31943,434.82625 426.61912,201.23809 292.90625,-32.375 z"/></g><path style="fill:#000000;fill-rule:evenodd;stroke:none" d="m -621.58213,717.71418 c 31.35974,-35.24948 59.39992,-80.45759 95.06338,-102.79582 2.80941,-22.11515 13.62325,-37.11522 27.29097,-49.57851 l 3.63875,49.57851 c 4.50654,-12.05099 12.93053,-21.30372 25.92642,-27.29092 l -1.36457,44.57519 c 9.64215,7.23565 25.35136,18.57711 31.68241,33.72976 6.46325,15.46906 27.06096,18.69458 40.63856,29.4942 -39.07954,59.23217 -65.49863,19.71319 -98.24737,29.56517 -1.21291,32.29428 -4.38891,52.81028 -3.63876,96.88281 -28.10921,3.00472 -65.06964,-21.31386 -120.98979,-104.16039 z" id="path3242"/></g><g id="g1327" transform="matrix(0.4327767,0,0,0.4327767,2172.3218,562.82943)"/></g></svg>